<?xml version="1.0" encoding="iso-8859-1"?>
<!-- Generator: Adobe Illustrator 17.0.0, SVG Export Plug-In . SVG Version: 6.00 Build 0)  -->
<!DOCTYPE svg PUBLIC "-//W3C//DTD SVG 1.1//EN" "http://www.w3.org/Graphics/SVG/1.1/DTD/svg11.dtd">
<svg version="1.1" id="Layer_1" xmlns="http://www.w3.org/2000/svg" xmlns:xlink="http://www.w3.org/1999/xlink" x="0px" y="0px"
	 width="213.32px" height="213.172px" viewBox="0 0 213.32 213.172" style="enable-background:new 0 0 213.32 213.172;"
	 xml:space="preserve">
<g>
	<g>
		<g>
			<path style="fill:#3B6CB4;" d="M-219.653,43.528v169.644h186.639V43.528H-219.653z M-40.121,206.682h-172.425V50.635h172.425
				V206.682z"/>
		</g>
	</g>
	<rect x="-142.711" y="82.133" style="fill:#3B6CB4;" width="81.268" height="7.107"/>
	<rect x="-142.711" y="124.796" style="fill:#3B6CB4;" width="81.268" height="7.107"/>
	<rect x="-142.711" y="167.768" style="fill:#3B6CB4;" width="81.268" height="7.107"/>
	<g>
		<g>
			<path style="fill:#3B6CB4;" d="M-152.789,80.182l-4.884-5.101c-0.104-0.108-0.301-0.088-0.441,0.046l-18.918,18.113
				l-10.879-11.646c-0.092-0.099-0.256-0.095-0.365,0.007l-5.16,4.821c-0.11,0.102-0.124,0.265-0.032,0.364l11.091,11.872
				c0.009,0.019,0.002,0.045,0.017,0.06l1.625,1.698l3.182,3.406c0.06,0.064,0.147,0.069,0.233,0.048
				c0.095,0.008,0.197-0.015,0.284-0.098l4.274-4.092l0.734-0.686c0.01-0.009,0.008-0.023,0.016-0.033l19.157-18.342
				C-152.715,80.486-152.686,80.29-152.789,80.182z"/>
		</g>
	</g>
	<g>
		<g>
			<path style="fill:#3B6CB4;" d="M-152.789,122.632l-4.884-5.101c-0.104-0.108-0.301-0.088-0.441,0.046l-18.918,18.113
				l-10.879-11.646c-0.092-0.099-0.256-0.095-0.365,0.007l-5.16,4.821c-0.11,0.102-0.124,0.265-0.032,0.364l11.091,11.872
				c0.009,0.019,0.002,0.045,0.017,0.06l1.625,1.698l3.182,3.406c0.06,0.064,0.147,0.069,0.233,0.048
				c0.095,0.008,0.197-0.015,0.284-0.098l4.274-4.092l0.734-0.686c0.01-0.009,0.008-0.023,0.016-0.033l19.157-18.342
				C-152.715,122.936-152.686,122.74-152.789,122.632z"/>
		</g>
	</g>
	<g>
		<g>
			<path style="fill:#3B6CB4;" d="M-152.789,165.603l-4.884-5.101c-0.104-0.108-0.301-0.088-0.441,0.046l-18.918,18.113
				l-10.879-11.646c-0.092-0.099-0.256-0.095-0.365,0.007l-5.16,4.821c-0.11,0.102-0.124,0.265-0.032,0.364l11.091,11.872
				c0.009,0.019,0.002,0.045,0.017,0.06l1.625,1.698l3.182,3.406c0.06,0.064,0.147,0.069,0.233,0.048
				c0.095,0.008,0.197-0.015,0.284-0.098l4.274-4.092l0.734-0.686c0.01-0.009,0.008-0.023,0.016-0.033l19.157-18.342
				C-152.715,165.908-152.686,165.712-152.789,165.603z"/>
		</g>
	</g>
</g>
<g>
	<rect x="76.942" y="82.133" style="fill:#FBAC18;" width="81.268" height="7.107"/>
	<rect x="76.942" y="124.796" style="fill:#FBAC18;" width="81.268" height="7.107"/>
	<rect x="76.942" y="167.768" style="fill:#FBAC18;" width="81.268" height="7.107"/>
	<g>
		<g>
			<path style="fill:#FBAC18;" d="M66.863,80.182l-4.884-5.101c-0.104-0.108-0.301-0.088-0.441,0.046L42.621,93.241L31.741,81.595
				c-0.092-0.099-0.256-0.095-0.365,0.007l-5.16,4.821c-0.11,0.102-0.124,0.265-0.032,0.364l11.091,11.872
				c0.009,0.019,0.002,0.045,0.017,0.06l1.625,1.698l3.182,3.406c0.06,0.064,0.147,0.069,0.233,0.048
				c0.095,0.008,0.197-0.015,0.284-0.098l4.274-4.092l0.734-0.686c0.01-0.009,0.008-0.023,0.016-0.033L66.798,80.62
				C66.938,80.486,66.967,80.29,66.863,80.182z"/>
		</g>
	</g>
	<g>
		<g>
			<path style="fill:#FBAC18;" d="M66.863,122.632l-4.884-5.101c-0.104-0.108-0.301-0.088-0.441,0.046l-18.918,18.113
				l-10.879-11.646c-0.092-0.099-0.256-0.095-0.365,0.007l-5.16,4.821c-0.11,0.102-0.124,0.265-0.032,0.364l11.091,11.872
				c0.009,0.019,0.002,0.045,0.017,0.06l1.625,1.698l3.182,3.406c0.06,0.064,0.147,0.069,0.233,0.048
				c0.095,0.008,0.197-0.015,0.284-0.098l4.272-4.09l0.737-0.688c0.01-0.009,0.008-0.023,0.016-0.033l19.157-18.342
				C66.938,122.936,66.967,122.74,66.863,122.632z"/>
		</g>
	</g>
	<g>
		<g>
			<path style="fill:#FBAC18;" d="M66.863,165.603l-4.884-5.101c-0.104-0.108-0.301-0.088-0.441,0.046l-18.918,18.113
				l-10.879-11.646c-0.092-0.099-0.256-0.095-0.365,0.007l-5.16,4.821c-0.11,0.102-0.124,0.265-0.032,0.364l11.091,11.872
				c0.009,0.019,0.002,0.045,0.017,0.06l1.625,1.698l3.182,3.406c0.06,0.064,0.147,0.069,0.233,0.048
				c0.095,0.008,0.197-0.015,0.284-0.098l4.272-4.09l0.737-0.688c0.01-0.009,0.008-0.023,0.016-0.033l19.157-18.342
				C66.938,165.908,66.967,165.712,66.863,165.603z"/>
		</g>
	</g>
	<g>
		<g>
			<polygon style="fill:#FBAC18;" points="179.532,78.5 179.532,206.682 7.107,206.682 7.107,50.635 132.986,50.635 132.986,43.528 
				0,43.528 0,213.172 186.639,213.172 186.639,78.5 			"/>
		</g>
	</g>
	<g>
		<g>
			<path style="fill:#FBAC18;" d="M177.807,0.061V6.07c16.434,1.074,29.433,14.736,29.433,31.442
				c0,17.407-14.111,31.518-31.518,31.518s-31.518-14.111-31.518-31.518c0-1.706,0.14-3.379,0.401-5.011h-6.051
				c-0.219,1.64-0.343,3.311-0.343,5.011c0,20.717,16.794,37.511,37.511,37.511s37.511-16.794,37.511-37.511
				C213.234,17.494,197.554,1.143,177.807,0.061z"/>
		</g>
	</g>
	<g>
		<g>
			<path style="fill:#FBAC18;" d="M195.64,24.702l-5.228-3.64c-0.111-0.077-0.301,0.004-0.425,0.182l-17.671,25.379l-13.579-9.705
				c-0.11-0.078-0.262-0.053-0.341,0.057l-3.697,5.173c-0.079,0.11-0.053,0.263,0.057,0.341l13.822,9.878
				c0.008,0.009,0.004,0.027,0.014,0.034l1.338,0.932l3.794,2.711c0.067,0.048,0.144,0.045,0.216,0.021
				c0.101-0.009,0.219-0.082,0.305-0.205l3.356-4.819l0.161-0.225c0.002-0.003,0-0.006,0.002-0.009l17.854-25.642
				C195.741,24.986,195.751,24.779,195.64,24.702z"/>
		</g>
	</g>
</g>
<g>
	<rect x="297.942" y="82.133" style="fill:#F26722;" width="81.268" height="7.107"/>
	<rect x="297.942" y="124.796" style="fill:#F26722;" width="81.268" height="7.107"/>
	<rect x="297.942" y="167.768" style="fill:#F26722;" width="81.268" height="7.107"/>
	<g>
		<g>
			<path style="fill:#F26722;" d="M287.863,80.182l-4.884-5.101c-0.104-0.108-0.301-0.088-0.441,0.046l-18.918,18.113
				l-10.879-11.646c-0.092-0.099-0.256-0.095-0.365,0.007l-5.16,4.821c-0.11,0.102-0.124,0.265-0.032,0.364l11.091,11.872
				c0.009,0.019,0.002,0.045,0.017,0.06l1.625,1.698l3.182,3.406c0.06,0.064,0.147,0.069,0.233,0.048
				c0.095,0.008,0.197-0.015,0.284-0.098l4.274-4.092l0.734-0.686c0.01-0.009,0.008-0.023,0.016-0.033l19.157-18.342
				C287.938,80.486,287.967,80.29,287.863,80.182z"/>
		</g>
	</g>
	<g>
		<g>
			<path style="fill:#F26722;" d="M287.863,122.632l-4.884-5.101c-0.104-0.108-0.301-0.088-0.441,0.046l-18.918,18.113
				l-10.879-11.646c-0.092-0.099-0.256-0.095-0.365,0.007l-5.16,4.821c-0.11,0.102-0.124,0.265-0.032,0.364l11.091,11.872
				c0.009,0.019,0.002,0.045,0.017,0.06l1.625,1.698l3.182,3.406c0.06,0.064,0.147,0.069,0.233,0.048
				c0.095,0.008,0.197-0.015,0.284-0.098l4.272-4.09l0.737-0.688c0.01-0.009,0.008-0.023,0.016-0.033l19.157-18.342
				C287.938,122.936,287.967,122.74,287.863,122.632z"/>
		</g>
	</g>
	<g>
		<g>
			<path style="fill:#F26722;" d="M287.863,165.603l-4.884-5.101c-0.104-0.108-0.301-0.088-0.441,0.046l-18.918,18.113
				l-10.879-11.646c-0.092-0.099-0.256-0.095-0.365,0.007l-5.16,4.821c-0.11,0.102-0.124,0.265-0.032,0.364l11.091,11.872
				c0.009,0.019,0.002,0.045,0.017,0.06l1.625,1.698l3.182,3.406c0.06,0.064,0.147,0.069,0.233,0.048
				c0.095,0.008,0.197-0.015,0.284-0.098l4.272-4.09l0.737-0.688c0.01-0.009,0.008-0.023,0.016-0.033l19.157-18.342
				C287.938,165.908,287.967,165.712,287.863,165.603z"/>
		</g>
	</g>
	<g>
		<g>
			<polygon style="fill:#F26722;" points="400.532,78.5 400.532,206.682 228.107,206.682 228.107,50.635 353.986,50.635 
				353.986,43.528 221,43.528 221,213.172 407.639,213.172 407.639,78.5 			"/>
		</g>
	</g>
	<g>
		<g>
			<path style="fill:#F26722;" d="M398.807,0.061V6.07c16.434,1.074,29.433,14.736,29.433,31.442
				c0,17.407-14.111,31.518-31.518,31.518s-31.518-14.111-31.518-31.518c0-1.706,0.14-3.379,0.401-5.011h-6.051
				c-0.219,1.64-0.343,3.311-0.343,5.011c0,20.717,16.794,37.511,37.511,37.511s37.511-16.794,37.511-37.511
				C434.234,17.494,418.554,1.143,398.807,0.061z"/>
		</g>
	</g>
	<g>
		<g>
			<path style="fill:#F26722;" d="M416.64,24.702l-5.228-3.64c-0.111-0.077-0.301,0.004-0.425,0.182l-17.671,25.379l-13.579-9.705
				c-0.11-0.078-0.262-0.053-0.341,0.057l-3.697,5.173c-0.079,0.11-0.053,0.263,0.057,0.341l13.822,9.878
				c0.008,0.009,0.004,0.027,0.014,0.034l1.338,0.932l3.794,2.711c0.067,0.048,0.144,0.045,0.216,0.021
				c0.101-0.009,0.219-0.082,0.305-0.205l3.356-4.819l0.161-0.225c0.002-0.003,0-0.006,0.002-0.009l17.854-25.642
				C416.741,24.986,416.751,24.779,416.64,24.702z"/>
		</g>
	</g>
</g>
<path style="fill:#F26722;" d="M440.82,166.268c0,0.828-0.672,1.5-1.5,1.5h-3.586c-0.828,0-1.5-0.672-1.5-1.5V101.75
	c0-0.828,0.672-1.5,1.5-1.5h3.586c0.828,0,1.5,0.672,1.5,1.5V166.268z"/>
<path style="fill:#F26722;" d="M439.168,168.235c-0.764,0.684-1.832,0.738-2.384,0.121l-2.168-2.422
	c-0.553-0.617-0.381-1.672,0.383-2.356l16.212-14.511c0.764-0.684,1.832-0.738,2.384-0.121l2.168,2.422
	c0.553,0.617,0.381,1.672-0.383,2.356L439.168,168.235z"/>
<path style="fill:#F26722;" d="M435.968,168.269c0.73,0.679,1.76,0.717,2.3,0.086l2.118-2.477c0.54-0.631,0.386-1.693-0.345-2.372
	l-15.492-14.4c-0.73-0.679-1.76-0.717-2.3-0.086l-2.118,2.477c-0.54,0.631-0.386,1.693,0.345,2.372L435.968,168.269z"/>
</svg>
