<?xml version="1.0" encoding="utf-8"?>
<!-- Generator: Adobe Illustrator 16.0.0, SVG Export Plug-In . SVG Version: 6.00 Build 0)  -->
<!DOCTYPE svg PUBLIC "-//W3C//DTD SVG 1.1//EN" "http://www.w3.org/Graphics/SVG/1.1/DTD/svg11.dtd">
<svg version="1.1" id="Layer_1" xmlns="http://www.w3.org/2000/svg" xmlns:xlink="http://www.w3.org/1999/xlink" x="0px" y="0px"
	 width="24px" height="25px" viewBox="0 0 283.46 283.46" enable-background="new 0 0 283.46 283.46" xml:space="preserve">
<g>
	<path fill="#2E5788" d="M257.23,94.979c-14.279-30.552-40.354-54.333-71.775-65.56l26.611-12.436l-4.147-8.874L163.306,28.96
		l20.851,44.611l8.874-4.147l-15.024-32.149c30.983,9.883,56.545,32.324,70.346,61.852c13.224,28.291,14.595,60.149,3.864,89.714
		c-10.73,29.561-32.221,53.122-60.512,66.344c-15.587,7.285-32.192,10.979-49.358,10.983h-0.007
		c-45.612,0-87.492-26.548-106.691-67.629c-13.222-28.291-14.595-60.151-3.862-89.714c10.732-29.563,32.22-53.124,60.509-66.344
		l0.864-0.404l-4.149-8.877l-0.864,0.404C24.61,63.3-2.923,139.148,26.77,202.686c20.805,44.511,66.178,73.274,115.596,73.274h0.004
		c18.595,0,36.591-4.003,53.483-11.899C259.391,234.365,286.924,158.513,257.23,94.979z"/>
	
		<rect x="93.674" y="47.067" transform="matrix(-0.9059 0.4236 -0.4236 -0.9059 211.5456 64.81)" fill="#2E5788" width="9.796" height="17.688"/>
	
		<rect x="176.586" y="236.859" transform="matrix(-0.4234 -0.9059 0.9059 -0.4234 44.9356 512.1119)" fill="#2E5788" width="17.686" height="9.796"/>
	
		<rect x="40.237" y="187.363" transform="matrix(-0.9059 0.4234 -0.4234 -0.9059 174.9561 345.6514)" fill="#2E5788" width="17.689" height="9.796"/>
	
		<rect x="226.078" y="100.506" transform="matrix(0.9059 -0.4235 0.4235 0.9059 -22.5321 109.3944)" fill="#2E5788" width="17.689" height="9.797"/>
	<polygon fill="#2E5788" points="140.025,147.467 181.351,162.465 184.092,154.919 145.976,141.083 118.738,82.811 111.409,86.237 	
		"/>
</g>
</svg>
