<?xml version="1.0" encoding="utf-8"?>
<!-- Generator: Adobe Illustrator 16.0.0, SVG Export Plug-In . SVG Version: 6.00 Build 0)  -->
<!DOCTYPE svg PUBLIC "-//W3C//DTD SVG 1.1//EN" "http://www.w3.org/Graphics/SVG/1.1/DTD/svg11.dtd">
<svg version="1.1" id="Layer_1" xmlns="http://www.w3.org/2000/svg" xmlns:xlink="http://www.w3.org/1999/xlink" x="0px" y="0px"
	 width="283.46px" height="283.46px" viewBox="0 0 283.46 283.46" enable-background="new 0 0 283.46 283.46" xml:space="preserve">
<g>
	<g>
		<path fill="none" stroke="#3BBF2E" stroke-width="4" stroke-miterlimit="10" d="M31.258,206.61
			c3.252,8.869,10.22,17.247,18.295,17.247c8.083,0,15.055-8.399,18.307-17.276c1.255-0.373,2.573-2.756,3.109-5.797
			c0.582-3.306,0.03-6.191-1.235-6.661c-0.059-1.075-0.159-2.16-0.308-3.246c-0.506-9.35-3.364-13.528-7.584-15.392
			c-2.989-2.401-6.986-3.899-12.289-3.899c-5.293,0-9.275,1.461-12.251,3.808c-4.65,1.95-7.693,6.599-7.865,17.628
			c-0.029,0.353-0.051,0.699-0.073,1.051c-1.377,0.269-2.005,3.262-1.396,6.712C28.532,203.97,29.952,206.427,31.258,206.61z"/>
		<path fill="none" stroke="#3BBF2E" stroke-width="4" stroke-miterlimit="10" d="M63.062,224.296l-0.048,0.103
			c-0.047-0.037-0.092-0.068-0.14-0.103l-8.646,18.531l-2.166-6.606c0.473-0.344,0.786-0.896,0.874-1.658l1.65-3.941
			c0-1.146-1.004-2.076-2.243-2.076h-0.185h-2.5h-0.187h-2.5h-0.186c-1.239,0-2.243,0.931-2.243,2.076l1.65,3.941
			c0.086,0.763,0.401,1.314,0.874,1.658l-2.165,6.606l-8.646-18.531c-0.047,0.034-0.092,0.065-0.139,0.103l-0.047-0.103
			c-16.942,13.155-28.297-2.139-28.297,28.822c0,8.476,22.615,12.551,41.615,12.551c0.021,0,0.042,0,0.063,0
			c0.029,0,0.059,0,0.088,0c0.006,0,0.012,0,0.019,0h0.008c0.002,0,0.005,0,0.008,0c0.006,0,0.012,0,0.019,0
			c0.029,0,0.059,0,0.088,0c0.021,0,0.042,0,0.063,0c19,0,41.615-4.075,41.615-12.551C91.358,222.157,80.002,237.451,63.062,224.296
			z"/>
	</g>
	<g>
		<path fill="none" stroke="#3BBF2E" stroke-width="4" stroke-miterlimit="10" d="M215.587,206.61
			c3.254,8.869,10.22,17.247,18.296,17.247c8.083,0,15.055-8.399,18.308-17.276c1.254-0.373,2.573-2.756,3.109-5.797
			c0.58-3.306,0.028-6.191-1.235-6.661c-0.061-1.075-0.16-2.16-0.308-3.246c-0.507-9.35-3.363-13.528-7.584-15.392
			c-2.99-2.401-6.987-3.899-12.29-3.899c-5.293,0-9.274,1.461-12.252,3.808c-4.648,1.95-7.691,6.599-7.865,17.628
			c-0.028,0.353-0.05,0.699-0.073,1.051c-1.377,0.269-2.005,3.262-1.396,6.712C212.862,203.97,214.281,206.427,215.587,206.61z"/>
		<path fill="none" stroke="#3BBF2E" stroke-width="4" stroke-miterlimit="10" d="M247.393,224.296l-0.05,0.103
			c-0.048-0.037-0.093-0.068-0.14-0.103l-8.646,18.531l-2.166-6.606c0.474-0.344,0.786-0.896,0.875-1.658l1.65-3.941
			c0-1.146-1.004-2.076-2.244-2.076h-0.184h-2.502h-0.187h-2.499h-0.187c-1.237,0-2.241,0.931-2.241,2.076l1.649,3.941
			c0.087,0.763,0.4,1.314,0.873,1.658l-2.165,6.606l-8.646-18.531c-0.047,0.034-0.092,0.065-0.139,0.103l-0.048-0.103
			c-16.941,13.155-28.297-2.139-28.297,28.822c0,8.476,22.615,12.551,41.615,12.551c0.021,0,0.042,0,0.063,0c0.028,0,0.06,0,0.089,0
			c0.005,0,0.011,0,0.019,0h0.008c0.003,0,0.005,0,0.008,0c0.005,0,0.011,0,0.019,0c0.028,0,0.058,0,0.087,0
			c0.021,0,0.042,0,0.063,0c19,0,41.615-4.075,41.615-12.551C275.687,222.157,264.331,237.451,247.393,224.296z"/>
	</g>
	<path fill="none" stroke="#3BBF2E" stroke-width="4" stroke-miterlimit="10" d="M105.634,53.134
		c0,19.525,15.822,35.352,35.35,35.352c19.515,0,35.348-15.826,35.348-35.352c0-19.519-15.833-35.343-35.348-35.343
		C121.456,17.793,105.634,33.615,105.634,53.134z"/>
	<path fill="#3BBF2E" d="M150.3,39.206l-3.521,5.528c0,0-2.794-2.149-6.715-2.149c-2.699,0-4.115,1.23-4.115,2.786v0.096
		c0,2.106,1.372,2.788,6.901,4.202c6.489,1.693,10.149,4.017,10.149,9.598v0.092c0,5.449-3.576,8.84-8.945,9.694v4.258h-7.13
		l0.002-4.505c-4.257-0.695-7.692-3.372-7.692-3.372l3.976-5.256c0,0,3.661,2.878,8.183,2.878c2.873,0,4.612-1.142,4.612-3.016
		v-0.096c0-1.779-1.096-2.69-6.441-4.067c-6.438-1.646-10.603-3.427-10.603-9.776v-0.088c0-4.793,3.182-8.237,7.97-9.3v-3.749
		l7.13-0.005v3.812C147.809,37.151,150.3,39.206,150.3,39.206z"/>
	<polygon fill="#3BBF2E" points="145.16,116.097 145.16,88.485 136.806,88.485 136.806,116.097 44.889,116.097 44.889,164.436 
		53.246,164.436 53.246,124.452 100.103,124.452 136.806,124.452 145.16,124.452 176.332,124.452 228.721,124.452 228.721,164.436 
		237.075,164.436 237.075,116.097 	"/>
</g>
</svg>
