<?xml version="1.0" encoding="utf-8"?>
<!-- Generator: Adobe Illustrator 16.0.0, SVG Export Plug-In . SVG Version: 6.00 Build 0)  -->
<!DOCTYPE svg PUBLIC "-//W3C//DTD SVG 1.1//EN" "http://www.w3.org/Graphics/SVG/1.1/DTD/svg11.dtd">
<svg version="1.1" id="Layer_1" xmlns="http://www.w3.org/2000/svg" xmlns:xlink="http://www.w3.org/1999/xlink" x="0px" y="0px"
	 width="283.46px" height="283.46px" viewBox="0 0 283.46 283.46" enable-background="new 0 0 283.46 283.46" xml:space="preserve">
<g>
	<g>
		<path fill="none" stroke="#F3A621" stroke-width="4" stroke-miterlimit="10" d="M216.938,245.753h-8.868l-73.394,24.23
			c-2.275,1.22-11.518,5.339-21.177-0.263l-0.101-0.051L12.802,213.743c-0.375-0.208-0.679-0.466-0.949-0.731l0,0
			c0-0.062-8.984-9.086-3.489-19.331l0,0c0-0.05,6.018-12.828,17.642-9.606c29.203,8.083,48.047,24.868,65.423,29.203
			c22.65,4.063,38.497,2.641,59.826-6.395c-6.44-0.625-16.791-0.046-27.354,0.427c-3.22,0.152-6.497,0.26-9.713,0.367
			c-32.106,0.847-33.588-9.664-26.771-17.318c6.593-7.395,12.297-7.554,20.691-7.554h32.165c5.119-2.32,31.463-14.047,45.672-16.582
			c0.051,0,0.104,0,0.159,0c6.336-1.107,14.207-1.477,21.332-1.477c3.432,0,6.707,0.055,9.502,0.162v80.945V245.753z"/>
		<path fill="none" stroke="#F3A621" stroke-width="4" stroke-miterlimit="10" d="M230.62,146.05h36.805
			c2.58,0,4.908,1.062,6.648,2.747l0,0l0,0l0,0l0,0c1.692,1.743,2.803,4.073,2.803,6.654v99.322c0,2.597-1.06,4.914-2.748,6.656l0,0
			l0,0l0,0l0,0c-1.739,1.687-4.064,2.801-6.656,2.801h-36.807c-2.421,0-4.694-0.953-6.38-2.481
			c-0.117-0.108-0.215-0.216-0.324-0.265c-1.688-1.688-2.803-4.065-2.803-6.711v-99.322c0-2.581,1.063-4.965,2.803-6.706l0,0
			c1.744-1.741,4.069-2.798,6.659-2.798V146.05z"/>
	</g>
	<path fill="none" stroke="#F3A621" stroke-width="4" stroke-miterlimit="10" d="M140.119,55.392
		c-11.401-11.413-27.194-18.486-44.624-18.486c-17.421,0-33.214,7.073-44.615,18.486c-11.412,11.401-18.485,27.191-18.485,44.615
		c0,17.426,7.073,33.222,18.485,44.624c11.401,11.4,27.194,18.479,44.615,18.479c17.43,0,33.223-7.079,44.624-18.479
		c11.404-11.402,18.479-27.198,18.479-44.624C158.598,82.583,151.523,66.793,140.119,55.392z"/>
	<path fill="#F3A621" d="M111.921,116.218c-0.85,1.853-2.009,3.493-3.49,4.808c-1.52,1.376-3.325,2.43-5.438,3.216
		c-2.105,0.797-4.488,1.326-7.073,1.533l-0.85,8.664c-0.047,0.215-0.106,0.421-0.157,0.582c-0.099,0.157-0.263,0.316-0.528,0.422
		c-0.254,0.105-0.571,0.206-1.055,0.263l0.051,0.051c-0.416,0.056-1.001,0.103-1.685,0.103c-0.842,0-1.536-0.047-2.06-0.103
		c-0.523-0.108-0.957-0.208-1.219-0.371c-0.311-0.154-0.468-0.365-0.575-0.569c-0.109-0.27-0.109-0.54-0.05-0.801l0.843-8.24
		c-1.164-0.157-2.274-0.368-3.278-0.629c-1.056-0.266-1.955-0.523-2.798-0.849c-0.84-0.312-1.587-0.629-2.168-0.944
		c-0.579-0.326-1.056-0.639-1.371-0.951c-0.314-0.317-0.526-0.737-0.687-1.376c-0.155-0.579-0.207-1.478-0.207-2.695
		c0-0.897,0.052-1.684,0.102-2.272c0.055-0.575,0.16-1.05,0.266-1.372c0.16-0.32,0.319-0.528,0.526-0.689
		c0.206-0.099,0.424-0.154,0.693-0.154c0.364,0,0.842,0.208,1.527,0.581c0.685,0.419,1.533,0.849,2.584,1.317
		c1.056,0.477,2.326,0.952,3.795,1.323c1.493,0.423,3.234,0.577,5.237,0.577c3.17,0,5.488-0.577,7.024-1.738
		c1.537-1.167,2.328-2.744,2.328-4.7c0-1.318-0.329-2.375-1.008-3.168c-0.691-0.846-1.531-1.583-2.646-2.215
		c-1.105-0.631-2.372-1.217-3.741-1.692c-1.379-0.531-2.805-1.061-4.283-1.582c-1.418-0.587-2.846-1.216-4.275-2.008
		c-1.376-0.74-2.639-1.689-3.751-2.798c-1.099-1.11-1.95-2.429-2.639-4.011c-0.684-1.588-1.004-3.486-1.004-5.708
		c0-2.002,0.32-3.854,1.004-5.487c0.689-1.689,1.637-3.121,2.907-4.391c1.263-1.267,2.853-2.211,4.698-3.002
		c1.849-0.793,3.958-1.271,6.284-1.584l0.79-8.138c0.055-0.206,0.105-0.417,0.161-0.524c0.108-0.161,0.257-0.259,0.53-0.421
		c0.257-0.099,0.572-0.206,1.049-0.263c0.429-0.049,1.011-0.108,1.692-0.108c0.852,0,1.535,0.059,2.06,0.108
		c0.532,0.099,1.004,0.206,1.266,0.371c0.317,0.152,0.47,0.368,0.578,0.575c0.106,0.263,0.106,0.531,0.106,0.792L101.2,73.61
		c0.738,0.1,1.586,0.26,2.373,0.417c0.849,0.207,1.642,0.429,2.33,0.692c0.734,0.26,1.361,0.529,1.951,0.84
		c0.578,0.266,1.007,0.53,1.218,0.796c0.208,0.21,0.415,0.476,0.524,0.683c0.109,0.218,0.215,0.533,0.266,0.847
		c0.05,0.368,0.098,0.735,0.156,1.215c0.048,0.474,0.048,1.001,0.048,1.639c0,0.842,0,1.531-0.048,2.056
		c-0.059,0.526-0.106,0.949-0.207,1.216c-0.106,0.26-0.215,0.472-0.375,0.579c-0.157,0.108-0.263,0.158-0.47,0.158
		c-0.378,0-0.856-0.158-1.533-0.526c-0.695-0.374-1.486-0.744-2.485-1.109c-1.001-0.427-2.119-0.801-3.384-1.11
		c-1.271-0.368-2.689-0.529-4.226-0.529c-1.368,0-2.583,0.161-3.584,0.421c-1.004,0.27-1.798,0.639-2.43,1.11
		c-0.638,0.473-1.066,1.055-1.375,1.743c-0.26,0.689-0.417,1.426-0.417,2.218c0,1.271,0.313,2.325,0.997,3.171
		c0.696,0.839,1.583,1.63,2.693,2.215c1.113,0.631,2.377,1.17,3.806,1.691c1.423,0.523,2.85,1.053,4.327,1.637
		c1.474,0.578,2.904,1.218,4.335,1.952c1.426,0.74,2.634,1.692,3.795,2.753c1.113,1.098,2.012,2.42,2.642,3.953
		c0.687,1.583,1.005,3.433,1.005,5.59C113.134,112.26,112.711,114.366,111.921,116.218z"/>
	<path fill="none" stroke="#F3A621" stroke-width="4" stroke-miterlimit="10" d="M212.893,10.872
		c-23.833,0-43.151,19.315-43.151,43.15c0,23.831,19.318,43.152,43.151,43.152c23.835,0,43.158-19.321,43.158-43.152
		C256.051,30.187,236.728,10.872,212.893,10.872z"/>
	<path fill="#F3A621" d="M234.608,35.393c0,0-22.729,39.589-23.125,39.958c-1.296,1.216-3.334,1.149-4.549-0.148l-14.724-13.583
		c-1.215-1.299-1.152-3.335,0.15-4.553c1.295-1.216,3.329-1.148,4.547,0.15l11.525,10.629l20.592-35.675
		c0.89-1.541,2.865-2.068,4.401-1.179C234.966,31.882,235.493,33.849,234.608,35.393z"/>
</g>
</svg>
