<?xml version="1.0" encoding="utf-8"?>
<!-- Generator: Adobe Illustrator 16.0.0, SVG Export Plug-In . SVG Version: 6.00 Build 0)  -->
<!DOCTYPE svg PUBLIC "-//W3C//DTD SVG 1.1//EN" "http://www.w3.org/Graphics/SVG/1.1/DTD/svg11.dtd">
<svg version="1.1" id="Layer_1" xmlns="http://www.w3.org/2000/svg" xmlns:xlink="http://www.w3.org/1999/xlink" x="0px" y="0px"
	 width="283.46px" height="283.46px" viewBox="0 0 283.46 283.46" enable-background="new 0 0 283.46 283.46" xml:space="preserve">
<g>
	
		<rect x="117.521" y="54.421" fill="none" stroke="#2A70D9" stroke-width="4" stroke-miterlimit="10" width="20.352" height="20.353"/>
	
		<rect x="117.521" y="84.954" fill="none" stroke="#2A70D9" stroke-width="4" stroke-miterlimit="10" width="20.352" height="20.355"/>
	
		<rect x="86.991" y="84.954" fill="none" stroke="#2A70D9" stroke-width="4" stroke-miterlimit="10" width="20.352" height="20.355"/>
	
		<rect x="86.991" y="54.421" fill="none" stroke="#2A70D9" stroke-width="4" stroke-miterlimit="10" width="20.352" height="20.353"/>
	
		<rect x="56.459" y="54.421" fill="none" stroke="#2A70D9" stroke-width="4" stroke-miterlimit="10" width="20.349" height="20.353"/>
	
		<rect x="56.459" y="84.954" fill="none" stroke="#2A70D9" stroke-width="4" stroke-miterlimit="10" width="20.349" height="20.355"/>
	<polygon fill="none" stroke="#2A70D9" stroke-width="4" stroke-miterlimit="10" points="76.809,131.037 76.809,135.838 
		56.459,135.838 56.459,115.485 65.539,115.485 76.809,115.485 	"/>
	
		<rect x="25.927" y="54.421" fill="none" stroke="#2A70D9" stroke-width="4" stroke-miterlimit="10" width="20.352" height="20.353"/>
	
		<rect x="25.927" y="84.954" fill="none" stroke="#2A70D9" stroke-width="4" stroke-miterlimit="10" width="20.352" height="20.355"/>
	
		<rect x="25.927" y="146.015" fill="none" stroke="#2A70D9" stroke-width="4" stroke-miterlimit="10" width="20.352" height="20.355"/>
	<polygon fill="none" stroke="#2A70D9" stroke-width="4" stroke-miterlimit="10" points="46.279,135.838 25.927,135.838 
		25.927,115.485 33.408,115.485 46.279,115.485 	"/>
	<polygon fill="none" stroke="#2A70D9" stroke-width="4" stroke-miterlimit="10" points="73.603,166.37 56.459,166.37 
		56.459,146.015 76.809,146.015 76.809,153.165 76.809,166.37 	"/>
	<polygon fill="none" stroke="#2A70D9" stroke-width="4" stroke-miterlimit="10" points="107.343,166.37 90.199,166.37 
		86.991,166.37 86.991,153.165 86.991,146.015 107.343,146.015 	"/>
	<polygon fill="none" stroke="#2A70D9" stroke-width="4" stroke-miterlimit="10" points="107.343,135.838 86.991,135.838 
		86.991,131.037 86.991,115.485 98.26,115.485 107.343,115.485 	"/>
	
		<rect x="117.521" y="146.015" fill="none" stroke="#2A70D9" stroke-width="4" stroke-miterlimit="10" width="20.352" height="20.355"/>
	<polygon fill="none" stroke="#2A70D9" stroke-width="4" stroke-miterlimit="10" points="137.873,135.838 117.521,135.838 
		117.521,115.485 130.394,115.485 137.873,115.485 	"/>
	<g>
		<path fill="none" stroke="#2A70D9" stroke-width="4" stroke-miterlimit="10" d="M161.339,160.98
			c4.283,11.678,13.459,22.707,24.091,22.707c10.641,0,19.821-11.055,24.104-22.747c1.651-0.492,3.387-3.628,4.092-7.634
			c0.769-4.354,0.042-8.152-1.622-8.771c-0.079-1.415-0.21-2.845-0.406-4.274c-0.669-12.308-4.431-17.81-9.988-20.264
			c-3.935-3.164-9.195-5.134-16.18-5.134c-6.968,0-12.213,1.923-16.132,5.009c-6.121,2.57-10.127,8.693-10.354,23.215
			c-0.037,0.464-0.068,0.92-0.095,1.379c-1.816,0.356-2.643,4.296-1.84,8.839C157.75,157.501,159.622,160.736,161.339,160.98z"/>
		<path fill="none" stroke="#2A70D9" stroke-width="4" stroke-miterlimit="10" d="M223.821,192.993
			c-5.765-1.114-12.832-2.501-20.854-8.727l-11.526,24.707l-2.952-9.008c0.621-0.45,1.033-1.182,1.148-2.184l2.176-5.188
			c0-1.508-1.324-2.734-2.954-2.734h-3.537h-3.536c-1.63,0-2.954,1.225-2.954,2.734l2.176,5.188
			c0.115,1.007,0.526,1.733,1.148,2.184l-2.952,9.008l-11.529-24.707c-22.306,17.319-37.255-2.815-37.255,37.95
			c0,11.157,29.774,16.523,54.793,16.523c0.034,0,0.073,0,0.109,0c0.037,0,0.074,0,0.11,0c10.211,0,21.213-0.895,30.663-2.711
			c-2.587-4.943-4.058-10.564-4.058-16.53C212.038,208.981,216.586,199.528,223.821,192.993z"/>
	</g>
	<path fill="none" stroke="#2A70D9" stroke-width="4" stroke-miterlimit="10" d="M124.028,237.61
		c-4.342-3.975-7.03-9.002-7.03-15.394c0-15.55,2.08-25,6.955-31.604c5.914-8.012,14.2-9.613,20.25-10.785
		c3.503-0.676,6.686-1.295,10.066-2.923c-1.488-2.388-2.789-4.845-3.888-7.282c-3.231-3.261-5.541-8.056-6.587-13.978
		c-1.191-6.74-0.278-12.132,1.821-16.129c0.349-7.521,2.132-20.847,12.614-28.655V34.068h-0.002H5.572v90.683V237.61h50.888v-30.529
		h17.143h16.596h17.144v30.529H124.028z"/>
	<path fill="none" stroke="#2A70D9" stroke-width="4" stroke-miterlimit="10" d="M248.536,190.684
		c-16.188,0-29.354,13.168-29.354,29.355s13.167,29.352,29.354,29.352s29.353-13.164,29.353-29.352S264.724,190.684,248.536,190.684
		z"/>
	<path fill="#2A70D9" d="M249.907,234.509v4.91h-2.976v-4.766c-2.739-0.05-5.573-0.899-7.225-2.079l1.133-3.164
		c1.698,1.133,4.155,2.029,6.8,2.029c3.353,0,5.618-1.935,5.618-4.624c0-2.599-1.841-4.202-5.335-5.621
		c-4.815-1.89-7.791-4.061-7.791-8.168c0-3.919,2.784-6.895,7.131-7.603v-4.769h2.925v4.58c2.834,0.095,4.769,0.852,6.137,1.654
		l-1.177,3.114c-0.993-0.566-2.928-1.604-5.948-1.604c-3.639,0-5.007,2.171-5.007,4.061c0,2.454,1.746,3.684,5.854,5.385
		c4.866,1.979,7.319,4.436,7.319,8.638C257.365,230.213,254.771,233.707,249.907,234.509z"/>
</g>
</svg>
