<?xml version="1.0" encoding="utf-8"?>
<!-- Generator: Adobe Illustrator 16.0.0, SVG Export Plug-In . SVG Version: 6.00 Build 0)  -->
<!DOCTYPE svg PUBLIC "-//W3C//DTD SVG 1.1//EN" "http://www.w3.org/Graphics/SVG/1.1/DTD/svg11.dtd">
<svg version="1.1" id="Layer_1" xmlns="http://www.w3.org/2000/svg" xmlns:xlink="http://www.w3.org/1999/xlink" x="0px" y="0px"
	 width="283.46px" height="283.46px" viewBox="0 0 283.46 283.46" enable-background="new 0 0 283.46 283.46" xml:space="preserve">
<g>
	<g>
		<path fill="none" stroke="#AB57CA" stroke-width="4" stroke-miterlimit="10" d="M27.831,208.623
			c3.353,9.145,10.537,17.782,18.863,17.782c8.334,0,15.522-8.659,18.875-17.812c1.294-0.385,2.653-2.843,3.206-5.978
			c0.6-3.408,0.031-6.383-1.273-6.868c-0.061-1.108-0.164-2.227-0.317-3.346c-0.522-9.641-3.468-13.948-7.82-15.869
			c-3.082-2.477-7.203-4.021-12.67-4.021c-5.457,0-9.563,1.506-12.631,3.926c-4.794,2.01-7.932,6.803-8.109,18.175
			c-0.03,0.363-0.053,0.721-0.076,1.084c-1.419,0.275-2.067,3.362-1.438,6.919C25.02,205.9,26.484,208.434,27.831,208.623z"/>
		<path fill="none" stroke="#AB57CA" stroke-width="4" stroke-miterlimit="10" d="M60.621,226.857l-0.05,0.105
			c-0.049-0.037-0.095-0.07-0.144-0.105l-8.914,19.107l-2.233-6.812c0.488-0.355,0.81-0.924,0.901-1.71l1.702-4.064
			c0-1.181-1.035-2.14-2.313-2.14H49.38h-2.578h-0.192h-2.578H43.84c-1.277,0-2.313,0.959-2.313,2.14l1.702,4.064
			c0.089,0.786,0.413,1.354,0.901,1.71l-2.232,6.812l-8.914-19.107c-0.049,0.035-0.095,0.068-0.144,0.105l-0.049-0.105
			c-17.468,13.563-29.175-2.205-29.175,29.717c0,8.738,23.317,12.94,42.906,12.94c0.021,0,0.043,0,0.065,0c0.03,0,0.061,0,0.091,0
			c0.007,0,0.012,0,0.019,0h0.008c0.003,0,0.005,0,0.008,0c0.007,0,0.012,0,0.019,0c0.03,0,0.061,0,0.091,0c0.021,0,0.043,0,0.065,0
			c19.589,0,42.906-4.202,42.906-12.94C89.795,224.652,78.087,240.421,60.621,226.857z"/>
	</g>
	<g>
		<path fill="none" stroke="#AB57CA" stroke-width="4" stroke-miterlimit="10" d="M217.879,208.623
			c3.354,9.145,10.537,17.782,18.862,17.782c8.335,0,15.522-8.659,18.877-17.812c1.292-0.385,2.652-2.843,3.205-5.978
			c0.599-3.408,0.03-6.383-1.273-6.868c-0.063-1.108-0.165-2.227-0.317-3.346c-0.522-9.641-3.468-13.948-7.819-15.869
			c-3.083-2.477-7.204-4.021-12.672-4.021c-5.456,0-9.562,1.506-12.631,3.926c-4.793,2.01-7.931,6.803-8.109,18.175
			c-0.029,0.363-0.052,0.721-0.076,1.084c-1.419,0.275-2.066,3.362-1.438,6.919C215.069,205.9,216.532,208.434,217.879,208.623z"/>
		<path fill="none" stroke="#AB57CA" stroke-width="4" stroke-miterlimit="10" d="M250.671,226.857l-0.052,0.105
			c-0.049-0.037-0.095-0.07-0.144-0.105l-8.914,19.107l-2.232-6.812c0.487-0.355,0.811-0.924,0.902-1.71l1.701-4.064
			c0-1.181-1.035-2.14-2.313-2.14h-0.189h-2.58h-0.192h-2.576h-0.192c-1.276,0-2.312,0.959-2.312,2.14l1.702,4.064
			c0.089,0.786,0.411,1.354,0.899,1.71l-2.232,6.812l-8.914-19.107c-0.049,0.035-0.095,0.068-0.144,0.105l-0.049-0.105
			c-17.468,13.563-29.175-2.205-29.175,29.717c0,8.738,23.316,12.94,42.906,12.94c0.021,0,0.043,0,0.064,0c0.03,0,0.063,0,0.093,0
			c0.005,0,0.011,0,0.019,0h0.008c0.003,0,0.006,0,0.009,0c0.005,0,0.011,0,0.019,0c0.03,0,0.06,0,0.09,0c0.021,0,0.043,0,0.064,0
			c19.589,0,42.906-4.202,42.906-12.94C279.843,224.652,268.136,240.421,250.671,226.857z"/>
	</g>
	<path fill="none" stroke="#AB57CA" stroke-width="4" stroke-miterlimit="10" d="M104.514,50.385
		c0,20.131,16.313,36.448,36.447,36.448c20.121,0,36.445-16.317,36.445-36.448c0-20.125-16.324-36.44-36.445-36.44
		C120.827,13.948,104.514,30.261,104.514,50.385z"/>
	<path fill="#AB57CA" d="M150.566,36.025l-3.631,5.699c0,0-2.88-2.216-6.923-2.216c-2.783,0-4.243,1.268-4.243,2.872v0.099
		c0,2.171,1.414,2.875,7.115,4.333c6.69,1.746,10.464,4.141,10.464,9.896v0.095c0,5.618-3.688,9.114-9.223,9.995v4.391h-7.352
		l0.003-4.646c-4.389-0.716-7.931-3.476-7.931-3.476l4.1-5.419c0,0,3.774,2.967,8.437,2.967c2.962,0,4.755-1.177,4.755-3.109v-0.099
		c0-1.834-1.13-2.773-6.641-4.192c-6.638-1.698-10.933-3.533-10.933-10.079v-0.091c0-4.942,3.281-8.493,8.218-9.589V29.59
		l7.351-0.005v3.93C147.998,33.906,150.566,36.025,150.566,36.025z"/>
	<polygon fill="#AB57CA" points="145.267,115.301 145.267,86.833 136.653,86.833 136.653,115.301 41.884,115.301 41.884,165.14 
		50.5,165.14 50.5,123.916 98.812,123.916 136.653,123.916 145.267,123.916 177.405,123.916 231.42,123.916 231.42,165.14 
		240.033,165.14 240.033,115.301 	"/>
	<path fill="#AB57CA" d="M160.87,166.112c-1.379-1.373-3.606-1.373-4.978,0l-15.006,15.008l-14.799-14.796
		c-1.364-1.365-3.575-1.365-4.937,0c-1.364,1.365-1.364,3.576,0,4.937l14.799,14.796l-14.902,14.899
		c-1.375,1.376-1.375,3.605,0,4.977c1.376,1.371,3.606,1.371,4.98,0l14.899-14.898l14.793,14.799c1.365,1.365,3.579,1.365,4.938,0
		c1.369-1.366,1.369-3.577,0-4.942l-14.796-14.793l15.008-15.008C162.246,169.719,162.246,167.486,160.87,166.112z"/>
	<path fill="none" stroke="#AB57CA" stroke-width="4" stroke-miterlimit="10" d="M140.958,142.203
		c-24.203,0-43.819,19.616-43.819,43.822c0,24.203,19.616,43.819,43.819,43.819c24.206,0,43.822-19.616,43.822-43.819
		C184.78,161.818,165.164,142.203,140.958,142.203z"/>
</g>
</svg>
