<?xml version="1.0" encoding="utf-8"?>
<!-- Generator: Adobe Illustrator 16.0.0, SVG Export Plug-In . SVG Version: 6.00 Build 0)  -->
<!DOCTYPE svg PUBLIC "-//W3C//DTD SVG 1.1//EN" "http://www.w3.org/Graphics/SVG/1.1/DTD/svg11.dtd">
<svg version="1.1" id="Layer_1" xmlns="http://www.w3.org/2000/svg" xmlns:xlink="http://www.w3.org/1999/xlink" x="0px" y="0px"
	 width="283.46px" height="283.46px" viewBox="0 0 283.46 283.46" enable-background="new 0 0 283.46 283.46" xml:space="preserve">
<g>
	
		<rect x="32.396" y="160.752" transform="matrix(0.8995 -0.4369 0.4369 0.8995 -67.87 86.7059)" fill="none" stroke="#DC4646" stroke-width="4" stroke-miterlimit="10" width="244.343" height="60.306"/>
	<g>
		<path fill="none" stroke="#DC4646" stroke-width="4" stroke-miterlimit="10" d="M22.605,157.682l-4.69,28.003
			c-0.172,0.966,0.283,1.905,1.107,2.36l24.847,13.762l0.014,0.046l26.287-12.768c-13.707-14.647-22.121-34.307-22.121-55.91
			c0-45.175,36.732-81.908,81.908-81.908c40.943,0,74.953,30.174,80.966,69.461l26.524-12.883L242,80.635
			c0.171-0.938-0.285-1.875-1.111-2.332l-24.844-13.787l-7.935-27.265c-0.254-0.91-1.078-1.564-2.018-1.621l-28.373-1.677
			l-18.964-21.151c-0.652-0.712-1.647-0.939-2.555-0.57l-26.244,10.831l-26.269-10.831c-0.882-0.369-1.905-0.143-2.532,0.57
			L82.165,33.954l-28.344,1.677c-0.939,0.057-1.763,0.711-2.019,1.621l-7.933,27.265L19.022,78.303
			c-0.824,0.457-1.279,1.394-1.138,2.332l4.721,28.032L6.229,131.867c-0.541,0.795-0.541,1.82,0,2.616L22.605,157.682z"/>
		<path fill="none" stroke="#DC4646" stroke-width="4" stroke-miterlimit="10" d="M132.609,244.378l23.616,9.739
			c0.285,0.113,0.568,0.171,0.854,0.171c0.626,0,1.251-0.286,1.677-0.769l18.991-21.125l28.348-1.679
			c0.939-0.057,1.765-0.711,2.019-1.617l7.238-24.906L132.609,244.378z"/>
	</g>
	<path fill="none" stroke="#DC4646" stroke-width="4" stroke-miterlimit="10" d="M80.443,184.096l41.585-20.196v-0.132
		c-8.311-1.358-15.017-6.584-15.017-6.584l7.763-10.261c0,0,7.146,5.619,15.977,5.619c5.607,0,9.003-2.23,9.003-5.889v-0.188
		c0-3.472-2.139-5.249-12.574-7.938c-12.57-3.216-20.703-6.692-20.703-19.087v-0.171c0-9.358,6.213-16.081,15.561-18.157v-7.319
		l13.92-0.01v7.442c7.315,0.74,12.181,4.752,12.181,4.752l-6.876,10.793c0,0-5.454-4.198-13.107-4.198
		c-5.271,0-8.035,2.402-8.035,5.439v0.187c0,4.112,2.678,5.444,13.472,8.205c12.668,3.307,19.815,7.842,19.815,18.738v0.18
		c0,1.212-0.102,2.366-0.278,3.472l47.483-23.059c-3.73-35.697-33.994-63.636-70.656-63.636c-39.177,0-71.077,31.898-71.077,71.077
		C58.88,153.123,67.155,171.172,80.443,184.096z"/>
	<g>
		<path fill="#DC4646" d="M65.178,213.199l8.938,18.828c3.006,6.328,7.025,7.996,11.003,6.109c4.265-2.022,5.417-6.149,2.416-12.476
			l-8.938-18.83l5.894-2.798l8.754,18.445c4.733,9.966,1.698,16.809-6.067,20.493c-7.472,3.547-14.291,1.679-19.11-8.478
			l-8.779-18.497L65.178,213.199z"/>
		<path fill="#DC4646" d="M106.576,233.117l-15.328-32.293l6.706-3.185l14.912,9.889c3.859,2.57,7.502,5.422,10.647,8.213
			l0.096-0.044c-2.429-4.131-4.553-8.232-6.893-13.165l-5.348-11.26l5.464-2.593l15.328,32.293l-6.084,2.89l-15.165-10.179
			c-3.744-2.57-7.786-5.521-11.095-8.413l-0.125,0.115c2.223,4.057,4.292,8.298,6.819,13.614l5.482,11.547L106.576,233.117z"/>
		<path fill="#DC4646" d="M135.777,211.39c2.441,0.19,5.771-0.217,8.789-1.648c3.787-1.796,5.051-4.57,3.805-7.205
			c-1.161-2.444-3.476-3.105-8.298-2.636c-6.23,0.606-10.972-0.605-13.178-5.253c-2.501-5.272-0.005-11.388,6.991-14.708
			c3.495-1.66,6.45-2.12,8.534-2.057l0.812,5.427c-1.444-0.077-4.127,0.081-7.146,1.517c-3.736,1.773-4.41,4.56-3.524,6.424
			c1.181,2.494,3.598,2.757,8.706,2.39c6.605-0.557,10.68,0.976,12.884,5.622c2.455,5.177,0.667,11.544-7.67,15.501
			c-3.399,1.617-7.403,2.339-9.676,2.129L135.777,211.39z"/>
		<path fill="#DC4646" d="M184.669,175.853c5.137,10.831,1.51,20.124-7.402,24.354c-9.103,4.321-18.153,0.105-22.654-9.382
			c-4.708-9.918-1.802-19.87,7.305-24.191C171.354,162.152,180.302,166.653,184.669,175.853z M160.796,187.771
			c3.116,6.565,8.903,10.217,14.557,7.533c5.701-2.705,6.405-9.502,3.198-16.256c-2.884-6.086-8.632-10.402-14.527-7.605
			C158.181,174.22,157.635,181.112,160.796,187.771z"/>
		<path fill="#DC4646" d="M182.249,157.628l5.89-2.798l12.988,27.36l13.271-6.303l2.344,4.935l-19.166,9.097L182.249,157.628z"/>
		<path fill="#DC4646" d="M206.076,146.846c2.381-1.66,5.576-3.468,9.071-5.127c6.036-2.866,10.795-3.6,14.948-2.519
			c4.321,1.061,8.057,3.985,10.675,9.495c2.727,5.748,2.813,10.992,1.063,15.228c-1.823,4.446-6.242,8.366-12.521,11.347
			c-3.447,1.638-6.125,2.671-8.154,3.343L206.076,146.846z M224.954,171.404c0.886-0.242,2.129-0.833,3.328-1.401
			c7.691-3.59,10.235-9.968,6.349-18.16c-3.341-7.162-9.394-9.28-16.771-5.778c-1.87,0.888-3.144,1.668-3.865,2.247L224.954,171.404
			z"/>
	</g>
</g>
</svg>
