<?xml version="1.0" encoding="utf-8"?>
<!-- Generator: Adobe Illustrator 16.0.0, SVG Export Plug-In . SVG Version: 6.00 Build 0)  -->
<!DOCTYPE svg PUBLIC "-//W3C//DTD SVG 1.1//EN" "http://www.w3.org/Graphics/SVG/1.1/DTD/svg11.dtd">
<svg version="1.1" id="Layer_1" xmlns="http://www.w3.org/2000/svg" xmlns:xlink="http://www.w3.org/1999/xlink" x="0px" y="0px"
	 width="283.46px" height="283.46px" viewBox="0 0 283.46 283.46" enable-background="new 0 0 283.46 283.46" xml:space="preserve">
<path fill="#14CF37" d="M250.654,85.301c-0.002-1.975-1.599-3.573-3.569-3.571h-21.534V60.498c0-1.959-1.588-3.547-3.544-3.542
	c-1.958-0.002-3.545,1.587-3.541,3.542l-0.002,21.233h-21.377c-1.976-0.002-3.574,1.597-3.571,3.569
	c0.002,1.974,1.601,3.571,3.569,3.57l21.381,0.001l-0.002,21.234c0,1.959,1.585,3.544,3.543,3.543
	c1.961,0.001,3.548-1.586,3.546-3.547V88.871h21.532C249.056,88.873,250.656,87.272,250.654,85.301z"/>
<path fill="none" stroke="#2E5788" stroke-width="4" stroke-miterlimit="10" d="M153.313,85.357c0-0.991,0.032-1.975,0.074-2.956
	H30.678c-14.328,0-25.945,11.616-25.945,25.945v90.804c0,14.329,11.617,25.946,25.945,25.946h88.755l31.628,27.11
	c1.859,1.64,4.24,2.562,6.718,2.594c1.507,0,2.993-0.326,4.359-0.958c3.715-1.706,6.083-5.436,6.045-9.522v-19.224h18.162
	c14.33,0,25.944-11.617,25.944-25.946v-45.774C178.951,148.645,153.313,120.001,153.313,85.357z M150.696,176.139H66.3V165.76
	h84.396V176.139z M165.407,138.779H51.588v-10.378h113.819V138.779z"/>
<path fill="#14CF37" d="M222.026,28.659c-31.312,0-56.693,25.383-56.693,56.698c0,31.314,25.382,56.698,56.693,56.698
	c31.314,0,56.701-25.387,56.701-56.698C278.728,54.049,253.343,28.659,222.026,28.659z M222.026,134.965
	c-27.397,0-49.607-22.212-49.607-49.608c0-27.397,22.21-49.608,49.607-49.608c27.402,0,49.614,22.211,49.614,49.608
	C271.641,112.753,249.429,134.965,222.026,134.965z"/>
</svg>
