<?xml version="1.0" encoding="utf-8"?>
<!-- Generator: Adobe Illustrator 22.1.0, SVG Export Plug-In . SVG Version: 6.00 Build 0)  -->
<svg version="1.1" id="Layer_1" xmlns="http://www.w3.org/2000/svg" xmlns:xlink="http://www.w3.org/1999/xlink" x="0px" y="0px"
	 viewBox="0 0 283.5 283.5" style="enable-background:new 0 0 283.5 283.5;" xml:space="preserve">
<style type="text/css">
	.st0{fill:#F20606;}
</style>
<g>
	<path class="st0" d="M141.7,8.3C68,8.3,8.3,68,8.3,141.7c0,73.7,59.8,133.5,133.5,133.5c73.7,0,133.5-59.8,133.5-133.5
		C275.2,68,215.5,8.3,141.7,8.3z M141.7,258.5c-64.5,0-116.8-52.3-116.8-116.8c0-64.5,52.3-116.8,116.8-116.8
		c64.5,0,116.8,52.3,116.8,116.8C258.5,206.2,206.2,258.5,141.7,258.5z"/>
	<path class="st0" d="M199.5,84c-4-4-10.5-4-14.4,0l-43.5,43.5L98.6,84.6c-4-4-10.4-4-14.3,0c-4,4-4,10.4,0,14.3l42.9,42.9L84,185
		c-4,4-4,10.4,0,14.4c4,4,10.5,4,14.4,0l43.2-43.2l42.9,42.9c4,4,10.4,4,14.3,0c4-4,4-10.4,0-14.3l-42.9-42.9l43.5-43.5
		C203.5,94.4,203.5,88,199.5,84z"/>
</g>
</svg>
