<?xml version="1.0" encoding="utf-8"?>
<!-- Generator: Adobe Illustrator 22.1.0, SVG Export Plug-In . SVG Version: 6.00 Build 0)  -->
<svg version="1.1" id="Layer_1" xmlns="http://www.w3.org/2000/svg" xmlns:xlink="http://www.w3.org/1999/xlink" x="0px" y="0px"
	 viewBox="0 0 283.5 283.5" style="enable-background:new 0 0 283.5 283.5;" xml:space="preserve">
<style type="text/css">
	.st0{fill:#FFFFFF;}
</style>
<g>
	<path class="st0" d="M271.7,119.1h-15.2c-0.8-2.2-1.7-4.5-2.7-6.6l10.7-10.7c2.2-2.2,2.2-5.8,0-8l-24-24c-2.2-2.2-5.8-2.2-8,0
		l-10.7,10.7c-2.2-1-4.4-2-6.7-2.8V62.6c0-3.1-2.5-5.7-5.7-5.7h-33.9c-3.1,0-5.6,2.5-5.6,5.7v15.2c-2.2,0.8-4.5,1.7-6.6,2.7
		l-10.7-10.7c-2.2-2.2-5.8-2.2-8,0l-24,24c-2.2,2.2-2.2,5.8,0,8l10.7,10.7c-1,2.2-2,4.4-2.8,6.7h-15.2c-3.1,0-5.7,2.5-5.7,5.7v33.9
		c0,3.1,2.5,5.6,5.7,5.6h15.2c0.8,2.2,1.7,4.5,2.7,6.6l-10.7,10.7c-2.2,2.2-2.2,5.8,0,8l24,24c2.2,2.2,5.8,2.2,8,0l10.7-10.7
		c2.2,1,4.4,1.9,6.6,2.7v15.3c0,3.1,2.5,5.6,5.6,5.6h33.9c3.1,0,5.6-2.5,5.6-5.6v-15.2c2.2-0.8,4.5-1.7,6.6-2.7l10.7,10.7
		c2.2,2.2,5.8,2.2,8,0l24-24c2.2-2.2,2.2-5.8,0-8L253.7,171c1.1-2.2,2-4.4,2.8-6.7h15.2c3.1,0,5.6-2.5,5.6-5.6v-33.9
		C277.3,121.7,274.8,119.1,271.7,119.1z M266,153h-13.7c-2.6-0.1-4.9,1.6-5.6,4.1c-1.2,4.2-2.9,8.3-5,12.1c-1.2,2.2-0.8,4.9,1,6.7
		l9.7,9.7l-16,16l-9.7-9.7c-1.8-1.8-4.5-2.2-6.7-1c-3.9,2.1-7.9,3.8-12.1,5c-2.5,0.7-4.2,3.1-4.1,5.7v13.5h-22.4v-13.7
		c0.1-2.6-1.6-4.9-4.1-5.7c-4.2-1.2-8.3-2.9-12.1-5c-2.2-1.2-4.9-0.8-6.7,1l-9.7,9.7l-16-16l9.7-9.7c1.8-1.8,2.2-4.5,1-6.7
		c-2.1-3.8-3.8-7.9-5-12.1c-0.7-2.5-3.1-4.2-5.7-4.1h-13.5v-22.4h13.7c2.6,0.1,4.9-1.6,5.6-4.1c1.2-4.2,2.9-8.3,5-12.1
		c1.2-2.2,0.8-4.9-1-6.7l-9.7-9.7l16-16l9.7,9.7c1.8,1.8,4.5,2.2,6.7,1c3.8-2.1,7.9-3.8,12.1-5c2.5-0.7,4.2-3.1,4.1-5.7V68.3h22.6
		v13.7c-0.1,2.6,1.6,4.9,4.1,5.7c4.2,1.2,8.3,2.9,12.1,5c2.2,1.2,4.9,0.8,6.7-1l9.7-9.7l16,16l-9.7,9.7c-1.8,1.8-2.2,4.5-1,6.7
		c2.1,3.9,3.8,7.9,5,12.1c0.7,2.5,3.1,4.2,5.6,4.1H266L266,153L266,153z"/>
	<path class="st0" d="M203.9,237.8c-3.1,0-5.6,2.5-5.6,5.6v17c0,3.1-2.5,5.6-5.6,5.6H23.1c-3.1,0-5.7-2.5-5.7-5.6V62.6H57
		c3.1,0,5.7-2.5,5.7-5.7V17.4h130c3.1,0,5.6,2.5,5.6,5.7v17c0,3.1,2.5,5.7,5.6,5.7c3.1,0,5.6-2.5,5.6-5.7v-17c0-9.4-7.6-17-16.9-17
		H57c-1.5,0-2.9,0.6-4,1.6L7.8,53c-1.1,1.1-1.6,2.5-1.6,4v203.4c0,9.4,7.6,17,17,17h169.5c9.4,0,16.9-7.6,16.9-17v-17
		C209.5,240.3,207,237.8,203.9,237.8z M25.4,51.3l25.9-25.9v25.9H25.4z"/>
	<path class="st0" d="M192.6,113.5c-15.6,0-28.3,12.6-28.3,28.3c0,15.6,12.6,28.3,28.3,28.3c15.6,0,28.3-12.6,28.3-28.3
		C220.8,126.1,208.2,113.5,192.6,113.5z M192.6,158.7c-9.4,0-17-7.6-17-17c0-9.4,7.6-17,17-17c9.4,0,16.9,7.6,16.9,17
		C209.5,151.1,201.9,158.7,192.6,158.7z"/>
</g>
</svg>
