<?xml version="1.0" encoding="utf-8"?>
<!-- Generator: Adobe Illustrator 16.0.0, SVG Export Plug-In . SVG Version: 6.00 Build 0)  -->
<!DOCTYPE svg PUBLIC "-//W3C//DTD SVG 1.1//EN" "http://www.w3.org/Graphics/SVG/1.1/DTD/svg11.dtd">
<svg version="1.1" id="Layer_1" xmlns="http://www.w3.org/2000/svg" xmlns:xlink="http://www.w3.org/1999/xlink" x="0px" y="0px"
	 width="283.46px" height="283.46px" viewBox="0 0 283.46 283.46" enable-background="new 0 0 283.46 283.46" xml:space="preserve">
<g>
	<path fill="#24C168" d="M150.811,125.879c-0.393,0.054-0.944,0.097-1.597,0.097c-0.798,0-1.453-0.043-1.95-0.097
		c-0.498-0.104-0.905-0.201-1.153-0.354c-0.298-0.145-0.447-0.345-0.548-0.54c-0.102-0.254-0.102-0.511-0.048-0.759l0.798-7.809
		c-1.103-0.149-2.156-0.348-3.105-0.596c-1-0.252-1.855-0.496-2.653-0.805c-0.798-0.297-1.504-0.597-2.054-0.895
		c-0.548-0.309-1.003-0.606-1.301-0.904c-0.296-0.298-0.5-0.697-0.649-1.303c-0.149-0.548-0.194-1.4-0.194-2.552
		c0-0.85,0.045-1.597,0.093-2.155c0.05-0.546,0.153-0.995,0.25-1.299c0.153-0.304,0.304-0.5,0.5-0.653
		c0.196-0.095,0.399-0.145,0.658-0.145c0.345,0,0.798,0.196,1.45,0.548c0.647,0.399,1.45,0.805,2.446,1.251
		c1.001,0.451,2.205,0.9,3.599,1.251c1.413,0.403,3.063,0.548,4.962,0.548c3.007,0,5.203-0.548,6.659-1.646
		c1.456-1.106,2.207-2.602,2.207-4.457c0-1.251-0.313-2.252-0.953-3.003c-0.658-0.802-1.456-1.501-2.512-2.101
		c-1.048-0.597-2.245-1.152-3.546-1.603c-1.303-0.503-2.658-1.003-4.056-1.497c-1.349-0.559-2.701-1.154-4.055-1.905
		c-1.305-0.699-2.504-1.601-3.557-2.651c-1.044-1.053-1.847-2.304-2.5-3.803c-0.649-1.504-0.951-3.303-0.951-5.406
		c0-1.903,0.302-3.654,0.951-5.203c0.654-1.601,1.551-2.956,2.755-4.159c1.199-1.202,2.705-2.097,4.453-2.85
		c1.752-0.751,3.754-1.204,5.957-1.501l0.75-7.712c0.05-0.194,0.098-0.395,0.153-0.496c0.1-0.153,0.242-0.246,0.501-0.399
		c0.241-0.095,0.539-0.196,0.992-0.25c0.407-0.047,0.962-0.101,1.604-0.101c0.807,0,1.459,0.054,1.955,0.101
		c0.5,0.095,0.949,0.196,1.197,0.352c0.3,0.145,0.446,0.35,0.548,0.544c0.102,0.25,0.102,0.505,0.102,0.75l-0.742,7.264
		c0.694,0.095,1.501,0.246,2.243,0.395c0.807,0.196,1.558,0.406,2.209,0.656c0.697,0.248,1.29,0.5,1.851,0.798
		c0.549,0.25,0.954,0.5,1.156,0.75c0.196,0.201,0.393,0.453,0.494,0.652c0.102,0.205,0.203,0.502,0.251,0.8
		c0.049,0.347,0.095,0.697,0.148,1.154c0.048,0.449,0.048,0.947,0.048,1.553c0,0.798,0,1.45-0.048,1.946
		c-0.054,0.498-0.1,0.901-0.196,1.154c-0.102,0.248-0.203,0.447-0.352,0.548c-0.149,0.102-0.25,0.153-0.446,0.153
		c-0.358,0-0.813-0.153-1.454-0.5c-0.658-0.356-1.409-0.703-2.354-1.053c-0.949-0.401-2.007-0.757-3.208-1.053
		c-1.204-0.347-2.55-0.5-4.004-0.5c-1.301,0-2.448,0.153-3.399,0.401c-0.952,0.252-1.702,0.604-2.302,1.05
		c-0.604,0.451-1.01,1.001-1.304,1.655c-0.248,0.651-0.396,1.348-0.396,2.099c0,1.206,0.298,2.207,0.949,3.007
		c0.655,0.796,1.501,1.547,2.55,2.097c1.053,0.6,2.252,1.111,3.606,1.603c1.351,0.499,2.703,0.999,4.104,1.553
		c1.397,0.548,2.753,1.154,4.107,1.851c1.353,0.699,2.498,1.603,3.598,2.608c1.056,1.042,1.903,2.295,2.503,3.748
		c0.649,1.501,0.949,3.253,0.949,5.3c0,2.207-0.397,4.204-1.146,5.96c-0.805,1.754-1.905,3.309-3.307,4.554
		c-1.446,1.303-3.154,2.304-5.156,3.053c-1.993,0.753-4.254,1.253-6.702,1.45l-0.805,8.212c-0.048,0.203-0.104,0.399-0.151,0.55
		c-0.095,0.151-0.25,0.297-0.501,0.401c-0.241,0.097-0.539,0.194-1.001,0.25L150.811,125.879z M195.357,49.709
		c-10.808-10.819-25.774-17.521-42.286-17.521c-16.521,0-31.492,6.702-42.296,17.521C99.968,60.515,93.259,75.482,93.259,91.994
		c0,16.52,6.709,31.491,17.517,42.297c10.804,10.808,25.775,17.517,42.296,17.517c16.512,0,31.479-6.709,42.286-17.517
		c10.816-10.806,17.521-25.777,17.521-42.297C212.879,75.482,206.174,60.515,195.357,49.709z"/>
	<g>
		<path fill="#24C168" d="M25.977,251.23l23.057-1.441c4.901-0.289,8.935-3.46,10.665-7.494l101.456,4.323
			c11.239,1.152,21.905-0.289,31.703-5.475l2.882-1.441l76.669-44.966c3.747-2.304,6.34-6.049,6.629-10.372
			c0.287-5.19-2.882-10.954-10.087-11.243c-5.188-0.285-15.854,5.479-18.736,6.916c-10.376,5.19-25.075,13.548-34.585,20.179
			c-0.578,0.574-1.442,1.152-2.308,1.441c-4.323,2.882-8.934,4.612-13.835,5.764c-27.669,6.054-68.31,6.632-68.31,6.632h-2.304
			c-1.73,0-3.46-1.156-3.75-2.887c-0.287-2.015,1.154-3.745,3.171-3.745l60.24-5.764c6.629-0.578,11.817-6.921,11.241-13.837
			c-0.575-6.916-7.207-12.106-13.834-11.239l-53.613-0.578c-3.745,0-9.509-0.863-12.967-2.015
			c-34.587-10.088-53.899-0.578-64.275,3.745c-2.306-3.745-6.627-6.343-11.528-6.054l-23.059,1.441
			c-7.781,0.578-13.545,6.916-12.971,14.414l3.749,51.3C11.853,246.329,18.482,251.809,25.977,251.23z M34.623,224.136
			c4.323,0,7.781,3.46,7.781,7.498c0,4.319-3.458,7.49-7.781,7.49s-7.783-3.456-7.783-7.49
			C26.55,227.307,30.299,224.136,34.623,224.136z M211.88,190.991c0-1.44,0-2.882,0-4.323c-0.287-1.729-0.576-3.46-1.152-5.189
			v-0.285c8.073-4.323,23.922-12.106,32.57-15.563c4.323-1.73,8.646-1.73,12.394,1.152c-3.171,1.151-6.053,2.593-8.646,3.745
			c-8.938,4.611-25.075,13.258-32.858,18.733C213.61,189.84,212.745,190.418,211.88,190.991z M235.226,160.729
			c-6.34,2.882-18.155,6.916-23.922,10.088l-3.745,2.019c-0.289,0.285-0.578,0.574-1.153,0.574c-1.729-2.02-3.747-3.745-6.054-5.187
			c5.188-2.882,17.293-6.631,22.482-8.65C226.868,157.844,231.191,158.133,235.226,160.729z"/>
	</g>
	<path fill="#24C168" d="M40.56,73.23l28.674,28.958c3.449,3.456-1.724,8.638-5.171,5.182L42.35,85.615
		c-0.735-0.736-1.303-0.492-1.303,0.515v66.299c0,2.023-1.64,3.663-3.659,3.663s-3.659-1.64-3.659-3.663V86.13
		c0-1.009-0.583-1.236-1.301-0.515L10.716,107.37c-3.449,3.456-8.622-1.726-5.173-5.182L34.101,73.23
		C35.874,71.431,38.771,71.426,40.56,73.23z"/>
</g>
</svg>
