<?xml version="1.0" encoding="utf-8"?>
<!-- Generator: Adobe Illustrator 16.0.0, SVG Export Plug-In . SVG Version: 6.00 Build 0)  -->
<!DOCTYPE svg PUBLIC "-//W3C//DTD SVG 1.1//EN" "http://www.w3.org/Graphics/SVG/1.1/DTD/svg11.dtd">
<svg version="1.1" id="Layer_1" xmlns="http://www.w3.org/2000/svg" xmlns:xlink="http://www.w3.org/1999/xlink" x="0px" y="0px"
	 width="283.46px" height="283.46px" viewBox="0 0 283.46 283.46" enable-background="new 0 0 283.46 283.46" xml:space="preserve">
<g>
	<g>
		<path fill="#F96937" d="M25.439,258.759l23.164-1.448c4.924-0.29,8.977-3.477,10.715-7.529l101.928,4.344
			c11.291,1.157,22.006-0.291,31.85-5.501l2.896-1.447l77.024-45.175c3.765-2.314,6.37-6.081,6.66-10.424
			c0.288-5.211-2.896-11.002-10.134-11.292c-5.213-0.29-15.928,5.501-18.823,6.948c-10.425,5.215-25.192,13.61-34.745,20.272
			c-0.581,0.577-1.45,1.157-2.319,1.448c-4.343,2.891-8.975,4.629-13.898,5.791c-27.797,6.076-68.627,6.657-68.627,6.657h-2.314
			c-1.738,0-3.477-1.157-3.767-2.896c-0.288-2.028,1.16-3.762,3.186-3.762l60.52-5.791c6.66-0.581,11.872-6.953,11.293-13.901
			c-0.578-6.948-7.24-12.162-13.898-11.291l-53.862-0.581c-3.762,0-9.553-0.867-13.027-2.028
			c-34.748-10.134-54.149-0.577-64.573,3.767c-2.317-3.767-6.658-6.372-11.582-6.081l-23.166,1.447
			c-7.817,0.576-13.608,6.948-13.032,14.478l3.767,51.542C11.25,253.834,17.91,259.335,25.439,258.759z M34.125,231.537
			c4.343,0,7.817,3.477,7.817,7.529c0,4.344-3.474,7.529-7.817,7.529c-4.343,0-7.819-3.477-7.819-7.529
			C26.015,234.724,29.782,231.537,34.125,231.537z M212.206,198.24c0-1.448,0-2.896,0-4.344c-0.288-1.738-0.579-3.477-1.157-5.214
			v-0.286c8.109-4.348,24.032-12.163,32.721-15.64c4.344-1.737,8.687-1.737,12.451,1.157c-3.186,1.158-6.081,2.605-8.687,3.763
			c-8.979,4.638-25.192,13.324-33.012,18.825C213.944,197.078,213.075,197.659,212.206,198.24z M235.66,167.833
			c-6.37,2.896-18.24,6.948-24.033,10.134l-3.763,2.029c-0.29,0.29-0.58,0.58-1.159,0.58c-1.735-2.028-3.765-3.767-6.081-5.214
			c5.212-2.896,17.373-6.658,22.587-8.687C227.264,164.938,231.607,165.229,235.66,167.833z"/>
	</g>
	<g>
		<path fill="#F96937" d="M207.362,72.913c-2.026-4.244-4.543-8.205-7.465-11.822c-0.392,0.657-0.63,1.398-0.656,2.182
			c-0.039,1.227,0.401,2.395,1.239,3.29L207.362,72.913z"/>
		<path fill="#F96937" d="M174.348,57.655c0-4.957,0.807-9.718,2.259-14.191c-7.217-3.067-15.153-4.766-23.482-4.766
			c-16.598,0-31.639,6.733-42.492,17.603c-10.858,10.855-17.598,25.892-17.598,42.48c0,16.597,6.74,31.637,17.598,42.493
			c10.854,10.854,25.894,17.595,42.492,17.595c16.588,0,31.625-6.74,42.482-17.595c9.939-9.928,16.404-23.365,17.44-38.285
			C191.123,99.499,174.348,80.561,174.348,57.655z M168.51,114.221c-0.809,1.762-1.914,3.324-3.322,4.575
			c-1.452,1.309-3.169,2.314-5.181,3.066c-2.002,0.756-4.273,1.259-6.733,1.457l-0.809,8.25c-0.047,0.204-0.104,0.401-0.151,0.553
			c-0.096,0.152-0.251,0.299-0.503,0.403c-0.242,0.097-0.542,0.195-1.006,0.251l0.048,0.047c-0.395,0.054-0.949,0.098-1.604,0.098
			c-0.802,0-1.461-0.043-1.959-0.098c-0.501-0.104-0.91-0.202-1.16-0.355c-0.299-0.145-0.448-0.347-0.55-0.542
			c-0.103-0.256-0.103-0.514-0.048-0.763l0.802-7.845c-1.107-0.15-2.166-0.349-3.12-0.598c-1.005-0.254-1.863-0.499-2.666-0.809
			c-0.802-0.299-1.51-0.6-2.063-0.899c-0.55-0.31-1.008-0.609-1.307-0.908c-0.297-0.299-0.502-0.7-0.652-1.309
			c-0.149-0.551-0.195-1.407-0.195-2.564c0-0.854,0.045-1.604,0.093-2.165c0.05-0.548,0.154-1,0.251-1.305
			c0.154-0.306,0.306-0.503,0.502-0.657c0.197-0.096,0.401-0.146,0.661-0.146c0.347,0,0.802,0.197,1.457,0.551
			c0.65,0.401,1.457,0.808,2.458,1.257c1.006,0.453,2.215,0.904,3.616,1.257c1.42,0.405,3.078,0.551,4.985,0.551
			c3.021,0,5.228-0.551,6.69-1.654c1.463-1.112,2.217-2.614,2.217-4.478c0-1.257-0.314-2.263-0.958-3.017
			c-0.661-0.806-1.463-1.509-2.522-2.111c-1.054-0.601-2.256-1.158-3.563-1.61c-1.309-0.505-2.67-1.008-4.074-1.504
			c-1.354-0.561-2.713-1.159-4.073-1.914c-1.311-0.702-2.516-1.608-3.574-2.664c-1.049-1.058-1.855-2.314-2.512-3.821
			c-0.652-1.511-0.956-3.318-0.956-5.431c0-1.912,0.304-3.671,0.956-5.228c0.656-1.608,1.558-2.969,2.768-4.178
			c1.205-1.208,2.717-2.107,4.474-2.863c1.76-0.754,3.771-1.209,5.983-1.508l0.755-7.748c0.05-0.195,0.098-0.396,0.153-0.499
			c0.1-0.154,0.243-0.247,0.503-0.401c0.243-0.095,0.542-0.197,0.997-0.251c0.409-0.047,0.967-0.102,1.612-0.102
			c0.811,0,1.465,0.054,1.964,0.102c0.503,0.096,0.953,0.197,1.203,0.354c0.301,0.145,0.448,0.351,0.55,0.546
			c0.103,0.251,0.103,0.507,0.103,0.754l-0.746,7.297c0.698,0.095,1.509,0.247,2.254,0.396c0.811,0.197,1.564,0.407,2.22,0.659
			c0.7,0.25,1.296,0.503,1.859,0.802c0.551,0.251,0.958,0.503,1.161,0.754c0.197,0.202,0.395,0.455,0.497,0.655
			c0.102,0.206,0.203,0.505,0.251,0.804c0.05,0.349,0.096,0.7,0.149,1.16c0.048,0.451,0.048,0.951,0.048,1.561
			c0,0.802,0,1.456-0.048,1.955c-0.054,0.5-0.1,0.906-0.197,1.16c-0.102,0.249-0.203,0.449-0.354,0.55
			c-0.149,0.102-0.251,0.154-0.448,0.154c-0.359,0-0.817-0.154-1.461-0.502c-0.661-0.358-1.415-0.707-2.364-1.058
			c-0.953-0.403-2.016-0.761-3.223-1.058c-1.209-0.349-2.562-0.503-4.022-0.503c-1.307,0-2.46,0.154-3.416,0.403
			c-0.955,0.254-1.71,0.607-2.313,1.056c-0.606,0.453-1.014,1.005-1.309,1.662c-0.249,0.655-0.398,1.354-0.398,2.109
			c0,1.211,0.299,2.217,0.953,3.021c0.659,0.8,1.509,1.554,2.562,2.107c1.058,0.603,2.263,1.116,3.624,1.61
			c1.356,0.501,2.716,1.004,4.122,1.561c1.404,0.551,2.766,1.16,4.127,1.859c1.358,0.703,2.509,1.61,3.614,2.621
			c1.06,1.047,1.912,2.306,2.515,3.764c0.652,1.509,0.953,3.269,0.953,5.325C169.66,110.45,169.262,112.457,168.51,114.221z"/>
	</g>
	<path fill="#F96937" d="M220.312,24.661c-18.218,0-32.99,14.77-32.99,32.995c0,18.22,14.772,32.99,32.99,32.99
		c18.222,0,32.994-14.77,32.994-32.99C253.306,39.431,238.533,24.661,220.312,24.661z M235.881,46.559
		c-15.056,26.222-15.279,26.434-15.441,26.586c-0.613,0.577-1.415,0.893-2.257,0.893c-0.893,0-1.753-0.367-2.373-1.008l-9.73-8.981
		c-0.603-0.644-0.919-1.482-0.891-2.362s0.4-1.699,1.044-2.301c0.609-0.572,1.409-0.889,2.25-0.889c0.893,0,1.756,0.368,2.375,1.01
		l6.48,5.978l12.826-22.221c0.587-1.016,1.684-1.649,2.86-1.649c0.576,0,1.145,0.152,1.645,0.442
		C236.24,42.961,236.784,44.983,235.881,46.559z"/>
	<path fill="#F96937" d="M40.089,79.93l28.808,29.093c3.465,3.472-1.732,8.678-5.195,5.206L41.888,92.373
		c-0.739-0.739-1.309-0.494-1.309,0.518v66.603c0,2.038-1.647,3.681-3.675,3.681c-2.029,0-3.676-1.643-3.676-3.681V92.891
		c0-1.015-0.585-1.242-1.307-0.518l-21.813,21.856c-3.465,3.472-8.662-1.733-5.197-5.206l28.69-29.093
		C35.382,78.123,38.293,78.118,40.089,79.93z"/>
</g>
</svg>
