<?xml version="1.0" encoding="utf-8"?>
<!-- Generator: Adobe Illustrator 16.0.0, SVG Export Plug-In . SVG Version: 6.00 Build 0)  -->
<!DOCTYPE svg PUBLIC "-//W3C//DTD SVG 1.1//EN" "http://www.w3.org/Graphics/SVG/1.1/DTD/svg11.dtd">
<svg version="1.1" id="Layer_1" xmlns="http://www.w3.org/2000/svg" xmlns:xlink="http://www.w3.org/1999/xlink" x="0px" y="0px"
	 width="283.46px" height="283.46px" viewBox="0 0 283.46 283.46" enable-background="new 0 0 283.46 283.46" xml:space="preserve">
<g>
	<g>
		<path fill="#26DAAD" d="M217.105,250.709h-8.888l-73.556,24.285c-2.281,1.218-11.547,5.352-21.224-0.265l-0.105-0.05
			L12.512,218.627c-0.376-0.206-0.682-0.47-0.956-0.734l0,0c0-0.06-9.001-9.106-3.495-19.372l0,0c0-0.05,6.031-12.861,17.679-9.631
			c29.268,8.103,48.155,24.929,65.572,29.268c22.704,4.073,38.583,2.646,59.96-6.406c-6.456-0.629-16.826-0.05-27.416,0.429
			c-3.225,0.151-6.508,0.261-9.733,0.365c-32.181,0.849-33.663-9.686-26.833-17.354c6.611-7.414,12.328-7.574,20.738-7.574h32.24
			c5.127-2.322,31.535-14.074,45.774-16.615c0.055,0,0.106,0,0.159,0c6.351-1.113,14.239-1.483,21.384-1.483
			c3.436,0,6.721,0.055,9.52,0.164v81.128V250.709z"/>
		<path fill="#26DAAD" d="M230.817,150.78h36.891c2.587,0,4.918,1.063,6.663,2.751l0,0l0,0l0,0l0,0
			c1.695,1.752,2.811,4.084,2.811,6.67v99.551c0,2.6-1.061,4.922-2.758,6.67l0,0l0,0l0,0l0,0c-1.743,1.692-4.074,2.806-6.67,2.806
			h-36.889c-2.425,0-4.706-0.958-6.395-2.486c-0.113-0.109-0.214-0.215-0.323-0.265c-1.695-1.693-2.811-4.074-2.811-6.725v-99.551
			c0-2.586,1.067-4.973,2.811-6.72l0,0c1.747-1.743,4.074-2.802,6.67-2.802V150.78z"/>
	</g>
	<path fill="#26DAAD" d="M93.003,140.465c-0.415,0.057-0.999,0.103-1.688,0.103c-0.844,0-1.537-0.046-2.062-0.103
		c-0.527-0.109-0.958-0.212-1.22-0.374c-0.315-0.153-0.472-0.365-0.58-0.57c-0.107-0.269-0.107-0.541-0.05-0.803l0.844-8.258
		c-1.166-0.158-2.279-0.367-3.283-0.63c-1.059-0.267-1.962-0.524-2.806-0.851c-0.844-0.315-1.59-0.632-2.172-0.947
		c-0.58-0.326-1.061-0.641-1.375-0.956c-0.313-0.314-0.529-0.737-0.687-1.377c-0.158-0.58-0.206-1.48-0.206-2.699
		c0-0.899,0.048-1.688,0.098-2.279c0.053-0.577,0.162-1.052,0.265-1.374c0.162-0.321,0.322-0.529,0.529-0.691
		c0.208-0.101,0.422-0.153,0.696-0.153c0.365,0,0.844,0.208,1.533,0.579c0.685,0.422,1.533,0.851,2.587,1.323
		c1.059,0.477,2.332,0.951,3.805,1.323c1.494,0.426,3.239,0.579,5.247,0.579c3.18,0,5.502-0.579,7.042-1.74
		c1.54-1.17,2.333-2.751,2.333-4.713c0-1.323-0.331-2.382-1.008-3.175c-0.696-0.849-1.54-1.588-2.655-2.222
		c-1.108-0.632-2.375-1.218-3.75-1.695c-1.378-0.531-2.811-1.061-4.289-1.583c-1.426-0.591-2.856-1.221-4.287-2.014
		c-1.38-0.739-2.648-1.693-3.761-2.804c-1.104-1.113-1.953-2.437-2.644-4.021c-0.687-1.59-1.006-3.493-1.006-5.717
		c0-2.012,0.319-3.864,1.006-5.502c0.691-1.693,1.64-3.125,2.913-4.398c1.268-1.271,2.86-2.217,4.708-3.013
		c1.853-0.794,3.969-1.273,6.298-1.588l0.794-8.155c0.053-0.205,0.103-0.417,0.162-0.524c0.105-0.162,0.255-0.26,0.529-0.422
		c0.255-0.101,0.57-0.208,1.049-0.265c0.431-0.05,1.017-0.107,1.697-0.107c0.853,0,1.542,0.057,2.066,0.107
		c0.529,0.1,1.004,0.208,1.266,0.372c0.317,0.153,0.472,0.37,0.58,0.575c0.107,0.264,0.107,0.534,0.107,0.793l-0.785,7.681
		c0.735,0.101,1.588,0.26,2.373,0.417c0.853,0.208,1.647,0.429,2.336,0.694c0.737,0.262,1.364,0.529,1.957,0.844
		c0.58,0.265,1.008,0.529,1.223,0.794c0.208,0.212,0.416,0.479,0.522,0.689c0.107,0.217,0.214,0.531,0.265,0.846
		c0.053,0.367,0.101,0.737,0.157,1.22c0.05,0.475,0.05,1.001,0.05,1.643c0,0.844,0,1.533-0.05,2.058
		c-0.057,0.527-0.104,0.954-0.208,1.221c-0.107,0.262-0.214,0.472-0.372,0.579c-0.158,0.107-0.265,0.162-0.472,0.162
		c-0.379,0-0.86-0.162-1.538-0.529c-0.696-0.376-1.49-0.744-2.489-1.113c-1.004-0.424-2.122-0.801-3.392-1.113
		c-1.273-0.367-2.696-0.529-4.234-0.529c-1.375,0-2.589,0.162-3.595,0.424c-1.006,0.267-1.8,0.639-2.434,1.111
		c-0.639,0.477-1.067,1.058-1.377,1.75c-0.263,0.689-0.42,1.426-0.42,2.22c0,1.275,0.315,2.333,1.004,3.18
		c0.693,0.842,1.587,1.636,2.696,2.217c1.113,0.634,2.381,1.175,3.814,1.695c1.428,0.527,2.858,1.056,4.339,1.643
		c1.478,0.58,2.911,1.22,4.343,1.957c1.43,0.739,2.642,1.695,3.805,2.758c1.115,1.102,2.012,2.427,2.646,3.962
		c0.687,1.587,1.003,3.44,1.003,5.604c0,2.333-0.419,4.446-1.211,6.303c-0.851,1.855-2.014,3.5-3.497,4.816
		c-1.528,1.377-3.335,2.436-5.452,3.228c-2.108,0.796-4.499,1.326-7.087,1.533l-0.851,8.684c-0.05,0.214-0.109,0.422-0.16,0.582
		c-0.1,0.16-0.265,0.314-0.529,0.424c-0.255,0.103-0.57,0.205-1.058,0.265L93.003,140.465z M140.109,59.919
		c-11.428-11.44-27.255-18.527-44.715-18.527c-17.469,0-33.301,7.087-44.725,18.527c-11.429,11.426-18.523,27.253-18.523,44.713
		c0,17.469,7.094,33.301,18.523,44.725c11.424,11.428,27.255,18.522,44.725,18.522c17.46,0,33.287-7.095,44.715-18.522
		c11.438-11.424,18.528-27.256,18.528-44.725C158.637,87.172,151.547,71.346,140.109,59.919z"/>
	<g>
		<path fill="#26DAAD" d="M217.105,55.464c-2.394,0-4.332,1.939-4.332,4.33c0,1.239,0.524,2.361,1.357,3.15
			c-1.357,3.846-1.357,9.843-1.357,9.843h8.664c0,0,0-5.997-1.357-9.843c0.835-0.79,1.357-1.912,1.357-3.15
			C221.438,57.403,219.498,55.464,217.105,55.464z"/>
		<path fill="#26DAAD" d="M249.119,19.119c-8.183-8.189-19.514-13.263-32.012-13.263c-12.508,0-23.841,5.073-32.019,13.263
			c-8.18,8.18-13.26,19.511-13.26,32.009c0,12.505,5.08,23.84,13.26,32.021c8.178,8.178,19.511,13.258,32.019,13.258
			c12.498,0,23.829-5.08,32.012-13.258c8.187-8.18,13.263-19.515,13.263-32.021C262.382,38.629,257.306,27.299,249.119,19.119z
			 M217.105,20.807c9.566,0,17.325,7.756,17.325,17.326c0,1.499-0.188,2.949-0.545,4.332h-9.278
			c0.739-1.273,1.164-2.751,1.164-4.332c0-4.784-3.883-8.664-8.666-8.664c-4.786,0-8.664,3.88-8.664,8.664
			c0,1.581,0.42,3.059,1.159,4.332h-9.278c-0.357-1.382-0.545-2.833-0.545-4.332C199.777,28.563,207.533,20.807,217.105,20.807z
			 M243.097,72.788c0,4.788-3.88,8.666-8.666,8.666h-34.653c-4.788,0-8.666-3.878-8.666-8.666V51.13c0-2.393,1.941-4.33,4.332-4.33
			h4.334h2.317h13.218h1.793h15.008h2.317h4.336c2.391,0,4.33,1.937,4.33,4.33V72.788z"/>
	</g>
</g>
</svg>
