<?xml version="1.0" encoding="utf-8"?>
<!-- Generator: Adobe Illustrator 16.0.0, SVG Export Plug-In . SVG Version: 6.00 Build 0)  -->
<!DOCTYPE svg PUBLIC "-//W3C//DTD SVG 1.1//EN" "http://www.w3.org/Graphics/SVG/1.1/DTD/svg11.dtd">
<svg version="1.1" id="Layer_1" xmlns="http://www.w3.org/2000/svg" xmlns:xlink="http://www.w3.org/1999/xlink" x="0px" y="0px"
	 width="283.46px" height="283.46px" viewBox="0 0 283.46 283.46" enable-background="new 0 0 283.46 283.46" xml:space="preserve">
<g>
	<g>
		<path fill="#28ABDF" d="M217.586,250.45h-8.946l-74.022,24.438c-2.297,1.228-11.622,5.386-21.359-0.266l-0.105-0.052
			L11.695,218.163c-0.379-0.205-0.689-0.473-0.963-0.737l0,0c0-0.06-9.058-9.164-3.516-19.496l0,0c0-0.05,6.068-12.941,17.791-9.689
			c29.451,8.153,48.458,25.085,65.987,29.45c22.848,4.101,38.828,2.665,60.339-6.445c-6.493-0.632-16.934-0.05-27.587,0.432
			c-3.247,0.153-6.548,0.261-9.795,0.37c-32.385,0.85-33.878-9.749-27.003-17.469c6.651-7.457,12.405-7.619,20.868-7.619h32.442
			c5.166-2.338,31.738-14.165,46.067-16.722c0.055,0,0.109,0,0.16,0c6.391-1.119,14.329-1.491,21.521-1.491
			c3.456,0,6.763,0.057,9.58,0.164v81.641V250.45z"/>
		<path fill="#28ABDF" d="M231.381,149.892h37.125c2.603,0,4.949,1.065,6.705,2.767l0,0l0,0l0,0l0,0
			c1.706,1.761,2.829,4.11,2.829,6.713v100.178c0,2.616-1.068,4.957-2.776,6.713l0,0l0,0l0,0l0,0
			c-1.751,1.703-4.098,2.826-6.713,2.826h-37.12c-2.44,0-4.735-0.966-6.434-2.505c-0.116-0.109-0.217-0.214-0.329-0.267
			c-1.703-1.701-2.826-4.101-2.826-6.768V159.371c0-2.603,1.075-5.007,2.826-6.766l0,0c1.763-1.753,4.101-2.819,6.713-2.819V149.892
			z"/>
	</g>
	<path fill="#28ABDF" d="M140.097,58.45C128.595,46.936,112.669,39.806,95.1,39.806c-17.581,0-33.513,7.13-45.006,18.645
		c-11.503,11.498-18.64,27.426-18.64,44.998c0,17.578,7.137,33.508,18.64,45.009c11.494,11.499,27.426,18.638,45.006,18.638
		c17.569,0,33.495-7.139,44.997-18.638c11.513-11.501,18.651-27.431,18.651-45.009C158.748,85.876,151.61,69.948,140.097,58.45z
		 M111.397,119.8c-0.858,1.865-2.027,3.521-3.521,4.847c-1.539,1.386-3.356,2.45-5.489,3.247c-2.119,0.802-4.525,1.333-7.128,1.546
		l-0.858,8.738c-0.05,0.215-0.109,0.422-0.16,0.584c-0.101,0.16-0.267,0.317-0.535,0.427c-0.255,0.103-0.573,0.205-1.064,0.267
		l0.05,0.05c-0.416,0.055-1.004,0.103-1.699,0.103c-0.849,0-1.548-0.048-2.078-0.103c-0.53-0.112-0.959-0.214-1.226-0.376
		c-0.317-0.155-0.473-0.368-0.582-0.575c-0.11-0.27-0.11-0.542-0.05-0.809l0.849-8.306c-1.173-0.16-2.292-0.372-3.306-0.635
		c-1.064-0.271-1.973-0.527-2.822-0.858c-0.849-0.315-1.598-0.635-2.183-0.95c-0.584-0.331-1.069-0.648-1.388-0.963
		c-0.313-0.315-0.53-0.74-0.689-1.386c-0.16-0.582-0.206-1.491-0.206-2.717c0-0.904,0.045-1.699,0.098-2.295
		c0.052-0.58,0.162-1.057,0.267-1.379c0.165-0.327,0.32-0.534,0.53-0.696c0.21-0.103,0.425-0.155,0.703-0.155
		c0.365,0,0.85,0.212,1.543,0.584c0.685,0.425,1.539,0.856,2.603,1.331c1.064,0.479,2.342,0.957,3.827,1.331
		c1.502,0.429,3.26,0.584,5.283,0.584c3.196,0,5.534-0.584,7.083-1.751c1.55-1.181,2.349-2.768,2.349-4.742
		c0-1.333-0.333-2.4-1.016-3.197c-0.699-0.856-1.548-1.596-2.671-2.237c-1.114-0.635-2.388-1.226-3.772-1.706
		c-1.388-0.534-2.827-1.069-4.315-1.594c-1.438-0.594-2.875-1.229-4.315-2.027c-1.388-0.74-2.663-1.701-3.786-2.82
		c-1.11-1.119-1.963-2.45-2.66-4.048c-0.691-1.598-1.014-3.514-1.014-5.751c0-2.025,0.322-3.889,1.014-5.539
		c0.697-1.704,1.651-3.144,2.93-4.423c1.278-1.278,2.881-2.233,4.74-3.034c1.863-0.797,3.996-1.281,6.338-1.598l0.799-8.206
		c0.055-0.206,0.103-0.422,0.165-0.527c0.105-0.165,0.256-0.26,0.53-0.427c0.26-0.101,0.575-0.208,1.059-0.265
		c0.429-0.05,1.023-0.109,1.708-0.109c0.858,0,1.548,0.059,2.078,0.109c0.534,0.101,1.009,0.208,1.274,0.375
		c0.32,0.153,0.475,0.372,0.583,0.575c0.107,0.27,0.107,0.541,0.107,0.802l-0.79,7.729c0.74,0.103,1.603,0.263,2.39,0.422
		c0.856,0.208,1.655,0.429,2.35,0.696c0.74,0.265,1.372,0.532,1.968,0.849c0.584,0.265,1.014,0.532,1.228,0.797
		c0.215,0.215,0.425,0.484,0.53,0.694c0.11,0.219,0.215,0.537,0.267,0.854c0.053,0.368,0.101,0.74,0.158,1.228
		c0.05,0.478,0.05,1.007,0.05,1.653c0,0.847,0,1.541-0.05,2.068c-0.057,0.53-0.105,0.959-0.21,1.229
		c-0.105,0.263-0.215,0.475-0.375,0.584c-0.155,0.105-0.265,0.162-0.473,0.162c-0.381,0-0.865-0.162-1.55-0.532
		c-0.699-0.379-1.498-0.749-2.502-1.121c-1.009-0.425-2.135-0.806-3.416-1.119c-1.283-0.372-2.712-0.534-4.261-0.534
		c-1.379,0-2.603,0.162-3.616,0.427c-1.014,0.269-1.811,0.642-2.448,1.116c-0.644,0.482-1.078,1.066-1.388,1.763
		c-0.26,0.694-0.425,1.436-0.425,2.233c0,1.286,0.32,2.35,1.014,3.201c0.699,0.847,1.599,1.646,2.712,2.23
		c1.119,0.64,2.396,1.183,3.838,1.708c1.436,0.527,2.875,1.06,4.368,1.653c1.486,0.583,2.927,1.226,4.37,1.968
		c1.438,0.744,2.658,1.706,3.831,2.774c1.119,1.11,2.019,2.443,2.658,3.987c0.694,1.601,1.014,3.461,1.014,5.642
		C112.617,115.804,112.192,117.93,111.397,119.8z"/>
	<path fill="#28ABDF" d="M249.802,19.293c-8.235-8.24-19.641-13.348-32.216-13.348c-12.585,0-23.99,5.107-32.221,13.348
		c-8.233,8.231-13.346,19.635-13.346,32.213c0,12.585,5.112,23.992,13.346,32.223c8.23,8.229,19.636,13.34,32.221,13.34
		c12.575,0,23.98-5.112,32.216-13.34c8.237-8.231,13.343-19.638,13.343-32.223C263.145,38.929,258.039,27.524,249.802,19.293z
		 M229.253,63.213c-0.612,1.338-1.452,2.521-2.519,3.471c-1.103,0.991-2.404,1.753-3.93,2.324c-1.521,0.573-3.242,0.954-5.104,1.105
		l-0.617,6.256c-0.031,0.153-0.077,0.306-0.114,0.42c-0.068,0.116-0.191,0.226-0.379,0.306c-0.187,0.073-0.41,0.146-0.763,0.189
		l0.035,0.039c-0.3,0.041-0.72,0.073-1.213,0.073c-0.612,0-1.114-0.032-1.488-0.073c-0.379-0.082-0.689-0.155-0.877-0.272
		c-0.229-0.112-0.343-0.262-0.418-0.411c-0.08-0.196-0.08-0.386-0.039-0.578l0.607-5.95c-0.84-0.114-1.639-0.265-2.36-0.454
		c-0.763-0.192-1.416-0.375-2.023-0.612c-0.611-0.226-1.146-0.454-1.563-0.68c-0.418-0.235-0.765-0.463-0.993-0.692
		c-0.224-0.224-0.379-0.53-0.493-0.991c-0.114-0.418-0.148-1.066-0.148-1.945c0-0.646,0.034-1.215,0.07-1.64
		c0.041-0.42,0.116-0.758,0.192-0.993c0.114-0.226,0.228-0.381,0.379-0.495c0.15-0.073,0.304-0.11,0.502-0.11
		c0.265,0,0.607,0.151,1.105,0.418c0.493,0.304,1.101,0.609,1.862,0.952c0.763,0.342,1.681,0.683,2.74,0.954
		c1.078,0.306,2.333,0.416,3.781,0.416c2.292,0,3.964-0.416,5.073-1.251c1.109-0.845,1.681-1.984,1.681-3.397
		c0-0.952-0.238-1.715-0.727-2.288c-0.5-0.612-1.109-1.142-1.913-1.601c-0.799-0.457-1.71-0.879-2.699-1.222
		c-0.995-0.381-2.024-0.763-3.091-1.139c-1.027-0.427-2.056-0.879-3.09-1.452c-0.993-0.53-1.906-1.217-2.71-2.021
		c-0.794-0.799-1.406-1.753-1.904-2.897c-0.493-1.144-0.722-2.514-0.722-4.117c0-1.45,0.229-2.781,0.722-3.966
		c0.498-1.217,1.183-2.249,2.097-3.167c0.915-0.916,2.063-1.598,3.393-2.169c1.338-0.575,2.863-0.918,4.539-1.146l0.57-5.875
		c0.041-0.146,0.073-0.301,0.119-0.376c0.077-0.119,0.183-0.188,0.384-0.306c0.178-0.073,0.406-0.148,0.756-0.187
		c0.308-0.041,0.728-0.08,1.221-0.08c0.612,0,1.11,0.039,1.484,0.08c0.384,0.068,0.727,0.146,0.916,0.265
		c0.23,0.11,0.34,0.265,0.417,0.416c0.078,0.189,0.078,0.381,0.078,0.571l-0.566,5.532c0.53,0.073,1.144,0.189,1.708,0.304
		c0.616,0.148,1.188,0.308,1.685,0.498c0.53,0.188,0.982,0.381,1.411,0.61c0.418,0.189,0.727,0.381,0.877,0.571
		c0.15,0.153,0.304,0.345,0.379,0.496c0.078,0.155,0.15,0.383,0.188,0.612c0.041,0.265,0.077,0.53,0.118,0.876
		c0.037,0.34,0.037,0.722,0.037,1.185c0,0.607,0,1.103-0.037,1.482c-0.041,0.379-0.077,0.685-0.155,0.879
		c-0.072,0.189-0.15,0.34-0.265,0.416c-0.114,0.08-0.189,0.117-0.338,0.117c-0.273,0-0.621-0.117-1.109-0.381
		c-0.5-0.27-1.073-0.534-1.795-0.799c-0.722-0.306-1.527-0.578-2.442-0.801c-0.918-0.267-1.941-0.384-3.051-0.384
		c-0.988,0-1.863,0.117-2.589,0.306c-0.722,0.192-1.297,0.459-1.754,0.804c-0.461,0.34-0.767,0.76-0.993,1.256
		c-0.188,0.498-0.299,1.03-0.299,1.601c0,0.917,0.229,1.683,0.722,2.29c0.497,0.607,1.142,1.18,1.94,1.598
		c0.804,0.457,1.717,0.847,2.749,1.222c1.027,0.379,2.06,0.76,3.128,1.183c1.062,0.417,2.092,0.879,3.128,1.411
		c1.027,0.532,1.899,1.222,2.742,1.987c0.802,0.794,1.45,1.749,1.904,2.856c0.495,1.144,0.724,2.478,0.724,4.035
		C230.125,60.354,229.819,61.879,229.253,63.213z"/>
</g>
</svg>
