<?xml version="1.0" encoding="utf-8"?>
<!-- Generator: Adobe Illustrator 16.0.0, SVG Export Plug-In . SVG Version: 6.00 Build 0)  -->
<!DOCTYPE svg PUBLIC "-//W3C//DTD SVG 1.1//EN" "http://www.w3.org/Graphics/SVG/1.1/DTD/svg11.dtd">
<svg version="1.1" id="Layer_1" xmlns="http://www.w3.org/2000/svg" xmlns:xlink="http://www.w3.org/1999/xlink" x="0px" y="0px"
	 width="283.46px" height="283.46px" viewBox="0 0 283.46 283.46" enable-background="new 0 0 283.46 283.46" xml:space="preserve">
<g>
	<path fill="none" stroke="#26DAAD" stroke-width="6" stroke-miterlimit="10" d="M160.83,179.933
		c0-10.548-8.543-19.099-19.101-19.099c-10.546,0-19.099,8.551-19.099,19.099c0,5.472,2.314,10.415,5.991,13.893
		c-5.991,16.956-5.991,43.413-5.991,43.413h38.2c0,0,0-26.457-5.981-43.413C158.53,190.348,160.83,185.404,160.83,179.933z
		 M179.942,84.417c0-21.095-17.109-38.2-38.213-38.2c-21.097,0-38.198,17.105-38.198,38.2c0,6.969,1.854,13.488,5.11,19.108H67.74
		c-1.581-6.109-2.414-12.505-2.414-19.108c0-42.194,34.206-76.397,76.402-76.397c42.199,0,76.407,34.203,76.407,76.397
		c0,6.603-0.832,12.999-2.399,19.108h-40.917C178.079,97.905,179.942,91.386,179.942,84.417z M65.327,122.636h10.219h58.277h7.906
		h66.182h10.225h19.117c10.539,0,19.087,8.548,19.087,19.094v95.509c0,21.098-17.103,38.203-38.204,38.203H65.327
		c-21.097,0-38.207-17.105-38.207-38.203v-95.509c0-10.546,8.562-19.094,19.104-19.094H65.327z"/>
</g>
</svg>
