<?xml version="1.0" encoding="utf-8"?>
<!-- Generator: Adobe Illustrator 16.0.0, SVG Export Plug-In . SVG Version: 6.00 Build 0)  -->
<!DOCTYPE svg PUBLIC "-//W3C//DTD SVG 1.1//EN" "http://www.w3.org/Graphics/SVG/1.1/DTD/svg11.dtd">
<svg version="1.1" id="Layer_1" xmlns="http://www.w3.org/2000/svg" xmlns:xlink="http://www.w3.org/1999/xlink" x="0px" y="0px"
	 width="283.46px" height="283.46px" viewBox="0 0 283.46 283.46" enable-background="new 0 0 283.46 283.46" xml:space="preserve">
<g>
	<path fill="#F20606" d="M141.733,8.256C68.009,8.256,8.251,68.01,8.251,141.73c0,73.723,59.758,133.473,133.482,133.473
		c73.719,0,133.476-59.75,133.476-133.473C275.209,68.01,215.452,8.256,141.733,8.256z M141.733,258.52
		c-64.503,0-116.794-52.283-116.794-116.789c0-64.5,52.291-116.791,116.794-116.791c64.501,0,116.785,52.291,116.785,116.791
		C258.518,206.236,206.234,258.52,141.733,258.52z"/>
	<path fill="#F20606" d="M199.479,83.995c-4.005-3.986-10.463-3.986-14.444,0l-43.515,43.517L98.598,84.606
		c-3.959-3.962-10.371-3.962-14.314,0c-3.963,3.955-3.963,10.371,0,14.311l42.913,42.917l-43.211,43.209
		c-3.993,3.99-3.993,10.447,0,14.43c3.99,3.981,10.455,3.981,14.437,0l43.208-43.204l42.907,42.913
		c3.959,3.959,10.379,3.959,14.322,0c3.967-3.958,3.967-10.37,0-14.329l-42.913-42.904l43.532-43.521
		C203.461,94.446,203.461,87.977,199.479,83.995z"/>
</g>
</svg>
