<?xml version="1.0" encoding="utf-8"?>
<!-- Generator: Adobe Illustrator 16.0.0, SVG Export Plug-In . SVG Version: 6.00 Build 0)  -->
<!DOCTYPE svg PUBLIC "-//W3C//DTD SVG 1.1//EN" "http://www.w3.org/Graphics/SVG/1.1/DTD/svg11.dtd">
<svg version="1.1" id="Layer_1" xmlns="http://www.w3.org/2000/svg" xmlns:xlink="http://www.w3.org/1999/xlink" x="0px" y="0px"
	 width="283.46px" height="283.46px" viewBox="0 0 283.46 283.46" enable-background="new 0 0 283.46 283.46" xml:space="preserve">
<path fill="none" stroke="#2E5788" stroke-width="5" stroke-miterlimit="10" d="M201.081,8.19H8.19v192.891v74.188H275.27V82.378
	C275.27,41.405,242.054,8.19,201.081,8.19z"/>
<path fill="#2E5788" d="M186.319,58.676v62.561l55.326,20.657c-9.083,21.592-30.437,36.752-55.326,36.752
	c-33.128,0-59.987-26.854-59.987-59.986C126.333,85.53,153.188,58.676,186.319,58.676z"/>
<polygon fill="#2E5788" points="245.227,255.457 125.373,255.457 125.373,237.59 245.23,237.59 245.227,255.457 "/>
<polygon fill="#2E5788" points="245.283,213.567 125.623,213.567 125.623,195.69 245.287,195.69 245.287,213.567 "/>
<polygon fill="#2E5788" points="93.271,81.33 93.271,167.62 75.404,167.62 75.404,81.33 93.271,81.33 "/>
<polygon fill="#2E5788" points="51.378,45.029 51.378,167.37 33.504,167.37 33.504,45.025 51.378,45.025 "/>
<path fill="#2E5788" d="M253.658,131.143l-55.322-20.655V47.925c33.132,0,59.994,26.854,59.994,59.986
	C258.322,116.15,256.664,124.002,253.658,131.143z"/>
</svg>
