<?xml version="1.0" encoding="utf-8"?>
<!-- Generator: Adobe Illustrator 16.0.0, SVG Export Plug-In . SVG Version: 6.00 Build 0)  -->
<!DOCTYPE svg PUBLIC "-//W3C//DTD SVG 1.1//EN" "http://www.w3.org/Graphics/SVG/1.1/DTD/svg11.dtd">
<svg version="1.1" id="Layer_1" xmlns="http://www.w3.org/2000/svg" xmlns:xlink="http://www.w3.org/1999/xlink" x="0px" y="0px"
	 width="283.46px" height="283.46px" viewBox="0 0 283.46 283.46" enable-background="new 0 0 283.46 283.46" xml:space="preserve">
<path fill="none" stroke="#FFFFFF" stroke-width="5" stroke-miterlimit="10" d="M237.251,20.285H46.212
	c-21.1,0-38.208,17.106-38.208,38.208v166.476c0,21.103,17.107,38.206,38.208,38.206h191.039c21.101,0,38.204-17.104,38.204-38.206
	V58.493C275.455,37.391,258.352,20.285,237.251,20.285z"/>
<path fill="#FFFFFF" d="M198.034,62.913h27.973c6.03,0,10.917,4.888,10.917,10.917c0,6.03-4.887,10.917-10.917,10.917h-27.973
	c-6.028,0-10.917-4.887-10.917-10.917C187.117,67.801,192.006,62.913,198.034,62.913z"/>
<path fill="#FFFFFF" d="M198.034,112.038h27.973c6.03,0,10.917,4.887,10.917,10.917c0,6.029-4.887,10.916-10.917,10.916h-27.973
	c-6.028,0-10.917-4.887-10.917-10.916C187.117,116.924,192.006,112.038,198.034,112.038z"/>
<path fill="#FFFFFF" d="M198.034,161.161h27.973c6.03,0,10.917,4.889,10.917,10.917c0,6.029-4.887,10.918-10.917,10.918h-27.973
	c-6.028,0-10.917-4.889-10.917-10.918C187.117,166.05,192.006,161.161,198.034,161.161z"/>
<path fill="#FFFFFF" d="M153.004,69.053c0-6.028,4.887-10.915,10.917-10.915c6.029,0,10.916,4.887,10.916,10.915v8.87
	c0,6.031-4.887,10.917-10.916,10.917c-6.03,0-10.917-4.886-10.917-10.917V69.053z"/>
<path fill="#FFFFFF" d="M153.004,118.178c0-6.029,4.887-10.917,10.917-10.917c6.029,0,10.916,4.888,10.916,10.917v8.87
	c0,6.028-4.887,10.917-10.916,10.917c-6.03,0-10.917-4.889-10.917-10.917V118.178z"/>
<path fill="#FFFFFF" d="M153.004,167.302c0-6.028,4.887-10.917,10.917-10.917c6.029,0,10.916,4.889,10.916,10.917v8.868
	c0,6.032-4.887,10.917-10.916,10.917c-6.03,0-10.917-4.885-10.917-10.917V167.302z"/>
<path fill="#FFFFFF" d="M91.595,62.913h27.976c6.029,0,10.917,4.888,10.917,10.917c0,6.03-4.888,10.917-10.917,10.917H91.595
	c-6.027,0-10.914-4.887-10.914-10.917C80.682,67.801,85.568,62.913,91.595,62.913z"/>
<path fill="#FFFFFF" d="M91.595,112.038h27.976c6.029,0,10.917,4.887,10.917,10.917c0,6.029-4.888,10.916-10.917,10.916H91.595
	c-6.027,0-10.914-4.887-10.914-10.916C80.682,116.924,85.568,112.038,91.595,112.038z"/>
<path fill="#FFFFFF" d="M91.595,161.161h27.976c6.029,0,10.917,4.889,10.917,10.917c0,6.029-4.888,10.918-10.917,10.918H91.595
	c-6.027,0-10.914-4.889-10.914-10.918C80.682,166.05,85.568,161.161,91.595,161.161z"/>
<path fill="#FFFFFF" d="M46.567,69.053c0-6.028,4.889-10.915,10.917-10.915c6.029,0,10.917,4.887,10.917,10.915v8.87
	c0,6.031-4.888,10.917-10.917,10.917c-6.028,0-10.917-4.886-10.917-10.917V69.053z"/>
<path fill="#FFFFFF" d="M46.567,118.178c0-6.029,4.889-10.917,10.917-10.917c6.029,0,10.917,4.888,10.917,10.917v8.87
	c0,6.028-4.888,10.917-10.917,10.917c-6.028,0-10.917-4.889-10.917-10.917V118.178z"/>
<path fill="#FFFFFF" d="M46.567,167.302c0-6.028,4.889-10.917,10.917-10.917c6.029,0,10.917,4.889,10.917,10.917v8.868
	c0,6.032-4.888,10.917-10.917,10.917c-6.028,0-10.917-4.885-10.917-10.917V167.302z"/>
<path fill="#FFFFFF" d="M253.621,224.969c0,9.041-7.327,16.372-16.37,16.372H46.212c-9.044,0-16.375-7.331-16.375-16.372v-1.363
	h223.784V224.969z"/>
</svg>
