<?xml version="1.0" encoding="utf-8"?>
<!-- Generator: Adobe Illustrator 22.1.0, SVG Export Plug-In . SVG Version: 6.00 Build 0)  -->
<svg version="1.1" id="Layer_1" xmlns="http://www.w3.org/2000/svg" xmlns:xlink="http://www.w3.org/1999/xlink" x="0px" y="0px"
	 viewBox="0 0 283.5 283.5" style="enable-background:new 0 0 283.5 283.5;" xml:space="preserve">
<style type="text/css">
	.st0{fill:#14CF37;}
	.st1{fill:none;stroke:#2E5788;stroke-width:4;stroke-miterlimit:10;}
</style>
<g>
	<path class="st0" d="M222.6,33.7c-27.5,0-50.5,13.5-57.4,31.8c6.8,18.3,29.9,31.8,57.4,31.8s50.5-13.5,57.4-31.8
		C273.2,47.2,250.1,33.7,222.6,33.7z M222.6,87.1c-11.9,0-21.6-9.6-21.6-21.5S210.7,44,222.6,44c11.9,0,21.6,9.6,21.6,21.5
		C244.2,77.4,234.5,87.1,222.6,87.1z M222.6,47.2c-8.2,0-14.8,6.6-14.8,14.8c0,8.2,6.6,14.8,14.8,14.8c8.2,0,14.8-6.6,14.8-14.8
		C237.4,53.9,230.8,47.2,222.6,47.2z"/>
	<g>
		<path class="st1" d="M222.6,110.3c-38.6,0-71.1-19-80.8-44.8c0.7-1.8,1.5-3.6,2.4-5.3H34C18.2,60.2,5.5,73,5.5,88.7v99.9
			c0,15.8,12.8,28.5,28.5,28.5h97.6l34.8,29.8c2,1.8,4.7,2.8,7.4,2.9c1.7,0,3.3-0.4,4.8-1.1c4.1-1.9,6.7-6,6.6-10.5v-21.1h20
			c15.8,0,28.5-12.8,28.5-28.5v-78.8C230.1,110.1,226.4,110.3,222.6,110.3z M166,163.3H73.2v-11.4H166V163.3z M182.2,122.2H57v-11.4
			h125.2V122.2z"/>
	</g>
</g>
</svg>
