<?xml version="1.0" encoding="utf-8"?>
<!-- Generator: Adobe Illustrator 17.0.0, SVG Export Plug-In . SVG Version: 6.00 Build 0)  -->
<!DOCTYPE svg PUBLIC "-//W3C//DTD SVG 1.1//EN" "http://www.w3.org/Graphics/SVG/1.1/DTD/svg11.dtd">
<svg version="1.1" id="Layer_1" xmlns="http://www.w3.org/2000/svg" xmlns:xlink="http://www.w3.org/1999/xlink" x="0px" y="0px"
	 width="255px" height="255px" viewBox="0 0 255 255" enable-background="new 0 0 255 255" xml:space="preserve">
<g>
	<path fill="#305889" d="M43.393,87.73L43.393,87.73c-7.098,0-12.849,5.75-12.849,12.846l0,0c0,7.104,5.75,12.855,12.849,12.855l0,0
		c7.098,0,12.855-5.75,12.855-12.855l0,0C56.248,93.48,50.492,87.73,43.393,87.73z"/>
	<path fill="#305889" d="M80.013,87.73L80.013,87.73c-7.101,0-12.857,5.75-12.857,12.846l0,0c0,7.104,5.756,12.855,12.857,12.855
		l0,0c7.098,0,12.849-5.75,12.849-12.855l0,0C92.862,93.48,87.111,87.73,80.013,87.73z"/>
	<path fill="#305889" d="M116.63,87.73c-7.098,0-12.855,5.75-12.855,12.846l0,0c0,7.104,5.741,12.855,12.855,12.855
		c7.083,0,12.849-5.75,12.849-12.855l0,0C129.479,93.48,123.726,87.73,116.63,87.73z"/>
	<path fill="#305889" d="M43.393,125.761L43.393,125.761c-7.098,0-12.849,5.751-12.849,12.848l0,0
		c0,7.102,5.75,12.849,12.849,12.849l0,0c7.098,0,12.855-5.747,12.855-12.849l0,0C56.248,131.511,50.492,125.761,43.393,125.761z"/>
	<path fill="#305889" d="M80.013,125.761L80.013,125.761c-7.101,0-12.857,5.751-12.857,12.848l0,0
		c0,7.102,5.756,12.849,12.857,12.849l0,0c7.098,0,12.849-5.747,12.849-12.849l0,0C92.862,131.511,87.111,125.761,80.013,125.761z"
		/>
	<path fill="#305889" d="M116.63,125.761c-7.098,0-12.855,5.751-12.855,12.848l0,0c0,7.102,5.741,12.849,12.855,12.849
		c7.083,0,12.849-5.747,12.849-12.849l0,0C129.479,131.511,123.726,125.761,116.63,125.761z"/>
	<path fill="#305889" d="M116.63,163.787c-7.098,0-12.855,5.752-12.855,12.857l0,0c0,7.099,5.741,12.846,12.855,12.846
		c7.083,0,12.849-5.747,12.849-12.846l0,0C129.479,169.549,123.726,163.787,116.63,163.787z"/>
	<path fill="#305889" d="M43.393,163.787L43.393,163.787c-7.098,0-12.849,5.752-12.849,12.857l0,0
		c0,7.099,5.75,12.846,12.849,12.846l0,0c7.098,0,12.855-5.747,12.855-12.846l0,0C56.248,169.549,50.492,163.787,43.393,163.787z"/>
	<path fill="#305889" d="M80.013,163.787L80.013,163.787c-7.101,0-12.857,5.752-12.857,12.857l0,0
		c0,7.099,5.756,12.846,12.857,12.846l0,0c7.098,0,12.849-5.747,12.849-12.846l0,0C92.862,169.549,87.111,163.787,80.013,163.787z"
		/>
	<path fill="#305889" d="M190.008,192.308c-0.02,0-0.04,0-0.063,0c-0.854,7.897-7.556,14.062-15.684,14.062H23.35
		c-8.694,0-15.767-7.069-15.767-15.77V72.394h182.458v4.35c1.883,0.003,3.737,0.1,5.578,0.276V39.681
		c0-10.923-8.248-19.936-18.843-21.178v-8.016c0-4.042-3.297-7.337-7.337-7.337h-6.084c-4.054,0-7.337,3.295-7.337,7.337v7.849
		H108.7v-7.849c0-4.042-3.292-7.337-7.349-7.337h-6.063c-4.05,0-7.339,3.295-7.339,7.337v7.849H40.63v-7.849
		c0-4.042-3.295-7.337-7.349-7.337h-6.072c-4.05,0-7.354,3.295-7.354,7.337v8.148C9.66,20.298,2.001,29.061,2.001,39.682v150.919
		c0,11.774,9.586,21.345,21.35,21.345h150.917c11.296,0,20.531-8.804,21.278-19.908
		C193.722,192.213,191.877,192.308,190.008,192.308z M161.599,10.488c0-0.966,0.788-1.753,1.76-1.753h6.081
		c0.981,0,1.766,0.787,1.766,1.753v21.264c0,0.974-0.785,1.771-1.766,1.771h-6.081c-0.971,0-1.76-0.797-1.76-1.771V10.488z
		 M93.526,10.488c0-0.966,0.787-1.753,1.763-1.753h6.063c0.984,0,1.777,0.787,1.777,1.753v21.264c0,0.974-0.794,1.771-1.777,1.771
		h-6.063c-0.974,0-1.763-0.797-1.763-1.771V10.488z M25.444,10.488c0-0.966,0.787-1.753,1.766-1.753h6.072
		c0.977,0,1.768,0.787,1.768,1.753v21.264c0,0.974-0.791,1.771-1.768,1.771H27.21c-0.977,0-1.765-0.797-1.765-1.771
		C25.444,31.752,25.444,10.488,25.444,10.488z M7.579,39.681c0-7.524,5.204-13.783,12.288-15.365v7.435
		c0,4.054,3.292,7.349,7.342,7.349h6.072c4.054,0,7.349-3.295,7.349-7.349v-7.843h47.318v7.843c0,4.054,3.289,7.349,7.349,7.349
		h6.072c4.039,0,7.332-3.295,7.332-7.349v-7.843h47.327v7.843c0,4.054,3.292,7.349,7.346,7.349h6.075
		c4.051,0,7.346-3.295,7.346-7.349v-7.619c7.501,1.202,13.249,7.706,13.249,15.549v27.135H7.579V39.681z"/>
	<path fill="#305889" d="M190.043,192.308v40.343c0,8.706-7.072,15.773-15.782,15.773H23.35c-8.694,0-15.767-7.066-15.767-15.773
		v-60.486H2v60.486C2,244.428,11.586,254,23.35,254h150.917c11.778,0,21.352-9.571,21.352-21.349v-40.616
		c-0.022,0.003-0.046,0.003-0.063,0.003C193.74,192.21,191.9,192.308,190.043,192.308z"/>
	<path fill="#305889" d="M190.043,192.308v20.606c0,8.702-7.072,15.776-15.782,15.776H23.35c-8.694,0-15.767-7.072-15.767-15.776
		v-60.483H2v60.483c0,11.778,9.586,21.348,21.35,21.348h150.917c11.778,0,21.352-9.568,21.352-21.348v-20.88
		C193.78,192.21,191.925,192.308,190.043,192.308z"/>
	<g>
		<path fill="#087EF4" d="M180.544,119.206v-2.357c0-1.36-0.369-2.475-1.104-3.353c-0.743-0.877-1.78-1.317-3.123-1.317
			c-1.291,0-2.318,0.426-3.085,1.277c-0.761,0.851-1.144,2.009-1.144,3.473v2.944c0,1.36,0.382,2.467,1.144,3.321
			c0.767,0.854,1.817,1.274,3.166,1.274C179.163,124.467,180.544,122.714,180.544,119.206z"/>
		<path fill="#087EF4" d="M203.665,144.587c-1.265,0-2.283,0.4-3.045,1.196c-0.761,0.799-1.17,1.878-1.222,3.243v3.212
			c0,1.233,0.419,2.308,1.265,3.243c0.84,0.934,1.869,1.394,3.083,1.394c2.553,0,3.936-1.208,4.148-3.608l0.037-4.046
			c0-1.391-0.379-2.51-1.145-3.358C206.022,145.012,204.984,144.587,203.665,144.587z"/>
		<path fill="#087EF4" d="M190.008,87.879c-25.76,0-46.646,20.884-46.646,46.65c0,25.76,20.884,46.646,46.646,46.646
			c25.763,0,46.648-20.884,46.648-46.646C236.656,108.763,215.771,87.879,190.008,87.879z M163.511,119.646v-2.806
			c0-3.553,1.161-6.426,3.48-8.614c2.317-2.188,5.425-3.281,9.326-3.281c3.95,0,7.072,1.086,9.367,3.26
			c2.291,2.174,3.439,5.118,3.439,8.832v2.846c0,3.556-1.147,6.415-3.439,8.576c-2.294,2.16-5.391,3.24-9.286,3.24
			c-3.875,0-6.992-1.072-9.35-3.22C164.69,126.331,163.511,123.389,163.511,119.646z M178.927,159.009l-6.207-3.123l28.098-44.973
			l6.205,3.123L178.927,159.009z M216.507,152.252c0,3.582-1.144,6.455-3.439,8.615c-2.291,2.16-5.402,3.243-9.324,3.243
			c-3.876,0-6.992-1.075-9.35-3.22c-2.358-2.151-3.537-5.095-3.537-8.835v-2.846c0-3.58,1.168-6.455,3.496-8.615
			c2.335-2.16,5.434-3.24,9.31-3.24c3.924,0,7.046,1.064,9.367,3.198c2.317,2.139,3.476,5.115,3.476,8.933L216.507,152.252
			L216.507,152.252z"/>
	</g>
</g>
</svg>
