<?xml version="1.0" encoding="utf-8"?>
<!-- Generator: Adobe Illustrator 16.0.0, SVG Export Plug-In . SVG Version: 6.00 Build 0)  -->
<!DOCTYPE svg PUBLIC "-//W3C//DTD SVG 1.1//EN" "http://www.w3.org/Graphics/SVG/1.1/DTD/svg11.dtd">
<svg version="1.1" id="Layer_1" xmlns="http://www.w3.org/2000/svg" xmlns:xlink="http://www.w3.org/1999/xlink" x="0px" y="0px"
	 width="283.46px" height="283.46px" viewBox="0 0 283.46 283.46" enable-background="new 0 0 283.46 283.46" xml:space="preserve">
<g>
	<path fill="#27CD2F" d="M221.356,49.434c-31.853,0-57.663,25.813-57.663,57.663c0,31.846,25.811,57.659,57.663,57.659
		c31.844,0,57.66-25.813,57.66-57.659C279.017,75.247,253.2,49.434,221.356,49.434z M245.621,87.743
		c-25.541,44.484-25.926,44.849-26.135,45.04c-0.934,0.874-2.148,1.357-3.427,1.357c-1.383,0-2.713-0.577-3.663-1.583
		l-16.399-15.127c-1.96-2.094-1.86-5.276,0.16-7.17c1.932-1.819,5.262-1.707,7.086,0.232l11.526,10.625l22.159-38.393
		c0.89-1.547,2.557-2.511,4.349-2.511c0.873,0,1.743,0.234,2.505,0.677C246.175,82.271,247,85.346,245.621,87.743z"/>
	<g>
		<path fill="#2E5788" d="M147.382,107.097c0-19.364,7.442-36.98,19.614-50.166c-16.753-11.707-37.146-18.608-59.153-18.608
			c-28.545,0-54.42,11.599-73.108,30.299C16.032,87.302,4.443,113.172,4.443,141.73c0,28.564,11.588,54.443,30.291,73.131
			c18.688,18.681,44.563,30.275,73.108,30.275c28.574,0,54.448-11.595,73.133-30.275c10.075-10.075,18.062-22.251,23.31-35.793
			C171.657,171.361,147.382,142.075,147.382,107.097z M134.775,168.295c-1.401,3.042-3.294,5.728-5.729,7.88
			c-2.485,2.252-5.449,3.987-8.905,5.273c-3.447,1.311-7.363,2.173-11.587,2.505l-1.4,14.204c-0.079,0.349-0.17,0.686-0.257,0.954
			c-0.164,0.256-0.429,0.517-0.87,0.689c-0.411,0.164-0.932,0.336-1.725,0.433l0.08,0.076c-0.669,0.096-1.641,0.172-2.766,0.172
			c-1.371,0-2.511-0.076-3.369-0.172c-0.854-0.173-1.571-0.345-2-0.602c-0.505-0.256-0.77-0.597-0.94-0.934
			c-0.176-0.445-0.176-0.886-0.08-1.311l1.373-13.511c-1.898-0.248-3.715-0.597-5.358-1.029c-1.733-0.438-3.208-0.854-4.585-1.387
			c-1.389-0.514-2.609-1.03-3.561-1.547c-0.946-0.533-1.728-1.051-2.238-1.563c-0.529-0.517-0.87-1.206-1.134-2.252
			c-0.252-0.946-0.341-2.421-0.341-4.413c0-1.467,0.088-2.758,0.167-3.724c0.092-0.941,0.258-1.727,0.439-2.252
			c0.256-0.525,0.523-0.865,0.87-1.134c0.329-0.161,0.685-0.245,1.134-0.245c0.593,0,1.371,0.345,2.507,0.946
			c1.114,0.693,2.505,1.398,4.23,2.156c1.726,0.785,3.813,1.566,6.22,2.176c2.445,0.689,5.296,0.942,8.575,0.942
			c5.204,0,8.998-0.942,11.502-2.842c2.531-1.92,3.822-4.501,3.822-7.707c0-2.164-0.533-3.892-1.655-5.194
			c-1.128-1.391-2.509-2.593-4.321-3.623c-1.819-1.042-3.889-2.004-6.14-2.777c-2.259-0.87-4.601-1.735-7.022-2.585
			c-2.316-0.966-4.653-1.999-7.001-3.301c-2.254-1.207-4.325-2.76-6.156-4.579c-1.787-1.817-3.19-3.98-4.32-6.571
			c-1.12-2.611-1.645-5.711-1.645-9.354c0-3.288,0.525-6.32,1.645-8.998c1.13-2.769,2.688-5.114,4.771-7.196
			c2.066-2.074,4.669-3.623,7.699-4.914c3.02-1.303,6.485-2.086,10.292-2.601l1.3-13.336c0.084-0.345,0.172-0.682,0.267-0.862
			c0.17-0.258,0.421-0.425,0.866-0.681c0.415-0.168,0.934-0.339,1.717-0.439c0.708-0.076,1.659-0.174,2.765-0.174
			c1.403,0,2.527,0.098,3.383,0.174c0.87,0.162,1.647,0.339,2.08,0.611c0.511,0.25,0.764,0.601,0.942,0.936
			c0.17,0.435,0.17,0.88,0.17,1.303l-1.292,12.552c1.216,0.168,2.609,0.431,3.887,0.684c1.403,0.343,2.697,0.709,3.82,1.132
			c1.214,0.429,2.242,0.874,3.206,1.384c0.94,0.433,1.647,0.866,1.994,1.293c0.341,0.351,0.68,0.787,0.854,1.128
			c0.182,0.363,0.36,0.874,0.437,1.387c0.09,0.597,0.165,1.205,0.259,1.992c0.076,0.776,0.076,1.644,0.076,2.686
			c0,1.378,0,2.513-0.076,3.364c-0.094,0.868-0.168,1.567-0.335,1.996c-0.178,0.433-0.36,0.775-0.625,0.946
			c-0.249,0.176-0.421,0.267-0.764,0.267c-0.613,0-1.402-0.267-2.519-0.862c-1.134-0.615-2.427-1.22-4.058-1.826
			c-1.651-0.689-3.473-1.304-5.551-1.817c-2.086-0.605-4.411-0.859-6.928-0.859c-2.236,0-4.232,0.254-5.875,0.687
			c-1.646,0.441-2.948,1.046-3.978,1.82c-1.05,0.775-1.748,1.723-2.25,2.857c-0.427,1.13-0.685,2.338-0.685,3.635
			c0,2.076,0.505,3.807,1.629,5.19c1.143,1.383,2.597,2.673,4.423,3.635c1.83,1.038,3.897,1.91,6.232,2.771
			c2.339,0.864,4.661,1.722,7.098,2.688c2.413,0.944,4.751,1.99,7.1,3.198c2.329,1.206,4.313,2.761,6.216,4.509
			c1.823,1.802,3.298,3.963,4.328,6.476c1.118,2.593,1.651,5.627,1.651,9.158C136.759,161.814,136.058,165.261,134.775,168.295z"/>
	</g>
</g>
</svg>
