<?xml version="1.0" encoding="utf-8"?>
<!-- Generator: Adobe Illustrator 17.0.0, SVG Export Plug-In . SVG Version: 6.00 Build 0)  -->
<!DOCTYPE svg PUBLIC "-//W3C//DTD SVG 1.1//EN" "http://www.w3.org/Graphics/SVG/1.1/DTD/svg11.dtd">
<svg version="1.1" id="Layer_1" xmlns="http://www.w3.org/2000/svg" xmlns:xlink="http://www.w3.org/1999/xlink" x="0px" y="0px"
	 width="255px" height="255px" viewBox="0 0 255 255" enable-background="new 0 0 255 255" xml:space="preserve">
<g>
	<path fill="#14CF37" d="M195.417,14.701c-25.128,0-45.572,20.444-45.572,45.57s20.444,45.57,45.572,45.57
		s45.573-20.444,45.573-45.57S220.545,14.701,195.417,14.701z M210.744,74.696c-0.747,1.632-1.767,3.08-3.075,4.234
		c-1.335,1.214-2.925,2.14-4.786,2.832c-1.853,0.702-3.954,1.168-6.23,1.35l-0.748,7.634c-0.042,0.191-0.095,0.37-0.139,0.51
		c-0.086,0.143-0.229,0.279-0.466,0.374c-0.22,0.088-0.503,0.18-0.924,0.231l0.044,0.044c-0.367,0.048-0.884,0.088-1.486,0.088
		c-0.74,0-1.353-0.04-1.815-0.088c-0.46-0.095-0.842-0.187-1.075-0.326c-0.272-0.136-0.411-0.323-0.505-0.503
		c-0.095-0.237-0.095-0.473-0.044-0.704l0.742-7.26c-1.023-0.138-2-0.323-2.884-0.554c-0.929-0.233-1.725-0.459-2.464-0.747
		c-0.746-0.275-1.401-0.554-1.914-0.833c-0.51-0.286-0.932-0.561-1.206-0.835c-0.28-0.279-0.463-0.649-0.602-1.214
		c-0.139-0.51-0.187-1.299-0.187-2.372c0-0.791,0.048-1.484,0.092-2.003c0.048-0.506,0.139-0.924,0.235-1.207
		c0.143-0.282,0.283-0.466,0.463-0.605c0.181-0.088,0.37-0.136,0.611-0.136c0.321,0,0.743,0.183,1.346,0.51
		c0.602,0.369,1.353,0.745,2.276,1.161c0.931,0.418,2.049,0.84,3.339,1.165c1.318,0.37,2.85,0.508,4.614,0.508
		c2.793,0,4.83-0.508,6.189-1.532c1.348-1.027,2.051-2.416,2.051-4.142c0-1.157-0.295-2.089-0.89-2.79
		c-0.605-0.745-1.35-1.392-2.329-1.95c-0.975-0.556-2.091-1.071-3.295-1.488c-1.216-0.471-2.469-0.935-3.773-1.396
		c-1.249-0.517-2.507-1.071-3.766-1.768c-1.209-0.651-2.321-1.486-3.306-2.465c-0.965-0.978-1.713-2.135-2.32-3.53
		c-0.6-1.401-0.886-3.071-0.886-5.028c0-1.763,0.286-3.394,0.886-4.834c0.607-1.487,1.44-2.745,2.563-3.869
		c1.108-1.115,2.509-1.945,4.135-2.644c1.627-0.699,3.489-1.117,5.533-1.396l0.699-7.167c0.05-0.18,0.094-0.367,0.139-0.462
		c0.096-0.139,0.229-0.227,0.468-0.37c0.226-0.084,0.503-0.18,0.924-0.233c0.372-0.04,0.89-0.092,1.494-0.092
		c0.745,0,1.35,0.051,1.808,0.092c0.47,0.088,0.889,0.185,1.116,0.328c0.282,0.136,0.418,0.325,0.506,0.506
		C202,29.953,202,30.188,202,30.421l-0.691,6.745c0.646,0.092,1.393,0.231,2.084,0.367c0.75,0.182,1.448,0.378,2.055,0.613
		c0.643,0.227,1.198,0.464,1.713,0.741c0.51,0.231,0.89,0.466,1.071,0.699c0.187,0.185,0.369,0.42,0.468,0.602
		c0.094,0.193,0.189,0.471,0.235,0.746c0.042,0.325,0.087,0.649,0.133,1.069c0.046,0.418,0.046,0.882,0.046,1.445
		c0,0.741,0,1.346-0.046,1.809c-0.05,0.464-0.091,0.838-0.178,1.073c-0.095,0.229-0.189,0.415-0.334,0.512
		c-0.135,0.092-0.229,0.138-0.41,0.138c-0.334,0-0.752-0.138-1.349-0.464c-0.613-0.326-1.312-0.653-2.193-0.978
		c-0.88-0.376-1.867-0.702-2.977-0.978c-1.118-0.325-2.369-0.466-3.722-0.466c-1.207,0-2.274,0.141-3.163,0.37
		c-0.88,0.237-1.579,0.561-2.135,0.979c-0.558,0.416-0.935,0.926-1.209,1.533c-0.231,0.609-0.364,1.255-0.364,1.952
		c0,1.119,0.271,2.049,0.875,2.795c0.614,0.735,1.392,1.434,2.37,1.949c0.983,0.558,2.096,1.031,3.356,1.488
		c1.251,0.46,2.511,0.93,3.81,1.444c1.293,0.51,2.555,1.075,3.813,1.72c1.259,0.649,2.325,1.49,3.345,2.424
		c0.98,0.968,1.774,2.133,2.328,3.484c0.603,1.394,0.886,3.021,0.886,4.924C211.815,71.213,211.443,73.065,210.744,74.696z"/>
	<g>
		<path fill="#305889" d="M181.239,204.046c-0.7-0.444-6.188-3.732-8.369-4.729l-2.705-6.525c0.807-2.156,2.339-8.211,2.58-9.259
			c0.222-0.975-0.072-1.994-0.777-2.698l-4.228-4.228c-0.705-0.705-1.722-0.999-2.696-0.777c-0.796,0.182-7.01,1.739-9.264,2.578
			l-6.523-2.7c-0.956-2.089-4.142-7.449-4.721-8.375c-0.533-0.844-1.465-1.355-2.462-1.355h-5.978c-0.998,0-1.927,0.512-2.457,1.355
			c-0.439,0.703-3.726,6.191-4.723,8.375l-6.527,2.7c-2.153-0.802-8.212-2.338-9.261-2.578c-0.972-0.222-1.992,0.072-2.696,0.777
			l-4.229,4.228c-0.704,0.705-1,1.724-0.776,2.698c0.185,0.794,1.739,7.006,2.578,9.259l-2.702,6.525
			c-2.085,0.957-7.447,4.146-8.375,4.729c-0.844,0.528-1.355,1.456-1.355,2.454v5.978c0,0.998,0.512,1.926,1.355,2.458
			c0.702,0.44,6.191,3.728,8.375,4.726l2.702,6.525c-0.802,2.156-2.339,8.211-2.578,9.259c-0.224,0.975,0.072,1.994,0.776,2.698
			l4.229,4.228c0.704,0.705,1.724,0.999,2.696,0.777c0.796-0.183,7.009-1.739,9.261-2.578l6.527,2.7
			c0.952,2.089,4.146,7.449,4.723,8.373c0.53,0.846,1.459,1.356,2.457,1.356h5.978c0.998,0,1.93-0.512,2.462-1.356
			c0.437-0.702,3.726-6.189,4.721-8.373l6.523-2.7c2.161,0.803,8.214,2.338,9.264,2.578c0.975,0.224,1.992-0.072,2.696-0.777
			l4.228-4.228c0.705-0.705,0.999-1.724,0.777-2.698c-0.182-0.794-1.738-7.006-2.58-9.259l2.705-6.525
			c2.085-0.957,7.444-4.146,8.369-4.726c0.847-0.532,1.358-1.46,1.358-2.458V206.5C182.597,205.503,182.086,204.574,181.239,204.046
			z M139.084,231.455c-12.133,0-21.966-9.835-21.966-21.966s9.833-21.966,21.966-21.966c12.132,0,21.966,9.835,21.966,21.966
			S151.216,231.455,139.084,231.455z"/>
	</g>
	<path fill="#305889" d="M94.441,232.92c0.088-0.387,0.701-2.892,1.426-5.528c-2.55-1.454-4.889-2.884-4.924-2.906
		c-4.17-2.627-6.642-7.11-6.642-12.008V206.5c0-4.912,2.483-9.401,6.646-12.008c0.337-0.211,2.546-1.552,4.922-2.904
		c-0.77-2.809-1.41-5.451-1.418-5.493c-1.108-4.826,0.308-9.756,3.783-13.229l4.229-4.228c2.675-2.677,6.233-4.152,10.02-4.152
		c1.06,0,2.121,0.121,3.153,0.357c0.407,0.094,2.919,0.709,5.547,1.431c1.453-2.551,2.883-4.888,2.905-4.923
		c2.616-4.164,7.101-6.642,12.006-6.642h2.991v-10.2v-1.846v-8.548V78.87c0-1.667-0.613-3.277-1.726-4.52L75.638,5.302
		c-1.286-1.44-3.124-2.26-5.056-2.26c-1.928,0-3.766,0.824-5.052,2.26L40.847,32.907V17.05H27.29v31.023L3.8,74.35
		c-1.111,1.244-1.728,2.852-1.728,4.52v156.336c0,3.744,3.038,6.778,6.778,6.778h52.195h34.328
		C94.09,239.192,93.727,236.029,94.441,232.92z M85.369,104.994h24.659v36.835H85.369V104.994z M55.79,204.244H31.134v-36.833
		h24.658L55.79,204.244L55.79,204.244z M55.79,141.83H31.134v-36.835h24.658L55.79,141.83L55.79,141.83z"/>
</g>
</svg>
