<?xml version="1.0" encoding="utf-8"?>
<!-- Generator: Adobe Illustrator 17.0.0, SVG Export Plug-In . SVG Version: 6.00 Build 0)  -->
<!DOCTYPE svg PUBLIC "-//W3C//DTD SVG 1.1//EN" "http://www.w3.org/Graphics/SVG/1.1/DTD/svg11.dtd">
<svg version="1.1" id="Layer_1" xmlns="http://www.w3.org/2000/svg" xmlns:xlink="http://www.w3.org/1999/xlink" x="0px" y="0px"
	 width="255px" height="255px" viewBox="0 0 255 255" enable-background="new 0 0 255 255" xml:space="preserve">
<g>
	<path fill="#14CF37" d="M146.804,90.616c-5.325-5.33-12.7-8.635-20.843-8.635c-8.135,0-15.509,3.305-20.836,8.635
		c-5.331,5.325-8.635,12.697-8.635,20.836c0,8.141,3.304,15.518,8.635,20.845c5.326,5.324,12.7,8.628,20.836,8.628
		c8.143,0,15.518-3.305,20.843-8.628c5.326-5.326,8.63-12.704,8.63-20.845C155.435,103.313,152.13,95.941,146.804,90.616z
		 M133.638,119.023c-0.4,0.866-0.94,1.633-1.632,2.247c-0.709,0.64-1.552,1.136-2.541,1.503c-0.98,0.374-2.099,0.619-3.301,0.713
		l-0.4,4.05c-0.021,0.1-0.048,0.196-0.073,0.275c-0.046,0.069-0.122,0.145-0.249,0.194c-0.116,0.046-0.265,0.096-0.49,0.123
		l0.023,0.021c-0.191,0.028-0.469,0.05-0.79,0.05c-0.391,0-0.714-0.021-0.959-0.05c-0.243-0.048-0.448-0.098-0.568-0.173
		c-0.145-0.071-0.22-0.166-0.268-0.263c-0.051-0.127-0.051-0.254-0.025-0.374l0.391-3.853c-0.539-0.071-1.058-0.169-1.527-0.293
		c-0.494-0.125-0.916-0.243-1.307-0.395c-0.397-0.147-0.743-0.293-1.014-0.441c-0.27-0.152-0.494-0.299-0.638-0.445
		c-0.15-0.145-0.247-0.344-0.323-0.64c-0.073-0.272-0.096-0.691-0.096-1.259c0-0.418,0.025-0.784,0.048-1.06
		c0.027-0.268,0.073-0.492,0.126-0.64c0.074-0.152,0.148-0.247,0.247-0.325c0.096-0.048,0.194-0.071,0.323-0.071
		c0.171,0,0.391,0.096,0.714,0.269c0.32,0.197,0.715,0.399,1.206,0.615c0.49,0.222,1.087,0.446,1.773,0.619
		c0.696,0.197,1.508,0.27,2.442,0.27c1.485,0,2.568-0.27,3.281-0.811c0.722-0.547,1.089-1.282,1.089-2.198
		c0-0.614-0.153-1.108-0.472-1.48c-0.323-0.395-0.716-0.739-1.234-1.033c-0.517-0.294-1.106-0.569-1.748-0.792
		c-0.646-0.247-1.312-0.494-2.001-0.736c-0.661-0.275-1.328-0.569-1.998-0.941c-0.642-0.344-1.231-0.784-1.753-1.303
		c-0.508-0.52-0.908-1.135-1.231-1.873c-0.318-0.744-0.469-1.628-0.469-2.665c0-0.938,0.152-1.802,0.469-2.565
		c0.323-0.788,0.767-1.457,1.359-2.049c0.589-0.592,1.332-1.031,2.196-1.402c0.861-0.37,1.848-0.594,2.931-0.741l0.37-3.801
		c0.025-0.098,0.051-0.194,0.077-0.245c0.05-0.074,0.12-0.124,0.247-0.194c0.118-0.048,0.265-0.096,0.487-0.125
		c0.205-0.023,0.475-0.051,0.788-0.051c0.4,0,0.721,0.028,0.966,0.051c0.249,0.046,0.469,0.096,0.592,0.173
		c0.148,0.073,0.218,0.173,0.269,0.268c0.048,0.123,0.048,0.25,0.048,0.37l-0.366,3.579c0.347,0.048,0.742,0.122,1.107,0.194
		c0.4,0.096,0.77,0.201,1.09,0.323c0.346,0.121,0.638,0.249,0.912,0.393c0.27,0.126,0.469,0.249,0.569,0.368
		c0.096,0.101,0.194,0.226,0.243,0.323c0.051,0.102,0.102,0.249,0.124,0.397c0.026,0.169,0.048,0.343,0.075,0.566
		c0.021,0.22,0.021,0.468,0.021,0.767c0,0.389,0,0.714-0.021,0.956c-0.028,0.249-0.05,0.448-0.096,0.569
		c-0.051,0.123-0.102,0.22-0.179,0.27c-0.069,0.05-0.12,0.076-0.215,0.076c-0.175,0-0.4-0.076-0.719-0.245
		c-0.321-0.176-0.692-0.349-1.155-0.522c-0.471-0.194-0.991-0.37-1.583-0.515c-0.595-0.173-1.256-0.247-1.975-0.247
		c-0.638,0-1.205,0.074-1.675,0.196c-0.469,0.125-0.84,0.299-1.132,0.518c-0.3,0.22-0.498,0.49-0.642,0.815
		c-0.119,0.321-0.194,0.667-0.194,1.037c0,0.591,0.144,1.085,0.464,1.478c0.325,0.395,0.739,0.764,1.259,1.035
		c0.522,0.298,1.112,0.547,1.776,0.792c0.667,0.245,1.33,0.49,2.024,0.764c0.686,0.27,1.353,0.568,2.023,0.914
		c0.663,0.343,1.23,0.784,1.773,1.286c0.518,0.513,0.938,1.127,1.234,1.844c0.319,0.739,0.469,1.604,0.469,2.61
		C134.202,117.177,134.002,118.159,133.638,119.023z"/>
	<path fill="#14CF37" d="M114.178,37.86c-3.278-3.28-7.818-5.314-12.831-5.314c-5.007,0-9.549,2.034-12.825,5.314
		c-3.282,3.278-5.315,7.818-5.315,12.827c0,5.012,2.034,9.553,5.315,12.831c3.276,3.278,7.818,5.312,12.825,5.312
		c5.012,0,9.552-2.034,12.831-5.312c3.278-3.276,5.312-7.818,5.312-12.831C119.49,45.679,117.458,41.14,114.178,37.86z
		 M106.075,55.349c-0.247,0.533-0.579,1.006-1.006,1.382c-0.437,0.395-0.956,0.698-1.562,0.924
		c-0.604,0.231-1.294,0.383-2.034,0.439l-0.247,2.494c-0.013,0.062-0.03,0.118-0.044,0.17c-0.028,0.04-0.074,0.09-0.153,0.118
		c-0.071,0.028-0.162,0.06-0.301,0.077l0.014,0.011c-0.116,0.019-0.289,0.032-0.487,0.032c-0.24,0-0.439-0.013-0.589-0.032
		c-0.151-0.028-0.277-0.06-0.351-0.106c-0.088-0.042-0.136-0.1-0.164-0.161c-0.031-0.077-0.031-0.157-0.016-0.231l0.242-2.373
		c-0.333-0.044-0.652-0.104-0.94-0.18c-0.306-0.076-0.565-0.15-0.806-0.242c-0.243-0.092-0.457-0.182-0.625-0.273
		c-0.166-0.094-0.304-0.184-0.391-0.274c-0.094-0.09-0.152-0.213-0.199-0.395c-0.044-0.165-0.06-0.425-0.06-0.776
		c0-0.255,0.016-0.481,0.029-0.65c0.017-0.166,0.044-0.303,0.077-0.395c0.044-0.094,0.09-0.153,0.152-0.199
		c0.058-0.03,0.118-0.042,0.197-0.042c0.106,0,0.242,0.06,0.441,0.166c0.196,0.119,0.439,0.245,0.741,0.378
		c0.303,0.138,0.67,0.276,1.091,0.381c0.43,0.123,0.93,0.166,1.505,0.166c0.914,0,1.581-0.166,2.018-0.498
		c0.445-0.337,0.673-0.79,0.673-1.355c0-0.378-0.096-0.681-0.293-0.91c-0.197-0.243-0.441-0.455-0.759-0.637
		s-0.681-0.351-1.076-0.487c-0.397-0.153-0.807-0.304-1.231-0.454c-0.408-0.17-0.818-0.349-1.231-0.579
		c-0.395-0.213-0.759-0.483-1.079-0.803c-0.312-0.321-0.558-0.7-0.759-1.154c-0.194-0.458-0.287-1.002-0.287-1.642
		c0-0.577,0.094-1.108,0.287-1.578c0.199-0.485,0.473-0.896,0.838-1.261c0.362-0.365,0.82-0.637,1.351-0.864
		c0.531-0.228,1.137-0.365,1.804-0.455l0.23-2.34c0.014-0.06,0.031-0.119,0.048-0.15c0.03-0.046,0.073-0.076,0.152-0.119
		c0.073-0.03,0.163-0.06,0.299-0.077c0.126-0.015,0.291-0.032,0.485-0.032c0.247,0,0.445,0.017,0.596,0.032
		c0.152,0.028,0.287,0.06,0.364,0.106c0.092,0.046,0.134,0.106,0.166,0.165c0.028,0.076,0.028,0.155,0.028,0.228l-0.226,2.204
		c0.215,0.028,0.459,0.074,0.682,0.118c0.245,0.058,0.475,0.124,0.671,0.197c0.211,0.076,0.391,0.153,0.561,0.243
		c0.165,0.076,0.289,0.152,0.349,0.228c0.06,0.062,0.12,0.137,0.152,0.197c0.029,0.063,0.062,0.153,0.074,0.245
		c0.017,0.104,0.03,0.21,0.048,0.347c0.012,0.136,0.012,0.289,0.012,0.473c0,0.24,0,0.441-0.012,0.59
		c-0.017,0.152-0.03,0.275-0.06,0.349c-0.032,0.076-0.062,0.136-0.111,0.168c-0.042,0.03-0.074,0.048-0.132,0.048
		c-0.107,0-0.245-0.048-0.443-0.152c-0.197-0.109-0.427-0.215-0.711-0.323c-0.291-0.118-0.613-0.228-0.975-0.316
		c-0.366-0.107-0.772-0.152-1.215-0.152c-0.393,0-0.743,0.044-1.032,0.12c-0.287,0.077-0.515,0.184-0.696,0.319
		c-0.184,0.136-0.305,0.302-0.395,0.502c-0.074,0.196-0.118,0.409-0.118,0.637c0,0.364,0.088,0.669,0.286,0.91
		c0.197,0.243,0.453,0.469,0.774,0.638c0.321,0.182,0.684,0.335,1.091,0.485c0.412,0.152,0.818,0.303,1.248,0.471
		c0.42,0.165,0.832,0.349,1.245,0.562c0.407,0.211,0.755,0.483,1.09,0.792c0.32,0.316,0.579,0.694,0.759,1.135
		c0.197,0.456,0.289,0.986,0.289,1.607C106.421,54.214,106.297,54.816,106.075,55.349z"/>
	<path fill="#14CF37" d="M186.407,56.001c-3.279-3.28-7.819-5.314-12.831-5.314c-5.007,0-9.549,2.034-12.825,5.314
		c-3.283,3.278-5.316,7.818-5.316,12.827c0,5.012,2.034,9.553,5.316,12.831c3.276,3.278,7.818,5.313,12.825,5.313
		c5.011,0,9.551-2.034,12.831-5.313c3.278-3.276,5.312-7.818,5.312-12.831C191.719,63.819,189.686,59.28,186.407,56.001z
		 M178.303,73.489c-0.247,0.533-0.579,1.006-1.006,1.382c-0.437,0.395-0.955,0.699-1.562,0.924
		c-0.604,0.231-1.294,0.383-2.034,0.439l-0.247,2.494c-0.013,0.062-0.03,0.118-0.044,0.169c-0.028,0.04-0.074,0.09-0.153,0.118
		c-0.071,0.028-0.163,0.06-0.302,0.077l0.015,0.01c-0.117,0.019-0.288,0.032-0.486,0.032c-0.241,0-0.44-0.013-0.59-0.032
		c-0.15-0.028-0.277-0.06-0.351-0.106c-0.089-0.042-0.136-0.1-0.164-0.161c-0.031-0.076-0.031-0.155-0.015-0.23l0.242-2.373
		c-0.332-0.044-0.652-0.104-0.94-0.18c-0.305-0.076-0.564-0.15-0.806-0.242c-0.243-0.092-0.456-0.182-0.625-0.273
		c-0.166-0.094-0.303-0.184-0.392-0.274c-0.094-0.09-0.152-0.213-0.199-0.395c-0.044-0.165-0.06-0.424-0.06-0.776
		c0-0.255,0.017-0.481,0.03-0.65c0.016-0.165,0.044-0.303,0.077-0.395c0.044-0.094,0.091-0.153,0.152-0.199
		c0.058-0.03,0.118-0.042,0.198-0.042c0.106,0,0.242,0.06,0.44,0.165c0.196,0.12,0.44,0.245,0.741,0.378
		c0.303,0.137,0.67,0.275,1.091,0.381c0.431,0.123,0.93,0.166,1.505,0.166c0.914,0,1.581-0.166,2.017-0.498
		c0.445-0.337,0.673-0.79,0.673-1.355c0-0.378-0.096-0.681-0.292-0.91c-0.197-0.243-0.44-0.456-0.758-0.637
		s-0.681-0.351-1.076-0.487c-0.397-0.153-0.807-0.304-1.231-0.454c-0.407-0.169-0.818-0.349-1.232-0.579
		c-0.395-0.213-0.758-0.483-1.079-0.803c-0.312-0.321-0.558-0.7-0.758-1.154c-0.195-0.458-0.287-1.001-0.287-1.642
		c0-0.577,0.094-1.108,0.287-1.578c0.199-0.485,0.473-0.896,0.838-1.261c0.362-0.365,0.82-0.637,1.351-0.864
		c0.531-0.228,1.137-0.365,1.804-0.455l0.23-2.34c0.014-0.06,0.031-0.12,0.048-0.151c0.029-0.046,0.072-0.076,0.152-0.119
		c0.073-0.03,0.163-0.06,0.299-0.077c0.126-0.015,0.291-0.032,0.485-0.032c0.247,0,0.444,0.017,0.595,0.032
		c0.152,0.028,0.287,0.06,0.364,0.106c0.092,0.046,0.134,0.106,0.165,0.166c0.028,0.076,0.028,0.155,0.028,0.228l-0.226,2.204
		c0.215,0.028,0.458,0.074,0.682,0.118c0.245,0.058,0.475,0.123,0.671,0.197c0.211,0.076,0.392,0.153,0.56,0.243
		c0.166,0.076,0.289,0.152,0.35,0.228c0.06,0.062,0.119,0.138,0.152,0.197c0.029,0.063,0.062,0.153,0.073,0.245
		c0.018,0.104,0.03,0.21,0.048,0.347c0.013,0.136,0.013,0.289,0.013,0.473c0,0.24,0,0.441-0.013,0.589
		c-0.017,0.152-0.029,0.275-0.059,0.349c-0.032,0.076-0.062,0.135-0.111,0.167c-0.042,0.03-0.074,0.048-0.133,0.048
		c-0.107,0-0.245-0.048-0.442-0.152c-0.197-0.109-0.427-0.215-0.711-0.322c-0.29-0.118-0.612-0.228-0.975-0.316
		c-0.366-0.107-0.772-0.152-1.215-0.152c-0.393,0-0.742,0.044-1.031,0.119c-0.288,0.077-0.515,0.184-0.696,0.32
		c-0.184,0.135-0.306,0.301-0.396,0.502c-0.073,0.196-0.118,0.41-0.118,0.637c0,0.364,0.089,0.669,0.287,0.91
		c0.197,0.243,0.453,0.469,0.774,0.638c0.321,0.182,0.684,0.335,1.091,0.485c0.412,0.152,0.818,0.303,1.248,0.471
		c0.42,0.166,0.832,0.349,1.245,0.562c0.408,0.211,0.755,0.483,1.09,0.792c0.32,0.316,0.579,0.694,0.759,1.135
		c0.197,0.456,0.288,0.986,0.288,1.607C178.648,72.354,178.525,72.957,178.303,73.489z"/>
	<path fill="#305889" d="M26.282,65.109v46.514c-7.873,3.939-8.947,17.536-2.503,23.979l50.095,35.424
		c3.22,2.505,6.799-2.864,3.579-5.012l-49.74-35.067c-7.874-8.583,5.369-21.827,15.746-14.31
		c19.68,13.954,75.863,45.444,75.863,74.069v37.572H64.928c0-7.513,0-6.081,0-13.953c0-20.395-61.905-43.661-61.905-68.705V65.11
		C3.026,49.721,26.282,49.721,26.282,65.109z"/>
	<path fill="#305889" d="M227.74,65.109v46.514c8.231,3.939,8.946,17.536,2.505,23.979l-50.094,35.424
		c-3.221,2.505-6.797-2.864-3.221-5.012l49.38-35.067c7.868-8.583-5.007-21.827-15.746-14.31
		c-19.68,13.954-75.859,45.444-75.859,74.069v37.572h54.391c0-7.513,0-6.081,0-13.953c0-20.395,61.904-43.661,61.904-68.705V65.11
		C250.998,49.721,227.74,49.721,227.74,65.109z"/>
</g>
</svg>
