<?xml version="1.0" encoding="utf-8"?>
<!-- Generator: Adobe Illustrator 16.0.0, SVG Export Plug-In . SVG Version: 6.00 Build 0)  -->
<!DOCTYPE svg PUBLIC "-//W3C//DTD SVG 1.1//EN" "http://www.w3.org/Graphics/SVG/1.1/DTD/svg11.dtd">
<svg version="1.1" id="Layer_1" xmlns="http://www.w3.org/2000/svg" xmlns:xlink="http://www.w3.org/1999/xlink" x="0px" y="0px"
	 width="283.46px" height="283.46px" viewBox="0 0 283.46 283.46" enable-background="new 0 0 283.46 283.46" xml:space="preserve">
<g>
	<path fill="#305889" d="M265.542,161.487c-4.933-1.605-10.04-0.69-14.058,1.955H48.164V64.611c0-6.038,3.031-11.589,8.107-14.86
		c3.969-2.549,8.684-3.419,13.311-2.406c3.664,0.793,6.87,2.722,9.323,5.448l-2.72,1.749c-2.979,1.921-4.419,5.529-3.585,8.963
		l1.148,4.735c0.91,3.751,4.237,6.363,8.085,6.363c0.659,0,1.32-0.081,1.973-0.233c0.903-0.224,1.755-0.596,2.533-1.087
		l13.399-8.627c1.87-1.195,3.164-3.058,3.632-5.231c0.469-2.172,0.067-4.403-1.132-6.273c-0.502-0.782-1.128-1.468-1.863-2.04
		l-3.83-3.013c-2.722-2.132-6.742-2.314-9.646-0.446l-3.192,2.054c-3.321-3.998-7.769-6.832-12.926-7.953
		c-6.112-1.327-12.36-0.188-17.616,3.188c-6.717,4.329-10.73,11.677-10.73,19.663v98.829H32.019c-2.448-1.614-5.26-2.614-8.273-2.74
		c-2.006-0.085-3.95,0.18-5.832,0.803c-1.504,0.489-2.32,2.09-1.83,3.605c0.487,1.498,2.092,2.305,3.603,1.825
		c1.217-0.395,2.486-0.587,3.803-0.524c2.852,0.125,5.475,1.354,7.396,3.462c1.921,2.111,2.903,4.843,2.773,7.703
		c-1.172,25.582,18.69,47.34,44.281,48.523c0.704,0.022,1.412,0.049,2.121,0.049h8.776l-4.729,7.282
		c-1.72,2.65-0.962,6.188,1.688,7.91c0.959,0.624,2.034,0.915,3.103,0.915c1.875,0,3.704-0.915,4.803-2.601l8.598-13.26
		c0.052-0.085,0.052-0.166,0.103-0.247h78.656c0.045,0.081,0.045,0.162,0.099,0.247l8.601,13.26
		c1.094,1.686,2.928,2.601,4.803,2.601c1.076,0,2.144-0.291,3.103-0.915c2.65-1.722,3.408-5.26,1.687-7.91l-4.722-7.282h8.775
		c25.608,0,46.442-20.847,46.442-46.451c0-0.718-0.01-1.431-0.045-2.121c-0.067-1.305,0.116-2.578,0.516-3.812
		c1.815-5.596,7.86-8.672,13.457-6.829c1.497,0.479,3.116-0.336,3.609-1.825C267.86,163.585,267.039,161.98,265.542,161.487z
		 M84.636,55.91l5.363-3.448c0.421-0.273,0.908-0.417,1.413-0.417c0.583,0,1.152,0.2,1.61,0.561l3.832,3.014
		c0.229,0.175,0.424,0.388,0.583,0.632c0.379,0.59,0.504,1.287,0.354,1.969c-0.148,0.679-0.554,1.265-1.137,1.641l-13.396,8.621
		c-0.245,0.155-0.514,0.27-0.801,0.343c-1.417,0.343-2.818-0.542-3.15-1.915l-1.15-4.744c-0.262-1.076,0.191-2.202,1.121-2.803
		L84.636,55.91z"/>
	<circle fill="#087EF4" cx="96.196" cy="73.872" r="4.79"/>
	<circle fill="#087EF4" cx="96.99" cy="90.293" r="4.786"/>
	<path fill="#087EF4" d="M96.99,89.362c0.509,0,0.926,0.417,0.926,0.926c0,1.029-1.852,1.029-1.852,0
		C96.057,89.79,96.474,89.362,96.99,89.362z"/>
	<circle fill="#087EF4" cx="97.779" cy="106.712" r="4.786"/>
	<path fill="#087EF4" d="M97.779,105.78c0.509,0,0.926,0.419,0.926,0.926c0,1.029-1.852,1.029-1.852,0
		C96.853,106.208,97.263,105.78,97.779,105.78z"/>
	<circle fill="#087EF4" cx="98.568" cy="123.133" r="4.79"/>
	<path fill="#087EF4" d="M98.568,122.208c0.509,0,0.926,0.41,0.926,0.924c0,1.031-1.852,1.031-1.852,0
		C97.642,122.618,98.06,122.208,98.568,122.208z"/>
	<circle fill="#087EF4" cx="140.036" cy="96.45" r="4.79"/>
	<path fill="#087EF4" d="M139.109,96.456c0-0.509,0.417-0.926,0.926-0.926c0.509,0,0.927,0.417,0.927,0.926
		C140.962,97.474,139.109,97.474,139.109,96.456z"/>
	<path fill="#087EF4" d="M125.424,84.135c2.646,0,4.789,2.146,4.789,4.792c0,2.646-2.144,4.792-4.789,4.792
		c-2.648,0-4.793-2.146-4.793-4.792C120.63,86.281,122.776,84.135,125.424,84.135z"/>
	<path fill="#087EF4" d="M124.496,88.931c0-0.514,0.417-0.926,0.928-0.926c0.507,0,0.924,0.412,0.924,0.926
		C126.348,89.945,124.496,89.945,124.496,88.931z"/>
	<circle fill="#087EF4" cx="110.81" cy="81.402" r="4.792"/>
	<path fill="#087EF4" d="M109.882,81.402c0-0.516,0.417-0.926,0.933-0.926c0.509,0,0.926,0.411,0.926,0.926
		C111.741,82.431,109.882,82.42,109.882,81.402z"/>
	<circle fill="#087EF4" cx="111.604" cy="97.817" r="4.791"/>
	<path fill="#087EF4" d="M110.671,97.816c0-0.513,0.417-0.926,0.933-0.926c0.509,0,0.926,0.413,0.926,0.926
		C112.53,98.85,110.671,98.85,110.671,97.816z"/>
	<circle fill="#087EF4" cx="112.393" cy="114.238" r="4.791"/>
	<path fill="#087EF4" d="M113.319,114.237c0,1.022-1.858,1.022-1.858,0c0-0.516,0.417-0.933,0.933-0.933
		C112.902,113.305,113.319,113.729,113.319,114.237z"/>
	<circle fill="#087EF4" cx="126.211" cy="105.341" r="4.791"/>
	<path fill="#087EF4" d="M127.137,105.341c0,1.022-1.852,1.022-1.852,0c0-0.513,0.417-0.926,0.926-0.926
		C126.72,104.419,127.137,104.828,127.137,105.341z"/>
</g>
</svg>
