<?xml version="1.0" encoding="utf-8"?>
<!-- Generator: Adobe Illustrator 16.0.0, SVG Export Plug-In . SVG Version: 6.00 Build 0)  -->
<!DOCTYPE svg PUBLIC "-//W3C//DTD SVG 1.1//EN" "http://www.w3.org/Graphics/SVG/1.1/DTD/svg11.dtd">
<svg version="1.1" id="Layer_1" xmlns="http://www.w3.org/2000/svg" xmlns:xlink="http://www.w3.org/1999/xlink" x="0px" y="0px"
	 width="283.46px" height="283.46px" viewBox="0 0 283.46 283.46" enable-background="new 0 0 283.46 283.46" xml:space="preserve">
<g>
	<path fill="none" d="M240.49,121.677l-5.039-5.695h-13.986V98.295c0-1.569-1.282-2.849-2.851-2.849H160.03
		c-1.569,0-2.852,1.28-2.852,2.849v17.687v5.695h-32.553v-5.695V98.295c0-1.569-1.28-2.849-2.849-2.849H63.188
		c-1.564,0-2.847,1.28-2.847,2.849v17.687H47.98l-5.042,5.695l-15.522,17.491h228.598L240.49,121.677z M118.93,124.753H66.04
		v-23.609h52.891V124.753z M215.767,124.753h-52.891v-23.609h52.891V124.753z"/>
	<rect x="23.911" y="199.802" fill="none" width="235.574" height="5.703"/>
	<path fill="#305889" d="M274.551,130.451h-12.216c-1.568,0-2.851,1.282-2.851,2.849v1.254l-14.237-16.035l-5.698-6.412V72.262
		H43.851v39.82l-5.698,6.407l-14.242,16.033v-1.25c0-1.566-1.28-2.849-2.846-2.849H8.872c-1.562,0-2.844,1.282-2.844,2.849v75.08
		c0,1.563,1.282,2.847,2.844,2.847h12.221h241.273h12.221c1.564,0,2.847-1.283,2.847-2.847V133.3
		C277.403,131.706,276.151,130.451,274.551,130.451z M42.938,121.677l5.042-5.695h12.361V98.295c0-1.569,1.283-2.849,2.847-2.849
		h58.588c1.569,0,2.849,1.28,2.849,2.849v17.687v5.695h32.553v-5.695V98.295c0-1.569,1.282-2.849,2.852-2.849h58.584
		c1.568,0,2.851,1.28,2.851,2.849v17.687h13.986l5.039,5.695l15.524,17.491H27.417L42.938,121.677z M259.514,205.505H23.911v-5.703
		h235.574v5.703H259.514z"/>
	<rect x="66.04" y="101.144" fill="#087EF4" width="52.891" height="23.609"/>
	<rect x="162.876" y="101.144" fill="#087EF4" width="52.891" height="23.609"/>
</g>
</svg>
