<?xml version="1.0" encoding="utf-8"?>
<!-- Generator: Adobe Illustrator 17.0.0, SVG Export Plug-In . SVG Version: 6.00 Build 0)  -->
<!DOCTYPE svg PUBLIC "-//W3C//DTD SVG 1.1//EN" "http://www.w3.org/Graphics/SVG/1.1/DTD/svg11.dtd">
<svg version="1.1" id="Layer_1" xmlns="http://www.w3.org/2000/svg" xmlns:xlink="http://www.w3.org/1999/xlink" x="0px" y="0px"
	 width="255px" height="255px" viewBox="-19.5 0 255 255" enable-background="new -19.5 0 255 255" xml:space="preserve">
<g>
	<g>
		<path fill="#305889" d="M144.239,231.403h-6.808l-56.332,18.598c-1.747,0.936-8.839,4.096-16.251-0.201l-0.081-0.039
			l-77.211-42.926c-0.287-0.159-0.524-0.358-0.73-0.562l0,0c0-0.048-6.898-6.974-2.677-14.837l0,0c0-0.039,4.617-9.846,13.538-7.374
			c22.415,6.203,36.878,19.088,50.216,22.415c17.386,3.121,29.547,2.027,45.919-4.907c-4.944-0.481-12.887-0.036-20.995,0.327
			c-2.47,0.117-4.985,0.199-7.455,0.282c-24.644,0.649-25.779-7.417-20.55-13.293c5.061-5.676,9.441-5.799,15.881-5.799h24.689
			c3.93-1.78,24.151-10.78,35.056-12.726c0.039,0,0.079,0,0.121,0c4.864-0.85,10.905-1.134,16.374-1.134
			c2.633,0,5.148,0.042,7.294,0.125v62.128L144.239,231.403L144.239,231.403z"/>
		<path fill="#305889" d="M154.739,154.878h28.249c1.978,0,3.767,0.813,5.105,2.107l0,0l0,0l0,0l0,0
			c1.297,1.34,2.151,3.126,2.151,5.108v76.234c0,1.992-0.815,3.77-2.111,5.107l0,0l0,0l0,0l0,0c-1.335,1.295-3.12,2.15-5.107,2.15
			h-28.253c-1.855,0-3.601-0.731-4.894-1.905c-0.089-0.083-0.165-0.165-0.248-0.203c-1.298-1.296-2.153-3.12-2.153-5.149v-76.234
			c0-1.982,0.818-3.811,2.153-5.148l0,0c1.335-1.336,3.12-2.148,5.109-2.148L154.739,154.878L154.739,154.878z"/>
	</g>
	<g>
		<path fill="#305889" d="M116.323,88.117c-19.129,0-34.693,15.563-34.693,34.692c0,19.128,15.564,34.691,34.693,34.691
			s34.693-15.563,34.693-34.691C151.016,103.68,135.451,88.117,116.323,88.117z M127.99,133.791
			c-0.568,1.243-1.345,2.345-2.341,3.223c-1.017,0.924-2.228,1.63-3.644,2.155c-1.411,0.535-3.009,0.89-4.743,1.029l-0.569,5.81
			c-0.032,0.145-0.073,0.282-0.105,0.389c-0.066,0.109-0.175,0.212-0.355,0.285c-0.168,0.067-0.383,0.136-0.704,0.175l0.034,0.034
			c-0.28,0.036-0.674,0.067-1.131,0.067c-0.563,0-1.029-0.031-1.381-0.067c-0.35-0.073-0.641-0.142-0.818-0.249
			c-0.207-0.103-0.313-0.246-0.384-0.383c-0.073-0.18-0.073-0.36-0.034-0.536l0.564-5.526c-0.779-0.104-1.523-0.246-2.194-0.422
			c-0.707-0.177-1.313-0.348-1.876-0.567c-0.567-0.211-1.068-0.422-1.456-0.635c-0.388-0.218-0.709-0.428-0.919-0.636
			c-0.212-0.213-0.351-0.495-0.458-0.924c-0.106-0.389-0.143-0.99-0.143-1.806c0-0.602,0.036-1.129,0.07-1.524
			c0.036-0.386,0.106-0.704,0.179-0.919c0.108-0.215,0.214-0.355,0.351-0.461c0.138-0.066,0.282-0.103,0.465-0.103
			c0.245,0,0.566,0.139,1.026,0.388c0.458,0.281,1.029,0.567,1.732,0.884c0.708,0.319,1.56,0.64,2.542,0.886
			c1.003,0.282,2.17,0.387,3.513,0.387c2.126,0,3.677-0.387,4.712-1.166c1.027-0.782,1.561-1.839,1.561-3.153
			c0-0.882-0.225-1.591-0.677-2.125c-0.46-0.567-1.028-1.059-1.773-1.484c-0.742-0.423-1.592-0.815-2.508-1.133
			c-0.925-0.359-1.88-0.712-2.873-1.062c-0.951-0.394-1.909-0.815-2.866-1.347c-0.921-0.496-1.767-1.131-2.517-1.877
			c-0.734-0.745-1.304-1.626-1.767-2.686c-0.457-1.067-0.675-2.338-0.675-3.828c0-1.342,0.217-2.583,0.675-3.68
			c0.462-1.131,1.097-2.089,1.951-2.946c0.843-0.849,1.91-1.48,3.148-2.013c1.238-0.532,2.657-0.851,4.212-1.062l0.532-5.456
			c0.037-0.137,0.071-0.28,0.106-0.351c0.074-0.106,0.174-0.173,0.356-0.282c0.172-0.064,0.382-0.137,0.704-0.177
			c0.284-0.031,0.678-0.07,1.138-0.07c0.567,0,1.028,0.039,1.377,0.07c0.358,0.067,0.677,0.141,0.849,0.25
			c0.214,0.103,0.319,0.247,0.385,0.386c0.075,0.176,0.075,0.355,0.075,0.532l-0.525,5.134c0.491,0.07,1.06,0.176,1.587,0.28
			c0.57,0.138,1.101,0.288,1.564,0.466c0.49,0.173,0.912,0.353,1.305,0.564c0.388,0.176,0.677,0.355,0.815,0.532
			c0.142,0.141,0.28,0.32,0.356,0.458c0.072,0.147,0.144,0.359,0.179,0.567c0.032,0.247,0.065,0.494,0.1,0.814
			c0.035,0.319,0.035,0.672,0.035,1.101c0,0.564,0,1.025-0.035,1.377c-0.037,0.353-0.068,0.638-0.136,0.816
			c-0.072,0.175-0.144,0.316-0.253,0.39c-0.103,0.07-0.175,0.104-0.313,0.104c-0.253,0-0.572-0.104-1.027-0.353
			c-0.466-0.249-0.998-0.497-1.669-0.745c-0.67-0.286-1.421-0.535-2.266-0.744c-0.851-0.248-1.803-0.355-2.834-0.355
			c-0.919,0-1.731,0.107-2.408,0.282c-0.67,0.18-1.202,0.427-1.625,0.745c-0.425,0.317-0.713,0.705-0.92,1.168
			c-0.176,0.464-0.279,0.955-0.279,1.486c0,0.852,0.207,1.56,0.666,2.128c0.468,0.56,1.06,1.092,1.805,1.483
			c0.749,0.425,1.596,0.785,2.554,1.132c0.951,0.35,1.912,0.708,2.9,1.099c0.985,0.389,1.946,0.818,2.904,1.31
			c0.958,0.495,1.769,1.134,2.545,1.845c0.747,0.737,1.35,1.624,1.772,2.652c0.459,1.061,0.675,2.3,0.675,3.749
			C128.806,131.138,128.523,132.549,127.99,133.791z"/>
		<path fill="#305889" d="M75.284,4.136H50.242H31.058H-0.126v40.736v25.23V90.51v35.516v11.34H73.91
			c-1.264-3.616-2.064-7.444-2.339-11.415l-0.074,0.006H31.168v-6.105h40.409c0.185-2.676,0.608-5.283,1.251-7.806h-41.66v-6.103
			h43.693c1.156-2.759,2.603-5.366,4.272-7.806H31.168v-6.105H84.14c4.59-4.657,10.199-8.308,16.47-10.567V29.461L75.284,4.136z
			 M85.498,84.228h-54.33V78.12h54.33V84.228L85.498,84.228z M85.498,71.532h-54.33v-6.105h54.33V71.532L85.498,71.532z
			 M85.498,58.841h-54.33v-6.103h54.33V58.841L85.498,58.841z M76.236,28.507V9.682l18.825,18.825H76.236z"/>
	</g>
</g>
</svg>
