<?xml version="1.0" encoding="utf-8"?>
<!-- Generator: Adobe Illustrator 17.0.0, SVG Export Plug-In . SVG Version: 6.00 Build 0)  -->
<!DOCTYPE svg PUBLIC "-//W3C//DTD SVG 1.1//EN" "http://www.w3.org/Graphics/SVG/1.1/DTD/svg11.dtd">
<svg version="1.1" id="Layer_1" xmlns="http://www.w3.org/2000/svg" xmlns:xlink="http://www.w3.org/1999/xlink" x="0px" y="0px"
	 width="255px" height="255px" viewBox="0 0 255 255" enable-background="new 0 0 255 255" xml:space="preserve">
<g>
	<path fill="#305889" d="M198.385,61.938c-19.853,0-36.005,16.152-36.005,36.002s16.151,36.002,36.005,36.002
		c19.853,0,36.006-16.151,36.006-36.002S218.237,61.938,198.385,61.938z M210.493,109.338c-0.589,1.291-1.397,2.433-2.429,3.345
		c-1.055,0.959-2.312,1.691-3.783,2.238c-1.463,0.554-3.122,0.923-4.922,1.066l-0.59,6.031c-0.034,0.15-0.076,0.293-0.109,0.403
		c-0.069,0.112-0.183,0.219-0.369,0.295c-0.173,0.071-0.398,0.142-0.732,0.182l0.035,0.035c-0.289,0.038-0.699,0.07-1.174,0.07
		c-0.585,0-1.069-0.032-1.433-0.07c-0.364-0.075-0.666-0.148-0.85-0.258c-0.214-0.107-0.323-0.255-0.398-0.397
		c-0.075-0.188-0.075-0.373-0.034-0.557l0.586-5.734c-0.809-0.109-1.58-0.256-2.278-0.439c-0.734-0.182-1.362-0.362-1.945-0.589
		c-0.589-0.218-1.109-0.437-1.512-0.658c-0.403-0.226-0.737-0.443-0.954-0.66c-0.22-0.221-0.364-0.512-0.475-0.959
		c-0.111-0.403-0.147-1.026-0.147-1.874c0-0.625,0.036-1.173,0.072-1.584c0.039-0.4,0.111-0.73,0.186-0.953
		c0.114-0.225,0.222-0.368,0.364-0.479c0.144-0.069,0.293-0.107,0.482-0.107c0.254,0,0.587,0.146,1.065,0.403
		c0.475,0.291,1.068,0.587,1.798,0.917c0.735,0.33,1.619,0.663,2.638,0.919c1.04,0.293,2.252,0.402,3.645,0.402
		c2.208,0,3.815-0.402,4.89-1.21c1.065-0.81,1.62-1.908,1.62-3.271c0-0.916-0.234-1.651-0.703-2.205
		c-0.479-0.589-1.066-1.1-1.841-1.542c-0.769-0.439-1.651-0.846-2.602-1.175c-0.962-0.372-1.952-0.738-2.981-1.101
		c-0.988-0.409-1.982-0.848-2.975-1.398c-0.956-0.514-1.835-1.174-2.612-1.947c-0.764-0.774-1.354-1.688-1.835-2.789
		c-0.472-1.109-0.7-2.426-0.7-3.973c0-1.392,0.228-2.68,0.7-3.818c0.48-1.174,1.139-2.168,2.025-3.058
		c0.876-0.88,1.982-1.536,3.267-2.088c1.286-0.552,2.757-0.882,4.371-1.103l0.552-5.662c0.039-0.142,0.073-0.292,0.111-0.367
		c0.077-0.109,0.18-0.179,0.368-0.293c0.179-0.065,0.398-0.141,0.732-0.184c0.293-0.03,0.703-0.072,1.181-0.072
		c0.587,0,1.066,0.042,1.428,0.072c0.372,0.071,0.701,0.148,0.883,0.261c0.222,0.107,0.329,0.257,0.398,0.399
		c0.079,0.184,0.079,0.368,0.079,0.552l-0.545,5.33c0.509,0.073,1.1,0.18,1.645,0.288c0.593,0.144,1.144,0.3,1.624,0.485
		c0.508,0.179,0.945,0.367,1.352,0.586c0.402,0.181,0.703,0.368,0.848,0.551c0.147,0.148,0.291,0.333,0.37,0.475
		c0.073,0.152,0.149,0.373,0.184,0.589c0.033,0.257,0.068,0.512,0.105,0.846c0.034,0.33,0.034,0.696,0.034,1.141
		c0,0.586,0,1.063-0.034,1.429c-0.041,0.366-0.073,0.663-0.141,0.848c-0.075,0.181-0.149,0.326-0.265,0.403
		c-0.107,0.072-0.18,0.109-0.325,0.109c-0.263,0-0.594-0.109-1.065-0.367c-0.483-0.257-1.036-0.516-1.732-0.771
		c-0.695-0.298-1.475-0.556-2.35-0.774c-0.885-0.257-1.872-0.368-2.941-0.368c-0.955,0-1.796,0.112-2.5,0.293
		c-0.695,0.188-1.247,0.443-1.685,0.775c-0.441,0.328-0.74,0.732-0.956,1.21c-0.182,0.482-0.287,0.993-0.287,1.542
		c0,0.885,0.214,1.619,0.692,2.21c0.485,0.581,1.1,1.133,1.873,1.538c0.776,0.441,1.655,0.815,2.651,1.176
		c0.988,0.363,1.983,0.735,3.009,1.139c1.022,0.403,2.02,0.85,3.013,1.36c0.993,0.514,1.837,1.178,2.642,1.915
		c0.774,0.765,1.401,1.686,1.839,2.752c0.475,1.101,0.7,2.388,0.7,3.891C211.341,106.586,211.046,108.049,210.493,109.338z"/>
	<path fill="#305889" d="M134.355,75.306c0,0.872,0.056,1.751-0.015,2.617c-0.172,2.173,0.119,3.9,1.674,5.858
		c2.848,3.584,2.148,8.165,1.591,12.387c-0.921,6.953-4.262,12.832-8.773,18.118c-0.983,1.152-1.807,2.554-2.311,3.979
		c-3.505,9.967-9.331,18.003-19.128,22.488c-11.214,5.134-21.296,2.461-30.301-5.306c-5.345-4.618-8.769-10.549-11.069-17.196
		c-0.494-1.425-1.334-2.817-2.309-3.974c-6.583-7.826-10.356-16.536-8.645-26.981c0.218-1.324,0.668-2.953,1.602-3.748
		c1.73-1.477,1.691-3.197,1.81-5.126c0.389-6.342,0.063-12.885,1.564-18.964c3.345-13.551,12.836-21.178,26.28-23.952
		c10.681-2.202,21-0.912,30.862,3.822c5.304,2.542,8.727,6.539,9.934,12.365c0.164,0.824,0.363,1.827,0.917,2.364
		c4.486,4.323,5.371,10.022,6.138,15.757c0.243,1.812,0.188,3.661,0.271,5.491C134.414,75.306,134.383,75.306,134.355,75.306z"/>
	<path fill="#305889" d="M96.255,202.311c-3.106-6.043-5.878-11.343-8.521-16.707c-0.345-0.69-0.188-1.718-0.019-2.543
		c0.633-3.066,1.431-6.098,2.04-9.168c0.35-1.769,1.196-2.479,3.035-2.371c2.433,0.14,4.88,0.096,7.314,0.014
		c1.459-0.051,2.297,0.451,2.606,1.911c0.718,3.406,1.515,6.792,2.213,10.2c0.132,0.639,0.186,1.449-0.085,1.992
		C102.142,190.978,99.37,196.284,96.255,202.311z"/>
	<path fill="#305889" d="M96.381,154.152c2.178,0,4.356,0.034,6.534-0.012c1.639-0.035,2.222,0.753,1.926,2.281
		c-0.651,3.416-1.23,6.853-2.073,10.223c-0.177,0.703-1.314,1.604-2.059,1.651c-2.948,0.189-5.928,0.209-8.875-0.008
		c-0.777-0.06-1.922-1.089-2.123-1.875c-0.829-3.194-1.346-6.466-2.003-9.707c-0.36-1.772,0.208-2.638,2.137-2.564
		c2.176,0.085,4.353,0.02,6.534,0.02C96.381,154.163,96.381,154.155,96.381,154.152z"/>
	<g>
		<path fill="#FAA51A" d="M237.849,178.681c-0.857-4.749-2.692-9.169-5.595-13.107c-0.537-0.727-0.986-0.946-1.931-0.8
			c-2.36,0.372-4.753,0.636-7.142,0.72c-1.263,0.044-2.653-0.131-3.796-0.633c-6.796-2.985-13.629-5.911-20.258-9.236
			c-3.772-1.888-6.975-2.127-10.653,0.237c-4.013,2.585-8.38,4.623-12.574,6.941c-3.685,2.032-4.298,6.8-1.255,9.499
			c1.918,1.696,4.746,1.719,7.42,0.162c3.645-2.121,7.314-4.202,10.997-6.254c0.454-0.255,1.178-0.501,1.568-0.315
			c3.232,1.542,6.529,2.996,9.581,4.847c3.002,1.82,5.728,4.09,8.603,6.124l14.897,10.752c0.964,0.679,2.059,1.226,2.863,2.058
			c2.029,2.097,4.187,2.33,6.876,1.321c1.157-0.432,1.512-0.868,1.418-1.918C238.559,185.607,238.467,182.096,237.849,178.681z"/>
		<path fill="#FAA51A" d="M188.142,205.824c-1.287,0.071-2.54,0.717-3.651,1.055c0.088-0.984,0.554-2.362,0.208-3.486
			c-0.355-1.171-1.316-2.416-2.364-3.023c-0.837-0.487-2.321-0.352-3.288,0.053c-0.994,0.415-1.708,1.493-2.525,2.265
			c-0.464-1.799-1.546-3.216-3.61-3.451c-1.947-0.228-3.404,0.703-4.386,2.505c-0.17-0.272-0.273-0.434-0.368-0.601
			c-1.33-2.331-3.117-3.107-5.286-2.273c-2.168,0.839-3.05,2.665-2.486,5.203c0.35,1.568,0.688,3.148,1.091,4.705
			c0.545,2.108,2.339,3.419,4.418,3.083c0.963-0.158,1.349,0.156,1.858,0.881c1.379,1.992,3.821,2.317,5.761,0.89
			c0.315-0.231,0.631-0.464,1.155-0.848c-0.434,2.234,0.279,3.764,2.009,4.726c2.034,1.133,3.766,0.333,5.337-1.107
			c0.219,0.682,0.363,1.293,0.608,1.858c0.641,1.49,2.34,2.579,3.823,2.498c1.604-0.086,3.357-1.319,3.754-2.861
			c0.654-2.512,1.245-5.044,1.708-7.593C192.339,207.953,190.498,205.707,188.142,205.824z"/>
		<path fill="#FAA51A" d="M159.173,159.852c-1.644-0.743-3.159-0.015-3.702,1.718c-3.013,9.573-6.021,19.149-9.018,28.728
			c-0.492,1.57,0.4,3.069,2.021,3.439c0.961,0.218,1.932,0.403,2.896,0.592c1.349,0.261,2.699,0.512,4.182,0.798
			c-0.072-11.79,3.6-22.402,8.444-32.817C162.308,161.442,160.774,160.572,159.173,159.852z"/>
		<path fill="#FAA51A" d="M248.526,187.343c-0.464-3.34-0.793-6.601-1.18-9.956c-0.593-5.118-1.137-10.189-1.788-15.301
			c-0.243-1.872-1.568-2.662-3.378-2.214c-2.876,0.708-5.729,1.293-8.749,2.074c6.778,8.953,8.737,18.733,8.34,29.777
			c1.071,0,1.944,0,2.823,0C248.135,191.725,249.018,190.833,248.526,187.343z"/>
		<path fill="#FAA51A" d="M228.216,196.717l-21.806-15.654c-4.319-3.387-8.654-6.838-13.916-8.718
			c-0.723-0.254-1.769-0.231-2.44,0.111c-3.474,1.778-6.876,3.686-10.292,5.575c-3.603,1.992-8.004,1.128-10.739-2.147
			c-2.324-2.786-2.288-7.298,0.082-10.302c0.257-0.328,0.489-0.68,0.839-1.162c-0.629-0.037-1-0.019-1.358-0.085
			c-1.864-0.363-2.981,0.279-3.608,2.171c-1.535,4.594-3.235,9.127-4.833,13.703c-0.141,0.398-1.119,4.04-1.23,5.452l-0.469,4.561
			c0,1.47-0.035,2.699,0.028,3.926c0.01,0.274,0.323,0.601,0.583,0.751c0.122,0.067,0.509-0.17,0.676-0.359
			c0.559-0.629,1.165-1.439,1.768-1.937c2.115-1.768,4.859-1.575,6.818-0.705c1.532,1.061,1.417,1.061,3.402,0.392
			c2.06-0.695,4.008-0.431,5.826,0.68c0.713,0.434,1.278,0.611,2.107,0.198c3.806-1.878,8.191,0.993,9.193,4.046
			c0.152,0.439,0.785,0.934,1.263,1.018c4.715,0.84,7.184,5.166,6.111,8.9c-0.359,1.248-0.633,2.517-0.927,3.784
			c-0.177,0.751-0.127,1.312,0.702,1.817c1.587,0.963,3.058,2.127,4.567,3.218c2.198,1.595,4.621,0.753,5.286-1.848
			c0.287-1.114,0.124-1.931-0.995-2.637c-1.751-1.095-3.23-2.389-5.006-3.689c-0.929-0.678-0.34-1.995,0.949-1.449
			c0.205,0.082,0.425,0.267,0.635,0.417c2.728,1.971,5.452,3.947,8.194,5.903c1.489,1.067,3.122,0.71,4.325-0.9
			c1.144-1.54,0.946-2.957-0.566-4.068c-3.099-2.273-6.189-4.541-9.285-6.814c-0.637-0.473-1.71-0.948-1.013-1.884
			c0.727-0.977,1.49-0.006,2.115,0.443c3.879,2.77,7.757,5.539,11.593,8.358c0.952,0.7,1.752,1.461,3.064,0.839
			c1.495-0.712,2.431-1.846,2.521-3.474c0.025-0.589-0.371-1.43-0.847-1.788c-3.307-2.495-6.68-4.9-10.049-7.302
			c-0.696-0.497-1.382-1.039-0.693-1.833c0.205-0.241,1.313,0.007,1.788,0.342c4.234,2.987,8.433,6.021,12.594,9.107
			c0.84,0.62,1.524,0.657,2.431,0.268C230.616,202.637,230.994,198.771,228.216,196.717z"/>
	</g>
	<path fill="#305889" d="M148.16,209.945c-0.389-1.495-0.725-3.003-1.058-4.512l-6.28-1.198c-1.139-0.221-2.279-0.445-3.409-0.702
		c-3.294-0.746-6.132-2.818-7.776-5.686c-1.64-2.843-2.008-6.304-1.006-9.498c3.571-11.423,7.157-22.842,10.753-34.256
		c1.615-5.15,6.024-8.479,11.212-8.479c0.692,0,1.376,0.077,2.056,0.195c-7.979-3.532-16.025-6.918-24.04-10.375
		c-0.438-0.191-0.937-0.244-1.474-0.37c-0.269,1.095-0.508,2.023-0.72,2.95c-5.355,23.458-13.452,45.856-25.703,66.656
		c-0.752,1.275-1.478,2.576-2.336,3.787c-1.478,2.082-2.728,2.033-4.264-0.079c-0.362-0.492-0.68-1.016-0.991-1.542
		c-7.445-12.769-14.16-25.902-18.697-40.007c-3.363-10.455-6.283-21.05-9.536-32.044c-9.473,4.15-19.149,8.146-28.594,12.643
		c-4.363,2.078-8.763,4.589-12.312,7.818c-13.522,12.321-18.039,28.591-18.983,46.166c-0.055,1.139,1.319,2.921,2.473,3.455
		c3.308,1.535,6.79,2.757,10.299,3.785c17.12,5.008,34.753,6.838,52.464,7.787c26.586,1.426,53.127,1.024,79.535-2.656
		C149.071,212.625,148.524,211.339,148.16,209.945z"/>
</g>
</svg>
