<?xml version="1.0" encoding="utf-8"?>
<!-- Generator: Adobe Illustrator 17.0.0, SVG Export Plug-In . SVG Version: 6.00 Build 0)  -->
<!DOCTYPE svg PUBLIC "-//W3C//DTD SVG 1.1//EN" "http://www.w3.org/Graphics/SVG/1.1/DTD/svg11.dtd">
<svg version="1.1" id="Layer_1" xmlns="http://www.w3.org/2000/svg" xmlns:xlink="http://www.w3.org/1999/xlink" x="0px" y="0px"
	 width="255px" height="255px" viewBox="0 0 255 255" enable-background="new 0 0 255 255" xml:space="preserve">
<g>
	<path fill="#305889" d="M136.192,77.825c0,0.899,0.057,1.805-0.016,2.697c-0.178,2.239,0.123,4.019,1.726,6.038
		c2.935,3.694,2.214,8.416,1.639,12.768c-0.949,7.166-4.394,13.227-9.042,18.674c-1.013,1.187-1.862,2.634-2.382,4.101
		c-3.613,10.273-9.618,18.557-19.716,23.179c-11.558,5.292-21.949,2.537-31.23-5.469c-5.51-4.76-9.038-10.873-11.41-17.723
		c-0.509-1.468-1.375-2.904-2.38-4.096c-6.785-8.067-10.674-17.044-8.91-27.809c0.224-1.365,0.688-3.044,1.651-3.863
		c1.782-1.523,1.743-3.296,1.866-5.284c0.4-6.536,0.066-13.282,1.612-19.547c3.447-13.966,13.23-21.828,27.088-24.688
		c11.009-2.27,21.646-0.941,31.809,3.939c5.466,2.619,8.995,6.74,10.239,12.745c0.169,0.849,0.374,1.882,0.946,2.436
		c4.625,4.456,5.536,10.329,6.326,16.241c0.251,1.867,0.193,3.774,0.279,5.66C136.252,77.825,136.222,77.825,136.192,77.825z"/>
	<path fill="#305889" d="M96.921,208.731c-3.201-6.228-6.059-11.691-8.784-17.22c-0.355-0.711-0.193-1.771-0.019-2.621
		c0.652-3.159,1.475-6.284,2.101-9.449c0.36-1.824,1.232-2.556,3.129-2.445c2.507,0.145,5.03,0.1,7.539,0.014
		c1.505-0.051,2.367,0.466,2.687,1.971c0.74,3.509,1.562,7,2.281,10.512c0.136,0.659,0.191,1.492-0.088,2.053
		C102.99,197.05,100.133,202.52,96.921,208.731z"/>
	<path fill="#305889" d="M97.051,159.093c2.245,0,4.49,0.035,6.735-0.012c1.689-0.036,2.29,0.776,1.985,2.351
		c-0.671,3.519-1.268,7.062-2.137,10.538c-0.182,0.724-1.354,1.653-2.122,1.701c-3.038,0.195-6.11,0.216-9.148-0.009
		c-0.8-0.062-1.981-1.122-2.188-1.933c-0.854-3.292-1.388-6.664-2.065-10.004c-0.372-1.828,0.214-2.719,2.203-2.644
		c2.243,0.088,4.487,0.021,6.735,0.021C97.051,159.103,97.051,159.097,97.051,159.093z"/>
	<g>
		<path fill="#FAA51A" d="M242.865,184.376c-0.884-4.895-2.775-9.451-5.767-13.509c-0.552-0.749-1.016-0.975-1.989-0.825
			c-2.432,0.383-4.898,0.655-7.362,0.741c-1.3,0.046-2.734-0.135-3.913-0.652c-7.005-3.076-14.048-6.093-20.88-9.52
			c-3.888-1.947-7.19-2.194-10.98,0.243c-4.137,2.664-8.638,4.764-12.961,7.154c-3.799,2.095-4.43,7.009-1.293,9.791
			c1.978,1.748,4.892,1.772,7.648,0.167c3.756-2.186,7.54-4.331,11.336-6.447c0.468-0.261,1.213-0.516,1.617-0.324
			c3.332,1.589,6.73,3.087,9.876,4.995c3.094,1.876,5.905,4.216,8.867,6.313l15.354,11.082c0.994,0.699,2.122,1.262,2.95,2.12
			c2.092,2.159,4.316,2.401,7.087,1.361c1.193-0.445,1.559-0.895,1.462-1.977C243.596,191.515,243.502,187.896,242.865,184.376z"/>
		<path fill="#FAA51A" d="M191.631,212.353c-1.327,0.072-2.618,0.738-3.764,1.087c0.09-1.014,0.571-2.435,0.215-3.593
			c-0.367-1.208-1.357-2.489-2.437-3.115c-0.862-0.502-2.391-0.363-3.388,0.055c-1.025,0.428-1.76,1.54-2.602,2.335
			c-0.478-1.855-1.595-3.315-3.722-3.556c-2.006-0.235-3.508,0.725-4.521,2.581c-0.175-0.279-0.281-0.447-0.379-0.619
			c-1.37-2.402-3.213-3.203-5.447-2.342c-2.235,0.864-3.145,2.748-2.562,5.363c0.36,1.617,0.709,3.245,1.125,4.85
			c0.561,2.172,2.41,3.525,4.553,3.178c0.992-0.163,1.391,0.161,1.916,0.908c1.422,2.054,3.938,2.388,5.937,0.918
			c0.325-0.238,0.651-0.478,1.191-0.873c-0.447,2.303,0.289,3.88,2.071,4.872c2.097,1.168,3.882,0.343,5.501-1.14
			c0.226,0.702,0.375,1.332,0.626,1.916c0.661,1.535,2.412,2.657,3.941,2.575c1.653-0.088,3.46-1.36,3.868-2.95
			c0.673-2.588,1.282-5.199,1.76-7.825C195.957,214.547,194.059,212.232,191.631,212.353z"/>
		<path fill="#FAA51A" d="M161.772,164.968c-1.695-0.767-3.257-0.016-3.816,1.77c-3.107,9.867-6.205,19.738-9.295,29.611
			c-0.508,1.619,0.412,3.163,2.082,3.544c0.99,0.223,1.991,0.416,2.985,0.611c1.39,0.269,2.782,0.528,4.31,0.821
			c-0.074-12.151,3.709-23.09,8.704-33.825C165.004,166.608,163.421,165.71,161.772,164.968z"/>
		<path fill="#FAA51A" d="M253.871,193.305c-0.478-3.443-0.818-6.804-1.217-10.263c-0.611-5.276-1.172-10.502-1.843-15.772
			c-0.25-1.928-1.617-2.744-3.482-2.283c-2.964,0.731-5.905,1.332-9.017,2.138c6.986,9.228,9.006,19.309,8.597,30.691
			c1.102,0,2.003,0,2.909,0C253.467,197.82,254.377,196.9,253.871,193.305z"/>
		<path fill="#FAA51A" d="M232.936,202.966l-22.475-16.134c-4.452-3.493-8.92-7.049-14.343-8.987
			c-0.745-0.261-1.824-0.238-2.516,0.114c-3.581,1.832-7.087,3.8-10.608,5.746c-3.713,2.053-8.251,1.163-11.068-2.213
			c-2.396-2.871-2.358-7.522,0.085-10.619c0.265-0.337,0.504-0.7,0.865-1.198c-0.649-0.038-1.03-0.02-1.4-0.088
			c-1.921-0.374-3.073,0.288-3.719,2.237c-1.582,4.735-3.336,9.408-4.981,14.124c-0.146,0.411-1.155,4.164-1.269,5.618l-0.483,4.702
			c0,1.516-0.036,2.782,0.029,4.047c0.011,0.281,0.334,0.62,0.601,0.775c0.126,0.068,0.526-0.177,0.697-0.372
			c0.576-0.649,1.201-1.483,1.823-1.997c2.179-1.822,5.008-1.623,7.028-0.726c1.579,1.091,1.46,1.091,3.506,0.404
			c2.124-0.717,4.131-0.444,6.005,0.699c0.735,0.448,1.317,0.63,2.171,0.204c3.924-1.936,8.443,1.023,9.476,4.17
			c0.157,0.453,0.81,0.964,1.3,1.049c4.859,0.866,7.405,5.325,6.298,9.172c-0.371,1.287-0.652,2.595-0.956,3.9
			c-0.182,0.775-0.131,1.353,0.723,1.872c1.637,0.992,3.153,2.194,4.707,3.316c2.266,1.644,4.763,0.776,5.448-1.905
			c0.297-1.147,0.127-1.99-1.025-2.717c-1.804-1.129-3.328-2.463-5.161-3.804c-0.958-0.699-0.351-2.057,0.978-1.492
			c0.211,0.085,0.438,0.275,0.654,0.43c2.813,2.031,5.621,4.069,8.447,6.084c1.534,1.1,3.218,0.733,4.456-0.929
			c1.179-1.587,0.975-3.047-0.583-4.193c-3.194-2.343-6.38-4.68-9.57-7.024c-0.658-0.489-1.762-0.976-1.044-1.941
			c0.749-1.008,1.536-0.008,2.179,0.457c3.998,2.854,7.995,5.708,11.949,8.614c0.98,0.721,1.805,1.506,3.157,0.864
			c1.542-0.733,2.506-1.904,2.598-3.581c0.026-0.607-0.383-1.474-0.873-1.842c-3.407-2.572-6.885-5.05-10.356-7.525
			c-0.719-0.512-1.426-1.072-0.715-1.889c0.211-0.249,1.353,0.007,1.843,0.352c4.363,3.078,8.691,6.205,12.979,9.387
			c0.867,0.639,1.57,0.677,2.506,0.277C235.41,209.067,235.8,205.082,232.936,202.966z"/>
	</g>
	<path fill="#305889" d="M150.421,216.599c-0.4-1.541-0.747-3.095-1.09-4.65l-6.473-1.236c-1.173-0.228-2.348-0.459-3.513-0.723
		c-3.396-0.77-6.32-2.906-8.016-5.862c-1.689-2.93-2.069-6.498-1.037-9.789c3.68-11.774,7.377-23.544,11.083-35.308
		c1.665-5.308,6.208-8.74,11.556-8.74c0.713,0,1.418,0.079,2.118,0.2c-8.224-3.639-16.517-7.13-24.779-10.693
		c-0.452-0.197-0.967-0.25-1.52-0.381c-0.278,1.129-0.523,2.086-0.742,3.04c-5.52,24.178-13.865,47.265-26.493,68.703
		c-0.775,1.315-1.524,2.656-2.407,3.903c-1.524,2.147-2.812,2.097-4.396-0.082c-0.373-0.507-0.7-1.047-1.022-1.589
		c-7.674-13.161-14.594-26.698-19.271-41.236c-3.466-10.776-6.476-21.695-9.829-33.027c-9.763,4.278-19.737,8.396-29.472,13.031
		c-4.496,2.141-9.032,4.73-12.69,8.059C8.49,172.917,3.835,189.689,2.862,207.803c-0.057,1.173,1.36,3.01,2.549,3.56
		c3.409,1.582,6.999,2.842,10.615,3.9c17.645,5.164,35.821,7.049,54.075,8.025c27.402,1.47,54.759,1.056,81.978-2.736
		C151.359,219.362,150.795,218.036,150.421,216.599z"/>
	<path fill="#305889" d="M250.766,36.194h-60.561c-0.038,0-0.07,0.021-0.103,0.021c-0.163,0.01-0.313,0.041-0.466,0.093
		c-0.052,0.018-0.105,0.033-0.156,0.057c-0.179,0.081-0.354,0.188-0.496,0.334c-0.002,0-0.002,0-0.002,0l-19.033,19.037
		c0,0.003,0,0.003,0,0.003c-0.146,0.144-0.252,0.315-0.336,0.495c-0.026,0.05-0.038,0.107-0.06,0.164
		c-0.05,0.148-0.082,0.298-0.09,0.455c-0.002,0.035-0.022,0.066-0.022,0.104v77.866c0,0.956,0.776,1.731,1.731,1.731h49.712h6.839
		h1.337h10.474h12.963v-33.656v-4.411V37.926C252.498,36.971,251.72,36.194,250.766,36.194z M210.969,46.576h27.684v3.461h-27.684
		V46.576L210.969,46.576z M210.969,53.497h27.684v3.459h-27.684V53.497L210.969,53.497z M188.474,42.101v13.128H175.35
		L188.474,42.101z M190.206,108.868c3.816,0,6.921,3.103,6.921,6.922c0,3.214-2.215,5.903-5.19,6.674v3.708h-3.462v-3.708
		c-2.979-0.772-5.19-3.459-5.19-6.674h3.46c0,1.91,1.553,3.463,3.461,3.463c1.907,0,3.46-1.553,3.46-3.463
		c0-1.908-1.553-3.461-3.46-3.461c-3.815,0-6.921-3.103-6.921-6.922c0-3.214,2.212-5.901,5.19-6.676v-3.703h3.462v3.703
		c2.975,0.775,5.19,3.461,5.19,6.676h-3.461c0-1.908-1.553-3.458-3.46-3.458c-1.908,0-3.461,1.549-3.461,3.458
		C186.744,107.315,188.297,108.868,190.206,108.868z M219.623,124.44h-17.307v-3.459h17.307V124.44z M219.623,115.79h-17.307v-3.461
		h17.307V115.79z M240.387,100.217h-11.145h-4.431h-22.496v-3.459h22.496h4.431h11.145V100.217z M240.387,88.107h-22.496h-10.383
		h-25.955v-3.463h25.955h10.383h22.496V88.107z M240.387,79.453h-5.192h-53.641v-3.46h53.641h5.192V79.453z M240.387,70.801h-12.619
		h-1.225h-36.337v-3.459h36.337h1.225h12.619V70.801L240.387,70.801z"/>
</g>
</svg>
