<?xml version="1.0" encoding="utf-8"?>
<!-- Generator: Adobe Illustrator 16.0.0, SVG Export Plug-In . SVG Version: 6.00 Build 0)  -->
<!DOCTYPE svg PUBLIC "-//W3C//DTD SVG 1.1//EN" "http://www.w3.org/Graphics/SVG/1.1/DTD/svg11.dtd">
<svg version="1.1" id="Layer_1" xmlns="http://www.w3.org/2000/svg" xmlns:xlink="http://www.w3.org/1999/xlink" x="0px" y="0px"
	 width="283.46px" height="283.46px" viewBox="0 0 283.46 283.46" enable-background="new 0 0 283.46 283.46" xml:space="preserve">
<g>
	<linearGradient id="SVGID_1_" gradientUnits="userSpaceOnUse" x1="35.4614" y1="184.7036" x2="355.5525" y2="197.3699">
		<stop  offset="0" style="stop-color:#1F4D85"/>
		<stop  offset="1" style="stop-color:#386FB0"/>
	</linearGradient>
	<path fill="url(#SVGID_1_)" d="M200.551,138.634c-7.019,0.183-17.609,4.03-32.288,8.127c-19.565,5.462-49.602,30.817-50.991,33
		c-1.397,2.178,6.688,14.313,9.489,16.22c2.796,1.907,47.908-9.686,46.33-7.031c-1.578,2.655-42.126,13.027-43.374,15.534
		c-1.255,2.511-12.051-3.324-12.158-4.459c-0.107-1.13-7.925-15.341-7.925-15.341s-81.683-16.249-87.004-15.871
		c-5.33,0.378-17.252,10.722-16.134,14.153c1.118,3.428,126.908,57.537,132.807,58.479c5.905,0.929,77.739-37.302,87.454-41.967
		c9.715-4.66,31.816,3.662,31.816,3.662l18.464-41.843c0,0-64.384-17.963-70.639-21.492
		C204.833,138.926,202.89,138.577,200.551,138.634L200.551,138.634z"/>
	<path fill="#FF7D03" d="M138.911,47.627c-19.804,0-35.853,16.048-35.853,35.849c0,19.8,16.049,35.85,35.853,35.85
		c19.798,0,35.85-16.05,35.85-35.85C174.76,63.675,158.708,47.627,138.911,47.627z M155.187,93.167c1.126,1.124,1.126,2.953,0,4.081
		c-1.127,1.128-2.951,1.128-4.081,0l-12.222-12.222l-12.31,12.304c-1.132,1.132-2.976,1.132-4.112,0
		c-1.138-1.132-1.138-2.976,0-4.109l12.31-12.308l-12.226-12.224c-1.126-1.124-1.126-2.953,0-4.079c1.122-1.128,2.951-1.128,4.079,0
		l12.226,12.222l12.398-12.394c1.13-1.134,2.972-1.134,4.109,0c1.135,1.134,1.135,2.975,0,4.109L142.96,80.945L155.187,93.167z"/>
	<g>
		<path fill="#305889" d="M92.274,83.476c0-11.087,3.875-21.262,10.335-29.264c-10.068-7.66-22.625-12.213-36.248-12.213
			c-33.104,0-59.939,26.837-59.939,59.939s26.835,59.938,59.939,59.938c24.326,0,45.256-14.507,54.65-35.333
			C104.138,119.525,92.274,102.89,92.274,83.476z M70.65,129.195v8.938h-9.341v-8.326c-6.38-0.259-12.575-1.841-16.191-3.765
			l2.852-10.259c3.999,2.014,9.625,3.853,15.815,3.853c5.435,0,9.146-1.925,9.146-5.435c0-3.337-3.041-5.441-10.093-7.625
			c-10.196-3.156-17.153-7.543-17.153-16.047c0-7.713,5.901-13.773,16.101-15.604v-8.336h9.337v7.715
			c6.382,0.267,10.668,1.492,13.816,2.897l-2.761,9.9c-2.47-0.958-6.865-2.979-13.722-2.979c-6.197,0-8.194,2.456-8.194,4.919
			c0,2.887,3.341,4.726,11.433,7.535c11.334,3.676,15.91,8.507,15.91,16.395C87.604,120.774,81.598,127.442,70.65,129.195z"/>
	</g>
</g>
</svg>
