<?xml version="1.0" encoding="utf-8"?>
<!-- Generator: Adobe Illustrator 17.0.0, SVG Export Plug-In . SVG Version: 6.00 Build 0)  -->
<!DOCTYPE svg PUBLIC "-//W3C//DTD SVG 1.1//EN" "http://www.w3.org/Graphics/SVG/1.1/DTD/svg11.dtd">
<svg version="1.1" id="Layer_1" xmlns="http://www.w3.org/2000/svg" xmlns:xlink="http://www.w3.org/1999/xlink" x="0px" y="0px"
	 width="255px" height="255px" viewBox="-20 0 255 255" enable-background="new -20 0 255 255" xml:space="preserve">
<g>
	<path fill="#305889" d="M91.858,228.559c-0.753-0.993-1.174-2.237-1.179-3.482V122.074c-0.048-3.013,2.208-5.547,5.249-5.848
		l0.389-0.014l0.272,0.005h60.887v-5.97V5.194H-16.261v105.052v83.742v41.346h60.938h51.86h0.402L91.858,228.559z M107.817,27.753
		h27.1v27.104h-27.1L107.817,27.753L107.817,27.753z M107.817,61.595h27.1v27.102h-27.1L107.817,61.595L107.817,61.595z
		 M73.976,27.753h27.102v27.104H73.976V27.753z M33.397,156.376h-27.1v-27.103h27.1V156.376z M33.397,122.536h-27.1V95.439h27.1
		V122.536z M33.397,88.696h-27.1V61.595h27.1V88.696z M33.397,54.858h-27.1V27.753h27.1V54.858z M67.239,156.376H40.135v-27.103
		h27.104V156.376z M67.239,122.536H40.135V95.439h27.104C67.239,95.439,67.239,122.536,67.239,122.536z M67.239,88.696H40.135
		V61.595h27.104V88.696z M67.239,54.858H40.135V27.753h27.104V54.858z M73.976,61.595h27.102v27.102H73.976V61.595z"/>
	<path fill="#FAA51A" d="M187.66,126.798l-83.979,0.002l-0.232-0.005l-0.334,0.012c-2.599,0.26-4.529,2.427-4.49,5.005v88.106
		c0.005,1.066,0.364,2.128,1.008,2.975l20.292,27.048c0.927,1.282,2.427,2.049,4.022,2.059h63.72h0.005
		c2.716-0.019,4.941-2.241,4.962-4.973V131.835C192.662,129.088,190.454,126.83,187.66,126.798z M123.651,245.875l-19.239-25.672
		h19.239V245.875z M143.011,170.491c-7.589-2.349-12.768-5.61-12.768-11.941c0-5.746,4.392-10.251,11.982-11.612v-6.204h6.946v5.747
		c4.751,0.192,7.946,1.104,10.286,2.152l-2.058,7.373c-1.839-0.72-5.104-2.222-10.212-2.222c-4.606,0-6.099,1.825-6.099,3.653
		c0,2.158,2.484,3.524,8.513,5.614c8.438,2.742,11.837,6.33,11.837,12.202c0.003,5.812-4.463,10.77-12.619,12.077v6.658h-6.947v-6.2
		c-4.751-0.192-9.36-1.375-12.053-2.807l2.122-7.631c2.981,1.497,7.166,2.868,11.775,2.868c4.039,0,6.805-1.436,6.805-4.047
		C150.521,173.696,148.253,172.125,143.011,170.491z M179.416,227.773h-43.444v-5.423h43.444V227.773z M179.416,210.724h-43.444
		v-5.418h43.444V210.724z"/>
</g>
</svg>
