<?xml version="1.0" encoding="utf-8"?>
<!-- Generator: Adobe Illustrator 17.0.0, SVG Export Plug-In . SVG Version: 6.00 Build 0)  -->
<!DOCTYPE svg PUBLIC "-//W3C//DTD SVG 1.1//EN" "http://www.w3.org/Graphics/SVG/1.1/DTD/svg11.dtd">
<svg version="1.1" id="Layer_1" xmlns="http://www.w3.org/2000/svg" xmlns:xlink="http://www.w3.org/1999/xlink" x="0px" y="0px"
	 width="255px" height="255px" viewBox="0 0 255 255" enable-background="new 0 0 255 255" xml:space="preserve">
<g>
	<path fill="#27CD2F" d="M57.976,59.106c-18.754,0-33.653,14.901-33.653,33.656c0,16.442,11.815,30.057,27.488,32.885
		c0.256-0.259,0.513-0.774,0.77-1.285c4.883-7.195,11.561-8.221,13.616-8.478c0.773,0,1.798,0,2.571,0
		c4.109,0,7.704,1.027,11.045,2.572c7.193-6.168,11.819-15.417,11.819-25.693C91.632,74.265,76.472,59.106,57.976,59.106z
		 M56.179,87.626c0.513,0.768,1.539,1.283,3.083,2.054c3.338,1.541,6.163,3.084,7.708,4.624c1.798,1.541,2.566,3.597,2.566,6.425
		c0,2.566-1.027,4.881-2.566,6.421c-1.285,1.283-3.083,2.055-5.396,2.569v3.851c0,0.516-0.513,1.029-1.03,1.029h-3.338
		c-0.513,0-1.027-0.513-1.027-1.029v-3.851c-2.825-0.259-5.14-1.285-6.936-3.083c-1.801-1.542-2.571-3.854-2.825-6.68
		c0-0.516,0.513-1.027,1.28-0.516h5.399c0.512,0,1.025,0.516,1.025,1.027c0.256,1.287,0.513,2.314,1.285,3.084
		c0.773,0.773,1.798,1.285,3.083,1.285c1.287,0,2.055-0.513,2.571-1.027c0.513-0.773,0.77-1.544,0.77-2.569
		c0-1.285-0.256-2.058-0.77-2.827c-0.516-0.771-1.542-1.539-3.084-2.056c-3.597-1.541-6.422-2.825-7.963-4.368
		c-1.798-1.541-2.571-3.597-2.571-6.422c0-2.569,0.773-4.881,2.571-6.422c1.539-1.542,3.595-2.569,6.166-2.825v-4.108
		c0-0.516,0.513-1.03,1.027-1.03h3.338c0.516,0,1.03,0.513,1.03,1.03v4.108c2.314,0.513,4.11,1.539,5.653,3.342
		c1.283,1.539,2.053,3.594,2.309,5.907c0,0.516-0.513,1.03-1.027,1.03h-5.395c-0.516,0-1.03-0.513-1.03-1.03
		c-0.256-1.283-0.513-2.055-1.027-2.828c-0.77-0.768-1.542-1.283-2.571-1.283c-1.025,0-1.797,0.257-2.31,1.03
		c-0.516,0.77-0.773,1.542-0.773,2.569C55.407,86.084,55.664,86.855,56.179,87.626z"/>
	<path fill="#305889" d="M152.261,142.086c-2.83-2.057-31.858-34.425-39.563-38.793V19.545c0-8.478-6.936-15.415-15.415-15.415
		H18.417C9.936,4.131,3,11.066,3,19.545v146.432c0,8.478,6.936,15.417,15.417,15.417h25.431h8.99l-1.283-12.332
		c0-0.261-0.254-0.771-0.254-1.032h-5.91H35.37c0.513-2.054,0.77-4.11,0.256-6.421c-1.027-6.421-6.163-11.558-12.589-12.589
		c-2.31-0.513-4.619-0.256-6.678,0.256V35.216c0.771,0.256,1.797,0.256,2.824,0.256c8.48,0,15.417-6.936,15.417-15.415
		c0-1.027,0-1.798-0.257-2.825h47.014C81.1,18.002,81.1,19.03,81.1,20.057c0,8.478,6.936,15.415,15.414,15.415
		c1.027,0,2.054,0,2.825-0.256v111.238l0,0v31.855c-5.396-3.854-11.304-16.187-11.304-16.187s-2.825-32.881-19.524-32.881
		c-0.513,0-0.773,0-1.283,0c0,0-12.591,1.027-2.058,36.992l4.627,40.077c0,0,5.137,21.58,19.523,36.736v4.368
		c0,2.314,2.056,4.367,4.368,4.367h46.756c2.31,0,4.11-1.539,4.367-3.854c1.798-16.439,8.734-79.897,12.587-83.235
		C157.397,164.694,162.023,149.538,152.261,142.086z"/>
</g>
</svg>
