<?xml version="1.0" encoding="utf-8"?>
<!-- Generator: Adobe Illustrator 16.0.0, SVG Export Plug-In . SVG Version: 6.00 Build 0)  -->
<!DOCTYPE svg PUBLIC "-//W3C//DTD SVG 1.1//EN" "http://www.w3.org/Graphics/SVG/1.1/DTD/svg11.dtd">
<svg version="1.1" id="Layer_1" xmlns="http://www.w3.org/2000/svg" xmlns:xlink="http://www.w3.org/1999/xlink" x="0px" y="0px"
	 width="283.46px" height="283.46px" viewBox="0 0 283.46 283.46" enable-background="new 0 0 283.46 283.46" xml:space="preserve">
<g>
	<g>
		<path fill="#305889" d="M77.374,106.505c0.928,6.027,5.583,13.693,13.234,16.392c3.137,1.093,6.574,1.114,9.713-0.021
			c7.524-2.719,12.324-10.371,13.275-16.372c1.011-0.087,2.335-1.498,3.774-6.579c1.959-6.929-0.129-7.965-1.897-7.798
			c0.337-0.946,0.587-1.917,0.758-2.84c2.993-17.975-5.862-18.589-5.862-18.589s-1.472-2.823-5.326-4.949
			c-2.593-1.539-6.202-2.72-10.94-2.317c-1.536,0.062-2.99,0.379-4.356,0.822c-1.753,0.588-3.351,1.454-4.81,2.462
			c-1.769,1.121-3.455,2.508-4.929,4.088c-2.341,2.402-4.426,5.503-5.331,9.36c-0.76,2.885-0.588,5.898,0.041,9.141
			c0.17,0.952,0.423,1.9,0.758,2.846c-1.769-0.167-3.854,0.863-1.892,7.798C75.039,105.007,76.369,106.417,77.374,106.505z"/>
		<path fill="#305889" d="M130.17,130.082c-1.354-0.345-2.681-0.743-3.959-1.178l0.023-0.021
			c-8.847-3.013-15.503-7.695-15.503-7.695l-0.016,0.044c-0.034-0.023-0.062-0.044-0.062-0.044l-6.841,21.6l-1.289,4.069
			l-0.018-0.063l-1.07,3.311l-3.557-10.078c8.476-11.827-0.923-12.211-2.248-12.201c-0.083-0.003-0.139,0-0.18,0
			c-0.046,0-0.106-0.003-0.181,0c-1.33-0.011-10.726,0.374-2.253,12.201l-3.552,10.078l-1.072-3.311l-0.016,0.063l-1.289-4.069
			l-6.847-21.6c0,0-0.023,0.021-0.062,0.044l-0.016-0.044c0,0-6.656,4.682-15.5,7.695l0.023,0.021
			c-1.278,0.436-2.601,0.833-3.959,1.178c-8.024,2.042-8.401,11.314-8.094,15.889c0,0,0.469,6.217,0.933,8.955
			c0,0,5.862,3.8,16.41,6.759c-0.01,0.011-0.018,0.021-0.018,0.021c4.545,1.284,9.969,2.382,16.155,2.97
			c0.042,0.005,0.083,0.005,0.124,0.011c1.116,0.107,2.258,0.19,3.421,0.263c0.436,0.021,0.869,0.046,1.307,0.072
			c0.469,0.016,0.943,0.03,1.423,0.046c0.917,0.031,1.851,0.052,2.802,0.052c0.069,0,0.139,0.005,0.211,0.005
			c0.018,0,0.029,0,0.049,0c0.013,0,0.031,0,0.051,0c0.067,0,0.134-0.005,0.207-0.005c0.949,0,1.879-0.021,2.802-0.052
			c0.477-0.016,0.951-0.03,1.426-0.046c0.441-0.026,0.869-0.052,1.304-0.072c1.165-0.072,2.305-0.155,3.423-0.263
			c0.039-0.006,0.083-0.006,0.121-0.011c6.184-0.588,11.613-1.686,16.158-2.959c0,0-0.013-0.021-0.018-0.031
			c10.546-2.959,16.409-6.759,16.409-6.759c0.464-2.738,0.923-8.955,0.923-8.955C138.575,141.396,138.199,132.123,130.17,130.082z"
			/>
	</g>
	<path fill="#2E5788" d="M256.958,211.837l-76.21-53.169c-2.382-1.723-3.119-4.383-1.97-7.084
		c16.375-38.852,4.249-85.984-33.599-110.747C110.607,17.561,63.712,22,33.603,50.85C-5.974,88.512-2.791,151.481,38.065,185.405
		c31.088,26.154,75.235,27.242,107.423,5.914c2.412-1.624,5.315-1.47,7.249,0.371l66.749,65.337
		c24.813,20.751,40.229,17.895,51.36,4.805C282.292,248.174,281.085,231.821,256.958,211.837z M164.24,114.646
		c-0.443,0.129-0.32,0.562-0.201,1.008c0.335,30.414-19.556,58.316-50.075,66.792c-36.275,10.068-74.153-11.348-84.34-48.062
		C19.43,97.663,40.841,59.792,77.122,49.721c36.28-10.071,74.146,11.34,84.339,48.063c0.861,3.101,1.728,6.194,2.011,8.968
		c0.124,0.443,0.247,0.892,0.371,1.328C164.012,110.416,164.064,112.315,164.24,114.646z"/>
	<path fill="#087EF4" d="M198.308,11.33c-28.687,0-52.025,23.337-52.025,52.025c0,28.684,23.339,52.023,52.025,52.023
		c28.686,0,52.02-23.339,52.02-52.023C250.328,34.667,226.994,11.33,198.308,11.33z M215.8,79.822
		c-0.851,1.866-2.011,3.516-3.506,4.836c-1.525,1.382-3.341,2.444-5.465,3.232c-2.113,0.802-4.511,1.33-7.109,1.542l-0.855,8.71
		c-0.052,0.219-0.108,0.423-0.16,0.585c-0.098,0.163-0.258,0.317-0.525,0.428c-0.258,0.098-0.578,0.206-1.058,0.263l0.047,0.052
		c-0.418,0.051-1.011,0.103-1.696,0.103c-0.851,0-1.542-0.052-2.072-0.103c-0.526-0.108-0.965-0.214-1.228-0.376
		c-0.31-0.149-0.469-0.366-0.577-0.57c-0.108-0.271-0.108-0.544-0.047-0.807l0.841-8.285c-1.165-0.16-2.279-0.371-3.289-0.634
		c-1.058-0.263-1.965-0.521-2.815-0.853c-0.851-0.314-1.598-0.631-2.181-0.951c-0.583-0.325-1.067-0.639-1.377-0.949
		c-0.319-0.32-0.53-0.742-0.69-1.387c-0.16-0.583-0.212-1.485-0.212-2.707c0-0.905,0.052-1.694,0.104-2.29
		c0.057-0.577,0.16-1.054,0.269-1.379c0.165-0.322,0.319-0.528,0.53-0.693c0.207-0.098,0.423-0.149,0.696-0.149
		c0.361,0,0.846,0.206,1.531,0.58c0.69,0.422,1.547,0.853,2.604,1.327c1.063,0.475,2.336,0.957,3.815,1.328
		c1.5,0.425,3.248,0.58,5.264,0.58c3.191,0,5.517-0.58,7.063-1.745c1.541-1.173,2.346-2.761,2.346-4.73
		c0-1.322-0.341-2.387-1.021-3.186c-0.686-0.851-1.541-1.59-2.654-2.222c-1.114-0.637-2.393-1.227-3.764-1.701
		c-1.387-0.536-2.82-1.07-4.306-1.593c-1.428-0.593-2.871-1.227-4.299-2.016c-1.382-0.748-2.65-1.701-3.774-2.815
		c-1.108-1.116-1.959-2.444-2.655-4.037c-0.686-1.599-1.011-3.501-1.011-5.738c0-2.016,0.325-3.872,1.011-5.514
		c0.696-1.701,1.645-3.14,2.929-4.421c1.263-1.273,2.866-2.217,4.723-3.016c1.851-0.799,3.979-1.276,6.311-1.593l0.799-8.182
		c0.057-0.204,0.113-0.417,0.165-0.528c0.108-0.157,0.258-0.255,0.531-0.423c0.258-0.098,0.572-0.204,1.057-0.263
		c0.423-0.049,1.011-0.106,1.701-0.106c0.855,0,1.542,0.057,2.067,0.106c0.536,0.098,1.011,0.211,1.273,0.374
		c0.314,0.155,0.475,0.366,0.577,0.578c0.108,0.263,0.108,0.536,0.108,0.799l-0.789,7.697c0.743,0.108,1.599,0.266,2.388,0.425
		c0.855,0.204,1.645,0.431,2.346,0.694c0.732,0.265,1.366,0.531,1.954,0.851c0.582,0.263,1.011,0.531,1.227,0.794
		c0.212,0.211,0.418,0.479,0.531,0.686c0.108,0.224,0.222,0.542,0.263,0.854c0.057,0.371,0.104,0.742,0.155,1.222
		c0.051,0.479,0.051,1.01,0.051,1.652c0,0.846,0,1.536-0.051,2.062c-0.052,0.531-0.099,0.957-0.196,1.225
		c-0.113,0.26-0.222,0.472-0.387,0.583c-0.154,0.111-0.263,0.16-0.464,0.16c-0.387,0-0.861-0.16-1.547-0.529
		c-0.701-0.374-1.495-0.748-2.5-1.119c-1.006-0.428-2.135-0.804-3.397-1.116c-1.279-0.369-2.707-0.528-4.254-0.528
		c-1.376,0-2.599,0.16-3.608,0.423c-1.006,0.268-1.805,0.642-2.434,1.119c-0.645,0.474-1.072,1.054-1.382,1.75
		c-0.263,0.69-0.418,1.433-0.418,2.229c0,1.276,0.31,2.338,1,3.189c0.696,0.838,1.589,1.639,2.707,2.227
		c1.119,0.632,2.393,1.173,3.831,1.694c1.423,0.533,2.866,1.062,4.341,1.652c1.479,0.58,2.918,1.224,4.361,1.959
		c1.438,0.745,2.65,1.701,3.815,2.771c1.118,1.104,2.021,2.434,2.655,3.975c0.69,1.59,1.016,3.452,1.016,5.62
		C217.028,75.85,216.6,77.961,215.8,79.822z"/>
</g>
</svg>
