<?xml version="1.0" encoding="utf-8"?>
<!-- Generator: Adobe Illustrator 17.0.0, SVG Export Plug-In . SVG Version: 6.00 Build 0)  -->
<!DOCTYPE svg PUBLIC "-//W3C//DTD SVG 1.1//EN" "http://www.w3.org/Graphics/SVG/1.1/DTD/svg11.dtd">
<svg version="1.1" id="Layer_1" xmlns="http://www.w3.org/2000/svg" xmlns:xlink="http://www.w3.org/1999/xlink" x="0px" y="0px"
	 width="255px" height="255px" viewBox="14.23 14.23 255 255" enable-background="new 14.23 14.23 255 255" xml:space="preserve">
<g>
	<path fill="#305889" d="M192.52,158.794c-8.033-8.026-13.008-19.139-13.008-31.405c0-12.265,4.975-23.377,13.008-31.397
		c5.643-5.647,12.833-9.74,20.849-11.697v-7.682l-40.83-40.828h-40.374h-13.438h-2.013H88.486H51.664
		c0.981,0.674,1.908,1.427,2.757,2.276c3.752,3.771,5.809,8.726,5.809,13.98v7.293c1.384,0.582,2.688,1.319,3.895,2.19
		c4.354-0.164,8.596,1.22,11.957,3.604c0.242-0.006,0.485-0.01,0.727-0.01c10.849,0,19.674,8.826,19.674,19.675l0.191,17.894
		c0,9.437-3.612,18.17-10.179,24.734c-6.573,6.57-15.31,10.188-24.601,10.188h-10.33c-0.204,0-0.403-0.029-0.605-0.036v0.452v4.113
		v2.596v1.927v28.385v57.26v18.288h162.414v-80.108C205.354,168.522,198.163,164.434,192.52,158.794z M135.322,123.938v6.575h-6.87
		v-6.124c-4.693-0.193-9.248-1.356-11.91-2.772l2.099-7.545c2.942,1.48,7.079,2.834,11.631,2.834c3.999,0,6.729-1.416,6.729-3.999
		c0-2.453-2.237-4.001-7.425-5.609c-7.499-2.321-12.617-5.546-12.617-11.803c0-5.671,4.344-10.129,11.843-11.475v-6.132h6.868v5.676
		c4.696,0.195,7.848,1.097,10.163,2.13l-2.032,7.282c-1.815-0.704-5.048-2.191-10.093-2.191c-4.555,0-6.026,1.806-6.026,3.618
		c0,2.122,2.457,3.476,8.409,5.542c8.334,2.704,11.701,6.258,11.701,12.059C147.792,117.745,143.375,122.648,135.322,123.938z"/>
	<g>
		<rect x="74.935" y="222.667" fill="#FFFFFF" width="118.72" height="9.209"/>
		<rect x="74.935" y="200.241" fill="#FFFFFF" width="118.72" height="9.205"/>
		<rect x="74.935" y="177.809" fill="#FFFFFF" width="118.72" height="9.205"/>
		<rect x="74.935" y="155.386" fill="#FFFFFF" width="118.72" height="9.209"/>
	</g>
	<polygon fill="#FFFFFF" points="174.076,44.723 204.426,75.074 174.076,75.074 	"/>
	<path fill="#FFA500" d="M248.435,102.878c-6.265-6.273-14.942-10.158-24.517-10.158c-9.571,0-18.245,3.885-24.514,10.158
		c-6.269,6.261-10.155,14.936-10.155,24.511s3.885,18.251,10.155,24.519c6.269,6.261,14.943,10.148,24.514,10.148
		c9.574,0,18.252-3.887,24.517-10.148c6.263-6.268,10.155-14.944,10.155-24.519S254.698,109.137,248.435,102.878z M242.451,136.816
		h-22.843V106.27h4.993v25.546h17.85L242.451,136.816L242.451,136.816z"/>
	<path fill="#FFA500" d="M79.089,84.812c0-3.16-2.561-5.725-5.719-5.725c-2.05,0-3.844,1.116-4.868,2.738v-0.173
		c0-3.158-2.56-5.721-5.721-5.721c-2.047,0-3.846,1.108-4.87,2.645v-0.169c0-3.16-2.563-5.719-5.723-5.719
		c-2.052,0-3.84,1.111-4.862,2.645V56.121c0-1.541-0.603-2.993-1.706-4.101c-1.112-1.109-2.568-1.706-4.02-1.706l0,0
		c-3.156,0-5.719,2.561-5.719,5.721v35.523c0,0.338-0.173,0.597-0.511,0.766c-0.344,0.086-0.597,0.086-0.852-0.169l-5.809-5.807
		c-1.963-1.963-5.035-2.222-7.345-0.682c-1.362,0.939-2.305,2.386-2.474,4.011c-0.256,1.624,0.251,3.246,1.281,4.526l14.513,17.504
		c4.099,4.954,10.163,7.857,16.567,7.857h9.053c5.037,0,9.82-1.963,13.409-5.55c3.583-3.587,5.546-8.281,5.546-13.404L79.089,84.812
		z"/>
</g>
</svg>
