<?xml version="1.0" encoding="utf-8"?>
<!-- Generator: Adobe Illustrator 17.0.0, SVG Export Plug-In . SVG Version: 6.00 Build 0)  -->
<!DOCTYPE svg PUBLIC "-//W3C//DTD SVG 1.1//EN" "http://www.w3.org/Graphics/SVG/1.1/DTD/svg11.dtd">
<svg version="1.1" id="Layer_1" xmlns="http://www.w3.org/2000/svg" xmlns:xlink="http://www.w3.org/1999/xlink" x="0px" y="0px"
	 width="255px" height="255px" viewBox="14.23 14.23 255 255" enable-background="new 14.23 14.23 255 255" xml:space="preserve">
<g>
	<path fill="#305889" d="M144.096,67.894c-40.504,0-73.34,32.833-73.34,73.335c0,40.504,32.836,73.338,73.34,73.338
		c40.5,0,73.336-32.834,73.336-73.338C217.433,100.727,184.597,67.894,144.096,67.894z M166.575,168.354l-33.753-19.286V94.57
		h23.794v40.678l21.762,12.442L166.575,168.354z"/>
	<g>
		<path fill="#FFA500" d="M196.189,82.085c2.505,2.209,4.894,4.601,7.104,7.114l1.225,1.396l44.092-35.957l-1.757,17.234
			l15.653-12.769l2.756-27.138l-27.143-2.758L222.465,41.97l17.228,1.747l-45.206,36.865L196.189,82.085z"/>
		<path fill="#FFA500" d="M36.608,71.872l-1.755-17.234l46.925,38.271l1.22-1.491c2.055-2.515,4.353-4.985,6.824-7.34l1.587-1.506
			L43.766,43.717l17.228-1.747L45.342,29.207l-27.143,2.758l2.756,27.138L36.608,71.872z"/>
		<path fill="#FFA500" d="M91.464,199.911c-2.422-2.171-4.787-4.586-7.023-7.171l-1.225-1.418l-48.363,39.442l1.755-17.228
			l-15.653,12.761l-2.756,27.143l27.143,2.762l15.653-12.765l-17.231-1.745l49.382-40.275L91.464,199.911z"/>
		<path fill="#FFA500" d="M246.85,213.535l1.757,17.228l-45.578-37.171l-1.229,1.322c-2.309,2.482-4.773,4.814-7.32,6.933
			l-1.802,1.498l47.019,38.344l-17.234,1.745l15.653,12.765l27.143-2.762l-2.756-27.143L246.85,213.535z"/>
	</g>
</g>
</svg>
