<?xml version="1.0" encoding="utf-8"?>
<!-- Generator: Adobe Illustrator 17.0.0, SVG Export Plug-In . SVG Version: 6.00 Build 0)  -->
<!DOCTYPE svg PUBLIC "-//W3C//DTD SVG 1.1//EN" "http://www.w3.org/Graphics/SVG/1.1/DTD/svg11.dtd">
<svg version="1.1" id="Layer_1" xmlns="http://www.w3.org/2000/svg" xmlns:xlink="http://www.w3.org/1999/xlink" x="0px" y="0px"
	 width="255px" height="255px" viewBox="14.23 14.23 255 255" enable-background="new 14.23 14.23 255 255" xml:space="preserve">
<g>
	<path fill="#087EF4" d="M167.104,98.726c0.725,0,1.456-0.486,1.939-0.971l19.16-26.193c0.483-0.729,0.73-1.695,0.242-2.427
		c-0.483-0.725-1.21-1.207-2.181-1.207h-9.94v-6.552c0-12.853-9.947-23.526-22.072-24.008c-12.612-0.488-24.493,8.487-26.191,19.398
		c-0.244,1.214,0.486,2.185,1.456,2.671c0.969,0.481,2.181,0,2.906-0.973c2.185-3.149,8.489-5.821,13.58-5.575
		c6.55,0.481,11.642,6.306,11.642,13.092v1.454h-9.698c-0.969,0-1.698,0.491-2.186,1.217c-0.483,0.729-0.242,1.695,0.242,2.425
		l19.162,26.193C165.647,98.241,166.375,98.726,167.104,98.726z"/>
	<path fill="#087EF4" d="M56.39,98.726c0.725,0,1.458-0.486,1.944-0.971l19.156-26.193c0.485-0.729,0.729-1.695,0.244-2.427
		c-0.485-0.725-1.214-1.207-2.181-1.207h-9.944v-6.552c0-12.853-9.945-23.526-22.071-24.008
		c-12.61-0.485-24.492,8.488-26.188,19.402c-0.246,1.212,0.483,2.181,1.454,2.669c0.969,0.481,2.181,0,2.908-0.971
		c2.183-3.149,8.489-5.822,13.58-5.576c6.55,0.481,11.639,6.306,11.639,13.092v1.454h-9.696c-0.971,0-1.7,0.491-2.187,1.215
		c-0.481,0.731-0.242,1.698,0.244,2.427l19.16,26.193C54.936,98.241,55.663,98.726,56.39,98.726z"/>
	<g>
		<path fill="#087EF4" d="M252.858,166.266v-3.401c0-1.719-1.401-3.12-3.12-3.12h-2.583c-1.719,0-3.117,1.401-3.117,3.12v3.331
			h-20.102v-3.331c0-1.719-1.401-3.12-3.121-3.12h-2.578c-1.721,0-3.121,1.401-3.121,3.12v3.331h-20.102v-3.331
			c0-1.719-1.398-3.12-3.119-3.12h-2.581c-1.721,0-3.123,1.401-3.123,3.12v3.459c-4.332,0.705-7.586,4.428-7.586,8.942v64.116
			c0,5.002,4.071,9.069,9.07,9.069h64.118c5.002,0,9.069-4.067,9.069-9.069v-64.116
			C260.864,170.625,257.357,166.796,252.858,166.266z M246.409,162.864c0-0.412,0.334-0.749,0.751-0.749h2.579
			c0.418,0,0.752,0.337,0.752,0.749v9.033c0,0.414-0.334,0.751-0.752,0.751h-2.579c-0.416,0-0.751-0.338-0.751-0.751V162.864z
			 M217.488,162.864c0-0.412,0.335-0.749,0.749-0.749h2.578c0.418,0,0.752,0.337,0.752,0.749v9.033c0,0.414-0.334,0.751-0.752,0.751
			h-2.578c-0.414,0-0.749-0.338-0.749-0.751V162.864z M188.564,162.864c0-0.412,0.334-0.749,0.751-0.749h2.581
			c0.415,0,0.75,0.337,0.75,0.749v9.033c0,0.414-0.334,0.751-0.75,0.751h-2.581c-0.416,0-0.751-0.338-0.751-0.751V162.864z
			 M186.194,168.737v3.16c0,1.721,1.399,3.121,3.12,3.121h2.581c1.721,0,3.119-1.4,3.119-3.121v-3.332h20.102v3.332
			c0,1.721,1.403,3.121,3.125,3.121h2.58c1.717,0,3.115-1.4,3.115-3.121v-3.332h20.105v3.332c0,1.721,1.401,3.121,3.121,3.121h2.58
			c1.721,0,3.121-1.4,3.121-3.121v-3.238c3.186,0.51,5.631,3.274,5.631,6.606v11.527h-77.52v-11.527
			C180.973,172.067,183.186,169.408,186.194,168.737z M251.79,246.082h-64.115c-3.692,0-6.699-3.003-6.699-6.7v-50.221h77.519
			v50.221C258.494,243.079,255.487,246.082,251.79,246.082z"/>
		<path fill="#087EF4" d="M196.19,195.676L196.19,195.676c-3.015,0-5.461,2.446-5.461,5.459l0,0c0,3.018,2.446,5.461,5.461,5.461
			l0,0c3.015,0,5.461-2.442,5.461-5.461l0,0C201.651,198.122,199.205,195.676,196.19,195.676z"/>
		<path fill="#087EF4" d="M211.746,195.676L211.746,195.676c-3.015,0-5.459,2.446-5.459,5.459l0,0c0,3.018,2.444,5.461,5.459,5.461
			l0,0c3.017,0,5.463-2.442,5.463-5.461l0,0C217.208,198.122,214.762,195.676,211.746,195.676z"/>
		<path fill="#087EF4" d="M227.303,195.676c-3.017,0-5.459,2.446-5.459,5.459l0,0c0,3.018,2.44,5.461,5.459,5.461
			c3.013,0,5.461-2.442,5.461-5.461l0,0C232.763,198.122,230.319,195.676,227.303,195.676z"/>
		<path fill="#087EF4" d="M196.19,211.836L196.19,211.836c-3.015,0-5.461,2.444-5.461,5.459l0,0c0,3.017,2.446,5.461,5.461,5.461
			l0,0c3.015,0,5.461-2.444,5.461-5.461l0,0C201.651,214.28,199.205,211.836,196.19,211.836z"/>
		<path fill="#087EF4" d="M211.746,211.836L211.746,211.836c-3.015,0-5.459,2.444-5.459,5.459l0,0c0,3.017,2.444,5.461,5.459,5.461
			l0,0c3.017,0,5.463-2.444,5.463-5.461l0,0C217.208,214.28,214.762,211.836,211.746,211.836z"/>
		<path fill="#087EF4" d="M227.303,211.836c-3.017,0-5.459,2.444-5.459,5.459l0,0c0,3.017,2.44,5.461,5.459,5.461
			c3.013,0,5.461-2.444,5.461-5.461l0,0C232.763,214.28,230.319,211.836,227.303,211.836z"/>
		<path fill="#087EF4" d="M227.303,227.991c-3.017,0-5.459,2.444-5.459,5.462l0,0c0,3.017,2.44,5.459,5.459,5.459
			c3.013,0,5.461-2.442,5.461-5.459l0,0C232.763,230.438,230.319,227.991,227.303,227.991z"/>
		<path fill="#087EF4" d="M242.858,195.676c-3.013,0-5.457,2.446-5.457,5.459l0,0c0,3.018,2.444,5.461,5.457,5.461
			c3.018,0,5.463-2.442,5.463-5.461l0,0C248.321,198.122,245.877,195.676,242.858,195.676z"/>
		<path fill="#087EF4" d="M242.858,211.836c-3.013,0-5.457,2.444-5.457,5.459l0,0c0,3.017,2.444,5.461,5.457,5.461
			c3.018,0,5.463-2.444,5.463-5.461l0,0C248.321,214.28,245.877,211.836,242.858,211.836z"/>
		<path fill="#087EF4" d="M242.858,227.991c-3.013,0-5.457,2.444-5.457,5.462l0,0c0,3.017,2.444,5.459,5.457,5.459
			c3.018,0,5.463-2.442,5.463-5.459l0,0C248.321,230.438,245.877,227.991,242.858,227.991z"/>
		<path fill="#087EF4" d="M196.19,227.991L196.19,227.991c-3.015,0-5.461,2.444-5.461,5.462l0,0c0,3.017,2.446,5.459,5.461,5.459
			l0,0c3.015,0,5.461-2.442,5.461-5.459l0,0C201.651,230.438,199.205,227.991,196.19,227.991z"/>
		<path fill="#087EF4" d="M211.746,227.991L211.746,227.991c-3.015,0-5.459,2.444-5.459,5.462l0,0c0,3.017,2.444,5.459,5.459,5.459
			l0,0c3.017,0,5.463-2.442,5.463-5.459l0,0C217.208,230.438,214.762,227.991,211.746,227.991z"/>
	</g>
	<path fill="#305889" d="M168.63,175.265c0-6.359,3.09-12.04,7.96-15.509c1.398-5.724,6.573-9.987,12.724-9.987h2.578
		c4.8,0,9.006,2.593,11.284,6.453h3.779c1.59-2.686,4.118-4.735,7.12-5.747v-50.28H111.218h-7.435h-6.561H76.395h-8.106H17.3v64.603
		v0.742v3.906v2.142v60.771h151.33V175.265z M132.656,194.17c-2.015,1.825-4.408,3.225-7.213,4.264
		c-2.786,1.058-5.952,1.758-9.371,2.03l-1.129,11.485c-0.061,0.284-0.141,0.559-0.207,0.773c-0.133,0.203-0.346,0.414-0.702,0.556
		c-0.332,0.139-0.754,0.275-1.395,0.349l0.068,0.065c-0.549,0.076-1.322,0.137-2.234,0.137c-1.115,0-2.04-0.061-2.73-0.137
		c-0.695-0.138-1.268-0.275-1.617-0.489c-0.412-0.203-0.619-0.481-0.758-0.756c-0.147-0.357-0.147-0.716-0.072-1.06l1.115-10.926
		c-1.539-0.207-3.009-0.488-4.345-0.832c-1.396-0.352-2.588-0.693-3.701-1.125c-1.115-0.414-2.104-0.835-2.879-1.253
		c-0.766-0.432-1.4-0.842-1.818-1.26c-0.414-0.419-0.698-0.978-0.905-1.827c-0.209-0.764-0.276-1.953-0.276-3.569
		c0-1.189,0.068-2.23,0.137-3.013c0.071-0.761,0.207-1.388,0.346-1.817c0.217-0.422,0.428-0.7,0.698-0.911
		c0.275-0.133,0.563-0.203,0.922-0.203c0.486,0,1.115,0.273,2.027,0.766c0.9,0.556,2.03,1.127,3.42,1.745
		c1.398,0.636,3.088,1.264,5.037,1.757c1.976,0.559,4.286,0.764,6.935,0.764c4.202,0,7.281-0.764,9.307-2.303
		c2.044-1.544,3.088-3.639,3.088-6.23c0-1.749-0.433-3.148-1.329-4.197c-0.919-1.124-2.032-2.1-3.508-2.94
		c-1.473-0.834-3.149-1.61-4.964-2.241c-1.824-0.704-3.715-1.406-5.677-2.098c-1.876-0.773-3.767-1.609-5.662-2.66
		c-1.829-0.979-3.498-2.236-4.974-3.709c-1.456-1.468-2.583-3.219-3.498-5.315c-0.905-2.104-1.33-4.62-1.33-7.562
		c0-1.955,0.234-3.796,0.717-5.493l2.773-5.607c0.514-0.695,1.066-1.367,1.695-1.995c1.675-1.678,3.775-2.93,6.225-3.978
		c2.448-1.054,5.245-1.688,8.327-2.104l1.052-10.787c0.068-0.275,0.139-0.549,0.212-0.696c0.139-0.207,0.34-0.34,0.704-0.557
		c0.337-0.127,0.751-0.273,1.391-0.348c0.566-0.064,1.339-0.141,2.237-0.141c1.131,0,2.039,0.077,2.73,0.141
		c0.706,0.135,1.332,0.271,1.683,0.49c0.42,0.207,0.617,0.488,0.758,0.766c0.151,0.344,0.151,0.702,0.151,1.046l-1.044,10.158
		c0.973,0.127,2.096,0.342,3.14,0.551c1.125,0.275,2.174,0.568,3.086,0.919c0.978,0.344,1.808,0.702,2.583,1.114
		c0.773,0.352,1.342,0.702,1.622,1.058c0.273,0.273,0.551,0.627,0.693,0.9c0.149,0.29,0.286,0.71,0.358,1.128
		c0.066,0.49,0.13,0.973,0.207,1.609c0.054,0.624,0.054,1.327,0.054,2.173c0,1.114,0,2.029-0.054,2.725
		c-0.077,0.693-0.141,1.257-0.278,1.612c-0.137,0.344-0.286,0.624-0.501,0.769c-0.205,0.141-0.342,0.207-0.619,0.207
		c-0.497,0-1.133-0.207-2.027-0.696c-0.928-0.493-1.976-0.986-3.295-1.469c-1.33-0.564-2.81-1.061-4.488-1.469
		c-1.68-0.488-3.569-0.7-5.596-0.7c-1.815,0-3.432,0.212-4.759,0.553c-1.327,0.359-2.378,0.851-3.214,1.473
		c-0.851,0.627-1.414,1.395-1.825,2.309c-0.348,0.915-0.555,1.891-0.555,2.94c0,1.682,0.412,3.082,1.322,4.203
		c0.926,1.112,2.098,2.162,3.576,2.932c1.475,0.841,3.15,1.554,5.045,2.243c1.881,0.696,3.766,1.4,5.732,2.171
		c1.955,0.768,3.85,1.619,5.745,2.587c1.891,0.983,3.488,2.241,5.032,3.65c1.476,1.455,2.667,3.208,3.5,5.24
		c0.909,2.096,1.334,4.552,1.334,7.41c0,3.091-0.561,5.883-1.607,8.337C136.152,190.252,134.619,192.427,132.656,194.17z"/>
</g>
</svg>
