<?xml version="1.0" encoding="utf-8"?>
<!-- Generator: Adobe Illustrator 16.0.0, SVG Export Plug-In . SVG Version: 6.00 Build 0)  -->
<!DOCTYPE svg PUBLIC "-//W3C//DTD SVG 1.1//EN" "http://www.w3.org/Graphics/SVG/1.1/DTD/svg11.dtd">
<svg version="1.1" id="Layer_1" xmlns="http://www.w3.org/2000/svg" xmlns:xlink="http://www.w3.org/1999/xlink" x="0px" y="0px"
	 width="283.46px" height="283.46px" viewBox="0 0 283.46 283.46" enable-background="new 0 0 283.46 283.46" xml:space="preserve">
<g>
	<path fill-rule="evenodd" clip-rule="evenodd" fill="#FAA51A" d="M188.556,109.825c-1.051,2.29-2.482,4.322-4.317,5.944
		c-1.875,1.706-4.11,3.007-6.724,3.977c-2.6,0.987-5.551,1.64-8.745,1.896l-1.055,10.715c-0.059,0.27-0.131,0.522-0.193,0.719
		c-0.121,0.2-0.321,0.391-0.653,0.525c-0.312,0.125-0.706,0.252-1.304,0.325l0.063,0.063c-0.515,0.069-1.237,0.126-2.081,0.126
		c-1.044,0-1.904-0.058-2.554-0.126c-0.644-0.135-1.176-0.263-1.507-0.461c-0.381-0.188-0.578-0.452-0.71-0.703
		c-0.131-0.333-0.131-0.67-0.059-0.99l1.041-10.194c-1.438-0.194-2.811-0.453-4.052-0.778c-1.303-0.325-2.419-0.644-3.46-1.049
		c-1.047-0.388-1.963-0.776-2.683-1.167c-0.715-0.402-1.313-0.79-1.697-1.173c-0.391-0.393-0.649-0.911-0.847-1.706
		c-0.193-0.716-0.263-1.825-0.263-3.329c0-1.113,0.069-2.084,0.132-2.812c0.065-0.714,0.196-1.298,0.328-1.699
		c0.196-0.396,0.394-0.651,0.649-0.852c0.257-0.122,0.52-0.189,0.86-0.189c0.446,0,1.038,0.259,1.888,0.717
		c0.848,0.519,1.895,1.047,3.194,1.63c1.31,0.589,2.879,1.179,4.694,1.635c1.846,0.525,3.999,0.715,6.475,0.715
		c3.923,0,6.782-0.715,8.689-2.15c1.895-1.443,2.879-3.391,2.879-5.815c0-1.627-0.413-2.937-1.247-3.918
		c-0.854-1.047-1.895-1.957-3.273-2.736c-1.365-0.783-2.932-1.505-4.625-2.091c-1.707-0.66-3.471-1.315-5.299-1.96
		c-1.753-0.726-3.522-1.505-5.286-2.484c-1.697-0.914-3.26-2.086-4.642-3.46c-1.355-1.374-2.409-3-3.26-4.959
		c-0.844-1.965-1.241-4.309-1.241-7.057c0-2.48,0.397-4.767,1.241-6.788c0.851-2.089,2.025-3.855,3.595-5.432
		c1.563-1.569,3.529-2.731,5.811-3.713c2.288-0.983,4.896-1.569,7.768-1.961l0.979-10.064c0.072-0.251,0.135-0.516,0.2-0.65
		c0.135-0.195,0.318-0.317,0.656-0.519c0.318-0.118,0.706-0.252,1.297-0.325c0.528-0.059,1.251-0.131,2.095-0.131
		c1.051,0,1.895,0.072,2.541,0.131c0.663,0.122,1.244,0.258,1.565,0.459c0.395,0.189,0.588,0.457,0.713,0.711
		c0.138,0.323,0.138,0.656,0.138,0.981l-0.972,9.473c0.913,0.128,1.96,0.325,2.929,0.516c1.054,0.254,2.035,0.53,2.892,0.858
		c0.903,0.323,1.678,0.652,2.4,1.041c0.719,0.327,1.254,0.655,1.51,0.98c0.26,0.259,0.513,0.589,0.65,0.847
		c0.135,0.27,0.272,0.66,0.328,1.047c0.065,0.457,0.125,0.913,0.193,1.5c0.063,0.587,0.063,1.239,0.063,2.029
		c0,1.041,0,1.894-0.063,2.539c-0.068,0.653-0.128,1.177-0.249,1.509c-0.138,0.32-0.272,0.581-0.47,0.716
		c-0.193,0.131-0.328,0.197-0.578,0.197c-0.469,0-1.057-0.197-1.894-0.652c-0.863-0.461-1.842-0.919-3.08-1.372
		c-1.24-0.53-2.616-0.988-4.179-1.374c-1.572-0.453-3.325-0.65-5.229-0.65c-1.691,0-3.191,0.197-4.436,0.519
		c-1.237,0.33-2.22,0.79-3.001,1.373c-0.787,0.586-1.319,1.303-1.7,2.157c-0.325,0.854-0.509,1.763-0.509,2.741
		c0,1.569,0.381,2.874,1.225,3.925c0.863,1.032,1.953,2.014,3.332,2.74c1.379,0.776,2.938,1.442,4.708,2.084
		c1.763,0.648,3.525,1.307,5.351,2.029c1.822,0.712,3.585,1.507,5.358,2.413c1.766,0.914,3.26,2.091,4.691,3.404
		c1.382,1.361,2.491,2.996,3.27,4.888c0.847,1.957,1.241,4.248,1.241,6.914C190.053,104.932,189.534,107.533,188.556,109.825z"/>
	<path fill="#305889" d="M267.635,232.113c-1.921,4.461-5.299,6.093-10.131,5.968c-9.416-0.232-18.831-0.059-28.247-0.072
		c-5.705-0.006-8.827-3.108-8.827-8.791c-0.01-40.364-0.01-80.737,0-121.109c0-5.691,3.103-8.771,8.827-8.78
		c9.419-0.003,18.835,0.166,28.25-0.069c4.833-0.122,8.211,1.503,10.128,5.97C267.635,147.528,267.635,189.819,267.635,232.113z"/>
	<path fill="#305889" d="M15.827,190.8c1.911-4.475,5.274-6.106,10.12-5.972c9.484,0.246,18.984,0.063,28.475,0.072
		c5.473,0.01,8.62,3.236,8.62,8.755c0.005,11.861,0.005,23.727-0.005,35.591c-0.003,5.637-3.165,8.756-8.854,8.769
		c-9.409,0.007-18.821-0.161-28.23,0.065c-4.822,0.112-8.215-1.483-10.126-5.968C15.827,218.34,15.827,204.572,15.827,190.8z"/>
	<path fill="#305889" d="M199.396,191.785c0,12.295,0,24.593-0.003,36.888c0,6.44-2.876,9.336-9.248,9.343
		c-9.675,0-19.344,0.007-29.015-0.007c-5.827-0.006-8.943-3.112-8.943-8.979c-0.013-24.911-0.02-49.832-0.003-74.742
		c0.003-5.503,3.25-8.729,8.703-8.729c9.832-0.007,19.668-0.02,29.504,0.003c6.037,0.003,9.012,3.011,9.012,9.094
		c0.013,12.374,0.003,24.76,0.003,37.13C199.403,191.785,199.396,191.785,199.396,191.785z"/>
	<path fill="#305889" d="M84.063,206.23c0-7.616-0.016-15.239,0.003-22.855c0.017-5.513,3.171-8.667,8.709-8.684
		c9.747-0.02,19.498-0.026,29.245,0c6.166,0.02,9.261,3.115,9.263,9.215c0.002,14.908,0.002,29.819-0.006,44.727
		c-0.007,6.386-2.97,9.373-9.283,9.38c-9.75,0-19.5,0.013-29.246-0.007c-5.569-0.01-8.668-3.105-8.682-8.664
		C84.05,221.636,84.063,213.935,84.063,206.23z"/>
</g>
</svg>
