<?xml version="1.0" encoding="utf-8"?>
<!-- Generator: Adobe Illustrator 17.0.0, SVG Export Plug-In . SVG Version: 6.00 Build 0)  -->
<!DOCTYPE svg PUBLIC "-//W3C//DTD SVG 1.1//EN" "http://www.w3.org/Graphics/SVG/1.1/DTD/svg11.dtd">
<svg version="1.1" id="Layer_1" xmlns="http://www.w3.org/2000/svg" xmlns:xlink="http://www.w3.org/1999/xlink" x="0px" y="0px"
	 width="255px" height="255px" viewBox="14.23 14.23 255 255" enable-background="new 14.23 14.23 255 255" xml:space="preserve">
<g>
	<g>
		<path fill="#305889" d="M207.25,236.042h-8.031l-66.476,21.945c-2.056,1.104-10.434,4.834-19.176-0.238l-0.097-0.046
			l-91.111-50.655c-0.337-0.187-0.623-0.422-0.858-0.661l0,0c0-0.057-8.142-8.231-3.163-17.511l0,0
			c0-0.046,5.45-11.618,15.977-8.701c26.448,7.32,43.52,22.524,59.256,26.451c20.521,3.682,34.866,2.391,54.187-5.792
			c-5.831-0.568-15.209-0.042-24.777,0.385c-2.914,0.138-5.883,0.238-8.798,0.334c-29.083,0.766-30.416-8.753-24.251-15.686
			c5.976-6.698,11.14-6.843,18.748-6.843h29.129c4.639-2.1,28.5-12.722,41.368-15.017c0.046,0,0.094,0,0.141,0
			c5.743-1.003,12.871-1.337,19.324-1.337c3.108,0,6.075,0.048,8.606,0.145v73.315L207.25,236.042L207.25,236.042z"/>
		<path fill="#305889" d="M219.641,145.739h33.337c2.336,0,4.443,0.96,6.02,2.486l0,0l0,0l0,0l0,0
			c1.532,1.579,2.541,3.688,2.541,6.026v89.96c0,2.352-0.964,4.449-2.492,6.029l0,0l0,0l0,0l0,0
			c-1.571,1.527-3.678,2.536-6.026,2.536h-33.343c-2.19,0-4.247-0.864-5.772-2.248c-0.104-0.098-0.194-0.196-0.291-0.239
			c-1.53-1.53-2.541-3.682-2.541-6.078v-89.96c0-2.337,0.966-4.495,2.541-6.072l0,0c1.575-1.577,3.68-2.535,6.029-2.535v0.095
			L219.641,145.739L219.641,145.739z"/>
	</g>
	<path fill="#087EF4" d="M187.041,88.225l-80.523-62.424L24.931,88.225l16.362,0.018c0,0.06-0.015,0.102-0.015,0.157v53.618
		c0,2.783,2.264,5.039,5.051,5.039h119.308c2.79,0,5.048-2.256,5.048-5.039V88.4c0-0.055-0.011-0.096-0.014-0.157L187.041,88.225z
		 M123.302,116.411c-0.811,1.777-1.923,3.35-3.345,4.607c-1.453,1.321-3.184,2.328-5.208,3.082c-2.015,0.763-4.3,1.27-6.778,1.469
		l-0.813,8.304c-0.046,0.208-0.104,0.403-0.151,0.556c-0.094,0.154-0.251,0.302-0.507,0.406c-0.24,0.097-0.549,0.196-1.007,0.251
		l0.048,0.048c-0.399,0.054-0.961,0.097-1.616,0.097c-0.805,0-1.471-0.044-1.974-0.097c-0.502-0.103-0.918-0.203-1.171-0.355
		c-0.296-0.148-0.445-0.351-0.549-0.547c-0.104-0.258-0.104-0.514-0.049-0.768l0.807-7.896c-1.113-0.15-2.176-0.353-3.138-0.604
		c-1.009-0.251-1.874-0.498-2.679-0.811c-0.811-0.3-1.526-0.602-2.082-0.907c-0.556-0.311-1.015-0.611-1.314-0.908
		c-0.305-0.305-0.502-0.705-0.655-1.321c-0.152-0.556-0.203-1.414-0.203-2.58c0-0.862,0.051-1.616,0.099-2.181
		c0.053-0.55,0.152-1.005,0.257-1.312c0.157-0.309,0.306-0.507,0.502-0.659c0.199-0.094,0.403-0.148,0.664-0.148
		c0.35,0,0.809,0.201,1.466,0.556c0.655,0.401,1.471,0.809,2.475,1.263c1.012,0.454,2.23,0.913,3.633,1.266
		c1.432,0.403,3.101,0.553,5.019,0.553c3.041,0,5.254-0.553,6.734-1.666c1.466-1.116,2.231-2.628,2.231-4.504
		c0-1.261-0.323-2.273-0.968-3.036c-0.66-0.811-1.469-1.514-2.536-2.123c-1.058-0.604-2.273-1.164-3.582-1.618
		c-1.323-0.511-2.688-1.017-4.105-1.517c-1.36-0.563-2.727-1.167-4.097-1.925c-1.317-0.708-2.527-1.617-3.597-2.682
		c-1.051-1.064-1.865-2.324-2.527-3.841c-0.65-1.526-0.964-3.341-0.964-5.471c0-1.919,0.314-3.691,0.964-5.259
		c0.661-1.616,1.568-2.985,2.79-4.21c1.206-1.212,2.73-2.116,4.498-2.874c1.771-0.761,3.797-1.215,6.019-1.52l0.761-7.798
		c0.053-0.196,0.102-0.401,0.151-0.505c0.106-0.151,0.249-0.247,0.508-0.403c0.247-0.09,0.549-0.194,1.007-0.254
		c0.403-0.042,0.968-0.099,1.625-0.099c0.81,0,1.469,0.057,1.967,0.099c0.511,0.097,0.966,0.203,1.215,0.359
		c0.306,0.148,0.454,0.353,0.549,0.549c0.109,0.253,0.109,0.507,0.109,0.761l-0.75,7.341c0.701,0.099,1.514,0.248,2.267,0.396
		c0.816,0.199,1.575,0.413,2.236,0.668c0.699,0.247,1.303,0.505,1.863,0.807c0.556,0.248,0.968,0.508,1.167,0.758
		c0.203,0.203,0.401,0.459,0.51,0.655c0.102,0.209,0.205,0.514,0.254,0.811c0.046,0.353,0.094,0.705,0.145,1.164
		c0.048,0.454,0.048,0.959,0.048,1.572c0,0.807,0,1.463-0.048,1.966c-0.055,0.505-0.099,0.913-0.194,1.17
		c-0.103,0.248-0.205,0.45-0.364,0.556c-0.148,0.099-0.248,0.15-0.447,0.15c-0.362,0-0.819-0.15-1.466-0.505
		c-0.666-0.355-1.427-0.71-2.386-1.063c-0.957-0.411-2.031-0.765-3.237-1.065c-1.217-0.353-2.578-0.507-4.05-0.507
		c-1.315,0-2.474,0.154-3.442,0.403c-0.957,0.258-1.718,0.611-2.322,1.067c-0.607,0.452-1.019,1.007-1.317,1.666
		c-0.251,0.664-0.396,1.367-0.396,2.123c0,1.218,0.295,2.23,0.952,3.043c0.668,0.8,1.514,1.56,2.58,2.119
		c1.07,0.606,2.28,1.122,3.649,1.618c1.36,0.5,2.732,1.012,4.145,1.569c1.406,0.556,2.78,1.171,4.15,1.872
		c1.367,0.708,2.529,1.623,3.638,2.638c1.067,1.054,1.929,2.322,2.533,3.79c0.655,1.517,0.964,3.288,0.964,5.359
		C124.469,112.621,124.063,114.636,123.302,116.411z"/>
</g>
</svg>
