<?xml version="1.0" encoding="utf-8"?>
<!-- Generator: Adobe Illustrator 17.0.0, SVG Export Plug-In . SVG Version: 6.00 Build 0)  -->
<!DOCTYPE svg PUBLIC "-//W3C//DTD SVG 1.1//EN" "http://www.w3.org/Graphics/SVG/1.1/DTD/svg11.dtd">
<svg version="1.1" id="Layer_1" xmlns="http://www.w3.org/2000/svg" xmlns:xlink="http://www.w3.org/1999/xlink" x="0px" y="0px"
	 width="255px" height="255px" viewBox="14.23 14.23 255 255" enable-background="new 14.23 14.23 255 255" xml:space="preserve">
<g>
	<path fill="#14CF37" d="M230.504,163.912c21.094,0,34.052-6.183,34.052-10.628v-14.201c-6.795,5.101-20.691,7.815-34.052,7.815
		c-13.345,0-27.257-2.712-34.052-7.815v14.201C196.453,157.729,209.407,163.912,230.504,163.912z"/>
	<path fill="#14CF37" d="M196.46,161.078v14.203c0,4.444,12.953,10.642,34.049,10.642s34.046-6.197,34.046-10.642v-14.203
		c-6.789,5.109-20.699,7.819-34.046,7.819S203.252,166.187,196.46,161.078z"/>
	<path fill="#14CF37" d="M196.46,182.947v14.205c0,4.444,12.953,10.641,34.049,10.641s34.046-6.197,34.046-10.641v-14.205
		c-6.789,5.109-20.699,7.822-34.046,7.822S203.252,188.057,196.46,182.947z"/>
	<path fill="#14CF37" d="M230.51,121.358c-21.097,0-34.049,6.199-34.049,10.641c0,4.442,12.953,10.64,34.049,10.64
		s34.046-6.197,34.046-10.64C264.556,127.558,251.606,121.358,230.51,121.358z M240.43,134.687h-0.653
		c-0.904,2.788-3.494,4.819-6.578,4.819c-1.174,0-2.128-0.952-2.128-2.127c0-1.178,0.955-2.129,2.128-2.129
		c1.484,0,2.69-1.206,2.69-2.69c0-1.486-1.206-2.69-2.69-2.69c-1.484,0-2.69,1.204-2.69,2.69c0,3.829-3.115,6.946-6.947,6.946
		c-3.086,0-5.674-2.032-6.578-4.819h-0.65c-1.176,0-2.131-0.951-2.131-2.127c0-1.177,0.955-2.127,2.131-2.127h0.65
		c0.904-2.785,3.491-4.818,6.578-4.818c1.174,0,2.129,0.952,2.129,2.129c0,1.175-0.955,2.127-2.129,2.127
		c-1.486,0-2.693,1.204-2.693,2.69c0,1.484,1.206,2.69,2.693,2.69c1.484,0,2.69-1.206,2.69-2.69c0-3.829,3.115-6.945,6.947-6.945
		c3.083,0,5.675,2.034,6.578,4.818h0.653c1.177,0,2.126,0.951,2.126,2.127C242.556,133.737,241.606,134.687,240.43,134.687z"/>
	<path fill="#305889" d="M170.395,142.961c0,0.064,0.014,0.108,0.014,0.166v56.149c0,2.912-2.367,5.277-5.289,5.277H40.18
		c-2.92,0-5.29-2.365-5.29-5.277v-56.149c0-0.057,0.015-0.102,0.015-0.166l-17.135-0.019l85.439-65.371l84.323,65.371
		L170.395,142.961z M120.871,139.712h-16.134v16.132h16.134V139.712z M100.556,139.712H84.428v16.132h16.129L100.556,139.712
		L100.556,139.712z M100.556,160.798h-16.13v16.124h16.13C100.556,176.922,100.556,160.798,100.556,160.798z M120.871,160.798
		h-16.134v16.124h16.134V160.798z"/>
</g>
</svg>
