<?xml version="1.0" encoding="utf-8"?>
<!-- Generator: Adobe Illustrator 16.0.0, SVG Export Plug-In . SVG Version: 6.00 Build 0)  -->
<!DOCTYPE svg PUBLIC "-//W3C//DTD SVG 1.1//EN" "http://www.w3.org/Graphics/SVG/1.1/DTD/svg11.dtd">
<svg version="1.1" id="Layer_1" xmlns="http://www.w3.org/2000/svg" xmlns:xlink="http://www.w3.org/1999/xlink" x="0px" y="0px"
	 width="283.46px" height="283.46px" viewBox="0 0 283.46 283.46" enable-background="new 0 0 283.46 283.46" xml:space="preserve">
<g>
	<g>
		<path fill="#305889" d="M269.047,255.093c-1.938,4.513-5.361,6.158-10.243,6.035c-9.519-0.232-19.046-0.06-28.568-0.068
			c-5.767-0.009-8.926-3.15-8.926-8.889c-0.009-40.822-0.009-81.644,0-122.472c0-5.758,3.137-8.869,8.935-8.88
			c9.519-0.009,19.041,0.164,28.563-0.071c4.883-0.123,8.302,1.518,10.239,6.038C269.047,169.562,269.047,212.33,269.047,255.093z"
			/>
		<path fill="#305889" d="M269.047,79.536c-1.145,1.584-2.011,3.549-3.506,4.674c-4.873,3.677-11.675,0.383-12.395-5.834
			c-0.866-7.485-1.7-14.975-3.068-22.909c-0.191,0.413-0.337,0.857-0.583,1.233c-26.554,41.341-62.616,72.001-106.036,94.409
			c-23.861,12.313-48.709,21.958-75.023,27.597c-13.81,2.959-27.75,4.787-41.895,4.668c-1.981-0.014-3.994-0.104-5.938-0.474
			c-3.269-0.602-4.969-3.022-6.182-5.885c0-1.327,0-2.653,0-3.971c2.163-4.678,5.769-5.939,10.856-5.758
			c13.89,0.492,27.618-1.381,41.106-4.613c55.78-13.347,104.418-39.419,143.99-81.447c10.079-10.704,18.922-22.377,26.718-34.852
			c0.474-0.766,0.902-1.563,1.554-2.706c-0.938,0.18-1.54,0.246-2.124,0.413c-8.273,2.348-16.529,4.782-24.821,7.047
			c-6.112,1.671-11.264-2.806-10.329-8.859c0.501-3.273,2.498-5.418,5.611-6.318c15.576-4.493,31.162-8.953,46.774-13.327
			c4.723-1.329,9.254,1.921,9.828,6.879c1.688,14.564,3.319,29.126,4.992,43.688c0.068,0.636,0.31,1.251,0.47,1.878
			C269.047,76.556,269.047,78.049,269.047,79.536z"/>
		<path fill="#305889" d="M14.417,213.319c1.928-4.522,5.331-6.173,10.229-6.04c9.593,0.251,19.196,0.063,28.793,0.077
			c5.534,0.005,8.716,3.269,8.716,8.849c0.007,11.998,0.007,23.996-0.005,35.994c-0.004,5.697-3.198,8.853-8.951,8.866
			c-9.522,0.004-19.039-0.164-28.55,0.063c-4.873,0.114-8.31-1.5-10.238-6.035C14.417,241.171,14.417,227.25,14.417,213.319z"/>
		<path fill="#305889" d="M200.044,214.317c0,12.427,0,24.867-0.004,37.298c0,6.51-2.904,9.445-9.35,9.45
			c-9.787,0-19.565,0.004-29.344-0.005c-5.894-0.009-9.039-3.154-9.039-9.08c-0.014-25.19-0.019-50.395-0.005-75.581
			c0.005-5.565,3.282-8.829,8.798-8.829c9.947-0.005,19.894-0.023,29.84,0.004c6.104,0.005,9.108,3.045,9.108,9.194
			c0.014,12.514,0.005,25.036,0.005,37.549C200.049,214.317,200.044,214.317,200.044,214.317z"/>
		<path fill="#305889" d="M83.415,228.927c0-7.704-0.014-15.417,0-23.121c0.021-5.575,3.209-8.762,8.81-8.775
			c9.858-0.022,19.715-0.027,29.573,0c6.236,0.019,9.368,3.15,9.368,9.313c0,15.075,0,30.159-0.009,45.234
			c-0.005,6.454-3.004,9.477-9.384,9.481c-9.865,0-19.72,0.014-29.578-0.005c-5.632-0.014-8.764-3.146-8.78-8.766
			C83.406,244.499,83.415,236.713,83.415,228.927z"/>
	</g>
	<g>
		<path fill="#27CD2F" d="M130.548,94.398l-2.081-2.874c-0.984-1.34-1.012-3.182-0.025-4.549l2.035-2.895
			c1.6-2.281,2.177-5.156,1.532-7.886c-0.647-2.735-2.42-5.053-4.887-6.37l-3.113-1.678c-1.491-0.789-2.275-2.418-2.013-4.073
			l0.597-3.496c0.456-2.758-0.29-5.587-2.033-7.763c-1.773-2.181-4.388-3.497-7.164-3.62l-3.544-0.141
			c-1.68-0.071-3.12-1.199-3.571-2.806l-1.033-3.375c-1.194-4.148-5.053-7.042-9.388-7.042c-1.322,0-2.635,0.262-3.856,0.793
			l-3.259,1.386c-1.509,0.647-3.355,0.244-4.431-0.98l-2.37-2.637c-1.842-2.058-4.501-3.257-7.255-3.257
			c-2.831,0-5.514,1.222-7.383,3.35l-2.3,2.69c-1.078,1.242-2.896,1.673-4.428,1.048l-3.285-1.336
			c-1.196-0.483-2.438-0.745-3.708-0.745c-4.386,0-8.27,2.947-9.423,7.187l-0.93,3.428c-0.433,1.604-1.869,2.753-3.547,2.849
			l-3.521,0.214c-2.78,0.144-5.39,1.511-7.113,3.715c-1.723,2.202-2.42,5.055-1.919,7.781l0.647,3.478
			c0.313,1.653-0.479,3.305-1.937,4.117l-3.091,1.725c-2.448,1.37-4.194,3.715-4.796,6.448c-0.597,2.73,0,5.602,1.66,7.854
			l2.081,2.849c0.98,1.347,1.005,3.187,0.025,4.547l-2.04,2.901c-1.602,2.279-2.177,5.153-1.534,7.884
			c0.652,2.738,2.42,5.053,4.887,6.373l3.113,1.675c1.491,0.789,2.277,2.42,2.013,4.075l-0.597,3.497
			c-0.454,2.753,0.285,5.58,2.035,7.763c1.771,2.179,4.39,3.494,7.164,3.612l3.544,0.146c1.682,0.071,3.116,1.201,3.569,2.804
			l0.98,3.398c1.197,4.148,5.056,7.047,9.393,7.047c1.317,0,2.637-0.264,3.859-0.794l3.254-1.386
			c1.514-0.648,3.355-0.242,4.431,0.98l2.375,2.631c1.851,2.065,4.506,3.26,7.259,3.26c2.833,0,5.509-1.218,7.383-3.351l2.322-2.687
			c1.078-1.24,2.895-1.674,4.431-1.053l3.28,1.34c1.199,0.484,2.441,0.744,3.713,0.744c4.383,0,8.262-2.949,9.413-7.187l0.933-3.43
			c0.438-1.6,1.873-2.749,3.548-2.849l3.549-0.212c2.804-0.168,5.388-1.511,7.111-3.713c1.732-2.204,2.421-5.028,1.915-7.786
			l-0.643-3.474c-0.313-1.655,0.477-3.305,1.938-4.119l3.09-1.73c2.448-1.365,4.192-3.708,4.796-6.441
			C132.804,99.524,132.205,96.648,130.548,94.398z M75.068,124.225c-19.068,0-34.567-15.528-34.567-34.567
			C40.501,70.587,56,55.09,75.068,55.09c19.071,0,34.567,15.497,34.567,34.567C109.636,108.696,94.139,124.225,75.068,124.225z"/>
		<path fill="#27CD2F" d="M88.402,74.745L68.267,94.765l-6.542-6.58c-1.803-1.798-4.695-1.798-6.498,0
			c-1.803,1.808-1.803,4.702-0.034,6.503l9.805,9.849c0.862,0.861,2.031,1.347,3.269,1.347c1.199,0,2.371-0.486,3.234-1.347
			l23.406-23.258c1.803-1.807,1.803-4.697,0.041-6.502C93.145,72.976,90.208,72.976,88.402,74.745z"/>
	</g>
</g>
</svg>
