<?xml version="1.0" encoding="utf-8"?>
<!-- Generator: Adobe Illustrator 16.0.0, SVG Export Plug-In . SVG Version: 6.00 Build 0)  -->
<!DOCTYPE svg PUBLIC "-//W3C//DTD SVG 1.1//EN" "http://www.w3.org/Graphics/SVG/1.1/DTD/svg11.dtd">
<svg version="1.1" id="Layer_1" xmlns="http://www.w3.org/2000/svg" xmlns:xlink="http://www.w3.org/1999/xlink" x="0px" y="0px"
	 width="283.46px" height="283.46px" viewBox="0 0 283.46 283.46" enable-background="new 0 0 283.46 283.46" xml:space="preserve">
<g>
	<path fill="#305889" d="M73.943,172.468l31.466,68.363v29.629c16.705,7.495,35.819,7.495,52.522,0v-25.754
		c13.675-8.791,19.356-25.937,13.645-41.159c-3.575-8.166-7.255-16.283-11.044-24.352c-0.62-1.327-1.02-2.747-1.175-4.209
		l-4.887-45.277c-0.564-5.26-5.29-9.067-10.55-8.503c-4.838,0.519-8.518,4.585-8.557,9.45l-0.345,40.955
		c-0.262,7.071-6.206,12.592-13.278,12.329c-4.442-0.165-8.482-2.619-10.675-6.483l-24.732-51.352
		c-0.459-0.905-1.567-1.265-2.474-0.806c-0.421,0.217-0.748,0.588-0.903,1.038l-9.729,25.745c-2.511,6.645-2.252,14.017,0.716,20.47
		L73.943,172.468z"/>
	<g>
		<path fill="#FF8400" d="M137.301,76.354c-0.615-0.564-1.255-1.064-2.003-1.452c-0.759-0.392-1.51-0.727-2.286-1.033
			c-0.785-0.307-1.533-0.586-2.288-0.864c-0.75-0.275-1.415-0.557-2.003-0.892c-0.59-0.311-1.061-0.723-1.424-1.169
			c-0.359-0.446-0.524-1.004-0.524-1.671c0-0.418,0.083-0.81,0.219-1.169c0.161-0.367,0.388-0.673,0.723-0.922
			c0.333-0.249,0.753-0.442,1.28-0.584c0.532-0.141,1.171-0.221,1.895-0.221c0.813,0,1.559,0.081,2.23,0.277
			c0.669,0.163,1.255,0.363,1.789,0.581c0.523,0.197,0.943,0.39,1.304,0.592c0.36,0.191,0.617,0.277,0.812,0.277
			c0.107,0,0.167-0.032,0.244-0.086c0.09-0.06,0.146-0.169,0.202-0.308c0.058-0.135,0.081-0.363,0.111-0.641
			c0.024-0.274,0.024-0.641,0.024-1.083c0-0.333,0-0.619-0.024-0.868c-0.03-0.251-0.053-0.446-0.086-0.637
			c-0.024-0.167-0.081-0.332-0.137-0.448c-0.056-0.11-0.167-0.251-0.277-0.363c-0.112-0.139-0.337-0.277-0.641-0.418
			c-0.311-0.165-0.643-0.308-1.031-0.446c-0.363-0.137-0.783-0.256-1.231-0.361c-0.414-0.083-0.86-0.167-1.254-0.217l0.415-4.047
			c0-0.133,0-0.277-0.051-0.416c-0.058-0.111-0.139-0.221-0.307-0.306c-0.137-0.084-0.386-0.141-0.667-0.195
			c-0.276-0.024-0.637-0.058-1.091-0.058c-0.356,0-0.662,0.034-0.892,0.058c-0.253,0.034-0.416,0.088-0.549,0.145
			c-0.144,0.079-0.223,0.135-0.279,0.217c-0.03,0.056-0.06,0.168-0.086,0.277l-0.422,4.294c-1.222,0.165-2.336,0.416-3.311,0.836
			c-0.974,0.416-1.815,0.914-2.479,1.585c-0.67,0.671-1.171,1.424-1.538,2.314c-0.358,0.864-0.528,1.838-0.528,2.898
			c0,1.173,0.17,2.17,0.528,3.011c0.367,0.832,0.819,1.529,1.392,2.119c0.592,0.585,1.257,1.08,1.98,1.471
			c0.757,0.421,1.512,0.751,2.258,1.063c0.778,0.273,1.533,0.549,2.262,0.832c0.724,0.247,1.391,0.558,1.973,0.892
			c0.583,0.333,1.031,0.723,1.392,1.167c0.364,0.423,0.536,0.978,0.536,1.669c0,1.038-0.418,1.87-1.233,2.488
			c-0.806,0.607-2.029,0.913-3.707,0.913c-1.055,0-1.969-0.077-2.758-0.305c-0.776-0.193-1.447-0.446-2.001-0.699
			c-0.557-0.242-1.002-0.472-1.364-0.691c-0.363-0.195-0.613-0.305-0.808-0.305c-0.144,0-0.254,0.022-0.365,0.079
			c-0.11,0.084-0.195,0.193-0.277,0.365c-0.06,0.169-0.11,0.42-0.141,0.727c-0.028,0.308-0.054,0.724-0.054,1.192
			c0,0.645,0.026,1.121,0.109,1.426c0.086,0.332,0.195,0.559,0.363,0.724c0.165,0.165,0.416,0.332,0.722,0.502
			c0.307,0.168,0.699,0.332,1.145,0.5c0.444,0.17,0.922,0.307,1.48,0.444c0.528,0.141,1.113,0.25,1.724,0.332l-0.442,4.351
			c-0.03,0.137-0.03,0.283,0.026,0.425c0.054,0.111,0.14,0.217,0.303,0.294c0.137,0.084,0.369,0.142,0.643,0.195
			c0.276,0.034,0.641,0.058,1.082,0.058c0.363,0,0.678-0.024,0.894-0.058l-0.026-0.019c0.257-0.034,0.426-0.092,0.555-0.142
			c0.145-0.053,0.23-0.143,0.281-0.217c0.028-0.094,0.06-0.199,0.081-0.311l0.456-4.576c1.356-0.105,2.621-0.382,3.729-0.806
			c1.115-0.416,2.067-0.972,2.869-1.696c0.785-0.695,1.394-1.561,1.846-2.539c0.411-0.978,0.633-2.083,0.633-3.316
			c0-1.139-0.167-2.114-0.53-2.949C138.362,77.629,137.886,76.932,137.301,76.354z"/>
		<path fill="#FF8400" d="M226.907,155.473L156.42,9.114c-0.735-1.525-2.565-2.164-4.091-1.432L57.982,53.12c0,0,0,0,0,0.002
			c-1.525,0.734-2.166,2.565-1.43,4.09l57.226,118.816h0.007c1.673,2.882,4.7,4.711,8.031,4.846
			c5.377,0.225,9.918-3.957,10.141-9.335l0.349-40.908c0.053-6.416,4.906-11.777,11.288-12.464
			c6.944-0.748,13.178,4.274,13.93,11.218l4.887,45.272c0.118,1.124,0.42,2.218,0.899,3.241c1.038,2.215,2.068,4.434,3.094,6.655
			c0.009,0.02,0.017,0.034,0.024,0.049c0.734,1.525,2.566,2.166,4.09,1.428l54.96-26.465c0,0,0,0,0.002,0
			C227.003,158.827,227.644,156.994,226.907,155.473z M153.461,99.695c-6.015,6.019-14.348,9.751-23.546,9.751
			c-9.189,0-17.524-3.732-23.541-9.751c-6.021-6.011-9.753-14.346-9.753-23.544c0-9.193,3.732-17.523,9.753-23.542
			c6.017-6.019,14.351-9.751,23.541-9.751c9.198,0,17.531,3.733,23.546,9.751c6.019,6.019,9.749,14.349,9.749,23.542
			C163.21,85.35,159.479,93.684,153.461,99.695z"/>
	</g>
</g>
</svg>
