<?xml version="1.0" encoding="utf-8"?>
<!-- Generator: Adobe Illustrator 17.0.0, SVG Export Plug-In . SVG Version: 6.00 Build 0)  -->
<!DOCTYPE svg PUBLIC "-//W3C//DTD SVG 1.1//EN" "http://www.w3.org/Graphics/SVG/1.1/DTD/svg11.dtd">
<svg version="1.1" id="Layer_1" xmlns="http://www.w3.org/2000/svg" xmlns:xlink="http://www.w3.org/1999/xlink" x="0px" y="0px"
	 width="255px" height="255px" viewBox="-33.385 14.23 255 255" enable-background="new -33.385 14.23 255 255"
	 xml:space="preserve">
<g>
	<path fill="#305889" d="M-12.599,170.177l29.127,63.276v27.421c15.459,6.936,33.15,6.936,48.611,0V237.04
		c12.656-8.139,17.915-24.009,12.627-38.096c-3.308-7.559-6.712-15.071-10.221-22.539c-0.576-1.228-0.945-2.544-1.085-3.895
		l-4.525-41.905c-0.522-4.868-4.895-8.39-9.764-7.871c-4.479,0.482-7.885,4.243-7.919,8.743l-0.322,37.908
		c-0.243,6.544-5.743,11.652-12.286,11.413c-4.115-0.15-7.85-2.427-9.88-6.001l-22.888-47.53c-0.43-0.834-1.449-1.167-2.291-0.742
		c-0.392,0.197-0.69,0.54-0.836,0.961l-9.004,23.826c-2.326,6.151-2.087,12.973,0.663,18.943L-12.599,170.177z"/>
	<g>
		<path fill="#FAA51A" d="M46.044,81.221c-0.574-0.524-1.166-0.985-1.857-1.344c-0.7-0.364-1.401-0.672-2.115-0.954
			c-0.728-0.286-1.419-0.545-2.119-0.801c-0.69-0.256-1.311-0.514-1.851-0.824c-0.545-0.286-0.985-0.669-1.318-1.083
			c-0.334-0.411-0.486-0.928-0.486-1.546c0-0.388,0.075-0.747,0.202-1.082c0.15-0.343,0.362-0.623,0.672-0.857
			c0.308-0.228,0.696-0.409,1.185-0.54c0.492-0.127,1.083-0.202,1.755-0.202c0.75,0,1.441,0.076,2.063,0.256
			c0.613,0.149,1.159,0.337,1.653,0.541c0.486,0.181,0.874,0.357,1.206,0.545c0.336,0.176,0.575,0.258,0.759,0.258
			c0.094,0,0.15-0.03,0.221-0.082c0.085-0.057,0.136-0.158,0.188-0.282c0.052-0.127,0.07-0.338,0.101-0.595
			c0.024-0.256,0.024-0.594,0.024-1.003c0-0.306,0-0.571-0.024-0.803c-0.031-0.23-0.049-0.411-0.078-0.59
			c-0.024-0.152-0.076-0.306-0.127-0.413c-0.052-0.101-0.155-0.233-0.259-0.337c-0.1-0.129-0.31-0.256-0.592-0.388
			c-0.289-0.152-0.597-0.285-0.951-0.411c-0.337-0.127-0.729-0.237-1.14-0.334c-0.386-0.08-0.794-0.155-1.161-0.204l0.38-3.746
			c0-0.122,0-0.256-0.047-0.383c-0.054-0.103-0.124-0.207-0.282-0.285c-0.127-0.078-0.357-0.131-0.62-0.181
			c-0.254-0.021-0.585-0.049-1.006-0.049c-0.334,0-0.616,0.028-0.83,0.049c-0.233,0.033-0.383,0.082-0.505,0.136
			c-0.132,0.07-0.207,0.122-0.261,0.2c-0.028,0.054-0.052,0.152-0.076,0.256l-0.392,3.975c-1.133,0.15-2.162,0.383-3.064,0.773
			c-0.902,0.383-1.683,0.845-2.298,1.468c-0.62,0.62-1.082,1.321-1.419,2.14c-0.334,0.799-0.494,1.704-0.494,2.683
			c0,1.085,0.16,2.009,0.494,2.787c0.338,0.768,0.751,1.416,1.283,1.962c0.55,0.541,1.167,0.997,1.838,1.363
			c0.7,0.385,1.395,0.696,2.089,0.979c0.719,0.256,1.414,0.513,2.093,0.773c0.669,0.228,1.288,0.514,1.824,0.824
			c0.54,0.31,0.951,0.668,1.292,1.082c0.334,0.389,0.498,0.905,0.498,1.543c0,0.964-0.39,1.729-1.146,2.3
			c-0.742,0.562-1.878,0.846-3.426,0.846c-0.982,0-1.828-0.073-2.556-0.285c-0.717-0.173-1.337-0.407-1.851-0.644
			c-0.516-0.225-0.928-0.437-1.259-0.639c-0.338-0.183-0.571-0.285-0.751-0.285c-0.132,0-0.233,0.021-0.338,0.073
			c-0.103,0.08-0.179,0.181-0.254,0.338c-0.057,0.155-0.103,0.39-0.131,0.672c-0.024,0.285-0.047,0.672-0.047,1.104
			c0,0.596,0.024,1.039,0.098,1.321c0.079,0.306,0.179,0.514,0.334,0.672c0.155,0.15,0.388,0.306,0.667,0.461
			c0.286,0.157,0.648,0.307,1.064,0.462c0.407,0.158,0.851,0.286,1.365,0.411c0.492,0.131,1.034,0.23,1.598,0.306l-0.407,4.027
			c-0.033,0.127-0.033,0.265,0.021,0.395c0.052,0.103,0.132,0.202,0.282,0.273c0.127,0.076,0.338,0.132,0.595,0.179
			c0.256,0.033,0.59,0.057,0.999,0.057c0.338,0,0.629-0.024,0.83-0.057l-0.026-0.014c0.24-0.033,0.395-0.089,0.513-0.134
			c0.133-0.047,0.216-0.13,0.264-0.2c0.028-0.087,0.057-0.183,0.076-0.286l0.418-4.239c1.254-0.094,2.43-0.353,3.452-0.745
			c1.034-0.383,1.915-0.895,2.658-1.567c0.723-0.644,1.288-1.446,1.706-2.347c0.38-0.907,0.585-1.932,0.585-3.071
			c0-1.055-0.152-1.96-0.487-2.733C47.026,82.403,46.584,81.758,46.044,81.221z"/>
		<path fill="#FAA51A" d="M128.975,154.446L63.738,18.992c-0.681-1.414-2.374-2.005-3.787-1.328l-87.32,42.055v0.002
			c-1.41,0.679-2.006,2.374-1.321,3.786l52.963,109.964h0.005c1.549,2.669,4.352,4.361,7.435,4.488
			c4.979,0.207,9.18-3.663,9.389-8.642l0.319-37.858c0.047-5.941,4.54-10.898,10.447-11.535c6.429-0.696,12.195,3.952,12.891,10.381
			l4.525,41.899c0.109,1.039,0.386,2.054,0.832,3c0.961,2.049,1.918,4.103,2.863,6.161c0.009,0.019,0.019,0.03,0.023,0.045
			c0.681,1.413,2.378,2.004,3.783,1.318l50.871-24.493l0,0C129.064,157.552,129.656,155.858,128.975,154.446z M61.003,102.827
			c-5.569,5.567-13.283,9.023-21.796,9.023c-8.506,0-16.218-3.456-21.791-9.023c-5.569-5.564-9.023-13.279-9.023-21.793
			c0-8.509,3.454-16.218,9.023-21.789c5.573-5.571,13.285-9.025,21.791-9.025c8.513,0,16.227,3.454,21.796,9.025
			c5.569,5.571,9.02,13.28,9.02,21.789C70.022,89.549,66.571,97.263,61.003,102.827z"/>
	</g>
	<path fill="#FAA51A" d="M122.693,179.81c-3.24,0.514-6.516,0.804-9.79,0.897l0.023,62.354l-11.715-11.711l0.005,14.103
		l16.619,16.598l16.601-16.615l-0.005-14.101l-11.702,11.721L122.693,179.81z"/>
</g>
</svg>
