<?xml version="1.0" encoding="utf-8"?>
<!-- Generator: Adobe Illustrator 16.0.0, SVG Export Plug-In . SVG Version: 6.00 Build 0)  -->
<!DOCTYPE svg PUBLIC "-//W3C//DTD SVG 1.1//EN" "http://www.w3.org/Graphics/SVG/1.1/DTD/svg11.dtd">
<svg version="1.1" id="Layer_1" xmlns="http://www.w3.org/2000/svg" xmlns:xlink="http://www.w3.org/1999/xlink" x="0px" y="0px"
	 width="283.46px" height="283.46px" viewBox="0 0 283.46 283.46" enable-background="new 0 0 283.46 283.46" xml:space="preserve">
<g>
	<path fill="#14CF37" d="M201.528,129.062c-18.897,0-34.27,15.372-34.27,34.265s15.372,34.266,34.27,34.266
		c18.89,0,34.263-15.372,34.263-34.266S220.417,129.062,201.528,129.062z M213.049,174.172c-0.563,1.229-1.328,2.315-2.313,3.185
		c-1.005,0.91-2.2,1.609-3.6,2.129c-1.392,0.53-2.971,0.877-4.679,1.016l-0.567,5.739c-0.03,0.143-0.071,0.278-0.105,0.383
		c-0.064,0.109-0.17,0.211-0.346,0.282c-0.17,0.064-0.377,0.136-0.696,0.173l0.03,0.034c-0.275,0.034-0.662,0.068-1.117,0.068
		c-0.557,0-1.016-0.034-1.365-0.068c-0.346-0.071-0.635-0.139-0.808-0.248c-0.204-0.098-0.306-0.241-0.381-0.373
		c-0.071-0.18-0.071-0.36-0.03-0.533l0.554-5.457c-0.768-0.105-1.501-0.244-2.163-0.418c-0.7-0.173-1.298-0.343-1.854-0.56
		c-0.563-0.207-1.056-0.418-1.439-0.629c-0.384-0.214-0.699-0.421-0.906-0.624c-0.211-0.211-0.351-0.489-0.455-0.914
		c-0.103-0.384-0.14-0.978-0.14-1.782c0-0.595,0.037-1.114,0.067-1.508c0.038-0.381,0.105-0.692,0.177-0.907
		c0.109-0.214,0.211-0.35,0.351-0.458c0.136-0.064,0.278-0.099,0.458-0.099c0.241,0,0.557,0.136,1.012,0.384
		c0.452,0.278,1.016,0.561,1.712,0.873c0.699,0.313,1.538,0.632,2.513,0.876c0.988,0.278,2.143,0.38,3.467,0.38
		c2.102,0,3.633-0.38,4.655-1.147c1.012-0.774,1.542-1.82,1.542-3.117c0-0.869-0.225-1.572-0.669-2.099
		c-0.455-0.561-1.016-1.046-1.752-1.464c-0.734-0.417-1.576-0.808-2.479-1.12c-0.913-0.354-1.857-0.703-2.835-1.049
		c-0.94-0.391-1.889-0.809-2.832-1.328c-0.91-0.492-1.742-1.12-2.482-1.854c-0.73-0.733-1.294-1.609-1.749-2.658
		c-0.455-1.053-0.669-2.306-0.669-3.779c0-1.328,0.214-2.551,0.669-3.63c0.455-1.121,1.08-2.068,1.926-2.914
		c0.835-0.839,1.888-1.46,3.11-1.986s2.621-0.839,4.156-1.049l0.526-5.389c0.041-0.134,0.074-0.275,0.108-0.348
		c0.071-0.104,0.17-0.168,0.35-0.279c0.17-0.064,0.377-0.134,0.696-0.173c0.278-0.032,0.666-0.07,1.124-0.07
		c0.561,0,1.012,0.038,1.361,0.07c0.351,0.064,0.666,0.139,0.836,0.246c0.21,0.102,0.315,0.241,0.38,0.38
		c0.075,0.173,0.075,0.353,0.075,0.526l-0.52,5.068c0.488,0.071,1.049,0.177,1.568,0.282c0.563,0.133,1.087,0.282,1.545,0.455
		c0.482,0.177,0.903,0.35,1.287,0.561c0.384,0.173,0.666,0.35,0.809,0.522c0.143,0.14,0.274,0.316,0.35,0.452
		c0.071,0.149,0.146,0.356,0.177,0.563c0.033,0.244,0.064,0.489,0.099,0.805c0.033,0.315,0.033,0.665,0.033,1.087
		c0,0.557,0,1.012-0.033,1.357c-0.034,0.351-0.065,0.632-0.13,0.809c-0.074,0.17-0.146,0.309-0.254,0.384
		c-0.099,0.071-0.174,0.105-0.306,0.105c-0.255,0-0.567-0.105-1.02-0.35c-0.458-0.245-0.984-0.493-1.643-0.737
		c-0.666-0.281-1.41-0.529-2.241-0.733c-0.839-0.244-1.783-0.35-2.802-0.35c-0.906,0-1.712,0.105-2.377,0.278
		c-0.659,0.177-1.186,0.425-1.603,0.737c-0.425,0.312-0.707,0.695-0.91,1.154c-0.173,0.455-0.275,0.943-0.275,1.467
		c0,0.842,0.207,1.542,0.659,2.102c0.462,0.551,1.046,1.08,1.782,1.467c0.737,0.415,1.576,0.771,2.523,1.114
		c0.937,0.354,1.888,0.699,2.859,1.09c0.974,0.381,1.925,0.805,2.872,1.29c0.947,0.489,1.749,1.121,2.517,1.824
		c0.736,0.727,1.327,1.603,1.749,2.618c0.451,1.049,0.665,2.274,0.665,3.701C213.854,171.557,213.576,172.946,213.049,174.172z"/>
	<path fill="#2E5788" d="M137.805,138.743v0.012c-6.187-0.145-10.177,5.139-10.079,10.293l-0.098,44.881
		c0,0.927,0.228,1.437,0.297,1.69c0.182,1.369,0.752,2.466,1.299,3.406c0,0,0.007,0.044,0.014,0.044
		c0.082,0.156,0.241,0.428,0.469,0.648l-0.38-0.485l30.188,52.782l-0.048,15.206h4.221l0.058-16.347l-30.844-53.91
		c-0.008,0-0.003,0-0.012-0.044c-0.431-0.754-0.72-1.426-0.779-1.888l-0.008-0.075l-0.016-0.074
		c-0.151-0.724-0.232-0.981-0.236-0.981l0.102-44.938c-0.058-3.035,1.961-6.102,5.772-6.007h0.024h0.034
		c2.295,0,3.584,0.747,4.485,1.81c0.903,1.06,1.386,2.585,1.386,4.146v32.266h4.225v-32.266c0-2.397-0.708-4.903-2.391-6.884
		C143.805,140.053,141.115,138.754,137.805,138.743L137.805,138.743z"/>
	<path fill="#2E5788" d="M261.023,139.659c-3.311,0-6.007,1.311-7.688,3.283c-1.685,1.983-2.384,4.479-2.384,6.88v32.269h4.225
		v-32.269c0-1.565,0.476-3.09,1.378-4.149c0.896-1.06,2.197-1.797,4.493-1.797h0.023h0.034c3.81-0.104,5.834,2.962,5.772,5.997
		v0.037l0.102,44.925c0-0.003-0.085,0.259-0.234,0.992l-0.017,0.064l-0.01,0.074c-0.059,0.455-0.34,1.117-0.765,1.864
		l-30.863,53.957l0.051,16.351h4.222l-0.052-15.22l30.191-52.771l-0.38,0.479c0.23-0.218,0.39-0.492,0.468-0.652v-0.01l0.011-0.007
		v-0.011c0,0,0.014-0.01,0.014-0.014c0.543-0.94,1.106-2.033,1.287-3.398c0.074-0.252,0.295-0.754,0.295-1.681l-0.095-44.885
		c0.099-5.147-3.898-10.43-10.079-10.289V139.659L261.023,139.659z"/>
	<path fill="#2E5788" d="M150.481,187.089c-1.26,0.085-2.448,0.424-3.494,1.08c-2.214,1.382-4.018,3.398-4.397,6.054
		c-0.377,2.659,0.57,5.521,2.639,8.917l11.158,18.303l3.605-2.203l-11.151-18.303c-1.803-2.958-2.237-4.928-2.071-6.119
		c0.166-1.192,0.834-2.051,2.459-3.066c0.52-0.326,2.278-0.625,4.067-0.133c1.79,0.489,3.563,1.597,4.659,3.396l5.575,9.147
		c1.434,2.356,3.597,4.258,5.641,6.062c2.034,1.793,3.963,3.494,4.965,4.924l8.322,13.646c3.416,5.668,3.538,9.78,3.538,15.447
		l0.052,22.979h4.221l-0.048-22.965c0-5.77-0.265-11.188-4.16-17.644l-8.394-13.79l-0.044-0.051
		c-1.498-2.149-3.641-3.939-5.657-5.715c-2.011-1.776-3.892-3.532-4.832-5.077l-5.576-9.158c-1.742-2.858-4.476-4.54-7.147-5.27
		v-0.011C153.072,187.177,151.741,187.004,150.481,187.089z"/>
	<path fill="#2E5788" d="M248.344,187.989c-1.257-0.085-2.588,0.089-3.926,0.455v0.007c-2.669,0.73-5.416,2.411-7.158,5.271
		l-5.572,9.154c-0.947,1.549-2.812,3.304-4.828,5.08c-2.014,1.776-4.156,3.556-5.654,5.708l-0.044,0.058l-8.397,13.783
		c-3.895,6.455-4.153,11.871-4.153,17.638l-0.051,22.972h4.225l0.047-22.976c0-5.667,0.126-9.79,3.535-15.457h0.011l8.315-13.634
		c1.002-1.433,2.931-3.138,4.965-4.931c2.044-1.803,4.204-3.701,5.64-6.055l5.579-9.147c1.094-1.8,2.866-2.913,4.656-3.406
		c1.793-0.488,3.548-0.183,4.067,0.14c1.623,1.019,2.289,1.871,2.455,3.06c0.174,1.191-0.261,3.172-2.067,6.129l-11.148,18.303
		l3.6,2.19l11.154-18.3c2.062-3.392,3.016-6.258,2.639-8.917c-0.377-2.651-2.187-4.658-4.397-6.041
		C250.789,188.414,249.604,188.074,248.344,187.989L248.344,187.989z"/>
	<path fill="#305889" d="M113.852,225.196c-0.707-0.935-1.104-2.099-1.107-3.271v-96.782c-0.046-2.831,2.075-5.209,4.934-5.495
		l0.364-0.013l0.254,0.003h57.21v-5.609V15.323H12.263v98.706v78.684v38.85h57.258h48.726h0.379L113.852,225.196z M128.847,36.521
		h25.46v25.464h-25.46V36.521L128.847,36.521z M128.847,68.318h25.46V93.78h-25.46V68.318L128.847,68.318z M97.05,36.521h25.464
		v25.464H97.05V36.521z M58.921,157.374H33.459v-25.467h25.462V157.374z M58.921,125.578H33.459v-25.459h25.462V125.578z
		 M58.921,93.78H33.459V68.318h25.462V93.78z M58.921,61.987H33.459V36.521h25.462V61.987z M90.72,157.374H65.252v-25.467H90.72
		V157.374z M90.72,125.578H65.252v-25.459H90.72V125.578z M90.72,93.78H65.252V68.318H90.72V93.78z M90.72,61.987H65.252V36.521
		H90.72V61.987z M97.05,68.318h25.464V93.78H97.05V68.318z"/>
</g>
</svg>
