<?xml version="1.0" encoding="utf-8"?>
<!-- Generator: Adobe Illustrator 17.0.0, SVG Export Plug-In . SVG Version: 6.00 Build 0)  -->
<!DOCTYPE svg PUBLIC "-//W3C//DTD SVG 1.1//EN" "http://www.w3.org/Graphics/SVG/1.1/DTD/svg11.dtd">
<svg version="1.1" id="Layer_1" xmlns="http://www.w3.org/2000/svg" xmlns:xlink="http://www.w3.org/1999/xlink" x="0px" y="0px"
	 width="255px" height="255px" viewBox="1.615 14.23 255 255" enable-background="new 1.615 14.23 255 255" xml:space="preserve">
<g>
	<path fill="#305889" d="M53.722,20.445c-27.256,0-49.339,22.087-49.339,49.339s22.083,49.339,49.339,49.339
		c27.245,0,49.337-22.087,49.337-49.339C103.058,42.532,80.966,20.445,53.722,20.445z M74.483,53.225
		C52.631,91.291,52.297,91.601,52.119,91.767c-0.8,0.746-1.838,1.158-2.932,1.158c-1.181,0-2.321-0.496-3.134-1.358L32.019,78.625
		c-1.676-1.791-1.587-4.515,0.139-6.131c1.656-1.559,4.502-1.464,6.062,0.197l9.863,9.087L67.049,48.93
		c0.758-1.323,2.185-2.148,3.715-2.148c0.753,0,1.493,0.202,2.145,0.577C74.957,48.543,75.662,51.172,74.483,53.225z"/>
	<g>
		<rect x="144.45" y="201.602" fill="#305889" width="8.414" height="26.297"/>
		<rect x="144.45" y="233.333" fill="#305889" width="8.414" height="6.662"/>
		<path fill="#305889" d="M188.096,45.259h-41.055h-31.447h-3.301c3.164,7.545,4.915,15.83,4.915,24.524
			c0,31.399-22.798,57.457-52.737,62.566v21.055v33.459v58.226v18.59h165.145V86.776L188.096,45.259z M148.655,252.891
			c-17.968,0-32.531-14.564-32.531-32.53c0-17.968,14.563-32.531,32.531-32.531c17.97,0,32.535,14.563,32.535,32.531
			C181.189,238.328,166.625,252.891,148.655,252.891z M204.607,176.327h-88.596v-9.547h88.596V176.327z M204.607,155.514h-88.596
			v-9.543h88.596V155.514z M204.607,134.709h-88.596v-9.541h88.596V134.709z M189.656,85.213v-30.86l30.859,30.861L189.656,85.213
			L189.656,85.213z"/>
	</g>
</g>
</svg>
