<?xml version="1.0" encoding="utf-8"?>
<!-- Generator: Adobe Illustrator 16.0.0, SVG Export Plug-In . SVG Version: 6.00 Build 0)  -->
<!DOCTYPE svg PUBLIC "-//W3C//DTD SVG 1.1//EN" "http://www.w3.org/Graphics/SVG/1.1/DTD/svg11.dtd">
<svg version="1.1" id="Layer_1" xmlns="http://www.w3.org/2000/svg" xmlns:xlink="http://www.w3.org/1999/xlink" x="0px" y="0px"
	 width="283.46px" height="283.46px" viewBox="0 0 283.46 283.46" enable-background="new 0 0 283.46 283.46" xml:space="preserve">
<g>
	<g>
		<path fill="#14CF37" d="M177.013,152.305c-27.71,0-50.253,22.543-50.253,50.249c0,27.71,22.543,50.253,50.253,50.253
			c27.709,0,50.257-22.543,50.257-50.253C227.27,174.848,204.722,152.305,177.013,152.305z M193.917,218.462
			c-0.825,1.801-1.95,3.398-3.395,4.669c-1.469,1.339-3.225,2.362-5.276,3.123c-2.043,0.777-4.357,1.291-6.869,1.489l-0.825,8.419
			c-0.045,0.211-0.105,0.409-0.154,0.563c-0.093,0.158-0.251,0.308-0.514,0.413c-0.243,0.097-0.555,0.198-1.02,0.255l0.049,0.048
			c-0.405,0.053-0.976,0.098-1.639,0.098c-0.813,0-1.489-0.045-1.999-0.098c-0.51-0.104-0.931-0.206-1.186-0.359
			c-0.299-0.15-0.453-0.356-0.558-0.555c-0.105-0.263-0.105-0.521-0.049-0.776l0.817-8.007c-1.129-0.149-2.205-0.356-3.181-0.611
			c-1.023-0.255-1.901-0.506-2.714-0.821c-0.821-0.303-1.546-0.61-2.112-0.918c-0.563-0.315-1.027-0.619-1.331-0.923
			c-0.308-0.308-0.51-0.716-0.664-1.339c-0.153-0.563-0.206-1.433-0.206-2.613c0-0.874,0.053-1.639,0.102-2.209
			c0.053-0.559,0.153-1.02,0.259-1.331c0.158-0.312,0.312-0.515,0.51-0.668c0.202-0.097,0.408-0.149,0.676-0.149
			c0.352,0,0.817,0.202,1.484,0.563c0.664,0.404,1.489,0.821,2.509,1.278c1.027,0.461,2.262,0.926,3.682,1.286
			c1.452,0.409,3.144,0.559,5.086,0.559c3.082,0,5.328-0.559,6.829-1.688c1.484-1.133,2.262-2.666,2.262-4.567
			c0-1.278-0.328-2.307-0.983-3.079c-0.668-0.821-1.489-1.533-2.569-2.148c-1.072-0.614-2.306-1.181-3.633-1.643
			c-1.339-0.518-2.723-1.031-4.159-1.537c-1.38-0.57-2.768-1.182-4.155-1.95c-1.331-0.72-2.557-1.639-3.646-2.719
			c-1.063-1.08-1.889-2.354-2.557-3.892c-0.663-1.546-0.979-3.387-0.979-5.547c0-1.942,0.316-3.743,0.979-5.329
			c0.668-1.639,1.586-3.025,2.824-4.268c1.222-1.23,2.768-2.145,4.56-2.913c1.796-0.773,3.848-1.234,6.101-1.542l0.773-7.901
			c0.053-0.198,0.101-0.404,0.149-0.51c0.109-0.153,0.255-0.251,0.518-0.408c0.251-0.094,0.555-0.198,1.02-0.259
			c0.413-0.045,0.983-0.102,1.646-0.102c0.822,0,1.489,0.057,1.995,0.102c0.518,0.097,0.979,0.206,1.229,0.363
			c0.312,0.15,0.462,0.356,0.559,0.559c0.109,0.255,0.109,0.514,0.109,0.769l-0.761,7.44c0.712,0.102,1.537,0.255,2.298,0.404
			c0.83,0.198,1.599,0.417,2.266,0.676c0.713,0.251,1.323,0.51,1.89,0.817c0.563,0.255,0.983,0.514,1.182,0.769
			c0.206,0.207,0.404,0.466,0.514,0.664c0.105,0.214,0.21,0.521,0.263,0.821c0.045,0.359,0.094,0.716,0.146,1.181
			c0.049,0.462,0.049,0.972,0.049,1.595c0,0.817,0,1.484-0.049,1.994c-0.057,0.51-0.101,0.923-0.198,1.182
			c-0.104,0.255-0.21,0.457-0.368,0.566c-0.149,0.102-0.255,0.149-0.453,0.149c-0.368,0-0.829-0.149-1.484-0.51
			c-0.676-0.359-1.448-0.72-2.42-1.08c-0.971-0.412-2.059-0.772-3.285-1.076c-1.229-0.36-2.609-0.514-4.103-0.514
			c-1.331,0-2.508,0.153-3.487,0.408c-0.971,0.26-1.739,0.619-2.354,1.081c-0.615,0.457-1.031,1.02-1.331,1.69
			c-0.255,0.672-0.404,1.384-0.404,2.152c0,1.234,0.299,2.258,0.967,3.083c0.676,0.81,1.533,1.582,2.613,2.148
			c1.085,0.615,2.311,1.137,3.698,1.639c1.38,0.51,2.771,1.027,4.203,1.594c1.425,0.563,2.816,1.186,4.204,1.897
			c1.388,0.717,2.565,1.643,3.686,2.671c1.084,1.067,1.958,2.354,2.569,3.843c0.667,1.538,0.979,3.33,0.979,5.43
			C195.097,214.623,194.685,216.667,193.917,218.462z"/>
		<path fill="#305889" d="M117.567,30.654H81.293H53.504H8.333v59.008v36.546v29.565v51.446v16.426h107.245
			c-1.831-5.239-2.99-10.782-3.389-16.535l-0.107,0.008H53.664v-8.844h58.535c0.267-3.876,0.88-7.655,1.813-11.309H53.664v-8.84
			h63.291c1.675-3.997,3.771-7.771,6.188-11.308H53.664v-8.845h76.731c6.649-6.744,14.773-12.032,23.86-15.306V67.337
			L117.567,30.654z M132.363,146.669H53.664v-8.848h78.699V146.669z M132.363,128.279H53.664v-8.844h78.699V128.279z
			 M132.363,109.895H53.664v-8.84h78.699V109.895z M118.945,65.956V38.687l27.271,27.269H118.945z"/>
	</g>
	<path fill="#FF7D03" d="M274.306,100.072l-35.004-37.086c-1.797-1.924-4.814-2.029-6.74-0.229c-1.922,1.794-2.023,4.813-0.23,6.738
		L258.71,97.44H167.7c-0.126,0-0.255,0.008-0.377,0.02c-2.605,0.231-4.535,2.533-4.301,5.143c0.36,2.452,2.492,4.258,4.969,4.208
		h90.833l-26.403,28.054c-1.708,1.881-1.627,4.774,0.182,6.553c1.861,1.841,4.863,1.822,6.7-0.044l35.004-37.212
		C275.403,103.019,275.403,101.214,274.306,100.072z"/>
</g>
</svg>
