<?xml version="1.0" encoding="utf-8"?>
<!-- Generator: Adobe Illustrator 17.0.0, SVG Export Plug-In . SVG Version: 6.00 Build 0)  -->
<!DOCTYPE svg PUBLIC "-//W3C//DTD SVG 1.1//EN" "http://www.w3.org/Graphics/SVG/1.1/DTD/svg11.dtd">
<svg version="1.1" id="Layer_1" xmlns="http://www.w3.org/2000/svg" xmlns:xlink="http://www.w3.org/1999/xlink" x="0px" y="0px"
	 width="255px" height="255px" viewBox="8.615 14.23 255 255" enable-background="new 8.615 14.23 255 255" xml:space="preserve">
<g>
	<path fill="#14CF37" d="M198.255,155.257c-30.596,0-55.488,24.893-55.488,55.488c0,30.592,24.893,55.485,55.488,55.485
		c30.597,0,55.492-24.893,55.492-55.485C253.747,180.15,228.852,155.257,198.255,155.257z M216.919,228.312
		c-0.912,1.988-2.153,3.748-3.744,5.156c-1.626,1.478-3.565,2.605-5.829,3.449c-2.256,0.853-4.811,1.421-7.586,1.643l-0.911,9.292
		c-0.049,0.233-0.116,0.45-0.17,0.621c-0.103,0.174-0.277,0.34-0.568,0.456c-0.267,0.107-0.612,0.219-1.125,0.282l0.054,0.054
		c-0.446,0.058-1.077,0.106-1.809,0.106c-0.898,0-1.644-0.049-2.207-0.106c-0.563-0.116-1.028-0.228-1.309-0.398
		c-0.331-0.166-0.501-0.394-0.617-0.613c-0.116-0.286-0.116-0.576-0.054-0.858l0.902-8.836c-1.246-0.169-2.435-0.393-3.511-0.674
		c-1.13-0.287-2.099-0.559-2.997-0.911c-0.906-0.335-1.707-0.675-2.332-1.014c-0.622-0.349-1.134-0.684-1.469-1.014
		c-0.34-0.339-0.563-0.79-0.732-1.478c-0.17-0.622-0.228-1.582-0.228-2.89c0-0.96,0.058-1.805,0.112-2.439
		c0.058-0.616,0.17-1.125,0.286-1.469c0.174-0.343,0.344-0.567,0.563-0.737c0.223-0.107,0.451-0.166,0.745-0.166
		c0.389,0,0.903,0.223,1.64,0.622c0.732,0.45,1.644,0.906,2.77,1.415c1.134,0.51,2.498,1.024,4.064,1.416
		c1.604,0.451,3.471,0.622,5.621,0.622c3.4,0,5.879-0.622,7.535-1.868c1.64-1.251,2.498-2.939,2.498-5.044
		c0-1.406-0.362-2.541-1.086-3.395c-0.737-0.906-1.643-1.697-2.836-2.377c-1.184-0.674-2.546-1.305-4.012-1.809
		c-1.479-0.577-3.007-1.139-4.593-1.702c-1.524-0.63-3.056-1.305-4.588-2.153c-1.469-0.79-2.824-1.81-4.025-3.002
		c-1.175-1.188-2.086-2.6-2.824-4.297c-0.732-1.707-1.081-3.739-1.081-6.121c0-2.149,0.349-4.133,1.081-5.888
		c0.738-1.81,1.751-3.341,3.118-4.709c1.35-1.358,3.055-2.368,5.034-3.222c1.984-0.849,4.249-1.357,6.737-1.697l0.853-8.729
		c0.058-0.219,0.112-0.447,0.17-0.562c0.116-0.17,0.277-0.277,0.568-0.451c0.277-0.103,0.612-0.219,1.125-0.282
		c0.455-0.049,1.086-0.112,1.817-0.112c0.906,0,1.644,0.062,2.202,0.112c0.572,0.107,1.081,0.223,1.358,0.398
		c0.344,0.166,0.51,0.397,0.617,0.616c0.121,0.282,0.121,0.568,0.121,0.854l-0.84,8.211c0.786,0.112,1.697,0.282,2.537,0.446
		c0.916,0.223,1.765,0.461,2.501,0.746c0.786,0.277,1.461,0.567,2.086,0.902c0.622,0.282,1.086,0.568,1.305,0.853
		c0.228,0.223,0.451,0.51,0.572,0.733c0.112,0.233,0.228,0.571,0.287,0.906c0.049,0.394,0.102,0.79,0.16,1.3
		c0.054,0.51,0.054,1.077,0.054,1.76c0,0.903,0,1.64-0.054,2.203c-0.062,0.567-0.111,1.023-0.218,1.309
		c-0.116,0.277-0.228,0.504-0.407,0.621c-0.166,0.112-0.277,0.17-0.501,0.17c-0.406,0-0.916-0.17-1.639-0.568
		c-0.746-0.397-1.6-0.795-2.672-1.188c-1.072-0.46-2.273-0.858-3.623-1.193c-1.362-0.393-2.886-0.567-4.534-0.567
		c-1.469,0-2.77,0.174-3.851,0.45c-1.072,0.29-1.922,0.684-2.6,1.193c-0.678,0.51-1.139,1.13-1.469,1.868
		c-0.281,0.742-0.446,1.528-0.446,2.377c0,1.362,0.33,2.498,1.068,3.404c0.745,0.897,1.693,1.747,2.885,2.372
		c1.198,0.679,2.551,1.255,4.083,1.814c1.524,0.558,3.06,1.13,4.641,1.755c1.573,0.622,3.109,1.309,4.641,2.095
		c1.533,0.791,2.833,1.814,4.074,2.954c1.193,1.179,2.157,2.596,2.833,4.239c0.737,1.697,1.081,3.682,1.081,5.996
		C218.223,224.068,217.768,226.325,216.919,228.312z"/>
	<path fill="#305889" d="M132.618,20.937H92.564H61.88H12.003v65.155v40.353v32.641v56.806v18.138H130.42
		c-2.022-5.78-3.301-11.905-3.741-18.258l-0.118,0.009H62.057v-9.766h64.632c0.295-4.279,0.971-8.448,2.001-12.486H62.057v-9.762
		h69.884c1.849-4.414,4.165-8.582,6.832-12.487H62.057v-9.761h84.726c7.34-7.452,16.309-13.291,26.343-16.902V61.442L132.618,20.937
		z M148.954,149.04H62.057v-9.771h86.897V149.04z M148.954,128.732H62.057v-9.766h86.897V128.732z M148.954,108.433H62.057v-9.761
		h86.897V108.433z M134.139,59.916v-30.11l30.111,30.11H134.139z"/>
</g>
</svg>
