<?xml version="1.0" encoding="utf-8"?>
<!-- Generator: Adobe Illustrator 17.0.0, SVG Export Plug-In . SVG Version: 6.00 Build 0)  -->
<!DOCTYPE svg PUBLIC "-//W3C//DTD SVG 1.1//EN" "http://www.w3.org/Graphics/SVG/1.1/DTD/svg11.dtd">
<svg version="1.1" id="Layer_1" xmlns="http://www.w3.org/2000/svg" xmlns:xlink="http://www.w3.org/1999/xlink" x="0px" y="0px"
	 width="255px" height="255px" viewBox="14.23 14.23 255 255" enable-background="new 14.23 14.23 255 255" xml:space="preserve">
<g>
	<path fill="#2E5788" d="M59.341,120.449L59.341,120.449c-7.22,0-13.074,5.852-13.074,13.073l0,0
		c0,7.219,5.854,13.073,13.074,13.073l0,0c7.22,0,13.074-5.852,13.074-13.073l0,0C72.415,126.301,66.561,120.449,59.341,120.449z"/>
	<path fill="#2E5788" d="M96.582,120.449L96.582,120.449c-7.22,0-13.073,5.852-13.073,13.073l0,0
		c0,7.219,5.852,13.073,13.073,13.073l0,0c7.225,0,13.074-5.852,13.074-13.073l0,0C109.656,126.301,103.807,120.449,96.582,120.449z
		"/>
	<path fill="#2E5788" d="M59.341,159.132L59.341,159.132c-7.22,0-13.074,5.85-13.074,13.073l0,0c0,7.222,5.854,13.073,13.074,13.073
		l0,0c7.22,0,13.074-5.85,13.074-13.073l0,0C72.415,164.982,66.561,159.132,59.341,159.132z"/>
	<path fill="#2E5788" d="M96.582,159.132L96.582,159.132c-7.22,0-13.073,5.85-13.073,13.073l0,0c0,7.222,5.852,13.073,13.073,13.073
		l0,0c7.225,0,13.074-5.85,13.074-13.073l0,0C109.656,164.982,103.807,159.132,96.582,159.132z"/>
	<path fill="#2E5788" d="M59.341,197.814L59.341,197.814c-7.22,0-13.074,5.854-13.074,13.072l0,0
		c0,7.218,5.854,13.073,13.074,13.073l0,0c7.22,0,13.074-5.854,13.074-13.073l0,0C72.415,203.668,66.561,197.814,59.341,197.814z"/>
	<path fill="#2E5788" d="M96.582,197.814L96.582,197.814c-7.22,0-13.073,5.854-13.073,13.072l0,0
		c0,7.218,5.852,13.073,13.073,13.073l0,0c7.225,0,13.074-5.854,13.074-13.073l0,0C109.656,203.668,103.807,197.814,96.582,197.814z
		"/>
	<path fill="#2E5788" d="M135.179,120.449L135.179,120.449c-7.219,0-13.073,5.852-13.073,13.073l0,0
		c0,7.219,5.852,13.073,13.073,13.073l0,0c7.226,0,13.075-5.852,13.075-13.073l0,0C148.254,126.301,142.405,120.449,135.179,120.449
		z"/>
	<path fill="#2E5788" d="M135.179,159.132L135.179,159.132c-7.219,0-13.073,5.85-13.073,13.073l0,0
		c0,7.222,5.852,13.073,13.073,13.073l0,0c7.226,0,13.075-5.85,13.075-13.073l0,0C148.254,164.982,142.405,159.132,135.179,159.132z
		"/>
	<path fill="#2E5788" d="M135.179,197.814L135.179,197.814c-7.219,0-13.073,5.854-13.073,13.072l0,0
		c0,7.218,5.852,13.073,13.073,13.073l0,0c7.226,0,13.075-5.854,13.075-13.073l0,0C148.254,203.668,142.405,197.814,135.179,197.814
		z"/>
	<path fill="#2E5788" d="M158.217,244.741c0.281-0.792,0.627-1.967,0.982-3.615H38.951c-8.84,0-16.034-7.195-16.034-16.039V104.855
		h185.577v44.075c1.1-0.175,2.215-0.29,3.348-0.29c0.783,0,1.552,0.046,2.322,0.129V71.582c0.004-11.108-8.387-20.278-19.157-21.545
		v-8.141c0-4.118-3.352-7.469-7.475-7.469h-6.176c-4.119,0-7.472,3.351-7.472,7.469v7.98h-48.121v-7.98
		c0-4.118-3.349-7.469-7.472-7.469h-6.174c-4.119,0-7.472,3.351-7.472,7.469v7.98H56.522v-7.98c0-4.118-3.351-7.469-7.472-7.469
		h-6.176c-4.118,0-7.475,3.351-7.475,7.469v8.286c-10.373,1.683-18.16,10.598-18.16,21.4v153.504
		c0,11.972,9.742,21.709,21.706,21.709h113.86C154.441,245.838,156.255,245.129,158.217,244.741z"/>
	<path fill="#2E5788" d="M179.563,41.896c0-0.99,0.806-1.797,1.797-1.797h6.176c0.994,0,1.801,0.806,1.801,1.797v21.623
		c0,0.995-0.806,1.797-1.801,1.797h-6.176c-0.99,0-1.797-0.801-1.797-1.797V41.896z"/>
	<path fill="#2E5788" d="M110.32,41.896c0-0.99,0.808-1.797,1.798-1.797h6.176c0.99,0,1.797,0.806,1.797,1.797v21.623
		c0,0.995-0.806,1.797-1.797,1.797h-6.176c-0.99,0-1.798-0.801-1.798-1.797C110.32,63.519,110.32,41.896,110.32,41.896z"/>
	<path fill="#2E5788" d="M41.078,41.896c0-0.99,0.804-1.797,1.797-1.797h6.176c0.995,0,1.801,0.806,1.801,1.797v21.623
		c0,0.995-0.806,1.797-1.801,1.797h-6.176c-0.993,0-1.797-0.801-1.797-1.797C41.078,63.519,41.078,41.896,41.078,41.896z"/>
	<path fill="#2E5788" d="M22.911,71.582c0-7.658,5.293-14.023,12.492-15.631v7.568c0,4.119,3.353,7.472,7.471,7.472h6.176
		c4.12,0,7.476-3.353,7.476-7.472v-7.977h48.125v7.977c0,4.119,3.353,7.472,7.472,7.472h6.172c4.118,0,7.474-3.353,7.474-7.472
		v-7.977h48.124v7.977c0,4.119,3.353,7.472,7.472,7.472h6.181c4.119,0,7.467-3.353,7.467-7.472V55.77
		c7.636,1.227,13.491,7.84,13.491,15.813v27.598H22.911V71.582z"/>
	<g>
		<path fill="#087EF4" d="M251.551,160.559v-3.841c0-1.94-1.58-3.52-3.52-3.52h-2.915c-1.944,0-3.52,1.58-3.52,3.52v3.763h-22.69
			v-3.763c0-1.94-1.58-3.52-3.524-3.52h-2.911c-1.939,0-3.519,1.58-3.519,3.52v3.763h-22.687v-3.763c0-1.94-1.581-3.52-3.524-3.52
			h-2.912c-1.943,0-3.528,1.58-3.528,3.52v3.906c-4.887,0.798-8.562,4.998-8.562,10.092v72.371c0,5.647,4.597,10.236,10.239,10.236
			h72.372c5.647,0,10.235-4.589,10.235-10.236v-72.371C260.588,165.479,256.632,161.158,251.551,160.559z M244.274,156.718
			c0-0.465,0.378-0.843,0.842-0.843h2.915c0.47,0,0.848,0.379,0.848,0.843v10.198c0,0.465-0.378,0.847-0.848,0.847h-2.915
			c-0.465,0-0.842-0.382-0.842-0.847V156.718z M211.63,156.718c0-0.465,0.378-0.843,0.842-0.843h2.911
			c0.47,0,0.848,0.379,0.848,0.843v10.198c0,0.465-0.378,0.847-0.848,0.847h-2.911c-0.465,0-0.842-0.382-0.842-0.847V156.718z
			 M178.982,156.718c0-0.465,0.378-0.843,0.847-0.843h2.912c0.469,0,0.847,0.379,0.847,0.843v10.198
			c0,0.465-0.378,0.847-0.847,0.847h-2.912c-0.469,0-0.847-0.382-0.847-0.847V156.718z M176.306,163.35v3.565
			c0,1.943,1.58,3.524,3.523,3.524h2.912c1.943,0,3.524-1.581,3.524-3.524v-3.763h22.69v3.763c0,1.943,1.58,3.524,3.524,3.524h2.911
			c1.939,0,3.519-1.581,3.519-3.524v-3.763h22.695v3.763c0,1.943,1.58,3.524,3.519,3.524h2.916c1.939,0,3.519-1.581,3.519-3.524
			v-3.653c3.598,0.576,6.357,3.694,6.357,7.453v13.012h-87.498v-13.012C170.414,167.11,172.911,164.107,176.306,163.35z
			 M250.345,250.651h-72.368c-4.168,0-7.563-3.39-7.563-7.563v-56.682h87.498v56.682
			C257.913,247.261,254.517,250.651,250.345,250.651z"/>
		<path fill="#087EF4" d="M187.59,193.756L187.59,193.756c-3.404,0-6.163,2.76-6.163,6.164l0,0c0,3.403,2.759,6.163,6.163,6.163l0,0
			c3.404,0,6.163-2.76,6.163-6.163l0,0C193.753,196.515,190.995,193.756,187.59,193.756z"/>
		<path fill="#087EF4" d="M205.149,193.756L205.149,193.756c-3.404,0-6.163,2.76-6.163,6.164l0,0c0,3.403,2.759,6.163,6.163,6.163
			l0,0c3.404,0,6.163-2.76,6.163-6.163l0,0C211.312,196.515,208.553,193.756,205.149,193.756z"/>
		<path fill="#087EF4" d="M222.708,193.756c-3.404,0-6.163,2.76-6.163,6.164l0,0c0,3.403,2.754,6.163,6.163,6.163
			c3.4,0,6.164-2.76,6.164-6.163l0,0C228.872,196.515,226.112,193.756,222.708,193.756z"/>
		<path fill="#087EF4" d="M187.59,211.996L187.59,211.996c-3.404,0-6.163,2.76-6.163,6.159l0,0c0,3.409,2.759,6.163,6.163,6.163l0,0
			c3.404,0,6.163-2.754,6.163-6.163l0,0C193.753,214.756,190.995,211.996,187.59,211.996z"/>
		<path fill="#087EF4" d="M205.149,211.996L205.149,211.996c-3.404,0-6.163,2.76-6.163,6.159l0,0c0,3.409,2.759,6.163,6.163,6.163
			l0,0c3.404,0,6.163-2.754,6.163-6.163l0,0C211.312,214.756,208.553,211.996,205.149,211.996z"/>
		<path fill="#087EF4" d="M222.708,211.996c-3.404,0-6.163,2.76-6.163,6.159l0,0c0,3.409,2.754,6.163,6.163,6.163
			c3.4,0,6.164-2.754,6.164-6.163l0,0C228.872,214.756,226.112,211.996,222.708,211.996z"/>
		<path fill="#087EF4" d="M222.708,230.232c-3.404,0-6.163,2.759-6.163,6.163l0,0c0,3.404,2.754,6.163,6.163,6.163
			c3.4,0,6.164-2.759,6.164-6.163l0,0C228.872,232.991,226.112,230.232,222.708,230.232z"/>
		<path fill="#087EF4" d="M240.267,193.756c-3.404,0-6.164,2.76-6.164,6.164l0,0c0,3.403,2.76,6.163,6.164,6.163
			c3.403,0,6.163-2.76,6.163-6.163l0,0C246.43,196.515,243.67,193.756,240.267,193.756z"/>
		<path fill="#087EF4" d="M240.267,211.996c-3.404,0-6.164,2.76-6.164,6.159l0,0c0,3.409,2.76,6.163,6.164,6.163
			c3.403,0,6.163-2.754,6.163-6.163l0,0C246.43,214.756,243.67,211.996,240.267,211.996z"/>
		<path fill="#087EF4" d="M240.267,230.232c-3.404,0-6.164,2.759-6.164,6.163l0,0c0,3.404,2.76,6.163,6.164,6.163
			c3.403,0,6.163-2.759,6.163-6.163l0,0C246.43,232.991,243.67,230.232,240.267,230.232z"/>
		<path fill="#087EF4" d="M187.59,230.232L187.59,230.232c-3.404,0-6.163,2.759-6.163,6.163l0,0c0,3.404,2.759,6.163,6.163,6.163
			l0,0c3.404,0,6.163-2.759,6.163-6.163l0,0C193.753,232.991,190.995,230.232,187.59,230.232z"/>
		<path fill="#087EF4" d="M205.149,230.232L205.149,230.232c-3.404,0-6.163,2.759-6.163,6.163l0,0c0,3.404,2.759,6.163,6.163,6.163
			l0,0c3.404,0,6.163-2.759,6.163-6.163l0,0C211.312,232.991,208.553,230.232,205.149,230.232z"/>
	</g>
</g>
</svg>
