<?xml version="1.0" encoding="utf-8"?>
<!-- Generator: Adobe Illustrator 17.0.0, SVG Export Plug-In . SVG Version: 6.00 Build 0)  -->
<!DOCTYPE svg PUBLIC "-//W3C//DTD SVG 1.1//EN" "http://www.w3.org/Graphics/SVG/1.1/DTD/svg11.dtd">
<svg version="1.1" id="Layer_1" xmlns="http://www.w3.org/2000/svg" xmlns:xlink="http://www.w3.org/1999/xlink" x="0px" y="0px"
	 width="255px" height="255px" viewBox="14.23 14.23 255 255" enable-background="new 14.23 14.23 255 255" xml:space="preserve">
<g>
	
		<linearGradient id="SVGID_1_" gradientUnits="userSpaceOnUse" x1="608.9587" y1="689.6843" x2="894.1021" y2="700.9677" gradientTransform="matrix(1 0 0 1 -564 -507.54)">
		<stop  offset="0" style="stop-color:#1F4D85"/>
		<stop  offset="1" style="stop-color:#386FB0"/>
	</linearGradient>
	<path fill="url(#SVGID_1_)" d="M192.023,141.106c-6.252,0.163-15.686,3.591-28.763,7.241c-17.43,4.865-44.187,27.454-45.424,29.397
		c-1.245,1.94,5.958,12.749,8.453,14.449c2.491,1.698,42.677-8.629,41.271-6.266c-1.406,2.366-37.526,11.607-38.637,13.84
		c-1.116,2.235-10.736-2.962-10.831-3.972c-0.095-1.007-7.059-13.666-7.059-13.666s-72.765-14.475-77.506-14.138
		c-4.746,0.338-15.366,9.552-14.373,12.608c0.996,3.053,113.052,51.256,118.308,52.092c5.26,0.83,69.251-33.228,77.906-37.384
		c8.654-4.152,28.342,3.262,28.342,3.262l16.449-37.273c0,0-57.354-16.003-62.927-19.147
		C195.838,141.366,194.107,141.055,192.023,141.106L192.023,141.106z"/>
	<path fill="#087EF4" d="M159.204,109.176c0,31.461-26.961,55.932-58.177,53.174c19.315-10.239,32.473-30.548,32.473-53.934
		c0-22.397-12.071-41.966-30.055-52.582C133.828,54.505,159.204,78.731,159.204,109.176z"/>
	<path fill="#305889" d="M72.485,55.021c-29.489,0-53.396,23.907-53.396,53.395c0,29.489,23.907,53.394,53.396,53.394
		c29.485,0,53.394-23.905,53.394-53.394C125.878,78.928,101.97,55.021,72.485,55.021z M76.305,132.697v7.962h-8.321v-7.417
		c-5.684-0.231-11.202-1.64-14.423-3.353l2.541-9.14c3.562,1.794,8.574,3.432,14.088,3.432c4.841,0,8.147-1.715,8.147-4.841
		c0-2.972-2.709-4.847-8.991-6.793c-9.083-2.812-15.28-6.72-15.28-14.296c0-6.871,5.257-12.269,14.343-13.9v-7.426h8.318V83.8
		c5.686,0.238,9.506,1.329,12.308,2.581l-2.46,8.819c-2.2-0.853-6.116-2.654-12.223-2.654c-5.52,0-7.3,2.187-7.3,4.382
		c0,2.572,2.977,4.209,10.185,6.712c10.097,3.275,14.173,7.578,14.173,14.606C91.408,125.196,86.058,131.136,76.305,132.697z"/>
</g>
</svg>
