<?xml version="1.0" encoding="utf-8"?>
<!-- Generator: Adobe Illustrator 17.0.0, SVG Export Plug-In . SVG Version: 6.00 Build 0)  -->
<!DOCTYPE svg PUBLIC "-//W3C//DTD SVG 1.1//EN" "http://www.w3.org/Graphics/SVG/1.1/DTD/svg11.dtd">
<svg version="1.1" id="Layer_1" xmlns="http://www.w3.org/2000/svg" xmlns:xlink="http://www.w3.org/1999/xlink" x="0px" y="0px"
	 width="255px" height="255px" viewBox="-2.885 14.23 255 255" enable-background="new -2.885 14.23 255 255" xml:space="preserve">
<g>
	<g>
		<path fill="#14CF37" d="M102.851,52.114H80.699c-3.283,0-4.553-1.643-5.36-3.252c-0.483-1.121-1.974-2.538-3.419-3.909
			c-3.605-3.417-9.051-8.584-4.629-14.835c1.251-1.776,1.625-2.104,3.332-2.924c0.299-0.142,0.673-0.32,1.144-0.562l0.332-0.139
			c2.851-0.954,4.28-0.851,5.82-0.574c0.894,0.165,2.003,0.368,4.249,0.368c1.668,0,3.737-0.118,6.139-0.348l1.274-0.181
			c3.51-0.488,6.045-0.84,7.713-2.505L97.46,23.1c2.546-2.112,5.701-3.322,8.659-3.322c3.143,0,5.913,1.361,7.807,3.838
			c0.393,0.518,0.642,0.725,0.935,0.967c1.115,0.923,1.716,1.745,2.371,4.188c1.615,6.025-2.275,11.011-5.703,15.411
			c-1.305,1.676-2.54,3.258-3.383,4.773C107.404,50.462,106.144,52.114,102.851,52.114z M80.038,47.13
			c0.02,0,0.211,0.054,0.661,0.054h22.152c0.465,0,0.655-0.057,0.692-0.068c-0.016-0.002,0.07-0.114,0.239-0.456
			c1.083-1.95,2.494-3.758,3.857-5.507c2.988-3.835,5.807-7.455,4.829-11.109c-0.359-1.333-0.456-1.418-0.757-1.666
			c-0.389-0.323-0.975-0.81-1.706-1.774c-0.962-1.258-2.271-1.896-3.886-1.896c-1.771,0-3.799,0.791-5.434,2.123
			c-2.821,2.756-6.517,3.267-10.425,3.809l-1.365,0.194c-2.715,0.26-4.876,0.384-6.727,0.384c-2.692,0-4.098-0.258-5.129-0.444
			c-0.516-0.097-0.805-0.147-1.078-0.147c-0.306,0-0.825,0.057-2.13,0.485c-0.43,0.221-0.786,0.389-1.078,0.527
			c-0.306,0.147-0.65,0.314-0.722,0.371c-0.111,0.097-0.487,0.634-0.714,0.952c-1.664,2.352-0.399,4.247,3.993,8.414
			c1.896,1.797,3.683,3.492,4.502,5.412c0.111,0.221,0.202,0.32,0.223,0.341H80.038z"/>
	</g>
	<g>
		<path fill="#14CF37" d="M105.373,61.607H79.444c-3.799,0-6.248-1.957-6.248-4.995c0-3.579,2.684-6.274,6.248-6.274h25.928
			c3.13,0,5.436,2.189,5.61,5.253c0.328,1.325,0.075,2.635-0.714,3.725C109.243,60.727,107.371,61.607,105.373,61.607z
			 M78.131,56.474c0.201,0.087,0.624,0.202,1.313,0.202h25.928c0.33,0,0.585-0.078,0.747-0.157l-0.049-0.14v-0.411
			c0-0.541-0.157-0.698-0.698-0.698H79.444C78.868,55.271,78.189,55.482,78.131,56.474z"/>
	</g>
	<path fill="#14CF37" d="M145.766,136.416c-0.025-0.915-0.057-1.828-0.107-2.73c-0.037-0.595-0.081-1.183-0.127-1.771
		c-0.064-0.865-0.142-1.722-0.233-2.573c-0.066-0.59-0.13-1.186-0.207-1.772c-0.107-0.842-0.233-1.681-0.367-2.514
		c-0.089-0.572-0.178-1.144-0.282-1.71c-0.152-0.863-0.334-1.715-0.515-2.566c-0.109-0.518-0.212-1.045-0.335-1.56
		c-0.237-1.013-0.508-2.017-0.782-3.017c-0.094-0.337-0.171-0.678-0.271-1.011c-0.006-0.02-0.011-0.041-0.015-0.062l-0.003,0.004
		c-3.69-12.604-10.484-23.976-20.473-34.334c-0.645-0.648-1.305-1.294-1.965-1.947l-0.657-0.645
		c-0.673-0.766-1.351-1.542-2.028-2.316c-0.565-0.65-1.129-1.309-1.694-1.968c-0.402-0.472-0.803-0.946-1.204-1.418
		c-0.462-0.551-0.921-1.103-1.375-1.658c-0.513-0.629-1.013-1.264-1.509-1.9c-0.34-0.431-0.685-0.863-1.016-1.299
		c-0.828-1.093-1.633-2.197-2.391-3.316c-0.939-2.447-2.785-3.06-4.172-3.212c-0.465-0.052-0.875-0.052-1.187-0.052H81.07
		c-0.314,0-0.722,0-1.189,0.052c-1.387,0.152-3.233,0.766-4.17,3.212c-0.76,1.119-1.563,2.223-2.391,3.316
		c-0.33,0.436-0.677,0.867-1.016,1.299c-0.495,0.636-0.997,1.27-1.511,1.9c-0.454,0.555-0.912,1.106-1.375,1.658
		c-0.399,0.473-0.797,0.946-1.201,1.418c-0.566,0.659-1.132,1.318-1.697,1.968c-0.675,0.774-1.354,1.55-2.024,2.316l-0.658,0.645
		c-0.66,0.652-1.32,1.299-1.963,1.947c-9.992,10.358-16.786,21.73-20.476,34.334l-0.002-0.004c-0.008,0.02-0.008,0.041-0.017,0.062
		c-0.098,0.335-0.177,0.675-0.268,1.011c-0.277,1-0.545,2.003-0.784,3.017c-0.124,0.516-0.223,1.043-0.335,1.56
		c-0.181,0.851-0.361,1.704-0.516,2.566c-0.103,0.565-0.19,1.138-0.281,1.71c-0.132,0.834-0.258,1.673-0.366,2.514
		c-0.075,0.586-0.142,1.181-0.204,1.772c-0.091,0.851-0.17,1.707-0.24,2.573c-0.043,0.588-0.087,1.177-0.119,1.771
		c-0.054,0.902-0.087,1.815-0.111,2.73c-0.016,0.559-0.037,1.119-0.043,1.683c-0.01,1.028,0.006,2.067,0.026,3.11
		c0.013,0.464,0.006,0.925,0.025,1.393c0.052,1.516,0.132,3.043,0.252,4.593c0.002,0.006,0.002,0.01,0.005,0.016
		c0.008,0.132,0.037,0.247,0.046,0.38c0.091,1.103,0.214,2.174,0.404,3.175c0.851,4.476,2.711,7.937,5.608,10.428
		c0.016,0.016,0.026,0.035,0.046,0.047c0.39,0.335,0.851,0.605,1.28,0.906c1.974,1.373,4.299,2.419,7.082,3.061
		c1.882,0.565,3.807,1.072,5.74,1.539c0.644,0.158,1.284,0.326,1.931,0.471v0.332l0.506,0.094l1.518,0.279
		c1.747,0.318,3.52,0.598,5.315,0.853c4.868,0.694,9.966,1.135,15.34,1.373c1.227,0.054,2.432,0.121,3.69,0.152h0.002l0.207,0.005
		c0.616,0.013,1.235,0.026,1.852,0.035c0.376,0.005,0.758,0.006,1.135,0.011c0.438,0.005,0.875,0.008,1.315,0.01l0.427,0.005h0.099
		h0.103l0.425-0.005c0.44-0.002,0.875-0.005,1.317-0.01c0.376-0.005,0.758-0.006,1.132-0.011c0.619-0.008,1.238-0.022,1.854-0.035
		l0.206-0.005l0,0c1.259-0.031,2.466-0.098,3.692-0.152c5.377-0.238,10.472-0.679,15.341-1.373c1.792-0.254,3.568-0.534,5.314-0.853
		l1.516-0.279l0.508-0.094v-0.332c0.647-0.144,1.286-0.314,1.93-0.471c1.931-0.469,3.856-0.974,5.74-1.539
		c2.786-0.642,5.109-1.689,7.082-3.061c0.43-0.302,0.89-0.572,1.28-0.906c0.019-0.013,0.028-0.031,0.043-0.047
		c2.899-2.49,4.758-5.951,5.608-10.428c0.19-1.001,0.314-2.072,0.404-3.175c0.013-0.133,0.037-0.248,0.05-0.38
		c0-0.006,0-0.01,0-0.01c0.119-1.555,0.202-3.083,0.254-4.598c0.015-0.469,0.015-0.929,0.025-1.394
		c0.022-1.043,0.035-2.081,0.026-3.11C145.803,137.535,145.785,136.975,145.766,136.416z M97.047,145.108v7.805h-8.153v-7.272
		c-5.573-0.225-10.982-1.609-14.137-3.289l2.492-8.952c3.494,1.757,8.401,3.362,13.806,3.362c4.743,0,7.986-1.681,7.986-4.745
		c0-2.909-2.657-4.747-8.812-6.661c-8.901-2.752-14.977-6.584-14.977-14.007c0-6.737,5.155-12.023,14.059-13.625v-7.276h8.149v6.737
		c5.572,0.231,9.314,1.303,12.065,2.525l-2.413,8.651c-2.156-0.838-5.992-2.606-11.977-2.606c-5.408,0-7.154,2.147-7.154,4.291
		c0,2.525,2.911,4.131,9.979,6.582c9.899,3.213,13.891,7.425,13.891,14.314C111.843,137.757,106.607,143.576,97.047,145.108z"/>
	<g>
		<path fill="#305889" d="M171.154,242.851h-7.194l-59.534,19.655c-1.842,0.989-9.345,4.329-17.174-0.212l-0.087-0.042
			L5.568,216.886c-0.301-0.168-0.557-0.378-0.768-0.592l0,0c0-0.052-7.293-7.371-2.833-15.681l0,0
			c0-0.041,4.881-10.406,14.308-7.792c23.687,6.555,38.975,20.172,53.069,23.689c18.378,3.297,31.224,2.141,48.529-5.187
			c-5.222-0.508-13.621-0.036-22.189,0.346c-2.61,0.124-5.269,0.212-7.879,0.299c-26.046,0.685-27.24-7.84-21.719-14.048
			c5.351-5.998,9.977-6.128,16.79-6.128h26.087c4.155-1.881,25.523-11.392,37.049-13.45c0.042,0,0.085,0,0.127,0
			c5.144-0.897,11.527-1.197,17.307-1.197c2.783,0,5.441,0.044,7.707,0.13v65.659L171.154,242.851L171.154,242.851z"/>
		<path fill="#305889" d="M182.251,161.977h29.855c2.092,0,3.979,0.86,5.391,2.227l0,0l0,0l0,0l0,0
			c1.373,1.414,2.275,3.304,2.275,5.397v80.568c0,2.106-0.863,3.984-2.232,5.399l0,0l0,0l0,0l0,0
			c-1.408,1.367-3.293,2.271-5.397,2.271h-29.862c-1.961,0-3.803-0.774-5.17-2.013c-0.093-0.089-0.173-0.175-0.26-0.214
			c-1.372-1.369-2.275-3.298-2.275-5.443v-80.568c0-2.093,0.865-4.025,2.275-5.438l0,0c1.41-1.413,3.295-2.271,5.399-2.271
			L182.251,161.977L182.251,161.977z"/>
	</g>
</g>
</svg>
