<?xml version="1.0" encoding="utf-8"?>
<!-- Generator: Adobe Illustrator 17.0.0, SVG Export Plug-In . SVG Version: 6.00 Build 0)  -->
<!DOCTYPE svg PUBLIC "-//W3C//DTD SVG 1.1//EN" "http://www.w3.org/Graphics/SVG/1.1/DTD/svg11.dtd">
<svg version="1.1" id="Layer_1" xmlns="http://www.w3.org/2000/svg" xmlns:xlink="http://www.w3.org/1999/xlink" x="0px" y="0px"
	 width="255px" height="255px" viewBox="14.23 14.23 255 255" enable-background="new 14.23 14.23 255 255" xml:space="preserve">
<g>
	<path fill="#305889" d="M254.034,77.025c6.752,0,12.219-5.471,12.219-12.221c0-6.747-5.467-12.219-12.219-12.219h-34.578
		c-1.59-0.019-3.166,0.272-4.645,0.856c-2.984,1.242-5.356,3.613-6.599,6.598c-0.613,1.517-0.947,3.131-0.976,4.765l0,0v34.46
		c0,6.749,5.472,12.219,12.22,12.219c5.274-0.075,9.905-3.523,11.486-8.553c21.783,49.398-0.604,107.102-50.001,128.886
		c-25.949,11.444-55.59,11.053-81.231-1.072c-5.603-3.762-13.195-2.275-16.958,3.327c-3.764,5.6-2.277,13.195,3.326,16.958
		c0.926,0.621,1.935,1.115,3.002,1.465c61.017,28.825,133.847,2.728,162.674-58.291c17.809-37.697,15.167-81.871-7.007-117.177
		L254.034,77.025L254.034,77.025z"/>
	<path fill="#305889" d="M64.028,173.556c-5.352,0.039-10.058,3.555-11.608,8.679C30.511,132.889,52.749,75.13,102.089,53.219
		c26.081-11.581,55.92-11.186,81.684,1.079c5.603,3.764,13.195,2.275,16.958-3.326c3.767-5.603,2.277-13.193-3.323-16.958
		c-0.93-0.624-1.939-1.115-3.005-1.465c-60.89-29.087-133.833-3.302-162.92,57.595c-7.814,16.357-11.89,34.247-11.931,52.378
		c-0.037,23.223,6.623,45.963,19.185,65.494h-9.288c-6.747,0-12.219,5.472-12.219,12.22c0,6.747,5.472,12.219,12.219,12.219h34.578
		c1.506-0.012,3-0.302,4.401-0.856c2.985-1.239,5.356-3.61,6.596-6.598c0.568-1.487,0.901-3.053,0.98-4.642l0,0v-34.581
		C76.004,179.121,70.68,173.689,64.028,173.556z"/>
	<path fill="#305889" d="M138.137,219.773c-0.897,0.122-2.157,0.225-3.635,0.225c-1.811,0-3.318-0.103-4.443-0.225
		c-1.132-0.23-2.063-0.453-2.631-0.8c-0.674-0.331-1.013-0.787-1.24-1.228c-0.234-0.582-0.234-1.163-0.111-1.727l1.815-17.777
		c-2.508-0.337-4.895-0.794-7.061-1.356c-2.281-0.575-4.215-1.128-6.04-1.83c-1.813-0.674-3.422-1.357-4.678-2.036
		c-1.249-0.705-2.277-1.38-2.961-2.052c-0.676-0.683-1.132-1.589-1.478-2.969c-0.335-1.249-0.447-3.188-0.447-5.813
		c0-1.934,0.111-3.627,0.223-4.9c0.117-1.242,0.338-2.267,0.57-2.959c0.346-0.693,0.683-1.138,1.132-1.486
		c0.443-0.214,0.91-0.333,1.497-0.333c0.794,0,1.822,0.448,3.301,1.254c1.465,0.904,3.3,1.827,5.565,2.843
		c2.273,1.027,5.021,2.05,8.195,2.851c3.213,0.914,6.977,1.245,11.29,1.245c6.837,0,11.839-1.245,15.141-3.748
		c3.327-2.515,5.036-5.918,5.036-10.138c0-2.844-0.708-5.127-2.174-6.839c-1.499-1.826-3.31-3.414-5.711-4.774
		c-2.384-1.362-5.119-2.629-8.072-3.654c-2.971-1.144-6.047-2.284-9.234-3.407c-3.063-1.27-6.134-2.629-9.222-4.337
		c-2.976-1.593-5.692-3.641-8.092-6.037c-2.374-2.392-4.201-5.237-5.692-8.65c-1.478-3.426-2.165-7.517-2.165-12.312
		c0-4.318,0.688-8.315,2.165-11.834c1.491-3.644,3.532-6.733,6.27-9.471c2.729-2.731,6.147-4.769,10.132-6.478
		c3.983-1.71,8.534-2.742,13.557-3.417l1.704-17.557c0.117-0.441,0.226-0.895,0.352-1.13c0.225-0.346,0.549-0.556,1.138-0.904
		c0.558-0.218,1.231-0.447,2.262-0.57c0.924-0.108,2.179-0.231,3.648-0.231c1.832,0,3.314,0.124,4.443,0.231
		c1.144,0.214,2.169,0.443,2.734,0.8c0.679,0.327,1.004,0.793,1.247,1.237c0.226,0.566,0.226,1.149,0.226,1.709l-1.693,16.528
		c1.589,0.216,3.416,0.562,5.114,0.899c1.827,0.444,3.54,0.926,5.027,1.494c1.58,0.562,2.935,1.138,4.203,1.813
		c1.252,0.573,2.178,1.142,2.635,1.715c0.444,0.453,0.889,1.026,1.124,1.474c0.242,0.472,0.469,1.147,0.58,1.828
		c0.111,0.793,0.214,1.585,0.337,2.62c0.092,1.021,0.092,2.16,0.092,3.534c0,1.815,0,3.306-0.092,4.432
		c-0.124,1.134-0.225,2.048-0.448,2.628c-0.226,0.56-0.469,1.015-0.815,1.245c-0.333,0.235-0.556,0.342-1.004,0.342
		c-0.815,0-1.845-0.342-3.306-1.132c-1.511-0.807-3.208-1.608-5.364-2.396c-2.158-0.918-4.57-1.725-7.299-2.394
		c-2.738-0.794-5.8-1.139-9.111-1.139c-2.955,0-5.575,0.344-7.734,0.908c-2.165,0.583-3.882,1.379-5.245,2.393
		c-1.371,1.021-2.295,2.277-2.964,3.761c-0.558,1.491-0.897,3.08-0.897,4.784c0,2.743,0.671,5.019,2.153,6.843
		c1.501,1.807,3.409,3.518,5.809,4.778c2.4,1.363,5.126,2.52,8.208,3.645c3.071,1.13,6.138,2.273,9.341,3.53
		c3.17,1.249,6.254,2.629,9.345,4.212c3.076,1.597,5.677,3.649,8.181,5.941c2.408,2.37,4.347,5.221,5.702,8.527
		c1.478,3.413,2.169,7.407,2.169,12.061c0,5.029-0.91,9.568-2.614,13.566c-1.836,3.994-4.33,7.537-7.53,10.368
		c-3.281,2.969-7.172,5.245-11.737,6.937c-4.538,1.724-9.68,2.862-15.253,3.306l-1.837,18.691c-0.103,0.461-0.226,0.906-0.338,1.254
		c-0.214,0.34-0.564,0.682-1.136,0.912c-0.546,0.222-1.227,0.445-2.277,0.564L138.137,219.773z"/>
</g>
</svg>
