<?xml version="1.0" encoding="utf-8"?>
<!-- Generator: Adobe Illustrator 16.0.0, SVG Export Plug-In . SVG Version: 6.00 Build 0)  -->
<!DOCTYPE svg PUBLIC "-//W3C//DTD SVG 1.1//EN" "http://www.w3.org/Graphics/SVG/1.1/DTD/svg11.dtd">
<svg version="1.1" id="Layer_1" xmlns="http://www.w3.org/2000/svg" xmlns:xlink="http://www.w3.org/1999/xlink" x="0px" y="0px"
	 width="283.46px" height="283.46px" viewBox="0 0 283.46 283.46" enable-background="new 0 0 283.46 283.46" xml:space="preserve">
<g>
	<path fill="#087EF4" d="M254.785,145.378v-5.286c0-2.667-2.173-4.842-4.846-4.842h-4.013c-2.667,0-4.834,2.175-4.834,4.842v5.175
		H209.87v-5.175c0-2.667-2.183-4.842-4.851-4.842h-4.002c-2.673,0-4.851,2.175-4.851,4.842v5.175h-31.218v-5.175
		c0-2.667-2.172-4.842-4.845-4.842h-4.013c-2.673,0-4.85,2.175-4.85,4.842v5.375c-6.723,1.097-11.779,6.875-11.779,13.887v99.584
		c0,7.766,6.322,14.082,14.083,14.082h99.589c7.766,0,14.082-6.316,14.082-14.082v-99.584
		C267.221,152.148,261.775,146.196,254.785,145.378z M244.772,140.093c0-0.638,0.517-1.16,1.165-1.16h4.002
		c0.653,0,1.17,0.522,1.17,1.16v14.027c0,0.648-0.517,1.171-1.17,1.171h-4.002c-0.648,0-1.165-0.522-1.165-1.171V140.093z
		 M199.852,140.093c0-0.638,0.521-1.16,1.165-1.16h4.002c0.648,0,1.17,0.522,1.17,1.16v14.027c0,0.648-0.521,1.171-1.17,1.171
		h-4.002c-0.644,0-1.165-0.522-1.165-1.171V140.093z M154.932,140.093c0-0.638,0.517-1.16,1.159-1.16h4.013
		c0.644,0,1.165,0.522,1.165,1.16v14.027c0,0.648-0.521,1.171-1.165,1.171h-4.013c-0.643,0-1.159-0.522-1.159-1.171V140.093z
		 M151.247,149.216v4.903c0,2.679,2.172,4.851,4.845,4.851h4.013c2.673,0,4.845-2.172,4.845-4.851v-5.172h31.218v5.172
		c0,2.679,2.178,4.851,4.855,4.851h4.008c2.662,0,4.84-2.172,4.84-4.851v-5.172h31.228v5.172c0,2.679,2.172,4.851,4.846,4.851h4.001
		c2.679,0,4.851-2.172,4.851-4.851v-5.024c4.951,0.791,8.747,5.083,8.747,10.26v17.905H143.138v-17.905
		C143.138,154.389,146.576,150.255,151.247,149.216z M253.128,269.346h-99.583c-5.731,0-10.402-4.666-10.402-10.407V180.94h120.398
		v77.999C263.542,264.68,258.871,269.346,253.128,269.346z"/>
	<path fill="#087EF4" d="M166.773,191.052L166.773,191.052c-4.682,0-8.482,3.802-8.482,8.483l0,0c0,4.688,3.801,8.478,8.482,8.478
		l0,0c4.688,0,8.483-3.79,8.483-8.478l0,0C175.256,194.854,171.46,191.052,166.773,191.052z"/>
	<path fill="#087EF4" d="M190.931,191.052L190.931,191.052c-4.682,0-8.478,3.802-8.478,8.483l0,0c0,4.688,3.796,8.478,8.478,8.478
		l0,0c4.692,0,8.488-3.79,8.488-8.478l0,0C199.419,194.854,195.624,191.052,190.931,191.052z"/>
	<path fill="#087EF4" d="M166.773,216.154L166.773,216.154c-4.682,0-8.482,3.796-8.482,8.479l0,0c0,4.687,3.801,8.482,8.482,8.482
		l0,0c4.688,0,8.483-3.796,8.483-8.482l0,0C175.256,219.95,171.46,216.154,166.773,216.154z"/>
	<path fill="#087EF4" d="M190.931,216.154L190.931,216.154c-4.682,0-8.478,3.796-8.478,8.479l0,0c0,4.687,3.796,8.482,8.478,8.482
		l0,0c4.692,0,8.488-3.796,8.488-8.482l0,0C199.419,219.95,195.624,216.154,190.931,216.154z"/>
	<path fill="#27CD2F" d="M227.895,190.557c-11.746,0-21.278,9.521-21.278,21.269l0,0c0,11.762,9.517,21.289,21.278,21.289
		c11.747,0,21.285-9.527,21.285-21.289l0,0C249.18,200.079,239.658,190.557,227.895,190.557z"/>
	<path fill="#087EF4" d="M215.094,241.245c-4.682,0-8.478,3.796-8.478,8.483l0,0c0,4.682,3.79,8.478,8.478,8.478
		c4.682,0,8.483-3.796,8.483-8.478l0,0C223.578,245.046,219.782,241.245,215.094,241.245z"/>
	<path fill="#087EF4" d="M166.773,241.245L166.773,241.245c-4.682,0-8.482,3.796-8.482,8.483l0,0c0,4.682,3.801,8.478,8.482,8.478
		l0,0c4.688,0,8.483-3.796,8.483-8.478l0,0C175.256,245.046,171.46,241.245,166.773,241.245z"/>
	<path fill="#087EF4" d="M190.931,241.245L190.931,241.245c-4.682,0-8.478,3.796-8.478,8.483l0,0c0,4.682,3.796,8.478,8.478,8.478
		l0,0c4.692,0,8.488-3.796,8.488-8.478l0,0C199.419,245.046,195.624,241.245,190.931,241.245z"/>
	<path fill="#305889" d="M131.212,129.865h80.808v-1.047V10.439H16.244v118.379v94.364v46.591h68.669h46.299V129.865z
		 M156.06,35.859h30.537v30.542H156.06V35.859z M156.06,73.994h30.537v30.54H156.06V73.994z M117.928,35.859h30.54v30.542h-30.54
		V35.859z M117.928,73.994h30.54v30.54h-30.54V73.994z M72.201,180.798H41.664v-30.543h30.537V180.798z M72.201,142.665H41.664
		v-30.533h30.537V142.665z M72.201,104.534H41.664v-30.54h30.537V104.534z M72.201,66.402H41.664V35.859h30.537V66.402z
		 M110.336,180.798H79.793v-30.543h30.542V180.798z M110.336,142.665H79.793v-30.533h30.542V142.665z M110.336,104.534H79.793
		v-30.54h30.542V104.534z M110.336,66.402H79.793V35.859h30.542V66.402z"/>
</g>
</svg>
