<?xml version="1.0" encoding="utf-8"?>
<!-- Generator: Adobe Illustrator 17.0.0, SVG Export Plug-In . SVG Version: 6.00 Build 0)  -->
<!DOCTYPE svg PUBLIC "-//W3C//DTD SVG 1.1//EN" "http://www.w3.org/Graphics/SVG/1.1/DTD/svg11.dtd">
<svg version="1.1" id="Layer_1" xmlns="http://www.w3.org/2000/svg" xmlns:xlink="http://www.w3.org/1999/xlink" x="0px" y="0px"
	 width="283.46px" height="283.46px" viewBox="0 0 283.46 283.46" enable-background="new 0 0 283.46 283.46" xml:space="preserve">
<path fill="none" stroke="#F59522" stroke-width="4" stroke-miterlimit="10" d="M141.729,6.796
	c74.427,0,134.938,60.476,134.938,134.935c0,74.426-60.507,134.934-134.938,134.934c-74.458,0-134.936-60.508-134.936-134.932
	C6.793,67.276,67.273,6.796,141.729,6.796L141.729,6.796z"/>
<path fill="#F59522" d="M207.175,76.291c-4.53-4.518-11.85-4.518-16.362,0l-49.32,49.322L92.846,76.984
	c-4.487-4.491-11.754-4.491-16.224,0c-4.487,4.482-4.487,11.754,0,16.22l48.638,48.643l-48.976,48.97
	c-4.521,4.526-4.521,11.846,0,16.358c4.522,4.509,11.85,4.509,16.363,0l48.976-48.971l48.627,48.638
	c4.487,4.491,11.764,4.491,16.233,0c4.495-4.487,4.495-11.755,0-16.237l-48.638-48.628l49.33-49.327
	C211.697,88.136,211.697,80.804,207.175,76.291z"/>
</svg>
