<?xml version="1.0" encoding="utf-8"?>
<!-- Generator: Adobe Illustrator 16.0.0, SVG Export Plug-In . SVG Version: 6.00 Build 0)  -->
<!DOCTYPE svg PUBLIC "-//W3C//DTD SVG 1.1//EN" "http://www.w3.org/Graphics/SVG/1.1/DTD/svg11.dtd">
<svg version="1.1" id="Layer_1" xmlns="http://www.w3.org/2000/svg" xmlns:xlink="http://www.w3.org/1999/xlink" x="0px" y="0px"
	 width="283.46px" height="283.46px" viewBox="0 0 283.46 283.46" enable-background="new 0 0 283.46 283.46" xml:space="preserve">
<g>
	<path fill="none" stroke="#2F5789" stroke-width="4" stroke-miterlimit="10" d="M217.211,233.066h-8.901l-73.653,24.316
		c-2.29,1.223-11.566,5.359-21.256-0.264l-0.104-0.053L12.339,200.939c-0.377-0.205-0.686-0.471-0.958-0.734l0,0
		c0-0.059-9.013-9.119-3.499-19.399l0,0c0-0.05,6.036-12.877,17.7-9.642c29.308,8.112,48.221,24.961,65.663,29.305
		c22.733,4.081,38.636,2.651,60.038-6.413c-6.459-0.63-16.846-0.05-27.447,0.429c-3.231,0.152-6.516,0.26-9.747,0.368
		c-32.225,0.846-33.713-9.701-26.87-17.382c6.618-7.42,12.346-7.582,20.766-7.582h32.281c5.14-2.326,31.58-14.095,45.838-16.639
		c0.055,0,0.107,0,0.157,0c6.361-1.113,14.259-1.484,21.417-1.484c3.439,0,6.728,0.058,9.533,0.164v81.236V233.066z"/>
	<path fill="none" stroke="#2F5789" stroke-width="4" stroke-miterlimit="10" d="M230.936,133.003h36.943
		c2.588,0,4.924,1.061,6.673,2.754l0,0l0,0l0,0l0,0c1.697,1.751,2.813,4.089,2.813,6.679v99.684c0,2.604-1.063,4.933-2.761,6.68l0,0
		l0,0l0,0l0,0c-1.742,1.694-4.078,2.813-6.682,2.813h-36.935c-2.429,0-4.714-0.961-6.401-2.492c-0.116-0.109-0.216-0.214-0.33-0.267
		c-1.692-1.692-2.811-4.08-2.811-6.733v-99.684c0-2.59,1.07-4.982,2.811-6.732l0,0c1.757-1.745,4.083-2.806,6.68-2.806V133.003z"/>
</g>
<path fill="#DD682A" d="M140.104,42.016c-11.443-11.457-27.29-18.552-44.772-18.552c-17.494,0-33.35,7.095-44.786,18.552
	C39.102,53.457,32,69.306,32,86.791c0,17.492,7.102,33.343,18.546,44.786c11.437,11.442,27.292,18.546,44.786,18.546
	c17.482,0,33.329-7.104,44.772-18.546c11.455-11.443,18.56-27.294,18.56-44.786C158.664,69.306,151.56,53.457,140.104,42.016z
	 M111.546,103.062c-0.854,1.856-2.017,3.503-3.501,4.823c-1.531,1.379-3.339,2.438-5.464,3.23c-2.106,0.798-4.5,1.327-7.088,1.538
	l-0.859,8.695c-0.047,0.213-0.109,0.42-0.157,0.582c-0.1,0.159-0.266,0.316-0.534,0.425c-0.252,0.103-0.568,0.205-1.059,0.266
	l0.05,0.05c-0.411,0.055-0.998,0.102-1.688,0.102c-0.845,0-1.542-0.047-2.07-0.102c-0.525-0.111-0.952-0.213-1.218-0.375
	c-0.315-0.154-0.47-0.366-0.582-0.572c-0.106-0.268-0.106-0.539-0.048-0.804l0.845-8.266c-1.17-0.159-2.279-0.37-3.29-0.631
	c-1.061-0.271-1.965-0.525-2.811-0.854c-0.843-0.313-1.588-0.631-2.172-0.945c-0.579-0.33-1.061-0.646-1.376-0.959
	c-0.314-0.313-0.53-0.736-0.688-1.379c-0.159-0.579-0.205-1.483-0.205-2.704c0-0.899,0.045-1.69,0.098-2.283
	c0.052-0.577,0.159-1.052,0.266-1.372c0.164-0.325,0.318-0.532,0.53-0.693c0.207-0.103,0.42-0.155,0.697-0.155
	c0.366,0,0.845,0.211,1.534,0.582c0.684,0.423,1.533,0.852,2.592,1.325c1.056,0.477,2.329,0.952,3.805,1.325
	c1.497,0.427,3.247,0.582,5.26,0.582c3.181,0,5.507-0.582,7.05-1.743c1.54-1.175,2.335-2.753,2.335-4.719
	c0-1.327-0.332-2.388-1.011-3.181c-0.695-0.852-1.542-1.588-2.66-2.227c-1.106-0.631-2.375-1.22-3.751-1.697
	c-1.381-0.531-2.813-1.063-4.294-1.585c-1.432-0.591-2.86-1.223-4.294-2.018c-1.384-0.736-2.649-1.692-3.767-2.806
	c-1.106-1.113-1.954-2.438-2.646-4.028c-0.688-1.59-1.009-3.497-1.009-5.723c0-2.015,0.32-3.869,1.009-5.511
	c0.693-1.695,1.643-3.128,2.915-4.401c1.275-1.272,2.867-2.222,4.714-3.02c1.854-0.793,3.978-1.274,6.309-1.59l0.795-8.165
	c0.054-0.205,0.102-0.42,0.164-0.525c0.104-0.164,0.252-0.259,0.524-0.425c0.259-0.1,0.575-0.207,1.057-0.264
	c0.427-0.05,1.018-0.109,1.697-0.109c0.854,0,1.54,0.059,2.069,0.109c0.53,0.1,1.007,0.207,1.266,0.373
	c0.323,0.152,0.475,0.371,0.582,0.573c0.104,0.268,0.104,0.539,0.104,0.797l-0.784,7.69c0.736,0.102,1.595,0.261,2.379,0.42
	c0.854,0.207,1.647,0.427,2.337,0.693c0.736,0.264,1.366,0.529,1.958,0.845c0.582,0.263,1.009,0.529,1.223,0.793
	c0.213,0.213,0.42,0.481,0.524,0.69c0.111,0.218,0.216,0.534,0.268,0.85c0.05,0.366,0.1,0.736,0.157,1.223
	c0.048,0.475,0.048,1.001,0.048,1.645c0,0.843,0,1.534-0.048,2.059c-0.057,0.527-0.106,0.954-0.209,1.222
	c-0.104,0.261-0.216,0.473-0.373,0.582c-0.154,0.104-0.266,0.161-0.47,0.161c-0.382,0-0.861-0.161-1.545-0.529
	c-0.69-0.377-1.488-0.745-2.488-1.115c-1.004-0.423-2.124-0.802-3.401-1.113c-1.277-0.371-2.697-0.532-4.237-0.532
	c-1.372,0-2.587,0.161-3.599,0.425c-1.009,0.268-1.802,0.639-2.438,1.111c-0.639,0.479-1.07,1.061-1.379,1.754
	c-0.259,0.691-0.422,1.429-0.422,2.222c0,1.279,0.318,2.338,1.009,3.185c0.695,0.843,1.59,1.638,2.697,2.22
	c1.113,0.636,2.385,1.177,3.821,1.699c1.429,0.525,2.863,1.054,4.346,1.645c1.479,0.58,2.91,1.22,4.348,1.958
	c1.432,0.741,2.643,1.697,3.81,2.76c1.118,1.104,2.008,2.431,2.647,3.967c0.688,1.593,1.009,3.444,1.009,5.614
	C112.762,99.086,112.339,101.201,111.546,103.062z"/>
<circle fill="#2F5789" cx="217.231" cy="44.692" r="20.55"/>
<path fill="#2F5789" d="M252.262,78.757l0.034-0.016c-2.74-3.953-7.048-6.738-12.032-7.434c-0.084-0.014-0.168-0.021-0.252-0.032
	c-0.274-0.034-0.538-0.082-0.815-0.104c-0.019,0-0.034-0.002-0.05-0.002c-0.441-0.034-0.887-0.057-1.341-0.057h-0.024h-0.017h-0.014
	h-0.014h-0.027h-0.018h-0.046h-0.014h-0.041h-2.239h-0.041h-0.005h-0.045h-0.025h-0.041h-0.002h-0.005l0,0h-0.043l0,0h-0.029h-0.037
	h-0.014h-0.04l-12.16,27.797L219.14,84.03l7.043-7.047l-8.802-5.871l-0.022,0.014l-0.018-0.014l-0.012,0.004l-0.007-0.004
	l-0.022,0.014l-0.023-0.014l-0.009,0.007l-0.009-0.007l-0.019,0.014l-0.022-0.014l-0.007,0.004l-0.009-0.004l-0.021,0.014
	l-0.023-0.014l-0.007,0.007l-0.007-0.007l-0.022,0.014l-0.022-0.014l-0.009,0.004l-0.01-0.004l-0.018,0.014l-0.023-0.014
	l-8.806,5.871l7.045,7.047l-3.724,14.879l-12.161-27.797h-0.043h-0.007h-0.039h-0.031l0,0h-0.041l0,0h-0.009l0,0h-0.041h-0.027
	h-0.041h-0.007h-0.043h-2.235h-0.041h-0.019h-0.041h-0.019h-0.026h-0.017h-0.014h-0.016h-0.027c-0.449,0-0.895,0.022-1.336,0.057
	c0,0-0.036,0.002-0.05,0.002c-0.277,0.022-0.545,0.07-0.817,0.104c-0.082,0.011-0.169,0.018-0.25,0.032
	c-4.987,0.695-9.293,3.48-12.032,7.434l0.022,0.011c-1.949,2.838-3.107,6.264-3.107,9.974v14.679c0,4.841,3.962,8.806,8.806,8.806
	h8.133h0.659h0.046h0.125h0.04h0.075h0.046h11.323h0.041h0.077h0.004h0.039h0.007h0.068h0.004h0.036h0.008h0.074h0.046h17.025h0.046
	h0.072h0.007h0.034h0.007h0.075h0.004h0.037h0.004h0.077h0.041h11.323h0.041h0.077h0.043h0.125h0.044h0.656h8.138
	c4.839,0,8.806-3.964,8.806-8.806V88.726C255.381,85.016,254.221,81.59,252.262,78.757z"/>
</svg>
