<?xml version="1.0" encoding="utf-8"?>
<!-- Generator: Adobe Illustrator 16.0.0, SVG Export Plug-In . SVG Version: 6.00 Build 0)  -->
<!DOCTYPE svg PUBLIC "-//W3C//DTD SVG 1.1//EN" "http://www.w3.org/Graphics/SVG/1.1/DTD/svg11.dtd">
<svg version="1.1" id="Layer_1" xmlns="http://www.w3.org/2000/svg" xmlns:xlink="http://www.w3.org/1999/xlink" x="0px" y="0px"
	 width="283.46px" height="283.46px" viewBox="0 0 283.46 283.46" enable-background="new 0 0 283.46 283.46" xml:space="preserve">
<g>
	<path fill="none" stroke="#2F5789" stroke-width="4" stroke-miterlimit="10" d="M216.818,249.351h-8.855l-73.273,24.189
		c-2.273,1.216-11.504,5.332-21.143-0.262l-0.104-0.052L13.01,217.391c-0.375-0.204-0.683-0.468-0.954-0.73l0,0
		c0-0.059-8.966-9.072-3.48-19.299l0,0c0-0.05,6.007-12.811,17.611-9.592c29.153,8.07,47.968,24.832,65.319,29.153
		c22.617,4.059,38.435,2.637,59.729-6.381c-6.428-0.626-16.762-0.05-27.308,0.428c-3.214,0.151-6.482,0.257-9.696,0.366
		c-32.057,0.84-33.535-9.651-26.73-17.293c6.583-7.381,12.279-7.541,20.657-7.541h32.114c5.114-2.314,31.417-14.022,45.601-16.554
		c0.055,0,0.108,0,0.158,0c6.326-1.107,14.185-1.476,21.304-1.476c3.422,0,6.694,0.057,9.483,0.163v80.814V249.351z"/>
	<path fill="none" stroke="#2F5789" stroke-width="4" stroke-miterlimit="10" d="M230.474,149.809h36.75
		c2.576,0,4.899,1.056,6.638,2.739l0,0l0,0l0,0l0,0c1.688,1.742,2.8,4.068,2.8,6.645v99.165c0,2.59-1.058,4.906-2.748,6.645l0,0l0,0
		l0,0l0,0c-1.733,1.686-4.057,2.798-6.645,2.798h-36.745c-2.416,0-4.688-0.956-6.369-2.479c-0.115-0.108-0.215-0.213-0.325-0.265
		c-1.686-1.684-2.798-4.059-2.798-6.698v-99.165c0-2.576,1.064-4.956,2.798-6.696l0,0c1.745-1.736,4.06-2.791,6.645-2.791V149.809z"
		/>
</g>
<path fill="#DD682A" d="M140.114,59.292c-11.386-11.397-27.15-18.456-44.542-18.456c-17.403,0-33.174,7.059-44.551,18.456
	c-11.386,11.382-18.452,27.148-18.452,44.542c0,17.4,7.065,33.169,18.452,44.555c11.377,11.382,27.148,18.449,44.551,18.449
	c17.392,0,33.156-7.067,44.542-18.449c11.397-11.386,18.461-27.154,18.461-44.555C158.575,86.441,151.511,70.674,140.114,59.292z
	 M111.704,120.021c-0.85,1.847-2.007,3.485-3.485,4.798c-1.523,1.372-3.322,2.425-5.433,3.214c-2.098,0.793-4.479,1.32-7.056,1.53
	l-0.85,8.649c-0.049,0.212-0.108,0.418-0.158,0.579c-0.099,0.158-0.264,0.314-0.529,0.422c-0.253,0.102-0.567,0.204-1.053,0.265
	l0.05,0.05c-0.411,0.054-0.994,0.102-1.682,0.102c-0.84,0-1.532-0.047-2.057-0.102c-0.524-0.111-0.949-0.213-1.213-0.373
	c-0.314-0.154-0.468-0.364-0.577-0.57c-0.108-0.267-0.108-0.536-0.049-0.8l0.84-8.222c-1.162-0.158-2.269-0.369-3.272-0.628
	c-1.053-0.269-1.953-0.522-2.793-0.85c-0.841-0.312-1.582-0.628-2.161-0.94c-0.579-0.328-1.058-0.642-1.374-0.954
	c-0.31-0.312-0.524-0.732-0.683-1.372c-0.158-0.576-0.204-1.476-0.204-2.689c0-0.895,0.045-1.682,0.097-2.271
	c0.052-0.574,0.161-1.046,0.265-1.365c0.163-0.323,0.316-0.529,0.524-0.689c0.208-0.102,0.42-0.154,0.696-0.154
	c0.362,0,0.841,0.21,1.528,0.579c0.678,0.42,1.523,0.848,2.577,1.317c1.053,0.475,2.319,0.947,3.788,1.318
	c1.487,0.425,3.228,0.579,5.23,0.579c3.164,0,5.479-0.579,7.011-1.733c1.535-1.169,2.326-2.739,2.326-4.694
	c0-1.32-0.33-2.375-1.006-3.164c-0.691-0.848-1.532-1.58-2.645-2.215c-1.103-0.628-2.364-1.214-3.733-1.688
	c-1.374-0.529-2.798-1.058-4.271-1.578c-1.424-0.587-2.846-1.216-4.272-2.007c-1.374-0.732-2.635-1.684-3.747-2.792
	c-1.099-1.107-1.944-2.425-2.633-4.007c-0.685-1.582-1.004-3.479-1.004-5.693c0-2.005,0.319-3.849,1.004-5.483
	c0.689-1.686,1.634-3.112,2.899-4.378s2.853-2.21,4.692-3.004c1.844-0.789,3.956-1.268,6.274-1.582l0.791-8.123
	c0.054-0.204,0.102-0.418,0.163-0.522c0.104-0.163,0.253-0.258,0.524-0.423c0.257-0.1,0.569-0.206,1.048-0.262
	c0.425-0.05,1.013-0.108,1.691-0.108c0.85,0,1.532,0.059,2.057,0.108c0.529,0.1,0.999,0.206,1.261,0.371
	c0.316,0.151,0.47,0.369,0.576,0.57c0.106,0.267,0.106,0.536,0.106,0.793L101,77.479c0.732,0.102,1.586,0.26,2.366,0.418
	c0.848,0.206,1.639,0.425,2.326,0.689c0.732,0.262,1.358,0.527,1.948,0.841c0.579,0.262,1.003,0.527,1.216,0.789
	c0.212,0.212,0.42,0.479,0.524,0.687c0.108,0.217,0.212,0.531,0.265,0.845c0.052,0.364,0.099,0.732,0.156,1.216
	c0.05,0.473,0.05,0.997,0.05,1.636c0,0.839,0,1.526-0.05,2.048c-0.057,0.524-0.104,0.949-0.208,1.216
	c-0.104,0.26-0.212,0.47-0.371,0.579c-0.154,0.104-0.262,0.161-0.468,0.161c-0.377,0-0.856-0.161-1.535-0.527
	c-0.691-0.375-1.482-0.741-2.477-1.109c-0.999-0.42-2.113-0.798-3.381-1.107c-1.271-0.369-2.685-0.529-4.218-0.529
	c-1.365,0-2.576,0.161-3.58,0.423c-1.004,0.267-1.792,0.635-2.423,1.105c-0.638,0.477-1.067,1.055-1.375,1.745
	c-0.257,0.687-0.42,1.421-0.42,2.21c0,1.272,0.316,2.326,1.004,3.168c0.691,0.838,1.582,1.629,2.685,2.208
	c1.108,0.633,2.371,1.171,3.799,1.691c1.422,0.522,2.846,1.048,4.324,1.636c1.471,0.576,2.897,1.213,4.326,1.948
	c1.424,0.737,2.631,1.688,3.792,2.746c1.107,1.098,1.998,2.418,2.631,3.946c0.687,1.584,1.003,3.426,1.003,5.585
	C112.911,116.066,112.491,118.17,111.704,120.021z"/>
<path fill="#DD682A" d="M248.708,20.532c-8.151-8.157-19.441-13.212-31.89-13.212c-12.458,0-23.747,5.056-31.895,13.212
	c-8.15,8.148-13.21,19.437-13.21,31.888c0,12.458,5.06,23.749,13.21,31.896c8.147,8.146,19.437,13.206,31.895,13.206
	c12.448,0,23.738-5.061,31.89-13.206c8.155-8.147,13.208-19.439,13.208-31.896C261.916,39.969,256.863,28.68,248.708,20.532z
	 M228.367,64.007c-0.605,1.324-1.438,2.495-2.492,3.435c-1.092,0.981-2.38,1.736-3.89,2.301c-1.506,0.567-3.21,0.945-5.054,1.094
	l-0.61,6.192c-0.032,0.151-0.077,0.303-0.113,0.416c-0.067,0.115-0.189,0.224-0.375,0.303c-0.186,0.072-0.407,0.145-0.755,0.188
	l0.034,0.039c-0.297,0.041-0.712,0.072-1.2,0.072c-0.606,0-1.104-0.032-1.474-0.072c-0.375-0.081-0.683-0.154-0.868-0.269
	c-0.226-0.111-0.339-0.26-0.413-0.407c-0.079-0.194-0.079-0.382-0.039-0.572l0.602-5.89c-0.832-0.113-1.623-0.262-2.337-0.45
	c-0.755-0.19-1.401-0.371-2.003-0.606c-0.605-0.224-1.135-0.45-1.548-0.673c-0.414-0.233-0.757-0.459-0.983-0.685
	c-0.222-0.221-0.375-0.524-0.488-0.981c-0.112-0.414-0.146-1.055-0.146-1.925c0-0.64,0.034-1.203,0.07-1.623
	c0.04-0.416,0.115-0.75,0.189-0.983c0.113-0.224,0.226-0.377,0.375-0.491c0.149-0.072,0.301-0.108,0.497-0.108
	c0.263,0,0.602,0.149,1.095,0.414c0.487,0.301,1.089,0.604,1.844,0.942c0.755,0.339,1.663,0.676,2.712,0.945
	c1.067,0.303,2.31,0.412,3.743,0.412c2.269,0,3.923-0.412,5.021-1.239c1.099-0.836,1.664-1.964,1.664-3.363
	c0-0.942-0.235-1.697-0.719-2.265c-0.495-0.606-1.099-1.13-1.895-1.584c-0.791-0.452-1.692-0.87-2.671-1.209
	c-0.985-0.377-2.005-0.755-3.061-1.128c-1.017-0.423-2.034-0.87-3.058-1.438c-0.983-0.524-1.888-1.205-2.683-2
	c-0.787-0.791-1.393-1.736-1.886-2.868c-0.487-1.132-0.714-2.488-0.714-4.075c0-1.435,0.227-2.752,0.714-3.926
	c0.493-1.205,1.171-2.226,2.075-3.135c0.906-0.906,2.043-1.582,3.358-2.147c1.324-0.569,2.834-0.909,4.493-1.135l0.565-5.815
	c0.04-0.145,0.072-0.298,0.117-0.373c0.077-0.118,0.181-0.185,0.38-0.303c0.176-0.072,0.402-0.147,0.748-0.186
	c0.305-0.041,0.721-0.079,1.209-0.079c0.605,0,1.099,0.039,1.469,0.079c0.38,0.068,0.719,0.145,0.906,0.262
	c0.229,0.108,0.337,0.262,0.414,0.412c0.077,0.188,0.077,0.377,0.077,0.565l-0.561,5.476c0.524,0.072,1.132,0.188,1.69,0.301
	c0.61,0.147,1.175,0.305,1.668,0.493c0.524,0.185,0.972,0.377,1.396,0.604c0.414,0.188,0.719,0.377,0.868,0.565
	c0.149,0.151,0.301,0.341,0.375,0.49c0.077,0.154,0.149,0.38,0.186,0.606c0.04,0.262,0.076,0.524,0.117,0.868
	c0.036,0.337,0.036,0.714,0.036,1.173c0,0.601,0,1.091-0.036,1.467c-0.041,0.375-0.077,0.678-0.153,0.87
	c-0.072,0.188-0.149,0.336-0.263,0.411c-0.112,0.079-0.188,0.115-0.334,0.115c-0.271,0-0.615-0.115-1.099-0.377
	c-0.495-0.267-1.063-0.529-1.776-0.791c-0.714-0.303-1.512-0.572-2.418-0.793c-0.909-0.264-1.922-0.379-3.02-0.379
	c-0.979,0-1.845,0.115-2.563,0.303c-0.714,0.19-1.283,0.454-1.735,0.795c-0.457,0.337-0.76,0.753-0.983,1.243
	c-0.186,0.493-0.296,1.02-0.296,1.584c0,0.909,0.226,1.666,0.714,2.267c0.493,0.602,1.13,1.168,1.921,1.582
	c0.796,0.452,1.7,0.839,2.722,1.209c1.017,0.375,2.038,0.752,3.096,1.17c1.052,0.414,2.07,0.871,3.097,1.397
	c1.017,0.526,1.881,1.209,2.715,1.966c0.793,0.787,1.435,1.731,1.885,2.827c0.49,1.132,0.716,2.453,0.716,3.994
	C229.23,61.178,228.928,62.688,228.367,64.007z"/>
</svg>
