<?xml version="1.0" encoding="utf-8"?>
<!-- Generator: Adobe Illustrator 16.0.0, SVG Export Plug-In . SVG Version: 6.00 Build 0)  -->
<!DOCTYPE svg PUBLIC "-//W3C//DTD SVG 1.1//EN" "http://www.w3.org/Graphics/SVG/1.1/DTD/svg11.dtd">
<svg version="1.1" id="Layer_1" xmlns="http://www.w3.org/2000/svg" xmlns:xlink="http://www.w3.org/1999/xlink" x="0px" y="0px"
	 width="283.46px" height="283.46px" viewBox="0 0 283.46 283.46" enable-background="new 0 0 283.46 283.46" xml:space="preserve">
<path fill-rule="evenodd" clip-rule="evenodd" fill="none" stroke="#2F5789" stroke-width="4" stroke-miterlimit="10" d="
	M150.059,83.861c0,0.965,0.06,1.937-0.016,2.895c-0.191,2.405,0.131,4.314,1.852,6.48c3.149,3.966,2.377,9.034,1.76,13.705
	c-1.018,7.693-4.715,14.197-9.706,20.045c-1.087,1.274-1.999,2.827-2.557,4.402c-3.878,11.025-10.324,19.919-21.162,24.88
	c-12.407,5.68-23.561,2.722-33.523-5.871c-5.915-5.108-9.703-11.671-12.247-19.023c-0.547-1.577-1.475-3.117-2.554-4.397
	c-7.283-8.66-11.459-18.295-9.564-29.85c0.239-1.467,0.737-3.267,1.772-4.149c1.911-1.632,1.871-3.536,2.002-5.67
	c0.43-7.015,0.07-14.256,1.73-20.983c3.701-14.991,14.201-23.428,29.076-26.498c11.817-2.437,23.233-1.009,34.143,4.227
	c5.867,2.813,9.655,7.236,10.989,13.683c0.185,0.91,0.402,2.019,1.016,2.614c4.964,4.782,5.943,11.088,6.791,17.433
	c0.267,2.005,0.207,4.051,0.299,6.076C150.122,83.861,150.091,83.861,150.059,83.861z"/>
<path fill-rule="evenodd" clip-rule="evenodd" fill="none" stroke="#2F5789" stroke-width="4" stroke-miterlimit="10" d="
	M107.906,224.373c-3.436-6.683-6.502-12.55-9.428-18.482c-0.38-0.765-0.207-1.901-0.02-2.815c0.701-3.39,1.584-6.746,2.257-10.143
	c0.386-1.959,1.322-2.741,3.357-2.624c2.691,0.155,5.399,0.107,8.094,0.014c1.613-0.056,2.541,0.5,2.883,2.116
	c0.794,3.767,1.676,7.514,2.449,11.284c0.147,0.707,0.205,1.601-0.096,2.204C114.42,211.835,111.354,217.706,107.906,224.373z"/>
<path fill-rule="evenodd" clip-rule="evenodd" fill="none" stroke="#2F5789" stroke-width="4" stroke-miterlimit="10" d="
	M108.046,171.091c2.409,0,4.819,0.038,7.23-0.012c1.812-0.038,2.457,0.832,2.13,2.522c-0.721,3.78-1.361,7.583-2.293,11.313
	c-0.195,0.778-1.454,1.774-2.278,1.826c-3.261,0.209-6.558,0.23-9.818-0.01c-0.86-0.066-2.126-1.205-2.349-2.075
	c-0.916-3.533-1.489-7.154-2.218-10.74c-0.398-1.961,0.231-2.918,2.367-2.835c2.407,0.094,4.816,0.022,7.229,0.022
	C108.046,171.104,108.046,171.096,108.046,171.091z"/>
<g>
	<path fill="#FAA51A" d="M264.56,198.231c-0.949-5.255-2.979-10.146-6.189-14.501c-0.593-0.804-1.091-1.047-2.136-0.884
		c-2.61,0.41-5.258,0.703-7.901,0.795c-1.397,0.048-2.938-0.146-4.201-0.699c-7.518-3.303-15.078-6.542-22.412-10.219
		c-4.173-2.09-7.719-2.357-11.786,0.261c-4.439,2.859-9.272,5.114-13.911,7.677c-4.077,2.25-4.754,7.527-1.388,10.51
		c2.124,1.877,5.25,1.902,8.21,0.181c4.031-2.347,8.091-4.65,12.166-6.92c0.501-0.282,1.302-0.554,1.735-0.349
		c3.576,1.706,7.223,3.314,10.6,5.363c3.322,2.013,6.339,4.525,9.52,6.774l16.48,11.896c1.066,0.753,2.277,1.355,3.169,2.277
		c2.244,2.317,4.631,2.578,7.605,1.461c1.281-0.479,1.674-0.961,1.568-2.122C265.346,205.893,265.244,202.009,264.56,198.231z"/>
	<path fill="#FAA51A" d="M209.567,228.261c-1.425,0.076-2.811,0.791-4.039,1.167c0.094-1.091,0.613-2.614,0.229-3.858
		c-0.394-1.294-1.457-2.672-2.617-3.343c-0.926-0.539-2.566-0.392-3.636,0.057c-1.099,0.459-1.889,1.654-2.793,2.506
		c-0.514-1.99-1.712-3.556-3.997-3.816c-2.154-0.251-3.765,0.778-4.85,2.77c-0.188-0.299-0.303-0.478-0.41-0.665
		c-1.47-2.578-3.448-3.437-5.846-2.513c-2.4,0.928-3.376,2.95-2.751,5.758c0.387,1.735,0.761,3.481,1.207,5.204
		c0.604,2.331,2.588,3.784,4.889,3.412c1.065-0.174,1.493,0.171,2.055,0.974c1.527,2.203,4.229,2.563,6.375,0.987
		c0.348-0.257,0.696-0.514,1.277-0.939c-0.481,2.47,0.309,4.164,2.222,5.229c2.25,1.254,4.169,0.37,5.905-1.225
		c0.243,0.755,0.402,1.43,0.673,2.057c0.709,1.648,2.588,2.851,4.229,2.762c1.775-0.094,3.715-1.46,4.154-3.164
		c0.721-2.779,1.376-5.58,1.89-8.401C214.21,230.616,212.172,228.13,209.567,228.261z"/>
	<path fill="#FAA51A" d="M177.516,177.398c-1.819-0.822-3.494-0.015-4.097,1.901c-3.333,10.591-6.659,21.186-9.975,31.782
		c-0.545,1.74,0.442,3.398,2.234,3.805c1.064,0.243,2.138,0.448,3.205,0.657c1.493,0.289,2.986,0.569,4.626,0.88
		c-0.079-13.04,3.982-24.783,9.342-36.307C180.987,179.158,179.287,178.196,177.516,177.398z"/>
	<path fill="#FAA51A" d="M276.375,207.815c-0.514-3.696-0.88-7.304-1.306-11.017c-0.657-5.662-1.259-11.272-1.979-16.93
		c-0.267-2.069-1.735-2.942-3.738-2.449c-3.182,0.784-6.339,1.43-9.68,2.296c7.498,9.906,9.668,20.724,9.229,32.943
		c1.183,0,2.15,0,3.122,0C275.941,212.659,276.917,211.674,276.375,207.815z"/>
	<path fill="#FAA51A" d="M253.903,218.184l-24.125-17.318c-4.778-3.75-9.576-7.566-15.396-9.646c-0.801-0.283-1.959-0.255-2.7,0.121
		c-3.844,1.967-7.608,4.079-11.387,6.169c-3.986,2.204-8.855,1.247-11.882-2.375c-2.572-3.083-2.53-8.072,0.092-11.399
		c0.285-0.364,0.542-0.752,0.928-1.285c-0.696-0.042-1.106-0.019-1.501-0.094c-2.064-0.402-3.299,0.309-3.993,2.402
		c-1.698,5.083-3.58,10.098-5.348,15.16c-0.155,0.442-1.238,4.47-1.361,6.032l-0.518,5.047c0,1.624-0.038,2.986,0.031,4.344
		c0.012,0.301,0.358,0.663,0.646,0.83c0.135,0.076,0.562-0.188,0.748-0.396c0.619-0.698,1.288-1.592,1.955-2.144
		c2.339-1.957,5.375-1.744,7.545-0.78c1.694,1.172,1.565,1.172,3.763,0.432c2.279-0.767,4.434-0.474,6.446,0.753
		c0.788,0.481,1.414,0.677,2.329,0.219c4.213-2.078,9.063,1.099,10.173,4.476c0.168,0.487,0.866,1.033,1.394,1.127
		c5.217,0.93,7.95,5.717,6.761,9.846c-0.397,1.38-0.7,2.785-1.026,4.185c-0.195,0.833-0.14,1.454,0.776,2.011
		c1.756,1.065,3.384,2.354,5.053,3.56c2.433,1.765,5.112,0.833,5.849-2.046c0.318-1.229,0.136-2.135-1.103-2.915
		c-1.936-1.214-3.572-2.644-5.539-4.085c-1.027-0.75-0.374-2.206,1.052-1.601c0.223,0.09,0.47,0.295,0.7,0.462
		c3.019,2.178,6.034,4.366,9.066,6.53c1.648,1.18,3.456,0.786,4.786-0.996c1.266-1.704,1.047-3.272-0.626-4.501
		c-3.428-2.515-6.848-5.022-10.272-7.539c-0.708-0.525-1.891-1.047-1.122-2.082c0.804-1.083,1.648-0.009,2.341,0.489
		c4.29,3.063,8.58,6.128,12.825,9.247c1.051,0.774,1.938,1.617,3.39,0.928c1.654-0.788,2.689-2.044,2.789-3.842
		c0.028-0.655-0.41-1.585-0.936-1.981c-3.659-2.757-7.39-5.419-11.118-8.076c-0.771-0.55-1.531-1.15-0.767-2.028
		c0.227-0.268,1.453,0.006,1.979,0.378c4.683,3.305,9.329,6.659,13.932,10.075c0.928,0.687,1.685,0.727,2.688,0.297
		C256.559,224.735,256.977,220.457,253.903,218.184z"/>
</g>
<path fill-rule="evenodd" clip-rule="evenodd" fill="none" stroke="#2F5789" stroke-width="4" stroke-miterlimit="10" d="
	M165.332,232.818c-0.43-1.652-0.801-3.323-1.171-4.991l-6.947-1.326c-1.259-0.246-2.521-0.493-3.771-0.776
	c-3.647-0.826-6.785-3.119-8.604-6.291c-1.814-3.146-2.221-6.978-1.112-10.509c3.951-12.636,7.917-25.27,11.895-37.899
	c1.787-5.699,6.665-9.381,12.406-9.381c0.765,0,1.521,0.084,2.273,0.214c-8.827-3.906-17.729-7.653-26.596-11.479
	c-0.486-0.211-1.039-0.269-1.633-0.408c-0.298,1.211-0.561,2.238-0.796,3.265c-5.925,25.952-14.883,50.732-28.437,73.744
	c-0.832,1.411-1.636,2.851-2.584,4.188c-1.636,2.305-3.018,2.253-4.718-0.086c-0.398-0.545-0.752-1.125-1.095-1.706
	c-8.238-14.127-15.667-28.657-20.685-44.262c-3.723-11.566-6.952-23.288-10.551-35.452c-10.479,4.593-21.186,9.015-31.636,13.989
	c-4.828,2.298-9.695,5.077-13.621,8.65c-14.961,13.629-19.958,31.632-21.001,51.076c-0.063,1.26,1.458,3.232,2.733,3.82
	c3.661,1.7,7.515,3.052,11.397,4.188c18.94,5.542,38.45,7.567,58.044,8.616c29.412,1.577,58.776,1.133,87.993-2.937
	C166.34,235.782,165.734,234.361,165.332,232.818z"/>
</svg>
