<?xml version="1.0" encoding="utf-8"?>
<!-- Generator: Adobe Illustrator 17.0.0, SVG Export Plug-In . SVG Version: 6.00 Build 0)  -->
<!DOCTYPE svg PUBLIC "-//W3C//DTD SVG 1.1//EN" "http://www.w3.org/Graphics/SVG/1.1/DTD/svg11.dtd">
<svg version="1.1" id="Capa_1" xmlns="http://www.w3.org/2000/svg" xmlns:xlink="http://www.w3.org/1999/xlink" x="0px" y="0px"
	 width="64px" height="64px" viewBox="18 18 64 64" enable-background="new 18 18 64 64" xml:space="preserve">
<g>
	<g>
		<g>
			<path fill="#2F5789" d="M70.897,65.053c3.782-5.103,3.382-12.396-1.202-17.035c-1.073-1.086-2.29-1.939-3.589-2.561V33.992
				L50.301,18H18v63.576h48.105V69.018c0.761-0.364,1.494-0.809,2.186-1.332l9.881,10.109l2.618-2.62L70.897,65.053z M51.379,24.359
				l8.441,8.541h-8.441C51.379,32.901,51.379,24.359,51.379,24.359z M62.424,77.85H21.682V21.725h26.016v14.901h14.726v7.713
				c-3.882-0.562-7.972,0.664-10.952,3.68c-5.024,5.083-5.024,13.355,0,18.438c2.946,2.981,7.019,4.25,10.952,3.68V77.85z
				 M67.091,63.823c-3.589,3.631-9.428,3.631-13.016,0c-3.588-3.631-3.588-9.539,0-13.17s9.427-3.631,13.016,0
				C70.68,54.284,70.68,60.192,67.091,63.823z"/>
		</g>
	</g>
	<g>
		<g>
			<rect x="24.339" y="40.028" fill="#2F5789" width="26.422" height="3.739"/>
		</g>
	</g>
	<g>
		<g>
			<rect x="24.339" y="47.506" fill="#2F5789" width="18.944" height="3.739"/>
		</g>
	</g>
	<g>
		<g>
			<rect x="24.339" y="62.461" fill="#2F5789" width="18.944" height="3.739"/>
		</g>
	</g>
	<g>
		<g>
			<rect x="24.339" y="54.983" fill="#2F5789" width="18.944" height="3.739"/>
		</g>
	</g>
</g>
</svg>