<?xml version="1.0" encoding="utf-8"?>
<!-- Generator: Adobe Illustrator 16.0.0, SVG Export Plug-In . SVG Version: 6.00 Build 0)  -->
<!DOCTYPE svg PUBLIC "-//W3C//DTD SVG 1.1//EN" "http://www.w3.org/Graphics/SVG/1.1/DTD/svg11.dtd">
<svg version="1.1" id="Layer_1" xmlns="http://www.w3.org/2000/svg" xmlns:xlink="http://www.w3.org/1999/xlink" x="0px" y="0px"
	 width="283.46px" height="283.46px" viewBox="0 0 283.46 283.46" enable-background="new 0 0 283.46 283.46" xml:space="preserve">
<path fill="none" stroke="#2F5789" stroke-width="4" stroke-miterlimit="10" d="M112.392,124.044
	c31.792,0,57.563-25.773,57.563-57.565c0-31.79-25.771-57.562-57.563-57.562c-31.79,0-57.559,25.771-57.559,57.562
	C54.833,98.271,80.602,124.044,112.392,124.044z"/>
<g>
	<path fill="none" stroke="#2F5789" stroke-width="4" stroke-miterlimit="10" d="M167.49,244.764l1.211-3.032
		c1.417-3.235,0.604-7.077-2.224-9.506l-2.224-2.221c-3.844-3.441-3.844-9.306,0-12.542l2.426-2.224
		c2.625-2.429,3.642-6.27,2.224-9.504l-1.211-3.034c-2.025-4.653,0.604-9.908,5.456-11.326l3.24-0.808
		c3.435-1.013,5.864-4.049,6.063-7.686l0.207-3.236c0.202-4.449,4.042-7.888,8.291-7.888c0.405,0,1.008,0,1.413,0.202l3.24,0.605
		c0.397,0,1.013,0.207,1.414,0.207c3.029,0,5.86-1.623,7.273-4.251l1.625-2.831c1.118-1.96,2.822-3.224,4.7-3.829
		c-7.671-11.076-19.738-18.877-33.704-20.829c-0.235-0.034-0.472-0.057-0.704-0.088c-0.764-0.095-1.511-0.228-2.287-0.289
		c-0.046-0.002-0.093-0.006-0.139-0.011c-1.236-0.093-2.485-0.156-3.747-0.156h-0.08h-0.076h-0.177h-0.156h-6.384h-0.135h-0.198l0,0
		h-0.136l0,0h-0.194h-0.139l-34.146,78.033l-10.472-41.851l19.733-19.735l-24.666-16.447l-0.083,0.055l-0.083-0.055l-0.084,0.057
		l-0.084-0.057l-0.083,0.055l-0.082-0.055l-0.084,0.057l-0.084-0.057l-0.082,0.055l-0.083-0.055l-24.666,16.447l19.733,19.735
		l-10.472,41.851l-34.146-78.033h-0.14h-0.192h-0.002h-0.135h-0.004h-0.192h-0.137h-6.382h-0.158h-0.177h-0.076h-0.08
		c-1.262,0-2.511,0.063-3.751,0.156c-0.044,0.004-0.089,0.008-0.135,0.011c-0.776,0.061-1.525,0.194-2.289,0.289
		c-0.234,0.031-0.468,0.055-0.702,0.088c-23.984,3.352-42.463,23.883-42.463,48.795v41.117c0,13.567,11.101,24.67,24.666,24.67
		h24.754h0.468h0.333h31.838h0.333h0.012h0.321h0.013h0.333h47.817h0.333h0.012h0.321h0.013h0.333h31.837h0.333h0.469h1.844
		C167.743,253.755,165.819,249.022,167.49,244.764z"/>
</g>
<path fill="#4CB748" d="M275.706,218.819l-1.975-1.809c-2.3-1.972-2.954-5.097-1.807-7.725l0.654-2.138
	c1.481-3.78-0.489-8.053-4.435-9.206l-2.633-0.656c-2.793-0.823-4.768-3.289-4.932-6.244l-0.161-2.633
	c-0.169-3.614-3.126-6.411-6.742-6.411c-0.333,0-0.818,0.164-1.151,0.164l-2.629,0.494c-0.329,0.164-0.823,0.164-1.147,0.164
	c-2.469,0-4.772-1.314-5.92-3.618l-1.316-2.302c-1.147-2.299-3.451-3.615-5.915-3.615c-1.316,0-2.798,0.495-3.945,1.316l-2.14,1.479
	c-1.151,0.82-2.628,1.314-3.944,1.314c-1.313,0-2.793-0.494-3.945-1.314l-2.139-1.644c-1.148-0.82-2.625-1.316-3.941-1.316
	c-2.304,0-4.604,1.152-5.92,3.454l-1.316,2.301c-1.151,2.138-3.451,3.454-5.915,3.454c-0.325,0-0.822-0.167-1.151-0.167
	l-2.629-0.491c-0.329-0.165-0.823-0.165-1.152-0.165c-3.451,0-6.573,2.793-6.737,6.411l-0.169,2.629
	c-0.16,2.958-2.135,5.424-4.929,6.246l-2.633,0.659c-3.944,1.151-6.08,5.421-4.435,9.206l0.983,2.464
	c1.152,2.631,0.329,5.753-1.806,7.726l-1.975,1.808c-3.118,2.631-3.118,7.398,0,10.194l1.81,1.806
	c2.3,1.975,2.958,5.097,1.807,7.726l-0.983,2.466c-1.481,3.78,0.493,8.055,4.438,9.207l2.629,0.653
	c2.793,0.825,4.768,3.291,4.933,6.249l0.658,2.302c0.164,3.618,3.122,6.415,6.737,6.415c0.329,0,0.823-0.164,1.152-0.164
	l2.629-0.496c0.329-0.165,0.822-0.165,1.151-0.165c2.464,0,4.768,1.316,5.911,3.616l1.321,2.302
	c1.151,2.302,3.451,3.614,5.919,3.614c1.313,0,2.793-0.492,3.941-1.313l2.139-1.483c1.152-0.818,2.629-1.313,3.945-1.313
	s2.793,0.494,3.944,1.313l2.136,1.649c1.151,0.816,2.633,1.311,3.949,1.311c2.299,0,4.603-1.146,5.915-3.451l1.316-2.3
	c1.147-2.139,3.451-3.451,5.915-3.451c0.329,0,0.823,0.167,1.152,0.167l2.633,0.491c0.325,0.164,0.818,0.164,1.147,0.164
	c3.451,0,6.574-2.799,6.738-6.415l0.164-2.629c0.169-2.957,2.14-5.424,4.933-6.248l2.633-0.654c3.945-1.152,6.08-5.426,4.438-9.206
	l-0.987-2.467c-1.147-2.628-0.329-5.753,1.807-7.726l1.975-1.806C278.828,226.38,278.828,221.614,275.706,218.819z M249.124,204.176
	c0,0-24.821,43.237-25.252,43.641c-1.418,1.329-3.637,1.255-4.971-0.163l-16.079-14.833c-1.329-1.422-1.258-3.645,0.16-4.974
	c1.418-1.327,3.642-1.258,4.971,0.162l12.586,11.607l22.492-38.963c0.971-1.68,3.123-2.258,4.807-1.285
	C249.521,200.339,250.095,202.49,249.124,204.176z"/>
</svg>
