<?xml version="1.0" encoding="utf-8"?>
<!-- Generator: Adobe Illustrator 17.0.0, SVG Export Plug-In . SVG Version: 6.00 Build 0)  -->
<!DOCTYPE svg PUBLIC "-//W3C//DTD SVG 1.1//EN" "http://www.w3.org/Graphics/SVG/1.1/DTD/svg11.dtd">
<svg version="1.1" id="Layer_1" xmlns="http://www.w3.org/2000/svg" xmlns:xlink="http://www.w3.org/1999/xlink" x="0px" y="0px"
	 width="50px" height="50px" viewBox="116.73 116.73 50 50" enable-background="new 116.73 116.73 50 50" xml:space="preserve">
<g>
	<g>
		<path fill="#FFFFFF" d="M141.73,117.563c-13.347,0-24.167,10.82-24.167,24.167c0,13.347,10.82,24.167,24.167,24.167
			s24.167-10.82,24.167-24.167C165.897,128.383,155.077,117.563,141.73,117.563z M141.73,162.647
			c-11.552,0-20.917-9.365-20.917-20.917c0-11.552,9.365-20.917,20.917-20.917s20.917,9.365,20.917,20.917
			C162.647,153.282,153.282,162.647,141.73,162.647z M152.915,129.349c-0.848-0.491-1.94-0.2-2.431,0.652l-11.382,19.718
			l-6.369-5.874c-0.674-0.718-1.799-0.756-2.515-0.083c-0.719,0.673-0.754,1.799-0.084,2.516l8.139,7.508
			c0.672,0.717,1.798,0.755,2.514,0.082c0.218-0.204,12.782-22.085,12.782-22.085C154.058,130.93,153.766,129.841,152.915,129.349z"
			/>
	</g>
</g>
</svg>
