<?xml version="1.0" encoding="utf-8"?>
<!-- Generator: Adobe Illustrator 16.0.0, SVG Export Plug-In . SVG Version: 6.00 Build 0)  -->
<!DOCTYPE svg PUBLIC "-//W3C//DTD SVG 1.1//EN" "http://www.w3.org/Graphics/SVG/1.1/DTD/svg11.dtd">
<svg version="1.1" id="Layer_1" xmlns="http://www.w3.org/2000/svg" xmlns:xlink="http://www.w3.org/1999/xlink" x="0px" y="0px"
	 width="203.809px" height="262.687px" viewBox="39.825 10.387 203.809 262.687"
	 enable-background="new 39.825 10.387 203.809 262.687" xml:space="preserve">
<g>
	<path fill="#E73118" d="M241.144,65.585l-3.495-3.495l-45.717-45.722l-3.492-3.49c-1.584-1.582-3.772-2.491-6.017-2.491H50.98
		c-5.371,0-11.155,4.149-11.155,13.251v163.385v74.895v2.101c0,3.792,3.813,7.485,8.324,8.649c0.228,0.057,0.444,0.146,0.678,0.188
		c0.708,0.142,1.429,0.218,2.153,0.218h181.499c0.726,0,1.444-0.076,2.151-0.218c0.234-0.043,0.453-0.132,0.68-0.188
		c4.511-1.164,8.324-4.857,8.324-8.649v-2.101v-74.895V73.696C243.634,70.223,243.218,67.659,241.144,65.585z M227.488,64.737
		h-38.201V26.533L227.488,64.737z M50.98,264.018c-0.321,0-0.61-0.119-0.897-0.222c-0.706-0.336-1.201-1.041-1.201-1.879V196.08
		h185.694v65.838c0,0.838-0.494,1.539-1.201,1.879c-0.283,0.103-0.572,0.222-0.896,0.222H50.98z M48.883,187.023V23.638
		c0-0.982,0.151-4.192,2.098-4.192h129.511c-0.15,0.57-0.268,1.157-0.268,1.773v52.575h52.583c0.61,0,1.194-0.113,1.767-0.264
		c0,0.068,0.004,0.098,0.004,0.166v113.327H48.883z"/>
	<path fill="#030104" d="M110.217,213.037c-1.507-1.236-3.209-2.168-5.108-2.785c-1.9-0.619-3.819-0.931-5.758-0.931H86.225v45.638
		h7.431v-16.475h5.514c2.392,0,4.583-0.35,6.564-1.05c1.977-0.701,3.673-1.692,5.076-2.972c1.403-1.275,2.495-2.856,3.282-4.736
		c0.787-1.879,1.178-3.975,1.178-6.287c0-2.186-0.466-4.156-1.395-5.913C112.948,215.766,111.724,214.278,110.217,213.037z
		 M107.4,228.111c-0.459,1.264-1.05,2.24-1.794,2.941s-1.558,1.207-2.447,1.519c-0.886,0.306-1.788,0.468-2.693,0.468h-6.813v-18.08
		h5.569c1.898,0,3.427,0.297,4.585,0.896c1.154,0.596,2.049,1.339,2.695,2.229c0.64,0.889,1.059,1.814,1.267,2.783
		c0.204,0.971,0.31,1.824,0.31,2.568C108.081,225.296,107.851,226.854,107.4,228.111z"/>
	<path fill="#030104" d="M155.109,216.009c-1.921-2.02-4.334-3.648-7.246-4.859c-2.914-1.216-6.288-1.828-10.122-1.828h-13.748
		v45.637h17.274c0.576,0,1.465-0.071,2.663-0.217c1.194-0.145,2.517-0.472,3.963-0.99c1.444-0.52,2.94-1.293,4.489-2.326
		c1.547-1.031,2.938-2.443,4.181-4.241c1.239-1.8,2.26-4.03,3.067-6.69c0.804-2.662,1.207-5.875,1.207-9.629
		c0-2.727-0.477-5.379-1.42-7.959C158.462,220.332,157.029,218.033,155.109,216.009z M149.691,244.673
		c-2.229,3.224-5.859,4.83-10.896,4.83h-7.369v-34.549h4.334c3.55,0,6.44,0.463,8.668,1.395c2.228,0.927,3.995,2.146,5.295,3.65
		c1.299,1.51,2.174,3.193,2.634,5.047c0.452,1.857,0.678,3.736,0.678,5.638C153.035,236.792,151.921,241.46,149.691,244.673z"/>
	<polygon fill="#030104" points="171.612,254.958 179.167,254.958 179.167,234.399 198.24,234.399 198.24,229.324 179.167,229.324 
		179.167,214.958 200.158,214.958 200.158,209.321 171.612,209.321 	"/>
	<path fill="#E73118" d="M184.433,114.38c-4.164,0-9.273,0.544-15.211,1.62c-8.288-8.794-16.941-21.639-23.044-34.248
		c6.056-25.494,3.024-29.104,1.688-30.808c-1.424-1.811-3.428-4.749-5.711-4.749c-0.955,0-3.564,0.434-4.602,0.778
		c-2.606,0.872-4.013,2.88-5.135,5.503c-3.206,7.486,1.19,20.251,5.709,30.088c-3.862,15.364-10.343,33.759-17.153,48.687
		c-17.167,7.863-26.285,15.586-27.108,22.954c-0.297,2.682,0.336,6.619,5.048,10.151c1.292,0.965,2.806,1.476,4.383,1.476l0,0
		c3.96,0,7.963-3.031,12.599-9.539c3.377-4.75,7.006-11.219,10.792-19.253c12.131-5.306,27.133-10.097,39.984-12.783
		c7.156,6.874,13.563,10.352,19.072,10.352c4.057,0,7.534-1.866,10.055-5.395c2.621-3.673,3.22-6.959,1.766-9.782
		C195.821,116.038,191.523,114.38,184.433,114.38z M103.396,158.188c-2.122-1.624-1.998-2.722-1.952-3.133
		c0.281-2.517,4.226-6.989,13.901-12.425C108.013,156.177,104.072,157.976,103.396,158.188z M140.534,54.375
		c0.196-0.064,4.731,4.986,0.436,14.564C134.51,62.333,140.09,54.523,140.534,54.375z M131.173,126.955
		c4.595-10.955,8.872-23.05,12.11-34.256c5.092,9.14,11.195,18.008,17.309,25.109C150.929,120.077,140.636,123.278,131.173,126.955z
		 M189.602,124.787c-1.396,1.951-4.419,1.998-5.479,1.998c-2.412,0-3.315-1.437-7.006-4.277c3.045-0.387,5.913-0.489,8.202-0.489
		c4.026,0,4.767,0.595,5.323,0.893C190.541,123.235,190.277,123.843,189.602,124.787z"/>
</g>
</svg>
