<?xml version="1.0" encoding="utf-8"?>
<!-- Generator: Adobe Illustrator 16.0.0, SVG Export Plug-In . SVG Version: 6.00 Build 0)  -->
<!DOCTYPE svg PUBLIC "-//W3C//DTD SVG 1.1//EN" "http://www.w3.org/Graphics/SVG/1.1/DTD/svg11.dtd">
<svg version="1.1" id="Layer_1" xmlns="http://www.w3.org/2000/svg" xmlns:xlink="http://www.w3.org/1999/xlink" x="0px" y="0px"
	 width="283.46px" height="283.46px" viewBox="0 0 283.46 283.46" enable-background="new 0 0 283.46 283.46" xml:space="preserve">
<path fill="none" stroke="#EC2127" stroke-width="4" stroke-miterlimit="10" d="M141.729,6.796
	c74.427,0,134.938,60.476,134.938,134.935c0,74.426-60.507,134.934-134.938,134.934c-74.458,0-134.936-60.508-134.936-134.932
	C6.793,67.276,67.273,6.796,141.729,6.796L141.729,6.796z"/>
<path fill="none" stroke="#EC2127" stroke-width="4" stroke-miterlimit="10" d="M69.559,80.361c0-7.027,5.624-12.651,12.65-12.651
	h18.743c2.34,0,5.152,0.941,7.023,1.871c0.479,0.469,2.814,2.816,2.814,9.843v30.918c0,0,0-38.413,21.546-40.761
	c7.495-0.461,17.328-0.93,26.701-0.93c8.437-0.477,17.799-0.941,25.298,0.93c24.829,5.155,18.744,22.489,18.744,22.489
	c13.58,9.839,5.616,22.489,5.616,22.489c11.714,12.179,0,22.952,0,22.952s6.562,9.846-1.871,17.334
	c-10.314,9.371-38.417,3.284-38.417,3.284l0,0c-1.878-0.467-4.214-0.936-6.089-1.412c0,0-9.835-4.687,0,24.831
	c9.839,29.512-6.558,34.201-13.115,34.201c-7.024,0-4.684-14.527-4.684-14.527s-14.525-40.284-28.582-50.588
	c-3.743-3.746-5.618-8.433-6.552-11.241c-2.348,1.863-5.164,2.809-7.965,2.809H82.682c-7.026,0-12.654-5.624-12.654-12.655V80.361
	H69.559z"/>
</svg>
