<?xml version="1.0" encoding="iso-8859-1"?>
<!-- Generator: Adobe Illustrator 17.0.0, SVG Export Plug-In . SVG Version: 6.00 Build 0)  -->
<!DOCTYPE svg PUBLIC "-//W3C//DTD SVG 1.1//EN" "http://www.w3.org/Graphics/SVG/1.1/DTD/svg11.dtd">
<svg version="1.1" id="Layer_1" xmlns="http://www.w3.org/2000/svg" xmlns:xlink="http://www.w3.org/1999/xlink" x="0px" y="0px"
	 width="257px" height="239px" viewBox="0 0 257 239" style="enable-background:new 0 0 257 239;" xml:space="preserve">
<g>
	<g>
		<path style="fill:#2174B7;" d="M129.292,229.518c-27.543,0.001-55.086,0.009-82.63-0.002c-20.099-0.008-36.154-16.057-36.153-36.1
			c0.003-48.888,0.012-97.776-0.012-146.664c-0.003-5.589,0.739-11.159,3.471-15.939C21.064,18.4,31.537,10.699,46.323,10.67
			c55.322-0.109,110.645-0.061,165.967-0.04c19.419,0.007,35.737,16.226,35.756,35.629c0.047,49.202,0.049,98.404,0,147.606
			c-0.02,19.519-16.134,35.6-35.653,35.639C184.693,229.559,156.992,229.518,129.292,229.518z M94.552,65.98
			c19.897,27.963,39.681,55.766,59.543,83.678c13.009-12.955,25.78-25.672,38.694-38.532c15.136,20.663,30.24,41.284,45.638,62.304
			c0.046-0.943,0.081-1.319,0.081-1.695c0.002-42.064,0.038-84.127-0.021-126.191c-0.021-14.531-10.751-25.244-25.342-25.259
			c-55.797-0.058-111.595-0.059-167.392-0.011c-15.093,0.013-25.723,10.77-25.733,25.879c-0.028,41.907-0.011,83.813,0.011,125.72
			c0,0.524-0.383,1.218,0.412,1.667C45.132,137.707,69.804,101.899,94.552,65.98z M94.67,82.648
			c-21.556,31.29-42.957,62.356-64.462,93.574c66.227,0,132.131,0,198.4,0c-12.452-17.003-24.685-33.708-36.957-50.466
			c-13.009,12.957-25.838,25.736-38.803,38.65C133.472,137.179,114.131,109.998,94.67,82.648z M20.019,186.092
			c0,2.616-0.006,5.032,0.001,7.448c0.043,15.955,10.596,26.463,26.609,26.468c27.148,0.009,54.296,0.002,81.444,0.002
			c28.247,0,56.493,0.032,84.74-0.021c8.483-0.016,15.573-3.172,20.786-10.041c5.433-7.159,5.193-15.452,4.787-23.857
			C165.611,186.092,92.97,186.092,20.019,186.092z"/>
		<path style="fill:#EF7C26;" d="M174.854,42.918c13.129,0.048,24.984,11.985,24.897,25.071
			c-0.087,13.112-12.026,24.924-25.138,24.869c-13.14-0.055-24.916-11.962-24.832-25.108
			C149.865,54.535,161.644,42.869,174.854,42.918z M190.116,67.889c0.011-9.151-6.156-15.409-15.246-15.473
			c-9.202-0.064-15.535,6.225-15.537,15.428c-0.002,9.221,6.329,15.549,15.489,15.483C183.932,83.26,190.105,77.03,190.116,67.889z"
			/>
	</g>
</g>
</svg>
