<?xml version="1.0" encoding="utf-8"?>
<!-- Generator: Adobe Illustrator 16.0.0, SVG Export Plug-In . SVG Version: 6.00 Build 0)  -->
<!DOCTYPE svg PUBLIC "-//W3C//DTD SVG 1.1//EN" "http://www.w3.org/Graphics/SVG/1.1/DTD/svg11.dtd">
<svg version="1.1" id="Layer_1" xmlns="http://www.w3.org/2000/svg" xmlns:xlink="http://www.w3.org/1999/xlink" x="0px" y="0px"
	 width="283.46px" height="283.46px" viewBox="0 0 283.46 283.46" enable-background="new 0 0 283.46 283.46" xml:space="preserve">
<g>
	<path fill-rule="evenodd" clip-rule="evenodd" fill="none" stroke="#08AF29" stroke-width="5" stroke-miterlimit="10" d="
		M150.139,83.308c0,0.975,0.06,1.956-0.017,2.921c-0.193,2.429,0.134,4.356,1.868,6.543c3.183,4.003,2.4,9.121,1.777,13.834
		c-1.025,7.768-4.759,14.333-9.8,20.238c-1.096,1.286-2.017,2.854-2.579,4.444c-3.917,11.13-10.423,20.107-21.366,25.115
		c-12.528,5.736-23.787,2.749-33.844-5.925c-5.97-5.158-9.796-11.782-12.364-19.205c-0.555-1.591-1.489-3.147-2.579-4.438
		c-7.354-8.745-11.568-18.472-9.655-30.137c0.242-1.481,0.744-3.297,1.787-4.189c1.932-1.647,1.891-3.569,2.024-5.722
		c0.432-7.083,0.071-14.395,1.746-21.186c3.737-15.133,14.337-23.651,29.355-26.751c11.929-2.458,23.454-1.02,34.469,4.267
		c5.921,2.84,9.748,7.306,11.091,13.814c0.19,0.919,0.408,2.038,1.027,2.639c5.012,4.828,6,11.196,6.855,17.599
		c0.271,2.025,0.213,4.092,0.304,6.136C150.204,83.308,150.17,83.308,150.139,83.308z"/>
	<path fill-rule="evenodd" clip-rule="evenodd" fill="none" stroke="#08AF29" stroke-width="5" stroke-miterlimit="10" d="
		M107.582,225.163c-3.471-6.747-6.563-12.669-9.519-18.659c-0.383-0.772-0.208-1.921-0.022-2.842
		c0.707-3.424,1.601-6.812,2.282-10.241c0.391-1.978,1.334-2.767,3.389-2.647c2.715,0.156,5.451,0.107,8.171,0.013
		c1.626-0.056,2.564,0.504,2.911,2.136c0.802,3.803,1.69,7.586,2.471,11.392c0.149,0.715,0.208,1.617-0.097,2.226
		C114.159,212.505,111.064,218.433,107.582,225.163z"/>
	<path fill-rule="evenodd" clip-rule="evenodd" fill="none" stroke="#08AF29" stroke-width="5" stroke-miterlimit="10" d="
		M107.722,171.37c2.432,0,4.868,0.039,7.301-0.011c1.829-0.039,2.48,0.841,2.149,2.546c-0.726,3.816-1.374,7.656-2.315,11.423
		c-0.197,0.787-1.466,1.79-2.298,1.844c-3.292,0.21-6.62,0.232-9.914-0.011c-0.867-0.065-2.146-1.216-2.371-2.096
		c-0.927-3.565-1.504-7.223-2.241-10.842c-0.402-1.98,0.234-2.948,2.391-2.862c2.431,0.095,4.863,0.022,7.297,0.022V171.37z"/>
	<g>
		<path fill="#08AF29" d="M265.734,198.771c-0.959-5.306-3.006-10.243-6.247-14.639c-0.6-0.813-1.102-1.057-2.159-0.893
			c-2.635,0.413-5.308,0.709-7.976,0.802c-1.411,0.048-2.967-0.147-4.241-0.705c-7.588-3.335-15.221-6.604-22.626-10.317
			c-4.213-2.11-7.792-2.38-11.898,0.263c-4.483,2.888-9.363,5.164-14.045,7.75c-4.116,2.271-4.8,7.601-1.399,10.609
			c2.144,1.896,5.3,1.923,8.287,0.185c4.069-2.369,8.167-4.697,12.28-6.986c0.506-0.286,1.317-0.56,1.753-0.352
			c3.61,1.722,7.293,3.347,10.7,5.414c3.357,2.032,6.402,4.568,9.614,6.841l16.637,12.007c1.075,0.761,2.298,1.369,3.201,2.3
			c2.263,2.34,4.671,2.602,7.674,1.476c1.296-0.485,1.693-0.969,1.586-2.144C266.529,206.506,266.429,202.585,265.734,198.771z"/>
		<path fill="#08AF29" d="M210.216,229.088c-1.438,0.077-2.838,0.799-4.079,1.179c0.097-1.102,0.622-2.639,0.234-3.896
			c-0.401-1.307-1.474-2.698-2.645-3.374c-0.936-0.545-2.59-0.397-3.669,0.056c-1.111,0.464-1.908,1.67-2.82,2.531
			c-0.519-2.012-1.73-3.59-4.036-3.854c-2.175-0.254-3.802,0.785-4.896,2.797c-0.189-0.304-0.305-0.484-0.413-0.674
			c-1.484-2.602-3.483-3.469-5.902-2.536c-2.423,0.938-3.406,2.979-2.776,5.813c0.391,1.753,0.767,3.515,1.217,5.253
			c0.612,2.354,2.612,3.821,4.938,3.447c1.073-0.176,1.505,0.171,2.074,0.982c1.541,2.224,4.27,2.587,6.436,0.995
			c0.354-0.259,0.703-0.518,1.291-0.947c-0.487,2.494,0.312,4.202,2.243,5.278c2.269,1.267,4.207,0.374,5.96-1.234
			c0.246,0.76,0.406,1.442,0.682,2.075c0.711,1.664,2.609,2.877,4.267,2.788c1.793-0.094,3.75-1.475,4.197-3.194
			c0.726-2.806,1.386-5.633,1.905-8.481C214.904,231.467,212.844,228.956,210.216,229.088z"/>
		<path fill="#08AF29" d="M177.857,177.738c-1.838-0.829-3.526-0.013-4.135,1.919c-3.364,10.693-6.726,21.39-10.071,32.089
			c-0.551,1.757,0.446,3.43,2.255,3.839c1.076,0.248,2.159,0.454,3.238,0.665c1.508,0.29,3.015,0.572,4.671,0.889
			c-0.082-13.164,4.02-25.022,9.43-36.655C181.364,179.514,179.648,178.545,177.857,177.738z"/>
		<path fill="#08AF29" d="M277.665,208.446c-0.518-3.731-0.89-7.373-1.321-11.123c-0.663-5.715-1.27-11.378-1.999-17.091
			c-0.268-2.088-1.749-2.97-3.773-2.472c-3.209,0.791-6.398,1.442-9.771,2.317c7.57,10.001,9.759,20.923,9.318,33.259
			c1.192,0,2.171,0,3.15,0C277.226,213.337,278.208,212.344,277.665,208.446z"/>
		<path fill="#08AF29" d="M254.976,218.914l-24.355-17.483c-4.822-3.787-9.666-7.64-15.543-9.74
			c-0.808-0.285-1.98-0.257-2.725,0.125c-3.882,1.983-7.682,4.116-11.497,6.227c-4.023,2.226-8.94,1.258-11.996-2.398
			c-2.598-3.114-2.553-8.147,0.094-11.509c0.286-0.366,0.547-0.757,0.936-1.297c-0.701-0.043-1.114-0.019-1.513-0.093
			c-2.086-0.408-3.331,0.309-4.034,2.425c-1.713,5.131-3.614,10.192-5.399,15.305c-0.158,0.444-1.248,4.513-1.373,6.089
			l-0.523,5.095c0,1.642-0.037,3.015,0.032,4.387c0.013,0.304,0.362,0.67,0.651,0.837c0.136,0.077,0.567-0.188,0.757-0.399
			c0.624-0.705,1.3-1.606,1.973-2.164c2.362-1.975,5.427-1.761,7.615-0.789c1.712,1.185,1.582,1.185,3.8,0.437
			c2.301-0.773,4.478-0.478,6.51,0.76c0.793,0.487,1.426,0.683,2.349,0.222c4.255-2.098,9.148,1.108,10.272,4.518
			c0.168,0.493,0.875,1.045,1.407,1.138c5.267,0.939,8.024,5.772,6.826,9.941c-0.402,1.392-0.711,2.812-1.039,4.224
			c-0.197,0.84-0.141,1.469,0.786,2.03c1.771,1.076,3.414,2.377,5.099,3.594c2.456,1.781,5.162,0.84,5.905-2.065
			c0.321-1.239,0.138-2.155-1.113-2.944c-1.952-1.225-3.604-2.668-5.59-4.122c-1.037-0.759-0.378-2.229,1.059-1.617
			c0.227,0.092,0.477,0.298,0.707,0.468c3.048,2.199,6.093,4.406,9.156,6.591c1.663,1.193,3.487,0.793,4.831-1.005
			c1.276-1.721,1.057-3.303-0.633-4.544c-3.462-2.539-6.912-5.071-10.369-7.611c-0.719-0.53-1.91-1.058-1.136-2.102
			c0.812-1.094,1.666-0.009,2.367,0.493c4.329,3.095,8.657,6.187,12.945,9.337c1.061,0.781,1.957,1.632,3.42,0.936
			c1.671-0.794,2.717-2.063,2.817-3.878c0.03-0.66-0.413-1.601-0.945-2.001c-3.692-2.783-7.459-5.469-11.224-8.154
			c-0.775-0.555-1.546-1.161-0.775-2.047c0.23-0.269,1.47,0.007,1.998,0.381c4.729,3.337,9.421,6.725,14.065,10.173
			c0.938,0.693,1.701,0.732,2.714,0.299C257.656,225.528,258.08,221.209,254.976,218.914z"/>
	</g>
	<path fill-rule="evenodd" clip-rule="evenodd" fill="none" stroke="#08AF29" stroke-width="5" stroke-miterlimit="10" d="
		M165.557,233.688c-0.432-1.669-0.808-3.354-1.18-5.039l-7.016-1.338c-1.27-0.25-2.546-0.499-3.806-0.784
		c-3.683-0.833-6.851-3.148-8.686-6.352c-1.835-3.175-2.244-7.043-1.124-10.61c3.986-12.756,7.991-25.511,12.007-38.26
		c1.806-5.754,6.729-9.471,12.528-9.471c0.771,0,1.533,0.084,2.293,0.214c-8.91-3.943-17.899-7.725-26.851-11.588
		c-0.491-0.214-1.049-0.271-1.648-0.411c-0.302,1.221-0.566,2.259-0.804,3.296c-5.981,26.2-15.025,51.217-28.711,74.447
		c-0.837,1.426-1.652,2.879-2.607,4.23c-1.651,2.326-3.046,2.275-4.762-0.088c-0.402-0.549-0.759-1.135-1.105-1.722
		c-8.318-14.262-15.818-28.932-20.884-44.686c-3.757-11.677-7.018-23.511-10.652-35.79c-10.578,4.636-21.39,9.101-31.938,14.123
		c-4.876,2.319-9.789,5.125-13.752,8.731c-15.104,13.761-20.147,31.937-21.2,51.565c-0.063,1.271,1.47,3.265,2.758,3.856
		c3.696,1.716,7.587,3.082,11.508,4.228c19.12,5.597,38.816,7.642,58.598,8.7c29.693,1.592,59.338,1.145,88.835-2.964
		C166.574,236.681,165.963,235.248,165.557,233.688z"/>
	<path fill="#08AF29" d="M221.516,48.843c-27.441,0-49.68,22.239-49.68,49.677s22.238,49.677,49.68,49.677
		c27.435,0,49.677-22.239,49.677-49.677S248.95,48.843,221.516,48.843z M244.074,82.796c-22.152,38.581-22.439,38.849-22.875,39.255
		c-1.151,1.078-2.661,1.675-4.246,1.675c-1.711,0-3.368-0.716-4.543-1.965l-14.033-12.938c-1.258-1.334-1.876-2.935-1.831-4.602
		c0.041-1.673,0.736-3.222,1.954-4.364c2.329-2.192,6.599-2.058,8.798,0.285l8.081,7.442l17.902-31.013
		c1.104-1.92,3.171-3.115,5.395-3.115c1.089,0,2.168,0.289,3.113,0.835C244.76,76.007,245.783,79.822,244.074,82.796z"/>
</g>
</svg>
