<?xml version="1.0" encoding="utf-8"?>
<!-- Generator: Adobe Illustrator 16.0.0, SVG Export Plug-In . SVG Version: 6.00 Build 0)  -->
<!DOCTYPE svg PUBLIC "-//W3C//DTD SVG 1.1//EN" "http://www.w3.org/Graphics/SVG/1.1/DTD/svg11.dtd">
<svg version="1.1" id="Layer_1" xmlns="http://www.w3.org/2000/svg" xmlns:xlink="http://www.w3.org/1999/xlink" x="0px" y="0px"
	 width="283.46px" height="283.46px" viewBox="0 0 283.46 283.46" enable-background="new 0 0 283.46 283.46" xml:space="preserve">
<g>
	<path fill="#C43402" d="M221.562,48.786c-27.404,0-49.704,22.296-49.704,49.701c0,27.402,22.3,49.697,49.704,49.697
		s49.699-22.294,49.699-49.697C271.261,71.082,248.966,48.786,221.562,48.786z M221.562,59.178c8.63,0,17.04,2.873,23.886,8.126
		l-53.73,56.713c-6.115-7.128-9.463-16.122-9.463-25.531C182.254,76.813,199.888,59.178,221.562,59.178z M221.562,137.789
		c-7.966,0-15.563-2.356-22.106-6.824l53.335-56.303c5.224,6.839,8.074,15.219,8.074,23.825
		C260.864,120.158,243.235,137.789,221.562,137.789z"/>
	<path fill-rule="evenodd" clip-rule="evenodd" fill="none" stroke="#C43402" stroke-width="5" stroke-miterlimit="10" d="
		M150.161,83.165c0,0.978,0.06,1.961-0.017,2.929c-0.194,2.434,0.134,4.367,1.873,6.559c3.189,4.013,2.408,9.143,1.781,13.868
		c-1.028,7.787-4.771,14.368-9.825,20.287c-1.1,1.289-2.022,2.862-2.585,4.455c-3.927,11.158-10.451,20.157-21.42,25.177
		c-12.555,5.75-23.845,2.756-33.924-5.939c-5.984-5.171-9.82-11.811-12.396-19.252c-0.552-1.595-1.49-3.154-2.585-4.449
		c-7.369-8.766-11.592-18.517-9.678-30.21c0.243-1.485,0.748-3.306,1.794-4.199c1.933-1.651,1.894-3.578,2.026-5.736
		c0.435-7.1,0.075-14.43,1.75-21.237c3.748-15.17,14.374-23.708,29.428-26.816c11.96-2.464,23.511-1.022,34.553,4.277
		c5.936,2.847,9.771,7.324,11.119,13.848c0.19,0.922,0.408,2.043,1.029,2.646c5.025,4.839,6.014,11.223,6.874,17.642
		c0.271,2.03,0.211,4.103,0.304,6.15C150.227,83.165,150.192,83.165,150.161,83.165z"/>
	<path fill-rule="evenodd" clip-rule="evenodd" fill="none" stroke="#C43402" stroke-width="5" stroke-miterlimit="10" d="
		M107.5,225.367c-3.477-6.764-6.582-12.7-9.542-18.705c-0.384-0.774-0.211-1.926-0.021-2.849c0.709-3.433,1.604-6.828,2.287-10.266
		c0.388-1.983,1.336-2.774,3.395-2.655c2.722,0.157,5.462,0.108,8.192,0.014c1.63-0.057,2.568,0.505,2.916,2.142
		c0.806,3.811,1.698,7.604,2.478,11.418c0.151,0.717,0.212,1.622-0.095,2.231C114.092,212.679,110.99,218.62,107.5,225.367z"/>
	<path fill-rule="evenodd" clip-rule="evenodd" fill="none" stroke="#C43402" stroke-width="5" stroke-miterlimit="10" d="
		M107.64,171.443c2.438,0,4.88,0.039,7.318-0.012c1.832-0.039,2.487,0.844,2.153,2.552c-0.728,3.826-1.377,7.675-2.319,11.451
		c-0.2,0.789-1.47,1.794-2.304,1.849c-3.3,0.211-6.635,0.233-9.939-0.012c-0.867-0.064-2.149-1.218-2.376-2.101
		c-0.925-3.574-1.505-7.239-2.242-10.868c-0.405-1.984,0.231-2.955,2.395-2.869c2.437,0.096,4.875,0.022,7.315,0.022V171.443z"/>
	<g>
		<path fill="#C43402" d="M266.039,198.911c-0.961-5.319-3.013-10.269-6.265-14.675c-0.597-0.814-1.103-1.06-2.16-0.896
			c-2.644,0.415-5.322,0.711-7.999,0.805c-1.412,0.048-2.974-0.147-4.25-0.707c-7.607-3.343-15.26-6.621-22.681-10.343
			c-4.224-2.115-7.811-2.386-11.928,0.264c-4.496,2.895-9.388,5.177-14.081,7.77c-4.123,2.275-4.81,7.618-1.403,10.635
			c2.151,1.901,5.313,1.928,8.31,0.185c4.08-2.374,8.188-4.708,12.313-7.003c0.507-0.287,1.318-0.562,1.757-0.353
			c3.615,1.726,7.31,3.354,10.723,5.427c3.367,2.037,6.42,4.58,9.64,6.857l16.678,12.037c1.08,0.763,2.304,1.373,3.207,2.306
			c2.27,2.345,4.686,2.607,7.693,1.479c1.3-0.487,1.697-0.973,1.589-2.149C266.834,206.664,266.733,202.733,266.039,198.911z"/>
		<path fill="#C43402" d="M210.386,229.302c-1.442,0.076-2.846,0.801-4.088,1.181c0.096-1.104,0.621-2.646,0.233-3.904
			c-0.401-1.31-1.476-2.705-2.651-3.382c-0.937-0.547-2.597-0.399-3.679,0.056c-1.111,0.465-1.912,1.674-2.826,2.537
			c-0.521-2.017-1.736-3.599-4.046-3.863c-2.181-0.254-3.813,0.787-4.91,2.804c-0.188-0.304-0.306-0.485-0.414-0.676
			c-1.485-2.607-3.488-3.477-5.914-2.542c-2.429,0.939-3.413,2.986-2.785,5.827c0.39,1.758,0.769,3.524,1.219,5.267
			c0.615,2.36,2.619,3.83,4.951,3.455c1.078-0.176,1.511,0.172,2.08,0.985c1.544,2.229,4.281,2.593,6.448,0.998
			c0.354-0.26,0.707-0.519,1.295-0.95c-0.488,2.5,0.313,4.213,2.25,5.291c2.275,1.271,4.216,0.375,5.974-1.237
			c0.246,0.762,0.406,1.446,0.683,2.08c0.716,1.668,2.619,2.885,4.279,2.795c1.797-0.094,3.759-1.478,4.205-3.201
			c0.729-2.813,1.392-5.647,1.914-8.503C215.085,231.686,213.021,229.169,210.386,229.302z"/>
		<path fill="#C43402" d="M177.946,177.827c-1.84-0.832-3.533-0.014-4.144,1.923c-3.373,10.72-6.74,21.442-10.098,32.167
			c-0.553,1.761,0.451,3.438,2.265,3.849c1.076,0.248,2.162,0.455,3.244,0.666c1.511,0.291,3.021,0.574,4.682,0.892
			c-0.084-13.196,4.03-25.084,9.453-36.745C181.461,179.606,179.742,178.635,177.946,177.827z"/>
		<path fill="#C43402" d="M277.997,208.609c-0.519-3.74-0.89-7.391-1.321-11.15c-0.666-5.729-1.273-11.405-2.003-17.133
			c-0.271-2.093-1.756-2.977-3.785-2.477c-3.218,0.792-6.414,1.445-9.796,2.322c7.591,10.025,9.786,20.974,9.343,33.34
			c1.195,0,2.177,0,3.158,0C277.561,213.512,278.546,212.516,277.997,208.609z"/>
		<path fill="#C43402" d="M255.253,219.104l-24.412-17.527c-4.836-3.796-9.693-7.657-15.585-9.764
			c-0.808-0.285-1.98-0.258-2.73,0.125c-3.89,1.988-7.701,4.127-11.523,6.242c-4.033,2.23-8.964,1.261-12.027-2.405
			c-2.603-3.12-2.56-8.167,0.094-11.536c0.287-0.367,0.548-0.759,0.94-1.3c-0.704-0.043-1.12-0.019-1.519-0.094
			c-2.09-0.408-3.34,0.31-4.045,2.431c-1.716,5.144-3.621,10.218-5.41,15.343c-0.156,0.445-1.252,4.523-1.377,6.104l-0.525,5.107
			c0,1.646-0.036,3.022,0.033,4.397c0.012,0.304,0.364,0.672,0.653,0.84c0.134,0.076,0.568-0.188,0.757-0.401
			c0.627-0.707,1.305-1.61,1.979-2.17c2.367-1.979,5.44-1.765,7.634-0.791c1.716,1.188,1.586,1.188,3.812,0.438
			c2.306-0.776,4.486-0.479,6.521,0.762c0.799,0.488,1.433,0.685,2.354,0.222c4.267-2.103,9.175,1.111,10.301,4.529
			c0.165,0.494,0.877,1.047,1.407,1.14c5.283,0.942,8.046,5.787,6.845,9.966c-0.405,1.396-0.711,2.818-1.041,4.234
			c-0.2,0.842-0.143,1.472,0.787,2.035c1.775,1.079,3.423,2.383,5.111,3.603c2.463,1.785,5.175,0.842,5.919-2.07
			c0.321-1.243,0.139-2.16-1.115-2.951c-1.959-1.228-3.615-2.676-5.604-4.133c-1.039-0.761-0.38-2.234,1.063-1.621
			c0.228,0.092,0.478,0.299,0.709,0.469c3.054,2.205,6.106,4.417,9.175,6.607c1.67,1.195,3.498,0.795,4.847-1.008
			c1.277-1.726,1.056-3.311-0.638-4.555c-3.469-2.545-6.925-5.084-10.395-7.631c-0.717-0.531-1.913-1.06-1.137-2.105
			c0.813-1.097,1.67-0.01,2.371,0.494c4.341,3.103,8.683,6.201,12.98,9.359c1.062,0.783,1.961,1.636,3.429,0.938
			c1.673-0.797,2.722-2.069,2.822-3.888c0.03-0.662-0.416-1.604-0.945-2.006c-3.703-2.791-7.479-5.482-11.253-8.175
			c-0.78-0.556-1.551-1.164-0.776-2.052c0.229-0.269,1.472,0.008,2.004,0.383c4.738,3.345,9.439,6.739,14.1,10.196
			c0.938,0.696,1.701,0.735,2.72,0.301C257.939,225.733,258.364,221.403,255.253,219.104z"/>
	</g>
	<path fill-rule="evenodd" clip-rule="evenodd" fill="none" stroke="#C43402" stroke-width="5" stroke-miterlimit="10" d="
		M165.615,233.913c-0.434-1.673-0.808-3.361-1.182-5.052l-7.034-1.341c-1.271-0.25-2.549-0.5-3.813-0.786
		c-3.693-0.835-6.867-3.156-8.708-6.366c-1.839-3.183-2.249-7.062-1.126-10.638c3.999-12.786,8.012-25.572,12.037-38.353
		c1.81-5.769,6.746-9.494,12.559-9.494c0.772,0,1.537,0.084,2.299,0.215c-8.933-3.953-17.942-7.744-26.919-11.616
		c-0.49-0.215-1.05-0.272-1.651-0.412c-0.302,1.224-0.567,2.265-0.808,3.304c-5.994,26.265-15.062,51.342-28.781,74.63
		c-0.837,1.429-1.653,2.886-2.611,4.24c-1.657,2.331-3.054,2.281-4.776-0.088c-0.401-0.551-0.761-1.139-1.108-1.726
		c-8.337-14.298-15.857-29.003-20.933-44.795c-3.767-11.706-7.035-23.568-10.68-35.878c-10.604,4.647-21.438,9.123-32.012,14.158
		c-4.888,2.324-9.814,5.138-13.788,8.753C11.437,186.462,6.381,204.683,5.326,224.36c-0.063,1.273,1.476,3.271,2.769,3.865
		c3.703,1.72,7.604,3.089,11.532,4.238c19.168,5.609,38.913,7.66,58.743,8.722c29.764,1.595,59.484,1.146,89.051-2.973
		C166.638,236.913,166.023,235.477,165.615,233.913z"/>
</g>
</svg>
