<?xml version="1.0" encoding="utf-8"?>
<!-- Generator: Adobe Illustrator 16.0.0, SVG Export Plug-In . SVG Version: 6.00 Build 0)  -->
<!DOCTYPE svg PUBLIC "-//W3C//DTD SVG 1.1//EN" "http://www.w3.org/Graphics/SVG/1.1/DTD/svg11.dtd">
<svg version="1.1" id="Layer_1" xmlns="http://www.w3.org/2000/svg" xmlns:xlink="http://www.w3.org/1999/xlink" x="0px" y="0px"
	 width="283.46px" height="283.46px" viewBox="0 0 283.46 283.46" enable-background="new 0 0 283.46 283.46" xml:space="preserve">
<g>
	<path fill="#FF2020" d="M141.737,4.521C66.08,4.521,4.515,66.077,4.515,141.734c0,75.655,61.565,137.205,137.222,137.205
		c75.66,0,137.208-61.55,137.208-137.205C278.945,66.077,217.396,4.521,141.737,4.521z M141.737,33.213
		c23.831,0,47.043,7.934,65.947,22.438L59.341,212.227c-16.882-19.688-26.125-44.515-26.125-70.492
		C33.215,81.899,81.901,33.213,141.737,33.213z M141.737,250.239c-21.992,0-42.969-6.501-61.026-18.834L227.954,75.963
		c14.423,18.88,22.291,42.017,22.291,65.771C250.245,201.568,201.574,250.239,141.737,250.239z"/>
</g>
</svg>
