<?xml version="1.0" encoding="utf-8"?>
<!-- Generator: Adobe Illustrator 16.0.0, SVG Export Plug-In . SVG Version: 6.00 Build 0)  -->
<!DOCTYPE svg PUBLIC "-//W3C//DTD SVG 1.1//EN" "http://www.w3.org/Graphics/SVG/1.1/DTD/svg11.dtd">
<svg version="1.1" id="Layer_1" xmlns="http://www.w3.org/2000/svg" xmlns:xlink="http://www.w3.org/1999/xlink" x="0px" y="0px"
	 width="283.46px" height="283.46px" viewBox="0 0 283.46 283.46" enable-background="new 0 0 283.46 283.46" xml:space="preserve">
<g>
	<path fill-rule="evenodd" clip-rule="evenodd" fill="#2E5788" d="M149.974,84.453c0,0.956,0.059,1.917-0.017,2.864
		c-0.189,2.381,0.132,4.271,1.832,6.415c3.12,3.924,2.354,8.942,1.742,13.563c-1.005,7.616-4.665,14.052-9.607,19.841
		c-1.075,1.261-1.979,2.799-2.527,4.357c-3.842,10.913-10.221,19.713-20.949,24.624c-12.281,5.623-23.321,2.694-33.18-5.81
		c-5.853-5.058-9.604-11.551-12.122-18.829c-0.54-1.56-1.459-3.085-2.529-4.351c-7.208-8.573-11.341-18.11-9.465-29.546
		c0.237-1.452,0.73-3.233,1.753-4.107c1.892-1.615,1.852-3.5,1.983-5.61c0.423-6.944,0.069-14.112,1.711-20.77
		c3.664-14.836,14.056-23.188,28.779-26.227c11.695-2.41,22.994-1,33.793,4.184c5.806,2.784,9.557,7.163,10.874,13.543
		c0.186,0.901,0.4,1.998,1.007,2.587c4.913,4.733,5.882,10.976,6.722,17.254c0.266,1.985,0.208,4.012,0.299,6.015
		C150.038,84.453,150.005,84.453,149.974,84.453z"/>
	<path fill-rule="evenodd" clip-rule="evenodd" fill="#2E5788" d="M108.251,223.528c-3.403-6.615-6.435-12.421-9.332-18.294
		c-0.376-0.758-0.205-1.883-0.022-2.786c0.697-3.357,1.571-6.678,2.237-10.04c0.383-1.939,1.308-2.713,3.322-2.597
		c2.662,0.153,5.344,0.106,8.011,0.013c1.595-0.055,2.514,0.495,2.854,2.095c0.787,3.728,1.659,7.437,2.423,11.168
		c0.146,0.7,0.205,1.585-0.095,2.182C114.699,211.118,111.665,216.929,108.251,223.528z"/>
	<path fill-rule="evenodd" clip-rule="evenodd" fill="#2E5788" d="M108.388,170.79c2.385,0,4.773,0.038,7.158-0.012
		c1.793-0.038,2.432,0.825,2.107,2.496c-0.712,3.742-1.347,7.506-2.27,11.199c-0.193,0.771-1.438,1.755-2.255,1.808
		c-3.226,0.206-6.488,0.229-9.717-0.011c-0.85-0.063-2.102-1.191-2.324-2.055c-0.909-3.495-1.475-7.081-2.193-10.629
		c-0.397-1.941,0.227-2.891,2.339-2.807c2.384,0.094,4.769,0.022,7.155,0.022V170.79z"/>
	<g>
		<path fill="#2E5788" d="M263.306,197.653c-0.941-5.201-2.948-10.042-6.127-14.352c-0.587-0.797-1.08-1.036-2.114-0.876
			c-2.585,0.405-5.205,0.695-7.821,0.787c-1.384,0.047-2.908-0.145-4.158-0.691c-7.44-3.27-14.923-6.476-22.183-10.115
			c-4.13-2.069-7.639-2.334-11.667,0.257c-4.394,2.832-9.178,5.063-13.768,7.6c-4.036,2.226-4.706,7.451-1.372,10.401
			c2.102,1.858,5.192,1.885,8.124,0.181c3.99-2.323,8.008-4.605,12.044-6.85c0.492-0.281,1.288-0.549,1.715-0.345
			c3.539,1.688,7.15,3.28,10.49,5.308c3.292,1.992,6.276,4.479,9.426,6.707l16.311,11.771c1.059,0.746,2.254,1.343,3.137,2.255
			c2.221,2.293,4.583,2.551,7.526,1.447c1.27-0.477,1.658-0.951,1.554-2.103C264.083,205.236,263.982,201.392,263.306,197.653z"/>
		<path fill="#2E5788" d="M208.874,227.376c-1.41,0.075-2.782,0.783-3.998,1.155c0.094-1.08,0.608-2.587,0.229-3.819
			c-0.393-1.28-1.443-2.646-2.593-3.308c-0.918-0.534-2.539-0.391-3.598,0.055c-1.089,0.455-1.87,1.637-2.765,2.481
			c-0.509-1.972-1.696-3.52-3.957-3.778c-2.133-0.248-3.728,0.77-4.8,2.742c-0.187-0.298-0.3-0.475-0.405-0.66
			c-1.452-2.551-3.414-3.401-5.785-2.487c-2.378,0.92-3.341,2.921-2.725,5.7c0.384,1.719,0.752,3.446,1.193,5.15
			c0.599,2.308,2.562,3.745,4.839,3.379c1.057-0.172,1.478,0.168,2.036,0.963c1.511,2.181,4.186,2.536,6.309,0.977
			c0.347-0.254,0.69-0.508,1.267-0.929c-0.479,2.444,0.305,4.12,2.198,5.174c2.226,1.243,4.125,0.367,5.844-1.209
			c0.241,0.744,0.398,1.414,0.664,2.034c0.703,1.631,2.562,2.82,4.188,2.732c1.757-0.091,3.677-1.444,4.112-3.13
			c0.714-2.752,1.361-5.523,1.87-8.316C213.468,229.708,211.45,227.246,208.874,227.376z"/>
		<path fill="#2E5788" d="M177.149,177.033c-1.801-0.813-3.457-0.013-4.054,1.881c-3.299,10.483-6.594,20.971-9.874,31.46
			c-0.54,1.722,0.441,3.362,2.211,3.764c1.055,0.242,2.116,0.445,3.175,0.651c1.478,0.284,2.956,0.562,4.579,0.872
			c-0.08-12.906,3.941-24.532,9.245-35.937C180.587,178.773,178.904,177.823,177.149,177.033z"/>
		<path fill="#2E5788" d="M275.001,207.139c-0.51-3.658-0.872-7.229-1.296-10.904c-0.649-5.604-1.244-11.155-1.959-16.757
			c-0.263-2.047-1.716-2.911-3.7-2.423c-3.146,0.775-6.272,1.414-9.579,2.271c7.422,9.805,9.568,20.513,9.136,32.607
			c1.169,0,2.129,0,3.089,0C274.57,211.934,275.533,210.959,275.001,207.139z"/>
		<path fill="#2E5788" d="M252.757,217.401l-23.879-17.141c-4.729-3.713-9.477-7.489-15.238-9.55
			c-0.792-0.279-1.941-0.252-2.671,0.122c-3.807,1.945-7.532,4.036-11.272,6.105c-3.944,2.182-8.765,1.233-11.761-2.353
			c-2.547-3.052-2.503-7.987,0.092-11.282c0.281-0.359,0.536-0.742,0.918-1.271c-0.688-0.042-1.097-0.019-1.485-0.092
			c-2.044-0.399-3.266,0.304-3.954,2.378c-1.678,5.03-3.543,9.992-5.293,15.005c-0.151,0.436-1.224,4.424-1.346,5.97l-0.513,4.995
			c0,1.609-0.037,2.955,0.029,4.3c0.015,0.298,0.357,0.657,0.64,0.821c0.134,0.075,0.557-0.185,0.739-0.393
			c0.613-0.691,1.277-1.574,1.938-2.121c2.315-1.937,5.32-1.727,7.466-0.774c1.679,1.163,1.551,1.163,3.726,0.43
			c2.255-0.76,4.39-0.47,6.38,0.744c0.779,0.478,1.399,0.669,2.305,0.217c4.171-2.056,8.971,1.088,10.071,4.43
			c0.164,0.483,0.857,1.023,1.379,1.115c5.164,0.921,7.867,5.659,6.692,9.746c-0.394,1.365-0.696,2.757-1.018,4.142
			c-0.193,0.823-0.139,1.439,0.77,1.99c1.737,1.055,3.347,2.33,4.999,3.523c2.408,1.746,5.062,0.823,5.791-2.025
			c0.313-1.215,0.134-2.112-1.091-2.886c-1.916-1.201-3.536-2.616-5.484-4.042c-1.015-0.744-0.369-2.186,1.04-1.585
			c0.223,0.089,0.467,0.292,0.693,0.458c2.988,2.156,5.973,4.32,8.977,6.462c1.631,1.17,3.419,0.777,4.736-0.985
			c1.251-1.688,1.036-3.238-0.621-4.455c-3.394-2.488-6.775-4.972-10.166-7.462c-0.702-0.521-1.871-1.036-1.112-2.06
			c0.795-1.073,1.633-0.01,2.318,0.483c4.246,3.034,8.491,6.064,12.693,9.153c1.04,0.766,1.919,1.6,3.354,0.917
			c1.639-0.778,2.664-2.022,2.762-3.802c0.029-0.647-0.404-1.569-0.927-1.961c-3.619-2.729-7.313-5.362-11.003-7.995
			c-0.761-0.544-1.517-1.139-0.759-2.007c0.224-0.263,1.439,0.007,1.957,0.374c4.636,3.271,9.235,6.592,13.79,9.973
			c0.919,0.681,1.667,0.719,2.66,0.294C255.384,223.886,255.8,219.651,252.757,217.401z"/>
	</g>
	<path fill-rule="evenodd" clip-rule="evenodd" fill="#2E5788" d="M165.09,231.887c-0.424-1.637-0.792-3.288-1.157-4.941
		l-6.878-1.312c-1.244-0.244-2.496-0.489-3.731-0.769c-3.61-0.817-6.716-3.087-8.515-6.227c-1.799-3.112-2.2-6.905-1.102-10.403
		c3.908-12.505,7.834-25.01,11.771-37.51c1.77-5.642,6.598-9.284,12.282-9.284c0.756,0,1.504,0.082,2.248,0.209
		c-8.735-3.865-17.548-7.573-26.324-11.36c-0.481-0.21-1.029-0.267-1.616-0.403c-0.295,1.196-0.555,2.215-0.788,3.23
		c-5.864,25.688-14.731,50.214-28.148,72.989c-0.821,1.397-1.62,2.822-2.558,4.146c-1.617,2.281-2.985,2.231-4.667-0.085
		c-0.395-0.539-0.745-1.113-1.084-1.688c-8.155-13.982-15.508-28.365-20.475-43.81c-3.684-11.448-6.88-23.05-10.443-35.088
		c-10.372,4.545-20.97,8.922-31.312,13.846c-4.778,2.273-9.597,5.024-13.483,8.561c-14.808,13.49-19.752,31.311-20.785,50.555
		c-0.064,1.246,1.441,3.2,2.704,3.78c3.624,1.683,7.437,3.021,11.283,4.146c18.745,5.486,38.055,7.491,57.45,8.529
		c29.111,1.56,58.175,1.122,87.093-2.906C166.088,234.82,165.487,233.415,165.09,231.887z"/>
</g>
</svg>
