<?xml version="1.0" encoding="utf-8"?>
<!-- Generator: Adobe Illustrator 16.0.0, SVG Export Plug-In . SVG Version: 6.00 Build 0)  -->
<!DOCTYPE svg PUBLIC "-//W3C//DTD SVG 1.1//EN" "http://www.w3.org/Graphics/SVG/1.1/DTD/svg11.dtd">
<svg version="1.1" id="Layer_1" xmlns="http://www.w3.org/2000/svg" xmlns:xlink="http://www.w3.org/1999/xlink" x="0px" y="0px"
	 width="283.46px" height="283.46px" viewBox="0 0 283.46 283.46" enable-background="new 0 0 283.46 283.46" xml:space="preserve">
<g>
	<path fill="#2E5788" d="M240.778,9.667h-0.003H42.682l0,0v117.675l0,0v146.451h66.034v-39.615h22.244h21.537h22.247v39.615h66.031
		V127.342h0.003V9.667z M187.952,36.078h26.408v26.411h-26.408V36.078z M187.952,75.699h26.408v26.413h-26.408V75.699z
		 M148.335,75.699h26.409v26.413h-26.409V75.699z M174.744,36.078v26.411h-26.409V36.078H174.744z M135.122,36.078v26.411h-26.406
		V36.078H135.122z M135.122,102.112h-26.406V75.699h26.406V102.112z M135.122,135.499v6.23h-26.406v-26.411h11.781h14.625V135.499z
		 M95.505,36.078v26.411H69.095V36.078H95.505z M69.095,75.699h26.411v26.413H69.095V75.699z M95.505,181.348H69.095v-26.412h26.411
		V181.348z M95.505,141.729H69.095v-26.411h9.708h16.702V141.729z M130.96,181.348h-22.244v-26.412h26.406v9.276v17.136H130.96z
		 M174.744,181.348h-22.247h-4.162v-17.136v-9.276h26.409V181.348z M174.744,141.729h-26.409v-6.23v-20.18h14.623h11.786V141.729z
		 M214.36,181.348h-26.408v-26.412h26.408V181.348z M214.36,141.729h-26.408v-26.411h16.702h9.706V141.729z"/>
</g>
</svg>
