<?xml version="1.0" encoding="utf-8"?>
<!-- Generator: Adobe Illustrator 16.0.0, SVG Export Plug-In . SVG Version: 6.00 Build 0)  -->
<!DOCTYPE svg PUBLIC "-//W3C//DTD SVG 1.1//EN" "http://www.w3.org/Graphics/SVG/1.1/DTD/svg11.dtd">
<svg version="1.1" id="Layer_1" xmlns="http://www.w3.org/2000/svg" xmlns:xlink="http://www.w3.org/1999/xlink" x="0px" y="0px"
	 width="283.46px" height="283.46px" viewBox="0 0 283.46 283.46" enable-background="new 0 0 283.46 283.46" xml:space="preserve">
<g>
	<path fill="#FF4040" d="M191.999,7.997h-50.266h-38.506H40.618v81.78v50.648v40.971v71.301v22.766h202.224V58.837L191.999,7.997z
		 M110.823,103.073C92.92,97.04,80.694,88.671,80.694,72.424c0-14.741,10.363-26.29,28.292-29.817V26.71h16.414v14.733
		c11.219,0.505,18.752,2.848,24.284,5.523l-4.855,18.911c-4.368-1.837-12.067-5.68-24.119-5.68c-10.896,0-14.399,4.685-14.399,9.368
		c0,5.526,5.862,9.045,20.08,14.41c19.937,7.033,27.98,16.24,27.98,31.303c0,14.907-10.562,27.638-29.833,30.982v17.08h-16.389
		v-15.904c-11.216-0.494-22.099-3.508-28.461-7.198l5.029-19.59c7.028,3.855,16.909,7.364,27.784,7.364
		c9.558,0,16.071-3.675,16.071-10.37C128.57,111.275,123.218,107.254,110.823,103.073z M213.518,225.64H79.171v-14.268h134.346
		V225.64z M213.518,197.714H79.171v-14.268h134.346V197.714z M193.917,56.923V19.132l37.787,37.792H193.917z"/>
</g>
</svg>
