<?xml version="1.0" encoding="utf-8"?>
<!-- Generator: Adobe Illustrator 16.0.0, SVG Export Plug-In . SVG Version: 6.00 Build 0)  -->
<!DOCTYPE svg PUBLIC "-//W3C//DTD SVG 1.1//EN" "http://www.w3.org/Graphics/SVG/1.1/DTD/svg11.dtd">
<svg version="1.1" id="Layer_1" xmlns="http://www.w3.org/2000/svg" xmlns:xlink="http://www.w3.org/1999/xlink" x="0px" y="0px"
	 width="283.46px" height="283.46px" viewBox="0 0 283.46 283.46" enable-background="new 0 0 283.46 283.46" xml:space="preserve">
<g transform="translate(0,-952.36218)">
	<path fill="#2E5788" d="M39.572,1002.151c-7.79,0-14.92,2.656-20.644,7.021l117.265,110.138c2.636,2.477,8.431,2.477,11.072,0
		l117.267-110.138c-5.723-4.364-12.858-7.021-20.646-7.021H39.572z M9.987,1019.387c-2.803,4.954-4.467,10.692-4.467,16.815v115.779
		c0,18.861,15.19,34.052,34.051,34.052h204.314c18.866,0,34.054-15.19,34.054-34.052v-115.779c0-6.123-1.664-11.861-4.467-16.815
		l-116.847,109.825c-8.333,7.826-21.459,7.826-29.792,0L9.987,1019.387z"/>
</g>
</svg>
