<?xml version="1.0" encoding="utf-8"?>
<!-- Generator: Adobe Illustrator 16.0.0, SVG Export Plug-In . SVG Version: 6.00 Build 0)  -->
<!DOCTYPE svg PUBLIC "-//W3C//DTD SVG 1.1//EN" "http://www.w3.org/Graphics/SVG/1.1/DTD/svg11.dtd">
<svg version="1.1" id="Layer_1" xmlns="http://www.w3.org/2000/svg" xmlns:xlink="http://www.w3.org/1999/xlink" x="0px" y="0px"
	 width="283.46px" height="283.46px" viewBox="0 0 283.46 283.46" enable-background="new 0 0 283.46 283.46" xml:space="preserve">
<g>
	<g>
		<g>
			<path fill="#F3A620" d="M216.567,247.356h-8.821l-73.039,24.11c-2.263,1.215-11.461,5.314-21.071-0.259l-0.102-0.053
				L13.433,215.507c-0.374-0.209-0.676-0.465-0.943-0.729l0,0c0-0.063-8.942-9.041-3.473-19.237l0,0
				c0-0.05,5.989-12.764,17.554-9.558c29.059,8.043,47.812,24.744,65.103,29.059c22.537,4.045,38.309,2.629,59.532-6.362
				c-6.41-0.625-16.708-0.044-27.218,0.423c-3.206,0.154-6.467,0.262-9.668,0.369c-31.946,0.838-33.425-9.619-26.639-17.235
				c6.561-7.358,12.236-7.518,20.59-7.518h32.007c5.094-2.311,31.31-13.98,45.449-16.502c0.05,0,0.104,0,0.159,0
				c6.303-1.1,14.134-1.468,21.229-1.468c3.415,0,6.67,0.055,9.453,0.162v80.545V247.356z"/>
			<path fill="#F3A620" d="M230.184,148.145h36.621c2.568,0,4.889,1.056,6.616,2.733l0,0l0,0l0,0l0,0
				c1.683,1.734,2.793,4.056,2.793,6.624v98.83c0,2.588-1.056,4.892-2.738,6.624l0,0l0,0l0,0l0,0
				c-1.732,1.68-4.042,2.788-6.621,2.788h-36.627c-2.408,0-4.674-0.948-6.352-2.469c-0.115-0.107-0.214-0.215-0.319-0.265
				c-1.683-1.677-2.788-4.045-2.788-6.679v-98.83c0-2.568,1.057-4.944,2.788-6.674l0,0c1.732-1.735,4.048-2.785,6.627-2.785V148.145
				z"/>
		</g>
		<path fill="#F3A620" d="M140.124,57.932c-11.342-11.356-27.06-18.393-44.402-18.393c-17.337,0-33.051,7.037-44.397,18.393
			c-11.356,11.345-18.396,27.057-18.396,44.397c0,17.339,7.039,33.057,18.396,44.405c11.346,11.343,27.06,18.388,44.397,18.388
			c17.343,0,33.06-7.045,44.402-18.388c11.352-11.348,18.386-27.065,18.386-44.405C158.51,84.989,151.476,69.277,140.124,57.932z
			 M112.065,118.458c-0.847,1.842-2.001,3.478-3.47,4.784c-1.513,1.372-3.316,2.417-5.415,3.201
			c-2.092,0.792-4.468,1.32-7.037,1.526l-0.847,8.62c-0.049,0.214-0.104,0.418-0.16,0.58c-0.099,0.154-0.258,0.313-0.522,0.418
			c-0.253,0.104-0.566,0.207-1.05,0.264l0.05,0.049c-0.413,0.055-0.996,0.102-1.678,0.102c-0.836,0-1.526-0.047-2.045-0.102
			c-0.522-0.107-0.955-0.206-1.215-0.368c-0.308-0.154-0.468-0.363-0.572-0.566c-0.11-0.27-0.11-0.536-0.049-0.797l0.838-8.2
			c-1.157-0.154-2.263-0.366-3.264-0.627c-1.05-0.264-1.941-0.52-2.783-0.842c-0.836-0.313-1.579-0.626-2.156-0.943
			c-0.578-0.322-1.056-0.632-1.364-0.943c-0.313-0.316-0.528-0.734-0.688-1.369c-0.151-0.578-0.204-1.471-0.204-2.684
			c0-0.891,0.052-1.675,0.102-2.26c0.052-0.572,0.163-1.045,0.261-1.367c0.165-0.316,0.322-0.525,0.528-0.685
			c0.203-0.097,0.423-0.154,0.687-0.154c0.363,0,0.839,0.209,1.518,0.578c0.688,0.418,1.529,0.847,2.574,1.312
			c1.05,0.476,2.315,0.949,3.778,1.317c1.485,0.421,3.217,0.575,5.208,0.575c3.156,0,5.461-0.575,6.99-1.729
			c1.531-1.16,2.315-2.73,2.315-4.677c0-1.312-0.324-2.365-1.001-3.151c-0.687-0.844-1.523-1.576-2.634-2.206
			c-1.1-0.627-2.359-1.21-3.723-1.683c-1.37-0.528-2.789-1.059-4.262-1.576c-1.408-0.583-2.832-1.21-4.251-1.996
			c-1.37-0.737-2.629-1.68-3.734-2.786c-1.091-1.105-1.938-2.417-2.628-3.99c-0.677-1.581-0.996-3.47-0.996-5.681
			c0-1.991,0.319-3.836,0.996-5.461c0.69-1.68,1.633-3.104,2.895-4.369c1.257-1.262,2.841-2.2,4.678-2.986
			c1.839-0.789,3.938-1.265,6.252-1.576l0.787-8.101c0.055-0.204,0.099-0.413,0.16-0.52c0.104-0.16,0.253-0.256,0.522-0.418
			c0.258-0.099,0.572-0.207,1.047-0.264c0.426-0.047,1.006-0.107,1.686-0.107c0.847,0,1.526,0.06,2.049,0.107
			c0.53,0.099,0.998,0.207,1.262,0.371c0.313,0.151,0.462,0.366,0.572,0.572c0.104,0.261,0.104,0.525,0.104,0.786l-0.781,7.623
			c0.734,0.099,1.584,0.258,2.359,0.415c0.847,0.206,1.633,0.426,2.321,0.69c0.729,0.256,1.355,0.525,1.941,0.833
			c0.578,0.267,1.003,0.528,1.21,0.794c0.209,0.207,0.413,0.473,0.522,0.679c0.11,0.217,0.214,0.528,0.27,0.841
			c0.044,0.366,0.093,0.731,0.151,1.21c0.05,0.473,0.05,0.996,0.05,1.631c0,0.838,0,1.523-0.05,2.045
			c-0.058,0.522-0.107,0.943-0.206,1.21c-0.104,0.259-0.214,0.47-0.374,0.575c-0.154,0.11-0.258,0.16-0.467,0.16
			c-0.374,0-0.85-0.16-1.523-0.525c-0.693-0.371-1.479-0.74-2.475-1.103c-0.996-0.426-2.106-0.797-3.366-1.105
			c-1.265-0.366-2.676-0.525-4.207-0.525c-1.358,0-2.568,0.159-3.564,0.418c-0.998,0.269-1.792,0.638-2.419,1.105
			c-0.633,0.47-1.062,1.051-1.37,1.735c-0.258,0.685-0.412,1.419-0.412,2.205c0,1.265,0.313,2.315,0.99,3.157
			c0.693,0.836,1.576,1.623,2.678,2.203c1.111,0.63,2.37,1.166,3.789,1.686s2.838,1.048,4.306,1.628
			c1.468,0.575,2.89,1.212,4.312,1.941c1.419,0.737,2.623,1.683,3.778,2.738c1.105,1.095,2.001,2.409,2.631,3.935
			c0.685,1.576,0.998,3.418,0.998,5.563C113.27,114.521,112.852,116.616,112.065,118.458z"/>
	</g>
	<g>
		<polygon fill="#F3A620" points="229.667,64.943 205.53,64.943 205.53,32.67 210.81,32.67 210.81,59.661 229.667,59.661 		"/>
		<path fill="#F3A620" d="M231.548,66.821h-27.894V30.792h9.03v26.991h18.863V66.821z M207.411,63.065h20.381v-1.526h-18.863V34.548
			h-1.518V63.065z"/>
	</g>
	<g>
		<g>
			<path fill="#F3A620" d="M213.069,99.807c-0.017,0-0.038,0-0.038,0c-24.94,0-45.217-20.279-45.217-45.206
				s20.276-45.203,45.2-45.203c19.242,0,36.406,12.211,42.72,30.379c0.407,1.193,0.77,2.39,1.078,3.607
				c0.132,0.509,0.258,1.029,0.374,1.557l-9.195,1.947c-0.083-0.396-0.182-0.787-0.28-1.174c-0.248-0.976-0.539-1.927-0.858-2.865
				c-4.993-14.381-18.594-24.054-33.838-24.054c-19.743,0-35.807,16.063-35.807,35.807c0,19.746,16.063,35.807,35.807,35.807
				c0,0,0.038,0,0.05,0c1.05,0,2.09-0.046,3.123-0.135l-6.45-7.383l7.077-6.184l16.537,18.923l-6.896,2.145
				C222.122,99.122,217.618,99.807,213.069,99.807z"/>
		</g>
		<g>
			
				<rect x="215.467" y="90.298" transform="matrix(0.737 0.6759 -0.6759 0.737 125.9558 -122.318)" fill="#F3A620" width="9.394" height="20.809"/>
		</g>
	</g>
</g>
</svg>
