<?xml version="1.0" encoding="utf-8"?>
<!-- Generator: Adobe Illustrator 16.0.0, SVG Export Plug-In . SVG Version: 6.00 Build 0)  -->
<!DOCTYPE svg PUBLIC "-//W3C//DTD SVG 1.1//EN" "http://www.w3.org/Graphics/SVG/1.1/DTD/svg11.dtd">
<svg version="1.1" id="Layer_1" xmlns="http://www.w3.org/2000/svg" xmlns:xlink="http://www.w3.org/1999/xlink" x="0px" y="0px"
	 width="283.46px" height="283.46px" viewBox="0 0 283.46 283.46" enable-background="new 0 0 283.46 283.46" xml:space="preserve">
<g>
	<path fill-rule="evenodd" clip-rule="evenodd" fill="none" stroke="#F59522" stroke-width="5" stroke-miterlimit="10" d="
		M150.035,84.024c0,0.963,0.06,1.932-0.017,2.886c-0.192,2.399,0.131,4.303,1.846,6.463c3.142,3.954,2.373,9.009,1.756,13.665
		c-1.015,7.672-4.7,14.157-9.68,19.99c-1.083,1.271-1.993,2.82-2.548,4.39c-3.871,10.994-10.295,19.861-21.104,24.808
		c-12.373,5.665-23.496,2.715-33.431-5.853c-5.897-5.096-9.676-11.637-12.211-18.97c-0.546-1.572-1.472-3.108-2.548-4.384
		c-7.262-8.638-11.424-18.246-9.536-29.768c0.239-1.463,0.733-3.257,1.767-4.138c1.906-1.626,1.866-3.525,1.998-5.652
		c0.426-6.996,0.071-14.218,1.724-20.925c3.691-14.948,14.159-23.361,28.993-26.424c11.786-2.428,23.168-1.007,34.046,4.215
		c5.849,2.805,9.628,7.217,10.956,13.645c0.191,0.908,0.404,2.013,1.015,2.606c4.952,4.768,5.928,11.058,6.771,17.383
		c0.269,2,0.212,4.042,0.302,6.061C150.098,84.024,150.065,84.024,150.035,84.024z"/>
	<path fill-rule="evenodd" clip-rule="evenodd" fill="none" stroke="#F59522" stroke-width="5" stroke-miterlimit="10" d="
		M108,224.142c-3.426-6.665-6.483-12.515-9.402-18.432c-0.378-0.763-0.206-1.896-0.02-2.807c0.698-3.382,1.581-6.728,2.253-10.115
		c0.384-1.954,1.316-2.733,3.346-2.616c2.68,0.154,5.384,0.106,8.069,0.013c1.606-0.055,2.535,0.499,2.877,2.11
		c0.792,3.756,1.671,7.492,2.441,11.252c0.145,0.705,0.208,1.597-0.098,2.198C114.497,211.638,111.438,217.493,108,224.142z"/>
	<path fill-rule="evenodd" clip-rule="evenodd" fill="none" stroke="#F59522" stroke-width="5" stroke-miterlimit="10" d="
		M108.138,171.008c2.403,0,4.807,0.038,7.211-0.012c1.807-0.038,2.45,0.831,2.123,2.515c-0.717,3.771-1.357,7.563-2.289,11.283
		c-0.193,0.777-1.449,1.768-2.269,1.821c-3.253,0.208-6.538,0.229-9.792-0.011c-0.857-0.064-2.12-1.2-2.342-2.07
		c-0.914-3.521-1.487-7.134-2.211-10.709c-0.401-1.956,0.229-2.911,2.36-2.827c2.401,0.094,4.801,0.022,7.208,0.022V171.008z"/>
	<g>
		<path fill="#F59522" d="M264.215,198.072c-0.946-5.24-2.971-10.117-6.171-14.459c-0.59-0.803-1.09-1.044-2.13-0.882
			c-2.606,0.408-5.246,0.7-7.881,0.792c-1.395,0.048-2.93-0.146-4.188-0.696c-7.496-3.294-15.035-6.524-22.349-10.191
			c-4.162-2.084-7.694-2.351-11.753,0.26c-4.429,2.853-9.248,5.101-13.873,7.655c-4.064,2.243-4.74,7.508-1.382,10.479
			c2.117,1.873,5.232,1.899,8.185,0.183c4.019-2.341,8.066-4.64,12.132-6.9c0.5-0.283,1.298-0.554,1.731-0.348
			c3.564,1.7,7.202,3.305,10.568,5.347c3.315,2.008,6.321,4.513,9.496,6.758l16.431,11.859c1.066,0.752,2.272,1.353,3.162,2.272
			c2.235,2.311,4.617,2.569,7.582,1.457c1.281-0.479,1.671-0.957,1.566-2.117C265,205.712,264.898,201.839,264.215,198.072z"/>
		<path fill="#F59522" d="M209.375,228.018c-1.419,0.076-2.801,0.789-4.025,1.164c0.092-1.088,0.61-2.606,0.228-3.848
			c-0.393-1.29-1.452-2.665-2.61-3.332c-0.922-0.539-2.559-0.394-3.624,0.055c-1.096,0.458-1.887,1.649-2.787,2.5
			c-0.511-1.987-1.708-3.546-3.985-3.807c-2.15-0.25-3.755,0.775-4.836,2.763c-0.189-0.3-0.302-0.478-0.408-0.665
			c-1.465-2.57-3.439-3.427-5.829-2.506c-2.395,0.927-3.365,2.943-2.744,5.742c0.387,1.731,0.756,3.473,1.202,5.189
			c0.605,2.325,2.581,3.773,4.877,3.404c1.063-0.173,1.489,0.169,2.052,0.971c1.518,2.196,4.217,2.555,6.354,0.983
			c0.349-0.256,0.692-0.511,1.275-0.936c-0.481,2.463,0.307,4.15,2.215,5.213c2.242,1.252,4.156,0.369,5.888-1.219
			c0.242,0.75,0.402,1.425,0.671,2.05c0.706,1.643,2.581,2.842,4.217,2.753c1.771-0.092,3.702-1.455,4.144-3.154
			c0.717-2.771,1.371-5.563,1.886-8.378C214.007,230.367,211.975,227.888,209.375,228.018z"/>
		<path fill="#F59522" d="M177.415,177.298c-1.814-0.82-3.483-0.013-4.086,1.895c-3.324,10.563-6.64,21.128-9.946,31.696
			c-0.545,1.734,0.442,3.388,2.229,3.792c1.061,0.244,2.13,0.448,3.196,0.656c1.487,0.286,2.978,0.565,4.614,0.878
			c-0.081-13.003,3.968-24.716,9.313-36.206C180.878,179.051,179.182,178.094,177.415,177.298z"/>
		<path fill="#F59522" d="M275.999,207.629c-0.513-3.686-0.88-7.282-1.303-10.986c-0.658-5.646-1.258-11.238-1.975-16.882
			c-0.269-2.063-1.731-2.934-3.731-2.441c-3.167,0.781-6.317,1.425-9.648,2.289c7.476,9.878,9.64,20.666,9.204,32.852
			c1.176,0,2.143,0,3.109,0C275.567,212.46,276.538,211.479,275.999,207.629z"/>
		<path fill="#F59522" d="M253.589,217.969l-24.057-17.27c-4.765-3.74-9.549-7.546-15.354-9.621c-0.8-0.281-1.954-0.254-2.689,0.123
			c-3.838,1.96-7.59,4.066-11.36,6.15c-3.974,2.199-8.828,1.243-11.847-2.369c-2.566-3.075-2.522-8.047,0.092-11.367
			c0.283-0.362,0.54-0.748,0.925-1.281c-0.695-0.042-1.103-0.019-1.496-0.092c-2.059-0.402-3.291,0.306-3.983,2.396
			c-1.691,5.067-3.571,10.067-5.333,15.117c-0.154,0.438-1.235,4.457-1.356,6.014l-0.517,5.033c0,1.621-0.038,2.978,0.031,4.333
			c0.013,0.299,0.356,0.661,0.644,0.827c0.134,0.075,0.561-0.187,0.746-0.396c0.618-0.697,1.285-1.586,1.948-2.138
			c2.335-1.95,5.362-1.739,7.522-0.779c1.692,1.171,1.563,1.171,3.753,0.432c2.276-0.765,4.423-0.473,6.431,0.75
			c0.786,0.481,1.411,0.675,2.321,0.219c4.2-2.071,9.038,1.096,10.148,4.463c0.163,0.487,0.864,1.031,1.388,1.123
			c5.202,0.929,7.925,5.702,6.74,9.819c-0.395,1.375-0.698,2.777-1.025,4.173c-0.193,0.829-0.14,1.45,0.775,2.006
			c1.75,1.063,3.375,2.347,5.037,3.549c2.426,1.76,5.099,0.829,5.834-2.04c0.318-1.225,0.136-2.129-1.099-2.908
			c-1.929-1.209-3.561-2.636-5.522-4.071c-1.023-0.75-0.373-2.202,1.048-1.598c0.223,0.091,0.471,0.295,0.698,0.462
			c3.008,2.173,6.015,4.353,9.042,6.511c1.644,1.178,3.443,0.783,4.772-0.993c1.259-1.7,1.044-3.263-0.625-4.488
			c-3.421-2.508-6.827-5.009-10.242-7.519c-0.708-0.523-1.885-1.044-1.123-2.075c0.803-1.08,1.646-0.009,2.338,0.487
			c4.275,3.057,8.555,6.11,12.79,9.222c1.046,0.772,1.93,1.612,3.378,0.925c1.649-0.784,2.681-2.038,2.781-3.83
			c0.031-0.653-0.408-1.581-0.932-1.977c-3.648-2.75-7.371-5.402-11.088-8.055c-0.767-0.548-1.529-1.147-0.765-2.022
			c0.225-0.265,1.448,0.008,1.975,0.377c4.669,3.296,9.303,6.642,13.893,10.048c0.923,0.686,1.678,0.724,2.678,0.296
			C256.235,224.502,256.654,220.235,253.589,217.969z"/>
	</g>
	<path fill-rule="evenodd" clip-rule="evenodd" fill="none" stroke="#F59522" stroke-width="5" stroke-miterlimit="10" d="
		M165.265,232.562c-0.427-1.648-0.8-3.312-1.165-4.978l-6.93-1.321c-1.254-0.246-2.514-0.493-3.76-0.774
		c-3.638-0.823-6.768-3.109-8.578-6.273c-1.813-3.136-2.219-6.957-1.112-10.481c3.941-12.599,7.895-25.197,11.859-37.79
		c1.783-5.684,6.647-9.354,12.375-9.354c0.761,0,1.517,0.083,2.267,0.211c-8.804-3.895-17.682-7.63-26.521-11.446
		c-0.487-0.211-1.039-0.268-1.63-0.406c-0.298,1.206-0.557,2.231-0.792,3.256c-5.91,25.879-14.841,50.59-28.359,73.535
		c-0.827,1.408-1.63,2.844-2.575,4.179c-1.63,2.298-3.011,2.248-4.704-0.087c-0.398-0.542-0.75-1.121-1.092-1.7
		c-8.218-14.088-15.624-28.578-20.628-44.138c-3.711-11.534-6.932-23.224-10.521-35.352c-10.45,4.579-21.128,8.988-31.544,13.95
		c-4.816,2.29-9.673,5.062-13.586,8.624c-14.918,13.592-19.9,31.545-20.94,50.934c-0.064,1.256,1.45,3.225,2.726,3.809
		c3.647,1.695,7.492,3.044,11.365,4.177c18.883,5.527,38.34,7.548,57.878,8.594c29.332,1.571,58.613,1.13,87.748-2.929
		C166.271,235.518,165.664,234.103,165.265,232.562z"/>
	<path fill="#F59522" d="M220.536,49.981c-27.104,0-49.067,21.966-49.067,49.068s21.964,49.068,49.067,49.068
		c27.099,0,49.072-21.966,49.072-49.068S247.635,49.981,220.536,49.981z M243.701,114.201c1.086,1.081,1.686,2.524,1.688,4.061
		c0,1.539-0.6,2.985-1.688,4.075c-2.162,2.173-5.956,2.176-8.132,0L220.5,107.266l-15.184,15.183
		c-1.094,1.092-2.548,1.691-4.09,1.691c-1.546,0-2.998-0.599-4.086-1.689c-1.096-1.09-1.7-2.542-1.7-4.088
		c0-1.544,0.603-2.996,1.694-4.092l15.186-15.181l-15.073-15.075c-2.241-2.235-2.243-5.882-0.002-8.128
		c2.167-2.178,5.957-2.18,8.138-0.002l15.072,15.069l15.305-15.305c2.173-2.182,5.981-2.188,8.173-0.003
		c1.096,1.097,1.7,2.551,1.698,4.099c-0.004,1.544-0.604,2.994-1.696,4.083L228.63,99.131L243.701,114.201z"/>
</g>
</svg>
