<?xml version="1.0" encoding="utf-8"?>
<!-- Generator: Adobe Illustrator 16.0.0, SVG Export Plug-In . SVG Version: 6.00 Build 0)  -->
<!DOCTYPE svg PUBLIC "-//W3C//DTD SVG 1.1//EN" "http://www.w3.org/Graphics/SVG/1.1/DTD/svg11.dtd">
<svg version="1.1" id="Layer_1" xmlns="http://www.w3.org/2000/svg" xmlns:xlink="http://www.w3.org/1999/xlink" x="0px" y="0px"
	 width="283.46px" height="283.46px" viewBox="0 0 283.46 283.46" enable-background="new 0 0 283.46 283.46" xml:space="preserve">
<g>
	<path fill="#FF4200" d="M219.336,144.515l19.054-10.768c1.65-0.824,2.206-3.314,1.101-4.966l-12.979-17.684
		c-0.823-1.105-0.823-2.758,0-3.863l12.705-17.951c1.112-1.646,0.548-3.861-1.111-4.69l-19.329-10.218
		c-1.374-0.553-1.93-1.938-1.653-3.587l3.588-21.538c0.271-1.94-1.103-3.873-3.041-3.873l-21.806-0.826
		c-1.385,0-2.772-1.114-3.04-2.487l-6.081-20.985c-0.559-1.938-2.758-3.043-4.419-2.208L162.17,27.42
		c-1.385,0.556-2.764,0.273-3.875-0.82l-14.63-16.29c-1.382-1.391-3.584-1.391-4.973,0l-14.357,16.566
		c-0.83,1.1-2.485,1.379-3.87,0.817l-20.153-8.28c-1.935-0.824-3.87,0.276-4.422,2.22l-5.807,21.259
		c-0.268,1.385-1.649,2.202-3.023,2.484L65.23,46.759c-1.932,0-3.305,1.929-3.026,3.869l3.864,21.536
		c0.276,1.382-0.273,2.761-1.664,3.59L45.068,85.972c-1.646,0.83-2.208,3.311-1.094,4.972l12.97,17.675
		c0.832,1.1,0.832,2.764,0,3.858l-12.7,17.957c-1.108,1.658-0.55,3.87,1.105,4.699l19.333,10.209
		c1.385,0.563,1.932,1.942,1.661,3.598l-3.593,21.538c-0.276,1.929,1.103,3.869,3.043,3.869l21.814,0.829
		c1.379,0,2.758,1.097,3.026,2.488l6.081,20.979c0.559,1.94,2.761,3.043,4.425,2.208l20.153-8.554
		c1.373-0.562,2.761-0.282,3.87,0.823l14.637,16.293c1.376,1.388,3.587,1.388,4.969,0l14.356-16.569
		c0.832-1.108,2.479-1.382,3.869-0.829l20.156,8.286c1.943,0.829,3.875-0.279,4.422-2.214l5.802-21.254
		c0.279-1.385,1.652-2.214,3.037-2.487l21.804-1.385c1.943,0,3.328-1.94,3.043-3.863l-3.858-21.538
		C217.401,146.448,217.951,145.07,219.336,144.515z M141.73,169.371c-32.867,0-59.369-26.783-59.369-59.379
		c0-32.853,26.781-59.363,59.369-59.363c32.857,0,59.374,26.787,59.374,59.363C201.104,142.862,174.587,169.371,141.73,169.371z
		 M169.621,272.381l-17.401-53.858c0.279-0.273,0.838-0.544,1.114-0.815l10.768-9.949l14.084,4.143
		c1.656,0.556,3.314,0.829,4.967,0.829c4.698,0,9.115-1.929,12.155-4.972l16.566,51.094c0.559,1.924-1.111,3.588-3.034,3.035
		l-19.618-5.793c-0.815-0.285-1.921,0-2.479,0.82l-12.696,16.302C172.658,274.868,170.174,274.31,169.621,272.381z M71.596,258.852
		l16.561-51.094c3.031,3.319,7.454,4.972,12.155,4.972c1.649,0,3.319-0.273,4.966-0.829l14.079-4.143l10.776,9.949
		c0.279,0.271,0.832,0.542,1.103,0.815l-17.395,53.858c-0.559,1.929-3.041,2.214-4.143,0.835l-12.7-16.302
		c-0.556-0.82-1.664-1.105-2.487-0.82l-19.612,5.793C72.696,262.439,71.032,260.775,71.596,258.852z M179.56,103.373l-17.116,14.358
		l5.243,21.817c1.105,4.143-3.585,7.456-7.175,5.251l-18.782-11.876L122.667,144.8c-3.584,2.204-7.998-1.108-7.168-5.251
		l5.243-21.817l-17.11-14.358c-3.319-2.764-1.396-8.013,2.747-8.286l22.373-1.661l8.563-20.715c1.658-3.861,7.175-3.861,8.837,0
		l8.554,20.715l22.376,1.661C181.221,95.36,182.873,100.609,179.56,103.373z"/>
</g>
</svg>
