<?xml version="1.0" encoding="utf-8"?>
<!-- Generator: Adobe Illustrator 16.0.0, SVG Export Plug-In . SVG Version: 6.00 Build 0)  -->
<!DOCTYPE svg PUBLIC "-//W3C//DTD SVG 1.1//EN" "http://www.w3.org/Graphics/SVG/1.1/DTD/svg11.dtd">
<svg version="1.1" id="Layer_1" xmlns="http://www.w3.org/2000/svg" xmlns:xlink="http://www.w3.org/1999/xlink" x="0px" y="0px"
	 width="283.46px" height="283.46px" viewBox="0 0 283.46 283.46" enable-background="new 0 0 283.46 283.46" xml:space="preserve">
<g>
	<path fill="#FF4200" d="M91.689,167.989c-0.351-0.949-0.915-2.5-0.933-3.133c0.392-0.483,1.738-1.334,2.56-1.852
		c1.775-1.121,3.773-2.389,5.238-4.37c1.459-2.008,2.064-4.323,2.588-6.361c0.235-0.894,0.603-2.334,0.925-2.879
		c0.177-0.039,0.537-0.089,1.23-0.089c0.553,0,1.168,0.031,1.825,0.063c0.755,0.041,1.527,0.076,2.345,0.076
		c1.787,0,3.228-0.2,4.537-0.64c2.289-0.76,4.12-2.231,5.734-3.532c0.892-0.72,2.39-1.921,2.91-1.995
		c0.565,0.074,2.056,1.275,2.951,1.995c1.61,1.301,3.443,2.772,5.734,3.532c1.309,0.439,2.753,0.64,4.537,0.64
		c0.813,0,1.589-0.035,2.341-0.076c0.658-0.031,1.277-0.063,1.829-0.063c0.693,0,1.057,0.05,1.234,0.089
		c0.318,0.545,0.693,1.985,0.924,2.879c0.529,2.038,1.121,4.354,2.593,6.361c1.448,1.981,3.459,3.249,5.229,4.37
		c0.822,0.521,2.168,1.368,2.556,1.852c-0.013,0.633-0.578,2.184-0.929,3.133c-0.741,2.01-1.575,4.293-1.575,6.821
		c0,2.53,0.834,4.812,1.575,6.821c0.351,0.952,0.916,2.5,0.929,3.138c-0.388,0.479-1.733,1.329-2.556,1.854
		c-1.771,1.116-3.781,2.384-5.229,4.367c-1.472,2.004-2.064,4.32-2.593,6.359c-0.231,0.894-0.611,2.336-0.924,2.879
		c-0.178,0.039-0.541,0.089-1.234,0.089c-0.551,0-1.17-0.031-1.829-0.063c-0.751-0.037-1.527-0.072-2.341-0.072
		c-1.783,0-3.228,0.202-4.537,0.638c-2.287,0.762-4.124,2.235-5.734,3.531c-0.881,0.71-2.349,1.887-2.935,1.994
		c-0.58-0.107-2.043-1.284-2.919-1.994c-1.622-1.296-3.451-2.77-5.742-3.531c-1.305-0.436-2.75-0.638-4.535-0.638
		c-0.811,0-1.591,0.035-2.347,0.072c-0.648,0.032-1.271,0.063-1.821,0.063c-0.697,0-1.057-0.05-1.234-0.089
		c-0.322-0.543-0.688-1.987-0.921-2.879c-0.524-2.039-1.131-4.355-2.592-6.359c-1.461-1.983-3.463-3.251-5.236-4.367
		c-0.815-0.522-2.165-1.375-2.553-1.854c0.013-0.634,0.582-2.186,0.927-3.138c0.745-2.006,1.579-4.291,1.579-6.817
		C93.266,172.282,92.424,169.999,91.689,167.989z"/>
	<path fill="#FF4200" d="M137.258,254.938l-13.948-8.754c-1.621-1.012-3.67-1.012-5.286,0l-13.946,8.754v-44.7
		c0.528-0.015,1.042-0.037,1.548-0.061c0.654-0.032,1.275-0.063,1.839-0.063c0.879,0,1.253,0.08,1.402,0.128
		c0.586,0.198,1.731,1.114,2.642,1.852c2.318,1.863,5.201,4.189,9.156,4.189c3.96,0,6.844-2.326,9.16-4.189
		c0.913-0.737,2.05-1.653,2.642-1.852c0.145-0.046,0.524-0.124,1.401-0.124c0.563,0,1.187,0.029,1.843,0.058
		c0.503,0.025,1.02,0.052,1.548,0.063V254.938L137.258,254.938z"/>
	<path fill="#FF4200" d="M43.631,69.454h63.988c2.745,0,4.972-2.223,4.972-4.966c0-2.741-2.227-4.966-4.972-4.966H43.631
		c-2.745,0-4.966,2.225-4.966,4.966C38.666,67.231,40.891,69.454,43.631,69.454z"/>
	<path fill="#FF4200" d="M153.126,84.593H43.631c-2.745,0-4.966,2.223-4.966,4.966c0,2.745,2.221,4.966,4.966,4.966h109.495
		c2.743,0,4.967-2.221,4.967-4.966C158.093,86.816,155.869,84.593,153.126,84.593z"/>
	<path fill="#FF4200" d="M133.254,109.665H43.631c-2.745,0-4.966,2.223-4.966,4.966s2.221,4.966,4.966,4.966h89.623
		c2.745,0,4.974-2.223,4.974-4.966S136,109.665,133.254,109.665z"/>
	<path fill="#FF4200" d="M175.471,149.508v81.258h-34.617v30.671l-20.19-12.663l-20.182,12.661v-30.669H20.735V20.915h110.591
		l42.923,42.931l0.735-5.899l3.236-8.072l-38.329-38.331c-0.347-0.347-0.704-0.656-1.09-0.949l-0.359-0.271
		c-0.103-0.072-0.206-0.145-0.31-0.215l-0.974-0.576c-0.111-0.06-0.225-0.116-0.34-0.171l-0.004-0.002
		c-0.315-0.153-0.65-0.291-0.972-0.409l-0.338-0.12c-0.454-0.153-0.906-0.281-1.395-0.38c-0.475-0.095-0.97-0.157-1.459-0.19
		L19.363,8.234c-6.237,0-11.309,5.071-11.309,11.305v212.599c0,6.235,5.071,11.309,11.309,11.309h68.438v20.474
		c0,4.111,2.235,7.9,5.825,9.886c1.674,0.929,3.571,1.421,5.482,1.421c2.13,0,4.208-0.599,6.013-1.732l15.544-9.752l15.531,9.74
		c3.391,2.148,7.893,2.307,11.507,0.33c3.598-1.994,5.833-5.785,5.833-9.893v-20.474h23.305c6.237,0,11.313-5.073,11.313-11.309
		v-82.63H175.471z"/>
	<g>
		<path fill="#FF4200" d="M241.22,65.92h-15.511V45.379c0-2.441-2.015-4.452-4.454-4.452c-2.444,0-4.454,2.01-4.454,4.452v25.138
			c0,2.441,2.01,4.452,4.454,4.452h19.965c2.441,0,4.452-2.011,4.452-4.452C245.816,67.931,243.806,65.92,241.22,65.92z"/>
		<path fill="#FF4200" d="M275.405,70.517c0-29.876-24.274-54.151-54.15-54.151c-29.877,0-54.151,24.274-54.151,54.151
			c0,7.612,1.579,14.794,4.452,21.257l-23.701,39.646c-2.584,4.452-2.729,9.767-0.145,14.218c2.589,4.454,7.184,7.184,12.211,7.184
			h65.788c5.168,0,9.767-2.729,12.206-7.184c2.589-4.452,2.444-9.767-0.14-14.218l-4.888-8.188
			C257.164,117.917,275.405,96.228,275.405,70.517z M230.303,141.186c-0.429,0.718-1.723,2.586-4.451,2.586h-65.786
			c-2.729,0-4.024-1.868-4.454-2.586s-1.292-2.873,0-5.17l32.892-55.014c1.292-2.297,3.592-2.441,4.454-2.441
			c0.863,0,3.018,0.287,4.454,2.441l32.892,55.014C231.596,138.458,230.734,140.468,230.303,141.186z M228.004,115.043
			l-22.98-38.638c-2.584-4.31-7.038-6.894-12.066-6.894c-5.027,0-9.479,2.584-12.065,6.894l-3.303,5.314
			c-1.005-3.591-1.437-7.325-1.437-11.203c0-24.993,20.252-45.247,45.103-45.247s45.103,20.254,45.103,45.103
			C266.357,93.068,249.692,111.741,228.004,115.043z"/>
		<circle fill="#FF4200" cx="192.957" cy="132.424" r="4.883"/>
		<path fill="#FF4200" d="M192.384,94.216c-3.018,0.289-5.315,3.018-5.028,6.033l1.866,20.109c0.145,1.724,1.581,3.16,3.307,3.304
			c2.01,0.143,3.733-1.292,4.021-3.304l1.865-20.109c0-0.287,0-0.718,0-1.005C198.13,96.228,195.401,93.929,192.384,94.216z"/>
	</g>
</g>
</svg>
