<?xml version="1.0" encoding="utf-8"?>
<!-- Generator: Adobe Illustrator 16.0.0, SVG Export Plug-In . SVG Version: 6.00 Build 0)  -->
<!DOCTYPE svg PUBLIC "-//W3C//DTD SVG 1.1//EN" "http://www.w3.org/Graphics/SVG/1.1/DTD/svg11.dtd">
<svg version="1.1" id="Layer_1" xmlns="http://www.w3.org/2000/svg" xmlns:xlink="http://www.w3.org/1999/xlink" x="0px" y="0px"
	 width="283.46px" height="283.46px" viewBox="0 0 283.46 283.46" enable-background="new 0 0 283.46 283.46" xml:space="preserve">
<g>
	<g>
		<path fill="#1AC0BA" d="M270.614,29.772v-3.448c0-1.747-1.417-3.169-3.164-3.169h-2.623c-1.743,0-3.162,1.419-3.162,3.169v3.38
			h-20.397v-3.38c0-1.747-1.417-3.169-3.165-3.169h-2.613c-1.752,0-3.167,1.419-3.167,3.169v3.38h-20.399v-3.38
			c0-1.747-1.42-3.169-3.167-3.169h-2.616c-1.742,0-3.169,1.419-3.169,3.169v3.507c-4.396,0.717-7.694,4.496-7.694,9.072v65.055
			c0,5.076,4.126,9.202,9.202,9.202h65.052c5.08,0,9.204-4.128,9.204-9.202V38.903C278.736,34.197,275.179,30.309,270.614,29.772z
			 M264.068,26.324c0-0.423,0.343-0.763,0.764-0.763h2.618c0.421,0,0.764,0.34,0.764,0.763v9.163c0,0.423-0.343,0.764-0.764,0.764
			h-2.618c-0.421,0-0.764-0.34-0.764-0.764V26.324z M234.726,26.324c0-0.423,0.338-0.763,0.764-0.763h2.616
			c0.419,0,0.761,0.34,0.761,0.763v9.163c0,0.423-0.342,0.764-0.761,0.764h-2.616c-0.426,0-0.764-0.34-0.764-0.764V26.324z
			 M205.379,26.324c0-0.423,0.343-0.763,0.764-0.763h2.618c0.421,0,0.764,0.34,0.764,0.763v9.163c0,0.423-0.343,0.764-0.764,0.764
			h-2.618c-0.421,0-0.764-0.34-0.764-0.764V26.324z M202.971,32.278v3.208c0,1.745,1.427,3.165,3.172,3.165h2.618
			c1.742,0,3.164-1.419,3.164-3.165v-3.382h20.397v3.382c0,1.745,1.425,3.165,3.167,3.165h2.618c1.743,0,3.162-1.419,3.162-3.165
			v-3.382h20.4v3.382c0,1.745,1.419,3.165,3.162,3.165h2.623c1.742,0,3.162-1.419,3.162-3.165v-3.284
			c3.235,0.521,5.719,3.323,5.719,6.703v11.693h-78.659V38.906C197.68,35.658,199.921,32.959,202.971,32.278z M269.53,110.759
			h-65.052c-3.75,0-6.794-3.052-6.794-6.801V53.002h78.649v50.956C276.334,107.707,273.284,110.759,269.53,110.759z"/>
		<path fill="#1AC0BA" d="M213.122,59.612L213.122,59.612c-3.064,0-5.541,2.481-5.541,5.541l0,0c0,3.062,2.477,5.541,5.541,5.541
			l0,0c3.054,0,5.54-2.479,5.54-5.541l0,0C218.662,62.093,216.176,59.612,213.122,59.612z"/>
		<path fill="#1AC0BA" d="M228.901,59.612L228.901,59.612c-3.054,0-5.54,2.481-5.54,5.541l0,0c0,3.062,2.486,5.541,5.54,5.541l0,0
			c3.062,0,5.546-2.479,5.546-5.541l0,0C234.447,62.093,231.963,59.612,228.901,59.612z"/>
		<path fill="#1AC0BA" d="M244.687,59.612c-3.06,0-5.541,2.481-5.541,5.541l0,0c0,3.062,2.481,5.541,5.541,5.541
			c3.059,0,5.54-2.479,5.54-5.541l0,0C250.227,62.093,247.745,59.612,244.687,59.612z"/>
		<path fill="#1AC0BA" d="M213.122,76.006L213.122,76.006c-3.064,0-5.541,2.484-5.541,5.541l0,0c0,3.059,2.477,5.543,5.541,5.543
			l0,0c3.054,0,5.54-2.481,5.54-5.543l0,0C218.662,78.49,216.176,76.006,213.122,76.006z"/>
		<path fill="#1AC0BA" d="M228.901,76.006L228.901,76.006c-3.054,0-5.54,2.484-5.54,5.541l0,0c0,3.059,2.486,5.543,5.54,5.543l0,0
			c3.062,0,5.546-2.481,5.546-5.543l0,0C234.447,78.49,231.963,76.006,228.901,76.006z"/>
		<path fill="#1AC0BA" d="M244.687,76.006c-3.06,0-5.541,2.484-5.541,5.541l0,0c0,3.059,2.481,5.543,5.541,5.543
			c3.059,0,5.54-2.481,5.54-5.543l0,0C250.227,78.49,247.745,76.006,244.687,76.006z"/>
		<path fill="#1AC0BA" d="M244.687,92.402c-3.06,0-5.541,2.477-5.541,5.543l0,0c0,3.059,2.481,5.536,5.541,5.536
			c3.059,0,5.54-2.477,5.54-5.536l0,0C250.227,94.881,247.745,92.402,244.687,92.402z"/>
		<path fill="#1AC0BA" d="M260.471,59.612c-3.062,0-5.541,2.481-5.541,5.541l0,0c0,3.062,2.479,5.541,5.541,5.541
			c3.059,0,5.543-2.479,5.543-5.541l0,0C266.014,62.093,263.529,59.612,260.471,59.612z"/>
		<path fill="#1AC0BA" d="M260.471,76.006c-3.062,0-5.541,2.484-5.541,5.541l0,0c0,3.059,2.479,5.543,5.541,5.543
			c3.059,0,5.543-2.481,5.543-5.543l0,0C266.014,78.49,263.529,76.006,260.471,76.006z"/>
		<path fill="#1AC0BA" d="M260.471,92.402c-3.062,0-5.541,2.477-5.541,5.543l0,0c0,3.059,2.479,5.536,5.541,5.536
			c3.059,0,5.543-2.477,5.543-5.536l0,0C266.014,94.881,263.529,92.402,260.471,92.402z"/>
		<path fill="#1AC0BA" d="M213.122,92.402L213.122,92.402c-3.064,0-5.541,2.477-5.541,5.543l0,0c0,3.059,2.477,5.536,5.541,5.536
			l0,0c3.054,0,5.54-2.477,5.54-5.536l0,0C218.662,94.881,216.176,92.402,213.122,92.402z"/>
		<path fill="#1AC0BA" d="M228.901,92.402L228.901,92.402c-3.054,0-5.54,2.477-5.54,5.543l0,0c0,3.059,2.486,5.536,5.54,5.536l0,0
			c3.062,0,5.546-2.477,5.546-5.536l0,0C234.447,94.881,231.963,92.402,228.901,92.402z"/>
	</g>
	<g>
		<path fill="#1AC0BA" d="M210.699,234.028h-8.688l-71.862,23.729c-2.227,1.189-11.277,5.228-20.733-0.26l-0.103-0.049
			l-98.499-54.759c-0.365-0.206-0.666-0.458-0.93-0.72l0,0c0-0.057-8.798-8.896-3.417-18.927l0,0c0-0.052,5.891-12.562,17.271-9.407
			c28.601,7.914,47.05,24.35,64.061,28.593c22.179,3.979,37.695,2.585,58.581-6.26c-6.305-0.614-16.442-0.046-26.781,0.414
			c-3.155,0.151-6.36,0.259-9.51,0.362c-31.444,0.829-32.891-9.459-26.217-16.957c6.456-7.239,12.042-7.396,20.258-7.396h31.496
			c5.012-2.271,30.817-13.754,44.727-16.235c0.046,0,0.103,0,0.151,0c6.201-1.086,13.91-1.448,20.888-1.448
			c3.359,0,6.57,0.056,9.307,0.159v79.256V234.028L210.699,234.028z"/>
		<path fill="#1AC0BA" d="M224.095,136.403h36.038c2.521,0,4.802,1.042,6.51,2.692l0,0l0,0l0,0l0,0
			c1.654,1.708,2.736,3.989,2.736,6.514v97.254c0,2.54-1.033,4.809-2.683,6.517l0,0l0,0l0,0l0,0
			c-1.706,1.649-3.984,2.741-6.52,2.741h-36.043c-2.368,0-4.596-0.933-6.245-2.431c-0.112-0.105-0.21-0.208-0.313-0.257
			c-1.654-1.652-2.75-3.977-2.75-6.57v-97.254c0-2.525,1.047-4.86,2.75-6.563l0,0c1.704-1.703,3.979-2.741,6.52-2.741V136.403z"/>
	</g>
	<path fill="#1AC0BA" d="M149.689,103.133c-19.339,0-35.021-15.68-35.021-35.02c0-10.951,5.026-20.721,12.897-27.145
		c-10.093-7.188-22.441-11.431-35.784-11.431c-17.057,0-32.519,6.928-43.678,18.102C36.93,58.802,29.999,74.263,29.999,91.323
		c0,17.065,6.931,32.531,18.104,43.693c11.16,11.164,26.621,18.095,43.678,18.095c17.067,0,32.531-6.931,43.693-18.095
		c8.551-8.545,14.587-19.624,16.956-32C151.524,103.087,150.614,103.133,149.689,103.133z M107.87,107.196
		c-0.832,1.816-1.968,3.421-3.421,4.708c-1.488,1.348-3.255,2.381-5.325,3.149c-2.061,0.781-4.395,1.297-6.921,1.5l-0.832,8.485
		c-0.049,0.21-0.107,0.411-0.157,0.57c-0.098,0.152-0.259,0.306-0.514,0.414c-0.254,0.101-0.563,0.201-1.038,0.255l0.049,0.049
		c-0.401,0.054-0.979,0.103-1.647,0.103c-0.825,0-1.507-0.049-2.019-0.103c-0.514-0.105-0.935-0.206-1.192-0.362
		c-0.306-0.152-0.462-0.357-0.565-0.558c-0.103-0.264-0.103-0.528-0.049-0.783l0.822-8.071c-1.135-0.151-2.222-0.359-3.203-0.617
		c-1.035-0.259-1.916-0.509-2.744-0.827c-0.822-0.306-1.551-0.617-2.119-0.925c-0.568-0.321-1.038-0.624-1.346-0.933
		c-0.309-0.308-0.512-0.722-0.671-1.348c-0.151-0.563-0.206-1.444-0.206-2.638c0-0.879,0.052-1.647,0.103-2.222
		c0.051-0.565,0.152-1.03,0.262-1.346c0.154-0.313,0.311-0.514,0.512-0.675c0.201-0.095,0.411-0.149,0.68-0.149
		c0.36,0,0.822,0.206,1.498,0.568c0.666,0.411,1.498,0.832,2.526,1.29c1.033,0.468,2.281,0.933,3.72,1.297
		c1.458,0.416,3.167,0.563,5.125,0.563c3.108,0,5.376-0.563,6.876-1.698c1.507-1.145,2.281-2.687,2.281-4.603
		c0-1.29-0.323-2.325-0.986-3.103c-0.678-0.827-1.5-1.549-2.591-2.168c-1.082-0.617-2.32-1.192-3.661-1.657
		c-1.351-0.519-2.746-1.04-4.192-1.547c-1.393-0.577-2.785-1.194-4.188-1.967c-1.351-0.725-2.584-1.652-3.671-2.741
		c-1.077-1.087-1.914-2.376-2.584-3.926c-0.671-1.556-0.984-3.414-0.984-5.589c0-1.96,0.313-3.773,0.984-5.374
		c0.67-1.652,1.6-3.054,2.843-4.297c1.239-1.241,2.795-2.166,4.601-2.939c1.806-0.781,3.874-1.246,6.152-1.554l0.773-7.966
		c0.054-0.203,0.103-0.409,0.156-0.514c0.108-0.159,0.255-0.252,0.524-0.414c0.25-0.098,0.553-0.201,1.023-0.257
		c0.423-0.046,0.991-0.105,1.657-0.105c0.834,0,1.505,0.059,2.019,0.105c0.521,0.098,0.984,0.201,1.238,0.362
		c0.311,0.149,0.455,0.36,0.563,0.565c0.107,0.257,0.107,0.519,0.107,0.776l-0.771,7.5c0.722,0.096,1.554,0.255,2.328,0.406
		c0.827,0.203,1.601,0.423,2.278,0.681c0.719,0.254,1.331,0.516,1.906,0.822c0.568,0.262,0.989,0.519,1.197,0.778
		c0.203,0.206,0.404,0.468,0.512,0.671c0.107,0.213,0.215,0.519,0.259,0.83c0.054,0.357,0.098,0.717,0.157,1.189
		c0.039,0.462,0.039,0.979,0.039,1.603c0,0.825,0,1.5-0.039,2.014c-0.059,0.514-0.103,0.93-0.201,1.192
		c-0.108,0.252-0.215,0.46-0.372,0.563c-0.152,0.105-0.254,0.159-0.46,0.159c-0.367,0-0.837-0.159-1.498-0.516
		c-0.685-0.367-1.454-0.729-2.433-1.089c-0.979-0.416-2.075-0.781-3.313-1.087c-1.243-0.359-2.638-0.514-4.141-0.514
		c-1.336,0-2.528,0.154-3.509,0.411c-0.981,0.262-1.762,0.624-2.379,1.086c-0.622,0.462-1.042,1.033-1.341,1.708
		c-0.259,0.673-0.416,1.395-0.416,2.168c0,1.246,0.308,2.278,0.981,3.108c0.68,0.82,1.544,1.593,2.638,2.166
		c1.089,0.619,2.328,1.145,3.728,1.657c1.39,0.511,2.785,1.033,4.238,1.603c1.439,0.567,2.839,1.191,4.239,1.911
		c1.4,0.725,2.579,1.657,3.715,2.694c1.091,1.077,1.973,2.372,2.587,3.874c0.673,1.549,0.981,3.36,0.981,5.475
		C109.049,103.322,108.643,105.382,107.87,107.196z"/>
	<path fill="#1AC0BA" d="M149.689,37.002c-17.181,0-31.11,13.929-31.11,31.111c0,17.18,13.93,31.109,31.11,31.109
		c17.185,0,31.114-13.93,31.114-31.109C180.804,50.931,166.874,37.002,149.689,37.002z M163.653,58.17
		c-13.837,24.105-14.042,24.298-14.274,24.526c-0.7,0.653-1.599,1.008-2.543,1.008c-1.018,0-2.003-0.426-2.703-1.167l-8.8-8.115
		c-1.469-1.562-1.412-3.933,0.078-5.33c0.666-0.626,1.561-0.972,2.521-0.972c1.047,0,2.036,0.416,2.716,1.141l5.249,4.835
		l11.333-19.631c0.658-1.146,1.887-1.857,3.213-1.857c0.646,0,1.287,0.173,1.853,0.501C164.064,54.127,164.672,56.398,163.653,58.17
		z"/>
</g>
</svg>
