<?xml version="1.0" encoding="utf-8"?>
<!-- Generator: Adobe Illustrator 16.0.0, SVG Export Plug-In . SVG Version: 6.00 Build 0)  -->
<!DOCTYPE svg PUBLIC "-//W3C//DTD SVG 1.1//EN" "http://www.w3.org/Graphics/SVG/1.1/DTD/svg11.dtd">
<svg version="1.1" id="Layer_1" xmlns="http://www.w3.org/2000/svg" xmlns:xlink="http://www.w3.org/1999/xlink" x="0px" y="0px"
	 width="283.46px" height="283.46px" viewBox="0 0 283.46 283.46" enable-background="new 0 0 283.46 283.46" xml:space="preserve">
<g>
	<path fill="#2E5788" d="M142.234,6.907C67.501,6.907,6.907,67.501,6.907,142.234c0,73.724,60.594,134.318,135.327,134.318
		c73.724,0,134.318-60.595,134.318-134.318C276.553,67.501,215.958,6.907,142.234,6.907z M225.05,203.842l-21.208,18.178
		c0,0-4.045,3.03-10.101,4.039c-7.069,2.022-18.177-2.023-18.177-2.023C133.149,209.903,73.56,150.317,59.424,108.91
		c0,0-3.031-12.123-2.022-18.178c1.008-7.069,4.039-11.111,4.039-11.111l19.192-21.208c0,0,5.047-4.039,11.108,3.027
		c7.07,7.07,28.278,31.309,28.278,31.309s8.078,7.069,1.008,15.15c-7.069,7.069-13.131,14.139-13.131,14.139
		s-2.016,2.02,2.022,9.089c4.039,6.062,36.36,39.384,42.415,42.415c7.069,4.046,9.092,3.031,9.092,3.031s7.069-7.069,15.147-14.139
		c7.069-7.07,15.146,1.008,15.146,1.008s23.231,22.223,30.301,28.277C230.097,197.78,225.05,203.842,225.05,203.842z"/>
</g>
</svg>
