<?xml version="1.0" encoding="utf-8"?>
<!-- Generator: Adobe Illustrator 16.0.0, SVG Export Plug-In . SVG Version: 6.00 Build 0)  -->
<!DOCTYPE svg PUBLIC "-//W3C//DTD SVG 1.1//EN" "http://www.w3.org/Graphics/SVG/1.1/DTD/svg11.dtd">
<svg version="1.1" id="Layer_1" xmlns="http://www.w3.org/2000/svg" xmlns:xlink="http://www.w3.org/1999/xlink" x="0px" y="0px"
	 width="283.46px" height="283.46px" viewBox="0 0 283.46 283.46" enable-background="new 0 0 283.46 283.46" xml:space="preserve">
<g>
	<g>
		<path fill="#465CFF" d="M217.731,246.855h-8.959L134.6,271.341c-2.301,1.234-11.642,5.398-21.402-0.263l-0.106-0.053
			L11.433,214.509c-0.377-0.212-0.687-0.472-0.958-0.74l0,0c0-0.063-9.082-9.182-3.527-19.536l0,0c0-0.051,6.08-12.964,17.825-9.707
			c29.515,8.168,48.558,25.13,66.12,29.512c22.891,4.107,38.907,2.67,60.464-6.462c-6.514-0.634-16.975-0.045-27.646,0.43
			c-3.259,0.156-6.571,0.266-9.819,0.374c-32.441,0.853-33.944-9.769-27.058-17.504c6.666-7.473,12.43-7.635,20.914-7.635h32.505
			c5.177-2.346,31.798-14.197,46.16-16.758c0.051,0,0.101,0,0.159,0c6.403-1.117,14.357-1.491,21.562-1.491
			c3.466,0,6.775,0.056,9.596,0.164v81.801V246.855z"/>
		<path fill="#465CFF" d="M231.561,146.096h37.197c2.608,0,4.962,1.072,6.716,2.776l0,0l0,0l0,0l0,0
			c1.712,1.762,2.838,4.119,2.838,6.728v100.371c0,2.628-1.073,4.968-2.779,6.728l0,0l0,0l0,0l0,0
			c-1.759,1.706-4.104,2.831-6.729,2.831h-37.195c-2.449,0-4.744-0.963-6.447-2.508c-0.12-0.108-0.219-0.218-0.33-0.268
			c-1.703-1.703-2.826-4.108-2.826-6.783V155.6c0-2.608,1.067-5.021,2.826-6.778l0,0c1.765-1.762,4.11-2.828,6.73-2.828V146.096z"/>
	</g>
	<path fill="#465CFF" d="M140.099,54.476c-11.52-11.534-27.482-18.68-45.095-18.68c-17.607,0-33.567,7.146-45.092,18.68
		C38.381,65.998,31.235,81.955,31.235,99.564c0,17.61,7.146,33.573,18.677,45.098c11.525,11.521,27.484,18.676,45.092,18.676
		c17.613,0,33.575-7.155,45.095-18.676c11.532-11.525,18.676-27.487,18.676-45.098C158.774,81.955,151.631,65.998,140.099,54.476z
		 M111.603,115.946c-0.86,1.871-2.03,3.533-3.527,4.859c-1.536,1.393-3.362,2.455-5.496,3.25c-2.125,0.804-4.535,1.34-7.146,1.55
		l-0.86,8.755c-0.047,0.218-0.109,0.424-0.159,0.589c-0.101,0.157-0.268,0.318-0.533,0.425c-0.257,0.106-0.575,0.209-1.067,0.268
		l0.053,0.05c-0.422,0.056-1.014,0.103-1.707,0.103c-0.849,0-1.55-0.047-2.078-0.103c-0.53-0.109-0.969-0.209-1.237-0.375
		c-0.31-0.156-0.469-0.369-0.581-0.575c-0.109-0.273-0.109-0.544-0.044-0.81l0.849-8.328c-1.176-0.156-2.301-0.372-3.312-0.637
		c-1.072-0.268-1.974-0.528-2.832-0.854c-0.849-0.318-1.6-0.637-2.189-0.958c-0.583-0.327-1.067-0.642-1.382-0.958
		c-0.318-0.321-0.533-0.745-0.695-1.391c-0.156-0.586-0.212-1.494-0.212-2.726c0-0.905,0.056-1.701,0.106-2.295
		c0.056-0.581,0.162-1.061,0.268-1.388c0.167-0.321,0.324-0.534,0.533-0.695c0.204-0.098,0.427-0.157,0.695-0.157
		c0.374,0,0.854,0.212,1.547,0.586c0.692,0.425,1.55,0.86,2.608,1.332c1.07,0.483,2.352,0.964,3.843,1.338
		c1.505,0.427,3.265,0.583,5.286,0.583c3.203,0,5.543-0.583,7.102-1.756c1.553-1.179,2.352-2.773,2.352-4.75
		c0-1.332-0.333-2.401-1.022-3.2c-0.698-0.857-1.544-1.6-2.672-2.24c-1.114-0.637-2.396-1.229-3.779-1.709
		c-1.396-0.536-2.837-1.075-4.331-1.6c-1.43-0.592-2.874-1.229-4.317-2.027c-1.391-0.749-2.667-1.706-3.792-2.829
		c-1.108-1.123-1.969-2.455-2.667-4.052c-0.689-1.606-1.016-3.524-1.016-5.77c0-2.022,0.327-3.896,1.016-5.546
		c0.698-1.707,1.653-3.153,2.938-4.438c1.273-1.282,2.882-2.234,4.75-3.033c1.869-0.802,3.999-1.285,6.354-1.601l0.796-8.227
		c0.053-0.207,0.103-0.419,0.162-0.528c0.109-0.162,0.257-0.26,0.534-0.425c0.257-0.101,0.578-0.209,1.061-0.268
		c0.433-0.047,1.022-0.109,1.712-0.109c0.86,0,1.55,0.062,2.081,0.109c0.539,0.101,1.014,0.209,1.282,0.377
		c0.318,0.154,0.472,0.372,0.581,0.581c0.106,0.265,0.106,0.533,0.106,0.799l-0.796,7.741c0.749,0.101,1.608,0.263,2.401,0.422
		c0.857,0.209,1.659,0.433,2.354,0.701c0.74,0.259,1.376,0.533,1.971,0.846c0.584,0.271,1.02,0.536,1.232,0.807
		c0.209,0.209,0.418,0.48,0.528,0.69c0.111,0.221,0.22,0.536,0.271,0.854c0.05,0.372,0.098,0.743,0.157,1.229
		c0.05,0.48,0.05,1.011,0.05,1.656c0,0.852,0,1.547-0.05,2.078c-0.059,0.531-0.106,0.958-0.207,1.229
		c-0.109,0.262-0.22,0.478-0.379,0.583c-0.159,0.112-0.269,0.162-0.475,0.162c-0.385,0-0.866-0.162-1.547-0.534
		c-0.707-0.377-1.502-0.751-2.516-1.12c-1.011-0.433-2.136-0.81-3.421-1.123c-1.282-0.372-2.714-0.534-4.267-0.534
		c-1.382,0-2.611,0.162-3.619,0.425c-1.017,0.273-1.821,0.648-2.46,1.123c-0.64,0.478-1.081,1.066-1.388,1.762
		c-0.266,0.695-0.425,1.441-0.425,2.239c0,1.285,0.321,2.352,1.008,3.206c0.704,0.849,1.6,1.647,2.723,2.237
		c1.125,0.64,2.402,1.184,3.845,1.712c1.441,0.528,2.885,1.064,4.374,1.653c1.494,0.583,2.935,1.231,4.379,1.972
		c1.443,0.748,2.661,1.709,3.837,2.781c1.125,1.111,2.036,2.446,2.672,3.996c0.692,1.6,1.011,3.471,1.011,5.649
		C112.823,111.947,112.402,114.075,111.603,115.946z"/>
	<path fill="#465CFF" d="M213.643,9.484c-24.08,0-43.605,19.52-43.605,43.606c0,24.083,19.525,43.609,43.605,43.609
		c24.092,0,43.618-19.526,43.618-43.609C257.261,29.004,237.734,9.484,213.643,9.484z M236.908,35.02
		c-23.087,40.205-23.438,40.537-23.656,40.735c-0.883,0.83-2.038,1.285-3.253,1.285c-1.293,0-2.544-0.531-3.438-1.463l-14.92-13.771
		c-1.799-1.924-1.701-4.945,0.22-6.744c0.883-0.83,2.039-1.288,3.257-1.288c1.29,0,2.541,0.533,3.44,1.463l10.215,9.425
		l19.864-34.413c0.849-1.472,2.432-2.385,4.136-2.385c0.838,0,1.664,0.221,2.385,0.64C237.431,29.817,238.215,32.741,236.908,35.02z
		"/>
</g>
</svg>
