<?xml version="1.0" encoding="utf-8"?>
<!-- Generator: Adobe Illustrator 16.0.0, SVG Export Plug-In . SVG Version: 6.00 Build 0)  -->
<!DOCTYPE svg PUBLIC "-//W3C//DTD SVG 1.1//EN" "http://www.w3.org/Graphics/SVG/1.1/DTD/svg11.dtd">
<svg version="1.1" id="Layer_1" xmlns="http://www.w3.org/2000/svg" xmlns:xlink="http://www.w3.org/1999/xlink" x="0px" y="0px"
	 width="283.46px" height="283.46px" viewBox="0 0 283.46 283.46" enable-background="new 0 0 283.46 283.46" xml:space="preserve">
<g>
	<path fill-rule="evenodd" clip-rule="evenodd" fill="none" stroke="#2E5788" stroke-width="5" stroke-miterlimit="10" d="
		M150.099,83.589c0,0.971,0.059,1.946-0.017,2.908c-0.193,2.417,0.133,4.335,1.859,6.512c3.167,3.983,2.389,9.077,1.769,13.768
		c-1.021,7.73-4.736,14.265-9.753,20.141c-1.091,1.279-2.009,2.841-2.565,4.422c-3.9,11.077-10.375,20.011-21.265,24.995
		c-12.466,5.708-23.672,2.735-33.681-5.896c-5.941-5.134-9.749-11.725-12.305-19.113c-0.548-1.583-1.481-3.132-2.567-4.417
		c-7.317-8.703-11.512-18.383-9.608-29.992c0.241-1.474,0.741-3.282,1.78-4.169c1.921-1.639,1.88-3.552,2.013-5.695
		c0.43-7.049,0.07-14.325,1.737-21.083c3.719-15.061,14.268-23.537,29.214-26.623c11.871-2.447,23.341-1.015,34.303,4.247
		c5.893,2.826,9.701,7.271,11.038,13.748c0.189,0.915,0.406,2.028,1.022,2.626c4.987,4.804,5.972,11.142,6.823,17.515
		c0.271,2.015,0.211,4.073,0.304,6.106C150.163,83.589,150.13,83.589,150.099,83.589z"/>
	<path fill-rule="evenodd" clip-rule="evenodd" fill="none" stroke="#2E5788" stroke-width="5" stroke-miterlimit="10" d="
		M107.747,224.763c-3.454-6.716-6.532-12.608-9.473-18.57c-0.382-0.769-0.208-1.911-0.022-2.828
		c0.708-3.408,1.595-6.778,2.271-10.191c0.389-1.969,1.328-2.754,3.373-2.636c2.702,0.155,5.425,0.107,8.132,0.013
		c1.619-0.056,2.552,0.502,2.896,2.126c0.798,3.784,1.684,7.549,2.459,11.337c0.148,0.711,0.208,1.609-0.096,2.215
		C114.292,212.165,111.211,218.063,107.747,224.763z"/>
	<path fill-rule="evenodd" clip-rule="evenodd" fill="none" stroke="#2E5788" stroke-width="5" stroke-miterlimit="10" d="
		M107.885,171.229c2.42,0,4.845,0.038,7.266-0.012c1.82-0.039,2.469,0.837,2.139,2.533c-0.723,3.799-1.367,7.62-2.304,11.368
		c-0.196,0.783-1.459,1.781-2.289,1.835c-3.274,0.21-6.586,0.231-9.864-0.011c-0.863-0.064-2.133-1.209-2.359-2.085
		c-0.922-3.549-1.497-7.188-2.226-10.79c-0.404-1.971,0.229-2.934,2.374-2.849c2.421,0.095,4.841,0.022,7.264,0.022V171.229z"/>
	<g>
		<path fill="#2E5788" d="M265.14,198.497c-0.955-5.28-2.993-10.193-6.219-14.568c-0.597-0.809-1.097-1.052-2.146-0.889
			c-2.624,0.411-5.284,0.706-7.939,0.799c-1.404,0.048-2.952-0.146-4.221-0.702c-7.553-3.319-15.147-6.573-22.517-10.268
			c-4.193-2.101-7.755-2.369-11.844,0.261c-4.46,2.874-9.316,5.14-13.976,7.714c-4.097,2.26-4.776,7.563-1.393,10.559
			c2.134,1.887,5.271,1.913,8.247,0.183c4.05-2.357,8.128-4.674,12.225-6.952c0.5-0.285,1.308-0.558,1.741-0.35
			c3.593,1.713,7.258,3.33,10.649,5.387c3.341,2.022,6.37,4.547,9.567,6.809l16.557,11.949c1.074,0.758,2.287,1.363,3.184,2.289
			c2.254,2.328,4.652,2.589,7.64,1.469c1.289-0.483,1.684-0.965,1.578-2.134C265.929,206.194,265.827,202.292,265.14,198.497z"/>
		<path fill="#2E5788" d="M209.887,228.668c-1.432,0.076-2.824,0.795-4.058,1.173c0.095-1.097,0.616-2.626,0.231-3.877
			c-0.398-1.3-1.465-2.685-2.632-3.357c-0.932-0.542-2.578-0.396-3.652,0.056c-1.105,0.461-1.898,1.661-2.806,2.519
			c-0.517-2.002-1.723-3.572-4.017-3.835c-2.165-0.252-3.784,0.781-4.873,2.783c-0.188-0.302-0.304-0.481-0.411-0.67
			c-1.474-2.59-3.465-3.452-5.873-2.524c-2.413,0.933-3.391,2.965-2.765,5.785c0.389,1.745,0.763,3.499,1.211,5.229
			c0.607,2.343,2.601,3.802,4.912,3.43c1.072-0.174,1.5,0.171,2.066,0.978c1.533,2.214,4.249,2.575,6.404,0.991
			c0.353-0.257,0.7-0.515,1.285-0.942c-0.485,2.481,0.31,4.182,2.232,5.252c2.259,1.262,4.187,0.372,5.932-1.228
			c0.244,0.756,0.403,1.436,0.674,2.064c0.713,1.656,2.601,2.863,4.251,2.774c1.783-0.093,3.731-1.467,4.174-3.178
			c0.725-2.793,1.382-5.606,1.898-8.441C214.55,231.035,212.502,228.537,209.887,228.668z"/>
		<path fill="#2E5788" d="M177.684,177.565c-1.827-0.826-3.509-0.013-4.115,1.909c-3.348,10.643-6.692,21.287-10.022,31.935
			c-0.549,1.748,0.448,3.413,2.244,3.821c1.071,0.246,2.148,0.451,3.223,0.661c1.5,0.288,3,0.57,4.648,0.885
			c-0.081-13.101,4.001-24.902,9.385-36.479C181.173,179.332,179.466,178.367,177.684,177.565z"/>
		<path fill="#2E5788" d="M277.012,208.126c-0.518-3.714-0.886-7.338-1.315-11.069c-0.659-5.688-1.263-11.323-1.989-17.01
			c-0.267-2.077-1.74-2.955-3.756-2.459c-3.192,0.787-6.367,1.436-9.723,2.306c7.534,9.953,9.712,20.822,9.272,33.1
			c1.188,0,2.161,0,3.136,0C276.574,212.993,277.552,212.004,277.012,208.126z"/>
		<path fill="#2E5788" d="M254.432,218.543l-24.239-17.399c-4.801-3.769-9.619-7.603-15.468-9.693
			c-0.804-0.283-1.971-0.256-2.712,0.124c-3.863,1.975-7.645,4.097-11.441,6.197c-4.004,2.215-8.897,1.252-11.938-2.388
			c-2.585-3.099-2.541-8.108,0.093-11.453c0.285-0.364,0.545-0.753,0.932-1.29c-0.698-0.043-1.113-0.019-1.508-0.093
			c-2.074-0.406-3.314,0.308-4.013,2.413c-1.704,5.105-3.597,10.144-5.373,15.23c-0.153,0.443-1.242,4.491-1.367,6.061l-0.52,5.07
			c0,1.634-0.037,3,0.029,4.365c0.015,0.302,0.363,0.667,0.65,0.833c0.135,0.076,0.564-0.187,0.75-0.397
			c0.622-0.702,1.296-1.599,1.967-2.154c2.35-1.965,5.4-1.752,7.578-0.785c1.704,1.18,1.574,1.18,3.782,0.436
			c2.289-0.771,4.455-0.477,6.476,0.755c0.791,0.485,1.421,0.68,2.34,0.221c4.233-2.087,9.106,1.104,10.223,4.497
			c0.167,0.49,0.871,1.039,1.4,1.131c5.241,0.936,7.985,5.745,6.793,9.894c-0.399,1.386-0.707,2.799-1.033,4.204
			c-0.196,0.836-0.141,1.462,0.781,2.021c1.764,1.071,3.396,2.365,5.075,3.576c2.444,1.772,5.137,0.836,5.878-2.056
			c0.318-1.233,0.135-2.145-1.107-2.93c-1.944-1.219-3.59-2.655-5.567-4.103c-1.029-0.755-0.374-2.218,1.056-1.609
			c0.226,0.091,0.475,0.297,0.704,0.465c3.033,2.189,6.063,4.386,9.111,6.561c1.656,1.187,3.471,0.789,4.809-1
			c1.271-1.714,1.052-3.288-0.63-4.523c-3.445-2.525-6.879-5.046-10.319-7.574c-0.714-0.528-1.9-1.052-1.13-2.091
			c0.808-1.089,1.657-0.01,2.354,0.49c4.31,3.08,8.619,6.156,12.885,9.292c1.056,0.777,1.948,1.624,3.404,0.932
			c1.663-0.791,2.703-2.054,2.804-3.859c0.029-0.658-0.411-1.593-0.941-1.991c-3.674-2.771-7.423-5.443-11.169-8.115
			c-0.772-0.553-1.539-1.156-0.771-2.037c0.228-0.268,1.461,0.007,1.987,0.379c4.706,3.321,9.375,6.691,13.997,10.123
			c0.934,0.691,1.693,0.73,2.7,0.299C257.099,225.125,257.521,220.827,254.432,218.543z"/>
	</g>
	<path fill-rule="evenodd" clip-rule="evenodd" fill="none" stroke="#2E5788" stroke-width="5" stroke-miterlimit="10" d="
		M165.442,233.246c-0.43-1.661-0.804-3.337-1.175-5.015l-6.981-1.332c-1.264-0.248-2.534-0.496-3.787-0.779
		c-3.666-0.83-6.817-3.134-8.644-6.321c-1.826-3.159-2.234-7.01-1.119-10.561c3.967-12.693,7.953-25.387,11.949-38.075
		c1.797-5.727,6.697-9.425,12.468-9.425c0.767,0,1.526,0.083,2.282,0.213c-8.868-3.924-17.813-7.688-26.721-11.532
		c-0.489-0.213-1.045-0.271-1.642-0.409c-0.3,1.215-0.563,2.248-0.8,3.279c-5.952,26.075-14.953,50.972-28.573,74.09
		c-0.833,1.419-1.645,2.865-2.597,4.21c-1.641,2.315-3.03,2.265-4.737-0.087c-0.4-0.547-0.756-1.13-1.1-1.713
		c-8.279-14.194-15.742-28.794-20.783-44.471c-3.739-11.621-6.984-23.398-10.601-35.618c-10.529,4.613-21.287,9.057-31.784,14.055
		c-4.851,2.308-9.742,5.101-13.687,8.69c-15.031,13.693-20.05,31.782-21.098,51.317c-0.065,1.265,1.463,3.248,2.745,3.837
		c3.678,1.708,7.549,3.067,11.453,4.208c19.028,5.568,38.629,7.604,58.316,8.658c29.551,1.583,59.053,1.139,88.408-2.95
		C166.455,236.225,165.846,234.799,165.442,233.246z"/>
</g>
</svg>
