<?xml version="1.0" encoding="utf-8"?>
<!-- Generator: Adobe Illustrator 16.0.0, SVG Export Plug-In . SVG Version: 6.00 Build 0)  -->
<!DOCTYPE svg PUBLIC "-//W3C//DTD SVG 1.1//EN" "http://www.w3.org/Graphics/SVG/1.1/DTD/svg11.dtd">
<svg version="1.1" id="Layer_1" xmlns="http://www.w3.org/2000/svg" xmlns:xlink="http://www.w3.org/1999/xlink" x="0px" y="0px"
	 width="283.46px" height="283.46px" viewBox="0 0 283.46 283.46" enable-background="new 0 0 283.46 283.46" xml:space="preserve">
<g>
	<path fill="#08AF29" d="M254.512,37.972l-0.027-0.028l-0.033-0.03c-12.485-12.467-29.667-20.164-48.6-20.164
		c-18.927,0-36.109,7.697-48.6,20.164l-0.023,0.03l-0.032,0.028c-12.466,12.488-20.166,29.67-20.166,48.6v54.016H21.296
		c-6.878,0-12.511,5.631-12.511,12.51v100.104c0,6.883,5.632,12.509,12.511,12.509h156.406c6.878,0,12.509-5.626,12.509-12.509
		V153.098c0-6.879-5.631-12.51-12.509-12.51h-9.385V86.572c0-10.417,4.182-19.805,10.926-26.548l0.064-0.058
		c6.744-6.749,16.129-10.931,26.544-10.931c10.42,0,19.805,4.182,26.549,10.931l0.064,0.058
		c6.744,6.744,10.926,16.131,10.926,26.548h0.065l-0.005,20.918c0,20.563,31.148,20.571,31.148,0l0.009-20.918h0.065
		C274.674,67.642,266.974,50.46,254.512,37.972z M109.675,217.691c0,14.003-20.353,14.003-20.353,0v-29.083
		c0-14.003,20.353-14.003,20.353,0V217.691z"/>
</g>
</svg>
