<?xml version="1.0" encoding="iso-8859-1"?>
<!-- Generator: Adobe Illustrator 17.0.0, SVG Export Plug-In . SVG Version: 6.00 Build 0)  -->
<!DOCTYPE svg PUBLIC "-//W3C//DTD SVG 1.1//EN" "http://www.w3.org/Graphics/SVG/1.1/DTD/svg11.dtd">
<svg version="1.1" id="Layer_1" xmlns="http://www.w3.org/2000/svg" xmlns:xlink="http://www.w3.org/1999/xlink" x="0px" y="0px"
	 width="32px" height="32px" viewBox="125.73 125.73 32 32" style="enable-background:new 125.73 125.73 32 32;"
	 xml:space="preserve">
<path style="fill:#008CF8;" d="M147.642,143.236c-0.962-0.963-2.295-1.561-3.766-1.561c-1.47,0-2.803,0.597-3.765,1.561
	c-0.963,0.962-1.56,2.294-1.56,3.765c0,1.471,0.597,2.804,1.56,3.766c0.963,0.962,2.295,1.559,3.765,1.559
	c1.471,0,2.804-0.597,3.766-1.559c0.963-0.962,1.56-2.295,1.56-3.766C149.202,145.53,148.605,144.198,147.642,143.236z
	 M145.805,148.899c-0.103,0.224-0.243,0.422-0.422,0.581c-0.183,0.166-0.401,0.294-0.656,0.388c-0.254,0.097-0.543,0.16-0.854,0.185
	l-0.103,1.047c-0.006,0.026-0.013,0.051-0.019,0.071c-0.012,0.019-0.031,0.038-0.064,0.051c-0.031,0.012-0.069,0.025-0.127,0.032
	l0.006,0.006c-0.05,0.007-0.121,0.013-0.204,0.013c-0.101,0-0.185-0.006-0.248-0.013c-0.063-0.013-0.116-0.025-0.147-0.045
	c-0.037-0.019-0.057-0.044-0.07-0.068c-0.013-0.033-0.013-0.065-0.006-0.096l0.101-0.996c-0.14-0.019-0.274-0.044-0.395-0.076
	c-0.128-0.032-0.236-0.063-0.338-0.102c-0.102-0.038-0.192-0.076-0.262-0.114c-0.07-0.039-0.127-0.077-0.165-0.115
	c-0.038-0.038-0.064-0.089-0.084-0.166c-0.018-0.07-0.025-0.179-0.025-0.326c0-0.108,0.007-0.203,0.012-0.274
	c0.007-0.069,0.019-0.127,0.032-0.166c0.019-0.038,0.038-0.064,0.064-0.084c0.025-0.012,0.051-0.018,0.084-0.018
	c0.044,0,0.101,0.025,0.185,0.069c0.082,0.051,0.185,0.103,0.312,0.159c0.127,0.058,0.281,0.115,0.458,0.16
	c0.18,0.051,0.39,0.07,0.632,0.07c0.383,0,0.663-0.07,0.848-0.21c0.187-0.141,0.282-0.331,0.282-0.568
	c0-0.159-0.039-0.287-0.122-0.383c-0.083-0.102-0.185-0.191-0.319-0.267c-0.134-0.077-0.287-0.148-0.452-0.205
	c-0.166-0.064-0.339-0.128-0.518-0.191c-0.171-0.071-0.343-0.147-0.516-0.243c-0.166-0.089-0.319-0.203-0.454-0.338
	c-0.132-0.134-0.235-0.293-0.318-0.484c-0.082-0.192-0.121-0.421-0.121-0.689c0-0.242,0.039-0.466,0.121-0.663
	c0.083-0.204,0.198-0.377,0.352-0.53c0.152-0.153,0.344-0.267,0.568-0.362c0.223-0.096,0.478-0.154,0.758-0.192l0.096-0.983
	c0.006-0.025,0.013-0.05,0.02-0.064c0.013-0.019,0.031-0.031,0.064-0.05c0.031-0.012,0.068-0.025,0.126-0.032
	c0.052-0.006,0.122-0.013,0.204-0.013c0.103,0,0.186,0.007,0.249,0.013c0.064,0.012,0.122,0.025,0.153,0.045
	c0.038,0.019,0.056,0.045,0.07,0.069c0.013,0.032,0.013,0.065,0.013,0.096l-0.095,0.925c0.09,0.012,0.192,0.032,0.286,0.051
	c0.103,0.025,0.199,0.052,0.282,0.083c0.089,0.031,0.165,0.064,0.236,0.102c0.069,0.032,0.121,0.064,0.147,0.095
	c0.025,0.026,0.05,0.058,0.063,0.083c0.013,0.027,0.027,0.065,0.032,0.102c0.006,0.044,0.012,0.089,0.019,0.147
	c0.006,0.057,0.006,0.121,0.006,0.198c0,0.101,0,0.185-0.006,0.248c-0.007,0.064-0.013,0.115-0.025,0.147
	c-0.013,0.031-0.027,0.057-0.046,0.069c-0.018,0.013-0.031,0.02-0.056,0.02c-0.045,0-0.103-0.02-0.186-0.064
	c-0.084-0.045-0.179-0.09-0.299-0.135c-0.122-0.051-0.256-0.096-0.409-0.134c-0.154-0.045-0.325-0.064-0.511-0.064
	c-0.165,0-0.312,0.019-0.433,0.051c-0.121,0.033-0.217,0.077-0.293,0.134c-0.077,0.057-0.128,0.127-0.166,0.211
	c-0.031,0.083-0.05,0.172-0.05,0.268c0,0.153,0.037,0.281,0.12,0.382c0.084,0.102,0.191,0.197,0.326,0.268
	c0.135,0.077,0.287,0.141,0.459,0.204c0.172,0.063,0.343,0.127,0.523,0.198c0.178,0.069,0.35,0.146,0.523,0.236
	c0.172,0.089,0.318,0.203,0.458,0.332c0.135,0.133,0.243,0.292,0.319,0.477c0.082,0.191,0.122,0.415,0.122,0.675
	C145.951,148.421,145.899,148.675,145.805,148.899z"/>
<g>
	<path style="fill:none;stroke:#008CF8;stroke-miterlimit:10;" d="M145.576,157.218c0.115-0.025,0.23-0.052,0.344-0.081
		c0.274-0.07,0.544-0.152,0.809-0.243c3.978-1.381,6.834-5.161,6.834-9.609c0-5.616-4.553-10.169-10.169-10.169
		c-5.616,0-10.168,4.553-10.168,10.169c-0.001,1.053,0.16,2.069,0.457,3.023l3.386-2.959"/>
	<line style="fill:none;stroke:#008CF8;stroke-miterlimit:10;" x1="133.747" y1="150.845" x2="129.897" y2="147.314"/>
</g>
<g>
	<g>
		<line style="fill:none;stroke:#008CF8;stroke-miterlimit:10;" x1="143.877" y1="136.697" x2="143.877" y2="126.531"/>
		<g>
			<polygon style="fill:#008CF8;" points="144.859,127.685 143.877,126.702 142.894,127.685 142.894,126.851 143.877,125.869 
				144.859,126.851 			"/>
		</g>
	</g>
</g>
<g>
	<g>
		<line style="fill:none;stroke:#008CF8;stroke-miterlimit:10;" x1="138.438" y1="138.439" x2="135.164" y2="129.286"/>
		<g>
			<polygon style="fill:#008CF8;" points="136.477,130.042 135.222,129.448 134.628,130.704 134.347,129.919 134.941,128.663 
				136.196,129.257 			"/>
		</g>
	</g>
</g>
<g>
	<g>
		<line style="fill:none;stroke:#008CF8;stroke-miterlimit:10;" x1="138.438" y1="138.439" x2="135.164" y2="129.286"/>
		<g>
			<polygon style="fill:#008CF8;" points="136.477,130.042 135.222,129.448 134.628,130.704 134.347,129.919 134.941,128.663 
				136.196,129.257 			"/>
		</g>
	</g>
</g>
<g>
	<g>
		<line style="fill:none;stroke:#008CF8;stroke-miterlimit:10;" x1="149.202" y1="138.439" x2="152.477" y2="129.286"/>
		<g>
			<polygon style="fill:#008CF8;" points="153.012,130.704 152.419,129.448 151.163,130.042 151.444,129.257 152.7,128.663 
				153.293,129.919 			"/>
		</g>
	</g>
</g>
</svg>
