<?xml version="1.0" encoding="iso-8859-1"?>
<!-- Generator: Adobe Illustrator 17.0.0, SVG Export Plug-In . SVG Version: 6.00 Build 0)  -->
<!DOCTYPE svg PUBLIC "-//W3C//DTD SVG 1.1//EN" "http://www.w3.org/Graphics/SVG/1.1/DTD/svg11.dtd">
<svg version="1.1" id="Layer_1" xmlns="http://www.w3.org/2000/svg" xmlns:xlink="http://www.w3.org/1999/xlink" x="0px" y="0px"
	 width="32px" height="32px" viewBox="125.73 125.73 32 32" style="enable-background:new 125.73 125.73 32 32;"
	 xml:space="preserve">
<path style="fill:#2E5788;" d="M155.053,138.537c-0.828-0.796-1.976-1.289-3.243-1.289c-1.266,0-2.413,0.493-3.242,1.289
	c-0.83,0.795-1.344,1.895-1.344,3.111c0,1.215,0.514,2.317,1.344,3.112c0.829,0.795,1.976,1.288,3.242,1.288
	c1.267,0,2.415-0.493,3.243-1.288c0.829-0.795,1.343-1.897,1.343-3.112C156.396,140.433,155.882,139.332,155.053,138.537z
	 M153.399,143.248c-0.084,0.173-0.196,0.327-0.341,0.45c-0.148,0.128-0.324,0.227-0.53,0.301c-0.205,0.075-0.438,0.124-0.689,0.143
	l-0.084,0.811c-0.004,0.02-0.01,0.039-0.015,0.055c-0.01,0.014-0.025,0.029-0.052,0.039c-0.024,0.009-0.055,0.019-0.102,0.025
	l0.005,0.004c-0.04,0.005-0.098,0.01-0.165,0.01c-0.082,0-0.149-0.004-0.2-0.01c-0.051-0.01-0.093-0.02-0.118-0.035
	c-0.03-0.014-0.046-0.033-0.056-0.053c-0.011-0.025-0.011-0.051-0.005-0.075l0.082-0.771c-0.113-0.014-0.221-0.034-0.319-0.059
	c-0.103-0.025-0.191-0.049-0.273-0.079c-0.083-0.029-0.155-0.059-0.212-0.088c-0.056-0.03-0.103-0.06-0.133-0.089
	c-0.031-0.029-0.051-0.069-0.067-0.128c-0.015-0.054-0.02-0.138-0.02-0.252c0-0.084,0.005-0.157,0.01-0.212
	c0.005-0.054,0.015-0.099,0.026-0.128c0.015-0.03,0.031-0.049,0.051-0.065c0.02-0.01,0.04-0.014,0.067-0.014
	c0.036,0,0.082,0.019,0.149,0.054c0.067,0.04,0.149,0.08,0.252,0.123c0.102,0.045,0.227,0.089,0.37,0.124
	c0.145,0.04,0.315,0.054,0.51,0.054c0.31,0,0.536-0.054,0.684-0.162c0.15-0.11,0.227-0.257,0.227-0.44
	c0-0.123-0.032-0.222-0.099-0.296c-0.067-0.079-0.149-0.148-0.257-0.207c-0.108-0.059-0.231-0.114-0.365-0.158
	c-0.135-0.049-0.274-0.099-0.418-0.147c-0.138-0.055-0.277-0.114-0.417-0.188c-0.134-0.069-0.257-0.157-0.366-0.261
	c-0.106-0.104-0.189-0.227-0.257-0.375c-0.066-0.149-0.098-0.326-0.098-0.533c0-0.188,0.032-0.361,0.098-0.514
	c0.067-0.158,0.16-0.292,0.284-0.41c0.123-0.119,0.278-0.206,0.458-0.281c0.18-0.074,0.386-0.119,0.612-0.148l0.077-0.761
	c0.005-0.02,0.011-0.039,0.016-0.049c0.01-0.015,0.025-0.025,0.051-0.039c0.025-0.01,0.055-0.019,0.102-0.025
	c0.043-0.005,0.099-0.01,0.165-0.01c0.083,0,0.15,0.006,0.202,0.01c0.052,0.009,0.098,0.019,0.123,0.035
	c0.031,0.015,0.046,0.035,0.056,0.054c0.01,0.025,0.01,0.05,0.01,0.074l-0.077,0.716c0.073,0.009,0.155,0.024,0.231,0.039
	c0.083,0.019,0.16,0.04,0.227,0.065c0.072,0.024,0.133,0.05,0.19,0.079c0.056,0.025,0.098,0.05,0.119,0.074
	c0.02,0.02,0.04,0.045,0.051,0.065c0.011,0.021,0.021,0.05,0.026,0.08c0.006,0.034,0.01,0.068,0.016,0.113
	c0.004,0.044,0.004,0.094,0.004,0.154c0,0.078,0,0.143-0.004,0.191c-0.006,0.05-0.01,0.09-0.02,0.114
	c-0.011,0.025-0.021,0.044-0.037,0.054c-0.014,0.01-0.025,0.015-0.045,0.015c-0.036,0-0.084-0.015-0.15-0.049
	c-0.067-0.035-0.144-0.07-0.241-0.105c-0.098-0.039-0.207-0.074-0.33-0.103c-0.124-0.035-0.262-0.049-0.412-0.049
	c-0.133,0-0.251,0.015-0.35,0.039c-0.098,0.025-0.175,0.06-0.236,0.104c-0.063,0.044-0.104,0.098-0.134,0.163
	c-0.025,0.064-0.04,0.133-0.04,0.208c0,0.118,0.03,0.217,0.097,0.296c0.068,0.079,0.154,0.153,0.263,0.207
	c0.109,0.06,0.232,0.11,0.37,0.159c0.139,0.049,0.277,0.098,0.422,0.153c0.143,0.054,0.282,0.114,0.422,0.183
	c0.138,0.069,0.257,0.157,0.37,0.257c0.108,0.103,0.196,0.226,0.257,0.369c0.067,0.148,0.098,0.321,0.098,0.522
	C153.516,142.878,153.474,143.075,153.399,143.248z"/>
<path style="fill:#2E5788;" d="M149.976,130.661c-0.51-0.49-1.216-0.793-1.997-0.793c-0.779,0-1.486,0.304-1.996,0.793
	c-0.511,0.49-0.827,1.167-0.827,1.915c0,0.748,0.316,1.426,0.827,1.916c0.51,0.49,1.216,0.793,1.996,0.793
	c0.78,0,1.486-0.304,1.997-0.793c0.51-0.489,0.827-1.167,0.827-1.916C150.803,131.828,150.486,131.15,149.976,130.661z
	 M149.02,133.641c-0.055,0.113-0.128,0.214-0.223,0.294c-0.097,0.084-0.212,0.149-0.347,0.197c-0.134,0.049-0.287,0.082-0.451,0.094
	l-0.055,0.531c-0.003,0.013-0.007,0.025-0.01,0.036c-0.006,0.009-0.016,0.019-0.034,0.025c-0.016,0.006-0.036,0.013-0.067,0.017
	l0.003,0.002c-0.026,0.004-0.064,0.007-0.108,0.007c-0.053,0-0.097-0.003-0.131-0.007c-0.033-0.006-0.061-0.013-0.078-0.023
	c-0.02-0.009-0.03-0.021-0.036-0.034c-0.007-0.017-0.007-0.034-0.004-0.049l0.054-0.505c-0.074-0.009-0.145-0.022-0.209-0.038
	c-0.068-0.016-0.125-0.032-0.179-0.051c-0.054-0.02-0.101-0.039-0.139-0.058c-0.037-0.02-0.067-0.039-0.087-0.058
	c-0.021-0.019-0.034-0.045-0.044-0.084c-0.01-0.035-0.013-0.09-0.013-0.165c0-0.054,0.004-0.102,0.007-0.139
	c0.004-0.035,0.01-0.065,0.017-0.084c0.01-0.02,0.02-0.033,0.034-0.042c0.013-0.007,0.026-0.009,0.044-0.009
	c0.024,0,0.054,0.013,0.098,0.035c0.044,0.026,0.097,0.052,0.164,0.08c0.067,0.029,0.149,0.059,0.242,0.081
	c0.095,0.026,0.206,0.035,0.334,0.035c0.203,0,0.351-0.035,0.448-0.106c0.099-0.072,0.15-0.168,0.15-0.288
	c0-0.08-0.021-0.145-0.065-0.194c-0.044-0.052-0.098-0.097-0.168-0.136c-0.07-0.039-0.151-0.075-0.239-0.104
	c-0.088-0.033-0.179-0.065-0.273-0.096c-0.09-0.036-0.182-0.074-0.273-0.123c-0.088-0.045-0.168-0.103-0.24-0.171
	c-0.069-0.068-0.124-0.149-0.168-0.246c-0.043-0.098-0.064-0.213-0.064-0.35c0-0.123,0.021-0.236,0.064-0.336
	c0.044-0.103,0.105-0.191,0.186-0.268c0.08-0.078,0.182-0.136,0.3-0.184c0.118-0.048,0.252-0.078,0.4-0.097l0.051-0.498
	c0.003-0.013,0.007-0.026,0.011-0.032c0.007-0.01,0.016-0.016,0.034-0.026c0.016-0.007,0.036-0.013,0.066-0.017
	c0.028-0.003,0.065-0.007,0.108-0.007c0.055,0,0.099,0.004,0.132,0.007c0.034,0.006,0.064,0.013,0.081,0.022
	c0.02,0.01,0.03,0.023,0.037,0.035c0.006,0.016,0.006,0.033,0.006,0.048l-0.05,0.469c0.048,0.006,0.102,0.016,0.151,0.025
	c0.054,0.012,0.105,0.026,0.149,0.042c0.047,0.016,0.087,0.033,0.124,0.052c0.037,0.016,0.064,0.032,0.077,0.048
	c0.013,0.013,0.027,0.029,0.034,0.042c0.007,0.014,0.014,0.033,0.016,0.052c0.004,0.022,0.007,0.045,0.011,0.074
	c0.003,0.029,0.003,0.062,0.003,0.101c0,0.051,0,0.094-0.003,0.125c-0.004,0.032-0.007,0.059-0.013,0.074
	c-0.007,0.016-0.014,0.029-0.025,0.036c-0.009,0.006-0.016,0.01-0.029,0.01c-0.024,0-0.054-0.01-0.098-0.032
	c-0.044-0.023-0.095-0.046-0.158-0.069c-0.065-0.025-0.136-0.048-0.216-0.067c-0.081-0.023-0.171-0.032-0.27-0.032
	c-0.087,0-0.165,0.009-0.229,0.026c-0.064,0.017-0.114,0.039-0.154,0.068c-0.041,0.029-0.068,0.064-0.088,0.107
	c-0.016,0.042-0.026,0.087-0.026,0.136c0,0.077,0.02,0.142,0.063,0.194c0.044,0.052,0.101,0.1,0.172,0.136
	c0.071,0.039,0.152,0.071,0.242,0.103c0.092,0.032,0.182,0.065,0.277,0.1c0.093,0.035,0.185,0.074,0.276,0.12
	c0.09,0.045,0.168,0.103,0.242,0.169c0.071,0.067,0.128,0.148,0.168,0.242c0.044,0.097,0.064,0.21,0.064,0.342
	C149.096,133.399,149.069,133.528,149.02,133.641z"/>
<g>
	<path style="fill:#14CF37;" d="M140.263,129.772h-2.707c-0.401,0-0.556-0.193-0.655-0.381c-0.059-0.131-0.241-0.298-0.418-0.458
		c-0.441-0.401-1.106-1.007-0.566-1.74c0.153-0.208,0.199-0.247,0.408-0.343c0.037-0.017,0.082-0.038,0.14-0.066l0.041-0.016
		c0.348-0.112,0.523-0.1,0.711-0.067c0.109,0.019,0.245,0.043,0.519,0.043c0.204,0,0.457-0.014,0.75-0.041l0.156-0.021
		c0.429-0.057,0.739-0.098,0.943-0.294l0.02-0.018c0.311-0.248,0.697-0.39,1.058-0.39c0.384,0,0.723,0.16,0.954,0.45
		c0.048,0.061,0.078,0.085,0.115,0.114c0.136,0.108,0.21,0.205,0.29,0.491c0.197,0.706-0.278,1.291-0.697,1.807
		c-0.16,0.196-0.31,0.382-0.414,0.56C140.819,129.578,140.665,129.772,140.263,129.772z M137.475,129.187
		c0.003,0,0.026,0.006,0.081,0.006h2.707c0.057,0,0.08-0.007,0.084-0.008c-0.002,0,0.009-0.013,0.029-0.053
		c0.132-0.228,0.305-0.441,0.471-0.646c0.365-0.45,0.71-0.874,0.59-1.303c-0.044-0.156-0.056-0.166-0.093-0.195
		c-0.047-0.038-0.119-0.095-0.208-0.208c-0.118-0.147-0.277-0.222-0.475-0.222c-0.217,0-0.464,0.093-0.664,0.249
		c-0.345,0.323-0.796,0.383-1.274,0.447l-0.167,0.023c-0.332,0.031-0.596,0.045-0.822,0.045c-0.329,0-0.501-0.03-0.627-0.052
		c-0.063-0.011-0.098-0.017-0.132-0.017c-0.037,0-0.101,0.007-0.26,0.057c-0.053,0.026-0.097,0.046-0.132,0.062
		c-0.037,0.017-0.079,0.037-0.088,0.043c-0.013,0.011-0.059,0.074-0.087,0.112c-0.204,0.276-0.049,0.498,0.488,0.987
		c0.232,0.211,0.45,0.409,0.55,0.635C137.461,129.173,137.472,129.185,137.475,129.187L137.475,129.187z"/>
</g>
<g>
	<path style="fill:#14CF37;" d="M140.571,130.885h-3.169c-0.464,0-0.763-0.23-0.763-0.586c0-0.419,0.328-0.736,0.763-0.736h3.169
		c0.383,0,0.664,0.256,0.686,0.616c0.04,0.155,0.009,0.309-0.087,0.437C141.044,130.782,140.815,130.885,140.571,130.885z
		 M137.242,130.283c0.025,0.01,0.076,0.024,0.16,0.024h3.169c0.04,0,0.071-0.009,0.091-0.018l-0.006-0.017v-0.048
		c0-0.063-0.019-0.082-0.085-0.082h-3.169C137.332,130.142,137.249,130.166,137.242,130.283z"/>
</g>
<path style="fill:#14CF37;" d="M145.508,139.657c-0.003-0.107-0.007-0.214-0.013-0.32c-0.004-0.07-0.01-0.139-0.015-0.208
	c-0.008-0.101-0.017-0.202-0.029-0.302c-0.008-0.069-0.016-0.139-0.025-0.208c-0.013-0.099-0.029-0.197-0.045-0.295
	c-0.011-0.067-0.022-0.134-0.034-0.2c-0.019-0.101-0.041-0.201-0.063-0.301c-0.013-0.061-0.026-0.122-0.041-0.183
	c-0.029-0.119-0.062-0.236-0.096-0.354c-0.011-0.039-0.021-0.08-0.033-0.119c-0.001-0.002-0.001-0.005-0.002-0.007c0,0,0,0,0,0
	c-0.451-1.478-1.281-2.811-2.502-4.026c-0.079-0.076-0.159-0.152-0.24-0.228l-0.08-0.076c-0.082-0.09-0.165-0.181-0.248-0.272
	c-0.069-0.076-0.138-0.154-0.207-0.231c-0.049-0.055-0.098-0.111-0.147-0.166c-0.056-0.064-0.112-0.129-0.168-0.194
	c-0.063-0.074-0.124-0.148-0.185-0.223c-0.041-0.051-0.084-0.101-0.124-0.152c-0.101-0.128-0.2-0.258-0.292-0.389
	c-0.115-0.287-0.34-0.359-0.51-0.377c-0.057-0.006-0.107-0.006-0.145-0.006h-2.662c-0.038,0-0.088,0-0.145,0.006
	c-0.17,0.018-0.395,0.09-0.51,0.377c-0.092,0.131-0.191,0.261-0.292,0.389c-0.04,0.051-0.083,0.102-0.124,0.152
	c-0.061,0.074-0.122,0.149-0.185,0.223c-0.056,0.065-0.112,0.13-0.168,0.194c-0.049,0.056-0.098,0.111-0.147,0.166
	c-0.069,0.077-0.138,0.155-0.207,0.231c-0.083,0.091-0.165,0.182-0.248,0.272l-0.08,0.076c-0.081,0.076-0.161,0.152-0.24,0.228
	c-1.221,1.215-2.051,2.548-2.502,4.026c0,0,0,0,0,0c-0.001,0.002-0.001,0.005-0.002,0.007c-0.012,0.039-0.022,0.079-0.033,0.119
	c-0.034,0.117-0.067,0.235-0.096,0.354c-0.015,0.061-0.027,0.122-0.041,0.183c-0.022,0.1-0.044,0.2-0.063,0.301
	c-0.013,0.066-0.023,0.133-0.034,0.2c-0.016,0.098-0.032,0.196-0.045,0.295c-0.009,0.069-0.017,0.138-0.025,0.208
	c-0.011,0.1-0.021,0.2-0.029,0.302c-0.005,0.069-0.011,0.138-0.015,0.208c-0.006,0.106-0.01,0.213-0.013,0.32
	c-0.002,0.066-0.005,0.131-0.005,0.197c-0.001,0.121,0.001,0.243,0.003,0.365c0.001,0.055,0.001,0.108,0.003,0.163
	c0.006,0.178,0.016,0.357,0.031,0.538c0,0.001,0,0.001,0,0.002c0.001,0.016,0.005,0.029,0.006,0.044
	c0.011,0.129,0.026,0.255,0.049,0.372c0.104,0.525,0.331,0.931,0.685,1.223c0.002,0.002,0.003,0.004,0.005,0.005
	c0.048,0.039,0.104,0.071,0.156,0.106c0.241,0.161,0.525,0.284,0.865,0.359c0.231,0.066,0.466,0.126,0.702,0.181
	c0.079,0.018,0.157,0.038,0.236,0.055v0.039l0.062,0.011l0.185,0.033c0.213,0.037,0.43,0.07,0.65,0.1
	c0.595,0.081,1.218,0.133,1.875,0.161c0.15,0.006,0.297,0.014,0.451,0.018h0l0.025,0c0.075,0.002,0.151,0.003,0.226,0.004
	c0.046,0,0.092,0.001,0.139,0.001c0.053,0.001,0.107,0.001,0.161,0.001l0.052,0.001h0.012h0.012l0.052-0.001
	c0.054,0,0.107-0.001,0.161-0.001c0.046,0,0.093-0.001,0.139-0.001c0.076-0.001,0.151-0.003,0.226-0.004l0.025,0h0
	c0.154-0.004,0.301-0.012,0.451-0.018c0.657-0.028,1.28-0.079,1.875-0.161c0.219-0.03,0.436-0.063,0.65-0.1l0.185-0.033l0.062-0.011
	v-0.039c0.079-0.017,0.157-0.037,0.236-0.055c0.236-0.055,0.471-0.114,0.701-0.181c0.34-0.075,0.624-0.198,0.866-0.359
	c0.052-0.035,0.109-0.067,0.156-0.106c0.002-0.002,0.004-0.004,0.005-0.005c0.354-0.292,0.581-0.698,0.685-1.223
	c0.023-0.117,0.038-0.243,0.049-0.372c0.001-0.016,0.005-0.029,0.006-0.044c0-0.001,0-0.001,0-0.002
	c0.015-0.181,0.025-0.361,0.031-0.538c0.002-0.055,0.002-0.109,0.003-0.163c0.003-0.122,0.004-0.244,0.003-0.365
	C145.512,139.788,145.51,139.723,145.508,139.657z M139.426,141.16v1.247h-1.358v-1.162c-0.928-0.036-1.828-0.257-2.354-0.525
	l0.415-1.43c0.582,0.281,1.399,0.537,2.299,0.537c0.789,0,1.329-0.268,1.329-0.758c0-0.465-0.442-0.758-1.467-1.064
	c-1.482-0.44-2.494-1.052-2.494-2.238c0-1.076,0.858-1.92,2.34-2.177v-1.162h1.357v1.076c0.928,0.037,1.551,0.208,2.009,0.404
	l-0.402,1.382c-0.359-0.134-0.997-0.416-1.994-0.416c-0.9,0-1.191,0.343-1.191,0.686c0,0.403,0.484,0.66,1.662,1.051
	c1.648,0.513,2.313,1.186,2.313,2.287C141.89,139.985,141.018,140.915,139.426,141.16z"/>
<g>
	<path style="fill:none;stroke:#2E5788;stroke-width:0.5;stroke-miterlimit:10;" d="M133.817,154.427h0.956l7.913,2.506
		c0.245,0.126,1.242,0.552,2.283-0.027l0.012-0.005l10.845-5.785c0.04-0.021,0.074-0.048,0.102-0.076l0,0
		c0-0.007,0.969-0.94,0.376-2l0,0c0-0.005-0.649-1.327-1.902-0.994c-3.148,0.836-5.18,2.573-7.054,3.021
		c-2.443,0.421-4.15,0.273-6.45-0.661c0.694-0.065,1.81-0.005,2.949,0.044c0.347,0.016,0.7,0.027,1.047,0.038
		c3.462,0.087,3.62-1,2.887-1.792c-0.711-0.765-1.326-0.782-2.232-0.782h-3.467c-0.552-0.24-3.392-1.453-4.924-1.715
		c-0.005,0-0.011,0-0.017,0c-0.684-0.115-1.532-0.153-2.3-0.153c-0.37,0-0.723,0.006-1.025,0.017v8.373V154.427L133.817,154.427z"/>
	<path style="fill:none;stroke:#2E5788;stroke-width:0.5;stroke-miterlimit:10;" d="M132.342,144.114h-3.968
		c-0.278,0-0.529,0.11-0.716,0.284l0,0l0,0l0,0l0,0c-0.183,0.18-0.303,0.421-0.303,0.688v10.274c0,0.269,0.115,0.508,0.297,0.689
		l0,0l0,0l0,0l0,0c0.187,0.174,0.438,0.29,0.717,0.29h3.969c0.261,0,0.506-0.099,0.687-0.257c0.012-0.011,0.023-0.022,0.035-0.027
		c0.182-0.175,0.302-0.42,0.302-0.694v-10.274c0-0.267-0.115-0.513-0.302-0.693l0,0c-0.188-0.18-0.438-0.29-0.718-0.29
		C132.342,144.103,132.342,144.114,132.342,144.114z"/>
</g>
</svg>
