<?xml version="1.0" encoding="iso-8859-1"?>
<!-- Generator: Adobe Illustrator 17.0.0, SVG Export Plug-In . SVG Version: 6.00 Build 0)  -->
<!DOCTYPE svg PUBLIC "-//W3C//DTD SVG 1.1//EN" "http://www.w3.org/Graphics/SVG/1.1/DTD/svg11.dtd">
<svg version="1.1" id="Layer_1" xmlns="http://www.w3.org/2000/svg" xmlns:xlink="http://www.w3.org/1999/xlink" x="0px" y="0px"
	 width="32px" height="32px" viewBox="125.73 125.73 32 32" style="enable-background:new 125.73 125.73 32 32;"
	 xml:space="preserve">
<path style="fill:#27CD2F;" d="M151.01,131.696c-3.712,0-6.72,3.018-6.72,6.742c0,3.723,3.008,6.741,6.72,6.741
	c3.711,0,6.72-3.018,6.72-6.741C157.73,134.714,154.721,131.696,151.01,131.696z M154.841,135.472
	c-3.885,6.788-3.944,6.844-3.976,6.873c-0.142,0.133-0.327,0.207-0.521,0.207c-0.21,0-0.413-0.088-0.557-0.242l-2.495-2.308
	c-0.298-0.32-0.283-0.805,0.024-1.094c0.294-0.278,0.8-0.26,1.078,0.035l1.753,1.621l3.371-5.859
	c0.135-0.236,0.389-0.383,0.662-0.383c0.133,0,0.265,0.036,0.381,0.103C154.925,134.637,155.051,135.106,154.841,135.472z"/>
<g>
	<g>
		<path style="fill:#2E5788;" d="M142.389,138.437c0-2.264,0.867-4.324,2.286-5.865c-1.953-1.369-4.329-2.176-6.894-2.176
			c-3.327,0-6.342,1.356-8.52,3.542c-2.18,2.184-3.53,5.209-3.53,8.548c0,3.34,1.351,6.365,3.53,8.55
			c2.178,2.184,5.194,3.54,8.52,3.54c3.33,0,6.346-1.356,8.523-3.54c1.174-1.178,2.105-2.602,2.717-4.185
			C145.218,145.951,142.389,142.527,142.389,138.437z M140.849,146.552c-0.213,0.465-0.502,0.875-0.873,1.204
			c-0.378,0.344-0.83,0.609-1.356,0.806c-0.525,0.2-1.121,0.332-1.765,0.383l-0.213,2.17c-0.012,0.053-0.026,0.105-0.039,0.146
			c-0.025,0.039-0.065,0.079-0.133,0.105c-0.063,0.025-0.142,0.051-0.263,0.066l0.012,0.012c-0.102,0.015-0.25,0.026-0.421,0.026
			c-0.209,0-0.382-0.012-0.513-0.026c-0.13-0.026-0.239-0.053-0.305-0.092c-0.077-0.039-0.117-0.091-0.143-0.143
			c-0.027-0.068-0.027-0.135-0.012-0.2l0.209-2.064c-0.289-0.038-0.566-0.091-0.816-0.157c-0.264-0.067-0.489-0.13-0.698-0.212
			c-0.212-0.078-0.397-0.157-0.542-0.236c-0.144-0.081-0.263-0.161-0.341-0.239c-0.081-0.079-0.133-0.184-0.173-0.344
			c-0.038-0.145-0.052-0.37-0.052-0.674c0-0.224,0.013-0.421,0.025-0.569c0.014-0.144,0.039-0.264,0.067-0.344
			c0.039-0.08,0.08-0.132,0.132-0.173c0.05-0.025,0.104-0.037,0.173-0.037c0.09,0,0.209,0.053,0.382,0.145
			c0.17,0.106,0.382,0.214,0.644,0.329c0.263,0.12,0.581,0.239,0.947,0.332c0.372,0.105,0.807,0.144,1.306,0.144
			c0.793,0,1.37-0.144,1.752-0.434c0.385-0.293,0.582-0.688,0.582-1.178c0-0.331-0.081-0.595-0.252-0.794
			c-0.172-0.213-0.382-0.396-0.658-0.554c-0.277-0.159-0.592-0.306-0.935-0.424c-0.344-0.133-0.701-0.265-1.069-0.395
			c-0.353-0.148-0.709-0.305-1.066-0.504c-0.343-0.184-0.659-0.422-0.938-0.7c-0.272-0.278-0.486-0.608-0.658-1.004
			c-0.171-0.399-0.25-0.873-0.25-1.429c0-0.502,0.08-0.966,0.25-1.375c0.172-0.423,0.409-0.781,0.727-1.099
			c0.315-0.317,0.711-0.554,1.173-0.751c0.46-0.199,0.988-0.319,1.567-0.397l0.198-2.038c0.013-0.053,0.026-0.104,0.041-0.132
			c0.026-0.039,0.064-0.065,0.132-0.104c0.063-0.026,0.142-0.052,0.262-0.067c0.108-0.012,0.253-0.027,0.421-0.027
			c0.214,0,0.385,0.015,0.515,0.027c0.133,0.025,0.251,0.052,0.317,0.093c0.078,0.038,0.116,0.092,0.143,0.143
			c0.026,0.066,0.026,0.134,0.026,0.199l-0.197,1.918c0.185,0.026,0.397,0.066,0.592,0.104c0.214,0.052,0.411,0.108,0.582,0.173
			c0.185,0.066,0.341,0.134,0.488,0.211c0.143,0.066,0.251,0.132,0.304,0.198c0.052,0.054,0.104,0.12,0.13,0.172
			c0.028,0.055,0.055,0.133,0.067,0.212c0.014,0.091,0.025,0.184,0.039,0.304c0.012,0.119,0.012,0.251,0.012,0.41
			c0,0.211,0,0.384-0.012,0.514c-0.014,0.133-0.026,0.239-0.051,0.305c-0.027,0.066-0.055,0.118-0.095,0.145
			c-0.038,0.027-0.064,0.041-0.116,0.041c-0.093,0-0.214-0.041-0.384-0.132c-0.173-0.094-0.37-0.186-0.618-0.279
			c-0.251-0.105-0.529-0.199-0.845-0.278c-0.318-0.092-0.672-0.131-1.055-0.131c-0.341,0-0.645,0.039-0.895,0.105
			c-0.251,0.067-0.449,0.16-0.606,0.278c-0.16,0.118-0.266,0.263-0.343,0.437c-0.065,0.173-0.104,0.357-0.104,0.555
			c0,0.317,0.077,0.582,0.248,0.793c0.174,0.211,0.396,0.408,0.674,0.555c0.279,0.159,0.594,0.292,0.949,0.423
			c0.356,0.132,0.71,0.263,1.081,0.411c0.367,0.144,0.724,0.304,1.081,0.489c0.355,0.184,0.657,0.422,0.947,0.689
			c0.278,0.275,0.502,0.606,0.659,0.989c0.17,0.396,0.251,0.86,0.251,1.399C141.151,145.562,141.044,146.089,140.849,146.552z"/>
	</g>
</g>
</svg>
