<?xml version="1.0" encoding="iso-8859-1"?>
<!-- Generator: Adobe Illustrator 17.0.0, SVG Export Plug-In . SVG Version: 6.00 Build 0)  -->
<!DOCTYPE svg PUBLIC "-//W3C//DTD SVG 1.1//EN" "http://www.w3.org/Graphics/SVG/1.1/DTD/svg11.dtd">
<svg version="1.1" id="Layer_1" xmlns="http://www.w3.org/2000/svg" xmlns:xlink="http://www.w3.org/1999/xlink" x="0px" y="0px"
	 width="32px" height="32px" viewBox="125.73 125.73 32 32" style="enable-background:new 125.73 125.73 32 32;"
	 xml:space="preserve">
<g>
	<g>
		<path style="fill:#305889;" d="M150.726,139.049c-0.155,0-0.299-0.08-0.381-0.211c-0.09-0.143-0.585-0.975-0.733-1.298
			l-1.012-0.419c-0.349,0.13-1.313,0.372-1.436,0.4c-0.013,0.003-0.027,0.002-0.04,0.004v0.087h-15.366v-0.842h14.357l-0.025-0.025
			c-0.109-0.109-0.155-0.267-0.121-0.418c0.033-0.143,0.221-0.886,0.35-1.291h-14.562v-0.842h14.323l-0.131-0.315
			c-0.338-0.155-1.189-0.665-1.299-0.733c-0.131-0.082-0.21-0.226-0.21-0.381v-0.305h-12.684v-0.842h12.741
			c0.036-0.065,0.088-0.121,0.153-0.161c0.144-0.09,0.975-0.585,1.299-0.733l0.348-0.84h-14.541v-0.842h14.41
			c-0.095-0.349-0.182-0.696-0.198-0.767c-0.034-0.151,0.011-0.309,0.12-0.418l0.656-0.656c0.11-0.109,0.267-0.155,0.418-0.12
			c0.163,0.037,1.102,0.275,1.436,0.4l1.012-0.419c0.074-0.163,0.231-0.443,0.38-0.703c-0.025-0.001-0.05-0.004-0.075-0.004h-20.954
			c-0.762,0-1.397,0.622-1.397,1.388v26.14l3.492,3.493l2.794-2.794l2.794,2.794l0.988-0.988l1.806-1.806l1.806,1.806l0.988,0.988
			l0.988-0.988l1.806-1.806l1.806,1.806l0.988,0.988l3.492-3.493v-14.834H150.726z M140.15,150.502h-8.393v-1.045h8.393V150.502z
			 M140.15,147.306h-8.393v-1.045h8.393V147.306z M140.15,144.109h-8.393v-1.045h8.393V144.109z M140.15,140.913h-8.393v-1.045
			h8.393V140.913z M147.441,148.908c-0.341,0.722-0.987,1.133-1.71,1.308v1.237h-1.397v-1.169c-0.576-0.073-1.111-0.263-1.494-0.535
			l-0.57-0.404l0.808-1.14l0.57,0.404c0.565,0.401,2.177,0.446,2.529-0.299c0.288-0.607,0.035-0.983-0.88-1.46
			c-0.184-0.096-0.123-0.068-0.698-0.332c-0.598-0.276-0.547-0.252-0.763-0.365c-1.484-0.777-2.182-1.819-1.486-3.291
			c0.384-0.812,1.152-1.23,1.983-1.362v-1.222h1.397v1.252c0.47,0.092,0.899,0.263,1.221,0.491l0.57,0.404l-0.808,1.14l-0.57-0.404
			c-0.566-0.401-2.177-0.446-2.53,0.299c-0.287,0.606-0.036,0.981,0.871,1.455c0.184,0.097,0.136,0.074,0.7,0.333
			c0.609,0.281,0.545,0.251,0.76,0.363C147.438,146.392,148.14,147.432,147.441,148.908z"/>
	</g>
</g>
<path style="fill:#087EF4;" d="M155.99,131.689c-0.078-0.05-0.696-0.419-0.941-0.531l-0.304-0.733
	c0.091-0.243,0.263-0.923,0.29-1.041c0.025-0.109-0.008-0.224-0.087-0.303l-0.475-0.475c-0.079-0.079-0.194-0.112-0.303-0.087
	c-0.089,0.021-0.788,0.195-1.041,0.29l-0.734-0.304c-0.107-0.235-0.466-0.837-0.531-0.941c-0.06-0.095-0.164-0.153-0.276-0.153
	h-0.672c-0.112,0-0.216,0.058-0.276,0.153c-0.049,0.079-0.419,0.696-0.531,0.941l-0.734,0.304c-0.242-0.09-0.923-0.263-1.041-0.29
	c-0.109-0.025-0.224,0.008-0.303,0.087l-0.475,0.475c-0.079,0.079-0.112,0.194-0.087,0.303c0.021,0.09,0.196,0.788,0.29,1.041
	l-0.304,0.733c-0.235,0.108-0.837,0.466-0.941,0.531c-0.095,0.06-0.152,0.164-0.152,0.276v0.672c0,0.112,0.058,0.217,0.152,0.276
	c0.079,0.049,0.696,0.419,0.941,0.531l0.304,0.734c-0.09,0.242-0.263,0.923-0.29,1.041c-0.025,0.11,0.008,0.224,0.087,0.303
	l0.475,0.475c0.079,0.079,0.194,0.112,0.303,0.087c0.089-0.021,0.788-0.195,1.041-0.29l0.734,0.304
	c0.107,0.235,0.466,0.837,0.531,0.941c0.06,0.095,0.164,0.153,0.276,0.153h0.672c0.112,0,0.217-0.058,0.276-0.153
	c0.049-0.079,0.419-0.696,0.531-0.941l0.734-0.304c0.243,0.09,0.923,0.263,1.041,0.29c0.109,0.025,0.224-0.008,0.303-0.087
	l0.475-0.475c0.079-0.079,0.112-0.194,0.087-0.303c-0.021-0.089-0.195-0.788-0.29-1.041l0.304-0.734
	c0.234-0.107,0.837-0.466,0.941-0.531c0.095-0.06,0.153-0.164,0.153-0.276v-0.672C156.143,131.853,156.085,131.748,155.99,131.689z
	 M151.252,133.939c-0.905,0-1.638-0.733-1.638-1.638c0-0.905,0.734-1.639,1.638-1.639c0.905,0,1.639,0.734,1.639,1.639
	C152.89,133.206,152.157,133.939,151.252,133.939z"/>
</svg>
