<?xml version="1.0" encoding="iso-8859-1"?>
<!-- Generator: Adobe Illustrator 17.0.0, SVG Export Plug-In . SVG Version: 6.00 Build 0)  -->
<!DOCTYPE svg PUBLIC "-//W3C//DTD SVG 1.1//EN" "http://www.w3.org/Graphics/SVG/1.1/DTD/svg11.dtd">
<svg version="1.1" id="Layer_1" xmlns="http://www.w3.org/2000/svg" xmlns:xlink="http://www.w3.org/1999/xlink" x="0px" y="0px"
	 width="32px" height="32px" viewBox="125.73 125.73 32 32" style="enable-background:new 125.73 125.73 32 32;"
	 xml:space="preserve">
<g>
	<g>
		<path style="fill:#2E5788;" d="M148.045,135.38c-1.569-1.57-3.742-2.544-6.142-2.544c-2.397,0-4.57,0.974-6.14,2.544
			c-1.571,1.57-2.544,3.743-2.544,6.141c0,2.399,0.973,4.573,2.544,6.141c1.57,1.57,3.743,2.543,6.14,2.543
			c2.399,0,4.572-0.973,6.142-2.543c1.569-1.568,2.543-3.742,2.543-6.141C150.587,139.123,149.614,136.95,148.045,135.38z
			 M145.013,144.526c-0.159,0.343-0.372,0.647-0.647,0.89c-0.282,0.254-0.615,0.449-1.006,0.595
			c-0.389,0.148-0.832,0.246-1.308,0.283l-0.159,1.605c-0.008,0.04-0.019,0.076-0.028,0.109c-0.018,0.026-0.049,0.058-0.099,0.076
			c-0.045,0.018-0.105,0.039-0.194,0.05l0.009,0.007c-0.076,0.012-0.186,0.02-0.313,0.02c-0.154,0-0.283-0.008-0.38-0.02
			c-0.096-0.018-0.178-0.039-0.225-0.069c-0.057-0.026-0.087-0.064-0.106-0.103c-0.02-0.05-0.02-0.101-0.01-0.149l0.155-1.526
			c-0.214-0.029-0.42-0.067-0.605-0.116c-0.196-0.048-0.363-0.096-0.519-0.156c-0.157-0.059-0.294-0.117-0.402-0.176
			c-0.107-0.06-0.195-0.118-0.253-0.177c-0.059-0.057-0.097-0.137-0.128-0.254c-0.028-0.107-0.039-0.274-0.039-0.5
			c0-0.165,0.01-0.31,0.019-0.418c0.01-0.107,0.029-0.196,0.049-0.254c0.029-0.061,0.058-0.099,0.097-0.129
			c0.038-0.02,0.077-0.027,0.128-0.027c0.068,0,0.155,0.038,0.283,0.107c0.127,0.077,0.283,0.157,0.478,0.243
			c0.195,0.089,0.431,0.177,0.702,0.245c0.277,0.08,0.598,0.107,0.968,0.107c0.588,0,1.017-0.107,1.299-0.321
			c0.286-0.217,0.432-0.508,0.432-0.872c0-0.242-0.06-0.437-0.188-0.586c-0.127-0.156-0.284-0.293-0.488-0.41
			c-0.204-0.117-0.438-0.225-0.692-0.313c-0.256-0.099-0.52-0.195-0.793-0.292c-0.261-0.109-0.526-0.225-0.792-0.372
			c-0.254-0.137-0.487-0.311-0.694-0.516c-0.201-0.206-0.36-0.451-0.488-0.743c-0.126-0.295-0.186-0.645-0.186-1.056
			c0-0.372,0.06-0.713,0.186-1.016c0.128-0.312,0.304-0.576,0.539-0.812c0.233-0.235,0.528-0.41,0.87-0.556
			c0.342-0.147,0.732-0.235,1.161-0.293l0.147-1.506c0.009-0.039,0.02-0.078,0.031-0.097c0.02-0.029,0.047-0.049,0.098-0.077
			c0.047-0.019,0.104-0.039,0.193-0.05c0.081-0.009,0.187-0.02,0.312-0.02c0.159,0,0.286,0.012,0.383,0.02
			c0.098,0.019,0.186,0.039,0.234,0.068c0.059,0.03,0.086,0.068,0.107,0.107c0.018,0.049,0.018,0.1,0.018,0.147l-0.145,1.419
			c0.138,0.018,0.295,0.048,0.439,0.076c0.158,0.037,0.305,0.079,0.432,0.127c0.137,0.048,0.253,0.098,0.362,0.156
			c0.107,0.049,0.186,0.097,0.225,0.146c0.039,0.04,0.077,0.089,0.097,0.127c0.02,0.041,0.04,0.099,0.048,0.158
			c0.011,0.067,0.02,0.135,0.031,0.224c0.008,0.087,0.008,0.186,0.008,0.304c0,0.155,0,0.284-0.008,0.379
			c-0.011,0.097-0.019,0.177-0.039,0.224c-0.021,0.049-0.04,0.088-0.072,0.108c-0.027,0.019-0.047,0.03-0.085,0.03
			c-0.069,0-0.158-0.03-0.285-0.097c-0.127-0.07-0.274-0.138-0.458-0.208c-0.187-0.076-0.393-0.146-0.627-0.203
			c-0.236-0.069-0.497-0.097-0.782-0.097c-0.253,0-0.477,0.028-0.664,0.077c-0.185,0.05-0.332,0.118-0.449,0.205
			c-0.118,0.087-0.197,0.194-0.254,0.323c-0.048,0.126-0.077,0.264-0.077,0.41c0,0.234,0.057,0.43,0.184,0.585
			c0.128,0.157,0.292,0.302,0.499,0.411c0.206,0.117,0.44,0.216,0.703,0.312c0.264,0.098,0.527,0.195,0.803,0.304
			c0.271,0.107,0.535,0.224,0.801,0.362c0.263,0.137,0.487,0.312,0.702,0.51c0.206,0.203,0.372,0.447,0.488,0.731
			c0.127,0.293,0.186,0.634,0.186,1.034C145.235,143.795,145.157,144.183,145.013,144.526z"/>
	</g>
</g>
<path style="fill:#087EF4;" d="M130.658,149.405c2.305,3.266,5.396,5.329,9.348,5.897c6.696,0.961,12.849-2.839,15.098-9.195
	c0.274-0.773,0.698-1.061,1.286-0.871c0.595,0.193,0.808,0.75,0.515,1.539c-1.956,5.257-5.638,8.69-11.056,10.113
	c-6.205,1.629-12.906-0.769-16.884-6.522c-0.66,0.403-1.324,0.817-1.997,1.217c-0.631,0.375-0.894,0.24-0.899-0.512
	c-0.016-2.092-0.013-4.184,0.004-6.276c0.006-0.767,0.289-0.946,0.967-0.621c1.883,0.903,3.761,1.818,5.631,2.748
	c0.718,0.357,0.719,0.634,0.046,1.073c-0.647,0.422-1.303,0.831-1.955,1.247C130.743,149.252,130.735,149.282,130.658,149.405z"/>
<path style="fill:#087EF4;" d="M154.519,132.989c0.658-0.408,1.324-0.84,2.01-1.24c0.596-0.348,0.862-0.197,0.865,0.492
	c0.009,2.118,0.01,4.237-0.004,6.355c-0.005,0.704-0.299,0.893-0.934,0.589c-1.931-0.924-3.856-1.864-5.774-2.817
	c-0.572-0.285-0.581-0.601-0.049-0.948c0.689-0.449,1.396-0.872,2.154-1.343c-0.83-1.369-1.916-2.448-3.16-3.366
	c-7.535-5.563-18.15-2.254-21.242,6.612c-0.273,0.782-0.695,1.072-1.292,0.887c-0.604-0.187-0.82-0.736-0.523-1.536
	c2.081-5.6,6.048-9.166,11.891-10.276c6.378-1.211,11.613,0.986,15.608,6.111c0.095,0.122,0.185,0.248,0.284,0.367
	C154.384,132.914,154.435,132.934,154.519,132.989z"/>
</svg>
