<?xml version="1.0" encoding="iso-8859-1"?>
<!-- Generator: Adobe Illustrator 17.0.0, SVG Export Plug-In . SVG Version: 6.00 Build 0)  -->
<!DOCTYPE svg PUBLIC "-//W3C//DTD SVG 1.1//EN" "http://www.w3.org/Graphics/SVG/1.1/DTD/svg11.dtd">
<svg version="1.1" id="Layer_1" xmlns="http://www.w3.org/2000/svg" xmlns:xlink="http://www.w3.org/1999/xlink" x="0px" y="0px"
	 width="32px" height="32px" viewBox="125.73 125.73 32 32" style="enable-background:new 125.73 125.73 32 32;"
	 xml:space="preserve">
<g>
	<g>
		<g>
			<path style="fill:#2E5788;" d="M155.465,133.418c-1.195-1.196-2.851-1.937-4.678-1.937c-1.825,0-3.48,0.742-4.676,1.937
				c-1.196,1.195-1.937,2.85-1.937,4.677c0,1.827,0.741,3.483,1.937,4.677c1.195,1.196,2.85,1.937,4.676,1.937
				c1.827,0,3.482-0.741,4.678-1.937c1.195-1.194,1.936-2.85,1.936-4.677C157.401,136.268,156.66,134.613,155.465,133.418z
				 M152.893,139.98c-0.1,0.215-0.234,0.406-0.406,0.559c-0.177,0.159-0.386,0.282-0.632,0.373
				c-0.244,0.093-0.523,0.155-0.821,0.178l-0.1,1.007c-0.005,0.025-0.012,0.048-0.018,0.068c-0.012,0.016-0.031,0.036-0.062,0.048
				c-0.029,0.011-0.066,0.024-0.121,0.031l0.005,0.004c-0.047,0.008-0.117,0.013-0.197,0.013c-0.097,0-0.177-0.005-0.238-0.013
				c-0.06-0.011-0.112-0.024-0.141-0.043c-0.035-0.017-0.055-0.04-0.067-0.065c-0.012-0.031-0.012-0.063-0.006-0.093l0.098-0.958
				c-0.135-0.018-0.263-0.042-0.38-0.073c-0.123-0.03-0.228-0.06-0.326-0.098c-0.099-0.037-0.185-0.073-0.252-0.11
				c-0.067-0.038-0.122-0.074-0.159-0.111c-0.037-0.036-0.061-0.086-0.08-0.159c-0.018-0.067-0.024-0.172-0.024-0.314
				c0-0.103,0.007-0.194,0.012-0.263c0.006-0.067,0.018-0.123,0.031-0.16c0.018-0.038,0.037-0.062,0.061-0.081
				c0.024-0.012,0.048-0.017,0.08-0.017c0.042,0,0.097,0.024,0.178,0.067c0.079,0.048,0.178,0.099,0.299,0.152
				c0.122,0.056,0.271,0.111,0.441,0.154c0.174,0.05,0.376,0.067,0.608,0.067c0.369,0,0.638-0.067,0.815-0.201
				c0.18-0.136,0.272-0.319,0.272-0.547c0-0.152-0.038-0.275-0.118-0.368c-0.08-0.098-0.178-0.184-0.306-0.257
				c-0.128-0.073-0.275-0.142-0.435-0.197c-0.16-0.062-0.326-0.123-0.498-0.183c-0.164-0.068-0.33-0.141-0.497-0.234
				c-0.16-0.086-0.306-0.195-0.436-0.324c-0.126-0.13-0.226-0.283-0.306-0.466c-0.079-0.185-0.116-0.405-0.116-0.663
				c0-0.233,0.037-0.447,0.116-0.638c0.08-0.196,0.19-0.362,0.338-0.509c0.146-0.148,0.331-0.257,0.546-0.349
				c0.214-0.092,0.459-0.147,0.729-0.184l0.092-0.945c0.006-0.024,0.012-0.049,0.019-0.061c0.012-0.018,0.03-0.031,0.061-0.048
				c0.029-0.012,0.066-0.024,0.122-0.031c0.051-0.005,0.117-0.013,0.195-0.013c0.1,0,0.179,0.007,0.241,0.013
				c0.062,0.012,0.116,0.024,0.147,0.043c0.037,0.019,0.054,0.043,0.067,0.067c0.011,0.031,0.011,0.063,0.011,0.092l-0.091,0.891
				c0.087,0.011,0.185,0.03,0.276,0.048c0.099,0.023,0.191,0.05,0.271,0.08c0.086,0.03,0.159,0.062,0.227,0.098
				c0.067,0.031,0.116,0.061,0.141,0.092c0.024,0.025,0.048,0.056,0.061,0.08c0.012,0.026,0.026,0.062,0.03,0.099
				c0.007,0.042,0.012,0.085,0.019,0.14c0.005,0.055,0.005,0.117,0.005,0.191c0,0.097,0,0.178-0.005,0.238
				c-0.007,0.061-0.012,0.111-0.024,0.141c-0.013,0.031-0.026,0.055-0.045,0.068c-0.017,0.012-0.03,0.019-0.053,0.019
				c-0.044,0-0.099-0.019-0.179-0.061c-0.08-0.044-0.172-0.087-0.287-0.13c-0.117-0.048-0.247-0.092-0.393-0.127
				c-0.148-0.044-0.313-0.061-0.491-0.061c-0.159,0-0.3,0.018-0.417,0.048c-0.116,0.031-0.209,0.074-0.282,0.129
				c-0.074,0.055-0.123,0.122-0.159,0.203c-0.03,0.079-0.048,0.165-0.048,0.257c0,0.147,0.036,0.27,0.115,0.368
				c0.08,0.099,0.183,0.189,0.313,0.258c0.13,0.074,0.277,0.135,0.442,0.196c0.166,0.062,0.33,0.123,0.504,0.19
				c0.17,0.067,0.336,0.141,0.503,0.227c0.165,0.086,0.306,0.195,0.441,0.32c0.129,0.127,0.233,0.281,0.306,0.459
				c0.08,0.184,0.117,0.398,0.117,0.649C153.032,139.521,152.983,139.765,152.893,139.98z"/>
		</g>
	</g>
	<g>
		<g>
			<path style="fill:#2E5788;" d="M150.787,146.183c-2.232,0-4.256-0.907-5.719-2.369c-1.463-1.461-2.369-3.486-2.369-5.72
				c0-2.233,0.906-4.257,2.369-5.719c0.172-0.172,0.353-0.336,0.54-0.492c-1.963-1.258-4.297-1.991-6.803-1.991
				c-3.486,0-6.646,1.416-8.928,3.7c-2.284,2.282-3.699,5.44-3.699,8.928c0,3.488,1.415,6.649,3.699,8.932
				c2.282,2.281,5.442,3.697,8.928,3.697c3.489,0,6.649-1.416,8.93-3.697c1.449-1.449,2.548-3.254,3.157-5.27
				C150.857,146.18,150.822,146.183,150.787,146.183z M141.467,146.065c-0.187,0.405-0.44,0.764-0.764,1.051
				c-0.332,0.299-0.726,0.531-1.188,0.703c-0.459,0.175-0.982,0.289-1.544,0.333l-0.187,1.893c-0.01,0.047-0.022,0.092-0.034,0.128
				c-0.021,0.033-0.057,0.068-0.116,0.091c-0.054,0.022-0.124,0.045-0.229,0.058l0.011,0.01c-0.089,0.013-0.219,0.023-0.369,0.023
				c-0.183,0-0.334-0.01-0.449-0.023c-0.114-0.022-0.209-0.046-0.265-0.081c-0.068-0.033-0.103-0.078-0.125-0.123
				c-0.024-0.059-0.024-0.118-0.011-0.175l0.183-1.802c-0.252-0.033-0.495-0.079-0.714-0.137c-0.231-0.058-0.428-0.114-0.611-0.185
				c-0.186-0.069-0.347-0.137-0.474-0.206c-0.126-0.071-0.231-0.141-0.299-0.208c-0.07-0.068-0.115-0.161-0.151-0.299
				c-0.034-0.128-0.045-0.324-0.045-0.589c0-0.195,0.012-0.367,0.022-0.496c0.012-0.126,0.034-0.23,0.059-0.299
				c0.035-0.071,0.069-0.115,0.115-0.151c0.045-0.022,0.091-0.033,0.151-0.033c0.08,0,0.183,0.045,0.334,0.126
				c0.149,0.092,0.334,0.186,0.564,0.288c0.229,0.104,0.508,0.208,0.829,0.289c0.326,0.092,0.705,0.126,1.142,0.126
				c0.694,0,1.201-0.126,1.534-0.379c0.337-0.255,0.51-0.599,0.51-1.028c0-0.287-0.072-0.518-0.221-0.692
				c-0.151-0.185-0.335-0.346-0.577-0.483c-0.242-0.138-0.517-0.266-0.817-0.37c-0.302-0.115-0.613-0.232-0.936-0.344
				c-0.309-0.129-0.621-0.266-0.934-0.441c-0.3-0.161-0.576-0.367-0.82-0.609c-0.237-0.243-0.425-0.531-0.576-0.876
				c-0.149-0.348-0.22-0.761-0.22-1.246c0-0.439,0.071-0.843,0.22-1.2c0.151-0.369,0.359-0.682,0.636-0.959
				c0.276-0.277,0.623-0.483,1.027-0.656c0.402-0.173,0.864-0.278,1.371-0.346l0.173-1.777c0.012-0.046,0.024-0.091,0.036-0.115
				c0.023-0.035,0.056-0.058,0.116-0.091c0.055-0.022,0.124-0.045,0.228-0.058c0.096-0.011,0.222-0.024,0.369-0.024
				c0.187,0,0.337,0.013,0.452,0.024c0.116,0.022,0.219,0.045,0.276,0.081c0.069,0.034,0.102,0.081,0.126,0.126
				c0.022,0.058,0.022,0.117,0.022,0.173l-0.171,1.673c0.162,0.022,0.347,0.057,0.518,0.091c0.186,0.045,0.36,0.094,0.51,0.151
				c0.162,0.057,0.298,0.116,0.426,0.184c0.126,0.058,0.219,0.116,0.266,0.172c0.045,0.047,0.091,0.105,0.114,0.151
				c0.024,0.048,0.048,0.116,0.058,0.185c0.012,0.079,0.022,0.16,0.035,0.265c0.01,0.103,0.01,0.219,0.01,0.359
				c0,0.182,0,0.334-0.01,0.447c-0.013,0.117-0.023,0.21-0.045,0.267c-0.024,0.058-0.048,0.103-0.084,0.126
				c-0.032,0.023-0.056,0.035-0.101,0.035c-0.081,0-0.187-0.035-0.337-0.115c-0.15-0.082-0.323-0.163-0.54-0.244
				c-0.22-0.09-0.464-0.173-0.74-0.24c-0.279-0.081-0.587-0.116-0.924-0.116c-0.299,0-0.563,0.035-0.784,0.092
				c-0.219,0.059-0.393,0.14-0.53,0.243c-0.14,0.103-0.232,0.229-0.3,0.381c-0.056,0.15-0.091,0.312-0.091,0.485
				c0,0.276,0.068,0.507,0.217,0.691c0.152,0.185,0.346,0.357,0.589,0.484c0.244,0.14,0.521,0.256,0.83,0.37
				c0.312,0.115,0.622,0.229,0.947,0.357c0.321,0.126,0.633,0.265,0.946,0.427c0.31,0.16,0.575,0.367,0.829,0.601
				c0.243,0.24,0.439,0.527,0.576,0.863c0.149,0.345,0.22,0.75,0.22,1.22C141.73,145.202,141.637,145.661,141.467,146.065z"/>
		</g>
	</g>
</g>
</svg>
