<?xml version="1.0" encoding="iso-8859-1"?>
<!-- Generator: Adobe Illustrator 17.0.0, SVG Export Plug-In . SVG Version: 6.00 Build 0)  -->
<!DOCTYPE svg PUBLIC "-//W3C//DTD SVG 1.1//EN" "http://www.w3.org/Graphics/SVG/1.1/DTD/svg11.dtd">
<svg version="1.1" id="Layer_1" xmlns="http://www.w3.org/2000/svg" xmlns:xlink="http://www.w3.org/1999/xlink" x="0px" y="0px"
	 width="32px" height="32px" viewBox="125.73 125.73 32 32" style="enable-background:new 125.73 125.73 32 32;"
	 xml:space="preserve">
<g>
	<path style="fill:none;stroke:#41951B;stroke-width:0.5;stroke-miterlimit:10;" d="M150.536,152.876h-1.033l-8.545,2.821
		c-0.265,0.142-1.341,0.622-2.465-0.031l-0.012-0.006l-11.712-6.511c-0.043-0.024-0.079-0.054-0.111-0.085l0,0
		c0-0.007-1.046-1.058-0.406-2.25l0,0c0-0.006,0.7-1.494,2.053-1.119c3.4,0.941,5.594,2.895,7.617,3.4
		c2.637,0.473,4.482,0.307,6.965-0.745c-0.75-0.073-1.955-0.006-3.185,0.05c-0.375,0.018-0.756,0.03-1.131,0.043
		c-3.738,0.099-3.91-1.125-3.117-2.016c0.768-0.861,1.432-0.879,2.409-0.879h3.745c0.596-0.27,3.664-1.636,5.318-1.931
		c0.006,0,0.012,0,0.018,0c0.737-0.129,1.654-0.172,2.484-0.172c0.4,0,0.781,0.006,1.106,0.019v9.424L150.536,152.876
		L150.536,152.876z"/>
	<path style="fill:none;stroke:#41951B;stroke-width:0.5;stroke-miterlimit:10;" d="M152.129,141.269h4.284
		c0.3,0,0.572,0.123,0.774,0.32l0,0l0,0l0,0l0,0c0.197,0.203,0.326,0.474,0.326,0.775v11.563c0,0.302-0.124,0.572-0.32,0.775l0,0
		l0,0l0,0l0,0c-0.202,0.197-0.473,0.326-0.775,0.326h-4.285c-0.282,0-0.547-0.111-0.743-0.289c-0.013-0.012-0.025-0.025-0.037-0.031
		c-0.197-0.197-0.327-0.473-0.327-0.781v-11.563c0-0.301,0.124-0.578,0.327-0.781l0,0c0.203-0.203,0.473-0.326,0.775-0.326V141.269z
		"/>
</g>
<g>
	<g>
		<path style="fill:#41951B;" d="M141.592,129.529c-1.327-1.329-3.166-2.152-5.195-2.152c-2.028,0-3.866,0.823-5.194,2.152
			c-1.329,1.327-2.152,3.166-2.152,5.194c0,2.029,0.823,3.868,2.152,5.195c1.328,1.327,3.166,2.151,5.194,2.151
			c2.03,0,3.868-0.824,5.195-2.151c1.328-1.328,2.152-3.166,2.152-5.195C143.744,132.694,142.92,130.856,141.592,129.529z
			 M138.493,136.812c-0.109,0.238-0.258,0.449-0.449,0.618c-0.196,0.177-0.428,0.313-0.699,0.414
			c-0.271,0.102-0.578,0.17-0.91,0.197l-0.11,1.115c-0.006,0.028-0.013,0.054-0.02,0.075c-0.012,0.02-0.033,0.041-0.068,0.054
			c-0.033,0.013-0.073,0.026-0.136,0.034l0.007,0.006c-0.053,0.007-0.129,0.013-0.217,0.013c-0.108,0-0.198-0.006-0.265-0.013
			c-0.067-0.014-0.123-0.027-0.156-0.048c-0.04-0.02-0.06-0.047-0.074-0.073c-0.014-0.035-0.014-0.069-0.007-0.103l0.108-1.06
			c-0.149-0.02-0.292-0.047-0.421-0.081c-0.136-0.034-0.252-0.067-0.36-0.109c-0.108-0.04-0.205-0.081-0.279-0.122
			c-0.074-0.042-0.136-0.082-0.176-0.122c-0.041-0.041-0.068-0.095-0.089-0.177c-0.02-0.074-0.027-0.19-0.027-0.346
			c0-0.115,0.007-0.216,0.013-0.292c0.007-0.074,0.02-0.135,0.034-0.176c0.02-0.041,0.041-0.068,0.067-0.089
			c0.026-0.013,0.055-0.02,0.089-0.02c0.047,0,0.108,0.027,0.197,0.075c0.088,0.054,0.197,0.109,0.332,0.17
			c0.136,0.061,0.299,0.122,0.488,0.17c0.192,0.055,0.416,0.074,0.673,0.074c0.408,0,0.706-0.074,0.903-0.224
			c0.198-0.15,0.3-0.353,0.3-0.604c0-0.17-0.042-0.306-0.13-0.408c-0.089-0.109-0.197-0.204-0.339-0.285
			c-0.143-0.081-0.305-0.156-0.481-0.218c-0.177-0.068-0.361-0.136-0.551-0.203c-0.182-0.075-0.366-0.156-0.55-0.258
			c-0.177-0.095-0.339-0.217-0.483-0.36c-0.141-0.143-0.25-0.313-0.339-0.516c-0.088-0.204-0.129-0.448-0.129-0.734
			c0-0.258,0.041-0.496,0.129-0.706c0.089-0.217,0.211-0.401,0.374-0.565c0.163-0.163,0.366-0.284,0.604-0.386
			c0.237-0.102,0.509-0.164,0.808-0.204l0.102-1.047c0.007-0.027,0.013-0.054,0.021-0.068c0.014-0.02,0.033-0.033,0.068-0.054
			c0.033-0.013,0.073-0.027,0.135-0.034c0.055-0.006,0.13-0.014,0.217-0.014c0.11,0,0.198,0.007,0.265,0.014
			c0.068,0.013,0.129,0.026,0.163,0.048c0.041,0.02,0.06,0.047,0.074,0.074c0.013,0.034,0.013,0.068,0.013,0.102l-0.101,0.985
			c0.095,0.013,0.204,0.033,0.305,0.054c0.11,0.027,0.212,0.055,0.3,0.089c0.095,0.033,0.175,0.068,0.251,0.108
			c0.074,0.034,0.13,0.068,0.157,0.102c0.027,0.027,0.053,0.061,0.067,0.088c0.014,0.028,0.028,0.069,0.034,0.109
			c0.006,0.047,0.013,0.095,0.02,0.157c0.006,0.061,0.006,0.129,0.006,0.21c0,0.109,0,0.197-0.006,0.264
			c-0.008,0.068-0.014,0.122-0.027,0.157c-0.013,0.033-0.028,0.06-0.049,0.074c-0.019,0.014-0.033,0.021-0.06,0.021
			c-0.048,0-0.11-0.021-0.197-0.068c-0.089-0.048-0.191-0.096-0.319-0.143c-0.129-0.055-0.272-0.103-0.435-0.143
			c-0.164-0.047-0.346-0.068-0.543-0.068c-0.176,0-0.333,0.021-0.462,0.054c-0.129,0.035-0.231,0.082-0.313,0.143
			c-0.082,0.061-0.137,0.136-0.176,0.224c-0.033,0.089-0.054,0.184-0.054,0.285c0,0.163,0.04,0.299,0.128,0.408
			c0.089,0.108,0.204,0.21,0.347,0.285c0.143,0.081,0.306,0.15,0.489,0.217c0.183,0.067,0.366,0.135,0.557,0.211
			c0.189,0.074,0.373,0.157,0.557,0.251c0.183,0.095,0.339,0.217,0.488,0.354c0.143,0.141,0.259,0.311,0.34,0.508
			c0.088,0.204,0.129,0.442,0.129,0.719C138.648,136.302,138.594,136.573,138.493,136.812z"/>
	</g>
</g>
</svg>
