<?xml version="1.0" encoding="iso-8859-1"?>
<!-- Generator: Adobe Illustrator 17.0.0, SVG Export Plug-In . SVG Version: 6.00 Build 0)  -->
<!DOCTYPE svg PUBLIC "-//W3C//DTD SVG 1.1//EN" "http://www.w3.org/Graphics/SVG/1.1/DTD/svg11.dtd">
<svg version="1.1" id="Layer_1" xmlns="http://www.w3.org/2000/svg" xmlns:xlink="http://www.w3.org/1999/xlink" x="0px" y="0px"
	 width="32px" height="32px" viewBox="125.73 125.73 32 32" style="enable-background:new 125.73 125.73 32 32;"
	 xml:space="preserve">
<path style="fill:#305889;" d="M148.442,145.785c-0.976-0.975-1.581-2.326-1.581-3.817c0-1.49,0.605-2.84,1.581-3.815
	c0.686-0.686,1.559-1.183,2.534-1.421v-0.934l-4.962-4.962h-4.907h-1.633h-0.245h-3.43c0.015,0.017,0.03,0.035,0.045,0.052
	c0.089,0.102,0.178,0.204,0.267,0.304l0.086,0.085c0.086,0.085,0.173,0.171,0.258,0.256c1.312,1.36,2.204,2.854,2.689,4.509
	c0,0,0,0,0,0c0.001,0.003,0.001,0.005,0.002,0.008c0.013,0.044,0.024,0.089,0.036,0.133c0.036,0.131,0.072,0.263,0.103,0.396
	c0.016,0.068,0.03,0.137,0.044,0.205c0.024,0.112,0.048,0.224,0.068,0.337c0.014,0.074,0.025,0.15,0.037,0.225
	c0.018,0.109,0.034,0.22,0.048,0.33c0.009,0.077,0.018,0.155,0.027,0.232c0.012,0.112,0.022,0.224,0.031,0.338
	c0.006,0.077,0.012,0.155,0.016,0.232c0.007,0.119,0.012,0.239,0.015,0.359c0.002,0.073,0.005,0.147,0.005,0.221
	c0.001,0.135-0.001,0.272-0.004,0.408c-0.001,0.061-0.001,0.122-0.003,0.183c-0.007,0.199-0.017,0.4-0.033,0.603
	c0,0.001,0,0.001,0,0.002c-0.001,0.017-0.005,0.032-0.006,0.05c-0.012,0.145-0.028,0.285-0.053,0.417
	c-0.112,0.588-0.357,1.043-0.737,1.37c-0.002,0.002-0.004,0.005-0.006,0.006c-0.052,0.044-0.112,0.08-0.168,0.119
	c-0.259,0.181-0.564,0.318-0.93,0.403c-0.247,0.074-0.5,0.14-0.754,0.202c-0.084,0.021-0.169,0.043-0.254,0.062v0.044l-0.067,0.012
	l-0.199,0.037c-0.229,0.042-0.463,0.079-0.698,0.113c-0.639,0.091-1.309,0.149-2.015,0.18c-0.161,0.007-0.32,0.016-0.485,0.02
	l-0.027,0.001c-0.081,0.002-0.162,0.003-0.243,0.004c-0.049,0.001-0.099,0.001-0.149,0.001c-0.058,0.001-0.115,0.002-0.173,0.002
	l-0.056,0.001h-0.013h-0.013l-0.056-0.001c-0.058,0-0.115-0.001-0.173-0.002c-0.05,0-0.1,0-0.149-0.001
	c-0.081-0.001-0.163-0.003-0.243-0.004l-0.027-0.001c-0.165-0.004-0.324-0.013-0.485-0.02c-0.04-0.002-0.078-0.006-0.118-0.008v0.5
	v0.55v3.449v6.959v2.222h19.737v-9.735C150.001,146.967,149.127,146.47,148.442,145.785z"/>
<g>
	<path style="fill:#14CF37;" d="M133.618,129.862h-2.268c-0.336,0-0.466-0.168-0.549-0.333c-0.05-0.115-0.202-0.26-0.35-0.4
		c-0.369-0.35-0.927-0.879-0.474-1.519c0.128-0.182,0.166-0.215,0.341-0.299c0.031-0.015,0.069-0.033,0.117-0.058l0.034-0.014
		c0.292-0.098,0.438-0.087,0.596-0.058c0.091,0.017,0.205,0.037,0.435,0.037c0.171,0,0.383-0.012,0.628-0.036l0.13-0.019
		c0.359-0.05,0.619-0.086,0.79-0.256l0.017-0.016c0.261-0.216,0.584-0.34,0.886-0.34c0.322,0,0.605,0.139,0.799,0.393
		c0.04,0.053,0.066,0.074,0.096,0.099c0.114,0.094,0.175,0.179,0.243,0.428c0.165,0.617-0.233,1.127-0.584,1.578
		c-0.134,0.171-0.26,0.334-0.346,0.489C134.084,129.693,133.955,129.862,133.618,129.862z M131.282,129.352
		c0.002,0,0.022,0.005,0.068,0.005h2.268c0.047,0,0.067-0.006,0.071-0.007c-0.002,0,0.008-0.012,0.025-0.047
		c0.111-0.199,0.255-0.385,0.395-0.564c0.306-0.393,0.594-0.763,0.494-1.137c-0.037-0.137-0.047-0.145-0.078-0.171
		c-0.04-0.033-0.1-0.083-0.174-0.181c-0.099-0.129-0.232-0.194-0.398-0.194c-0.181,0-0.389,0.081-0.556,0.217
		c-0.289,0.282-0.667,0.335-1.067,0.39l-0.14,0.02c-0.278,0.027-0.499,0.039-0.689,0.039c-0.275,0-0.419-0.026-0.525-0.045
		c-0.053-0.01-0.082-0.015-0.11-0.015c-0.032,0-0.085,0.006-0.218,0.05c-0.044,0.022-0.081,0.04-0.11,0.054
		c-0.031,0.015-0.067,0.032-0.074,0.038c-0.011,0.01-0.05,0.065-0.073,0.097c-0.171,0.241-0.041,0.435,0.409,0.861
		c0.194,0.184,0.377,0.357,0.461,0.554C131.27,129.339,131.28,129.349,131.282,129.352L131.282,129.352L131.282,129.352z"/>
</g>
<g>
	<path style="fill:#14CF37;" d="M133.876,130.834h-2.655c-0.389,0-0.64-0.2-0.64-0.511c0-0.366,0.275-0.642,0.64-0.642h2.655
		c0.32,0,0.556,0.224,0.574,0.538c0.034,0.136,0.008,0.27-0.073,0.381C134.273,130.744,134.081,130.834,133.876,130.834z
		 M131.087,130.308c0.021,0.009,0.064,0.021,0.134,0.021h2.655c0.034,0,0.06-0.008,0.076-0.016l-0.005-0.014v-0.042
		c0-0.055-0.016-0.072-0.071-0.072h-2.655C131.163,130.185,131.093,130.207,131.087,130.308z"/>
</g>
<g>
	<g>
		<path style="fill:#14CF37;" d="M138.012,138.493c-0.003-0.094-0.006-0.187-0.012-0.28c-0.003-0.061-0.008-0.121-0.013-0.181
			c-0.007-0.088-0.015-0.176-0.024-0.263c-0.006-0.06-0.013-0.121-0.021-0.181c-0.011-0.086-0.024-0.172-0.037-0.258
			c-0.009-0.058-0.018-0.117-0.029-0.175c-0.016-0.088-0.034-0.175-0.053-0.263c-0.011-0.053-0.022-0.107-0.034-0.16
			c-0.024-0.104-0.052-0.207-0.08-0.309c-0.009-0.035-0.018-0.07-0.028-0.104c-0.001-0.002-0.001-0.004-0.002-0.006c0,0,0,0,0,0
			c-0.378-1.29-1.073-2.455-2.096-3.515c-0.066-0.067-0.134-0.133-0.201-0.199l-0.067-0.066c-0.069-0.078-0.138-0.158-0.208-0.237
			c-0.058-0.067-0.116-0.134-0.174-0.201c-0.041-0.048-0.082-0.097-0.123-0.145c-0.047-0.056-0.094-0.113-0.141-0.17
			c-0.053-0.064-0.104-0.13-0.155-0.194c-0.035-0.044-0.07-0.088-0.104-0.133c-0.085-0.112-0.167-0.225-0.245-0.34
			c-0.096-0.25-0.285-0.313-0.427-0.329c-0.048-0.005-0.09-0.005-0.122-0.005h-2.23c-0.032,0-0.074,0-0.122,0.005
			c-0.142,0.016-0.331,0.078-0.427,0.329c-0.078,0.115-0.16,0.228-0.245,0.34c-0.034,0.045-0.069,0.089-0.104,0.133
			c-0.051,0.065-0.102,0.13-0.155,0.194c-0.046,0.057-0.093,0.113-0.141,0.17c-0.041,0.049-0.082,0.097-0.123,0.145
			c-0.058,0.067-0.116,0.135-0.174,0.201c-0.069,0.079-0.139,0.159-0.208,0.237l-0.067,0.066c-0.067,0.067-0.135,0.133-0.201,0.199
			c-1.023,1.06-1.718,2.225-2.096,3.515c0,0,0,0,0,0c-0.001,0.002-0.001,0.004-0.002,0.006c-0.01,0.034-0.018,0.069-0.028,0.104
			c-0.028,0.102-0.056,0.205-0.08,0.309c-0.012,0.053-0.023,0.107-0.034,0.16c-0.019,0.087-0.037,0.174-0.053,0.263
			c-0.011,0.058-0.02,0.116-0.029,0.175c-0.014,0.085-0.026,0.171-0.037,0.258c-0.008,0.06-0.014,0.121-0.021,0.181
			c-0.009,0.087-0.017,0.175-0.024,0.263c-0.004,0.06-0.009,0.121-0.012,0.181c-0.005,0.092-0.009,0.186-0.012,0.28
			c-0.001,0.057-0.004,0.114-0.004,0.172c-0.001,0.105,0.001,0.212,0.002,0.318c0.001,0.048,0.001,0.095,0.003,0.143
			c0.005,0.155,0.014,0.312,0.026,0.47c0.001,0.001,0.001,0.001,0.001,0.002c0.001,0.013,0.004,0.025,0.005,0.039
			c0.009,0.113,0.022,0.222,0.041,0.325c0.087,0.458,0.278,0.813,0.574,1.067c0.002,0.002,0.003,0.004,0.005,0.005
			c0.04,0.034,0.087,0.062,0.131,0.093c0.202,0.141,0.44,0.248,0.725,0.314c0.193,0.058,0.39,0.11,0.587,0.158
			c0.066,0.016,0.131,0.033,0.198,0.048v0.034l0.052,0.009l0.155,0.029c0.179,0.033,0.361,0.061,0.544,0.087
			c0.498,0.071,1.02,0.117,1.571,0.141c0.126,0.005,0.249,0.013,0.378,0.016l0.021,0c0.063,0.001,0.126,0.003,0.19,0.004
			c0.038,0.001,0.077,0.001,0.116,0.001c0.045,0.001,0.09,0.001,0.135,0.001l0.044,0.001h0.02l0.044-0.001
			c0.045,0,0.09-0.001,0.135-0.001c0.039,0,0.078,0,0.116-0.001c0.063-0.001,0.127-0.002,0.19-0.004l0.021,0
			c0.129-0.003,0.252-0.011,0.378-0.016c0.55-0.024,1.072-0.07,1.571-0.141c0.184-0.026,0.365-0.055,0.544-0.087l0.155-0.029
			l0.052-0.009v-0.034c0.066-0.015,0.132-0.032,0.198-0.048c0.198-0.048,0.395-0.1,0.588-0.158c0.285-0.066,0.523-0.173,0.725-0.314
			c0.044-0.03,0.091-0.058,0.131-0.093c0.002-0.001,0.003-0.003,0.004-0.005c0.297-0.255,0.487-0.609,0.574-1.067
			c0.019-0.103,0.032-0.212,0.041-0.325c0.001-0.014,0.004-0.026,0.005-0.039c0-0.001,0-0.001,0-0.002
			c0.012-0.158,0.021-0.315,0.026-0.47c0.002-0.048,0.001-0.095,0.002-0.143c0.002-0.107,0.004-0.213,0.003-0.318
			C138.016,138.607,138.013,138.55,138.012,138.493z M132.993,139.478v0.978h-1.022v-0.911c-0.698-0.028-1.376-0.201-1.772-0.412
			l0.312-1.122c0.438,0.22,1.053,0.421,1.731,0.421c0.594,0,1.001-0.211,1.001-0.595c0-0.365-0.333-0.595-1.104-0.835
			c-1.116-0.345-1.877-0.825-1.877-1.755c0-0.844,0.646-1.507,1.762-1.708v-0.912h1.022v0.845c0.698,0.029,1.167,0.163,1.512,0.317
			l-0.302,1.084c-0.27-0.105-0.751-0.326-1.502-0.326c-0.678,0-0.897,0.269-0.897,0.538c0,0.316,0.365,0.518,1.251,0.825
			c1.24,0.403,1.741,0.931,1.741,1.794C134.848,138.556,134.191,139.285,132.993,139.478z"/>
	</g>
</g>
<g>
	<rect x="134.152" y="153.547" style="fill:#FFFFFF;" width="14.427" height="1.119"/>
	<rect x="134.152" y="150.822" style="fill:#FFFFFF;" width="14.427" height="1.118"/>
	<rect x="134.152" y="148.096" style="fill:#FFFFFF;" width="14.427" height="1.118"/>
	<rect x="134.152" y="145.371" style="fill:#FFFFFF;" width="14.427" height="1.119"/>
</g>
<polygon style="fill:#FFFFFF;" points="145.396,131.574 149.761,135.94 145.396,135.94 "/>
<g>
	<g>
		<path style="fill:#2E5788;" d="M155.237,138.99c-0.761-0.762-1.816-1.234-2.98-1.234c-1.163,0-2.217,0.472-2.979,1.234
			c-0.762,0.761-1.234,1.815-1.234,2.978c0,1.164,0.472,2.218,1.234,2.98c0.762,0.761,1.816,1.233,2.979,1.233
			c1.164,0,2.218-0.472,2.98-1.233c0.761-0.762,1.234-1.816,1.234-2.98C156.47,140.805,155.998,139.751,155.237,138.99z
			 M154.46,143.889h-3.485v-4.659h0.762v3.897h2.723V143.889z"/>
	</g>
</g>
</svg>
