<?xml version="1.0" encoding="iso-8859-1"?>
<!-- Generator: Adobe Illustrator 17.0.0, SVG Export Plug-In . SVG Version: 6.00 Build 0)  -->
<!DOCTYPE svg PUBLIC "-//W3C//DTD SVG 1.1//EN" "http://www.w3.org/Graphics/SVG/1.1/DTD/svg11.dtd">
<svg version="1.1" id="Layer_1" xmlns="http://www.w3.org/2000/svg" xmlns:xlink="http://www.w3.org/1999/xlink" x="0px" y="0px"
	 width="32px" height="32px" viewBox="125.73 125.73 32 32" style="enable-background:new 125.73 125.73 32 32;"
	 xml:space="preserve">
<path style="fill:#087EF4;" d="M150.509,136.312c0.107,0,0.215-0.071,0.286-0.143l2.821-3.858c0.072-0.107,0.107-0.25,0.036-0.357
	c-0.072-0.107-0.179-0.178-0.321-0.178h-1.465v-0.965c0-1.893-1.465-3.465-3.251-3.536c-1.857-0.072-3.608,1.25-3.857,2.857
	c-0.036,0.179,0.071,0.322,0.214,0.393c0.143,0.071,0.321,0,0.429-0.143c0.321-0.464,1.25-0.858,2-0.821
	c0.965,0.071,1.715,0.929,1.715,1.928v0.214h-1.429c-0.143,0-0.25,0.072-0.322,0.179c-0.07,0.107-0.036,0.25,0.036,0.357
	l2.822,3.858C150.295,136.24,150.402,136.312,150.509,136.312z"/>
<g>
	<g>
		<path style="fill:#2E5788;" d="M133.973,136.818c-0.839-0.839-2-1.36-3.282-1.36c-1.281,0-2.442,0.52-3.281,1.36
			c-0.839,0.838-1.359,1.999-1.359,3.281c0,1.282,0.521,2.443,1.359,3.282c0.839,0.838,2,1.358,3.281,1.358
			c1.282,0,2.443-0.52,3.282-1.358c0.838-0.839,1.359-2,1.359-3.282C135.331,138.817,134.811,137.656,133.973,136.818z
			 M133.422,142.134h-3.848v-5.145h0.842v4.303h3.007V142.134z"/>
	</g>
</g>
<g>
	<path style="fill:#305889;" d="M142.278,136.528h-1.095h-0.966h-4.262c0.692,1.017,1.097,2.247,1.097,3.57
		c0,1.757-0.713,3.349-1.863,4.498c-1.15,1.149-2.741,1.862-4.499,1.862c-0.791,0-1.546-0.152-2.246-0.416v0.109v0.575v9.267h28.983
		v-19.467H142.278z M146.117,149.431c-0.167,0.361-0.393,0.682-0.682,0.938c-0.297,0.269-0.65,0.475-1.062,0.628
		c-0.411,0.156-0.877,0.259-1.381,0.299l-0.166,1.692c-0.01,0.042-0.021,0.082-0.031,0.114c-0.019,0.03-0.051,0.061-0.103,0.082
		c-0.049,0.021-0.111,0.041-0.205,0.051l0.01,0.01c-0.081,0.011-0.195,0.02-0.329,0.02c-0.165,0-0.301-0.009-0.402-0.02
		c-0.102-0.021-0.187-0.04-0.238-0.072c-0.06-0.03-0.091-0.071-0.112-0.111c-0.022-0.052-0.022-0.105-0.011-0.156l0.164-1.609
		c-0.227-0.03-0.443-0.072-0.64-0.123c-0.206-0.052-0.381-0.102-0.545-0.166c-0.164-0.061-0.31-0.123-0.424-0.185
		c-0.113-0.063-0.206-0.124-0.268-0.185c-0.061-0.062-0.103-0.144-0.133-0.269c-0.031-0.113-0.041-0.288-0.041-0.526
		c0-0.175,0.01-0.328,0.02-0.444c0.01-0.112,0.03-0.205,0.051-0.268c0.032-0.062,0.063-0.103,0.103-0.134
		c0.04-0.019,0.083-0.03,0.136-0.03c0.071,0,0.164,0.04,0.299,0.113c0.133,0.082,0.299,0.166,0.504,0.257
		c0.206,0.094,0.455,0.186,0.742,0.259c0.291,0.082,0.631,0.113,1.022,0.113c0.619,0,1.072-0.113,1.37-0.339
		c0.301-0.228,0.455-0.536,0.455-0.918c0-0.257-0.064-0.464-0.196-0.618c-0.135-0.166-0.299-0.309-0.516-0.433
		c-0.217-0.123-0.464-0.237-0.731-0.33c-0.268-0.104-0.548-0.207-0.836-0.309c-0.277-0.114-0.555-0.237-0.834-0.392
		c-0.269-0.144-0.515-0.329-0.733-0.546c-0.214-0.216-0.38-0.474-0.515-0.783c-0.133-0.31-0.196-0.68-0.196-1.113
		c0-0.288,0.034-0.559,0.106-0.809l0.409-0.826c0.076-0.102,0.157-0.201,0.25-0.294c0.247-0.247,0.556-0.432,0.917-0.586
		c0.36-0.155,0.772-0.249,1.226-0.31l0.155-1.589c0.01-0.041,0.021-0.081,0.031-0.103c0.021-0.03,0.05-0.05,0.104-0.082
		c0.049-0.019,0.111-0.041,0.205-0.051c0.083-0.009,0.197-0.021,0.33-0.021c0.166,0,0.301,0.011,0.402,0.021
		c0.104,0.02,0.196,0.04,0.248,0.072c0.061,0.031,0.091,0.072,0.112,0.113c0.022,0.051,0.022,0.104,0.022,0.154l-0.154,1.496
		c0.143,0.019,0.309,0.05,0.462,0.081c0.166,0.041,0.32,0.084,0.455,0.135c0.144,0.051,0.266,0.103,0.38,0.164
		c0.114,0.052,0.198,0.104,0.239,0.156c0.04,0.04,0.081,0.092,0.102,0.133c0.022,0.043,0.042,0.104,0.053,0.166
		c0.01,0.072,0.019,0.143,0.03,0.237c0.008,0.092,0.008,0.195,0.008,0.32c0,0.164,0,0.299-0.008,0.401
		c-0.011,0.102-0.021,0.185-0.041,0.237c-0.021,0.051-0.042,0.092-0.074,0.113c-0.03,0.021-0.051,0.031-0.091,0.031
		c-0.073,0-0.167-0.031-0.299-0.103c-0.137-0.073-0.291-0.146-0.485-0.216c-0.196-0.083-0.414-0.157-0.661-0.217
		c-0.247-0.072-0.526-0.103-0.824-0.103c-0.267,0-0.505,0.031-0.701,0.082c-0.195,0.053-0.351,0.125-0.473,0.217
		c-0.125,0.092-0.208,0.206-0.269,0.34c-0.051,0.135-0.082,0.279-0.082,0.433c0,0.248,0.061,0.454,0.195,0.619
		c0.136,0.164,0.309,0.318,0.526,0.432c0.218,0.124,0.464,0.229,0.743,0.33c0.278,0.102,0.555,0.206,0.845,0.32
		c0.287,0.113,0.567,0.238,0.846,0.381c0.278,0.145,0.514,0.33,0.741,0.538c0.218,0.215,0.393,0.473,0.516,0.772
		c0.134,0.309,0.196,0.67,0.196,1.091C146.354,148.658,146.271,149.07,146.117,149.431z"/>
</g>
</svg>
