<?xml version="1.0" encoding="iso-8859-1"?>
<!-- Generator: Adobe Illustrator 17.0.0, SVG Export Plug-In . SVG Version: 6.00 Build 0)  -->
<!DOCTYPE svg PUBLIC "-//W3C//DTD SVG 1.1//EN" "http://www.w3.org/Graphics/SVG/1.1/DTD/svg11.dtd">
<svg version="1.1" id="Layer_1" xmlns="http://www.w3.org/2000/svg" xmlns:xlink="http://www.w3.org/1999/xlink" x="0px" y="0px"
	 width="32px" height="32px" viewBox="125.73 125.73 32 32" style="enable-background:new 125.73 125.73 32 32;"
	 xml:space="preserve">
<g>
	<path style="fill:#FF8400;" d="M154.158,127.432l-1.464,1.194l2.208,0.224l-6.029,4.917c0.33,0.291,0.641,0.603,0.932,0.934
		l5.927-4.834l-0.225,2.208l1.464-1.194l0.318-3.131L154.158,127.432z"/>
	<g>
		<g>
			<path style="fill:#305889;" d="M142.033,132.133c-5.19,0-9.398,4.207-9.398,9.397c0,5.19,4.208,9.398,9.398,9.398
				c5.19,0,9.398-4.207,9.398-9.398C151.431,136.341,147.223,132.133,142.033,132.133z M144.191,146.694l-5.097-2.913v-8.23h3.593
				v6.143l3.286,1.879L144.191,146.694z"/>
		</g>
	</g>
	<path style="fill:#FF8400;" d="M134.013,134.991c0.278-0.34,0.578-0.661,0.896-0.963l-6.35-5.179l2.208-0.224l-1.464-1.194
		l-3.131,0.318l0.318,3.131l1.464,1.194l-0.225-2.208L134.013,134.991z"/>
	<path style="fill:#FF8400;" d="M135.124,149.234c-0.327-0.294-0.634-0.609-0.922-0.942l-6.474,5.279l0.225-2.208l-1.464,1.194
		l-0.318,3.131l3.131,0.318l1.464-1.194l-2.208-0.224L135.124,149.234z"/>
	<path style="fill:#FF8400;" d="M156.971,152.558l-1.464-1.194l0.225,2.208l-6.123-4.994c-0.301,0.323-0.621,0.628-0.961,0.91
		l6.254,5.101l-2.208,0.224l1.464,1.194l3.131-0.318L156.971,152.558z"/>
</g>
</svg>
