<?xml version="1.0" encoding="iso-8859-1"?>
<!-- Generator: Adobe Illustrator 17.0.0, SVG Export Plug-In . SVG Version: 6.00 Build 0)  -->
<!DOCTYPE svg PUBLIC "-//W3C//DTD SVG 1.1//EN" "http://www.w3.org/Graphics/SVG/1.1/DTD/svg11.dtd">
<svg version="1.1" id="Layer_1" xmlns="http://www.w3.org/2000/svg" xmlns:xlink="http://www.w3.org/1999/xlink" x="0px" y="0px"
	 width="32px" height="32px" viewBox="125.73 125.73 32 32" style="enable-background:new 125.73 125.73 32 32;"
	 xml:space="preserve">
<rect x="140.722" y="139.709" style="fill:#D70707;" width="3.107" height="3.106"/>
<rect x="136.811" y="139.709" style="fill:#D70707;" width="3.106" height="3.106"/>
<rect x="136.81" y="143.769" style="fill:#D70707;" width="3.106" height="3.105"/>
<rect x="140.722" y="143.769" style="fill:#D70707;" width="3.107" height="3.105"/>
<polygon style="fill:#D70707;" points="155.131,148.856 151.158,148.856 151.158,143.544 152.027,143.544 152.027,147.986 
	155.131,147.986 "/>
<g>
	<path style="fill:none;stroke:#D70707;stroke-width:0.75;stroke-miterlimit:10;" d="M157.302,145.799
		c-0.014-0.063-0.029-0.126-0.045-0.189c-0.038-0.151-0.083-0.299-0.134-0.445c-0.758-2.185-2.835-3.754-5.278-3.754
		c-3.085,0-5.585,2.501-5.585,5.586c0,3.085,2.5,5.585,5.585,5.585c0.578,0,1.136-0.088,1.661-0.251l-1.625-1.86"/>
	
		<line style="fill:none;stroke:#D70707;stroke-width:0.75;stroke-miterlimit:10;" x1="153.801" y1="152.297" x2="151.861" y2="154.412"/>
</g>
<path style="fill:none;stroke:#D70707;stroke-width:0.75;stroke-miterlimit:10;" d="M146.26,147.054
	c0-2.713,1.915-4.978,4.467-5.518v-1.578c0-0.009-0.002-0.016-0.003-0.026l2.682-0.003L140.212,129.7l-13.368,10.228l2.681,0.003
	c0,0.01-0.002,0.017-0.002,0.026v8.785c0,0.456,0.371,0.826,0.827,0.826h16.501C146.473,148.81,146.26,147.957,146.26,147.054z"/>
</svg>
