<?xml version="1.0" encoding="iso-8859-1"?>
<!-- Generator: Adobe Illustrator 17.0.0, SVG Export Plug-In . SVG Version: 6.00 Build 0)  -->
<!DOCTYPE svg PUBLIC "-//W3C//DTD SVG 1.1//EN" "http://www.w3.org/Graphics/SVG/1.1/DTD/svg11.dtd">
<svg version="1.1" id="Layer_1" xmlns="http://www.w3.org/2000/svg" xmlns:xlink="http://www.w3.org/1999/xlink" x="0px" y="0px"
	 width="32px" height="32px" viewBox="125.73 125.73 32 32" style="enable-background:new 125.73 125.73 32 32;"
	 xml:space="preserve">
<g>
	<path style="fill:none;stroke:#8FCE73;stroke-width:0.75;stroke-miterlimit:10;" d="M153.231,128.576v-1.182
		c0-0.598-0.486-1.084-1.084-1.084h-0.898c-0.597,0-1.084,0.486-1.084,1.084v1.158h-6.984v-1.158c0-0.598-0.486-1.084-1.084-1.084
		h-0.896c-0.598,0-1.084,0.486-1.084,1.084v1.158h-6.985v-1.158c0-0.598-0.487-1.084-1.084-1.084h-0.896
		c-0.598,0-1.085,0.486-1.085,1.084v1.202c-1.506,0.245-2.636,1.539-2.636,3.106v22.278c0,1.738,1.414,3.151,3.151,3.151h22.278
		c1.737,0,3.15-1.414,3.15-3.151v-22.278C156.011,130.091,154.794,128.76,153.231,128.576z"/>
	
		<line style="fill:none;stroke:#8FCE73;stroke-width:0.75;stroke-miterlimit:10;" x1="155.46" y1="133.815" x2="127.985" y2="133.815"/>
	<path style="fill:#8FCE73;" d="M133.542,138.795L133.542,138.795c-1.048,0-1.898,0.849-1.898,1.897l0,0
		c0,1.048,0.85,1.897,1.898,1.897l0,0c1.048,0,1.897-0.849,1.897-1.897l0,0C135.44,139.644,134.59,138.795,133.542,138.795z"/>
	<path style="fill:#8FCE73;" d="M138.947,138.795L138.947,138.795c-1.048,0-1.897,0.849-1.897,1.897l0,0
		c0,1.048,0.849,1.897,1.897,1.897l0,0c1.048,0,1.897-0.849,1.897-1.897l0,0C140.845,139.644,139.995,138.795,138.947,138.795z"/>
	<path style="fill:#8FCE73;" d="M133.542,144.409L133.542,144.409c-1.048,0-1.898,0.849-1.898,1.896l0,0
		c0,1.048,0.85,1.898,1.898,1.898l0,0c1.048,0,1.897-0.85,1.897-1.898l0,0C135.44,145.257,134.59,144.409,133.542,144.409z"/>
	<path style="fill:#8FCE73;" d="M138.947,144.409L138.947,144.409c-1.048,0-1.897,0.849-1.897,1.896l0,0
		c0,1.048,0.849,1.898,1.897,1.898l0,0c1.048,0,1.897-0.85,1.897-1.898l0,0C140.845,145.257,139.995,144.409,138.947,144.409z"/>
	<path style="fill:#8FCE73;" d="M144.352,150.022c-1.048,0-1.897,0.849-1.897,1.897l0,0c0,1.048,0.849,1.896,1.897,1.896
		c1.048,0,1.896-0.849,1.896-1.896l0,0C146.249,150.872,145.4,150.022,144.352,150.022z"/>
	<path style="fill:#8FCE73;" d="M149.756,150.022c-1.047,0-1.897,0.849-1.897,1.897l0,0c0,1.048,0.85,1.896,1.897,1.896
		c1.048,0,1.897-0.849,1.897-1.896l0,0C151.654,150.872,150.804,150.022,149.756,150.022z"/>
	<path style="fill:#8FCE73;" d="M133.542,150.022L133.542,150.022c-1.048,0-1.898,0.849-1.898,1.897l0,0
		c0,1.048,0.85,1.896,1.898,1.896l0,0c1.048,0,1.897-0.849,1.897-1.896l0,0C135.44,150.872,134.59,150.022,133.542,150.022z"/>
	<path style="fill:#8FCE73;" d="M138.947,150.022L138.947,150.022c-1.048,0-1.897,0.849-1.897,1.897l0,0
		c0,1.048,0.849,1.896,1.897,1.896l0,0c1.048,0,1.897-0.849,1.897-1.896l0,0C140.845,150.872,139.995,150.022,138.947,150.022z"/>
	<path style="fill:#8FCE73;" d="M151.561,139.841c0,0-4.922,8.572-5.007,8.652c-0.281,0.263-0.722,0.249-0.985-0.032l-3.189-2.941
		c-0.263-0.281-0.249-0.722,0.033-0.985c0.28-0.263,0.721-0.249,0.986,0.032l2.495,2.302l4.459-7.724
		c0.193-0.334,0.62-0.448,0.952-0.256C151.638,139.081,151.753,139.508,151.561,139.841z"/>
</g>
</svg>
