<?xml version="1.0" encoding="iso-8859-1"?>
<!-- Generator: Adobe Illustrator 17.0.0, SVG Export Plug-In . SVG Version: 6.00 Build 0)  -->
<!DOCTYPE svg PUBLIC "-//W3C//DTD SVG 1.1//EN" "http://www.w3.org/Graphics/SVG/1.1/DTD/svg11.dtd">
<svg version="1.1" id="Layer_1" xmlns="http://www.w3.org/2000/svg" xmlns:xlink="http://www.w3.org/1999/xlink" x="0px" y="0px"
	 width="32px" height="32px" viewBox="125.73 125.73 32 32" style="enable-background:new 125.73 125.73 32 32;"
	 xml:space="preserve">
<g>
	<path style="fill:#087EF4;" d="M145.413,136.061c0.094,0,0.188-0.063,0.251-0.126l2.479-3.389c0.063-0.094,0.094-0.22,0.031-0.314
		c-0.063-0.094-0.157-0.156-0.282-0.156h-1.286v-0.848c0-1.663-1.287-3.044-2.856-3.107c-1.632-0.063-3.17,1.098-3.389,2.51
		c-0.032,0.157,0.063,0.283,0.188,0.346c0.126,0.062,0.282,0,0.376-0.126c0.283-0.408,1.098-0.753,1.757-0.722
		c0.847,0.062,1.506,0.816,1.506,1.694v0.188h-1.255c-0.125,0-0.22,0.064-0.283,0.157c-0.063,0.094-0.031,0.22,0.031,0.314
		l2.479,3.389C145.225,135.999,145.319,136.061,145.413,136.061z"/>
	<path style="fill:#087EF4;" d="M131.087,136.061c0.094,0,0.189-0.063,0.251-0.126l2.479-3.389c0.063-0.094,0.094-0.22,0.032-0.314
		c-0.063-0.094-0.157-0.156-0.282-0.156h-1.287v-0.848c0-1.663-1.287-3.044-2.856-3.107c-1.632-0.063-3.169,1.098-3.389,2.51
		c-0.032,0.157,0.063,0.283,0.188,0.346c0.126,0.062,0.282,0,0.376-0.126c0.283-0.408,1.098-0.753,1.757-0.722
		c0.847,0.062,1.506,0.816,1.506,1.694v0.188h-1.255c-0.126,0-0.22,0.064-0.283,0.157c-0.062,0.094-0.031,0.22,0.032,0.314
		l2.479,3.39C130.899,135.999,130.993,136.061,131.087,136.061z"/>
	<g>
		<path style="fill:#087EF4;stroke:#087EF4;stroke-width:0.25;stroke-miterlimit:10;" d="M156.493,144.623v-0.447
			c0-0.226-0.184-0.41-0.41-0.41h-0.34c-0.226,0-0.41,0.184-0.41,0.41v0.438h-2.645v-0.438c0-0.226-0.184-0.41-0.41-0.41h-0.339
			c-0.227,0-0.41,0.184-0.41,0.41v0.438h-2.645v-0.438c0-0.226-0.184-0.41-0.41-0.41h-0.339c-0.226,0-0.411,0.184-0.411,0.41v0.455
			c-0.57,0.093-0.998,0.583-0.998,1.176v8.435c0,0.658,0.535,1.193,1.193,1.193h8.435c0.658,0,1.193-0.535,1.193-1.193v-8.435
			C157.546,145.197,157.085,144.693,156.493,144.623z M155.644,144.176c0-0.054,0.044-0.099,0.099-0.099h0.339
			c0.055,0,0.099,0.044,0.099,0.099v1.188c0,0.055-0.044,0.099-0.099,0.099h-0.339c-0.055,0-0.099-0.044-0.099-0.099V144.176z
			 M151.839,144.176c0-0.054,0.044-0.099,0.098-0.099h0.339c0.055,0,0.099,0.044,0.099,0.099v1.188c0,0.055-0.044,0.099-0.099,0.099
			h-0.339c-0.054,0-0.098-0.044-0.098-0.099V144.176z M148.034,144.176c0-0.054,0.044-0.099,0.099-0.099h0.339
			c0.055,0,0.099,0.044,0.099,0.099v1.188c0,0.055-0.044,0.099-0.099,0.099h-0.339c-0.055,0-0.099-0.044-0.099-0.099V144.176z
			 M147.722,144.949v0.416c0,0.226,0.184,0.41,0.41,0.41h0.339c0.226,0,0.41-0.184,0.41-0.41v-0.438h2.645v0.438
			c0,0.226,0.185,0.41,0.411,0.41h0.339c0.226,0,0.41-0.184,0.41-0.41v-0.438h2.645v0.438c0,0.226,0.184,0.41,0.41,0.41h0.339
			c0.226,0,0.41-0.184,0.41-0.41v-0.426c0.419,0.067,0.741,0.431,0.741,0.869v1.516h-10.199v-1.516
			C147.036,145.387,147.327,145.037,147.722,144.949z M156.352,155.124h-8.435c-0.486,0-0.881-0.395-0.881-0.881v-6.607h10.198
			v6.607C157.234,154.729,156.839,155.124,156.352,155.124z"/>
		<path style="fill:#087EF4;stroke:#087EF4;stroke-width:0.25;stroke-miterlimit:10;" d="M149.038,148.493L149.038,148.493
			c-0.397,0-0.718,0.322-0.718,0.718l0,0c0,0.397,0.322,0.718,0.718,0.718l0,0c0.397,0,0.718-0.321,0.718-0.718l0,0
			C149.756,148.814,149.434,148.493,149.038,148.493z"/>
		<path style="fill:#087EF4;stroke:#087EF4;stroke-width:0.25;stroke-miterlimit:10;" d="M151.084,148.493L151.084,148.493
			c-0.397,0-0.718,0.322-0.718,0.718l0,0c0,0.397,0.321,0.718,0.718,0.718l0,0c0.397,0,0.719-0.321,0.719-0.718l0,0
			C151.803,148.814,151.481,148.493,151.084,148.493z"/>
		<path style="fill:#087EF4;stroke:#087EF4;stroke-width:0.25;stroke-miterlimit:10;" d="M153.131,148.493
			c-0.397,0-0.718,0.322-0.718,0.718l0,0c0,0.397,0.321,0.718,0.718,0.718c0.397,0,0.718-0.321,0.718-0.718l0,0
			C153.849,148.814,153.527,148.493,153.131,148.493z"/>
		<path style="fill:#087EF4;stroke:#087EF4;stroke-width:0.25;stroke-miterlimit:10;" d="M149.038,150.618L149.038,150.618
			c-0.397,0-0.718,0.322-0.718,0.718l0,0c0,0.397,0.322,0.718,0.718,0.718l0,0c0.397,0,0.718-0.321,0.718-0.718l0,0
			C149.756,150.94,149.434,150.618,149.038,150.618z"/>
		<path style="fill:#087EF4;stroke:#087EF4;stroke-width:0.25;stroke-miterlimit:10;" d="M151.084,150.618L151.084,150.618
			c-0.397,0-0.718,0.322-0.718,0.718l0,0c0,0.397,0.321,0.718,0.718,0.718l0,0c0.397,0,0.719-0.321,0.719-0.718l0,0
			C151.803,150.94,151.481,150.618,151.084,150.618z"/>
		<path style="fill:#087EF4;stroke:#087EF4;stroke-width:0.25;stroke-miterlimit:10;" d="M153.131,150.618
			c-0.397,0-0.718,0.322-0.718,0.718l0,0c0,0.397,0.321,0.718,0.718,0.718c0.397,0,0.718-0.321,0.718-0.718l0,0
			C153.849,150.94,153.527,150.618,153.131,150.618z"/>
		<path style="fill:#087EF4;stroke:#087EF4;stroke-width:0.25;stroke-miterlimit:10;" d="M153.131,152.744
			c-0.397,0-0.718,0.322-0.718,0.718l0,0c0,0.397,0.321,0.718,0.718,0.718c0.397,0,0.718-0.321,0.718-0.718l0,0
			C153.849,153.066,153.527,152.744,153.131,152.744z"/>
		<path style="fill:#087EF4;stroke:#087EF4;stroke-width:0.25;stroke-miterlimit:10;" d="M155.177,148.493
			c-0.396,0-0.718,0.322-0.718,0.718l0,0c0,0.397,0.322,0.718,0.718,0.718c0.397,0,0.718-0.321,0.718-0.718l0,0
			C155.896,148.814,155.574,148.493,155.177,148.493z"/>
		<path style="fill:#087EF4;stroke:#087EF4;stroke-width:0.25;stroke-miterlimit:10;" d="M155.177,150.618
			c-0.396,0-0.718,0.322-0.718,0.718l0,0c0,0.397,0.322,0.718,0.718,0.718c0.397,0,0.718-0.321,0.718-0.718l0,0
			C155.896,150.94,155.574,150.618,155.177,150.618z"/>
		<path style="fill:#087EF4;stroke:#087EF4;stroke-width:0.25;stroke-miterlimit:10;" d="M155.177,152.744
			c-0.396,0-0.718,0.322-0.718,0.718l0,0c0,0.397,0.322,0.718,0.718,0.718c0.397,0,0.718-0.321,0.718-0.718l0,0
			C155.896,153.066,155.574,152.744,155.177,152.744z"/>
		<path style="fill:#087EF4;stroke:#087EF4;stroke-width:0.25;stroke-miterlimit:10;" d="M149.038,152.744L149.038,152.744
			c-0.397,0-0.718,0.322-0.718,0.718l0,0c0,0.397,0.322,0.718,0.718,0.718l0,0c0.397,0,0.718-0.321,0.718-0.718l0,0
			C149.756,153.066,149.434,152.744,149.038,152.744z"/>
		<path style="fill:#087EF4;stroke:#087EF4;stroke-width:0.25;stroke-miterlimit:10;" d="M151.084,152.744L151.084,152.744
			c-0.397,0-0.718,0.322-0.718,0.718l0,0c0,0.397,0.321,0.718,0.718,0.718l0,0c0.397,0,0.719-0.321,0.719-0.718l0,0
			C151.803,153.066,151.481,152.744,151.084,152.744z"/>
	</g>
	<path style="fill:#305889;" d="M145.611,145.966c0-0.823,0.4-1.558,1.03-2.007c0.181-0.741,0.85-1.292,1.646-1.292h0.334
		c0.621,0,1.165,0.335,1.46,0.835h0.489c0.206-0.348,0.533-0.613,0.922-0.744v-6.506h-13.31h-0.962h-0.849h-2.695h-1.049h-6.598
		v8.36v0.096v0.505v0.277v7.864h19.582V145.966z M140.616,148.756c-0.286,0.259-0.625,0.457-1.022,0.604
		c-0.395,0.15-0.844,0.249-1.328,0.288l-0.16,1.628c-0.009,0.04-0.02,0.079-0.029,0.11c-0.019,0.028-0.049,0.058-0.099,0.079
		c-0.048,0.02-0.107,0.039-0.198,0.049l0.009,0.009c-0.078,0.011-0.187,0.019-0.316,0.019c-0.158,0-0.289-0.009-0.387-0.019
		c-0.099-0.02-0.18-0.039-0.229-0.07c-0.058-0.029-0.088-0.068-0.107-0.107c-0.021-0.051-0.021-0.101-0.01-0.15l0.158-1.548
		c-0.218-0.029-0.426-0.069-0.616-0.118c-0.198-0.05-0.367-0.098-0.525-0.16c-0.158-0.058-0.298-0.118-0.408-0.177
		c-0.108-0.061-0.198-0.119-0.258-0.178c-0.059-0.059-0.099-0.139-0.128-0.259c-0.03-0.109-0.039-0.277-0.039-0.506
		c0-0.169,0.01-0.316,0.02-0.427c0.01-0.108,0.029-0.197,0.049-0.258c0.031-0.06,0.06-0.099,0.099-0.129
		c0.039-0.019,0.08-0.029,0.131-0.029c0.069,0,0.158,0.038,0.287,0.108c0.128,0.079,0.288,0.16,0.485,0.247
		c0.198,0.09,0.438,0.179,0.714,0.249c0.28,0.079,0.607,0.108,0.983,0.108c0.596,0,1.032-0.108,1.319-0.326
		c0.29-0.219,0.438-0.516,0.438-0.883c0-0.248-0.062-0.446-0.188-0.595c-0.13-0.159-0.288-0.298-0.497-0.417
		c-0.209-0.118-0.446-0.228-0.703-0.318c-0.258-0.1-0.527-0.199-0.804-0.297c-0.266-0.11-0.534-0.228-0.803-0.377
		c-0.259-0.139-0.496-0.317-0.705-0.526c-0.206-0.208-0.366-0.456-0.496-0.754c-0.128-0.298-0.189-0.655-0.189-1.072
		c0-0.277,0.033-0.538,0.102-0.779l0.393-0.795c0.073-0.098,0.151-0.194,0.24-0.283c0.237-0.238,0.535-0.415,0.882-0.564
		c0.347-0.149,0.743-0.239,1.18-0.298l0.149-1.529c0.01-0.039,0.02-0.078,0.03-0.099c0.02-0.029,0.048-0.048,0.1-0.079
		c0.048-0.018,0.107-0.039,0.197-0.049c0.08-0.009,0.19-0.02,0.317-0.02c0.16,0,0.289,0.011,0.387,0.02
		c0.1,0.019,0.189,0.038,0.238,0.069c0.059,0.029,0.088,0.069,0.108,0.108c0.021,0.049,0.021,0.1,0.021,0.149l-0.148,1.439
		c0.138,0.018,0.297,0.049,0.445,0.078c0.16,0.039,0.308,0.081,0.438,0.13c0.139,0.049,0.256,0.099,0.366,0.158
		c0.11,0.05,0.19,0.1,0.23,0.15c0.039,0.039,0.078,0.089,0.098,0.128c0.021,0.041,0.04,0.1,0.051,0.16
		c0.009,0.07,0.018,0.138,0.029,0.228c0.008,0.089,0.008,0.188,0.008,0.308c0,0.158,0,0.288-0.008,0.386
		c-0.011,0.098-0.02,0.178-0.04,0.228c-0.02,0.049-0.04,0.089-0.071,0.109c-0.029,0.02-0.049,0.029-0.088,0.029
		c-0.071,0-0.161-0.029-0.288-0.099c-0.131-0.07-0.28-0.14-0.467-0.208c-0.188-0.08-0.398-0.151-0.636-0.209
		c-0.238-0.069-0.506-0.099-0.793-0.099c-0.257,0-0.486,0.03-0.674,0.079c-0.188,0.051-0.337,0.12-0.455,0.209
		c-0.121,0.089-0.2,0.198-0.259,0.327c-0.049,0.13-0.079,0.268-0.079,0.417c0,0.238,0.058,0.437,0.187,0.596
		c0.131,0.158,0.297,0.306,0.507,0.415c0.209,0.119,0.446,0.22,0.715,0.318c0.267,0.099,0.534,0.198,0.812,0.308
		c0.277,0.109,0.546,0.229,0.814,0.367c0.268,0.139,0.494,0.318,0.713,0.517c0.209,0.207,0.378,0.455,0.496,0.743
		c0.129,0.297,0.189,0.645,0.189,1.05c0,0.438-0.079,0.834-0.227,1.182C141.111,148.201,140.894,148.509,140.616,148.756z"/>
</g>
</svg>
