<?xml version="1.0" encoding="iso-8859-1"?>
<!-- Generator: Adobe Illustrator 17.0.0, SVG Export Plug-In . SVG Version: 6.00 Build 0)  -->
<!DOCTYPE svg PUBLIC "-//W3C//DTD SVG 1.1//EN" "http://www.w3.org/Graphics/SVG/1.1/DTD/svg11.dtd">
<svg version="1.1" id="Layer_1" xmlns="http://www.w3.org/2000/svg" xmlns:xlink="http://www.w3.org/1999/xlink" x="0px" y="0px"
	 width="32px" height="32px" viewBox="125.73 125.73 32 32" style="enable-background:new 125.73 125.73 32 32;"
	 xml:space="preserve">
<g>
	<g>
		
			<line style="fill:none;stroke:#008CF8;stroke-width:0.75;stroke-miterlimit:10;" x1="129.234" y1="147.34" x2="129.234" y2="155.61"/>
		<g>
			<polygon style="fill:#008CF8;" points="128.261,154.467 129.234,155.441 130.207,154.467 130.207,155.293 129.234,156.266 
				128.261,155.293 			"/>
		</g>
	</g>
</g>
<g>
	<g>
		
			<line style="fill:none;stroke:#008CF8;stroke-width:0.75;stroke-miterlimit:10;" x1="136.909" y1="147.34" x2="136.909" y2="153.964"/>
		<g>
			<polygon style="fill:#008CF8;" points="135.936,152.82 136.909,153.794 137.882,152.82 137.882,153.646 136.909,154.62 
				135.936,153.646 			"/>
		</g>
	</g>
</g>
<g>
	<g>
		
			<line style="fill:none;stroke:#008CF8;stroke-width:0.75;stroke-miterlimit:10;" x1="143.864" y1="147.34" x2="143.864" y2="152.086"/>
		<g>
			<polygon style="fill:#008CF8;" points="142.89,150.943 143.864,151.917 144.837,150.943 144.837,151.769 143.864,152.743 
				142.89,151.769 			"/>
		</g>
	</g>
</g>
<path style="fill:#305889;" d="M128.178,130.181c9.063,0,18.127,0,27.191,0c0,4.74,0,9.48,0,14.219c-0.518,0-1.037,0-1.556,0
	c0-4.175,0-8.35,0-12.524c-8.545,0-17.09,0-25.635,0C128.178,131.311,128.178,130.746,128.178,130.181L128.178,130.181z"/>
<path style="fill:#305889;" d="M130.269,127.95c9.063,0,18.127,0,27.191,0c0,4.74,0,9.48,0,14.219c-0.519,0-1.037,0-1.556,0
	c0-4.174,0-8.35,0-12.524c-8.545,0-17.09,0-25.635,0C130.269,129.08,130.269,128.515,130.269,127.95L130.269,127.95L130.269,127.95z
	"/>
<path style="fill:#305889;" d="M136.136,139.564c-0.121-0.111-0.246-0.209-0.394-0.285c-0.149-0.077-0.297-0.143-0.45-0.202
	c-0.154-0.061-0.302-0.116-0.45-0.17c-0.148-0.054-0.279-0.11-0.394-0.175c-0.115-0.061-0.208-0.143-0.28-0.23
	c-0.071-0.087-0.103-0.197-0.103-0.328c0-0.083,0.016-0.159,0.043-0.231c0.032-0.072,0.076-0.132,0.143-0.181
	c0.065-0.049,0.148-0.087,0.252-0.115c0.104-0.027,0.231-0.043,0.372-0.043c0.159,0,0.307,0.016,0.439,0.054
	c0.131,0.032,0.247,0.071,0.351,0.115c0.103,0.039,0.185,0.077,0.257,0.116c0.071,0.038,0.121,0.054,0.16,0.054
	c0.022,0,0.032-0.006,0.048-0.017c0.016-0.011,0.028-0.033,0.039-0.06c0.011-0.027,0.015-0.071,0.021-0.126
	c0.005-0.054,0.005-0.126,0.005-0.213c0-0.066,0-0.121-0.005-0.17c-0.006-0.05-0.011-0.088-0.016-0.126
	c-0.005-0.032-0.016-0.065-0.028-0.088c-0.01-0.022-0.032-0.049-0.053-0.072c-0.023-0.027-0.067-0.054-0.127-0.082
	c-0.061-0.032-0.126-0.06-0.203-0.088c-0.071-0.027-0.153-0.05-0.242-0.072c-0.081-0.016-0.169-0.033-0.246-0.044l0.082-0.795
	c0-0.027,0-0.055-0.011-0.083c-0.011-0.021-0.027-0.043-0.06-0.059c-0.027-0.017-0.077-0.028-0.131-0.039
	c-0.054-0.005-0.126-0.011-0.214-0.011c-0.07,0-0.13,0.006-0.175,0.011c-0.049,0.007-0.082,0.018-0.108,0.028
	c-0.028,0.016-0.044,0.027-0.055,0.044c-0.006,0.011-0.012,0.033-0.017,0.054l-0.082,0.844c-0.241,0.032-0.461,0.082-0.652,0.165
	c-0.192,0.082-0.357,0.18-0.488,0.311c-0.132,0.132-0.231,0.28-0.302,0.456c-0.071,0.169-0.104,0.361-0.104,0.57
	c0,0.231,0.033,0.427,0.104,0.592c0.072,0.164,0.16,0.301,0.273,0.416c0.116,0.115,0.247,0.214,0.39,0.29
	c0.149,0.083,0.297,0.148,0.444,0.209c0.154,0.054,0.302,0.109,0.445,0.164c0.143,0.049,0.273,0.11,0.389,0.176
	c0.115,0.065,0.202,0.142,0.274,0.23c0.071,0.082,0.105,0.192,0.105,0.329c0,0.203-0.082,0.367-0.242,0.488
	c-0.159,0.12-0.399,0.18-0.728,0.18c-0.208,0-0.388-0.016-0.543-0.06c-0.152-0.039-0.285-0.088-0.394-0.138
	c-0.109-0.048-0.198-0.093-0.268-0.137c-0.072-0.038-0.121-0.06-0.159-0.06c-0.028,0-0.051,0.005-0.072,0.015
	c-0.022,0.017-0.039,0.039-0.055,0.072c-0.012,0.033-0.022,0.083-0.028,0.143c-0.005,0.061-0.011,0.142-0.011,0.235
	c0,0.126,0.006,0.219,0.021,0.28c0.017,0.066,0.038,0.11,0.072,0.143c0.032,0.033,0.082,0.065,0.142,0.099
	c0.06,0.033,0.137,0.066,0.225,0.098c0.087,0.033,0.181,0.06,0.291,0.087c0.104,0.027,0.219,0.05,0.339,0.066l-0.087,0.856
	c-0.006,0.027-0.006,0.055,0.005,0.083c0.011,0.022,0.027,0.043,0.06,0.059c0.027,0.016,0.072,0.027,0.126,0.038
	c0.054,0.006,0.126,0.011,0.214,0.011c0.071,0,0.133-0.005,0.175-0.011l-0.005-0.005c0.05-0.006,0.083-0.017,0.109-0.027
	c0.028-0.011,0.045-0.028,0.055-0.043c0.005-0.017,0.011-0.039,0.016-0.061l0.089-0.899c0.267-0.021,0.515-0.076,0.733-0.159
	c0.219-0.081,0.407-0.191,0.564-0.334c0.154-0.136,0.274-0.307,0.363-0.499c0.081-0.192,0.125-0.41,0.125-0.653
	c0-0.224-0.034-0.416-0.104-0.58C136.344,139.815,136.251,139.678,136.136,139.564z"/>
<g>
	<path style="fill:#305889;" d="M126.087,132.412c0,4.74,0,9.48,0,14.219c9.064,0,18.127,0,27.191,0c0-4.74,0-9.48,0-14.219
		C144.214,132.412,135.15,132.412,126.087,132.412z M138.552,143.418c-0.996,0.995-2.374,1.613-3.896,1.613
		c-1.521,0-2.9-0.618-3.895-1.613c-0.997-0.996-1.614-2.375-1.614-3.896s0.617-2.9,1.614-3.895c0.996-0.997,2.374-1.614,3.895-1.614
		c1.522,0,2.901,0.618,3.896,1.614c0.996,0.995,1.613,2.373,1.613,3.895C140.165,141.043,139.548,142.422,138.552,143.418z
		 M142.158,136.368v-0.527c0-0.668,0.218-1.209,0.654-1.62c0.436-0.411,1.02-0.616,1.753-0.616c0.743,0,1.329,0.204,1.76,0.613
		c0.431,0.408,0.647,0.962,0.647,1.66v0.535c0,0.668-0.216,1.206-0.647,1.612c-0.431,0.406-1.013,0.609-1.746,0.609
		c-0.728,0-1.313-0.202-1.757-0.605C142.379,137.624,142.158,137.071,142.158,136.368z M143.888,143.179l5.281-8.453l1.166,0.587
		l-5.281,8.453L143.888,143.179z M152.118,142.496c0,0.673-0.215,1.214-0.646,1.619c-0.431,0.407-1.015,0.609-1.753,0.609
		c-0.728,0-1.313-0.202-1.757-0.606c-0.443-0.403-0.665-0.956-0.665-1.66v-0.535c0-0.673,0.219-1.213,0.657-1.619
		c0.438-0.406,1.021-0.609,1.749-0.609c0.738,0,1.324,0.2,1.76,0.601c0.436,0.401,0.654,0.961,0.654,1.679L152.118,142.496
		L152.118,142.496z"/>
	<path style="fill:#305889;" d="M145.399,136.422v-0.514c0-0.297-0.081-0.542-0.241-0.733c-0.162-0.191-0.388-0.287-0.681-0.287
		c-0.282,0-0.506,0.093-0.673,0.279c-0.167,0.186-0.251,0.438-0.251,0.758v0.643c0,0.297,0.084,0.539,0.251,0.724
		c0.167,0.186,0.397,0.279,0.69,0.279C145.097,137.571,145.399,137.187,145.399,136.422z"/>
	<path style="fill:#305889;" d="M149.771,140.929c-0.255,0-0.46,0.081-0.615,0.242c-0.154,0.161-0.237,0.379-0.247,0.654v0.65
		c0,0.248,0.085,0.466,0.255,0.654c0.171,0.188,0.378,0.281,0.622,0.281c0.516,0,0.795-0.243,0.837-0.729l0.008-0.816
		c0-0.28-0.077-0.506-0.231-0.678C150.247,141.015,150.037,140.929,149.771,140.929z"/>
</g>
</svg>
