<?xml version="1.0" encoding="iso-8859-1"?>
<!-- Generator: Adobe Illustrator 17.0.0, SVG Export Plug-In . SVG Version: 6.00 Build 0)  -->
<!DOCTYPE svg PUBLIC "-//W3C//DTD SVG 1.1//EN" "http://www.w3.org/Graphics/SVG/1.1/DTD/svg11.dtd">
<svg version="1.1" id="Layer_1" xmlns="http://www.w3.org/2000/svg" xmlns:xlink="http://www.w3.org/1999/xlink" x="0px" y="0px"
	 width="32px" height="32px" viewBox="125.73 125.73 32 32" style="enable-background:new 125.73 125.73 32 32;"
	 xml:space="preserve">
<path style="fill:#305889;" d="M128.717,131.899c8.254,0,16.508,0,24.762,0c0,4.316,0,8.633,0,12.949c-0.472,0-0.944,0-1.417,0
	c0-3.802,0-7.604,0-11.406c-7.782,0-15.564,0-23.345,0C128.717,132.928,128.717,132.414,128.717,131.899L128.717,131.899z"/>
<path style="fill:#305889;" d="M135.053,140.937c-0.108-0.099-0.22-0.186-0.351-0.255c-0.133-0.068-0.265-0.128-0.401-0.18
	c-0.138-0.055-0.269-0.103-0.401-0.152c-0.132-0.049-0.249-0.098-0.352-0.156c-0.103-0.054-0.185-0.127-0.25-0.206
	c-0.063-0.078-0.092-0.176-0.092-0.293c0-0.074,0.015-0.142,0.038-0.206c0.029-0.064,0.068-0.117,0.127-0.161
	c0.058-0.043,0.132-0.078,0.225-0.103c0.093-0.025,0.206-0.039,0.332-0.039c0.142,0,0.274,0.014,0.392,0.049
	c0.117,0.029,0.22,0.063,0.313,0.102c0.092,0.034,0.165,0.068,0.229,0.103c0.063,0.034,0.108,0.049,0.143,0.049
	c0.019,0,0.029-0.005,0.043-0.015c0.015-0.01,0.025-0.029,0.035-0.053c0.009-0.024,0.014-0.064,0.019-0.113
	c0.005-0.048,0.005-0.112,0.005-0.19c0-0.059,0-0.108-0.005-0.152c-0.005-0.044-0.009-0.078-0.014-0.113
	c-0.005-0.029-0.015-0.058-0.025-0.078c-0.009-0.019-0.029-0.044-0.048-0.064c-0.02-0.024-0.06-0.048-0.113-0.073
	c-0.054-0.029-0.112-0.054-0.181-0.078c-0.064-0.024-0.137-0.044-0.216-0.064c-0.072-0.015-0.151-0.029-0.22-0.039l0.073-0.709
	c0-0.024,0-0.049-0.01-0.074c-0.01-0.019-0.025-0.039-0.053-0.053c-0.024-0.015-0.069-0.025-0.117-0.035
	c-0.048-0.004-0.112-0.01-0.191-0.01c-0.063,0-0.116,0.006-0.156,0.01c-0.044,0.006-0.073,0.016-0.097,0.025
	c-0.025,0.015-0.04,0.024-0.049,0.039c-0.005,0.01-0.011,0.029-0.015,0.049l-0.074,0.753c-0.215,0.029-0.411,0.073-0.581,0.147
	c-0.171,0.073-0.318,0.16-0.435,0.278c-0.118,0.118-0.206,0.25-0.269,0.407c-0.064,0.151-0.093,0.322-0.093,0.508
	c0,0.206,0.03,0.381,0.093,0.528c0.064,0.147,0.143,0.269,0.244,0.371c0.104,0.103,0.22,0.191,0.348,0.259
	c0.133,0.074,0.265,0.132,0.396,0.187c0.137,0.048,0.269,0.097,0.397,0.146c0.127,0.043,0.244,0.098,0.347,0.157
	c0.102,0.058,0.18,0.126,0.244,0.205c0.063,0.074,0.094,0.171,0.094,0.293c0,0.181-0.073,0.327-0.216,0.435
	c-0.141,0.108-0.356,0.161-0.65,0.161c-0.185,0-0.346-0.014-0.485-0.053c-0.136-0.035-0.254-0.079-0.351-0.123
	c-0.098-0.043-0.176-0.082-0.239-0.122c-0.064-0.034-0.108-0.053-0.141-0.053c-0.025,0-0.045,0.005-0.064,0.014
	c-0.019,0.015-0.034,0.034-0.049,0.064c-0.01,0.029-0.02,0.074-0.025,0.127c-0.005,0.054-0.01,0.127-0.01,0.21
	c0,0.113,0.005,0.196,0.019,0.249c0.016,0.059,0.034,0.098,0.064,0.127c0.029,0.029,0.073,0.058,0.127,0.088
	c0.054,0.029,0.122,0.058,0.201,0.088c0.078,0.03,0.161,0.053,0.259,0.078c0.093,0.025,0.196,0.044,0.303,0.058l-0.077,0.763
	c-0.005,0.024-0.005,0.049,0.005,0.074c0.009,0.019,0.025,0.038,0.053,0.053c0.024,0.015,0.065,0.024,0.113,0.034
	c0.048,0.006,0.113,0.01,0.19,0.01c0.063,0,0.118-0.004,0.156-0.01l-0.004-0.004c0.045-0.006,0.074-0.015,0.097-0.025
	c0.025-0.01,0.04-0.025,0.049-0.039c0.005-0.015,0.01-0.034,0.014-0.054l0.079-0.802c0.238-0.019,0.46-0.068,0.654-0.142
	c0.195-0.073,0.363-0.171,0.503-0.298c0.137-0.121,0.245-0.274,0.324-0.445c0.072-0.171,0.112-0.366,0.112-0.582
	c0-0.2-0.03-0.371-0.093-0.517C135.239,141.16,135.156,141.039,135.053,140.937z"/>
<path style="fill:#305889;" d="M126.126,134.425c0,4.316,0,8.633,0,12.949c8.254,0,16.508,0,24.762,0c0-4.316,0-8.633,0-12.949
	C142.634,134.425,134.38,134.425,126.126,134.425z M137.356,144.715c-0.955,0.955-2.277,1.547-3.738,1.547
	c-1.459,0-2.782-0.592-3.737-1.547c-0.956-0.955-1.548-2.278-1.548-3.738c0-1.46,0.592-2.782,1.548-3.737
	c0.955-0.956,2.277-1.549,3.737-1.549c1.46,0,2.783,0.593,3.738,1.549c0.956,0.955,1.548,2.277,1.548,3.737
	C138.904,142.437,138.312,143.76,137.356,144.715z M141.282,138.581v-0.438c0-0.556,0.181-1.005,0.544-1.346
	c0.362-0.341,0.847-0.512,1.457-0.512c0.617,0,1.105,0.17,1.463,0.509c0.358,0.34,0.537,0.8,0.537,1.38v0.444
	c0,0.556-0.179,1.002-0.537,1.34c-0.359,0.337-0.842,0.506-1.451,0.506c-0.605,0-1.092-0.167-1.46-0.503
	C141.466,139.625,141.282,139.165,141.282,138.581z M142.721,144.242l4.39-7.026l0.969,0.488l-4.39,7.026L142.721,144.242z
	 M149.561,143.674c0,0.56-0.179,1.008-0.537,1.346c-0.358,0.338-0.844,0.506-1.457,0.506c-0.605,0-1.092-0.168-1.46-0.503
	c-0.369-0.335-0.553-0.795-0.553-1.38v-0.445c0-0.559,0.182-1.008,0.547-1.346c0.364-0.337,0.848-0.506,1.454-0.506
	c0.613,0,1.101,0.167,1.463,0.5c0.362,0.334,0.543,0.799,0.543,1.395V143.674L149.561,143.674z"/>
<path style="fill:#305889;" d="M143.943,138.512v-0.368c0-0.213-0.057-0.388-0.172-0.525c-0.116-0.137-0.278-0.206-0.488-0.206
	c-0.202,0-0.362,0.067-0.481,0.2c-0.12,0.133-0.179,0.314-0.179,0.543v0.46c0,0.213,0.06,0.386,0.179,0.518
	c0.119,0.133,0.284,0.2,0.494,0.2C143.727,139.334,143.943,139.059,143.943,138.512z"/>
<path style="fill:#305889;" d="M147.555,142.476c-0.198,0-0.356,0.062-0.475,0.187c-0.119,0.124-0.184,0.293-0.192,0.506v0.503
	c0,0.192,0.066,0.361,0.197,0.506c0.132,0.145,0.292,0.218,0.482,0.218c0.399,0,0.615-0.188,0.648-0.564l0.006-0.632
	c0-0.217-0.059-0.392-0.179-0.525C147.923,142.543,147.76,142.476,147.555,142.476z"/>
<g>
	<g>
		<path style="fill:none;stroke:#008CF8;stroke-width:0.75;stroke-miterlimit:10;" d="M142.477,150.851
			c0,0,14.058,2.749,14.132-11.363v-3.872"/>
		<g>
			<polygon style="fill:#008CF8;" points="157.59,136.769 156.608,135.786 155.626,136.769 155.626,135.935 156.608,134.953 
				157.59,135.935 			"/>
		</g>
	</g>
</g>
</svg>
