<?xml version="1.0" encoding="iso-8859-1"?>
<!-- Generator: Adobe Illustrator 17.0.0, SVG Export Plug-In . SVG Version: 6.00 Build 0)  -->
<!DOCTYPE svg PUBLIC "-//W3C//DTD SVG 1.1//EN" "http://www.w3.org/Graphics/SVG/1.1/DTD/svg11.dtd">
<svg version="1.1" id="Layer_1" xmlns="http://www.w3.org/2000/svg" xmlns:xlink="http://www.w3.org/1999/xlink" x="0px" y="0px"
	 width="32px" height="32px" viewBox="125.73 125.73 32 32" style="enable-background:new 125.73 125.73 32 32;"
	 xml:space="preserve">
<g>
	<g style="enable-background:new    ;">
		<path style="fill:#984C2A;" d="M129.601,137.249c0.161,0,0.31,0.015,0.447,0.045c0.136,0.031,0.273,0.075,0.411,0.134
			l-0.153,0.631c-0.13-0.045-0.245-0.079-0.346-0.102c-0.102-0.022-0.219-0.034-0.353-0.034c-0.261,0-0.471,0.098-0.629,0.293
			c-0.158,0.196-0.231,0.466-0.22,0.813l0.009,0.015c0.096-0.1,0.218-0.179,0.366-0.236s0.313-0.085,0.498-0.085
			c0.383,0,0.684,0.136,0.901,0.408c0.217,0.272,0.326,0.62,0.326,1.042c0,0.432-0.134,0.789-0.402,1.07
			c-0.268,0.281-0.616,0.422-1.042,0.422c-0.454,0-0.824-0.154-1.109-0.461c-0.285-0.308-0.427-0.734-0.427-1.278v-0.837
			c0-0.563,0.162-1.009,0.486-1.342C128.687,137.415,129.1,137.249,129.601,137.249z M129.403,139.375
			c-0.159,0-0.294,0.026-0.407,0.077c-0.112,0.051-0.198,0.121-0.259,0.209v0.286c0,0.339,0.062,0.6,0.184,0.783
			c0.123,0.182,0.287,0.273,0.491,0.273c0.177,0,0.319-0.081,0.426-0.243c0.107-0.162,0.161-0.357,0.161-0.587
			c0-0.238-0.054-0.43-0.162-0.577C129.729,139.448,129.584,139.375,129.403,139.375z"/>
		<path style="fill:#984C2A;" d="M134.232,139.932c0,0.568-0.13,0.999-0.391,1.293s-0.613,0.441-1.057,0.441
			c-0.448,0-0.803-0.147-1.064-0.441c-0.262-0.294-0.392-0.725-0.392-1.293v-0.946c0-0.566,0.13-0.997,0.391-1.292
			c0.26-0.296,0.613-0.444,1.06-0.444c0.444,0,0.798,0.148,1.06,0.444c0.262,0.295,0.394,0.727,0.394,1.292V139.932z
			 M133.375,138.896c0-0.339-0.051-0.588-0.153-0.747s-0.25-0.237-0.442-0.237c-0.194,0-0.342,0.079-0.442,0.236
			c-0.101,0.157-0.15,0.406-0.15,0.748v1.116c0,0.346,0.05,0.597,0.152,0.754c0.101,0.157,0.25,0.235,0.446,0.235
			c0.193,0,0.339-0.079,0.439-0.235c0.1-0.157,0.15-0.409,0.15-0.754V138.896z"/>
		<path style="fill:#984C2A;" d="M136.508,140.1h-1.663v-0.664h1.663V140.1z"/>
		<path style="fill:#984C2A;" d="M139.97,138.449c0,0.214-0.057,0.404-0.169,0.569c-0.113,0.165-0.269,0.293-0.467,0.386
			c0.228,0.096,0.408,0.234,0.54,0.413c0.131,0.179,0.197,0.383,0.197,0.613c0,0.397-0.135,0.702-0.404,0.916
			c-0.27,0.213-0.621,0.32-1.056,0.32c-0.438,0-0.792-0.107-1.063-0.32c-0.271-0.213-0.406-0.519-0.406-0.916
			c0-0.232,0.065-0.437,0.196-0.615s0.311-0.316,0.541-0.414c-0.201-0.093-0.357-0.221-0.469-0.385
			c-0.112-0.164-0.168-0.354-0.168-0.568c0-0.381,0.125-0.676,0.375-0.886c0.25-0.209,0.579-0.314,0.987-0.314
			c0.407,0,0.736,0.104,0.988,0.314S139.97,138.067,139.97,138.449z M139.209,140.37c0-0.192-0.056-0.346-0.168-0.462
			c-0.112-0.116-0.257-0.173-0.437-0.173c-0.181,0-0.326,0.058-0.435,0.173c-0.109,0.116-0.164,0.27-0.164,0.462
			c0,0.196,0.055,0.351,0.165,0.463c0.11,0.113,0.256,0.169,0.439,0.169c0.179,0,0.323-0.057,0.434-0.17
			C139.154,140.718,139.209,140.564,139.209,140.37z M139.112,138.487c0-0.173-0.046-0.312-0.137-0.417
			c-0.091-0.105-0.215-0.158-0.37-0.158c-0.157,0-0.28,0.052-0.368,0.155c-0.089,0.104-0.133,0.244-0.133,0.42
			c0,0.179,0.044,0.321,0.134,0.426c0.089,0.105,0.213,0.158,0.373,0.158c0.155,0,0.278-0.052,0.367-0.158
			C139.067,138.808,139.112,138.666,139.112,138.487z"/>
		<path style="fill:#984C2A;" d="M141.871,141.002c0.226,0,0.41-0.083,0.552-0.251s0.215-0.407,0.215-0.719v-0.212
			c-0.098,0.122-0.211,0.214-0.344,0.277c-0.133,0.063-0.276,0.094-0.429,0.094c-0.399,0-0.713-0.13-0.942-0.391
			c-0.229-0.261-0.344-0.613-0.344-1.057c0-0.428,0.136-0.785,0.407-1.069c0.271-0.284,0.616-0.426,1.035-0.426
			c0.439,0,0.794,0.151,1.068,0.453c0.271,0.302,0.408,0.726,0.408,1.272v1.014c0,0.521-0.152,0.931-0.457,1.229
			c-0.307,0.299-0.695,0.448-1.169,0.448c-0.149,0-0.303-0.016-0.461-0.046c-0.158-0.031-0.305-0.076-0.441-0.135l0.1-0.625
			c0.128,0.049,0.254,0.085,0.379,0.108C141.573,140.991,141.714,141.002,141.871,141.002z M142.01,139.561
			c0.141,0,0.265-0.027,0.371-0.08c0.107-0.053,0.191-0.124,0.258-0.212v-0.395c0-0.314-0.057-0.553-0.166-0.716
			s-0.259-0.245-0.448-0.245c-0.173,0-0.314,0.081-0.423,0.242c-0.109,0.161-0.164,0.357-0.164,0.589
			c0,0.244,0.05,0.441,0.149,0.591S141.827,139.561,142.01,139.561z"/>
	</g>
	
		<line style="fill:none;stroke:#984C2A;stroke-width:0.75;stroke-miterlimit:10;" x1="149.122" y1="134.954" x2="126.595" y2="134.954"/>
	<path style="fill:#984C2A;" d="M140.693,147.571c-1.045,0-1.891,0.846-1.891,1.891l0,0c0,1.044,0.847,1.891,1.891,1.891
		c1.044,0,1.891-0.846,1.891-1.891l0,0C142.583,148.417,141.737,147.571,140.693,147.571z"/>
	<path style="fill:#984C2A;" d="M129.918,147.571L129.918,147.571c-1.044,0-1.891,0.846-1.891,1.891l0,0
		c0,1.044,0.847,1.891,1.891,1.891l0,0c1.044,0,1.891-0.846,1.891-1.891l0,0C131.809,148.417,130.962,147.571,129.918,147.571z"/>
	<path style="fill:#984C2A;" d="M135.305,147.571L135.305,147.571c-1.045,0-1.891,0.846-1.891,1.891l0,0
		c0,1.044,0.846,1.891,1.891,1.891l0,0c1.045,0,1.891-0.846,1.891-1.891l0,0C137.196,148.417,136.35,147.571,135.305,147.571z"/>
	<polygon style="fill:#984C2A;" points="154.926,147.571 149.734,147.571 149.734,140.629 150.869,140.629 150.869,146.435 
		154.926,146.435 	"/>
	<path style="fill:none;stroke:#984C2A;stroke-width:0.75;stroke-miterlimit:10;" d="M143.213,145.195
		c0-3.661,2.79-6.837,6.36-7.185v-4.788c0-1.321-0.998-2.413-2.279-2.564v-0.969c0-0.49-0.399-0.889-0.888-0.889h-0.736
		c-0.49,0-0.889,0.399-0.889,0.889v0.949h-5.726v-0.949c0-0.49-0.399-0.889-0.889-0.889h-0.735c-0.49,0-0.889,0.399-0.889,0.889
		v0.949h-5.726v-0.949c0-0.49-0.399-0.889-0.889-0.889h-0.735c-0.49,0-0.889,0.399-0.889,0.889v0.985
		c-1.234,0.201-2.161,1.262-2.161,2.547v18.265c0,1.425,1.159,2.583,2.583,2.583h18.265c1.176,0,2.209-0.728,2.52-1.805
		C145.99,151.87,143.213,148.821,143.213,145.195z"/>
	<g>
		<path style="fill:none;stroke:#984C2A;stroke-width:0.75;stroke-miterlimit:10;" d="M157.333,143.625
			c-0.017-0.081-0.036-0.161-0.057-0.241c-0.049-0.193-0.107-0.383-0.171-0.569c-0.97-2.796-3.628-4.804-6.754-4.804
			c-3.948,0-7.147,3.2-7.147,7.148c0,3.947,3.2,7.148,7.147,7.148c0.74,0,1.454-0.112,2.125-0.321l-2.08-2.38"/>
		
			<line style="fill:none;stroke:#984C2A;stroke-width:0.75;stroke-miterlimit:10;" x1="152.853" y1="151.94" x2="150.371" y2="154.646"/>
	</g>
</g>
</svg>
