<?xml version="1.0" encoding="iso-8859-1"?>
<!-- Generator: Adobe Illustrator 17.0.0, SVG Export Plug-In . SVG Version: 6.00 Build 0)  -->
<!DOCTYPE svg PUBLIC "-//W3C//DTD SVG 1.1//EN" "http://www.w3.org/Graphics/SVG/1.1/DTD/svg11.dtd">
<svg version="1.1" id="Layer_1" xmlns="http://www.w3.org/2000/svg" xmlns:xlink="http://www.w3.org/1999/xlink" x="0px" y="0px"
	 width="32px" height="32px" viewBox="125.73 125.73 32 32" style="enable-background:new 125.73 125.73 32 32;"
	 xml:space="preserve">
<g>
	<g style="enable-background:new    ;">
		<path style="fill:#8B1919;" d="M130.931,142.215c0.317,0,0.574-0.117,0.775-0.352c0.2-0.234,0.299-0.57,0.299-1.007v-0.298
			c-0.135,0.171-0.295,0.3-0.481,0.388c-0.186,0.088-0.386,0.132-0.601,0.132c-0.559,0-0.999-0.183-1.32-0.547
			c-0.321-0.365-0.481-0.859-0.481-1.481c0-0.6,0.19-1.1,0.57-1.498c0.38-0.398,0.863-0.597,1.45-0.597
			c0.614,0,1.113,0.211,1.495,0.634c0.383,0.423,0.574,1.017,0.574,1.783v1.421c0,0.73-0.214,1.304-0.643,1.722
			c-0.428,0.419-0.974,0.628-1.638,0.628c-0.209,0-0.425-0.021-0.647-0.064c-0.222-0.043-0.428-0.106-0.618-0.189l0.14-0.874
			c0.179,0.069,0.356,0.119,0.531,0.151C130.513,142.199,130.711,142.215,130.931,142.215z M131.125,140.194
			c0.198,0,0.372-0.037,0.521-0.111c0.149-0.074,0.268-0.174,0.359-0.298v-0.553c0-0.44-0.077-0.775-0.231-1.004
			c-0.154-0.229-0.364-0.343-0.628-0.343c-0.242,0-0.44,0.113-0.593,0.338c-0.153,0.226-0.229,0.502-0.229,0.826
			c0,0.342,0.069,0.617,0.208,0.828C130.671,140.089,130.869,140.194,131.125,140.194z"/>
		<path style="fill:#8B1919;" d="M138.098,140.715c0,0.796-0.182,1.4-0.547,1.811c-0.365,0.412-0.858,0.617-1.481,0.617
			c-0.628,0-1.125-0.206-1.492-0.617c-0.366-0.412-0.549-1.015-0.549-1.811v-1.326c0-0.793,0.183-1.397,0.547-1.811
			c0.365-0.415,0.86-0.622,1.485-0.622c0.622,0,1.117,0.207,1.485,0.622c0.368,0.414,0.551,1.018,0.551,1.811V140.715z
			 M136.896,139.264c0-0.476-0.072-0.825-0.215-1.046c-0.143-0.221-0.35-0.332-0.62-0.332c-0.272,0-0.479,0.11-0.619,0.33
			c-0.14,0.22-0.211,0.57-0.211,1.048v1.564c0,0.484,0.071,0.836,0.213,1.056c0.142,0.22,0.35,0.33,0.626,0.33
			c0.27,0,0.475-0.11,0.615-0.33c0.14-0.22,0.211-0.572,0.211-1.056V139.264z"/>
		<path style="fill:#8B1919;" d="M141.356,139.703h1.488v1.041h-1.488v1.71h-1.139v-1.71h-1.496v-1.041h1.496v-1.628h1.139V139.703z
			"/>
	</g>
	
		<line style="fill:none;stroke:#8B1919;stroke-width:0.75;stroke-miterlimit:10;" x1="149.154" y1="135.03" x2="126.857" y2="135.03"/>
	<path style="fill:#8B1919;" d="M138.586,148.182c-0.85,0-1.54,0.689-1.54,1.54l0,0c0,0.85,0.689,1.539,1.54,1.539
		c0.85,0,1.539-0.689,1.539-1.539l0,0C140.126,148.871,139.437,148.182,138.586,148.182z"/>
	<path style="fill:#8B1919;" d="M129.814,148.182L129.814,148.182c-0.85,0-1.54,0.689-1.54,1.54l0,0c0,0.85,0.69,1.539,1.54,1.539
		l0,0c0.85,0,1.54-0.689,1.54-1.539l0,0C131.353,148.871,130.664,148.182,129.814,148.182z"/>
	<path style="fill:#8B1919;" d="M134.2,148.182L134.2,148.182c-0.85,0-1.54,0.689-1.54,1.54l0,0c0,0.85,0.689,1.539,1.54,1.539l0,0
		c0.85,0,1.54-0.689,1.54-1.539l0,0C135.74,148.871,135.051,148.182,134.2,148.182z"/>
	<polygon style="fill:#8B1919;" points="154.411,147.167 149.601,147.167 149.601,140.736 150.653,140.736 150.653,146.115 
		154.411,146.115 	"/>
	<path style="fill:none;stroke:#8B1919;stroke-width:0.75;stroke-miterlimit:10;" d="M143.306,145.166
		c0-3.624,2.762-6.728,6.295-7.072v-4.779c0-1.308-0.988-2.388-2.256-2.537v-0.959c0-0.485-0.395-0.88-0.879-0.88h-0.729
		c-0.485,0-0.879,0.394-0.879,0.88v0.94h-5.668v-0.94c0-0.485-0.394-0.88-0.88-0.88h-0.727c-0.485,0-0.88,0.394-0.88,0.88v0.94
		h-5.668v-0.94c0-0.485-0.395-0.88-0.88-0.88h-0.727c-0.485,0-0.88,0.394-0.88,0.88v0.975c-1.222,0.199-2.139,1.249-2.139,2.521
		v18.079c0,1.41,1.147,2.557,2.557,2.557h18.079c1.164,0,2.147-0.733,2.455-1.799C146.015,151.76,143.306,148.755,143.306,145.166z"
		/>
	<g>
		<path style="fill:none;stroke:#8B1919;stroke-width:0.75;stroke-miterlimit:10;" d="M157.26,143.612
			c-0.017-0.08-0.036-0.16-0.057-0.239c-0.048-0.191-0.105-0.379-0.169-0.563c-0.96-2.768-3.591-4.755-6.685-4.755
			c-3.907,0-7.074,3.168-7.074,7.075c0,3.907,3.167,7.074,7.074,7.074c0.733,0,1.439-0.111,2.104-0.318l-2.059-2.356"/>
		
			<line style="fill:none;stroke:#8B1919;stroke-width:0.75;stroke-miterlimit:10;" x1="152.826" y1="151.842" x2="150.37" y2="154.521"/>
	</g>
</g>
</svg>
