<?xml version="1.0" encoding="iso-8859-1"?>
<!-- Generator: Adobe Illustrator 17.0.0, SVG Export Plug-In . SVG Version: 6.00 Build 0)  -->
<!DOCTYPE svg PUBLIC "-//W3C//DTD SVG 1.1//EN" "http://www.w3.org/Graphics/SVG/1.1/DTD/svg11.dtd">
<svg version="1.1" id="Layer_1" xmlns="http://www.w3.org/2000/svg" xmlns:xlink="http://www.w3.org/1999/xlink" x="0px" y="0px"
	 width="32px" height="32px" viewBox="125.73 125.73 32 32" style="enable-background:new 125.73 125.73 32 32;"
	 xml:space="preserve">
<g>
	<g>
		
			<line style="fill:none;stroke:#C88163;stroke-width:0.75;stroke-miterlimit:10;" x1="149.092" y1="134.97" x2="126.596" y2="134.97"/>
		<path style="fill:#C88163;" d="M140.007,147.769c-0.988,0-1.789,0.8-1.789,1.789l0,0c0,0.988,0.801,1.788,1.789,1.788
			c0.988,0,1.788-0.8,1.788-1.788l0,0C141.795,148.57,140.995,147.769,140.007,147.769z"/>
		<path style="fill:#C88163;" d="M129.814,147.769L129.814,147.769c-0.988,0-1.789,0.8-1.789,1.789l0,0
			c0,0.988,0.801,1.788,1.789,1.788l0,0c0.988,0,1.789-0.8,1.789-1.788l0,0C131.603,148.57,130.802,147.769,129.814,147.769z"/>
		<path style="fill:#C88163;" d="M134.91,147.769L134.91,147.769c-0.988,0-1.789,0.8-1.789,1.789l0,0
			c0,0.988,0.801,1.788,1.789,1.788l0,0c0.988,0,1.789-0.8,1.789-1.788l0,0C136.699,148.57,135.898,147.769,134.91,147.769z"/>
		<polygon style="fill:#C88163;" points="154.178,147.769 148.991,147.769 148.991,140.834 150.125,140.834 150.125,146.634 
			154.178,146.634 		"/>
		<path style="fill:none;stroke:#C88163;stroke-width:0.75;stroke-miterlimit:10;" d="M143.191,145.197
			c0-3.656,2.786-6.785,6.351-7.132v-4.824c0-1.32-0.996-2.41-2.276-2.56v-0.967c0-0.49-0.398-0.887-0.887-0.887h-0.735
			c-0.489,0-0.887,0.398-0.887,0.887v0.948h-5.718v-0.948c0-0.49-0.398-0.887-0.888-0.887h-0.734c-0.49,0-0.887,0.398-0.887,0.887
			v0.948h-5.718v-0.948c0-0.49-0.398-0.887-0.888-0.887h-0.734c-0.49,0-0.888,0.398-0.888,0.887v0.984
			c-1.233,0.2-2.158,1.26-2.158,2.543v18.24c0,1.423,1.158,2.58,2.58,2.58h18.24c1.175,0,2.167-0.743,2.477-1.819
			C145.925,151.846,143.191,148.818,143.191,145.197z"/>
		<g>
			<path style="fill:none;stroke:#C88163;stroke-width:0.75;stroke-miterlimit:10;" d="M157.298,143.629
				c-0.017-0.081-0.037-0.161-0.057-0.241c-0.049-0.193-0.106-0.382-0.171-0.568c-0.969-2.792-3.623-4.797-6.745-4.797
				c-3.942,0-7.138,3.196-7.138,7.138c0,3.942,3.196,7.138,7.138,7.138c0.739,0,1.452-0.112,2.123-0.321l-2.077-2.377"/>
			
				<line style="fill:none;stroke:#C88163;stroke-width:0.75;stroke-miterlimit:10;" x1="152.824" y1="151.932" x2="150.345" y2="154.635"/>
		</g>
	</g>
	<g>
		<path style="fill:#C88163;" d="M128.237,139.056h-0.013l-0.793,0.377l-0.16-0.729l1.1-0.512h0.806v4.156h-0.94V139.056z"/>
		<path style="fill:#C88163;" d="M131.784,139.056h-0.013l-0.793,0.377l-0.16-0.729l1.1-0.512h0.806v4.156h-0.94V139.056z"/>
		<path style="fill:#C88163;" d="M135.688,140.347v0.646h-1.675v-0.646H135.688z"/>
		<path style="fill:#C88163;" d="M136.147,142.348v-0.588l0.537-0.486c0.908-0.812,1.349-1.278,1.362-1.765
			c0-0.339-0.205-0.607-0.684-0.607c-0.358,0-0.671,0.179-0.889,0.346l-0.275-0.697c0.313-0.236,0.799-0.428,1.362-0.428
			c0.939,0,1.458,0.55,1.458,1.304c0,0.697-0.505,1.253-1.106,1.79l-0.384,0.32v0.013h1.566v0.799H136.147z"/>
		<path style="fill:#C88163;" d="M140.001,141.645c0.122,0.013,0.23,0.013,0.422,0c0.294-0.02,0.594-0.103,0.818-0.256
			c0.269-0.186,0.447-0.454,0.524-0.767l-0.019-0.006c-0.186,0.191-0.454,0.3-0.831,0.3c-0.703,0-1.298-0.492-1.298-1.298
			c0-0.812,0.652-1.496,1.566-1.496c1.068,0,1.573,0.818,1.573,1.79c0,0.863-0.275,1.496-0.729,1.912
			c-0.396,0.358-0.94,0.557-1.585,0.582c-0.167,0.013-0.333,0.006-0.441,0V141.645z M140.589,139.561
			c0,0.358,0.192,0.665,0.588,0.665c0.262,0,0.447-0.128,0.537-0.275c0.032-0.058,0.051-0.122,0.051-0.243
			c0-0.441-0.166-0.876-0.607-0.876C140.826,138.832,140.583,139.126,140.589,139.561z"/>
	</g>
</g>
</svg>
