<?xml version="1.0" encoding="iso-8859-1"?>
<!-- Generator: Adobe Illustrator 17.0.0, SVG Export Plug-In . SVG Version: 6.00 Build 0)  -->
<!DOCTYPE svg PUBLIC "-//W3C//DTD SVG 1.1//EN" "http://www.w3.org/Graphics/SVG/1.1/DTD/svg11.dtd">
<svg version="1.1" id="Layer_1" xmlns="http://www.w3.org/2000/svg" xmlns:xlink="http://www.w3.org/1999/xlink" x="0px" y="0px"
	 width="32px" height="32px" viewBox="125.73 125.73 32 32" style="enable-background:new 125.73 125.73 32 32;"
	 xml:space="preserve">
<g>
	<g style="enable-background:new    ;">
		<path style="fill:#B2623F;" d="M128.948,139.061h0.494c0.21,0,0.364-0.055,0.465-0.164c0.1-0.11,0.151-0.262,0.151-0.457
			c0-0.177-0.05-0.319-0.151-0.426c-0.1-0.106-0.247-0.16-0.438-0.16c-0.165,0-0.303,0.049-0.416,0.145
			c-0.112,0.097-0.169,0.223-0.169,0.38h-0.853l-0.006-0.018c-0.013-0.344,0.119-0.627,0.395-0.851
			c0.276-0.223,0.618-0.335,1.026-0.335c0.454,0,0.817,0.109,1.087,0.326s0.406,0.527,0.406,0.929c0,0.191-0.061,0.373-0.181,0.544
			c-0.121,0.172-0.286,0.307-0.498,0.403c0.243,0.086,0.429,0.219,0.556,0.397c0.128,0.18,0.191,0.388,0.191,0.625
			c0,0.403-0.146,0.718-0.439,0.948c-0.293,0.231-0.667,0.346-1.124,0.346c-0.408,0-0.759-0.108-1.051-0.324
			c-0.292-0.216-0.434-0.522-0.424-0.915l0.006-0.019h0.854c0,0.168,0.061,0.307,0.181,0.416c0.121,0.109,0.273,0.164,0.458,0.164
			c0.203,0,0.363-0.056,0.481-0.168c0.118-0.112,0.177-0.265,0.177-0.457c0-0.231-0.058-0.4-0.173-0.508
			c-0.116-0.107-0.286-0.16-0.512-0.16h-0.494V139.061z"/>
		<path style="fill:#B2623F;" d="M134.562,139.921c0,0.58-0.133,1.021-0.4,1.322c-0.266,0.3-0.627,0.451-1.081,0.451
			c-0.459,0-0.822-0.151-1.089-0.451c-0.268-0.301-0.402-0.742-0.402-1.322v-0.969c0-0.579,0.133-1.02,0.4-1.323
			c0.266-0.303,0.628-0.454,1.085-0.454c0.454,0,0.816,0.151,1.085,0.454c0.268,0.303,0.403,0.744,0.403,1.323V139.921z
			 M133.684,138.861c0-0.348-0.052-0.602-0.157-0.764c-0.105-0.162-0.255-0.243-0.452-0.243c-0.199,0-0.35,0.08-0.453,0.241
			c-0.103,0.161-0.154,0.416-0.154,0.765v1.142c0,0.354,0.052,0.611,0.155,0.771c0.104,0.16,0.256,0.241,0.457,0.241
			c0.197,0,0.347-0.081,0.45-0.241c0.103-0.16,0.154-0.418,0.154-0.771V138.861z"/>
		<path style="fill:#B2623F;" d="M136.89,140.093h-1.701v-0.679h1.701V140.093z"/>
		<path style="fill:#B2623F;" d="M137.675,139.686l0.253-2.447h2.45v0.706h-1.728l-0.121,1.014c0.08-0.061,0.178-0.11,0.292-0.149
			c0.115-0.039,0.242-0.059,0.38-0.062c0.422-0.006,0.75,0.122,0.982,0.383c0.232,0.261,0.348,0.625,0.348,1.092
			c0,0.422-0.127,0.774-0.381,1.053c-0.254,0.279-0.621,0.419-1.1,0.419c-0.404,0-0.75-0.11-1.038-0.332
			c-0.288-0.221-0.426-0.525-0.416-0.911l0.006-0.015l0.848-0.041c0,0.194,0.055,0.347,0.166,0.456
			c0.111,0.11,0.255,0.165,0.434,0.165c0.205,0,0.357-0.073,0.454-0.218c0.097-0.145,0.146-0.336,0.146-0.571
			c0-0.253-0.052-0.456-0.157-0.608c-0.104-0.152-0.259-0.229-0.464-0.229c-0.169,0-0.298,0.031-0.388,0.093
			c-0.089,0.062-0.153,0.147-0.191,0.254L137.675,139.686z"/>
		<path style="fill:#B2623F;" d="M142.377,141.016c0.231,0,0.42-0.085,0.566-0.257c0.146-0.171,0.219-0.416,0.219-0.734v-0.218
			c-0.099,0.124-0.215,0.22-0.351,0.284c-0.136,0.064-0.282,0.096-0.439,0.096c-0.408,0-0.729-0.133-0.963-0.399
			c-0.235-0.266-0.352-0.626-0.352-1.081c0-0.438,0.139-0.803,0.416-1.093c0.278-0.291,0.631-0.436,1.059-0.436
			c0.448,0,0.813,0.154,1.092,0.463s0.419,0.743,0.419,1.302v1.038c0,0.532-0.156,0.953-0.469,1.258
			c-0.313,0.306-0.711,0.458-1.196,0.458c-0.153,0-0.31-0.015-0.472-0.047c-0.162-0.032-0.312-0.077-0.451-0.137l0.103-0.639
			c0.131,0.05,0.26,0.087,0.388,0.11C142.072,141.004,142.217,141.016,142.377,141.016z M142.519,139.54
			c0.145,0,0.272-0.027,0.38-0.081c0.109-0.055,0.196-0.127,0.262-0.217v-0.404c0-0.322-0.056-0.566-0.169-0.733
			c-0.112-0.167-0.265-0.25-0.458-0.25c-0.177,0-0.321,0.082-0.433,0.248c-0.111,0.165-0.167,0.366-0.167,0.603
			c0,0.25,0.051,0.451,0.153,0.605C142.188,139.464,142.332,139.54,142.519,139.54z"/>
	</g>
	
		<line style="fill:none;stroke:#B2623F;stroke-width:0.75;stroke-miterlimit:10;" x1="149.153" y1="135.067" x2="126.8" y2="135.067"/>
	<path style="fill:#B2623F;" d="M140.516,147.668c-1.014,0-1.836,0.822-1.836,1.836l0,0c0,1.014,0.822,1.835,1.836,1.835
		c1.014,0,1.835-0.822,1.835-1.835l0,0C142.352,148.49,141.53,147.668,140.516,147.668z"/>
	<path style="fill:#B2623F;" d="M130.056,147.668L130.056,147.668c-1.014,0-1.836,0.822-1.836,1.836l0,0
		c0,1.014,0.822,1.835,1.836,1.835l0,0c1.014,0,1.836-0.822,1.836-1.835l0,0C131.892,148.49,131.07,147.668,130.056,147.668z"/>
	<path style="fill:#B2623F;" d="M135.286,147.668L135.286,147.668c-1.014,0-1.836,0.822-1.836,1.836l0,0
		c0,1.014,0.822,1.835,1.836,1.835l0,0c1.014,0,1.836-0.822,1.836-1.835l0,0C137.122,148.49,136.3,147.668,135.286,147.668z"/>
	<polygon style="fill:#B2623F;" points="154.912,147.98 149.582,147.98 149.582,140.852 150.747,140.852 150.747,146.814 
		154.912,146.814 	"/>
	<path style="fill:none;stroke:#B2623F;stroke-width:0.75;stroke-miterlimit:10;" d="M143.29,145.229
		c0-3.633,2.769-6.748,6.311-7.094v-4.787c0-1.311-0.99-2.395-2.262-2.544v-0.961c0-0.486-0.396-0.882-0.882-0.882h-0.73
		c-0.486,0-0.882,0.396-0.882,0.882v0.942h-5.682v-0.942c0-0.486-0.396-0.882-0.882-0.882h-0.729c-0.486,0-0.882,0.396-0.882,0.882
		v0.942h-5.682v-0.942c0-0.486-0.396-0.882-0.882-0.882h-0.729c-0.486,0-0.883,0.396-0.883,0.882v0.978
		c-1.225,0.199-2.144,1.252-2.144,2.527v18.124c0,1.414,1.15,2.563,2.563,2.563h18.124c1.167,0,2.153-0.682,2.461-1.752
		C146.006,151.892,143.29,148.827,143.29,145.229z"/>
	<g>
		<path style="fill:none;stroke:#B2623F;stroke-width:0.75;stroke-miterlimit:10;" d="M157.24,143.671
			c-0.017-0.081-0.037-0.16-0.057-0.24c-0.049-0.191-0.106-0.38-0.17-0.565c-0.963-2.775-3.6-4.767-6.702-4.767
			c-3.917,0-7.092,3.176-7.092,7.092c0,3.917,3.175,7.092,7.092,7.092c0.734,0,1.443-0.112,2.109-0.319l-2.064-2.362"/>
		
			<line style="fill:none;stroke:#B2623F;stroke-width:0.75;stroke-miterlimit:10;" x1="152.795" y1="151.922" x2="150.332" y2="154.607"/>
	</g>
</g>
</svg>
