<?xml version="1.0" encoding="iso-8859-1"?>
<!-- Generator: Adobe Illustrator 17.0.0, SVG Export Plug-In . SVG Version: 6.00 Build 0)  -->
<!DOCTYPE svg PUBLIC "-//W3C//DTD SVG 1.1//EN" "http://www.w3.org/Graphics/SVG/1.1/DTD/svg11.dtd">
<svg version="1.1" id="Layer_1" xmlns="http://www.w3.org/2000/svg" xmlns:xlink="http://www.w3.org/1999/xlink" x="0px" y="0px"
	 width="32px" height="32px" viewBox="125.73 125.73 32 32" style="enable-background:new 125.73 125.73 32 32;"
	 xml:space="preserve">
<g>
	
		<line style="fill:none;stroke:#F17633;stroke-width:0.75;stroke-miterlimit:10;" x1="149.107" y1="135.156" x2="126.957" y2="135.156"/>
	<path style="fill:#F17633;" d="M131.437,139.17L131.437,139.17c-0.845,0-1.53,0.685-1.53,1.529l0,0c0,0.845,0.685,1.529,1.53,1.529
		l0,0c0.845,0,1.529-0.685,1.529-1.529l0,0C132.967,139.854,132.282,139.17,131.437,139.17z"/>
	<path style="fill:#F17633;" d="M135.795,139.17L135.795,139.17c-0.845,0-1.529,0.685-1.529,1.529l0,0
		c0,0.845,0.685,1.529,1.529,1.529l0,0c0.845,0,1.53-0.685,1.53-1.529l0,0C137.324,139.854,136.639,139.17,135.795,139.17z"/>
	<path style="fill:#F17633;" d="M131.437,143.696L131.437,143.696c-0.845,0-1.53,0.684-1.53,1.529l0,0c0,0.845,0.685,1.53,1.53,1.53
		l0,0c0.845,0,1.529-0.685,1.529-1.53l0,0C132.967,144.38,132.282,143.696,131.437,143.696z"/>
	<path style="fill:#F17633;" d="M135.795,143.696L135.795,143.696c-0.845,0-1.529,0.684-1.529,1.529l0,0
		c0,0.845,0.685,1.53,1.529,1.53l0,0c0.845,0,1.53-0.685,1.53-1.53l0,0C137.324,144.38,136.639,143.696,135.795,143.696z"/>
	<path style="fill:#F17633;" d="M140.152,139.17L140.152,139.17c-0.845,0-1.53,0.685-1.53,1.529l0,0c0,0.845,0.685,1.529,1.53,1.529
		l0,0c0.845,0,1.53-0.685,1.53-1.529l0,0C141.681,139.854,140.996,139.17,140.152,139.17z"/>
	<path style="fill:#F17633;" d="M140.152,143.696L140.152,143.696c-0.845,0-1.53,0.684-1.53,1.529l0,0c0,0.845,0.685,1.53,1.53,1.53
		l0,0c0.845,0,1.53-0.685,1.53-1.53l0,0C141.681,144.38,140.996,143.696,140.152,143.696z"/>
	<path style="fill:#F17633;" d="M140.152,148.222c-0.845,0-1.53,0.684-1.53,1.529l0,0c0,0.845,0.685,1.529,1.53,1.529
		c0.845,0,1.529-0.685,1.529-1.529l0,0C141.681,148.906,140.997,148.222,140.152,148.222z"/>
	<path style="fill:#F17633;" d="M131.437,148.222L131.437,148.222c-0.845,0-1.53,0.684-1.53,1.529l0,0
		c0,0.845,0.685,1.529,1.53,1.529l0,0c0.845,0,1.529-0.685,1.529-1.529l0,0C132.967,148.906,132.282,148.222,131.437,148.222z"/>
	<path style="fill:#F17633;" d="M135.795,148.222L135.795,148.222c-0.845,0-1.529,0.684-1.529,1.529l0,0
		c0,0.845,0.685,1.529,1.529,1.529l0,0c0.845,0,1.53-0.685,1.53-1.529l0,0C137.324,148.906,136.639,148.222,135.795,148.222z"/>
	<polygon style="fill:#F17633;" points="154.068,147.296 149.134,147.296 149.134,140.699 150.213,140.699 150.213,146.216 
		154.068,146.216 	"/>
	<path style="fill:none;stroke:#F17633;stroke-width:0.75;stroke-miterlimit:10;" d="M143.297,145.225c0-3.6,2.743-6.608,6.254-6.95
		v-4.823c0-1.299-0.981-2.373-2.241-2.521v-0.953c0-0.482-0.392-0.874-0.874-0.874h-0.724c-0.482,0-0.874,0.392-0.874,0.874v0.933
		h-5.63v-0.933c0-0.482-0.392-0.874-0.874-0.874h-0.723c-0.482,0-0.874,0.392-0.874,0.874v0.933h-5.631v-0.933
		c0-0.482-0.392-0.874-0.874-0.874h-0.723c-0.482,0-0.875,0.392-0.875,0.874v0.969c-1.214,0.197-2.125,1.24-2.125,2.504v17.96
		c0,1.401,1.14,2.54,2.54,2.54h17.96c1.157,0,2.133-0.67,2.439-1.73C145.988,151.833,143.297,148.791,143.297,145.225z"/>
	<g>
		<path style="fill:none;stroke:#F17633;stroke-width:0.75;stroke-miterlimit:10;" d="M157.226,143.749
			c-0.017-0.08-0.036-0.159-0.056-0.237c-0.048-0.19-0.105-0.376-0.168-0.56c-0.954-2.749-3.567-4.723-6.641-4.723
			c-3.882,0-7.028,3.147-7.028,7.028c0,3.882,3.146,7.028,7.028,7.028c0.728,0,1.43-0.11,2.09-0.316l-2.045-2.34"/>
		
			<line style="fill:none;stroke:#F17633;stroke-width:0.75;stroke-miterlimit:10;" x1="152.821" y1="151.925" x2="150.381" y2="154.586"/>
	</g>
</g>
</svg>
