<?xml version="1.0" encoding="iso-8859-1"?>
<!-- Generator: Adobe Illustrator 17.0.0, SVG Export Plug-In . SVG Version: 6.00 Build 0)  -->
<!DOCTYPE svg PUBLIC "-//W3C//DTD SVG 1.1//EN" "http://www.w3.org/Graphics/SVG/1.1/DTD/svg11.dtd">
<svg version="1.1" id="Layer_1" xmlns="http://www.w3.org/2000/svg" xmlns:xlink="http://www.w3.org/1999/xlink" x="0px" y="0px"
	 width="32px" height="32px" viewBox="125.73 125.73 32 32" style="enable-background:new 125.73 125.73 32 32;"
	 xml:space="preserve">
<g>
	<g>
		<path style="fill:#305889;" d="M153.016,131.303l-3.35-3.349l-1.692-1.692c-0.036-0.036-0.077-0.065-0.121-0.089
			c-0.009-0.006-0.02-0.011-0.03-0.016c-0.077-0.038-0.162-0.06-0.249-0.06H131.54c-0.728,0-1.32,0.592-1.32,1.32v28.708
			c0,0.728,0.592,1.32,1.32,1.32h20.373c0.728,0,1.32-0.592,1.32-1.32v-24.298c0.004-0.024,0.008-0.048,0.008-0.073
			C153.241,131.57,153.153,131.406,153.016,131.303z M137.231,130.459h7.657c0.56,0,1.013,0.454,1.013,1.014
			c0,0.56-0.454,1.014-1.013,1.014h-7.657c-0.56,0-1.014-0.454-1.014-1.014C136.217,130.912,136.671,130.459,137.231,130.459z
			 M132.342,130.459c0-0.209,0.169-0.377,0.377-0.377h2.027c0.208,0,0.377,0.168,0.377,0.377v2.027c0,0.208-0.169,0.377-0.377,0.377
			h-2.027c-0.208,0-0.377-0.169-0.377-0.377V130.459z M132.342,134.851c0-0.208,0.169-0.377,0.377-0.377h2.027
			c0.208,0,0.377,0.169,0.377,0.377v2.027c0,0.208-0.169,0.377-0.377,0.377h-2.027c-0.208,0-0.377-0.169-0.377-0.377V134.851z
			 M132.342,141.27v-2.027c0-0.209,0.169-0.377,0.377-0.377h2.027c0.208,0,0.377,0.169,0.377,0.377v2.027
			c0,0.209-0.169,0.377-0.377,0.377h-2.027C132.511,141.647,132.342,141.478,132.342,141.27z M137.484,154.528
			c-2.659,0-4.815-2.156-4.815-4.815c0-2.659,2.156-4.815,4.815-4.815s4.815,2.156,4.815,4.815S140.143,154.528,137.484,154.528z
			 M149.318,141.27h-12.087c-0.56,0-1.014-0.454-1.014-1.014c0-0.56,0.454-1.014,1.014-1.014h12.087c0.56,0,1.014,0.455,1.014,1.014
			C150.331,140.816,149.877,141.27,149.318,141.27z M149.318,136.878h-12.087c-0.56,0-1.014-0.455-1.014-1.014
			c0-0.56,0.454-1.014,1.014-1.014h12.087c0.559,0,1.013,0.454,1.013,1.014C150.331,136.424,149.877,136.878,149.318,136.878z
			 M148.329,131.188c-0.102,0-0.189-0.086-0.189-0.188v-2.972l0,0h0v0l0.902,0.901l2.258,2.259H148.329z M138.286,146.502h-1.605
			v3.676l2.277,1.301l0.796-1.394l-1.468-0.839V146.502z"/>
	</g>
</g>
</svg>
