<?xml version="1.0" encoding="iso-8859-1"?>
<!-- Generator: Adobe Illustrator 17.0.0, SVG Export Plug-In . SVG Version: 6.00 Build 0)  -->
<!DOCTYPE svg PUBLIC "-//W3C//DTD SVG 1.1//EN" "http://www.w3.org/Graphics/SVG/1.1/DTD/svg11.dtd">
<svg version="1.1" id="Layer_1" xmlns="http://www.w3.org/2000/svg" xmlns:xlink="http://www.w3.org/1999/xlink" x="0px" y="0px"
	 width="32px" height="32px" viewBox="125.73 125.73 32 32" style="enable-background:new 125.73 125.73 32 32;"
	 xml:space="preserve">
<g>
	<g>
		<path style="fill:#305889;" d="M150.207,129.266h-5.283h-2.022c0.055,0.143,0.159,0.267,0.302,0.343l0.527,0.284
			c0.417,0.223,0.717,0.615,0.827,1.077c0.109,0.462,0.011,0.949-0.26,1.333l-0.345,0.491c-0.166,0.23-0.162,0.542,0.004,0.77
			l0.353,0.486c0.28,0.381,0.381,0.867,0.28,1.329c-0.102,0.462-0.397,0.859-0.811,1.09l-0.523,0.292
			c-0.247,0.138-0.381,0.417-0.329,0.697l0.11,0.588c0.085,0.466-0.032,0.944-0.324,1.317c-0.292,0.373-0.729,0.601-1.203,0.628
			l-0.6,0.036c-0.284,0.017-0.527,0.211-0.6,0.483l-0.158,0.579c-0.194,0.717-0.851,1.216-1.592,1.216
			c-0.215,0-0.426-0.045-0.629-0.125l-0.555-0.227c-0.259-0.105-0.567-0.032-0.75,0.179l-0.393,0.454
			c-0.316,0.361-0.77,0.567-1.248,0.567c-0.239,0-0.474-0.054-0.688-0.154v0.183v4.306v7.493v2.392h21.252v-22.764L150.207,129.266z
			 M152.969,155.73h-15.534v-1.394h15.534V155.73z M152.969,152.333h-15.534v-1.394h15.534V152.333z M152.969,148.937h-15.534
			v-1.394h15.534V148.937z M152.969,145.541h-15.534v-1.395h15.534V145.541z M148.605,135.813v-5.449l5.262,5.449H148.605z"/>
	</g>
</g>
<path style="fill:#27CD2F;" d="M141.715,133.829l-0.255-0.352c-0.12-0.164-0.123-0.39-0.003-0.557l0.249-0.355
	c0.196-0.278,0.266-0.63,0.188-0.965c-0.079-0.334-0.296-0.618-0.598-0.779l-0.381-0.205c-0.182-0.097-0.278-0.296-0.246-0.498
	l0.073-0.428c0.056-0.337-0.035-0.683-0.249-0.95c-0.217-0.267-0.537-0.428-0.876-0.443l-0.434-0.018
	c-0.205-0.009-0.381-0.147-0.437-0.343l-0.126-0.413c-0.147-0.507-0.619-0.862-1.149-0.862c-0.161,0-0.323,0.032-0.472,0.097
	l-0.399,0.17c-0.185,0.079-0.41,0.03-0.542-0.12l-0.29-0.322c-0.225-0.252-0.551-0.399-0.888-0.399c-0.346,0-0.674,0.15-0.903,0.41
	l-0.281,0.328c-0.132,0.152-0.355,0.205-0.542,0.129l-0.402-0.164c-0.146-0.059-0.299-0.091-0.454-0.091
	c-0.536,0-1.011,0.361-1.152,0.88l-0.114,0.419c-0.053,0.197-0.229,0.337-0.434,0.349l-0.431,0.026
	c-0.34,0.018-0.659,0.185-0.87,0.455c-0.211,0.269-0.296,0.618-0.235,0.952l0.079,0.425c0.038,0.202-0.059,0.405-0.237,0.504
	l-0.378,0.211c-0.299,0.167-0.513,0.454-0.586,0.789c-0.073,0.334,0,0.686,0.203,0.962l0.255,0.348
	c0.12,0.165,0.123,0.39,0.003,0.557l-0.249,0.355c-0.196,0.279-0.267,0.63-0.188,0.965c0.079,0.334,0.296,0.618,0.598,0.779
	l0.381,0.205c0.182,0.097,0.278,0.296,0.246,0.499l-0.073,0.428c-0.055,0.337,0.035,0.683,0.249,0.95
	c0.217,0.267,0.537,0.428,0.876,0.442l0.434,0.018c0.205,0.009,0.381,0.147,0.437,0.343l0.12,0.416
	c0.147,0.507,0.619,0.862,1.149,0.862c0.161,0,0.322-0.032,0.472-0.097l0.398-0.17c0.185-0.079,0.411-0.03,0.543,0.12l0.29,0.322
	c0.226,0.252,0.551,0.399,0.889,0.399c0.346,0,0.674-0.149,0.903-0.41l0.284-0.329c0.132-0.152,0.355-0.205,0.542-0.129l0.401,0.164
	c0.147,0.059,0.299,0.091,0.455,0.091c0.536,0,1.011-0.361,1.152-0.879l0.114-0.419c0.053-0.196,0.229-0.337,0.434-0.349
	l0.434-0.026c0.343-0.02,0.66-0.185,0.87-0.455c0.211-0.27,0.296-0.615,0.235-0.952l-0.079-0.425
	c-0.038-0.202,0.059-0.405,0.238-0.504l0.378-0.211c0.299-0.167,0.513-0.454,0.586-0.788
	C141.99,134.456,141.917,134.104,141.715,133.829z M134.926,137.478c-2.333,0-4.23-1.899-4.23-4.23c0-2.333,1.897-4.229,4.23-4.229
	c2.334,0,4.23,1.896,4.23,4.229C139.156,135.578,137.26,137.478,134.926,137.478z"/>
<path style="fill:#27CD2F;" d="M136.92,131.022l-3.009,2.991l-0.977-0.982c-0.27-0.269-0.702-0.269-0.971,0
	c-0.269,0.269-0.269,0.702-0.005,0.971l1.465,1.471c0.129,0.129,0.303,0.202,0.489,0.202c0.179,0,0.354-0.073,0.483-0.202
	l3.497-3.475c0.27-0.27,0.27-0.702,0.006-0.971C137.628,130.758,137.19,130.758,136.92,131.022z"/>
</svg>
