<?xml version="1.0" encoding="iso-8859-1"?>
<!-- Generator: Adobe Illustrator 17.0.0, SVG Export Plug-In . SVG Version: 6.00 Build 0)  -->
<!DOCTYPE svg PUBLIC "-//W3C//DTD SVG 1.1//EN" "http://www.w3.org/Graphics/SVG/1.1/DTD/svg11.dtd">
<svg version="1.1" id="Layer_1" xmlns="http://www.w3.org/2000/svg" xmlns:xlink="http://www.w3.org/1999/xlink" x="0px" y="0px"
	 width="32px" height="32px" viewBox="125.73 125.73 32 32" style="enable-background:new 125.73 125.73 32 32;"
	 xml:space="preserve">
<g>
	<path style="fill:#27CD2F;" d="M140.747,137.552l-0.269-0.372c-0.127-0.173-0.13-0.411-0.003-0.588l0.263-0.374
		c0.207-0.294,0.282-0.666,0.198-1.019c-0.084-0.354-0.313-0.653-0.632-0.823l-0.403-0.217c-0.192-0.102-0.294-0.312-0.26-0.526
		l0.077-0.452c0.059-0.356-0.037-0.722-0.263-1.003c-0.229-0.282-0.567-0.452-0.925-0.467l-0.458-0.018
		c-0.217-0.009-0.403-0.155-0.461-0.363l-0.133-0.436c-0.154-0.536-0.653-0.91-1.213-0.91c-0.17,0-0.34,0.034-0.498,0.102
		l-0.421,0.179c-0.195,0.084-0.433,0.032-0.572-0.127l-0.306-0.341c-0.238-0.266-0.581-0.421-0.937-0.421
		c-0.366,0-0.712,0.158-0.954,0.433l-0.297,0.347c-0.139,0.16-0.375,0.216-0.572,0.136l-0.424-0.173
		c-0.155-0.062-0.315-0.096-0.48-0.096c-0.566,0-1.067,0.381-1.217,0.929l-0.121,0.443c-0.056,0.207-0.241,0.356-0.458,0.368
		l-0.455,0.028c-0.359,0.019-0.696,0.195-0.919,0.48c-0.223,0.284-0.313,0.653-0.248,1.005l0.084,0.449
		c0.04,0.214-0.062,0.427-0.25,0.532l-0.399,0.223c-0.316,0.177-0.542,0.48-0.619,0.833c-0.077,0.353,0,0.724,0.214,1.015
		l0.269,0.368c0.127,0.174,0.13,0.411,0.003,0.588l-0.263,0.375c-0.207,0.294-0.281,0.666-0.198,1.019
		c0.084,0.353,0.313,0.653,0.632,0.823l0.402,0.216c0.192,0.102,0.294,0.312,0.26,0.526l-0.077,0.452
		c-0.059,0.356,0.037,0.721,0.263,1.003c0.229,0.282,0.567,0.452,0.925,0.467l0.458,0.019c0.217,0.009,0.403,0.155,0.461,0.362
		l0.127,0.439c0.155,0.536,0.653,0.91,1.213,0.91c0.17,0,0.34-0.034,0.498-0.103l0.42-0.179c0.195-0.084,0.434-0.031,0.573,0.127
		l0.307,0.34c0.239,0.267,0.582,0.421,0.938,0.421c0.366,0,0.712-0.157,0.954-0.433l0.3-0.347c0.139-0.16,0.374-0.216,0.573-0.136
		l0.424,0.173c0.154,0.063,0.316,0.097,0.48,0.097c0.567,0,1.068-0.381,1.216-0.929l0.121-0.443
		c0.056-0.207,0.242-0.356,0.459-0.368l0.458-0.027c0.362-0.021,0.697-0.195,0.919-0.48c0.223-0.285,0.312-0.65,0.247-1.006
		l-0.084-0.449c-0.04-0.214,0.062-0.427,0.251-0.532l0.399-0.223c0.316-0.176,0.542-0.479,0.619-0.832
		C141.039,138.214,140.961,137.842,140.747,137.552z M133.58,141.405c-2.463,0-4.466-2.006-4.466-4.466
		c0-2.464,2.003-4.466,4.466-4.466c2.464,0,4.466,2.002,4.466,4.466C138.046,139.399,136.044,141.405,133.58,141.405z"/>
	<path style="fill:#27CD2F;" d="M135.619,134.662l-3.076,3.059l-1-1.005c-0.276-0.275-0.717-0.275-0.993,0
		c-0.276,0.276-0.276,0.718-0.005,0.993l1.498,1.505c0.132,0.131,0.31,0.206,0.5,0.206c0.183,0,0.362-0.075,0.494-0.206l3.576-3.554
		c0.276-0.276,0.276-0.718,0.007-0.993C136.343,134.392,135.895,134.392,135.619,134.662z"/>
	<g>
		<path style="fill:#305889;" d="M142.667,137.818c0.216,0.348,0.295,0.767,0.207,1.17c-0.098,0.445-0.382,0.826-0.78,1.048
			l-0.502,0.281c-0.238,0.132-0.367,0.401-0.316,0.67l0.105,0.566c0.081,0.448-0.031,0.908-0.312,1.266
			c-0.28,0.358-0.701,0.577-1.158,0.604l-0.577,0.035c-0.273,0.016-0.507,0.204-0.577,0.464l-0.152,0.558
			c-0.187,0.689-0.818,1.169-1.531,1.169c-0.206,0-0.409-0.043-0.604-0.121l-0.533-0.218c-0.25-0.101-0.546-0.031-0.722,0.171
			l-0.377,0.438c-0.304,0.346-0.74,0.544-1.2,0.544c-0.387,0-0.756-0.151-1.045-0.407v8.423h24.803v-16.66H142.667z M151.254,149.32
			c-0.167,0.362-0.393,0.682-0.682,0.939c-0.297,0.269-0.65,0.475-1.063,0.629c-0.411,0.156-0.877,0.259-1.381,0.299l-0.166,1.693
			c-0.009,0.042-0.021,0.082-0.031,0.114c-0.02,0.03-0.051,0.061-0.103,0.082c-0.049,0.021-0.111,0.04-0.206,0.051l0.01,0.01
			c-0.081,0.011-0.195,0.02-0.329,0.02c-0.165,0-0.301-0.009-0.402-0.02c-0.103-0.021-0.187-0.04-0.238-0.072
			c-0.061-0.03-0.091-0.071-0.112-0.111c-0.021-0.053-0.021-0.105-0.01-0.156l0.165-1.61c-0.227-0.03-0.443-0.072-0.64-0.123
			c-0.206-0.052-0.382-0.102-0.546-0.166c-0.165-0.061-0.31-0.123-0.424-0.185c-0.113-0.063-0.206-0.124-0.268-0.185
			c-0.061-0.062-0.103-0.144-0.133-0.269c-0.031-0.113-0.041-0.288-0.041-0.526c0-0.176,0.01-0.329,0.02-0.444
			c0.01-0.112,0.031-0.205,0.052-0.268c0.032-0.062,0.062-0.103,0.103-0.134c0.04-0.02,0.083-0.03,0.136-0.03
			c0.071,0,0.165,0.04,0.299,0.113c0.133,0.082,0.299,0.166,0.504,0.257c0.206,0.094,0.455,0.186,0.742,0.259
			c0.291,0.082,0.631,0.112,1.022,0.112c0.619,0,1.073-0.112,1.371-0.339c0.301-0.228,0.455-0.536,0.455-0.918
			c0-0.257-0.064-0.464-0.196-0.619c-0.135-0.166-0.299-0.309-0.517-0.433c-0.217-0.123-0.464-0.238-0.731-0.33
			c-0.269-0.104-0.547-0.207-0.837-0.309c-0.277-0.114-0.555-0.238-0.834-0.392c-0.27-0.145-0.515-0.33-0.733-0.547
			c-0.215-0.217-0.381-0.475-0.515-0.784c-0.134-0.31-0.196-0.681-0.196-1.114c0-0.392,0.063-0.753,0.196-1.072
			c0.135-0.33,0.32-0.609,0.568-0.858c0.247-0.247,0.556-0.432,0.918-0.586c0.361-0.155,0.773-0.249,1.227-0.31l0.155-1.589
			c0.01-0.04,0.02-0.081,0.031-0.103c0.02-0.031,0.05-0.05,0.104-0.082c0.05-0.019,0.111-0.04,0.205-0.051
			c0.083-0.009,0.198-0.021,0.329-0.021c0.167,0,0.301,0.012,0.403,0.021c0.104,0.02,0.196,0.04,0.248,0.072
			c0.062,0.031,0.091,0.072,0.112,0.113c0.022,0.051,0.022,0.104,0.022,0.154l-0.154,1.497c0.143,0.019,0.309,0.05,0.462,0.081
			c0.166,0.041,0.321,0.084,0.455,0.136c0.144,0.051,0.266,0.103,0.381,0.164c0.114,0.052,0.198,0.104,0.239,0.156
			c0.04,0.04,0.081,0.092,0.102,0.133c0.022,0.043,0.042,0.105,0.053,0.166c0.01,0.072,0.019,0.143,0.031,0.237
			c0.008,0.092,0.008,0.195,0.008,0.32c0,0.165,0,0.299-0.008,0.402c-0.012,0.103-0.021,0.185-0.041,0.238
			c-0.02,0.051-0.042,0.092-0.074,0.113c-0.03,0.021-0.051,0.031-0.091,0.031c-0.074,0-0.167-0.031-0.299-0.103
			c-0.136-0.072-0.291-0.145-0.485-0.216c-0.196-0.083-0.414-0.157-0.662-0.217c-0.248-0.072-0.526-0.103-0.825-0.103
			c-0.267,0-0.506,0.031-0.701,0.082c-0.196,0.053-0.351,0.125-0.474,0.217c-0.125,0.092-0.209,0.206-0.269,0.34
			c-0.051,0.135-0.082,0.279-0.082,0.433c0,0.248,0.061,0.454,0.195,0.619c0.136,0.164,0.309,0.319,0.527,0.432
			c0.217,0.124,0.464,0.229,0.743,0.331c0.277,0.103,0.555,0.206,0.845,0.32c0.288,0.113,0.567,0.238,0.847,0.381
			c0.279,0.145,0.514,0.33,0.742,0.538c0.217,0.215,0.393,0.473,0.516,0.772c0.134,0.309,0.196,0.671,0.196,1.092
			C151.49,148.546,151.408,148.958,151.254,149.32z"/>
	</g>
	<path style="fill:#305889;" d="M151.476,137.633c0.091,0,0.184-0.061,0.245-0.122l2.415-3.301c0.061-0.092,0.092-0.214,0.031-0.306
		c-0.061-0.092-0.153-0.152-0.275-0.152h-1.253v-0.826c0-1.62-1.254-2.965-2.782-3.026c-1.59-0.061-3.087,1.07-3.301,2.445
		c-0.031,0.153,0.061,0.275,0.184,0.337c0.122,0.061,0.275,0,0.367-0.123c0.275-0.397,1.07-0.734,1.712-0.703
		c0.825,0.061,1.467,0.795,1.467,1.65v0.184h-1.223c-0.122,0-0.214,0.062-0.275,0.153c-0.061,0.092-0.03,0.214,0.031,0.306
		l2.415,3.302C151.292,137.572,151.384,137.633,151.476,137.633z"/>
</g>
</svg>
