<?xml version="1.0" encoding="iso-8859-1"?>
<!-- Generator: Adobe Illustrator 17.0.0, SVG Export Plug-In . SVG Version: 6.00 Build 0)  -->
<!DOCTYPE svg PUBLIC "-//W3C//DTD SVG 1.1//EN" "http://www.w3.org/Graphics/SVG/1.1/DTD/svg11.dtd">
<svg version="1.1" id="Layer_1" xmlns="http://www.w3.org/2000/svg" xmlns:xlink="http://www.w3.org/1999/xlink" x="0px" y="0px"
	 width="32px" height="32px" viewBox="125.73 125.73 32 32" style="enable-background:new 125.73 125.73 32 32;"
	 xml:space="preserve">
<g>
	<g>
		<g>
			
				<line style="fill:none;stroke:#008CF8;stroke-width:0.75;stroke-miterlimit:10;" x1="155.901" y1="135.75" x2="155.901" y2="150.384"/>
			<g>
				<polygon style="fill:#008CF8;" points="154.551,148.799 155.901,150.148 157.25,148.799 157.25,149.944 155.901,151.293 
					154.551,149.944 				"/>
			</g>
		</g>
	</g>
	<path style="fill:#2E5788;" d="M138.702,142.17v-0.467v-13.613c-3.31,0.279-6.287,1.736-8.5,3.951
		c-2.471,2.469-4.003,5.887-4.003,9.661c0,3.775,1.531,7.194,4.003,9.664c2.47,2.469,5.889,4.001,9.661,4.001
		c3.397,0,6.503-1.243,8.891-3.29L138.702,142.17z"/>
	<path style="fill:#27CD2F;" d="M149.527,132.043c-2.213-2.215-5.19-3.672-8.501-3.951v13.125l9.359,9.208
		c1.962-2.365,3.144-5.405,3.144-8.721C153.529,137.93,151.997,134.511,149.527,132.043z M149.185,140.366
		c-0.132,0.287-0.31,0.54-0.539,0.742c-0.234,0.212-0.513,0.376-0.839,0.496c-0.325,0.124-0.693,0.205-1.09,0.236l-0.132,1.337
		c-0.007,0.033-0.016,0.065-0.024,0.091c-0.016,0.023-0.041,0.048-0.083,0.065c-0.038,0.015-0.087,0.032-0.162,0.041l0.007,0.007
		c-0.063,0.009-0.154,0.016-0.26,0.016c-0.129,0-0.237-0.007-0.317-0.016c-0.08-0.016-0.147-0.032-0.188-0.057
		c-0.048-0.024-0.073-0.056-0.089-0.088c-0.016-0.042-0.016-0.084-0.008-0.123l0.129-1.272c-0.178-0.023-0.35-0.056-0.504-0.097
		c-0.163-0.041-0.302-0.081-0.432-0.13c-0.131-0.049-0.246-0.098-0.335-0.146c-0.089-0.05-0.163-0.098-0.211-0.147
		c-0.05-0.048-0.081-0.113-0.107-0.212c-0.024-0.089-0.031-0.228-0.031-0.416c0-0.138,0.008-0.26,0.016-0.35
		c0.008-0.089,0.024-0.163,0.041-0.212c0.024-0.05,0.049-0.081,0.081-0.107c0.031-0.015,0.065-0.023,0.107-0.023
		c0.056,0,0.129,0.032,0.236,0.089c0.105,0.066,0.236,0.132,0.399,0.203c0.162,0.073,0.359,0.147,0.585,0.205
		c0.231,0.065,0.499,0.089,0.808,0.089c0.49,0,0.847-0.089,1.083-0.268c0.238-0.181,0.36-0.423,0.36-0.726
		c0-0.204-0.05-0.366-0.156-0.489c-0.106-0.131-0.236-0.244-0.406-0.341c-0.172-0.098-0.366-0.189-0.578-0.261
		c-0.213-0.082-0.433-0.164-0.661-0.244c-0.218-0.091-0.437-0.188-0.659-0.311c-0.212-0.113-0.407-0.26-0.579-0.431
		c-0.168-0.171-0.3-0.375-0.406-0.619c-0.106-0.246-0.155-0.538-0.155-0.88c0-0.31,0.049-0.595,0.155-0.847
		c0.106-0.26,0.253-0.481,0.449-0.677c0.195-0.196,0.44-0.341,0.725-0.463c0.284-0.123,0.611-0.197,0.969-0.245l0.123-1.255
		c0.008-0.032,0.017-0.064,0.025-0.081c0.016-0.025,0.039-0.041,0.082-0.065c0.039-0.016,0.088-0.031,0.161-0.042
		c0.067-0.007,0.156-0.016,0.261-0.016c0.132,0,0.238,0.009,0.318,0.016c0.081,0.016,0.155,0.032,0.195,0.058
		c0.048,0.024,0.072,0.057,0.089,0.088c0.017,0.041,0.017,0.083,0.017,0.123l-0.122,1.181c0.115,0.016,0.246,0.04,0.366,0.065
		c0.132,0.032,0.254,0.066,0.36,0.106c0.114,0.041,0.211,0.083,0.302,0.131c0.089,0.041,0.155,0.081,0.188,0.121
		c0.031,0.033,0.064,0.074,0.079,0.107c0.018,0.034,0.034,0.083,0.042,0.13c0.008,0.057,0.015,0.114,0.024,0.188
		c0.007,0.074,0.007,0.155,0.007,0.253c0,0.13,0,0.237-0.007,0.317c-0.009,0.082-0.016,0.148-0.032,0.188
		c-0.016,0.041-0.034,0.073-0.058,0.089c-0.024,0.017-0.04,0.025-0.072,0.025c-0.058,0-0.132-0.025-0.237-0.081
		c-0.106-0.058-0.228-0.115-0.382-0.172c-0.155-0.065-0.327-0.123-0.522-0.17c-0.196-0.058-0.416-0.081-0.652-0.081
		c-0.211,0-0.398,0.024-0.553,0.064c-0.154,0.042-0.278,0.098-0.375,0.171c-0.098,0.073-0.165,0.163-0.212,0.269
		c-0.04,0.107-0.064,0.22-0.064,0.343c0,0.195,0.047,0.358,0.153,0.488c0.108,0.131,0.245,0.252,0.417,0.342
		c0.172,0.098,0.367,0.18,0.586,0.261c0.22,0.081,0.439,0.162,0.669,0.253c0.227,0.089,0.447,0.187,0.668,0.301
		c0.219,0.114,0.406,0.26,0.586,0.424c0.171,0.17,0.31,0.373,0.408,0.61c0.105,0.244,0.155,0.529,0.155,0.862
		C149.371,139.756,149.305,140.08,149.185,140.366z"/>
</g>
</svg>
