<?xml version="1.0" encoding="iso-8859-1"?>
<!-- Generator: Adobe Illustrator 17.0.0, SVG Export Plug-In . SVG Version: 6.00 Build 0)  -->
<!DOCTYPE svg PUBLIC "-//W3C//DTD SVG 1.1//EN" "http://www.w3.org/Graphics/SVG/1.1/DTD/svg11.dtd">
<svg version="1.1" id="Layer_1" xmlns="http://www.w3.org/2000/svg" xmlns:xlink="http://www.w3.org/1999/xlink" x="0px" y="0px"
	 width="32px" height="32px" viewBox="125.73 125.73 32 32" style="enable-background:new 125.73 125.73 32 32;"
	 xml:space="preserve">
<g>
	<path style="fill:none;stroke:#FAAA49;stroke-width:0.75;stroke-miterlimit:10;" d="M153.244,128.669v-1.182
		c0-0.598-0.487-1.084-1.084-1.084h-0.898c-0.598,0-1.084,0.486-1.084,1.084v1.158h-6.987v-1.158c0-0.598-0.486-1.084-1.084-1.084
		h-0.897c-0.598,0-1.084,0.486-1.084,1.084v1.158h-6.987v-1.158c0-0.598-0.487-1.084-1.085-1.084h-0.897
		c-0.598,0-1.085,0.486-1.085,1.084v1.202c-1.506,0.245-2.637,1.539-2.637,3.108v22.287c0,1.738,1.414,3.152,3.152,3.152h22.287
		c1.738,0,3.152-1.414,3.152-3.152v-22.287C156.025,130.184,154.807,128.852,153.244,128.669z"/>
	
		<line style="fill:none;stroke:#FAAA49;stroke-width:0.75;stroke-miterlimit:10;" x1="155.474" y1="133.91" x2="127.987" y2="133.91"/>
	<path style="fill:#FAAA49;" d="M144.362,150.124c-1.049,0-1.898,0.85-1.898,1.898l0,0c0,1.048,0.849,1.897,1.898,1.897
		c1.048,0,1.897-0.849,1.897-1.897l0,0C146.259,150.973,145.41,150.124,144.362,150.124z"/>
	<path style="fill:#FAAA49;" d="M149.768,150.124c-1.048,0-1.898,0.85-1.898,1.898l0,0c0,1.048,0.85,1.897,1.898,1.897
		c1.048,0,1.898-0.849,1.898-1.897l0,0C151.666,150.973,150.816,150.124,149.768,150.124z"/>
	<path style="fill:#FAAA49;" d="M133.547,150.124L133.547,150.124c-1.048,0-1.898,0.85-1.898,1.898l0,0
		c0,1.048,0.85,1.897,1.898,1.897l0,0c1.048,0,1.898-0.849,1.898-1.897l0,0C135.445,150.973,134.595,150.124,133.547,150.124z"/>
	<path style="fill:#FAAA49;" d="M138.954,150.124L138.954,150.124c-1.048,0-1.898,0.85-1.898,1.898l0,0
		c0,1.048,0.85,1.897,1.898,1.897l0,0c1.048,0,1.898-0.849,1.898-1.897l0,0C140.853,150.973,140.003,150.124,138.954,150.124z"/>
	<g style="enable-background:new    ;">
		<path style="fill:#FAAA49;" d="M131.235,140.875h0.724c0.306,0,0.533-0.08,0.68-0.241c0.147-0.16,0.221-0.383,0.221-0.668
			c0-0.259-0.074-0.467-0.221-0.623c-0.147-0.156-0.361-0.234-0.64-0.234c-0.242,0-0.444,0.071-0.609,0.212
			c-0.165,0.142-0.247,0.327-0.247,0.557h-1.25l-0.009-0.026c-0.018-0.503,0.175-0.918,0.578-1.245s0.904-0.49,1.501-0.49
			c0.666,0,1.196,0.159,1.592,0.477s0.594,0.771,0.594,1.359c0,0.28-0.088,0.545-0.265,0.797c-0.177,0.251-0.419,0.448-0.729,0.589
			c0.356,0.126,0.627,0.321,0.814,0.583c0.187,0.262,0.28,0.567,0.28,0.914c0,0.589-0.214,1.052-0.642,1.389
			s-0.977,0.506-1.645,0.506c-0.597,0-1.11-0.158-1.539-0.475s-0.635-0.763-0.62-1.34l0.009-0.026h1.25
			c0,0.246,0.088,0.448,0.265,0.608c0.177,0.159,0.4,0.239,0.671,0.239c0.297,0,0.532-0.082,0.704-0.247
			c0.172-0.164,0.258-0.388,0.258-0.669c0-0.338-0.084-0.586-0.254-0.743c-0.169-0.157-0.419-0.236-0.749-0.236h-0.724V140.875z"/>
		<path style="fill:#FAAA49;" d="M139.451,142.133c0,0.851-0.195,1.497-0.585,1.936c-0.39,0.44-0.917,0.66-1.583,0.66
			c-0.671,0-1.203-0.22-1.594-0.66c-0.392-0.439-0.587-1.085-0.587-1.936v-1.417c0-0.848,0.195-1.493,0.585-1.936
			s0.919-0.665,1.587-0.665c0.665,0,1.194,0.222,1.587,0.665s0.589,1.088,0.589,1.936V142.133z M138.167,140.582
			c0-0.509-0.077-0.881-0.229-1.118c-0.153-0.237-0.374-0.355-0.662-0.355c-0.292,0-0.512,0.118-0.663,0.353
			c-0.15,0.235-0.225,0.609-0.225,1.121v1.671c0,0.518,0.076,0.895,0.228,1.129c0.151,0.235,0.375,0.354,0.669,0.354
			c0.288,0,0.508-0.118,0.658-0.354c0.15-0.234,0.225-0.611,0.225-1.129V140.582z"/>
		<path style="fill:#FAAA49;" d="M142.86,142.384h-2.49v-0.993h2.49V142.384z"/>
		<path style="fill:#FAAA49;" d="M144.008,141.789l0.371-3.581h3.585v1.033h-2.53l-0.177,1.483c0.118-0.088,0.261-0.161,0.429-0.219
			c0.168-0.057,0.354-0.087,0.556-0.09c0.618-0.009,1.098,0.178,1.438,0.561c0.34,0.383,0.51,0.916,0.51,1.598
			c0,0.619-0.186,1.133-0.559,1.542c-0.372,0.408-0.908,0.613-1.609,0.613c-0.591,0-1.098-0.162-1.519-0.485
			c-0.421-0.324-0.624-0.769-0.609-1.334l0.009-0.021l1.241-0.063c0,0.286,0.081,0.509,0.242,0.669
			c0.162,0.161,0.374,0.241,0.636,0.241c0.301,0,0.522-0.106,0.665-0.319c0.143-0.214,0.214-0.492,0.214-0.835
			c0-0.371-0.076-0.667-0.229-0.891s-0.38-0.335-0.68-0.335c-0.247,0-0.437,0.045-0.567,0.137s-0.225,0.215-0.28,0.371
			L144.008,141.789z"/>
		<path style="fill:#FAAA49;" d="M150.891,143.736c0.338,0,0.614-0.126,0.828-0.376c0.213-0.251,0.319-0.61,0.319-1.077v-0.317
			c-0.144,0.182-0.315,0.321-0.514,0.415c-0.199,0.094-0.413,0.141-0.643,0.141c-0.598,0-1.068-0.194-1.411-0.584
			s-0.514-0.917-0.514-1.583c0-0.642,0.203-1.175,0.609-1.6s0.922-0.638,1.549-0.638c0.657,0,1.189,0.226,1.599,0.678
			s0.613,1.087,0.613,1.905v1.519c0,0.78-0.229,1.394-0.687,1.841c-0.457,0.447-1.041,0.671-1.75,0.671
			c-0.224,0-0.454-0.023-0.691-0.068c-0.236-0.046-0.457-0.113-0.66-0.202l0.15-0.935c0.191,0.073,0.381,0.127,0.567,0.161
			C150.445,143.718,150.656,143.736,150.891,143.736z M151.098,141.577c0.212,0,0.397-0.04,0.557-0.119s0.287-0.186,0.384-0.318
			v-0.592c0-0.471-0.082-0.829-0.247-1.073s-0.389-0.367-0.671-0.367c-0.259,0-0.47,0.121-0.634,0.362
			c-0.163,0.241-0.245,0.536-0.245,0.883c0,0.365,0.074,0.66,0.224,0.885C150.614,141.464,150.825,141.577,151.098,141.577z"/>
	</g>
</g>
</svg>
