<?xml version="1.0" encoding="iso-8859-1"?>
<!-- Generator: Adobe Illustrator 17.0.0, SVG Export Plug-In . SVG Version: 6.00 Build 0)  -->
<!DOCTYPE svg PUBLIC "-//W3C//DTD SVG 1.1//EN" "http://www.w3.org/Graphics/SVG/1.1/DTD/svg11.dtd">
<svg version="1.1" id="Layer_1" xmlns="http://www.w3.org/2000/svg" xmlns:xlink="http://www.w3.org/1999/xlink" x="0px" y="0px"
	 width="32px" height="32px" viewBox="125.73 125.73 32 32" style="enable-background:new 125.73 125.73 32 32;"
	 xml:space="preserve">
<g>
	<path style="fill:none;stroke:#FDB65C;stroke-width:0.75;stroke-miterlimit:10;" d="M153.224,128.603v-1.18
		c0-0.597-0.486-1.082-1.082-1.082h-0.896c-0.596,0-1.082,0.485-1.082,1.082v1.156h-6.973v-1.156c0-0.597-0.485-1.082-1.082-1.082
		h-0.895c-0.597,0-1.082,0.485-1.082,1.082v1.156h-6.973v-1.156c0-0.597-0.486-1.082-1.082-1.082h-0.895
		c-0.597,0-1.083,0.485-1.083,1.082v1.2c-1.503,0.244-2.631,1.536-2.631,3.101v22.242c0,1.735,1.411,3.146,3.146,3.146h22.242
		c1.734,0,3.145-1.411,3.145-3.146v-22.242C155.999,130.116,154.784,128.787,153.224,128.603z"/>
	
		<line style="fill:none;stroke:#FDB65C;stroke-width:0.75;stroke-miterlimit:10;" x1="155.449" y1="133.834" x2="128.018" y2="133.834"/>
	<path style="fill:#FDB65C;" d="M144.359,150.015c-1.047,0-1.894,0.848-1.894,1.894l0,0c0,1.046,0.848,1.893,1.894,1.893
		c1.046,0,1.893-0.847,1.893-1.893l0,0C146.253,150.863,145.405,150.015,144.359,150.015z"/>
	<path style="fill:#FDB65C;" d="M149.755,150.015c-1.046,0-1.894,0.848-1.894,1.894l0,0c0,1.046,0.848,1.893,1.894,1.893
		c1.046,0,1.894-0.847,1.894-1.893l0,0C151.649,150.863,150.801,150.015,149.755,150.015z"/>
	<path style="fill:#FDB65C;" d="M133.567,150.015L133.567,150.015c-1.046,0-1.894,0.848-1.894,1.894l0,0
		c0,1.046,0.849,1.893,1.894,1.893l0,0c1.046,0,1.894-0.847,1.894-1.893l0,0C135.461,150.863,134.613,150.015,133.567,150.015z"/>
	<path style="fill:#FDB65C;" d="M138.963,150.015L138.963,150.015c-1.046,0-1.894,0.848-1.894,1.894l0,0
		c0,1.046,0.848,1.893,1.894,1.893l0,0c1.046,0,1.894-0.847,1.894-1.893l0,0C140.857,150.863,140.009,150.015,138.963,150.015z"/>
	<g style="enable-background:new    ;">
		<path style="fill:#FDB65C;" d="M132.867,144.538h-1.287v-5.278h-1.304v-0.908l2.591-0.229V144.538z"/>
		<path style="fill:#FDB65C;" d="M138.044,144.538h-1.287v-5.278h-1.304v-0.908l2.591-0.229V144.538z"/>
		<path style="fill:#FDB65C;" d="M142.861,142.291h-2.485v-0.991h2.485V142.291z"/>
		<path style="fill:#FDB65C;" d="M148.222,144.538h-4.379v-0.842l2.075-2.225c0.3-0.344,0.513-0.634,0.639-0.871
			c0.126-0.236,0.189-0.456,0.189-0.659c0-0.27-0.072-0.491-0.218-0.663s-0.353-0.258-0.619-0.258c-0.297,0-0.522,0.101-0.677,0.302
			s-0.231,0.469-0.231,0.804h-1.251l-0.009-0.026c-0.015-0.579,0.176-1.068,0.57-1.469c0.396-0.401,0.928-0.602,1.598-0.602
			c0.66,0,1.18,0.172,1.558,0.516c0.377,0.344,0.565,0.802,0.565,1.375c0,0.388-0.106,0.746-0.319,1.073
			c-0.213,0.327-0.564,0.757-1.055,1.289l-1.142,1.242l0.009,0.022h2.696V144.538z"/>
		<path style="fill:#FDB65C;" d="M150.875,143.639c0.338,0,0.613-0.126,0.826-0.376s0.319-0.608,0.319-1.074v-0.317
			c-0.144,0.182-0.314,0.32-0.513,0.415c-0.198,0.094-0.412,0.141-0.642,0.141c-0.597,0-1.065-0.195-1.407-0.584
			c-0.343-0.389-0.514-0.916-0.514-1.58c0-0.64,0.203-1.173,0.608-1.597s0.921-0.637,1.546-0.637c0.655,0,1.187,0.226,1.596,0.676
			c0.408,0.451,0.612,1.085,0.612,1.901v1.516c0,0.779-0.229,1.391-0.686,1.837s-1.039,0.67-1.747,0.67
			c-0.223,0-0.453-0.023-0.689-0.068c-0.236-0.046-0.456-0.113-0.658-0.202l0.149-0.933c0.19,0.073,0.38,0.127,0.566,0.161
			C150.429,143.622,150.639,143.639,150.875,143.639z M151.082,141.484c0.212,0,0.396-0.04,0.556-0.119
			c0.158-0.079,0.286-0.185,0.383-0.317v-0.59c0-0.47-0.082-0.827-0.246-1.071c-0.165-0.244-0.388-0.366-0.67-0.366
			c-0.259,0-0.47,0.121-0.633,0.361c-0.163,0.241-0.244,0.535-0.244,0.881c0,0.364,0.074,0.659,0.223,0.883
			C150.598,141.372,150.808,141.484,151.082,141.484z"/>
	</g>
</g>
</svg>
