<?xml version="1.0" encoding="iso-8859-1"?>
<!-- Generator: Adobe Illustrator 17.0.0, SVG Export Plug-In . SVG Version: 6.00 Build 0)  -->
<!DOCTYPE svg PUBLIC "-//W3C//DTD SVG 1.1//EN" "http://www.w3.org/Graphics/SVG/1.1/DTD/svg11.dtd">
<svg version="1.1" id="Layer_1" xmlns="http://www.w3.org/2000/svg" xmlns:xlink="http://www.w3.org/1999/xlink" x="0px" y="0px"
	 width="32px" height="32px" viewBox="125.73 125.73 32 32" style="enable-background:new 125.73 125.73 32 32;"
	 xml:space="preserve">
<g>
	<path style="fill:none;stroke:#FE0100;stroke-width:0.75;stroke-miterlimit:10;" d="M153.266,128.553v-1.189
		c0-0.602-0.489-1.091-1.09-1.091h-0.903c-0.601,0-1.09,0.489-1.09,1.091v1.165h-7.028v-1.165c0-0.602-0.489-1.091-1.09-1.091
		h-0.902c-0.602,0-1.091,0.489-1.091,1.091v1.165h-7.028v-1.165c0-0.602-0.49-1.091-1.091-1.091h-0.902
		c-0.602,0-1.092,0.489-1.092,1.091v1.21c-1.515,0.246-2.652,1.548-2.652,3.126v22.418c0,1.748,1.423,3.171,3.171,3.171h22.418
		c1.748,0,3.17-1.423,3.17-3.171v-22.418C156.064,130.077,154.839,128.737,153.266,128.553z"/>
	
		<line style="fill:none;stroke:#FE0100;stroke-width:0.75;stroke-miterlimit:10;" x1="155.509" y1="133.825" x2="127.861" y2="133.825"/>
	<path style="fill:#FE0100;" d="M144.332,150.134c-1.055,0-1.91,0.855-1.91,1.909l0,0c0,1.054,0.855,1.908,1.91,1.908
		c1.054,0,1.908-0.854,1.908-1.908l0,0C146.24,150.988,145.386,150.134,144.332,150.134z"/>
	<path style="fill:#FE0100;" d="M149.77,150.134c-1.054,0-1.909,0.855-1.909,1.909l0,0c0,1.054,0.855,1.908,1.909,1.908
		c1.054,0,1.909-0.854,1.909-1.908l0,0C151.679,150.988,150.824,150.134,149.77,150.134z"/>
	<path style="fill:#FE0100;" d="M133.454,150.134L133.454,150.134c-1.054,0-1.909,0.855-1.909,1.909l0,0
		c0,1.054,0.855,1.908,1.909,1.908l0,0c1.054,0,1.909-0.854,1.909-1.908l0,0C135.363,150.988,134.508,150.134,133.454,150.134z"/>
	<path style="fill:#FE0100;" d="M138.893,150.134L138.893,150.134c-1.055,0-1.909,0.855-1.909,1.909l0,0
		c0,1.054,0.855,1.908,1.909,1.908l0,0c1.054,0,1.909-0.854,1.909-1.908l0,0C140.802,150.988,139.947,150.134,138.893,150.134z"/>
	<g style="enable-background:new    ;">
		<path style="fill:#FE0100;" d="M135.477,143.594c0.397,0,0.72-0.146,0.97-0.44c0.25-0.294,0.375-0.715,0.375-1.262v-0.373
			c-0.169,0.214-0.37,0.376-0.603,0.486s-0.484,0.166-0.753,0.166c-0.7,0-1.251-0.229-1.653-0.686s-0.603-1.076-0.603-1.855
			c0-0.752,0.238-1.377,0.714-1.876c0.476-0.498,1.082-0.748,1.816-0.748c0.769,0,1.394,0.265,1.873,0.794s0.72,1.274,0.72,2.233
			v1.78c0,0.914-0.269,1.634-0.805,2.158c-0.537,0.524-1.221,0.786-2.052,0.786c-0.262,0-0.532-0.026-0.81-0.08
			c-0.278-0.054-0.536-0.133-0.774-0.236l0.176-1.096c0.225,0.086,0.446,0.148,0.665,0.188
			C134.954,143.575,135.201,143.594,135.477,143.594z M135.72,141.063c0.249,0,0.466-0.046,0.652-0.14
			c0.186-0.093,0.336-0.217,0.45-0.373v-0.693c0-0.552-0.097-0.971-0.29-1.258c-0.193-0.286-0.455-0.429-0.787-0.429
			c-0.303,0-0.551,0.141-0.743,0.424c-0.191,0.283-0.287,0.628-0.287,1.035c0,0.428,0.087,0.774,0.261,1.038
			C135.152,140.932,135.399,141.063,135.72,141.063z"/>
		<path style="fill:#FE0100;" d="M144.456,141.716c0,0.997-0.229,1.753-0.686,2.269s-1.075,0.773-1.855,0.773
			c-0.787,0-1.41-0.258-1.869-0.773c-0.458-0.516-0.688-1.272-0.688-2.269v-1.661c0-0.994,0.229-1.75,0.686-2.27
			c0.457-0.519,1.077-0.779,1.86-0.779c0.78,0,1.4,0.26,1.861,0.779c0.46,0.52,0.69,1.276,0.69,2.27V141.716z M142.95,139.897
			c0-0.596-0.09-1.033-0.269-1.311c-0.18-0.277-0.438-0.416-0.777-0.416c-0.341,0-0.6,0.138-0.776,0.414
			c-0.176,0.275-0.264,0.713-0.264,1.313v1.959c0,0.607,0.089,1.048,0.267,1.323c0.178,0.276,0.439,0.414,0.784,0.414
			c0.338,0,0.594-0.138,0.771-0.414c0.176-0.275,0.264-0.716,0.264-1.323V139.897z"/>
		<path style="fill:#FE0100;" d="M148.54,140.448h1.862v1.304h-1.862v2.142h-1.429v-2.142h-1.873v-1.304h1.873v-2.039h1.429V140.448
			z"/>
	</g>
</g>
</svg>
