<?xml version="1.0" encoding="iso-8859-1"?>
<!-- Generator: Adobe Illustrator 17.0.0, SVG Export Plug-In . SVG Version: 6.00 Build 0)  -->
<!DOCTYPE svg PUBLIC "-//W3C//DTD SVG 1.1//EN" "http://www.w3.org/Graphics/SVG/1.1/DTD/svg11.dtd">
<svg version="1.1" id="Layer_1" xmlns="http://www.w3.org/2000/svg" xmlns:xlink="http://www.w3.org/1999/xlink" x="0px" y="0px"
	 width="32px" height="32px" viewBox="125.73 125.73 32 32" style="enable-background:new 125.73 125.73 32 32;"
	 xml:space="preserve">
<g>
	<path style="fill:none;stroke:#FE4241;stroke-width:0.75;stroke-miterlimit:10;" d="M153.045,128.81v-1.156
		c0-0.585-0.476-1.061-1.06-1.061h-0.879c-0.584,0-1.06,0.476-1.06,1.061v1.133h-6.835v-1.133c0-0.585-0.476-1.061-1.06-1.061
		h-0.877c-0.585,0-1.061,0.476-1.061,1.061v1.133h-6.835v-1.133c0-0.585-0.476-1.061-1.061-1.061h-0.877
		c-0.585,0-1.062,0.476-1.062,1.061v1.176c-1.473,0.24-2.579,1.506-2.579,3.04v21.801c0,1.7,1.384,3.083,3.083,3.083h21.801
		c1.7,0,3.083-1.384,3.083-3.083V131.87C155.765,130.293,154.574,128.99,153.045,128.81z"/>
	
		<line style="fill:none;stroke:#FE4241;stroke-width:0.75;stroke-miterlimit:10;" x1="155.226" y1="133.937" x2="128.339" y2="133.937"/>
	<path style="fill:#FE4241;" d="M144.356,149.798c-1.026,0-1.857,0.831-1.857,1.857l0,0c0,1.025,0.831,1.856,1.857,1.856
		c1.025,0,1.856-0.831,1.856-1.856l0,0C146.212,150.629,145.382,149.798,144.356,149.798z"/>
	<path style="fill:#FE4241;" d="M149.645,149.798c-1.025,0-1.856,0.831-1.856,1.857l0,0c0,1.025,0.832,1.856,1.856,1.856
		c1.025,0,1.857-0.831,1.857-1.856l0,0C151.502,150.629,150.67,149.798,149.645,149.798z"/>
	<path style="fill:#FE4241;" d="M133.778,149.798L133.778,149.798c-1.025,0-1.857,0.831-1.857,1.857l0,0
		c0,1.025,0.832,1.856,1.857,1.856l0,0c1.025,0,1.857-0.831,1.857-1.856l0,0C135.634,150.629,134.803,149.798,133.778,149.798z"/>
	<path style="fill:#FE4241;" d="M139.067,149.798L139.067,149.798c-1.026,0-1.857,0.831-1.857,1.857l0,0
		c0,1.025,0.831,1.856,1.857,1.856l0,0c1.025,0,1.857-0.831,1.857-1.856l0,0C140.924,150.629,140.092,149.798,139.067,149.798z"/>
	<g style="enable-background:new    ;">
		<path style="fill:#FE4241;" d="M132.77,138.051c0.236,0,0.454,0.022,0.654,0.067c0.2,0.045,0.401,0.11,0.603,0.197l-0.225,0.924
			c-0.19-0.066-0.359-0.116-0.508-0.149c-0.148-0.033-0.32-0.049-0.516-0.049c-0.383,0-0.69,0.143-0.922,0.43
			s-0.339,0.683-0.322,1.189l0.013,0.022c0.141-0.147,0.319-0.262,0.536-0.346c0.216-0.083,0.459-0.125,0.729-0.125
			c0.562,0,1.001,0.199,1.319,0.598c0.318,0.398,0.478,0.908,0.478,1.526c0,0.634-0.197,1.156-0.59,1.567
			c-0.393,0.412-0.902,0.618-1.526,0.618c-0.665,0-1.207-0.226-1.624-0.676c-0.417-0.451-0.626-1.075-0.626-1.873v-1.227
			c0-0.823,0.237-1.478,0.712-1.965C131.431,138.295,132.035,138.051,132.77,138.051z M132.48,141.165
			c-0.233,0-0.432,0.038-0.596,0.112s-0.291,0.177-0.38,0.306v0.418c0,0.497,0.09,0.88,0.27,1.146
			c0.18,0.268,0.419,0.401,0.719,0.401c0.259,0,0.467-0.119,0.624-0.355c0.157-0.237,0.235-0.524,0.235-0.86
			c0-0.348-0.079-0.629-0.238-0.845C132.957,141.273,132.745,141.165,132.48,141.165z"/>
		<path style="fill:#FE4241;" d="M139.554,141.981c0,0.833-0.19,1.463-0.572,1.894c-0.381,0.431-0.897,0.646-1.548,0.646
			c-0.657,0-1.176-0.215-1.559-0.646c-0.383-0.431-0.575-1.062-0.575-1.894v-1.386c0-0.829,0.191-1.46,0.572-1.894
			c0.381-0.433,0.899-0.65,1.553-0.65c0.65,0,1.168,0.217,1.553,0.65c0.384,0.434,0.576,1.065,0.576,1.894V141.981z
			 M138.298,140.464c0-0.498-0.075-0.862-0.225-1.094c-0.15-0.232-0.366-0.348-0.648-0.348c-0.285,0-0.501,0.115-0.648,0.345
			s-0.22,0.596-0.22,1.096v1.635c0,0.506,0.074,0.875,0.223,1.104c0.148,0.23,0.366,0.346,0.654,0.346
			c0.282,0,0.497-0.115,0.643-0.346c0.147-0.229,0.221-0.598,0.221-1.104V140.464z"/>
		<path style="fill:#FE4241;" d="M142.888,142.228h-2.436v-0.972h2.436V142.228z"/>
		<path style="fill:#FE4241;" d="M147.959,139.809c0,0.314-0.083,0.592-0.249,0.833c-0.165,0.242-0.394,0.431-0.685,0.566
			c0.334,0.141,0.598,0.343,0.791,0.604c0.192,0.262,0.289,0.562,0.289,0.898c0,0.581-0.197,1.028-0.592,1.341
			s-0.91,0.469-1.546,0.469c-0.643,0-1.161-0.156-1.557-0.469c-0.396-0.313-0.595-0.76-0.595-1.341c0-0.34,0.096-0.64,0.288-0.9
			c0.191-0.261,0.455-0.463,0.792-0.607c-0.294-0.135-0.522-0.323-0.687-0.563c-0.164-0.241-0.246-0.518-0.246-0.832
			c0-0.559,0.183-0.991,0.548-1.298c0.366-0.307,0.849-0.46,1.447-0.46c0.596,0,1.078,0.153,1.446,0.46
			C147.774,138.818,147.959,139.251,147.959,139.809z M146.844,142.623c0-0.281-0.082-0.507-0.247-0.676
			c-0.164-0.169-0.377-0.254-0.639-0.254c-0.265,0-0.478,0.085-0.637,0.254c-0.16,0.169-0.24,0.395-0.24,0.676
			c0,0.287,0.081,0.514,0.242,0.679s0.376,0.248,0.644,0.248c0.262,0,0.474-0.083,0.635-0.25S146.844,142.907,146.844,142.623z
			 M146.702,139.865c0-0.253-0.067-0.457-0.201-0.611c-0.134-0.154-0.314-0.231-0.542-0.231c-0.23,0-0.41,0.076-0.54,0.227
			c-0.13,0.151-0.194,0.356-0.194,0.615c0,0.262,0.065,0.47,0.196,0.624c0.131,0.154,0.313,0.231,0.547,0.231
			c0.228,0,0.406-0.077,0.537-0.231C146.636,140.335,146.702,140.127,146.702,139.865z"/>
		<path style="fill:#FE4241;" d="M150.745,143.549c0.331,0,0.601-0.123,0.81-0.368s0.313-0.596,0.313-1.053v-0.311
			c-0.141,0.179-0.309,0.314-0.503,0.406c-0.194,0.093-0.403,0.138-0.628,0.138c-0.585,0-1.045-0.19-1.38-0.572
			c-0.336-0.381-0.503-0.897-0.503-1.548c0-0.628,0.198-1.15,0.596-1.566s0.902-0.624,1.516-0.624c0.643,0,1.163,0.221,1.563,0.663
			s0.601,1.063,0.601,1.863v1.486c0,0.763-0.224,1.364-0.672,1.801c-0.447,0.438-1.019,0.656-1.712,0.656
			c-0.219,0-0.444-0.022-0.676-0.067c-0.232-0.045-0.447-0.11-0.646-0.197l0.147-0.914c0.187,0.071,0.372,0.124,0.555,0.157
			S150.514,143.549,150.745,143.549z M150.947,141.438c0.208,0,0.39-0.039,0.545-0.117s0.28-0.182,0.375-0.311v-0.579
			c0-0.461-0.08-0.811-0.241-1.05c-0.161-0.239-0.38-0.358-0.656-0.358c-0.254,0-0.46,0.118-0.62,0.354
			c-0.16,0.236-0.239,0.524-0.239,0.864c0,0.357,0.072,0.646,0.218,0.866S150.679,141.438,150.947,141.438z"/>
	</g>
</g>
</svg>
