<?xml version="1.0" encoding="iso-8859-1"?>
<!-- Generator: Adobe Illustrator 17.0.0, SVG Export Plug-In . SVG Version: 6.00 Build 0)  -->
<!DOCTYPE svg PUBLIC "-//W3C//DTD SVG 1.1//EN" "http://www.w3.org/Graphics/SVG/1.1/DTD/svg11.dtd">
<svg version="1.1" id="Layer_1" xmlns="http://www.w3.org/2000/svg" xmlns:xlink="http://www.w3.org/1999/xlink" x="0px" y="0px"
	 width="32px" height="32px" viewBox="125.73 125.73 32 32" style="enable-background:new 125.73 125.73 32 32;"
	 xml:space="preserve">
<g>
	<path style="fill:#FF8400;" d="M142.003,133.792c-0.105-0.096-0.214-0.182-0.342-0.248c-0.13-0.067-0.258-0.124-0.39-0.176
		c-0.134-0.052-0.262-0.1-0.391-0.147c-0.128-0.047-0.242-0.095-0.342-0.152c-0.101-0.053-0.181-0.123-0.243-0.2
		c-0.061-0.076-0.089-0.171-0.089-0.285c0-0.071,0.014-0.138,0.037-0.2c0.027-0.063,0.066-0.115,0.123-0.157
		c0.057-0.043,0.129-0.075,0.218-0.1c0.091-0.024,0.2-0.038,0.323-0.038c0.139,0,0.266,0.014,0.381,0.047
		c0.114,0.028,0.214,0.062,0.305,0.099c0.089,0.034,0.161,0.067,0.223,0.101c0.061,0.033,0.105,0.047,0.139,0.047
		c0.018,0,0.029-0.005,0.042-0.015c0.015-0.01,0.025-0.029,0.034-0.053c0.01-0.023,0.014-0.062,0.019-0.109
		c0.004-0.047,0.004-0.109,0.004-0.185c0-0.057,0-0.106-0.004-0.148c-0.005-0.043-0.009-0.076-0.015-0.109
		c-0.004-0.029-0.014-0.057-0.023-0.076c-0.01-0.019-0.029-0.043-0.047-0.062c-0.019-0.024-0.058-0.047-0.109-0.071
		c-0.053-0.028-0.11-0.053-0.176-0.076c-0.062-0.023-0.134-0.044-0.21-0.062c-0.071-0.014-0.147-0.029-0.214-0.037l0.071-0.691
		c0-0.023,0-0.047-0.009-0.071c-0.01-0.019-0.024-0.038-0.052-0.052c-0.023-0.014-0.066-0.024-0.114-0.033
		c-0.047-0.004-0.109-0.01-0.186-0.01c-0.061,0-0.113,0.006-0.152,0.01c-0.043,0.006-0.071,0.015-0.094,0.025
		c-0.025,0.013-0.038,0.023-0.048,0.037c-0.005,0.01-0.01,0.029-0.015,0.047l-0.072,0.733c-0.209,0.028-0.399,0.071-0.565,0.143
		c-0.166,0.071-0.31,0.156-0.423,0.271c-0.114,0.115-0.2,0.243-0.263,0.395c-0.061,0.147-0.09,0.314-0.09,0.495
		c0,0.2,0.029,0.37,0.09,0.514c0.063,0.142,0.14,0.261,0.238,0.362c0.101,0.1,0.215,0.184,0.338,0.251
		c0.129,0.072,0.258,0.128,0.385,0.181c0.133,0.047,0.262,0.094,0.386,0.142c0.124,0.042,0.237,0.095,0.337,0.152
		c0.1,0.057,0.176,0.123,0.238,0.199c0.062,0.072,0.091,0.167,0.091,0.285c0,0.177-0.071,0.319-0.21,0.425
		c-0.138,0.104-0.346,0.156-0.633,0.156c-0.18,0-0.336-0.013-0.471-0.052c-0.132-0.033-0.247-0.076-0.342-0.119
		c-0.095-0.041-0.171-0.081-0.233-0.118c-0.062-0.033-0.105-0.052-0.138-0.052c-0.025,0-0.043,0.004-0.062,0.013
		c-0.019,0.014-0.033,0.033-0.047,0.062c-0.01,0.029-0.019,0.072-0.024,0.124c-0.005,0.053-0.009,0.124-0.009,0.203
		c0,0.11,0.004,0.191,0.019,0.243c0.015,0.057,0.033,0.095,0.062,0.124c0.028,0.028,0.071,0.057,0.123,0.086
		c0.052,0.029,0.119,0.057,0.195,0.085c0.076,0.029,0.157,0.052,0.253,0.076c0.09,0.024,0.19,0.043,0.294,0.057l-0.075,0.743
		c-0.005,0.023-0.005,0.048,0.004,0.073c0.009,0.019,0.024,0.037,0.052,0.05c0.023,0.014,0.063,0.024,0.11,0.033
		c0.047,0.006,0.109,0.01,0.185,0.01c0.062,0,0.116-0.004,0.153-0.01l-0.004-0.003c0.044-0.006,0.073-0.016,0.095-0.024
		c0.025-0.009,0.039-0.024,0.048-0.037c0.005-0.016,0.01-0.034,0.014-0.053l0.078-0.781c0.231-0.018,0.447-0.065,0.637-0.138
		c0.19-0.071,0.353-0.166,0.49-0.29c0.134-0.119,0.238-0.266,0.315-0.433c0.07-0.167,0.108-0.356,0.108-0.566
		c0-0.194-0.029-0.361-0.09-0.503C142.184,134.01,142.103,133.891,142.003,133.792z"/>
	<path style="fill:#FF8400;" d="M151.72,143.383l-8.193-17.011c-0.085-0.177-0.298-0.252-0.475-0.166l-10.966,5.281c0,0,0,0,0,0
		c-0.177,0.085-0.252,0.298-0.166,0.475l6.651,13.81h0.001c0.194,0.335,0.546,0.548,0.933,0.563c0.625,0.026,1.153-0.46,1.179-1.085
		l0.041-4.755c0.006-0.746,0.57-1.369,1.312-1.449c0.807-0.087,1.532,0.497,1.619,1.304l0.568,5.262
		c0.014,0.131,0.049,0.258,0.104,0.377c0.121,0.257,0.24,0.515,0.36,0.774c0.001,0.002,0.002,0.004,0.003,0.006
		c0.085,0.177,0.298,0.252,0.475,0.166l6.388-3.076c0,0,0,0,0,0C151.731,143.773,151.805,143.56,151.72,143.383z M143.844,137.155
		c-0.831,0.831-1.982,1.347-3.252,1.347c-1.269,0-2.421-0.516-3.252-1.347c-0.832-0.83-1.347-1.982-1.347-3.252
		c0-1.27,0.516-2.42,1.347-3.252c0.831-0.831,1.982-1.347,3.252-1.347c1.271,0,2.422,0.516,3.252,1.347
		c0.831,0.831,1.347,1.982,1.347,3.252C145.191,135.173,144.676,136.324,143.844,137.155z"/>
</g>
<g>
	<g>
		<path style="fill:#305889;" d="M144.792,148.398l-0.469-0.871l-0.672-1.391c-0.063-0.078-0.078-0.25-0.078-0.25l-0.578-5.594
			c-0.234-0.672-0.875-0.625-0.875-0.625c-0.741,0.05-0.766,0.828-0.766,0.828v4.781c-0.156,1.719-1.754,1.694-1.754,1.694
			c-0.988,0.069-1.543-0.741-1.543-0.741l-2.75-5.848c-0.203-0.442-0.465,0-0.465,0l-0.154,0.407l-0.831,2.2
			c-0.292,0.772-0.262,1.629,0.083,2.379v-0.01l3.657,7.946v3.444c1.942,0.871,4.163,0.871,6.105,0v-2.993
			c1.356-0.872,2.027-2.45,1.786-3.993C145.331,149.121,144.792,148.398,144.792,148.398z"/>
	</g>
</g>
</svg>
