<?xml version="1.0" encoding="iso-8859-1"?>
<!-- Generator: Adobe Illustrator 17.0.0, SVG Export Plug-In . SVG Version: 6.00 Build 0)  -->
<!DOCTYPE svg PUBLIC "-//W3C//DTD SVG 1.1//EN" "http://www.w3.org/Graphics/SVG/1.1/DTD/svg11.dtd">
<svg version="1.1" id="Layer_1" xmlns="http://www.w3.org/2000/svg" xmlns:xlink="http://www.w3.org/1999/xlink" x="0px" y="0px"
	 width="32px" height="32px" viewBox="125.73 125.73 32 32" style="enable-background:new 125.73 125.73 32 32;"
	 xml:space="preserve">
<polygon style="fill:#305889;" points="133.734,146.256 131.792,146.256 131.792,150.703 134.547,152.276 135.51,150.59 
	133.734,149.575 "/>
<g>
	<g>
		<path style="fill:#305889;" d="M148.555,131.304l-3.295-3.295l-1.664-1.664c-0.036-0.036-0.076-0.063-0.119-0.088
			c-0.009-0.006-0.019-0.011-0.029-0.016c-0.076-0.037-0.159-0.059-0.245-0.059h-15.773c-0.716,0-1.299,0.582-1.299,1.299v28.24
			c0,0.716,0.583,1.299,1.299,1.299h18.84c-1.971-1.417-3.256-3.729-3.256-6.341c0-3.601,2.439-6.631,5.755-7.533V131.82
			c0.003-0.023,0.008-0.047,0.008-0.072C148.776,131.567,148.689,131.406,148.555,131.304z M133.027,130.474h7.532
			c0.55,0,0.997,0.446,0.997,0.997s-0.447,0.997-0.997,0.997h-7.532c-0.551,0-0.997-0.447-0.997-0.997
			C132.03,130.92,132.476,130.474,133.027,130.474z M128.218,130.474L128.218,130.474c0-0.205,0.166-0.371,0.371-0.371h1.994
			c0.204,0,0.371,0.166,0.371,0.371v1.994c0,0.205-0.167,0.371-0.371,0.371h-1.994c-0.205,0-0.371-0.166-0.371-0.371V130.474z
			 M128.218,134.795L128.218,134.795c0-0.205,0.166-0.371,0.371-0.371h1.994c0.204,0,0.371,0.166,0.371,0.371v1.994
			c0,0.205-0.167,0.371-0.371,0.371h-1.994c-0.205,0-0.371-0.166-0.371-0.371V134.795z M128.218,141.108v-1.994
			c0-0.205,0.166-0.371,0.371-0.371h1.994c0.204,0,0.371,0.166,0.371,0.371v1.994c0,0.205-0.167,0.371-0.371,0.371h-1.994
			C128.384,141.48,128.218,141.314,128.218,141.108z M133.276,154.15c-2.616,0-4.737-2.121-4.737-4.737s2.121-4.737,4.737-4.737
			s4.736,2.121,4.736,4.737S135.892,154.15,133.276,154.15z M144.917,141.109h-11.89c-0.551,0-0.997-0.447-0.997-0.997
			c0-0.551,0.447-0.997,0.997-0.997h11.889c0.55,0,0.997,0.447,0.997,0.997C145.914,140.662,145.467,141.108,144.917,141.109z
			 M144.917,136.789h-11.89c-0.551,0-0.997-0.447-0.997-0.997c0-0.551,0.447-0.997,0.997-0.997h11.89
			c0.55,0,0.997,0.447,0.997,0.997C145.914,136.342,145.467,136.789,144.917,136.789z M143.944,131.191
			c-0.101,0-0.186-0.085-0.186-0.185v-2.923l0.887,0.887l2.221,2.222H143.944z"/>
	</g>
</g>
<g>
	<g transform="translate(32.000000, 32.000000) scale(-1, 1) translate(-32.000000, -32.000000) translate(2.000000, 2.000000)">
		<path style="fill:#FF8400;" d="M-88.821,155.179c3.59,0,6.5-2.91,6.5-6.5c0-3.59-2.91-6.5-6.5-6.5s-6.5,2.91-6.5,6.5
			C-95.321,152.269-92.411,155.179-88.821,155.179z M-88.821,155.403c-3.713,0-6.724-3.01-6.724-6.724
			c0-3.714,3.011-6.724,6.724-6.724c3.714,0,6.724,3.01,6.724,6.724C-82.097,152.392-85.107,155.403-88.821,155.403z"/>
		<path style="fill:#FF8400;" d="M-88.821,144.644v-1.793c3.218,0,5.828,2.609,5.828,5.827s-2.609,5.827-5.828,5.827
			c-1.28,0-2.464-0.413-3.425-1.113l1.054-1.451c0.665,0.485,1.485,0.771,2.371,0.771c2.228,0,4.035-1.806,4.035-4.035
			C-84.786,146.45-86.593,144.644-88.821,144.644z"/>
	</g>
</g>
</svg>
