<?xml version="1.0" encoding="iso-8859-1"?>
<!-- Generator: Adobe Illustrator 17.0.0, SVG Export Plug-In . SVG Version: 6.00 Build 0)  -->
<!DOCTYPE svg PUBLIC "-//W3C//DTD SVG 1.1//EN" "http://www.w3.org/Graphics/SVG/1.1/DTD/svg11.dtd">
<svg version="1.1" id="Layer_1" xmlns="http://www.w3.org/2000/svg" xmlns:xlink="http://www.w3.org/1999/xlink" x="0px" y="0px"
	 width="32px" height="32px" viewBox="125.73 125.73 32 32" style="enable-background:new 125.73 125.73 32 32;"
	 xml:space="preserve">
<g>
	<g>
		<g>
			<path style="fill:none;stroke:#FD8C00;stroke-width:0.75;stroke-miterlimit:10;" d="M133.272,152.438h1.007l8.334,2.752
				c0.258,0.138,1.308,0.606,2.405-0.03l0.012-0.006l11.424-6.351c0.043-0.024,0.078-0.053,0.108-0.083l0,0
				c0-0.007,1.021-1.032,0.396-2.195l0,0c0-0.006-0.683-1.457-2.003-1.091c-3.317,0.918-5.457,2.824-7.43,3.316
				c-2.573,0.462-4.372,0.3-6.794-0.726c0.731-0.071,1.907-0.005,3.106,0.048c0.366,0.017,0.738,0.03,1.103,0.042
				c3.647,0.096,3.814-1.097,3.041-1.967c-0.749-0.84-1.397-0.858-2.35-0.858h-3.653c-0.581-0.263-3.573-1.595-5.186-1.883
				c-0.006,0-0.012,0-0.018,0c-0.72-0.126-1.614-0.168-2.423-0.168c-0.39,0-0.762,0.006-1.079,0.018v9.192V152.438z"/>
			<path style="fill:none;stroke:#FD8C00;stroke-width:0.75;stroke-miterlimit:10;" d="M131.718,141.116h-4.18
				c-0.293,0-0.557,0.12-0.755,0.312l0,0l0,0l0,0l0,0c-0.192,0.198-0.318,0.463-0.318,0.756v11.279c0,0.295,0.12,0.558,0.312,0.756
				l0,0l0,0l0,0l0,0c0.198,0.192,0.462,0.318,0.756,0.318h4.18c0.274,0,0.533-0.108,0.724-0.282c0.013-0.012,0.024-0.024,0.037-0.03
				c0.192-0.192,0.319-0.462,0.319-0.762v-11.279c0-0.293-0.121-0.564-0.319-0.762l0,0c-0.198-0.198-0.462-0.318-0.756-0.318
				C131.718,141.104,131.718,141.116,131.718,141.116z"/>
		</g>
	</g>
	<path style="fill:#FD8C00;" d="M146.829,127.521c-0.265-0.129-0.576-0.135-0.84-0.012c-0.193,0.069,0.314-0.289-8.778,7.004
		c-0.253,0.206-0.294,0.576-0.088,0.828c0.206,0.253,0.576,0.294,0.828,0.088l0.805-0.646v7.28c0,0.646,0.529,1.175,1.175,1.175
		h3.455c0.325,0,0.588-0.263,0.588-0.587v-4.668c0-0.325,0.263-0.588,0.588-0.588h3.526c0.324,0,0.587,0.263,0.587,0.588v4.668
		c0,0.324,0.263,0.587,0.587,0.587h3.596c0.646,0,1.175-0.529,1.175-1.175v-7.28l0.805,0.646c0.259,0.204,0.63,0.161,0.829-0.088
		c0.2-0.253,0.164-0.623-0.088-0.828C146.514,127.241,147.042,127.61,146.829,127.521z"/>
</g>
</svg>
