<?xml version="1.0" encoding="iso-8859-1"?>
<!-- Generator: Adobe Illustrator 17.0.0, SVG Export Plug-In . SVG Version: 6.00 Build 0)  -->
<!DOCTYPE svg PUBLIC "-//W3C//DTD SVG 1.1 Tiny//EN" "http://www.w3.org/Graphics/SVG/1.1/DTD/svg11-tiny.dtd">
<svg version="1.1" baseProfile="tiny" id="Layer_1" xmlns="http://www.w3.org/2000/svg" xmlns:xlink="http://www.w3.org/1999/xlink"
	 x="0px" y="0px" width="32px" height="32px" viewBox="125.73 125.73 32 32" xml:space="preserve">
<g>
	<g>
		<g>
			<path fill="none" stroke="#32CF1E" stroke-width="0.75" stroke-miterlimit="10" d="M132.776,152.141h0.968l8.007,2.644
				c0.248,0.133,1.257,0.582,2.31-0.028l0.011-0.006l10.976-6.102c0.041-0.023,0.075-0.051,0.104-0.08l0,0
				c0-0.007,0.981-0.991,0.381-2.109l0,0c0-0.006-0.656-1.4-1.924-1.048c-3.187,0.882-5.243,2.714-7.138,3.186
				c-2.472,0.443-4.2,0.288-6.528-0.698c0.703-0.068,1.832-0.005,2.984,0.046c0.351,0.017,0.709,0.028,1.06,0.04
				c3.504,0.092,3.665-1.054,2.922-1.89c-0.719-0.807-1.342-0.824-2.258-0.824h-3.51c-0.559-0.253-3.433-1.533-4.983-1.809
				c-0.006,0-0.011,0-0.017,0c-0.692-0.121-1.55-0.161-2.328-0.161c-0.374,0-0.732,0.006-1.037,0.018v8.832L132.776,152.141
				L132.776,152.141z"/>
			<path fill="none" stroke="#32CF1E" stroke-width="0.75" stroke-miterlimit="10" d="M131.283,141.263h-4.016
				c-0.281,0-0.535,0.116-0.725,0.3l0,0l0,0l0,0l0,0c-0.185,0.19-0.305,0.445-0.305,0.726v10.837c0,0.283,0.116,0.536,0.299,0.726
				l0,0l0,0l0,0l0,0c0.19,0.184,0.443,0.306,0.726,0.306h4.016c0.264,0,0.512-0.104,0.696-0.271
				c0.013-0.012,0.023-0.023,0.035-0.029c0.184-0.184,0.306-0.443,0.306-0.732v-10.837c0-0.282-0.116-0.542-0.306-0.732l0,0
				c-0.19-0.19-0.443-0.305-0.727-0.305L131.283,141.263L131.283,141.263z"/>
		</g>
	</g>
	<path fill="#32CF1E" d="M153.95,136.382c-1.992,0-3.606,1.614-3.606,3.606c0,1.992,1.614,3.606,3.606,3.606
		c1.992,0,3.606-1.615,3.606-3.606C157.556,137.997,155.941,136.382,153.95,136.382z M155.82,138.519
		c-2.003,3.489-2.034,3.518-2.05,3.533c-0.073,0.068-0.168,0.106-0.269,0.106c-0.108,0-0.213-0.045-0.287-0.124l-1.286-1.186
		c-0.154-0.164-0.146-0.414,0.013-0.562c0.151-0.143,0.413-0.134,0.556,0.018l0.904,0.833l1.738-3.011
		c0.07-0.121,0.201-0.197,0.341-0.197c0.069,0,0.137,0.018,0.197,0.053C155.863,138.09,155.928,138.331,155.82,138.519z"/>
	<g>
		<path fill="#32CF1E" d="M149.327,139.989c0-2.128,1.438-3.919,3.395-4.457v-0.353l0.34,0.273c0.287-0.056,0.584-0.086,0.888-0.086
			c0.156,0,0.311,0.008,0.463,0.023c0.009-0.174-0.06-0.351-0.206-0.47c-8.709-6.987-8.202-6.633-8.406-6.718
			c-0.254-0.124-0.553-0.13-0.807-0.011c-0.186,0.066,0.301-0.277-8.434,6.729c-0.243,0.198-0.282,0.553-0.085,0.796
			c0.198,0.243,0.553,0.282,0.796,0.085l0.773-0.621v6.994c0,0.621,0.508,1.129,1.129,1.129h3.319c0.312,0,0.565-0.253,0.565-0.564
			v-4.485c0-0.312,0.253-0.565,0.565-0.565h3.387c0.312,0,0.564,0.253,0.564,0.565v4.485c0,0.312,0.253,0.564,0.564,0.564h2.59
			C149.864,142.463,149.327,141.289,149.327,139.989z"/>
	</g>
</g>
</svg>
