<?xml version="1.0" encoding="iso-8859-1"?>
<!-- Generator: Adobe Illustrator 17.0.0, SVG Export Plug-In . SVG Version: 6.00 Build 0)  -->
<!DOCTYPE svg PUBLIC "-//W3C//DTD SVG 1.1 Tiny//EN" "http://www.w3.org/Graphics/SVG/1.1/DTD/svg11-tiny.dtd">
<svg version="1.1" baseProfile="tiny" id="Layer_1" xmlns="http://www.w3.org/2000/svg" xmlns:xlink="http://www.w3.org/1999/xlink"
	 x="0px" y="0px" width="32px" height="32px" viewBox="125.73 125.73 32 32" xml:space="preserve">
<g>
	<g>
		<path fill="#F20606" d="M155.041,144.604c-2.155-2.155-5.648-2.155-7.803,0c-2.155,2.154-2.155,5.648,0,7.803
			c2.154,2.155,5.648,2.155,7.803,0C157.195,150.251,157.195,146.758,155.041,144.604z M148.357,145.722
			c1.785-1.786,3.997-1.13,4.947-0.504l-5.451,5.451C146.839,149.136,147.019,147.061,148.357,145.722z M153.922,151.288
			c-1.462,1.462-3.546,1.427-4.948,0.503l5.458-5.441C155.438,147.882,155.256,149.953,153.922,151.288z"/>
	</g>
	<g>
		<path fill="#2E5788" d="M147.038,143.255c2.254-1.765,5.379-1.879,7.743-0.334c0.199-0.158,0.39-0.325,0.569-0.505
			c1.193-1.193,1.934-2.846,1.934-4.671c0-1.823-0.74-3.476-1.934-4.67c-1.194-1.194-2.847-1.934-4.671-1.934
			c-1.823,0-3.475,0.74-4.669,1.934c-1.194,1.194-1.935,2.847-1.935,4.67c0,1.825,0.74,3.478,1.935,4.671
			C146.321,142.729,146.667,143.01,147.038,143.255z M149.076,138.714c0.006-0.069,0.018-0.125,0.032-0.163
			c0.019-0.039,0.037-0.063,0.062-0.082c0.025-0.013,0.049-0.018,0.082-0.018c0.043,0,0.1,0.025,0.182,0.068
			c0.081,0.049,0.181,0.101,0.306,0.156c0.125,0.057,0.276,0.113,0.45,0.157c0.178,0.051,0.383,0.069,0.62,0.069
			c0.377,0,0.652-0.069,0.833-0.205c0.184-0.139,0.278-0.326,0.278-0.559c0-0.156-0.039-0.28-0.121-0.375
			c-0.081-0.1-0.182-0.188-0.313-0.263c-0.131-0.075-0.281-0.145-0.444-0.201c-0.164-0.063-0.333-0.125-0.508-0.187
			c-0.167-0.07-0.337-0.144-0.507-0.239c-0.163-0.088-0.312-0.199-0.445-0.331c-0.129-0.132-0.231-0.289-0.312-0.476
			c-0.081-0.189-0.119-0.413-0.119-0.677c0-0.238,0.038-0.457,0.119-0.651c0.081-0.2,0.194-0.369,0.345-0.52
			c0.149-0.151,0.339-0.263,0.558-0.357c0.219-0.094,0.469-0.151,0.744-0.188l0.094-0.965c0.006-0.025,0.013-0.05,0.02-0.062
			c0.013-0.019,0.03-0.031,0.063-0.049c0.03-0.012,0.067-0.024,0.124-0.032c0.052-0.006,0.12-0.013,0.2-0.013
			c0.102,0,0.184,0.008,0.246,0.013c0.063,0.012,0.119,0.025,0.15,0.044c0.038,0.019,0.055,0.044,0.069,0.069
			c0.012,0.031,0.012,0.064,0.012,0.094l-0.093,0.909c0.089,0.012,0.189,0.031,0.282,0.049c0.101,0.024,0.195,0.051,0.277,0.082
			c0.088,0.031,0.162,0.063,0.232,0.1c0.068,0.031,0.119,0.062,0.144,0.094c0.024,0.025,0.049,0.057,0.062,0.081
			c0.013,0.026,0.026,0.063,0.031,0.101c0.007,0.043,0.012,0.087,0.02,0.143c0.005,0.056,0.005,0.12,0.005,0.195
			c0,0.099,0,0.182-0.005,0.243c-0.008,0.063-0.013,0.114-0.025,0.144c-0.013,0.031-0.026,0.056-0.046,0.069
			c-0.018,0.012-0.03,0.019-0.055,0.019c-0.044,0-0.101-0.019-0.183-0.062c-0.081-0.045-0.175-0.088-0.293-0.133
			c-0.12-0.049-0.252-0.094-0.402-0.13c-0.151-0.045-0.319-0.063-0.502-0.063c-0.162,0-0.306,0.018-0.426,0.049
			c-0.119,0.032-0.213,0.076-0.287,0.132c-0.075,0.056-0.126,0.125-0.163,0.207c-0.03,0.081-0.049,0.169-0.049,0.263
			c0,0.15,0.036,0.276,0.118,0.375c0.082,0.101,0.187,0.193,0.32,0.263c0.132,0.075,0.283,0.139,0.451,0.2
			c0.169,0.063,0.337,0.125,0.515,0.194c0.173,0.068,0.343,0.144,0.513,0.232c0.168,0.088,0.312,0.2,0.45,0.327
			c0.131,0.13,0.238,0.287,0.313,0.468c0.081,0.188,0.119,0.407,0.119,0.663c0,0.277-0.051,0.526-0.143,0.746
			c-0.102,0.22-0.239,0.415-0.415,0.571c-0.181,0.163-0.394,0.288-0.645,0.381c-0.249,0.095-0.534,0.158-0.839,0.181l-0.102,1.029
			c-0.006,0.025-0.012,0.049-0.018,0.07c-0.012,0.017-0.031,0.037-0.064,0.049c-0.029,0.012-0.067,0.025-0.124,0.032l0.005,0.004
			c-0.048,0.008-0.119,0.013-0.201,0.013c-0.099,0-0.181-0.005-0.244-0.013c-0.061-0.012-0.114-0.025-0.144-0.044
			c-0.036-0.017-0.056-0.041-0.068-0.066c-0.013-0.032-0.013-0.065-0.006-0.095l0.1-0.979c-0.137-0.018-0.269-0.043-0.388-0.074
			c-0.125-0.031-0.233-0.062-0.332-0.099c-0.1-0.038-0.188-0.075-0.257-0.113c-0.068-0.039-0.125-0.076-0.162-0.113
			c-0.038-0.037-0.062-0.088-0.082-0.163c-0.018-0.069-0.025-0.176-0.025-0.32C149.063,138.877,149.07,138.784,149.076,138.714z"/>
	</g>
	<g>
		<path fill="#2E5788" d="M145.964,144.303c-0.355-0.255-0.689-0.537-0.997-0.845c-1.461-1.459-2.366-3.481-2.366-5.712
			c0-2.23,0.905-4.251,2.366-5.712c0.172-0.172,0.353-0.335,0.539-0.491c-1.96-1.256-4.291-1.989-6.793-1.989
			c-3.481,0-6.637,1.415-8.916,3.695c-2.281,2.278-3.694,5.433-3.694,8.915c0,3.483,1.414,6.64,3.694,8.919
			c2.279,2.278,5.434,3.692,8.916,3.692c2.652,0,5.112-0.821,7.141-2.217C143.983,150.124,144.015,146.696,145.964,144.303z
			 M141.463,145.027c-0.19,0.41-0.446,0.775-0.775,1.066c-0.336,0.304-0.736,0.539-1.205,0.713
			c-0.466,0.177-0.996,0.294-1.567,0.339l-0.19,1.921c-0.01,0.047-0.023,0.093-0.034,0.13c-0.022,0.033-0.058,0.069-0.118,0.092
			c-0.055,0.022-0.126,0.046-0.232,0.059l0.011,0.01c-0.09,0.013-0.223,0.023-0.375,0.023c-0.186,0-0.339-0.01-0.455-0.023
			c-0.115-0.023-0.212-0.046-0.269-0.082c-0.068-0.034-0.105-0.079-0.127-0.125c-0.024-0.06-0.024-0.12-0.012-0.177l0.186-1.828
			c-0.256-0.034-0.502-0.081-0.724-0.139c-0.234-0.06-0.435-0.116-0.62-0.188c-0.189-0.069-0.353-0.139-0.482-0.209
			c-0.128-0.072-0.234-0.143-0.303-0.212c-0.071-0.069-0.117-0.164-0.153-0.304c-0.034-0.129-0.046-0.328-0.046-0.598
			c0-0.198,0.012-0.372,0.023-0.503c0.013-0.127,0.034-0.233,0.059-0.303c0.035-0.072,0.071-0.117,0.117-0.154
			c0.045-0.023,0.092-0.034,0.154-0.034c0.081,0,0.186,0.047,0.339,0.129c0.151,0.094,0.339,0.189,0.572,0.292
			c0.233,0.105,0.515,0.211,0.841,0.293c0.331,0.094,0.715,0.128,1.159,0.128c0.704,0,1.218-0.128,1.556-0.385
			c0.343-0.259,0.517-0.608,0.517-1.042c0-0.292-0.073-0.526-0.224-0.703c-0.154-0.188-0.34-0.351-0.585-0.49
			c-0.245-0.14-0.524-0.27-0.829-0.375c-0.306-0.117-0.622-0.235-0.95-0.349c-0.314-0.131-0.63-0.27-0.948-0.447
			c-0.304-0.163-0.584-0.372-0.832-0.619c-0.241-0.247-0.431-0.539-0.584-0.889c-0.151-0.353-0.222-0.772-0.222-1.264
			c0-0.445,0.072-0.855,0.222-1.217c0.153-0.374,0.364-0.692,0.645-0.973c0.28-0.281,0.632-0.49,1.042-0.665
			c0.408-0.176,0.877-0.282,1.391-0.351l0.176-1.803c0.012-0.047,0.024-0.092,0.037-0.116c0.023-0.035,0.057-0.058,0.117-0.092
			c0.056-0.022,0.126-0.046,0.231-0.059c0.097-0.011,0.225-0.024,0.374-0.024c0.19,0,0.342,0.013,0.459,0.024
			c0.118,0.022,0.222,0.046,0.28,0.082c0.07,0.035,0.104,0.082,0.128,0.127c0.022,0.059,0.022,0.119,0.022,0.176l-0.174,1.698
			c0.165,0.023,0.353,0.058,0.525,0.092c0.189,0.046,0.365,0.095,0.517,0.153c0.164,0.058,0.303,0.118,0.432,0.187
			c0.128,0.059,0.223,0.118,0.271,0.175c0.046,0.047,0.092,0.107,0.116,0.153c0.024,0.048,0.049,0.118,0.059,0.188
			c0.012,0.081,0.022,0.163,0.036,0.269c0.01,0.104,0.01,0.222,0.01,0.364c0,0.185,0,0.339-0.01,0.453
			c-0.013,0.118-0.024,0.213-0.046,0.27c-0.024,0.059-0.049,0.105-0.086,0.128c-0.032,0.024-0.057,0.036-0.102,0.036
			c-0.083,0-0.19-0.036-0.341-0.116c-0.152-0.084-0.328-0.166-0.548-0.248c-0.223-0.092-0.47-0.176-0.751-0.244
			c-0.283-0.082-0.596-0.117-0.937-0.117c-0.303,0-0.572,0.035-0.795,0.093c-0.223,0.059-0.398,0.142-0.538,0.246
			c-0.142,0.104-0.236,0.232-0.305,0.386c-0.057,0.152-0.092,0.316-0.092,0.492c0,0.28,0.068,0.515,0.22,0.701
			c0.154,0.188,0.351,0.363,0.598,0.491c0.247,0.142,0.527,0.259,0.842,0.376c0.316,0.116,0.631,0.233,0.961,0.362
			c0.325,0.128,0.642,0.269,0.96,0.434c0.315,0.162,0.583,0.372,0.841,0.61c0.246,0.244,0.446,0.535,0.585,0.875
			c0.152,0.351,0.223,0.761,0.223,1.238C141.73,144.151,141.635,144.617,141.463,145.027z"/>
	</g>
</g>
</svg>
