<?xml version="1.0" encoding="iso-8859-1"?>
<!-- Generator: Adobe Illustrator 17.0.0, SVG Export Plug-In . SVG Version: 6.00 Build 0)  -->
<!DOCTYPE svg PUBLIC "-//W3C//DTD SVG 1.1 Tiny//EN" "http://www.w3.org/Graphics/SVG/1.1/DTD/svg11-tiny.dtd">
<svg version="1.1" baseProfile="tiny" id="Layer_1" xmlns="http://www.w3.org/2000/svg" xmlns:xlink="http://www.w3.org/1999/xlink"
	 x="0px" y="0px" width="32px" height="32px" viewBox="125.73 125.73 32 32" xml:space="preserve">
<g>
	<path fill="#2DC419" d="M147.616,129.888c-1.39-1.391-3.314-2.253-5.438-2.253c-2.122,0-4.046,0.862-5.436,2.253
		c-1.391,1.389-2.252,3.313-2.252,5.436c0,2.124,0.862,4.048,2.252,5.438c1.39,1.389,3.313,2.251,5.436,2.251
		c2.125,0,4.048-0.862,5.438-2.251c1.39-1.39,2.252-3.314,2.252-5.438C149.868,133.201,149.006,131.277,147.616,129.888z
		 M144.964,137.738c-0.127,0.276-0.299,0.52-0.52,0.715c-0.226,0.204-0.494,0.362-0.808,0.479c-0.313,0.119-0.668,0.197-1.051,0.227
		l-0.127,1.288c-0.007,0.032-0.016,0.062-0.023,0.087c-0.015,0.023-0.039,0.047-0.079,0.062c-0.037,0.015-0.084,0.031-0.156,0.039
		l0.007,0.007c-0.061,0.009-0.149,0.016-0.251,0.016c-0.124,0-0.228-0.007-0.306-0.016c-0.077-0.015-0.142-0.031-0.181-0.055
		c-0.046-0.023-0.07-0.054-0.085-0.084c-0.016-0.04-0.016-0.081-0.007-0.119l0.124-1.226c-0.172-0.023-0.337-0.054-0.486-0.094
		c-0.157-0.04-0.291-0.078-0.416-0.126c-0.126-0.047-0.237-0.094-0.323-0.141c-0.086-0.048-0.157-0.095-0.203-0.142
		c-0.048-0.047-0.079-0.109-0.103-0.204c-0.023-0.086-0.031-0.22-0.031-0.4c0-0.133,0.008-0.25,0.015-0.338
		c0.008-0.086,0.023-0.157,0.04-0.204c0.023-0.048,0.047-0.079,0.079-0.103c0.03-0.015,0.062-0.022,0.103-0.022
		c0.054,0,0.124,0.031,0.227,0.086c0.101,0.063,0.227,0.127,0.384,0.196c0.156,0.071,0.346,0.142,0.564,0.197
		c0.222,0.062,0.48,0.086,0.778,0.086c0.472,0,0.816-0.086,1.044-0.258c0.229-0.174,0.347-0.408,0.347-0.699
		c0-0.196-0.049-0.353-0.15-0.471c-0.102-0.126-0.228-0.235-0.392-0.329c-0.165-0.094-0.353-0.182-0.557-0.252
		c-0.205-0.079-0.417-0.157-0.637-0.235c-0.21-0.087-0.422-0.181-0.635-0.299c-0.205-0.11-0.392-0.25-0.559-0.416
		c-0.162-0.165-0.289-0.361-0.392-0.596c-0.102-0.237-0.149-0.518-0.149-0.849c0-0.298,0.048-0.574,0.149-0.816
		c0.103-0.251,0.244-0.464,0.433-0.653c0.187-0.188,0.424-0.329,0.699-0.446c0.274-0.118,0.588-0.19,0.934-0.236l0.118-1.21
		c0.008-0.031,0.016-0.062,0.024-0.078c0.015-0.023,0.038-0.039,0.079-0.062c0.037-0.015,0.084-0.031,0.156-0.04
		c0.064-0.007,0.15-0.016,0.251-0.016c0.127,0,0.229,0.009,0.307,0.016c0.079,0.015,0.149,0.031,0.189,0.055
		c0.046,0.023,0.069,0.055,0.085,0.085c0.016,0.04,0.016,0.08,0.016,0.118l-0.117,1.139c0.11,0.015,0.237,0.039,0.353,0.062
		c0.127,0.031,0.245,0.064,0.347,0.103c0.11,0.039,0.203,0.079,0.291,0.126c0.085,0.04,0.149,0.079,0.181,0.117
		c0.03,0.032,0.061,0.071,0.077,0.102c0.017,0.033,0.032,0.079,0.04,0.126c0.008,0.054,0.015,0.109,0.024,0.181
		c0.007,0.07,0.007,0.149,0.007,0.244c0,0.125,0,0.228-0.007,0.305c-0.009,0.079-0.016,0.142-0.031,0.181
		c-0.016,0.039-0.032,0.07-0.056,0.086c-0.023,0.016-0.039,0.024-0.069,0.024c-0.055,0-0.127-0.024-0.229-0.078
		c-0.103-0.056-0.22-0.111-0.368-0.166c-0.15-0.063-0.315-0.118-0.504-0.165c-0.189-0.055-0.4-0.078-0.629-0.078
		c-0.203,0-0.384,0.023-0.533,0.062c-0.149,0.04-0.267,0.095-0.361,0.165c-0.095,0.07-0.158,0.156-0.204,0.259
		c-0.039,0.102-0.062,0.212-0.062,0.33c0,0.188,0.046,0.345,0.148,0.471c0.104,0.126,0.236,0.243,0.401,0.33
		c0.166,0.094,0.354,0.173,0.565,0.251c0.212,0.078,0.423,0.156,0.644,0.244c0.219,0.086,0.431,0.18,0.644,0.29
		c0.212,0.109,0.391,0.25,0.564,0.409c0.165,0.163,0.299,0.36,0.393,0.588c0.101,0.235,0.15,0.511,0.15,0.831
		C145.144,137.15,145.081,137.463,144.964,137.738z"/>
	<path fill="#2DC419" d="M134.997,148.166c-0.811-0.811-1.933-1.315-3.173-1.315c-1.239,0-2.361,0.503-3.172,1.315
		c-0.811,0.811-1.314,1.933-1.314,3.172c0,1.239,0.503,2.362,1.314,3.173c0.811,0.811,1.933,1.314,3.172,1.314
		c1.24,0,2.362-0.503,3.173-1.314c0.811-0.811,1.314-1.934,1.314-3.173C136.311,150.099,135.808,148.977,134.997,148.166z
		 M133.186,152.695c-0.072,0.155-0.168,0.292-0.292,0.402c-0.127,0.115-0.278,0.203-0.454,0.269
		c-0.176,0.067-0.376,0.111-0.591,0.128l-0.072,0.725c-0.004,0.018-0.009,0.035-0.013,0.049c-0.008,0.012-0.022,0.026-0.044,0.035
		c-0.021,0.008-0.048,0.018-0.088,0.022l0.004,0.004c-0.034,0.005-0.084,0.009-0.141,0.009c-0.07,0-0.128-0.004-0.172-0.009
		c-0.044-0.009-0.08-0.018-0.102-0.031c-0.026-0.013-0.039-0.03-0.048-0.047c-0.009-0.023-0.009-0.045-0.004-0.067l0.07-0.689
		c-0.097-0.013-0.189-0.03-0.273-0.053c-0.088-0.022-0.164-0.043-0.234-0.07c-0.071-0.026-0.133-0.053-0.182-0.079
		c-0.048-0.027-0.088-0.053-0.114-0.08c-0.027-0.026-0.044-0.062-0.058-0.115c-0.013-0.048-0.018-0.124-0.018-0.225
		c0-0.075,0.005-0.14,0.009-0.19c0.005-0.048,0.013-0.088,0.022-0.115c0.013-0.027,0.027-0.044,0.044-0.058
		c0.017-0.008,0.035-0.012,0.058-0.012c0.03,0,0.07,0.017,0.128,0.048c0.057,0.035,0.128,0.071,0.216,0.11
		c0.088,0.04,0.194,0.08,0.317,0.111c0.125,0.035,0.27,0.048,0.437,0.048c0.266,0,0.459-0.048,0.587-0.145
		c0.129-0.098,0.195-0.229,0.195-0.393c0-0.11-0.027-0.198-0.084-0.265c-0.058-0.071-0.128-0.132-0.221-0.185
		c-0.093-0.053-0.198-0.102-0.313-0.142c-0.115-0.044-0.235-0.088-0.358-0.132c-0.118-0.049-0.237-0.102-0.357-0.168
		c-0.115-0.062-0.22-0.141-0.314-0.233c-0.091-0.093-0.163-0.203-0.22-0.335c-0.057-0.133-0.084-0.291-0.084-0.477
		c0-0.168,0.027-0.322,0.084-0.459c0.058-0.141,0.137-0.261,0.243-0.367c0.105-0.106,0.238-0.185,0.393-0.251
		c0.154-0.066,0.331-0.106,0.525-0.133l0.066-0.68c0.005-0.018,0.009-0.035,0.014-0.044c0.009-0.013,0.021-0.022,0.044-0.035
		c0.021-0.009,0.047-0.017,0.087-0.022c0.036-0.004,0.085-0.009,0.141-0.009c0.072,0,0.129,0.005,0.173,0.009
		c0.044,0.008,0.084,0.017,0.106,0.031c0.027,0.013,0.039,0.031,0.048,0.048c0.009,0.022,0.009,0.045,0.009,0.067l-0.066,0.64
		c0.062,0.009,0.133,0.022,0.198,0.035c0.071,0.018,0.137,0.036,0.195,0.058c0.062,0.022,0.114,0.045,0.163,0.07
		c0.048,0.022,0.084,0.044,0.102,0.066c0.017,0.018,0.035,0.04,0.044,0.057c0.009,0.018,0.018,0.045,0.022,0.071
		c0.005,0.03,0.009,0.061,0.014,0.101c0.004,0.039,0.004,0.084,0.004,0.137c0,0.07,0,0.128-0.004,0.171
		c-0.005,0.044-0.009,0.08-0.017,0.102c-0.009,0.022-0.018,0.039-0.032,0.048c-0.012,0.009-0.021,0.014-0.039,0.014
		c-0.031,0-0.072-0.014-0.128-0.044c-0.058-0.031-0.124-0.062-0.207-0.093c-0.084-0.035-0.177-0.066-0.283-0.092
		c-0.107-0.031-0.225-0.044-0.353-0.044c-0.114,0-0.216,0.013-0.3,0.035c-0.084,0.022-0.15,0.053-0.203,0.092
		c-0.054,0.04-0.089,0.088-0.115,0.146c-0.021,0.057-0.035,0.119-0.035,0.186c0,0.106,0.026,0.194,0.083,0.264
		c0.058,0.071,0.132,0.137,0.226,0.186c0.093,0.053,0.199,0.098,0.318,0.141c0.119,0.044,0.238,0.088,0.362,0.137
		c0.123,0.048,0.242,0.101,0.362,0.163c0.119,0.061,0.22,0.141,0.317,0.23c0.093,0.092,0.168,0.202,0.221,0.33
		c0.057,0.132,0.084,0.287,0.084,0.467C133.287,152.365,133.252,152.541,133.186,152.695z"/>
	<path fill="#2DC419" d="M154.84,148.242c-0.791-0.792-1.887-1.283-3.097-1.283c-1.209,0-2.304,0.491-3.096,1.283
		c-0.792,0.791-1.283,1.887-1.283,3.096c0,1.21,0.491,2.306,1.283,3.097c0.792,0.791,1.887,1.282,3.096,1.282
		c1.21,0,2.306-0.491,3.097-1.282c0.791-0.791,1.283-1.888,1.283-3.097C156.122,150.129,155.631,149.033,154.84,148.242z
		 M153.39,152.645c-0.069,0.149-0.162,0.281-0.281,0.387c-0.122,0.11-0.268,0.196-0.437,0.259c-0.169,0.065-0.362,0.107-0.569,0.123
		l-0.069,0.698c-0.004,0.017-0.008,0.034-0.013,0.047c-0.008,0.012-0.021,0.025-0.043,0.033c-0.02,0.008-0.046,0.017-0.084,0.021
		l0.004,0.004c-0.033,0.005-0.08,0.008-0.136,0.008c-0.067,0-0.123-0.004-0.165-0.008c-0.042-0.008-0.077-0.017-0.098-0.03
		c-0.025-0.012-0.038-0.029-0.046-0.045c-0.009-0.022-0.009-0.044-0.004-0.065l0.067-0.664c-0.093-0.012-0.182-0.029-0.263-0.051
		c-0.085-0.021-0.158-0.042-0.225-0.068c-0.068-0.025-0.128-0.051-0.175-0.076c-0.046-0.026-0.085-0.051-0.11-0.077
		c-0.026-0.025-0.043-0.059-0.056-0.11c-0.013-0.047-0.017-0.119-0.017-0.217c0-0.072,0.005-0.135,0.009-0.183
		c0.004-0.046,0.013-0.085,0.021-0.11c0.012-0.026,0.026-0.043,0.043-0.056c0.016-0.008,0.033-0.012,0.055-0.012
		c0.029,0,0.067,0.017,0.123,0.046c0.055,0.034,0.123,0.069,0.208,0.106c0.085,0.039,0.187,0.077,0.306,0.107
		c0.12,0.034,0.26,0.046,0.421,0.046c0.256,0,0.442-0.046,0.565-0.14c0.124-0.094,0.187-0.221,0.187-0.378
		c0-0.106-0.026-0.191-0.081-0.255c-0.056-0.068-0.124-0.127-0.212-0.178c-0.089-0.051-0.191-0.098-0.301-0.137
		c-0.111-0.043-0.226-0.085-0.345-0.127c-0.114-0.047-0.229-0.098-0.344-0.162c-0.111-0.059-0.212-0.135-0.302-0.225
		c-0.088-0.09-0.157-0.196-0.212-0.323c-0.055-0.128-0.08-0.281-0.08-0.459c0-0.162,0.026-0.31,0.08-0.442
		c0.056-0.136,0.132-0.251,0.235-0.353c0.101-0.102,0.229-0.178,0.378-0.241c0.148-0.064,0.318-0.102,0.505-0.128l0.064-0.655
		c0.004-0.017,0.009-0.033,0.013-0.042c0.009-0.013,0.021-0.021,0.043-0.033c0.02-0.008,0.045-0.017,0.084-0.022
		c0.035-0.004,0.082-0.009,0.136-0.009c0.069,0,0.124,0.005,0.166,0.009c0.043,0.008,0.081,0.017,0.102,0.03
		c0.026,0.012,0.038,0.03,0.046,0.046c0.008,0.021,0.008,0.043,0.008,0.064l-0.063,0.616c0.059,0.008,0.128,0.021,0.19,0.033
		c0.069,0.017,0.132,0.035,0.188,0.056c0.059,0.021,0.11,0.043,0.157,0.068c0.046,0.022,0.081,0.043,0.098,0.064
		c0.017,0.017,0.033,0.039,0.042,0.055c0.009,0.018,0.018,0.043,0.021,0.068c0.005,0.029,0.008,0.059,0.013,0.098
		c0.004,0.038,0.004,0.081,0.004,0.132c0,0.067,0,0.123-0.004,0.165c-0.005,0.043-0.008,0.077-0.017,0.098
		c-0.009,0.021-0.018,0.038-0.031,0.046c-0.012,0.009-0.021,0.013-0.038,0.013c-0.03,0-0.069-0.013-0.124-0.042
		c-0.055-0.03-0.119-0.06-0.199-0.09c-0.081-0.034-0.171-0.064-0.273-0.089c-0.102-0.03-0.216-0.042-0.34-0.042
		c-0.11,0-0.208,0.013-0.289,0.034c-0.081,0.022-0.144,0.051-0.195,0.089c-0.052,0.038-0.086,0.085-0.111,0.14
		c-0.021,0.055-0.033,0.115-0.033,0.179c0,0.102,0.025,0.187,0.08,0.255c0.056,0.068,0.127,0.131,0.217,0.179
		c0.09,0.051,0.192,0.094,0.306,0.136c0.115,0.042,0.229,0.084,0.349,0.132c0.118,0.046,0.233,0.098,0.349,0.157
		c0.114,0.059,0.212,0.135,0.305,0.222c0.089,0.088,0.162,0.194,0.213,0.318c0.055,0.127,0.081,0.276,0.081,0.45
		C153.487,152.327,153.453,152.496,153.39,152.645z"/>
	<g>
		<g>
			
				<line fill="none" stroke="#2DC419" stroke-width="0.75" stroke-miterlimit="10" x1="133.432" y1="148.505" x2="137.137" y2="143.013"/>
			<g>
				<polygon fill="#2DC419" points="137.321,144.655 137.033,143.168 135.546,143.457 136.055,142.703 137.541,142.415 
					137.83,143.901 				"/>
			</g>
		</g>
	</g>
	<g>
		<g>
			
				<line fill="none" stroke="#2DC419" stroke-width="0.75" stroke-miterlimit="10" x1="146.914" y1="143.106" x2="150.619" y2="148.597"/>
			<g>
				<polygon fill="#2DC419" points="146.222,143.993 146.511,142.507 147.997,142.796 148.505,143.55 147.018,143.26 
					146.73,144.747 				"/>
			</g>
		</g>
	</g>
</g>
</svg>
