<?xml version="1.0" encoding="utf-8"?>
<!-- Generator: Adobe Illustrator 17.0.0, SVG Export Plug-In . SVG Version: 6.00 Build 0)  -->
<!DOCTYPE svg PUBLIC "-//W3C//DTD SVG 1.1//EN" "http://www.w3.org/Graphics/SVG/1.1/DTD/svg11.dtd">
<svg version="1.1" id="Layer_1" xmlns="http://www.w3.org/2000/svg" xmlns:xlink="http://www.w3.org/1999/xlink" x="0px" y="0px"
	 width="74.25px" height="99.354px" viewBox="0 0 74.25 99.354" enable-background="new 0 0 74.25 99.354" xml:space="preserve">
<path fill="#818FA5" d="M23.513,95.465"/>
<g>
	<g>
		<path fill="#FFFFFF" d="M0,0v77.917l16.524,21.437H74.25V0H0z M19.206,95.465L4.243,76.107h14.963
			C19.206,76.107,19.206,95.465,19.206,95.465z M70.007,95.465H23.513V72.129H4.243V4.243h65.765L70.007,95.465L70.007,95.465z"/>
	</g>
</g>
<rect x="11.756" y="47.202" fill="#FFFFFF" width="51.356" height="5.304"/>
<rect x="11.756" y="55.555" fill="#FFFFFF" width="51.356" height="5.304"/>
<rect x="11.756" y="64.041" fill="#FFFFFF" width="51.356" height="5.304"/>
<path fill="#FFFFFF" d="M37.801,28.506c-4.954-1.669-8.337-3.985-8.337-8.481c0-4.079,2.867-7.274,7.828-8.25V7.377h4.542v4.077
	c3.104,0.14,5.189,0.788,6.719,1.528l-1.343,5.233c-1.209-0.508-3.339-1.572-6.674-1.572c-3.015,0-3.984,1.296-3.984,2.592
	c0,1.529,1.622,2.503,5.556,3.987c5.517,1.946,7.742,4.494,7.742,8.661c0,4.125-2.922,7.647-8.255,8.573v4.726H37.06v-4.401
	c-3.103-0.137-6.115-0.971-7.875-1.992l1.392-5.421c1.945,1.067,4.679,2.038,7.688,2.038c2.645,0,4.447-1.017,4.447-2.869
	C42.712,30.776,41.231,29.663,37.801,28.506z"/>
</svg>
