<?xml version="1.0" encoding="utf-8"?>
<!-- Generator: Adobe Illustrator 17.0.0, SVG Export Plug-In . SVG Version: 6.00 Build 0)  -->
<!DOCTYPE svg PUBLIC "-//W3C//DTD SVG 1.1//EN" "http://www.w3.org/Graphics/SVG/1.1/DTD/svg11.dtd">
<svg version="1.1" id="Layer_1" xmlns="http://www.w3.org/2000/svg" xmlns:xlink="http://www.w3.org/1999/xlink" x="0px" y="0px"
	 width="92.833px" height="94.168px" viewBox="0 0 92.833 94.168" enable-background="new 0 0 92.833 94.168" xml:space="preserve">
<g>
	<g>
		<path fill="#FFFFFF" d="M0,0v94.168h92.833V0H0z M88.607,89.881H4.226V4.287h84.38V89.881z"/>
	</g>
</g>
<rect x="1.409" y="22.541" fill="#FFFFFF" width="88.755" height="4.82"/>
<path fill="#FFFFFF" d="M81.711,36.036c0,1.229-0.996,2.224-2.224,2.224H13.495c-1.229,0-2.224-0.996-2.224-2.224l0,0
	c0-1.229,0.996-2.224,2.224-2.224h65.992C80.715,33.812,81.711,34.807,81.711,36.036L81.711,36.036z"/>
<path fill="#FFFFFF" d="M30.994,47.603c0,1.147-0.93,2.076-2.076,2.076h-9.343c-1.147,0-2.076-0.93-2.076-2.076l0,0
	c0-1.147,0.93-2.076,2.076-2.076h9.343C30.064,45.527,30.994,46.456,30.994,47.603L30.994,47.603z"/>
<path fill="#FFFFFF" d="M75.483,47.603c0,1.229-0.996,2.224-2.224,2.224H39.447c-1.229,0-2.224-0.996-2.224-2.224l0,0
	c0-1.229,0.996-2.224,2.224-2.224h33.812C74.487,45.379,75.483,46.375,75.483,47.603L75.483,47.603z"/>
<path fill="#FFFFFF" d="M30.994,58.725c0,1.147-0.93,2.076-2.076,2.076h-9.343c-1.147,0-2.076-0.93-2.076-2.076l0,0
	c0-1.147,0.93-2.076,2.076-2.076h9.343C30.064,56.649,30.994,57.579,30.994,58.725L30.994,58.725z"/>
<path fill="#FFFFFF" d="M75.483,58.725c0,1.229-0.996,2.224-2.224,2.224H39.447c-1.229,0-2.224-0.996-2.224-2.224l0,0
	c0-1.229,0.996-2.224,2.224-2.224h33.812C74.487,56.501,75.483,57.497,75.483,58.725L75.483,58.725z"/>
<path fill="#FFFFFF" d="M30.994,69.551c0,1.147-0.93,2.076-2.076,2.076h-9.343c-1.147,0-2.076-0.93-2.076-2.076l0,0
	c0-1.147,0.93-2.076,2.076-2.076h9.343C30.064,67.475,30.994,68.404,30.994,69.551L30.994,69.551z"/>
<path fill="#FFFFFF" d="M75.483,69.551c0,1.229-0.996,2.224-2.224,2.224H39.447c-1.229,0-2.224-0.996-2.224-2.224l0,0
	c0-1.229,0.996-2.224,2.224-2.224h33.812C74.487,67.326,75.483,68.322,75.483,69.551L75.483,69.551z"/>
<path fill="#FFFFFF" d="M30.994,80.97c0,1.147-0.93,2.076-2.076,2.076h-9.343c-1.147,0-2.076-0.93-2.076-2.076l0,0
	c0-1.147,0.93-2.076,2.076-2.076h9.343C30.064,78.894,30.994,79.823,30.994,80.97L30.994,80.97z"/>
<path fill="#FFFFFF" d="M75.483,80.97c0,1.229-0.996,2.224-2.224,2.224H39.447c-1.229,0-2.224-0.996-2.224-2.224l0,0
	c0-1.229,0.996-2.224,2.224-2.224h33.812C74.487,78.745,75.483,79.741,75.483,80.97L75.483,80.97z"/>
</svg>
