<?xml version="1.0" encoding="utf-8"?>
<!-- Generator: Adobe Illustrator 17.0.0, SVG Export Plug-In . SVG Version: 6.00 Build 0)  -->
<!DOCTYPE svg PUBLIC "-//W3C//DTD SVG 1.1//EN" "http://www.w3.org/Graphics/SVG/1.1/DTD/svg11.dtd">
<svg version="1.1" id="Layer_1" xmlns="http://www.w3.org/2000/svg" xmlns:xlink="http://www.w3.org/1999/xlink" x="0px" y="0px"
	 width="283.46px" height="283.46px" viewBox="0 0 283.46 283.46" enable-background="new 0 0 283.46 283.46" xml:space="preserve">
<path fill="none" stroke="#4BB749" stroke-width="10" stroke-miterlimit="10" d="M141.729,6.796
	c74.427,0,134.938,60.476,134.938,134.935c0,74.426-60.507,134.934-134.938,134.934c-74.458,0-134.936-60.508-134.936-134.932
	C6.793,67.276,67.273,6.796,141.729,6.796L141.729,6.796z"/>
<path fill="#4CB748" d="M211.192,83.37c0,0-73.716,128.375-74.992,129.572c-4.205,3.948-10.807,3.73-14.751-0.479l-47.753-44.051
	c-3.935-4.206-3.73-10.811,0.491-14.759c4.196-3.948,10.801-3.725,14.753,0.486l37.366,34.464l66.781-115.684
	c2.885-4.998,9.29-6.708,14.265-3.827C212.345,71.98,214.061,78.367,211.192,83.37z"/>
</svg>
