<?xml version="1.0" encoding="utf-8"?>
<!-- Generator: Adobe Illustrator 17.0.0, SVG Export Plug-In . SVG Version: 6.00 Build 0)  -->
<!DOCTYPE svg PUBLIC "-//W3C//DTD SVG 1.1//EN" "http://www.w3.org/Graphics/SVG/1.1/DTD/svg11.dtd">
<svg version="1.1" id="Capa_1" xmlns="http://www.w3.org/2000/svg" xmlns:xlink="http://www.w3.org/1999/xlink" x="0px" y="0px"
	 width="705.838px" height="600px" viewBox="96.738 0 705.838 600" enable-background="new 96.738 0 705.838 600"
	 xml:space="preserve">
<path fill="#2E5589" d="M537.647,131.51c-4.854,0-8.789,3.935-8.789,8.789v403.944c0,0.334-0.271,0.605-0.605,0.605H237.042
	c-4.854,0-8.789,3.935-8.789,8.789c0,4.854,3.935,8.789,8.789,8.789h291.211c10.027,0,18.183-8.156,18.183-18.183V140.299
	C546.436,135.446,542.501,131.51,537.647,131.51z"/>
<path fill="#2E5589" d="M565.828,75.151h-19.392V55.759c0-10.027-8.156-18.183-18.183-18.183h-71.512L427.243,8.078
	C422.036,2.869,415.11,0,407.743,0H114.921c-10.027,0-18.183,8.156-18.183,18.183v488.484c0,10.027,8.156,18.183,18.183,18.183
	h19.392v19.392c0,10.027,8.156,18.183,18.183,18.183h19.392v19.392c0,10.027,8.156,18.183,18.183,18.183h375.758
	c10.027,0,18.183-8.156,18.183-18.183V93.334C584.011,83.309,575.855,75.151,565.828,75.151z M488.247,93.939h-72.721
	c-0.334,0-0.605-0.271-0.605-0.605V20.613L488.247,93.939z M114.316,506.667V18.183c0-0.334,0.271-0.605,0.605-0.605h282.422v75.756
	c0,10.027,8.156,18.183,18.183,18.183h75.757v395.15c0,0.334-0.271,0.605-0.605,0.605H114.921
	C114.587,507.272,114.316,507.001,114.316,506.667z M566.433,581.818c0,0.334-0.271,0.605-0.605,0.605H190.072
	c-0.334,0-0.605-0.271-0.605-0.605v-19.392h10.001c4.854,0,8.789-3.935,8.789-8.789c0-4.854-3.935-8.789-8.789-8.789h-46.972
	c-0.334,0-0.605-0.271-0.605-0.605v-19.392h338.786c10.027,0,18.183-8.156,18.183-18.183V101.117c0-7.365-2.869-14.291-8.078-19.5
	L474.32,55.153h53.933c0.334,0,0.605,0.271,0.605,0.605v46.969c0,4.854,3.935,8.789,8.789,8.789c4.854,0,8.789-3.935,8.789-8.789
	v-9.997h19.392c0.334,0,0.605,0.271,0.605,0.605V581.818L566.433,581.818z"/>
<path fill="#2E5589" d="M374.977,351.828c-3.989,8.679-9.416,16.388-16.361,22.539c-7.125,6.462-15.595,11.388-25.494,15.076
	c-9.857,3.729-21.036,6.216-33.148,7.19l-3.989,40.611c-0.218,1.011-0.506,1.967-0.738,2.732c-0.469,0.728-1.243,1.475-2.472,1.971
	c-1.192,0.492-2.667,0.969-4.949,1.243l0.246,0.232c-1.957,0.26-4.704,0.478-7.918,0.478c-3.938,0-7.19-0.218-9.639-0.478
	c-2.458-0.506-4.495-0.969-5.738-1.74c-1.438-0.724-2.176-1.712-2.695-2.667c-0.506-1.266-0.506-2.523-0.204-3.757l3.938-38.631
	c-5.455-0.724-10.674-1.726-15.363-2.955c-4.973-1.243-9.157-2.449-13.137-3.961c-3.938-1.475-7.422-2.955-10.154-4.444
	c-2.704-1.517-4.949-2.978-6.411-4.444c-1.475-1.489-2.472-3.456-3.224-6.452c-0.724-2.718-0.983-6.93-0.983-12.645
	c0-4.198,0.26-7.89,0.492-10.646c0.26-2.695,0.751-4.922,1.243-6.438c0.775-1.489,1.503-2.477,2.472-3.224
	c0.946-0.455,1.981-0.728,3.224-0.728c1.735,0,3.961,0.983,7.176,2.718c3.21,1.971,7.19,3.989,12.098,6.179
	c4.963,2.24,10.91,4.472,17.826,6.206c6.981,1.981,15.145,2.704,24.52,2.704c14.858,0,25.712-2.704,32.944-8.145
	c7.204-5.469,10.91-12.863,10.91-22.034c0-6.179-1.545-11.137-4.741-14.844c-3.238-3.975-7.162-7.422-12.394-10.391
	c-5.167-2.955-11.114-5.701-17.529-7.927c-6.476-2.486-13.16-4.987-20.09-7.422c-6.633-2.746-13.331-5.701-20.025-9.403
	c-6.452-3.474-12.371-7.914-17.59-13.123c-5.14-5.209-9.133-11.388-12.371-18.796c-3.196-7.45-4.713-16.347-4.713-26.765
	c0-9.379,1.517-18.072,4.713-25.726c3.238-7.918,7.668-14.626,13.628-20.586c5.905-5.947,13.369-10.363,22.034-14.069
	c8.67-3.72,18.55-5.961,29.474-7.426l3.692-38.162c0.246-0.96,0.478-1.944,0.751-2.449c0.506-0.751,1.192-1.206,2.477-1.971
	c1.192-0.469,2.681-0.969,4.922-1.243c2.009-0.218,4.741-0.506,7.941-0.506c3.989,0,7.19,0.288,9.653,0.506
	c2.5,0.469,4.704,0.969,5.947,1.749c1.475,0.714,2.189,1.726,2.695,2.695c0.492,1.229,0.492,2.472,0.492,3.706l-3.692,35.908
	c3.474,0.468,7.459,1.22,11.137,1.957c3.975,0.969,7.695,2.009,10.919,3.252c3.433,1.201,6.383,2.472,9.143,3.924
	c2.709,1.257,4.731,2.486,5.715,3.743c0.969,0.969,1.939,2.227,2.449,3.201c0.515,1.025,1.021,2.486,1.257,3.961
	c0.232,1.726,0.455,3.447,0.728,5.701c0.232,2.227,0.232,4.69,0.232,7.682c0,3.952,0,7.176-0.232,9.639
	c-0.274,2.463-0.492,4.444-0.96,5.701c-0.506,1.215-1.021,2.217-1.758,2.704c-0.738,0.52-1.248,0.751-2.203,0.751
	c-1.786,0-4.017-0.751-7.176-2.477c-3.28-1.749-6.967-3.484-11.671-5.195c-4.69-2.009-9.908-3.757-15.869-5.209
	c-5.947-1.726-12.589-2.477-19.793-2.477c-6.411,0-12.112,0.751-16.787,1.971c-4.717,1.266-8.447,3.006-11.411,5.209
	c-2.969,2.217-5.014,4.945-6.438,8.173c-1.234,3.224-1.971,6.684-1.971,10.386c0,5.961,1.489,10.91,4.676,14.871
	c3.266,3.938,7.422,7.64,12.631,10.377c5.218,2.969,11.142,5.492,17.836,7.941c6.684,2.449,13.383,4.936,20.289,7.668
	c6.93,2.704,13.614,5.71,20.313,9.147c6.694,3.47,12.343,7.927,17.798,12.9c5.218,5.154,9.444,11.346,12.394,18.536
	c3.21,7.422,4.69,16.101,4.69,26.204C380.636,333.278,378.683,343.149,374.977,351.828z"/>
</svg>
