<?xml version="1.0" encoding="utf-8"?>
<!-- Generator: Adobe Illustrator 17.0.0, SVG Export Plug-In . SVG Version: 6.00 Build 0)  -->
<!DOCTYPE svg PUBLIC "-//W3C//DTD SVG 1.1//EN" "http://www.w3.org/Graphics/SVG/1.1/DTD/svg11.dtd">
<svg version="1.1" id="Layer_1" xmlns="http://www.w3.org/2000/svg" xmlns:xlink="http://www.w3.org/1999/xlink" x="0px" y="0px"
	 width="283.46px" height="283.46px" viewBox="0 0 283.46 283.46" enable-background="new 0 0 283.46 283.46" xml:space="preserve">
<g>
	<g>
		<path fill="none" stroke="#2E5589" stroke-width="4" stroke-miterlimit="10" d="M66.522,245.853v-80.945
			c2.795-0.107,6.07-0.162,9.502-0.162c7.125,0,14.996,0.37,21.332,1.477c0.055,0,0.108,0,0.159,0
			c14.209,2.535,40.553,14.262,45.672,16.582h32.165c8.394,0,14.098,0.159,20.691,7.554c6.817,7.654,5.335,18.165-26.771,17.318
			c-3.216-0.107-6.493-0.215-9.713-0.367c-10.563-0.473-20.914-1.052-27.354-0.427c21.329,9.036,37.176,10.458,59.826,6.395
			c17.376-4.335,36.22-21.12,65.423-29.203c11.624-3.222,17.642,9.556,17.642,9.606l0,0c5.495,10.245-3.489,19.269-3.489,19.331l0,0
			c-0.27,0.265-0.574,0.523-0.949,0.731l-100.596,55.926l-0.101,0.051c-9.659,5.602-18.902,1.483-21.177,0.263l-73.394-24.23h-8.868
			V245.853z"/>
		<path fill="none" stroke="#2E5589" stroke-width="4" stroke-miterlimit="10" d="M52.84,145.947c2.59,0,4.915,1.057,6.659,2.798
			l0,0c1.74,1.741,2.803,4.125,2.803,6.706v99.322c0,2.646-1.115,5.023-2.803,6.711c-0.109,0.049-0.207,0.157-0.324,0.265
			c-1.686,1.528-3.959,2.481-6.38,2.481H15.988c-2.592,0-4.917-1.114-6.656-2.801l0,0l0,0l0,0l0,0
			c-1.688-1.742-2.748-4.059-2.748-6.656v-99.322c0-2.581,1.111-4.911,2.803-6.654l0,0l0,0l0,0l0,0
			c1.74-1.685,4.068-2.747,6.648-2.747H52.84V145.947z"/>
	</g>
	<path fill="none" stroke="#2E5589" stroke-width="4" stroke-miterlimit="10" d="M124.862,100.007
		c0,17.426,7.075,33.222,18.479,44.624c11.401,11.4,27.194,18.479,44.624,18.479c17.421,0,33.214-7.079,44.615-18.479
		c11.412-11.402,18.485-27.198,18.485-44.624c0-17.424-7.073-33.214-18.485-44.615c-11.401-11.413-27.194-18.486-44.615-18.486
		c-17.43,0-33.223,7.073-44.624,18.486C131.937,66.793,124.862,82.583,124.862,100.007z"/>
	<path fill="#2E5589" d="M204.123,116.218c-0.85,1.853-2.009,3.493-3.49,4.808c-1.52,1.376-3.325,2.43-5.438,3.216
		c-2.105,0.797-4.488,1.326-7.073,1.533l-0.85,8.664c-0.047,0.215-0.106,0.421-0.157,0.582c-0.099,0.157-0.263,0.316-0.528,0.422
		c-0.254,0.105-0.571,0.206-1.055,0.263l0.051,0.051c-0.416,0.056-1.001,0.103-1.685,0.103c-0.842,0-1.536-0.047-2.06-0.103
		c-0.523-0.108-0.957-0.208-1.219-0.371c-0.311-0.154-0.468-0.365-0.575-0.569c-0.109-0.27-0.109-0.54-0.05-0.801l0.843-8.24
		c-1.164-0.157-2.274-0.368-3.278-0.629c-1.056-0.266-1.955-0.523-2.798-0.849c-0.84-0.312-1.587-0.629-2.168-0.944
		c-0.579-0.326-1.056-0.639-1.371-0.951c-0.314-0.317-0.526-0.737-0.687-1.376c-0.155-0.579-0.207-1.478-0.207-2.695
		c0-0.897,0.052-1.684,0.102-2.272c0.055-0.575,0.16-1.05,0.266-1.372c0.16-0.32,0.319-0.528,0.526-0.689
		c0.206-0.099,0.424-0.154,0.693-0.154c0.364,0,0.842,0.208,1.527,0.581c0.685,0.419,1.533,0.849,2.584,1.317
		c1.056,0.477,2.326,0.952,3.795,1.323c1.493,0.423,3.234,0.577,5.237,0.577c3.17,0,5.488-0.577,7.024-1.738
		c1.537-1.167,2.328-2.744,2.328-4.7c0-1.318-0.329-2.375-1.008-3.168c-0.691-0.846-1.531-1.583-2.646-2.215
		c-1.105-0.631-2.372-1.217-3.741-1.692c-1.379-0.531-2.805-1.061-4.283-1.582c-1.418-0.587-2.846-1.216-4.275-2.008
		c-1.376-0.74-2.639-1.689-3.751-2.798c-1.099-1.11-1.95-2.429-2.639-4.011c-0.684-1.588-1.004-3.486-1.004-5.708
		c0-2.002,0.32-3.854,1.004-5.487c0.689-1.689,1.637-3.121,2.907-4.391c1.263-1.267,2.853-2.211,4.698-3.002
		c1.849-0.793,3.958-1.271,6.284-1.584l0.79-8.138c0.055-0.206,0.105-0.417,0.161-0.524c0.108-0.161,0.257-0.259,0.53-0.421
		c0.257-0.099,0.572-0.206,1.049-0.263c0.429-0.049,1.011-0.108,1.692-0.108c0.852,0,1.535,0.059,2.06,0.108
		c0.532,0.099,1.004,0.206,1.266,0.371c0.317,0.152,0.47,0.368,0.578,0.575c0.106,0.263,0.106,0.531,0.106,0.792l-0.786,7.659
		c0.738,0.1,1.586,0.26,2.373,0.417c0.849,0.207,1.642,0.429,2.33,0.692c0.734,0.26,1.361,0.529,1.951,0.84
		c0.578,0.266,1.007,0.53,1.218,0.796c0.208,0.21,0.415,0.476,0.524,0.683c0.109,0.218,0.215,0.533,0.266,0.847
		c0.05,0.368,0.098,0.735,0.156,1.215c0.048,0.474,0.048,1.001,0.048,1.639c0,0.842,0,1.531-0.048,2.056
		c-0.059,0.526-0.106,0.949-0.207,1.216c-0.106,0.26-0.215,0.472-0.375,0.579c-0.157,0.108-0.263,0.158-0.47,0.158
		c-0.378,0-0.856-0.158-1.533-0.526c-0.695-0.374-1.486-0.744-2.485-1.109c-1.001-0.427-2.119-0.801-3.384-1.11
		c-1.271-0.368-2.689-0.529-4.226-0.529c-1.368,0-2.583,0.161-3.584,0.421c-1.004,0.27-1.798,0.639-2.43,1.11
		c-0.638,0.473-1.066,1.055-1.375,1.743c-0.26,0.689-0.417,1.426-0.417,2.218c0,1.271,0.313,2.325,0.997,3.171
		c0.696,0.839,1.583,1.63,2.693,2.215c1.113,0.631,2.377,1.17,3.806,1.691c1.423,0.523,2.85,1.053,4.327,1.637
		c1.474,0.578,2.904,1.218,4.335,1.952c1.426,0.74,2.634,1.692,3.795,2.753c1.113,1.098,2.012,2.42,2.642,3.953
		c0.687,1.583,1.005,3.433,1.005,5.59C205.336,112.26,204.913,114.366,204.123,116.218z"/>
</g>
</svg>
