<?xml version="1.0" encoding="utf-8"?>
<!-- Generator: Adobe Illustrator 17.0.0, SVG Export Plug-In . SVG Version: 6.00 Build 0)  -->
<!DOCTYPE svg PUBLIC "-//W3C//DTD SVG 1.1//EN" "http://www.w3.org/Graphics/SVG/1.1/DTD/svg11.dtd">
<svg version="1.1" id="Layer_1" xmlns="http://www.w3.org/2000/svg" xmlns:xlink="http://www.w3.org/1999/xlink" x="0px" y="0px"
	 width="264.054px" height="254.634px" viewBox="893.284 28.826 264.054 254.634"
	 enable-background="new 893.284 28.826 264.054 254.634" xml:space="preserve">
<g>
	<path fill="#2E5788" d="M1649.101,163.086c3.03,0,5.921,0.049,8.388,0.143v71.37h-7.829l-64.792,21.39
		c-1.238,0.664-4.812,2.3-9.368,2.3c-2.837,0-6.055-0.634-9.327-2.532l-0.089-0.045l-88.806-49.372
		c-0.331-0.184-0.599-0.411-0.838-0.645c0-0.055-7.931-8.021-3.08-17.065c0-0.039,4.19-8.94,12.315-8.94
		c1.024,0,2.111,0.141,3.259,0.46c25.78,7.136,42.416,21.954,57.755,25.781c6.938,1.245,13.154,1.906,19.099,1.906
		c11.188,0,21.419-2.343,33.715-7.552c-1.778-0.173-3.894-0.241-6.248-0.241c-5.172,0-11.492,0.331-17.9,0.618
		c-2.843,0.134-5.736,0.23-8.575,0.324c-1.081,0.029-2.127,0.042-3.131,0.042c-25.306,0-26.291-8.832-20.502-15.331
		c5.82-6.528,10.856-6.669,18.266-6.669h28.395c4.519-2.048,27.776-12.401,40.319-14.639c0.045,0,0.092,0,0.14,0
		C1635.863,163.413,1642.811,163.086,1649.101,163.086 M1657.49,234.6v0.088V234.6 M1649.101,156.086
		c-5.431,0-13.279,0.241-19.916,1.387l-0.285,0.025c-12.267,2.188-32.712,11.001-40.594,14.53h-26.892
		c-7.599,0-15.458,0-23.491,9.01c-3.262,3.662-4.862,7.696-4.679,11.554c-1.694-0.908-3.442-1.867-5.246-2.858
		c-10.387-5.704-22.159-12.17-37.196-16.332c-1.707-0.473-3.433-0.713-5.127-0.713c-5.327,0-10.287,2.317-14.343,6.702
		c-0.82,0.886-2.944,3.32-4.134,5.933l-0.007-0.004c-5.079,9.47-1.286,19.101,3.958,24.956c-0.499-0.56-1.709-2.179-1.709-4.582
		l2.097,4.996c0.741,0.727,1.508,1.306,2.345,1.771l88.8,49.368l0.119,0.063c3.938,2.253,8.21,3.395,12.698,3.395
		c5.571,0,9.982-1.783,12.079-2.823l63.207-20.867h6.703l6.912-6.912h0.088V234.6v-71.37l-6.732-6.995
		C1655.227,156.138,1652.233,156.086,1649.101,156.086L1649.101,156.086z"/>
</g>
<g>
	<path fill="#2E5788" d="M1672.732,146.491v0.091h32.492c2.278,0,4.333,0.938,5.869,2.425c1.494,1.539,2.474,3.596,2.474,5.874
		v87.682c0,2.293-0.936,4.338-2.426,5.876c-1.535,1.489-3.588,2.473-5.876,2.473h-32.493c-2.137,0-4.144-0.841-5.632-2.19
		c-0.103-0.095-0.19-0.191-0.286-0.234c-1.49-1.49-2.474-3.589-2.474-5.924v-87.682c0-2.279,0.938-4.383,2.474-5.92
		C1668.393,147.424,1670.446,146.491,1672.732,146.491 M1672.732,139.491c-4.063,0-7.907,1.604-10.824,4.516
		c-2.922,2.924-4.529,6.784-4.529,10.874v87.682c0,4.095,1.607,7.957,4.525,10.874l2.077,1.434
		c-0.847-0.381-1.427-0.855-1.715-1.124l0.125,0.118l0.047,0.043c2.849,2.582,6.518,4.003,10.333,4.003h32.493
		c3.975,0,7.793-1.58,10.75-4.448l0.153-0.153c2.837-2.927,4.399-6.744,4.399-10.747v-87.682c0-3.975-1.581-7.793-4.452-10.75
		l-0.153-0.153c-2.928-2.835-6.741-4.397-10.739-4.397h-32.401L1672.732,139.491L1672.732,139.491z"/>
</g>
<path fill="none" stroke="#2E5788" stroke-width="9" stroke-miterlimit="10" d="M1590.876,65.733
	c-10.167-10.178-24.252-16.486-39.796-16.486c-15.536,0-29.621,6.308-39.788,16.486c-10.177,10.168-16.485,24.249-16.485,39.788
	c0,15.541,6.308,29.628,16.485,39.796c10.167,10.167,24.252,16.48,39.788,16.48c15.544,0,29.629-6.313,39.796-16.48
	c10.17-10.168,16.48-24.255,16.48-39.796C1607.356,89.982,1601.047,75.9,1590.876,65.733z"/>
<path fill="#2E5788" d="M1565.729,119.978c-0.758,1.653-1.792,3.115-3.112,4.288c-1.355,1.227-2.965,2.167-4.85,2.868
	c-1.877,0.711-4.002,1.183-6.308,1.367l-0.758,7.727c-0.042,0.192-0.095,0.375-0.14,0.519c-0.088,0.14-0.235,0.282-0.471,0.376
	c-0.226,0.094-0.509,0.184-0.941,0.235l0.045,0.045c-0.371,0.05-0.893,0.092-1.503,0.092c-0.751,0-1.37-0.042-1.837-0.092
	c-0.466-0.096-0.854-0.185-1.087-0.331c-0.277-0.137-0.417-0.326-0.513-0.507c-0.097-0.241-0.097-0.482-0.045-0.714l0.752-7.348
	c-1.038-0.14-2.028-0.328-2.923-0.561c-0.942-0.237-1.743-0.466-2.495-0.757c-0.749-0.278-1.415-0.561-1.933-0.842
	c-0.516-0.291-0.942-0.57-1.223-0.848c-0.28-0.283-0.469-0.657-0.613-1.227c-0.138-0.516-0.185-1.318-0.185-2.403
	c0-0.8,0.046-1.502,0.091-2.026c0.049-0.513,0.143-0.936,0.237-1.224c0.143-0.285,0.285-0.471,0.469-0.614
	c0.184-0.088,0.378-0.137,0.618-0.137c0.325,0,0.751,0.186,1.362,0.518c0.611,0.374,1.367,0.757,2.304,1.175
	c0.942,0.425,2.074,0.849,3.384,1.18c1.331,0.377,2.884,0.515,4.67,0.515c2.827,0,4.894-0.515,6.264-1.55
	c1.371-1.041,2.076-2.447,2.076-4.192c0-1.175-0.293-2.118-0.899-2.825c-0.616-0.754-1.365-1.412-2.36-1.975
	c-0.985-0.563-2.115-1.085-3.336-1.509c-1.23-0.474-2.501-0.946-3.82-1.411c-1.265-0.523-2.538-1.084-3.813-1.791
	c-1.227-0.66-2.354-1.506-3.345-2.495c-0.98-0.99-1.739-2.166-2.353-3.577c-0.61-1.416-0.895-3.109-0.895-5.09
	c0-1.785,0.285-3.437,0.895-4.893c0.614-1.506,1.46-2.783,2.592-3.916c1.126-1.13,2.544-1.972,4.19-2.677
	c1.649-0.707,3.53-1.133,5.604-1.413l0.705-7.258c0.049-0.184,0.094-0.372,0.144-0.467c0.096-0.144,0.229-0.231,0.473-0.375
	c0.229-0.088,0.51-0.184,0.936-0.235c0.383-0.044,0.902-0.096,1.509-0.096c0.76,0,1.369,0.053,1.837,0.096
	c0.474,0.088,0.895,0.184,1.129,0.331c0.283,0.136,0.419,0.328,0.516,0.513c0.094,0.235,0.094,0.474,0.094,0.706l-0.701,6.83
	c0.658,0.089,1.414,0.232,2.116,0.372c0.757,0.185,1.464,0.383,2.078,0.617c0.655,0.232,1.214,0.472,1.74,0.749
	c0.515,0.237,0.898,0.473,1.086,0.71c0.186,0.187,0.37,0.424,0.467,0.609c0.097,0.194,0.192,0.475,0.237,0.755
	c0.045,0.328,0.087,0.655,0.139,1.084c0.043,0.423,0.043,0.893,0.043,1.462c0,0.751,0,1.365-0.043,1.834
	c-0.053,0.469-0.094,0.846-0.185,1.084c-0.094,0.232-0.192,0.421-0.334,0.516c-0.14,0.096-0.234,0.141-0.419,0.141
	c-0.337,0-0.763-0.141-1.367-0.469c-0.62-0.334-1.325-0.664-2.216-0.989c-0.893-0.381-1.89-0.714-3.018-0.99
	c-1.134-0.328-2.398-0.472-3.769-0.472c-1.22,0-2.304,0.144-3.196,0.375c-0.895,0.241-1.603,0.57-2.167,0.99
	c-0.569,0.422-0.951,0.941-1.226,1.554c-0.232,0.614-0.372,1.272-0.372,1.978c0,1.133,0.279,2.073,0.889,2.828
	c0.621,0.748,1.412,1.454,2.402,1.975c0.993,0.563,2.12,1.043,3.394,1.508c1.269,0.466,2.542,0.939,3.859,1.46
	c1.315,0.515,2.59,1.086,3.866,1.741c1.272,0.66,2.349,1.509,3.384,2.455c0.993,0.979,1.794,2.158,2.356,3.525
	c0.613,1.412,0.896,3.062,0.896,4.985C1566.811,116.448,1566.434,118.326,1565.729,119.978z"/>
<g>
	<path fill="none" stroke="#2E5788" stroke-width="7" stroke-miterlimit="10" d="M569.638,196.068
		c-8.47-8.479-20.204-13.734-33.154-13.734c-12.943,0-24.676,5.255-33.147,13.734c-8.479,8.47-13.734,20.202-13.734,33.147
		c0,12.947,5.255,24.682,13.734,33.154c8.47,8.47,20.204,13.729,33.147,13.729c12.95,0,24.683-5.259,33.154-13.729
		c8.473-8.471,13.729-20.207,13.729-33.154C583.367,216.269,578.111,204.538,569.638,196.068z"/>
	<path fill="#2E5788" d="M554.264,243.297c-0.703,1.692-1.691,3.202-2.979,4.431c-1.321,1.285-2.908,2.29-4.78,3.064
		c-1.865,0.784-3.988,1.336-6.303,1.606l-0.483,7.809c-0.035,0.195-0.082,0.382-0.122,0.528c-0.084,0.144-0.226,0.292-0.461,0.396
		c-0.225,0.103-0.506,0.203-0.939,0.27l0.047,0.044c-0.372,0.064-0.896,0.125-1.51,0.147c-0.756,0.027-1.381,0.007-1.853-0.026
		c-0.473-0.08-0.866-0.156-1.107-0.294c-0.284-0.128-0.432-0.313-0.535-0.492c-0.107-0.239-0.115-0.481-0.071-0.718l0.491-7.428
		c-1.05-0.103-2.054-0.257-2.964-0.459c-0.957-0.205-1.773-0.406-2.54-0.672c-0.764-0.253-1.446-0.514-1.978-0.778
		c-0.531-0.274-0.969-0.54-1.262-0.81c-0.292-0.275-0.496-0.645-0.662-1.214c-0.158-0.515-0.234-1.321-0.273-2.414
		c-0.029-0.806-0.008-1.514,0.018-2.044c0.031-0.518,0.11-0.948,0.195-1.241c0.133-0.293,0.269-0.485,0.45-0.636
		c0.182-0.096,0.376-0.152,0.617-0.161c0.327-0.012,0.763,0.16,1.39,0.472c0.629,0.354,1.404,0.713,2.363,1.099
		c0.964,0.394,2.12,0.78,3.451,1.065c1.355,0.332,2.923,0.414,4.722,0.349c2.847-0.103,4.91-0.696,6.252-1.788
		c1.343-1.098,2.002-2.54,1.939-4.296c-0.043-1.184-0.372-2.122-1.008-2.813c-0.648-0.737-1.426-1.372-2.448-1.904
		c-1.013-0.531-2.17-1.016-3.415-1.399c-1.256-0.432-2.554-0.862-3.898-1.282c-1.292-0.481-2.595-1-3.904-1.665
		c-1.26-0.62-2.425-1.432-3.459-2.392c-1.023-0.961-1.83-2.118-2.5-3.517c-0.666-1.404-1.014-3.098-1.086-5.094
		c-0.065-1.798,0.163-3.472,0.724-4.96c0.564-1.539,1.369-2.856,2.469-4.038c1.093-1.179,2.491-2.078,4.122-2.848
		c1.635-0.772,3.514-1.27,5.592-1.626l0.446-7.334c0.043-0.187,0.081-0.378,0.128-0.476c0.092-0.148,0.222-0.241,0.462-0.395
		c0.228-0.097,0.507-0.204,0.934-0.27c0.384-0.058,0.904-0.13,1.516-0.152c0.765-0.028,1.38,0.003,1.854,0.03
		c0.481,0.072,0.908,0.153,1.149,0.292c0.29,0.126,0.434,0.315,0.538,0.498c0.104,0.233,0.112,0.473,0.121,0.708l-0.458,6.904
		c0.666,0.066,1.433,0.182,2.145,0.298c0.769,0.158,1.489,0.332,2.115,0.546c0.668,0.21,1.239,0.431,1.779,0.691
		c0.528,0.22,0.922,0.443,1.12,0.675c0.194,0.182,0.388,0.414,0.493,0.596c0.105,0.192,0.21,0.472,0.266,0.752
		c0.057,0.329,0.112,0.657,0.179,1.086c0.058,0.424,0.076,0.897,0.096,1.47c0.027,0.756,0.049,1.375,0.023,1.848
		c-0.036,0.474-0.065,0.856-0.147,1.099c-0.087,0.237-0.178,0.431-0.318,0.532c-0.138,0.102-0.231,0.15-0.417,0.157
		c-0.339,0.012-0.774-0.114-1.394-0.423c-0.636-0.313-1.359-0.62-2.268-0.916c-0.913-0.351-1.929-0.651-3.075-0.887
		c-1.153-0.289-2.432-0.388-3.813-0.338c-1.229,0.044-2.315,0.228-3.205,0.494c-0.893,0.275-1.594,0.632-2.146,1.076
		c-0.558,0.445-0.923,0.982-1.179,1.61c-0.211,0.627-0.328,1.294-0.303,2.006c0.041,1.141,0.356,2.078,0.998,2.816
		c0.652,0.731,1.474,1.413,2.49,1.902c1.02,0.531,2.173,0.974,3.473,1.396c1.295,0.424,2.594,0.854,3.939,1.33
		c1.343,0.471,2.648,1,3.956,1.613c1.305,0.618,2.42,1.434,3.497,2.35c1.035,0.95,1.885,2.108,2.501,3.465
		c0.668,1.399,1.014,3.051,1.083,4.988C555.226,239.703,554.914,241.608,554.264,243.297z"/>
</g>
<g>
	<g>
		<path fill="#2E5788" d="M520.482,52.76v-8.66c0-4.377-3.567-7.944-7.944-7.944h-6.577c-4.377,0-7.936,3.567-7.936,7.944v8.481
			h-51.183v-8.481c0-4.377-3.567-7.944-7.947-7.944h-6.564c-4.382,0-7.947,3.567-7.947,7.944v8.481H373.2v-8.481
			c0-4.377-3.56-7.944-7.942-7.944h-6.572c-4.382,0-7.952,3.567-7.952,7.944v8.807c-11.03,1.795-19.315,11.274-19.315,22.768
			v163.251c0,12.736,10.366,23.091,23.094,23.091h120.897v-6.032H354.514c-9.401,0-17.057-7.646-17.057-17.06V111.055h197.378
			v53.112h6.027V75.676C540.867,63.859,531.937,54.11,520.482,52.76z M504.062,44.098c0-1.049,0.85-1.907,1.912-1.907h6.567
			c1.064,0,1.915,0.858,1.915,1.907v23c0,1.054-0.85,1.912-1.915,1.912h-6.567c-1.059,0-1.912-0.861-1.912-1.912V44.098z
			 M430.423,44.098c0-1.049,0.853-1.907,1.907-1.907h6.564c1.064,0,1.915,0.858,1.915,1.907v23c0,1.054-0.85,1.912-1.915,1.912
			h-6.564c-1.054,0-1.907-0.861-1.907-1.912V44.098z M356.777,44.098c0-1.049,0.85-1.907,1.912-1.907h6.572
			c1.057,0,1.91,0.858,1.91,1.907v23c0,1.054-0.85,1.912-1.91,1.912h-6.572c-1.059,0-1.912-0.861-1.912-1.912V44.098z
			 M534.832,105.024h-197.38v-29.35c-0.003-8.143,5.632-14.913,13.291-16.621v8.046c0,4.382,3.562,7.947,7.944,7.947h6.572
			c4.382,0,7.942-3.565,7.942-7.947v-8.484h51.183v8.484c0,4.382,3.572,7.947,7.957,7.947h6.569c4.372,0,7.931-3.565,7.931-7.947
			v-8.484h51.191v8.484c0,4.382,3.567,7.947,7.947,7.947h6.569c4.382,0,7.947-3.565,7.947-7.947v-8.245
			c8.112,1.299,14.338,8.336,14.338,16.82V105.024z M495.02,127.644c-7.672,0-13.895,6.228-13.895,13.9
			c0,7.684,6.223,13.905,13.895,13.905c7.684,0,13.91-6.218,13.91-13.905C508.93,133.872,502.707,127.644,495.02,127.644z
			 M376.195,168.79c-7.677,0-13.905,6.223-13.905,13.9c0,7.682,6.228,13.905,13.905,13.905s13.905-6.223,13.905-13.905
			C390.099,175.013,383.871,168.79,376.195,168.79z M376.195,209.924c-7.677,0-13.905,6.223-13.905,13.907
			c0,7.682,6.228,13.9,13.905,13.9s13.905-6.218,13.905-13.9C390.099,216.154,383.871,209.924,376.195,209.924z M415.803,127.644
			c-7.677,0-13.9,6.228-13.9,13.9c0,7.684,6.223,13.905,13.9,13.905c7.682,0,13.91-6.218,13.91-13.905
			C429.71,133.872,423.482,127.644,415.803,127.644z M376.195,127.644c-7.677,0-13.905,6.228-13.905,13.9
			c0,7.684,6.228,13.905,13.905,13.905s13.905-6.218,13.905-13.905C390.099,133.872,383.871,127.644,376.195,127.644z
			 M415.803,209.924c-7.677,0-13.9,6.223-13.9,13.907c0,7.682,6.223,13.9,13.9,13.9c7.682,0,13.91-6.218,13.91-13.9
			C429.71,216.154,423.482,209.924,415.803,209.924z M455.414,168.79c-7.682,0-13.9,6.223-13.9,13.9
			c0,7.682,6.213,13.905,13.9,13.905c7.672,0,13.905-6.223,13.905-13.905C469.316,175.013,463.094,168.79,455.414,168.79z
			 M415.803,168.79c-7.677,0-13.9,6.223-13.9,13.9c0,7.682,6.223,13.905,13.9,13.905c7.682,0,13.91-6.223,13.91-13.905
			C429.71,175.013,423.482,168.79,415.803,168.79z M455.414,127.644c-7.682,0-13.9,6.228-13.9,13.9
			c0,7.684,6.213,13.905,13.9,13.905c7.672,0,13.905-6.218,13.905-13.905C469.316,133.872,463.094,127.644,455.414,127.644z
			 M441.515,223.831c0,7.682,6.213,13.9,13.9,13.9c7.672,0,13.905-6.218,13.905-13.9c-0.003-7.677-6.225-13.907-13.905-13.907
			C447.732,209.924,441.515,216.147,441.515,223.831z"/>
	</g>
</g>
<g>
	<path fill="none" stroke="#2E5788" stroke-width="7" stroke-miterlimit="10" d="M851.638,196.068
		c-8.47-8.479-20.204-13.734-33.154-13.734c-12.943,0-24.676,5.255-33.147,13.734c-8.479,8.47-13.734,20.202-13.734,33.147
		c0,12.947,5.255,24.682,13.734,33.154c8.47,8.47,20.204,13.729,33.147,13.729c12.95,0,24.683-5.259,33.154-13.729
		c8.473-8.471,13.729-20.207,13.729-33.154C865.367,216.269,860.111,204.538,851.638,196.068z"/>
</g>
<g>
	<g>
		<path fill="#2E5788" d="M802.482,52.76v-8.66c0-4.377-3.567-7.944-7.944-7.944h-6.577c-4.377,0-7.936,3.567-7.936,7.944v8.481
			h-51.183v-8.481c0-4.377-3.567-7.944-7.947-7.944h-6.564c-4.382,0-7.947,3.567-7.947,7.944v8.481H655.2v-8.481
			c0-4.377-3.56-7.944-7.942-7.944h-6.572c-4.382,0-7.952,3.567-7.952,7.944v8.807c-11.03,1.795-19.315,11.274-19.315,22.768
			v163.251c0,12.736,10.366,23.091,23.094,23.091h120.897v-6.032H636.514c-9.401,0-17.057-7.646-17.057-17.06V111.055h197.378
			v53.112h6.027V75.676C822.867,63.859,813.937,54.11,802.482,52.76z M786.062,44.098c0-1.049,0.85-1.907,1.912-1.907h6.567
			c1.064,0,1.915,0.858,1.915,1.907v23c0,1.054-0.85,1.912-1.915,1.912h-6.567c-1.059,0-1.912-0.861-1.912-1.912V44.098z
			 M712.423,44.098c0-1.049,0.853-1.907,1.907-1.907h6.564c1.064,0,1.915,0.858,1.915,1.907v23c0,1.054-0.85,1.912-1.915,1.912
			h-6.564c-1.054,0-1.907-0.861-1.907-1.912V44.098z M638.777,44.098c0-1.049,0.85-1.907,1.912-1.907h6.572
			c1.057,0,1.91,0.858,1.91,1.907v23c0,1.054-0.85,1.912-1.91,1.912h-6.572c-1.059,0-1.912-0.861-1.912-1.912V44.098z
			 M816.832,105.024h-197.38v-29.35c-0.003-8.143,5.632-14.913,13.291-16.621v8.046c0,4.382,3.562,7.947,7.944,7.947h6.572
			c4.382,0,7.942-3.565,7.942-7.947v-8.484h51.183v8.484c0,4.382,3.572,7.947,7.957,7.947h6.569c4.372,0,7.931-3.565,7.931-7.947
			v-8.484h51.191v8.484c0,4.382,3.567,7.947,7.947,7.947h6.569c4.382,0,7.947-3.565,7.947-7.947v-8.245
			c8.112,1.299,14.338,8.336,14.338,16.82V105.024z M777.02,127.644c-7.672,0-13.895,6.228-13.895,13.9
			c0,7.684,6.223,13.905,13.895,13.905c7.684,0,13.91-6.218,13.91-13.905C790.93,133.872,784.707,127.644,777.02,127.644z
			 M658.195,168.79c-7.677,0-13.905,6.223-13.905,13.9c0,7.682,6.228,13.905,13.905,13.905s13.905-6.223,13.905-13.905
			C672.099,175.013,665.871,168.79,658.195,168.79z M658.195,209.924c-7.677,0-13.905,6.223-13.905,13.907
			c0,7.682,6.228,13.9,13.905,13.9s13.905-6.218,13.905-13.9C672.099,216.154,665.871,209.924,658.195,209.924z M697.803,127.644
			c-7.677,0-13.9,6.228-13.9,13.9c0,7.684,6.223,13.905,13.9,13.905c7.682,0,13.91-6.218,13.91-13.905
			C711.71,133.872,705.482,127.644,697.803,127.644z M658.195,127.644c-7.677,0-13.905,6.228-13.905,13.9
			c0,7.684,6.228,13.905,13.905,13.905s13.905-6.218,13.905-13.905C672.099,133.872,665.871,127.644,658.195,127.644z
			 M697.803,209.924c-7.677,0-13.9,6.223-13.9,13.907c0,7.682,6.223,13.9,13.9,13.9c7.682,0,13.91-6.218,13.91-13.9
			C711.71,216.154,705.482,209.924,697.803,209.924z M737.414,168.79c-7.682,0-13.9,6.223-13.9,13.9
			c0,7.682,6.213,13.905,13.9,13.905c7.672,0,13.905-6.223,13.905-13.905C751.316,175.013,745.094,168.79,737.414,168.79z
			 M697.803,168.79c-7.677,0-13.9,6.223-13.9,13.9c0,7.682,6.223,13.905,13.9,13.905c7.682,0,13.91-6.223,13.91-13.905
			C711.71,175.013,705.482,168.79,697.803,168.79z M737.414,127.644c-7.682,0-13.9,6.228-13.9,13.9
			c0,7.684,6.213,13.905,13.9,13.905c7.672,0,13.905-6.218,13.905-13.905C751.316,133.872,745.094,127.644,737.414,127.644z
			 M723.515,223.831c0,7.682,6.213,13.9,13.9,13.9c7.672,0,13.905-6.218,13.905-13.9c-0.003-7.677-6.225-13.907-13.905-13.907
			C729.732,209.924,723.515,216.147,723.515,223.831z"/>
	</g>
</g>
<path fill="#2E5788" d="M853.692,230.08c0.122,1.929-0.841,3.56-2.151,3.643l-32.867,2.079c-1.31,0.083-2.47-1.414-2.593-3.343l0,0
	c-0.122-1.929,0.841-3.56,2.151-3.643l32.867-2.079C852.41,226.654,853.57,228.151,853.692,230.08L853.692,230.08z"/>
<path fill="#2E5788" d="M804.123,195.934c1.778-0.758,3.683-0.286,4.253,1.054l14.323,33.623c0.571,1.34-0.408,3.04-2.187,3.798l0,0
	c-1.778,0.758-3.683,0.286-4.253-1.054l-14.323-33.623C801.366,198.391,802.344,196.691,804.123,195.934L804.123,195.934z"/>
<g>
	<g>
		<path fill="#2E5788" d="M1086.399,52.76v-8.66c0-4.377-3.567-7.944-7.944-7.944h-6.577c-4.377,0-7.937,3.567-7.937,7.944v8.481
			h-51.183v-8.481c0-4.377-3.567-7.944-7.947-7.944h-6.564c-4.382,0-7.947,3.567-7.947,7.944v8.481h-51.183v-8.481
			c0-4.377-3.56-7.944-7.942-7.944h-6.572c-4.382,0-7.952,3.567-7.952,7.944v8.807c-11.03,1.795-19.315,11.274-19.315,22.768
			v163.251c0,12.736,10.366,23.091,23.094,23.091h120.897v-6.032H920.431c-9.401,0-17.057-7.646-17.057-17.06V111.055h197.378
			v53.112h6.027V75.676C1106.784,63.859,1097.855,54.11,1086.399,52.76z M1069.979,44.098c0-1.049,0.85-1.907,1.912-1.907h6.567
			c1.064,0,1.915,0.858,1.915,1.907v23c0,1.054-0.85,1.912-1.915,1.912h-6.567c-1.059,0-1.912-0.861-1.912-1.912V44.098z
			 M996.341,44.098c0-1.049,0.853-1.907,1.907-1.907h6.564c1.064,0,1.915,0.858,1.915,1.907v23c0,1.054-0.85,1.912-1.915,1.912
			h-6.564c-1.054,0-1.907-0.861-1.907-1.912V44.098z M922.695,44.098c0-1.049,0.85-1.907,1.912-1.907h6.572
			c1.057,0,1.91,0.858,1.91,1.907v23c0,1.054-0.85,1.912-1.91,1.912h-6.572c-1.059,0-1.912-0.861-1.912-1.912V44.098z
			 M1100.75,105.024h-197.38v-29.35c-0.003-8.143,5.632-14.913,13.291-16.621v8.046c0,4.382,3.562,7.947,7.944,7.947h6.572
			c4.382,0,7.942-3.565,7.942-7.947v-8.484h51.183v8.484c0,4.382,3.572,7.947,7.957,7.947h6.569c4.372,0,7.931-3.565,7.931-7.947
			v-8.484h51.191v8.484c0,4.382,3.567,7.947,7.947,7.947h6.569c4.382,0,7.947-3.565,7.947-7.947v-8.245
			c8.112,1.299,14.338,8.336,14.338,16.82V105.024z M1060.937,127.644c-7.672,0-13.895,6.228-13.895,13.9
			c0,7.684,6.223,13.905,13.895,13.905c7.684,0,13.91-6.218,13.91-13.905C1074.847,133.872,1068.624,127.644,1060.937,127.644z
			 M942.112,168.79c-7.677,0-13.905,6.223-13.905,13.9c0,7.682,6.228,13.905,13.905,13.905s13.905-6.223,13.905-13.905
			C956.017,175.013,949.789,168.79,942.112,168.79z M942.112,209.924c-7.677,0-13.905,6.223-13.905,13.907
			c0,7.682,6.228,13.9,13.905,13.9s13.905-6.218,13.905-13.9C956.017,216.154,949.789,209.924,942.112,209.924z M981.72,127.644
			c-7.677,0-13.9,6.228-13.9,13.9c0,7.684,6.223,13.905,13.9,13.905c7.682,0,13.91-6.218,13.91-13.905
			C995.628,133.872,989.4,127.644,981.72,127.644z M942.112,127.644c-7.677,0-13.905,6.228-13.905,13.9
			c0,7.684,6.228,13.905,13.905,13.905s13.905-6.218,13.905-13.905C956.017,133.872,949.789,127.644,942.112,127.644z
			 M981.72,209.924c-7.677,0-13.9,6.223-13.9,13.907c0,7.682,6.223,13.9,13.9,13.9c7.682,0,13.91-6.218,13.91-13.9
			C995.628,216.154,989.4,209.924,981.72,209.924z M1021.331,168.79c-7.682,0-13.9,6.223-13.9,13.9
			c0,7.682,6.213,13.905,13.9,13.905c7.672,0,13.905-6.223,13.905-13.905C1035.234,175.013,1029.011,168.79,1021.331,168.79z
			 M981.72,168.79c-7.677,0-13.9,6.223-13.9,13.9c0,7.682,6.223,13.905,13.9,13.905c7.682,0,13.91-6.223,13.91-13.905
			C995.628,175.013,989.4,168.79,981.72,168.79z M1021.331,127.644c-7.682,0-13.9,6.228-13.9,13.9c0,7.684,6.213,13.905,13.9,13.905
			c7.672,0,13.905-6.218,13.905-13.905C1035.234,133.872,1029.011,127.644,1021.331,127.644z M1007.432,223.831
			c0,7.682,6.213,13.9,13.9,13.9c7.672,0,13.905-6.218,13.905-13.9c-0.003-7.677-6.225-13.907-13.905-13.907
			C1013.65,209.924,1007.432,216.147,1007.432,223.831z"/>
	</g>
</g>
<path fill="#2E5788" d="M1090.833,193.53c1.922-0.202,3.592,0.692,3.729,1.997l3.446,32.752c0.137,1.305-1.31,2.527-3.232,2.729l0,0
	c-1.922,0.202-3.592-0.692-3.729-1.997l-3.446-32.752C1087.463,194.955,1088.911,193.732,1090.833,193.53L1090.833,193.53z"/>
<path fill="#2E5788" d="M1091.257,227.096c0.269-1.914,1.656-3.302,3.098-3.099l36.191,5.083c1.442,0.203,2.393,1.919,2.125,3.833
	l0,0c-0.269,1.914-1.656,3.302-3.098,3.099l-36.191-5.083C1091.94,230.726,1090.989,229.01,1091.257,227.096L1091.257,227.096z"/>
<g>
	<g>
		<path fill="#2E5788" d="M1138.388,239.23c-1.872,6.959-5.539,13.183-10.478,18.121c-7.326,7.326-17.474,11.874-28.675,11.874
			c-11.195,0-21.343-4.549-28.669-11.874c-7.333-7.327-11.878-17.477-11.878-28.675c0-11.196,4.545-21.343,11.878-28.669
			c7.326-7.334,17.474-11.879,28.669-11.879c11.2,0,21.349,4.545,28.675,11.879c5.384,5.382,9.257,12.29,10.938,20.015h6.458
			c-1.771-9.477-6.381-17.958-12.918-24.493c-8.47-8.479-20.204-13.734-33.154-13.734c-12.943,0-24.677,5.255-33.147,13.734
			c-8.479,8.47-13.734,20.202-13.734,33.147c0,12.947,5.255,24.682,13.734,33.154c8.47,8.47,20.204,13.729,33.147,13.729
			c12.95,0,24.683-5.259,33.154-13.729c6.097-6.096,10.515-13.888,12.521-22.6H1138.388z"/>
	</g>
</g>
<path fill="#2E5788" d="M1150.429,251.339c-1.328,0.828-3.075,0.423-3.904-0.904l-7.293-11.691
	c-0.828-1.328-0.423-3.075,0.904-3.904l0,0c1.328-0.828,3.075-0.423,3.904,0.904l7.293,11.691
	C1152.162,248.763,1151.757,250.511,1150.429,251.339L1150.429,251.339z"/>
<path fill="#2E5788" d="M1127.575,246.059c0.84,1.321,2.591,1.71,3.911,0.871l11.628-7.392c1.32-0.84,1.71-2.591,0.871-3.911l0,0
	c-0.839-1.321-2.591-1.71-3.911-0.871l-11.628,7.392C1127.126,242.987,1126.736,244.738,1127.575,246.059L1127.575,246.059z"/>
<polygon fill="none" stroke="#2F5789" stroke-width="6" stroke-miterlimit="10" points="1238.126,44.183 1189.376,128.599 
	1198.397,133.805 1240.769,60.441 1358.711,128.512 1365.093,117.462 "/>
<path fill="none" stroke="#2F5789" stroke-width="6" stroke-miterlimit="10" d="M1240.623,62.543l-45.66,79.052l94.236,54.388
	c9.644-7.848,27.17-20.541,39.897-24.099c15.69-4.377,26.31-8.444,32.59-7.274l13.945-24.143L1240.623,62.543L1240.623,62.543z"/>
<path fill="#2E5788" d="M1302.71,116.199l4.987,2.874l-4.318,7.482c3.197,2.452,5,5.333,6.026,8.84l-5.451,1.804
	c-1.085-3.406-2.978-5.657-5.78-7.274c-3.053-1.764-6.039-1.652-7.567,0.997c-1.411,2.44-0.732,4.325,3.919,9.317
	c4.87,5.319,7.533,10.112,3.861,16.472c-2.972,5.138-8.566,7.07-15.144,4.701l-4.494,7.783l-4.99-2.878l4.352-7.534
	c-4.504-3.005-6.993-6.812-8.096-10.771l5.669-1.826c1.08,3.539,3.09,6.4,6.603,8.429c3.616,2.084,7.259,1.885,9.168-1.423
	c1.646-2.846,0.96-4.946-3.393-9.632c-5.915-6.33-7.295-10.988-4.357-16.079c2.91-5.038,8.726-6.293,14.681-3.805L1302.71,116.199
	L1302.71,116.199z"/>
<path fill="none" stroke="#2F5789" stroke-width="6" stroke-miterlimit="10" d="M1362.273,174.514
	c-6.435,0.167-16.147,3.692-29.6,7.45c-17.939,5.009-45.479,28.256-46.753,30.257c-1.279,2,6.133,13.123,8.701,14.875
	c2.565,1.747,43.925-8.883,42.479-6.447c-1.448,2.432-38.625,11.942-39.77,14.242c-1.147,2.3-11.051-3.049-11.147-4.087
	c-0.099-1.039-7.265-14.065-7.265-14.065s-74.892-14.9-79.772-14.556c-4.882,0.35-15.817,9.831-14.794,12.976
	c1.025,3.146,116.359,52.757,121.769,53.618c5.412,0.851,71.273-34.2,80.18-38.48c8.911-4.274,29.172,3.358,29.172,3.358
	l16.931-38.364c0,0-59.032-16.47-64.77-19.701C1366.199,174.783,1364.418,174.458,1362.273,174.514L1362.273,174.514z"/>
</svg>
