<?xml version="1.0" encoding="utf-8"?>
<!-- Generator: Adobe Illustrator 16.0.0, SVG Export Plug-In . SVG Version: 6.00 Build 0)  -->
<!DOCTYPE svg PUBLIC "-//W3C//DTD SVG 1.1//EN" "http://www.w3.org/Graphics/SVG/1.1/DTD/svg11.dtd">
<svg version="1.1" id="Layer_1" xmlns="http://www.w3.org/2000/svg" xmlns:xlink="http://www.w3.org/1999/xlink" x="0px" y="0px"
	 width="32px" height="32px" viewBox="-16.77 3.572 294.127 293.658"
	 enable-background="new -16.77 3.572 294.127 293.658" xml:space="preserve">
<g>
	<path fill="none" d="M220.917,206.976c-9.373,0-18.183,3.648-24.812,10.277c-6.627,6.627-10.276,15.439-10.276,24.813
		c0,8.246,2.834,16.059,8.03,22.332l49.394-49.393C236.979,209.81,229.167,206.976,220.917,206.976z"/>
	<path fill="none" d="M247.975,219.73l-49.386,49.385c13.772,11.379,34.261,10.639,47.14-2.24
		c6.627-6.629,10.276-15.438,10.276-24.811C256.005,233.814,253.172,226.003,247.975,219.73z"/>
	<path fill="none" stroke="#2F5789" stroke-width="11" stroke-miterlimit="10" d="M63.531,121.822
		c5.023,13.515,12.972,26.64,22.807,36.244c5.564,5.443,11.729,9.742,18.306,12.352c4.524,1.791,9.236,2.787,14.086,2.787
		c4.838,0,9.562-0.994,14.078-2.787c6.799-2.701,13.18-7.205,18.891-12.922c9.593-9.577,17.34-22.5,22.271-35.784
		c3.789-1.113,7.755-8.209,9.375-17.274c1.757-9.834,0.095-18.41-3.692-19.841c0.136-2.399,0.222-4.826,0.213-7.317
		c-0.086-35.645-20.987-56.369-53.94-58.575c-28.731-1.927-50.377,9.486-60.235,28.463c-3.317,6.383-5.212,14.369-5.938,23.047
		c-1.104,4.519-1.755,9.213-1.755,14.065H58.1c-0.003,0.041-0.008,0.075-0.008,0.113c-0.07,0.011-0.14,0.014-0.212,0.026
		c-4.199,0.731-6.114,9.697-4.271,20.025C55.294,113.932,59.58,121.272,63.531,121.822z"/>
	<path fill="none" stroke="#2F5789" stroke-width="11" stroke-miterlimit="10" d="M214.579,189.4c2.152,0,4.257,0.182,6.339,0.443
		c-11.408-12.736-22.897-13.705-26.354-14.512c-10.67-2.496-23.601-1.436-30.494-3.582c-0.809,6.766-20.484,29.012-33.376,42.959
		l-5.591-21.547c4.203-2.469,5.117-7.938,5.117-12.482h-21.186c0,4.51,0.906,9.918,5.023,12.426l-5.497,21.602
		c-12.898-13.947-32.566-36.199-33.375-42.957c-6.896,2.154-19.82,1.092-30.496,3.59c-5.425,1.254-30.61,2.867-44.242,49.773
		c-1.844,6.379-1.198,13.289,1.811,18.971c11.168,21.113,69.897,27.607,117.372,27.604c17.213,0.004,35.902-0.855,53.271-2.951
		c-5.642-8.162-8.963-18.047-8.963-28.695C163.94,212.121,186.657,189.4,214.579,189.4z"/>
	<path fill="#ED1C24" stroke="#ED1C24" stroke-width="8" stroke-miterlimit="10" d="M250.455,212.525
		c-7.89-7.889-18.378-12.232-29.537-12.232c-11.156,0-21.646,4.346-29.537,12.232c-16.284,16.289-16.284,42.787,0,59.074
		c8.144,8.143,18.843,12.209,29.537,12.209c10.699,0,21.396-4.066,29.537-12.209C266.743,255.312,266.743,228.814,250.455,212.525z
		 M185.83,242.066c0-9.373,3.649-18.186,10.276-24.813c6.629-6.629,15.438-10.277,24.812-10.277c8.25,0,16.062,2.834,22.336,8.029
		l-49.394,49.393C188.664,258.125,185.83,250.312,185.83,242.066z M245.729,266.875c-12.879,12.879-33.367,13.619-47.14,2.24
		l49.386-49.385c5.197,6.273,8.03,14.084,8.03,22.334C256.005,251.437,252.356,260.246,245.729,266.875z"/>
</g>
</svg>
