<?xml version="1.0" encoding="utf-8"?>
<!-- Generator: Adobe Illustrator 16.0.0, SVG Export Plug-In . SVG Version: 6.00 Build 0)  -->
<!DOCTYPE svg PUBLIC "-//W3C//DTD SVG 1.1//EN" "http://www.w3.org/Graphics/SVG/1.1/DTD/svg11.dtd">
<svg version="1.1" id="Layer_1" xmlns="http://www.w3.org/2000/svg" xmlns:xlink="http://www.w3.org/1999/xlink" x="0px" y="0px"
	 width="40px" height="34px" viewBox="0 0 283.46 283.46" enable-background="new 0 0 283.46 283.46" xml:space="preserve">
<g>
	<path fill="none" stroke="#F5C040" stroke-width="8" stroke-miterlimit="10" d="M259.161,184.332
		c0.003,0.062,0.013,0.102,0.013,0.154v52.894c0,2.742-2.23,4.971-4.98,4.971H136.5c-2.751,0-4.982-2.229-4.982-4.971v-52.894
		c0-0.053,0.014-0.093,0.014-0.154l-16.141-0.019l80.483-61.58l79.433,61.58L259.161,184.332z M212.509,181.273h-15.195v15.192
		h15.195V181.273z M193.375,181.273h-15.192v15.192h15.192V181.273z M193.375,201.132H178.18v15.191h15.195V201.132z
		 M212.509,201.132h-15.195v15.191h15.195V201.132z"/>
	<path fill="none" stroke="#F5C040" stroke-width="8" stroke-miterlimit="10" d="M121.224,243.616
		c-0.791-1.926-1.234-4.03-1.234-6.236v-41.534l-38.586-0.042l38.825-29.707v-14.179h18.532l22.221-17.003v-4.285V39.844H8.154
		v90.786v112.986h50.945v-30.563h17.162h16.615h17.165v30.563H121.224z M120.229,60.221h20.375v20.375h-20.375V60.221z
		 M120.229,90.786h20.375v20.38h-20.375V90.786z M120.229,121.353h12.887h7.488v20.376h-20.375V121.353z M89.664,60.221h20.376
		v20.375H89.664V60.221z M89.664,90.786h20.376v20.38H89.664V90.786z M89.664,136.922v-15.569h11.282h9.094v20.376H89.664V136.922z
		 M89.664,159.075v-7.157h20.376v20.376H92.876h-3.212V159.075z M48.906,172.294H28.534v-20.376h20.372V172.294z M48.906,141.729
		H28.534v-20.376h7.487h12.885V141.729z M48.906,111.166H28.534v-20.38h20.372V111.166z M48.906,80.596H28.534V60.221h20.372V80.596
		z M79.471,159.075v13.219h-3.21H59.099v-20.376h20.373V159.075z M79.471,136.922v4.807H59.099v-20.376h9.09h11.283V136.922z
		 M79.471,111.166H59.099v-20.38h20.373V111.166z M79.471,80.596H59.099V60.221h20.373V80.596z"/>
</g>
</svg>
