<?xml version="1.0" encoding="utf-8"?>
<!-- Generator: Adobe Illustrator 16.0.0, SVG Export Plug-In . SVG Version: 6.00 Build 0)  -->
<!DOCTYPE svg PUBLIC "-//W3C//DTD SVG 1.1//EN" "http://www.w3.org/Graphics/SVG/1.1/DTD/svg11.dtd">
<svg version="1.1" id="Layer_1" xmlns="http://www.w3.org/2000/svg" xmlns:xlink="http://www.w3.org/1999/xlink" x="0px" y="0px"
	 width="40px" height="34px" viewBox="0 0 283.46 283.46" enable-background="new 0 0 283.46 283.46" xml:space="preserve">
<polygon fill="#2E5788" stroke="#2E5788" stroke-width="6" stroke-miterlimit="10" points="79.232,100.992 56.13,100.992 
	56.13,70.104 59.98,70.104 59.98,97.142 79.232,97.142 "/>
<path fill="none" stroke="#2E5788" stroke-width="6" stroke-miterlimit="10" d="M58.055,51.58
	c-26.186,0-47.489,21.303-47.489,47.487c0,26.185,21.303,47.488,47.489,47.488c26.185,0,47.488-21.303,47.488-47.488
	C105.543,72.883,84.24,51.58,58.055,51.58z"/>
<path fill="none" stroke="#2E5788" stroke-width="6" stroke-miterlimit="10" d="M39.241,177.399H28.356
	c-2.719,0-4.531,1.818-4.531,4.537v41.707c0,2.721,1.812,4.538,4.531,4.538h10.885c2.718,0,4.533-1.817,4.533-4.538v-41.707
	C43.774,179.67,41.506,177.399,39.241,177.399z"/>
<path fill="none" stroke="#2E5788" stroke-width="6" stroke-miterlimit="10" d="M229.657,168.334l-31.734,29.926
	c-2.722,2.263-5.439,4.081-8.613,4.983l5.892,1.816c4.991,1.36,8.16,5.439,8.16,10.882c0,4.984-2.721,9.52-7.706,11.333
	c-3.172,0.907-6.8,1.81-9.974,1.81h-14.513c-6.8,0-13.601-1.358-19.941-4.531c-10.431-4.988-22.221-5.439-32.644-1.36h-1.815
	c-1.364,0.451-2.722,0-2.722-1.359c-0.451-1.358,0-2.72,1.358-2.72l1.364-0.451c11.786-4.539,24.937-3.63,36.268,1.36
	c5.442,2.721,11.789,4.08,18.133,4.08h14.513c2.723,0,5.892-0.459,8.613-1.359c3.628-1.361,4.533-4.081,4.533-6.802
	c0-2.27-1.356-5.442-4.985-6.349l-11.336-3.631c-0.457,0-3.174-0.451-4.535-0.451l0,0c-13.603,0.451-26.744-4.533-36.724-13.601l0,0
	c-17.685-16.32-42.617-22.216-65.739-16.32l-22.67,5.893v41.71h4.535c4.989,0,10.429,0.91,14.962,2.723l49.419,19.949
	c15.412,6.342,32.19,5.442,47.152-1.816c6.8-3.172,14.505-6.344,23.576-8.164c9.067-2.262,17.229-8.609,22.211-16.771l25.845-42.618
	C244.621,169.694,235.556,162.895,229.657,168.334z"/>
<path fill="none" stroke="#2E5788" stroke-width="6" stroke-miterlimit="10" d="M263.571,116.773
	c0.003,0.036,0.008,0.059,0.008,0.088v30.538c0,1.584-1.287,2.87-2.876,2.87h-67.951c-1.588,0-2.875-1.286-2.875-2.87v-30.538
	c0-0.03,0.007-0.052,0.007-0.088l-9.318-0.011l46.467-35.554l45.861,35.554L263.571,116.773z M236.637,115.007h-8.774v8.772h8.774
	V115.007z M225.59,115.007h-8.771v8.772h8.771V115.007z M225.59,126.472h-8.772v8.77h8.772V126.472z M236.637,126.472h-8.774v8.77
	h8.774V126.472z"/>
<path fill="none" stroke="#2E5788" stroke-width="6" stroke-miterlimit="10" d="M183.934,151c-0.457-1.111-0.713-2.326-0.713-3.601
	v-23.979l-22.277-0.024l22.416-17.152v-8.187h10.7l12.829-9.817v-2.473V33.353h-88.236v52.416V151h29.413v-17.645h9.909h9.593h9.91
	V151H183.934z M183.359,45.117h11.764V56.88h-11.764V45.117z M183.359,62.764h11.764V74.53h-11.764V62.764z M183.359,80.411h7.44
	h4.323v11.765h-11.764V80.411z M165.713,45.117h11.765V56.88h-11.765V45.117z M165.713,62.764h11.765V74.53h-11.765V62.764z
	 M165.713,89.401v-8.99h6.514h5.251v11.765h-11.765V89.401z M165.713,102.191v-4.133h11.765v11.765h-9.91h-1.854V102.191z
	 M142.181,109.823h-11.762V98.058h11.762V109.823z M142.181,92.176h-11.762V80.411h4.322h7.439V92.176z M142.181,74.53h-11.762
	V62.764h11.762V74.53z M142.181,56.88h-11.762V45.117h11.762V56.88z M159.827,102.191v7.632h-1.853h-9.909V98.058h11.762V102.191z
	 M159.827,89.401v2.775h-11.762V80.411h5.248h6.514V89.401z M159.827,74.53h-11.762V62.764h11.762V74.53z M159.827,56.88h-11.762
	V45.117h11.762V56.88z"/>
</svg>
