<?xml version="1.0" encoding="utf-8"?>
<!-- Generator: Adobe Illustrator 16.0.0, SVG Export Plug-In . SVG Version: 6.00 Build 0)  -->
<!DOCTYPE svg PUBLIC "-//W3C//DTD SVG 1.1//EN" "http://www.w3.org/Graphics/SVG/1.1/DTD/svg11.dtd">
<svg version="1.1" id="Layer_1" xmlns="http://www.w3.org/2000/svg" xmlns:xlink="http://www.w3.org/1999/xlink" x="0px" y="0px"
	 width="40px" height="34px" viewBox="0 0 283.46 283.46" enable-background="new 0 0 283.46 283.46" xml:space="preserve">
<g>
	<path fill="#2E5788" d="M69.111,106.582c-8.236-3.412-10.617-5.494-10.617-9.277c0-3.033,2.208-6.58,8.423-6.58
		c5.768,0,9.414,2.075,10.971,2.96l1.387,0.791l3.288-8.671l-0.998-0.583c-3.309-1.943-7.032-3.042-11.34-3.348v-9.038h-8.462V82.4
		c-8.516,1.83-13.952,8.011-13.952,16.018c0,9.606,7.737,13.974,16.1,17.257c6.812,2.753,9.585,5.568,9.585,9.726
		c0,4.528-3.953,7.692-9.623,7.692c-4.396,0-8.974-1.368-12.554-3.746l-1.456-0.97l-3.145,8.806l0.838,0.602
		c3.25,2.324,8.455,3.947,13.556,4.268v9.394h8.56v-9.85c8.786-1.906,14.601-8.551,14.601-16.837
		C84.272,116.35,79.737,110.909,69.111,106.582z"/>
	<path fill="none" stroke="#2E5788" stroke-width="6" stroke-miterlimit="10" d="M27.653,179.02H16.274
		c-2.843,0-4.738,1.901-4.738,4.744v43.603c0,2.844,1.895,4.743,4.738,4.743h11.379c2.841,0,4.739-1.899,4.739-4.743v-43.603
		C32.393,181.395,30.021,179.02,27.653,179.02z"/>
	<path fill="none" stroke="#2E5788" stroke-width="6" stroke-miterlimit="10" d="M226.721,169.543l-33.174,31.286
		c-2.846,2.364-5.688,4.266-9.007,5.209l6.161,1.899c5.217,1.422,8.531,5.686,8.531,11.376c0,5.211-2.846,9.952-8.057,11.849
		c-3.317,0.947-7.11,1.892-10.428,1.892h-15.171c-7.11,0-14.221-1.42-20.85-4.738c-10.904-5.214-23.229-5.686-34.126-1.421h-1.898
		c-1.426,0.472-2.846,0-2.846-1.422c-0.472-1.42,0-2.843,1.42-2.843l1.426-0.472c12.321-4.745,26.07-3.796,37.917,1.422
		c5.688,2.844,12.324,4.266,18.956,4.266h15.171c2.846,0,6.16-0.479,9.006-1.422c3.793-1.423,4.739-4.266,4.739-7.11
		c0-2.372-1.418-5.69-5.214-6.637l-11.85-3.796c-0.478,0-3.317-0.472-4.742-0.472l0,0c-14.221,0.472-27.96-4.739-38.392-14.219l0,0
		c-18.488-17.063-44.553-23.226-68.726-17.063l-23.7,6.161v43.605h4.741c5.215,0,10.903,0.951,15.642,2.846l51.665,20.856
		c16.112,6.629,33.653,5.688,49.295-1.899c7.106-3.316,15.164-6.633,24.646-8.535c9.481-2.365,18.013-9,23.221-17.532l27.02-44.555
		C242.366,170.965,232.888,163.855,226.721,169.543z"/>
	<path fill="none" stroke="#2E5788" stroke-width="6" stroke-miterlimit="10" d="M262.178,115.639
		c0.004,0.038,0.007,0.062,0.007,0.093v31.926c0,1.655-1.346,3-3.007,3h-71.037c-1.66,0-3.006-1.345-3.006-3v-31.926
		c0-0.031,0.006-0.055,0.006-0.093l-9.742-0.011l48.58-37.169l47.945,37.169L262.178,115.639z M234.02,113.793h-9.173v9.17h9.173
		V113.793z M222.47,113.793h-9.171v9.17h9.171V113.793z M222.47,125.779h-9.171v9.168h9.171V125.779z M234.02,125.779h-9.173v9.168
		h9.173V125.779z"/>
	<path fill="none" stroke="#2E5788" stroke-width="6" stroke-miterlimit="10" d="M178.921,151.422
		c-0.479-1.162-0.746-2.433-0.746-3.765v-25.068l-23.29-0.025l23.436-17.931v-8.559h11.186l13.412-10.263v-2.585V28.428h-92.244
		v54.797v68.196h30.75v-18.448h10.358h10.028h10.362v18.448H178.921z M178.32,40.728h12.299v12.297H178.32V40.728z M178.32,59.176
		h12.299v12.301H178.32V59.176z M178.32,77.625h7.779h4.52v12.299H178.32V77.625z M159.873,40.728h12.299v12.297h-12.299V40.728z
		 M159.873,59.176h12.299v12.301h-12.299V59.176z M159.873,87.023v-9.398h6.809h5.49v12.299h-12.299V87.023z M159.873,100.395
		v-4.321h12.299v12.299H161.81h-1.937V100.395z M135.271,108.373h-12.296V96.074h12.296V108.373z M135.271,89.924h-12.296V77.625
		h4.519h7.777V89.924z M135.271,71.477h-12.296V59.176h12.296V71.477z M135.271,53.025h-12.296V40.728h12.296V53.025z
		 M153.719,100.395v7.979h-1.938h-10.358V96.074h12.295V100.395z M153.719,87.023v2.901h-12.295V77.625h5.487h6.809V87.023z
		 M153.719,71.477h-12.295V59.176h12.295V71.477z M153.719,53.025h-12.295V40.728h12.295V53.025z"/>
</g>
</svg>
