<?xml version="1.0" encoding="utf-8"?>
<!-- Generator: Adobe Illustrator 16.0.0, SVG Export Plug-In . SVG Version: 6.00 Build 0)  -->
<!DOCTYPE svg PUBLIC "-//W3C//DTD SVG 1.1//EN" "http://www.w3.org/Graphics/SVG/1.1/DTD/svg11.dtd">
<svg version="1.1" id="Layer_1" xmlns="http://www.w3.org/2000/svg" xmlns:xlink="http://www.w3.org/1999/xlink" x="0px" y="0px"
	 width="40px" height="34px" viewBox="0 0 283.46 283.46" enable-background="new 0 0 283.46 283.46" xml:space="preserve">
<g>
	<path fill="none" stroke="#43D570" stroke-width="8" stroke-miterlimit="10" d="M212.166,249.337h-8.307l-68.735,22.692
		c-2.132,1.142-10.787,5-19.83-0.245l-0.099-0.048l-94.211-52.378c-0.35-0.194-0.639-0.437-0.89-0.685l0,0
		c0-0.059-8.416-8.51-3.267-18.104l0,0c0-0.048,5.633-12.016,16.519-8.997c27.351,7.569,44.998,23.29,61.273,27.349
		c21.215,3.808,36.053,2.473,56.029-5.987c-6.032-0.586-15.725-0.045-25.618,0.398c-3.015,0.144-6.083,0.244-9.096,0.345
		c-30.071,0.792-31.456-9.051-25.075-16.219c6.176-6.926,11.52-7.075,19.378-7.075h30.125c4.795-2.173,29.468-13.155,42.774-15.529
		c0.047,0,0.097,0,0.147,0c5.936-1.037,13.307-1.383,19.979-1.383c3.214,0,6.283,0.051,8.9,0.151v75.808V249.337z"/>
	<path fill="none" stroke="#43D570" stroke-width="8" stroke-miterlimit="10" d="M224.979,155.963h34.469
		c2.415,0,4.596,0.993,6.229,2.571l0,0l0,0l0,0l0,0c1.583,1.634,2.624,3.815,2.624,6.233v93.019c0,2.431-0.995,4.601-2.575,6.232
		l0,0l0,0l0,0l0,0c-1.629,1.58-3.807,2.623-6.233,2.623h-34.474c-2.265,0-4.395-0.894-5.973-2.324
		c-0.107-0.101-0.201-0.201-0.302-0.247c-1.583-1.582-2.627-3.807-2.627-6.284v-93.019c0-2.418,0.998-4.65,2.627-6.281l0,0
		c1.63-1.631,3.808-2.621,6.235-2.621V155.963z"/>
</g>
<path fill="#43D570" d="M96.449,146.321c-0.389,0.053-0.938,0.097-1.578,0.097c-0.791,0-1.44-0.044-1.929-0.097
	c-0.491-0.101-0.896-0.196-1.14-0.348c-0.293-0.144-0.441-0.341-0.54-0.533c-0.103-0.252-0.103-0.505-0.048-0.75l0.789-7.717
	c-1.089-0.146-2.127-0.344-3.069-0.59c-0.988-0.249-1.83-0.489-2.621-0.794c-0.787-0.293-1.486-0.589-2.031-0.884
	c-0.542-0.305-0.988-0.598-1.283-0.891c-0.294-0.296-0.492-0.69-0.642-1.289c-0.146-0.542-0.194-1.383-0.194-2.523
	c0-0.84,0.048-1.576,0.095-2.128c0.051-0.539,0.148-0.983,0.249-1.285c0.15-0.3,0.298-0.494,0.492-0.646
	c0.194-0.092,0.396-0.143,0.649-0.143c0.341,0,0.789,0.194,1.433,0.543c0.637,0.392,1.433,0.794,2.417,1.234
	c0.988,0.446,2.179,0.891,3.556,1.239c1.397,0.397,3.026,0.54,4.904,0.54c2.97,0,5.139-0.54,6.576-1.627
	c1.441-1.092,2.181-2.57,2.181-4.402c0-1.235-0.309-2.225-0.942-2.968c-0.647-0.792-1.435-1.482-2.478-2.074
	c-1.038-0.591-2.221-1.14-3.505-1.584c-1.29-0.498-2.626-0.994-4.011-1.481c-1.328-0.55-2.664-1.14-4.003-1.881
	c-1.29-0.692-2.471-1.581-3.514-2.621c-1.029-1.04-1.825-2.275-2.471-3.756c-0.641-1.487-0.94-3.265-0.94-5.345
	c0-1.876,0.3-3.609,0.94-5.14c0.646-1.581,1.534-2.922,2.723-4.111c1.184-1.186,2.67-2.071,4.4-2.812
	c1.729-0.743,3.706-1.191,5.884-1.484l0.741-7.622c0.049-0.193,0.099-0.39,0.15-0.491c0.101-0.15,0.242-0.242,0.498-0.394
	c0.242-0.094,0.533-0.193,0.981-0.247c0.402-0.046,0.949-0.101,1.583-0.101c0.799,0,1.44,0.054,1.931,0.101
	c0.498,0.093,0.941,0.192,1.186,0.347c0.296,0.144,0.438,0.344,0.539,0.539c0.102,0.246,0.102,0.498,0.102,0.741l-0.736,7.176
	c0.692,0.094,1.484,0.244,2.22,0.39c0.796,0.194,1.537,0.402,2.181,0.649c0.69,0.244,1.276,0.494,1.827,0.787
	c0.543,0.249,0.946,0.496,1.144,0.745c0.196,0.196,0.388,0.445,0.489,0.639c0.104,0.205,0.205,0.499,0.25,0.794
	c0.048,0.344,0.092,0.688,0.146,1.138c0.043,0.443,0.043,0.938,0.043,1.534c0,0.789,0,1.435-0.043,1.925
	c-0.054,0.493-0.099,0.89-0.192,1.14c-0.101,0.244-0.205,0.441-0.354,0.542c-0.143,0.101-0.244,0.148-0.438,0.148
	c-0.353,0-0.801-0.148-1.435-0.493c-0.653-0.349-1.394-0.697-2.328-1.04c-0.938-0.398-1.983-0.75-3.169-1.04
	c-1.189-0.344-2.521-0.494-3.957-0.494c-1.281,0-2.421,0.15-3.358,0.394c-0.939,0.252-1.684,0.598-2.275,1.04
	c-0.598,0.443-0.999,0.988-1.287,1.633c-0.245,0.646-0.392,1.336-0.392,2.077c0,1.189,0.293,2.178,0.934,2.97
	c0.653,0.786,1.482,1.527,2.523,2.074c1.043,0.591,2.226,1.096,3.565,1.583c1.333,0.491,2.667,0.987,4.054,1.534
	c1.379,0.542,2.718,1.142,4.058,1.829c1.336,0.693,2.465,1.584,3.554,2.578c1.043,1.029,1.885,2.268,2.475,3.703
	c0.642,1.483,0.94,3.216,0.94,5.237c0,2.183-0.396,4.154-1.135,5.889c-0.798,1.735-1.881,3.272-3.269,4.502
	c-1.424,1.289-3.115,2.277-5.093,3.013c-1.971,0.747-4.206,1.241-6.624,1.435l-0.797,8.115c-0.044,0.201-0.099,0.394-0.146,0.545
	c-0.094,0.146-0.246,0.295-0.494,0.396c-0.237,0.097-0.533,0.192-0.988,0.245L96.449,146.321z"/>
<path fill="none" stroke="#43D570" stroke-width="8" stroke-miterlimit="10" d="M56.646,71.059
	c10.677-10.689,25.466-17.313,41.782-17.313c16.324,0,31.113,6.624,41.791,17.313c10.683,10.677,17.306,25.465,17.306,41.782
	c0,16.321-6.623,31.113-17.306,41.793c-10.677,10.677-25.466,17.306-41.791,17.306c-16.316,0-31.105-6.629-41.782-17.306
	c-10.688-10.68-17.314-25.472-17.314-41.793C39.332,96.523,45.958,81.736,56.646,71.059z"/>
<path fill="#43D570" d="M193.666,67.569c-0.249,0.034-0.592,0.061-0.999,0.061c-0.501,0-0.911-0.027-1.222-0.061
	c-0.311-0.063-0.565-0.125-0.719-0.22c-0.188-0.09-0.279-0.215-0.345-0.337c-0.063-0.159-0.063-0.319-0.027-0.474l0.498-4.883
	c-0.688-0.094-1.347-0.218-1.942-0.374c-0.624-0.157-1.157-0.308-1.656-0.502c-0.5-0.186-0.941-0.373-1.285-0.559
	c-0.345-0.194-0.629-0.378-0.814-0.564c-0.185-0.189-0.311-0.436-0.405-0.816c-0.093-0.342-0.123-0.874-0.123-1.595
	c0-0.532,0.03-0.999,0.062-1.348c0.03-0.341,0.094-0.622,0.156-0.813c0.094-0.189,0.189-0.313,0.311-0.409
	c0.124-0.058,0.25-0.09,0.41-0.09c0.217,0,0.5,0.123,0.91,0.344c0.4,0.249,0.903,0.503,1.528,0.781
	c0.624,0.281,1.379,0.564,2.251,0.784c0.881,0.252,1.912,0.341,3.1,0.341c1.882,0,3.252-0.341,4.161-1.027
	c0.912-0.694,1.379-1.627,1.379-2.786c0-0.782-0.192-1.408-0.595-1.878c-0.409-0.502-0.906-0.939-1.567-1.312
	c-0.66-0.375-1.404-0.723-2.219-1.004c-0.814-0.313-1.66-0.628-2.536-0.937c-0.842-0.348-1.684-0.721-2.537-1.189
	c-0.813-0.438-1.559-1.002-2.22-1.66c-0.651-0.656-1.155-1.438-1.563-2.375c-0.409-0.94-0.595-2.067-0.595-3.382
	c0-1.188,0.186-2.285,0.595-3.251c0.407-1.002,0.969-1.851,1.721-2.602c0.75-0.75,1.692-1.31,2.786-1.779
	c1.094-0.47,2.345-0.753,3.722-0.939l0.47-4.824c0.029-0.121,0.06-0.247,0.096-0.31c0.062-0.095,0.151-0.153,0.312-0.249
	c0.153-0.06,0.34-0.123,0.624-0.157c0.254-0.029,0.602-0.063,1-0.063c0.506,0,0.914,0.034,1.222,0.063
	c0.315,0.06,0.597,0.121,0.752,0.22c0.188,0.09,0.277,0.218,0.341,0.341c0.064,0.155,0.064,0.315,0.064,0.469l-0.467,4.541
	c0.437,0.06,0.939,0.155,1.406,0.247c0.502,0.123,0.973,0.254,1.38,0.409c0.437,0.157,0.805,0.313,1.152,0.501
	c0.349,0.157,0.601,0.312,0.726,0.468c0.124,0.126,0.247,0.283,0.31,0.406c0.068,0.129,0.132,0.317,0.16,0.502
	c0.027,0.218,0.059,0.435,0.094,0.721c0.024,0.28,0.024,0.591,0.024,0.97c0,0.5,0,0.908-0.024,1.218
	c-0.035,0.312-0.066,0.564-0.122,0.723c-0.063,0.153-0.132,0.278-0.226,0.343c-0.092,0.063-0.158,0.093-0.277,0.093
	c-0.224,0-0.504-0.093-0.908-0.312c-0.412-0.222-0.879-0.441-1.474-0.658c-0.592-0.252-1.251-0.474-2.004-0.66
	c-0.752-0.216-1.594-0.312-2.505-0.312c-0.812,0-1.532,0.095-2.125,0.25c-0.593,0.158-1.065,0.378-1.438,0.658
	c-0.377,0.279-0.631,0.625-0.813,1.032c-0.159,0.408-0.251,0.845-0.251,1.314c0,0.753,0.186,1.378,0.593,1.879
	c0.413,0.498,0.938,0.966,1.594,1.313c0.663,0.373,1.412,0.693,2.258,1c0.845,0.312,1.687,0.627,2.568,0.971
	c0.872,0.343,1.714,0.723,2.563,1.157c0.847,0.439,1.561,1.003,2.251,1.631c0.659,0.652,1.192,1.436,1.564,2.345
	c0.407,0.937,0.596,2.033,0.596,3.313c0,1.38-0.248,2.629-0.721,3.725c-0.501,1.099-1.189,2.072-2.063,2.849
	c-0.903,0.816-1.972,1.442-3.224,1.909c-1.247,0.47-2.662,0.784-4.193,0.907l-0.503,5.134c-0.027,0.128-0.063,0.249-0.092,0.346
	c-0.062,0.092-0.159,0.186-0.313,0.249c-0.15,0.062-0.34,0.123-0.626,0.157L193.666,67.569z"/>
<path fill="none" stroke="#43D570" stroke-width="8" stroke-miterlimit="10" d="M168.479,19.947
	c6.758-6.763,16.117-10.955,26.438-10.955c10.332,0,19.688,4.192,26.446,10.955c6.759,6.755,10.95,16.113,10.95,26.438
	c0,10.328-4.191,19.687-10.95,26.445c-6.758,6.756-16.114,10.95-26.446,10.95c-10.32,0-19.68-4.193-26.438-10.95
	c-6.762-6.758-10.953-16.117-10.953-26.445C157.525,36.06,161.717,26.702,168.479,19.947z"/>
</svg>
