<?xml version="1.0" encoding="utf-8"?>
<!-- Generator: Adobe Illustrator 16.0.0, SVG Export Plug-In . SVG Version: 6.00 Build 0)  -->
<!DOCTYPE svg PUBLIC "-//W3C//DTD SVG 1.1//EN" "http://www.w3.org/Graphics/SVG/1.1/DTD/svg11.dtd">
<svg version="1.1" id="Layer_1" xmlns="http://www.w3.org/2000/svg" xmlns:xlink="http://www.w3.org/1999/xlink" x="0px" y="0px"
	 width="40px" height="34px" viewBox="0 0 283.46 283.46" enable-background="new 0 0 283.46 283.46" xml:space="preserve">
<path fill="none" stroke="#00CCF1" stroke-width="8" stroke-miterlimit="10" d="M68.593,118.569
	c2.253,14.666,13.59,33.331,32.205,39.896c7.641,2.663,15.997,2.717,23.64-0.051c18.306-6.618,29.997-25.231,32.307-39.846
	c2.461-0.206,5.691-3.64,9.178-16.001c4.771-16.869-0.308-19.38-4.614-18.972c0.82-2.305,1.436-4.666,1.844-6.923
	c7.286-43.738-14.254-45.229-14.254-45.229s-3.589-6.87-12.973-12.047c-6.309-3.75-15.078-6.615-26.615-5.642
	c-3.744,0.152-7.281,0.92-10.617,1.998c-4.256,1.437-8.151,3.54-11.689,6.001c-4.306,2.717-8.412,6.102-12,9.946
	c-5.692,5.847-10.768,13.386-12.973,22.772c-1.847,7.025-1.436,14.359,0.102,22.252c0.412,2.309,1.025,4.618,1.845,6.923
	c-4.308-0.408-9.382,2.103-4.614,18.976C62.9,114.929,66.132,118.364,68.593,118.569z"/>
<path fill="none" stroke="#00CCF1" stroke-width="8" stroke-miterlimit="10" d="M225.5,170.407
	c-27.435,0-49.745,22.315-49.745,49.743c0,27.431,22.311,49.746,49.745,49.746c27.427,0,49.746-22.315,49.746-49.746
	C275.246,192.723,252.927,170.407,225.5,170.407z"/>
<path fill="#00CCF1" d="M228.688,241.899v7.249h-6.955v-6.751c-4.763-0.208-9.386-1.489-12.081-3.054l2.133-8.315
	c2.982,1.636,7.176,3.129,11.792,3.129c4.056,0,6.824-1.564,6.824-4.403c0-2.702-2.273-4.41-7.533-6.186
	c-7.604-2.56-12.794-6.114-12.794-13.009c0-6.257,4.403-11.157,12.014-12.653v-6.752h6.966v6.258
	c4.761,0.211,7.961,1.206,10.306,2.345l-2.061,8.025c-1.852-0.78-5.12-2.413-10.237-2.413c-4.623,0-6.114,1.99-6.114,3.978
	c0,2.348,2.491,3.841,8.525,6.117c8.462,2.985,11.877,6.891,11.877,13.288C241.349,235.077,236.863,240.482,228.688,241.899z"/>
<path fill="none" stroke="#00CCF1" stroke-width="8" stroke-miterlimit="10" d="M187.498,173.045
	c-21.531-7.338-37.729-18.731-37.729-18.731l-16.613,52.56l-3.13,9.897l-0.05-0.153l-2.717,8.408l-8.77-24.868
	c21.539-30.051-4.36-29.743-5.795-29.692c-1.438-0.051-27.331-0.358-5.795,29.692l-8.767,24.868l-2.721-8.408l-0.048,0.153
	l-3.128-9.897l-16.665-52.56c0,0-21.283,14.974-47.488,21.639C8.543,180.924,7.623,203.49,8.391,214.616
	c0,0,1.129,15.127,2.257,21.792c0,0,38.152,24.771,102.045,24.821c24.753,0,45.619-3.726,61.924-8.29
	c-6.114-9.457-9.682-20.712-9.682-32.789C164.936,201.139,173.749,184.149,187.498,173.045z"/>
</svg>
